<svg width="335" height="97" viewBox="0 0 335 97" fill="none" xmlns="http://www.w3.org/2000/svg">
<g clip-path="url(#clip0_63_306)">
<g filter="url(#filter0_d_63_306)">
<rect x="168" y="22" width="140" height="42" rx="4" fill="url(#paint0_linear_63_306)"/>
<rect x="168.5" y="22.5" width="139" height="41" rx="3.5" stroke="url(#paint1_linear_63_306)"/>
</g>
<g filter="url(#filter1_d_63_306)">
<rect y="22" width="140" height="42" rx="4" fill="url(#paint2_linear_63_306)"/>
<rect x="0.5" y="22.5" width="139" height="41" rx="3.5" stroke="url(#paint3_linear_63_306)"/>
</g>
<path d="M41.06 37.36L39.54 37.8C39.38 36.94 38.96 35.58 38.58 34.56L40.02 34.18C40.42 35.2 40.86 36.5 41.06 37.36ZM48.06 38.04V39.5H32V38.04H48.06ZM38.22 48.96L36.64 49.34C36.36 47.06 35.52 43.56 34.76 40.94L36.24 40.58C37.02 43.26 37.86 46.66 38.22 48.96ZM42.42 50.2H48.86V51.68H31.14V50.2H40.82C41.9 47.64 43.14 43.5 43.78 40.58L45.46 40.9C44.64 43.88 43.44 47.68 42.42 50.2ZM58.38 36.66H53.7V39.26H58.38V36.66ZM53.7 43.36H58.38V40.6H53.7V43.36ZM56.34 46.32L57.6 45.72C58.62 47.34 59.82 49.5 60.38 50.82L59.04 51.56C58.82 51.02 58.5 50.3 58.12 49.56C53.08 51.34 52.42 51.62 52 51.94C51.9 51.52 51.62 50.8 51.38 50.42C51.72 50.26 52.22 49.92 52.22 49.16V35.32H59.84V44.7H53.7V49.62L57.52 48.38C57.12 47.66 56.7 46.94 56.34 46.32ZM68.22 35.44V46.88C68.22 47.72 68.04 48.14 67.5 48.38C66.96 48.64 66.06 48.66 64.6 48.64C64.54 48.24 64.38 47.64 64.16 47.22C65.2 47.26 66.12 47.26 66.38 47.24C66.66 47.24 66.76 47.16 66.76 46.88V36.84H63.14V52.54H61.68V35.44H68.22ZM75.58 34.22L76.98 34.66C76.42 36.06 75.7 37.48 74.92 38.82V52.62H73.5V40.96C72.8 41.94 72.04 42.82 71.3 43.56C71.16 43.22 70.74 42.46 70.46 42.12C72.48 40.22 74.42 37.24 75.58 34.22ZM78.4 44.02H81.94C81.96 43.72 81.96 43.42 81.96 43.12V41.06H78.4V44.02ZM87.1 41.06H83.42V43.12C83.42 43.42 83.42 43.72 83.4 44.02H87.1V41.06ZM88.52 45.28H83.32C83.16 46.66 82.8 47.96 82 49.12C84 50.22 86.52 50.9 89.36 51.24C89.04 51.56 88.68 52.14 88.48 52.58C85.66 52.16 83.16 51.38 81.12 50.16C80.12 51.14 78.68 51.98 76.6 52.6C76.44 52.28 76.02 51.66 75.7 51.38C77.66 50.88 79 50.18 79.92 49.36C78.74 48.46 77.76 47.38 77.02 46.1L78.26 45.7C78.86 46.74 79.72 47.62 80.78 48.36C81.42 47.42 81.72 46.38 81.86 45.28H77.02V39.8H81.96V37.84H76.44V36.48H81.96V34.34H83.42V36.48H89.18V37.84H83.42V39.8H88.52V45.28ZM100.84 45.02H106.22V41.7H100.84V45.02ZM94.5 45.02H99.36V41.7H94.58V42.88C94.58 43.54 94.56 44.28 94.5 45.02ZM99.36 37.1H94.58V40.3H99.36V37.1ZM106.22 40.3V37.1H100.84V40.3H106.22ZM107.68 35.68V50.52C107.68 51.48 107.42 51.92 106.78 52.18C106.1 52.42 104.94 52.44 103.06 52.42C103 52.02 102.76 51.38 102.56 50.98C103.96 51.04 105.32 51.02 105.68 51.02C106.08 51 106.22 50.88 106.22 50.5V46.44H100.84V52.34H99.36V46.44H94.36C94.06 48.66 93.38 50.94 91.86 52.64C91.64 52.34 91.04 51.84 90.72 51.66C92.92 49.18 93.12 45.66 93.12 42.88V35.68H107.68Z" fill="black"/>
<path d="M214.64 35.72L215.8 36.58C214.04 38.52 211.32 40.6 208.84 41.94V50.58C208.84 51.6 208.58 52.04 207.8 52.26C207.04 52.5 205.72 52.52 203.7 52.52C203.62 52.1 203.34 51.44 203.1 51.04C204.76 51.1 206.3 51.08 206.76 51.06C207.18 51.04 207.3 50.94 207.3 50.58V41.2C209.22 40.26 211.36 38.7 212.86 37.28H200V35.82H214.28L214.64 35.72ZM224.36 46.64H226.16V44H224.36V46.64ZM221.46 46.64H223.28V44H221.52V44.62C221.52 45.24 221.5 45.94 221.46 46.64ZM224.86 37.22H222.28C221.96 37.94 221.64 38.66 221.28 39.3H223.96C224.28 38.7 224.62 37.92 224.86 37.22ZM224.36 40.48V42.88H226.16V40.48H224.36ZM221.52 40.48V42.88H223.28V40.48H221.52ZM227.42 39.3V50.84C227.42 51.48 227.3 51.86 226.86 52.1C226.46 52.34 225.84 52.36 224.84 52.36C224.78 52 224.64 51.44 224.44 51.08C225.14 51.1 225.7 51.1 225.88 51.1C226.1 51.1 226.16 51.04 226.16 50.82V47.82H224.36V51.48H223.28V47.82H221.34C221.14 49.52 220.72 51.26 219.84 52.6C219.64 52.38 219.06 52.02 218.76 51.9C220.1 49.8 220.24 46.84 220.24 44.6V40.92C220.1 41.1 219.94 41.28 219.8 41.46C219.6 41.24 219.02 40.8 218.72 40.6C220.12 39.06 221.22 36.7 221.84 34.26L223.18 34.54C223.04 35.04 222.88 35.54 222.72 36.04H225.48L225.7 35.98L226.6 36.56C226.26 37.44 225.8 38.46 225.34 39.3H227.42ZM235.18 36.54H232.26C231.86 38.88 230.96 40.82 228.6 41.96C228.44 41.64 228.06 41.16 227.78 40.92C229.8 40.02 230.58 38.42 230.92 36.54H228.2V35.28H236.58C236.58 35.28 236.58 35.66 236.56 35.86C236.4 39.14 236.22 40.42 235.8 40.9C235.54 41.22 235.2 41.36 234.72 41.4C234.3 41.44 233.48 41.42 232.66 41.38C232.62 41 232.5 40.48 232.3 40.14C233.08 40.22 233.84 40.22 234.1 40.22C234.38 40.24 234.54 40.22 234.68 40.04C234.88 39.78 235.04 38.86 235.18 36.54ZM237.12 47.4V48.7H233.64V52.52H232.24V48.7H228.22V47.4H232.24V44.96H230.06C229.74 45.7 229.42 46.36 229.02 46.9C228.76 46.72 228.2 46.42 227.88 46.28C228.74 45.16 229.36 43.5 229.68 41.82L230.96 42.06C230.84 42.62 230.68 43.14 230.52 43.68H232.24V41.78H233.64V43.68H236.62V44.96H233.64V47.4H237.12ZM242.6 44.8H247.32C247.36 44.4 247.36 43.98 247.36 43.58V42.78H242.6V44.8ZM242.6 39.6V41.6H247.36V39.6H242.6ZM253.92 39.6H248.88V41.6H253.92V39.6ZM253.92 44.8V42.78H248.88V43.6C248.88 44 248.86 44.42 248.84 44.8H253.92ZM255.38 46.04H248.66C248.42 47.28 247.88 48.42 246.88 49.44C249.4 50.58 252.84 50.88 257.28 51C257.02 51.36 256.74 51.98 256.66 52.46C252.04 52.26 248.4 51.82 245.68 50.38C244.34 51.26 242.48 52 239.88 52.54C239.72 52.2 239.32 51.58 239 51.24C241.38 50.78 243.08 50.22 244.3 49.52C243.34 48.78 242.52 47.86 241.84 46.7L243.08 46.2C243.76 47.24 244.56 48.06 245.5 48.68C246.42 47.9 246.88 47 247.12 46.04H241.18V38.36H247.36V36.68H239.36V35.34H256.64V36.68H248.88V38.36H255.38V46.04ZM272.9 35.94L273.86 36.54C271.34 40.96 265.52 43.64 260.34 44.72C260.22 44.32 259.9 43.7 259.64 43.38C261.86 42.98 264.22 42.26 266.34 41.24C265.68 40.64 264.8 40 264 39.54L265.08 38.78C265.92 39.26 266.92 39.94 267.64 40.58C269.22 39.66 270.6 38.58 271.58 37.34H265.94C264.66 38.4 263.1 39.38 261.3 40.2C261.08 39.86 260.62 39.4 260.3 39.16C263.48 37.82 265.86 35.88 267.14 34.24L268.76 34.58C268.38 35.06 267.94 35.52 267.46 36H272.64L272.9 35.94ZM275.82 42.92L276.82 43.54C274.04 49.42 267.22 51.74 260.18 52.58C260.08 52.16 259.84 51.5 259.58 51.14C262.96 50.82 266.32 50.12 269.12 48.82C268.46 48.18 267.56 47.42 266.78 46.82L268 46.12C268.8 46.7 269.76 47.48 270.48 48.14C272.18 47.16 273.6 45.92 274.6 44.36H269.2C267.54 45.7 265.48 46.92 262.98 47.9C262.8 47.58 262.38 47.04 262.04 46.8C266.08 45.34 268.92 43.12 270.38 41.16L272.02 41.52C271.62 42.02 271.2 42.52 270.7 43H275.52L275.82 42.92Z" fill="black"/>
</g>
<defs>
<filter id="filter0_d_63_306" x="163.2" y="22" width="149.6" height="51.8" filterUnits="userSpaceOnUse" color-interpolation-filters="sRGB">
<feFlood flood-opacity="0" result="BackgroundImageFix"/>
<feColorMatrix in="SourceAlpha" type="matrix" values="0 0 0 0 0 0 0 0 0 0 0 0 0 0 0 0 0 0 127 0" result="hardAlpha"/>
<feOffset dy="5"/>
<feGaussianBlur stdDeviation="2.4"/>
<feComposite in2="hardAlpha" operator="out"/>
<feColorMatrix type="matrix" values="0 0 0 0 0.456901 0 0 0 0 0.445479 0 0 0 0 0.445479 0 0 0 0.25 0"/>
<feBlend mode="normal" in2="BackgroundImageFix" result="effect1_dropShadow_63_306"/>
<feBlend mode="normal" in="SourceGraphic" in2="effect1_dropShadow_63_306" result="shape"/>
</filter>
<filter id="filter1_d_63_306" x="-4.8" y="22" width="149.6" height="51.8" filterUnits="userSpaceOnUse" color-interpolation-filters="sRGB">
<feFlood flood-opacity="0" result="BackgroundImageFix"/>
<feColorMatrix in="SourceAlpha" type="matrix" values="0 0 0 0 0 0 0 0 0 0 0 0 0 0 0 0 0 0 127 0" result="hardAlpha"/>
<feOffset dy="5"/>
<feGaussianBlur stdDeviation="2.4"/>
<feComposite in2="hardAlpha" operator="out"/>
<feColorMatrix type="matrix" values="0 0 0 0 0.456901 0 0 0 0 0.445479 0 0 0 0 0.445479 0 0 0 0.25 0"/>
<feBlend mode="normal" in2="BackgroundImageFix" result="effect1_dropShadow_63_306"/>
<feBlend mode="normal" in="SourceGraphic" in2="effect1_dropShadow_63_306" result="shape"/>
</filter>
<linearGradient id="paint0_linear_63_306" x1="133.538" y1="-15.625" x2="346.408" y2="233.588" gradientUnits="userSpaceOnUse">
<stop stop-color="white"/>
<stop offset="0.145" stop-color="white"/>
<stop offset="0.77" stop-color="white"/>
<stop offset="1" stop-color="white"/>
</linearGradient>
<linearGradient id="paint1_linear_63_306" x1="168" y1="22" x2="303.939" y2="74.513" gradientUnits="userSpaceOnUse">
<stop stop-color="white"/>
<stop offset="0.26" stop-color="#D1D1D1"/>
<stop offset="0.585" stop-color="#C8C7C7"/>
<stop offset="1" stop-color="#A19F9F"/>
</linearGradient>
<linearGradient id="paint2_linear_63_306" x1="-34.4615" y1="-15.625" x2="178.408" y2="233.588" gradientUnits="userSpaceOnUse">
<stop stop-color="white"/>
<stop offset="0.145" stop-color="white"/>
<stop offset="0.77" stop-color="white"/>
<stop offset="1" stop-color="white"/>
</linearGradient>
<linearGradient id="paint3_linear_63_306" x1="0" y1="22" x2="135.939" y2="74.513" gradientUnits="userSpaceOnUse">
<stop stop-color="white"/>
<stop offset="0.26" stop-color="#D1D1D1"/>
<stop offset="0.585" stop-color="#C8C7C7"/>
<stop offset="1" stop-color="#A19F9F"/>
</linearGradient>
<clipPath id="clip0_63_306">
<rect width="335" height="97" fill="white"/>
</clipPath>
</defs>
</svg>
