<svg width="308" height="80" viewBox="0 0 308 91" fill="none" xmlns="http://www.w3.org/2000/svg">
<path d="M48.4368 90.9192C75.1877 90.9192 96.8735 70.5663 96.8735 45.4596C96.8735 20.353 75.1877 0 48.4368 0C21.6859 0 0 20.353 0 45.4596C0 70.5663 21.6859 90.9192 48.4368 90.9192Z" fill="#C71D23"/>
<path fill-rule="evenodd" clip-rule="evenodd" d="M72.9544 40.4095H45.4472C44.1264 40.41 43.0556 41.4148 43.0547 42.6544L43.0531 48.2664C43.0521 49.5062 44.1227 50.5116 45.4438 50.5119C45.4435 50.5125 45.444 50.5119 45.4438 50.5119L62.1907 50.5112C63.5117 50.5111 64.5826 51.5162 64.5826 52.756C64.5826 52.756 64.5827 52.756 64.5826 52.756L64.5826 53.3172V53.8784C64.5826 57.5979 61.3699 60.6132 57.4068 60.6132H34.6818C33.3609 60.6131 32.2902 59.6082 32.2901 58.3685L32.2895 37.0423C32.2891 33.3228 35.5018 30.3075 39.4648 30.3074C39.4648 30.3072 39.4649 30.3074 39.4648 30.3074L72.9477 30.3076C74.2681 30.3062 75.3388 29.302 75.3411 28.0627L75.3448 22.4507C75.3471 21.2108 74.2769 20.2051 72.9559 20.2044C72.9554 20.2044 72.9563 20.203 72.9559 20.2044L39.4671 20.2057C29.5594 20.2057 21.5277 27.7438 21.5277 37.0425V68.4701C21.5277 69.71 22.5986 70.715 23.9196 70.715H59.2011C68.1179 70.715 75.3463 63.9309 75.3463 55.5622V42.6544C75.3463 41.4145 74.2754 40.4095 72.9544 40.4095Z" fill="white"/>
<path d="M140.037 80.4829C147.318 80.4829 153.13 79.15 157.474 76.4843C161.818 73.8187 163.99 70.3669 163.99 66.1292C163.99 59.2941 158.554 55.8765 147.682 55.8765H140.983C138.751 55.8765 137.149 55.6715 136.178 55.2614C135.207 54.8513 134.722 54.1678 134.722 53.2109C134.722 52.254 135.038 51.4565 135.669 50.8186C135.911 50.5452 136.227 50.454 136.615 50.5452C138.168 50.9553 139.649 51.1603 141.056 51.1603C146.056 51.1603 150.121 50.0325 153.251 47.777C156.382 45.5214 157.947 42.1836 157.947 37.7636C157.947 36.1231 157.632 34.665 157.001 33.3891C156.952 33.298 156.964 33.1954 157.037 33.0815C157.11 32.9676 157.219 32.9106 157.365 32.9106H159.039C160.253 32.9106 161.272 32.5233 162.097 31.7487C162.922 30.974 163.335 30.0171 163.335 28.8779V27.921C163.335 26.8274 162.922 25.8819 162.097 25.0845C161.272 24.287 160.253 23.8883 159.039 23.8883H148.337C147.997 23.8883 147.633 23.8428 147.245 23.7516C145.352 23.2048 143.289 22.9314 141.056 22.9314C137.901 22.9314 135.013 23.444 132.392 24.4693C129.771 25.4946 127.599 27.135 125.876 29.3906C124.153 31.6462 123.292 34.3232 123.292 37.4218C123.292 39.5635 123.826 41.5229 124.893 43.3C125.961 45.0771 127.296 46.5125 128.898 47.6061C128.995 47.6517 129.043 47.72 129.043 47.8111C129.043 47.9023 128.995 47.9934 128.898 48.0845C127.539 48.9959 126.447 50.1009 125.621 51.3996C124.796 52.6982 124.384 54.0311 124.384 55.3981C124.384 58.3144 125.621 60.57 128.097 62.1648C128.194 62.2104 128.242 62.2901 128.242 62.4041C128.242 62.518 128.194 62.6205 128.097 62.7116C126.155 63.623 124.687 64.7394 123.692 66.0608C122.697 67.3823 122.2 68.8404 122.2 70.4353C122.2 72.7137 123.025 74.6275 124.675 76.1768C126.325 77.7261 128.449 78.8311 131.045 79.4918C133.642 80.1525 136.639 80.4829 140.037 80.4829ZM141.056 43.6417C139.454 43.6417 138.156 43.1063 137.161 42.0355C136.166 40.9647 135.669 39.4268 135.669 37.4218C135.669 35.4624 136.166 33.9473 137.161 32.8765C138.156 31.8056 139.454 31.2702 141.056 31.2702C142.658 31.2702 143.956 31.7943 144.951 32.8423C145.946 33.8903 146.444 35.4168 146.444 37.4218C146.444 39.4268 145.946 40.9647 144.951 42.0355C143.956 43.1063 142.658 43.6417 141.056 43.6417ZM142.075 72.6909C139.309 72.6909 137.113 72.3377 135.487 71.6314C133.861 70.9251 133.048 69.8657 133.048 68.4531C133.048 67.3139 133.606 66.2431 134.722 65.2406C134.868 65.1039 135.086 65.0356 135.377 65.0356H135.596C136.809 65.2634 138.654 65.3773 141.129 65.3773H145.133C147.269 65.3773 148.834 65.5824 149.829 65.9925C150.824 66.4026 151.322 67.1545 151.322 68.2481C151.322 69.5239 150.46 70.5834 148.737 71.4264C147.014 72.2694 144.794 72.6909 142.075 72.6909ZM177.313 18.1469C179.498 18.1469 181.294 17.5545 182.701 16.3697C184.109 15.185 184.812 13.6585 184.812 11.7902C184.812 9.92196 184.109 8.38407 182.701 7.17653C181.294 5.969 179.498 5.36523 177.313 5.36523C175.081 5.36523 173.248 5.969 171.817 7.17653C170.385 8.38407 169.669 9.92196 169.669 11.7902C169.669 13.6585 170.385 15.185 171.817 16.3697C173.248 17.5545 175.081 18.1469 177.313 18.1469ZM179.57 63.5319C180.735 63.5319 181.743 63.1331 182.592 62.3357C183.441 61.5383 183.866 60.5928 183.866 59.4991V27.716C183.866 26.6224 183.441 25.6768 182.592 24.8794C181.743 24.082 180.735 23.6833 179.57 23.6833H174.984C173.77 23.6833 172.751 24.082 171.926 24.8794C171.101 25.6768 170.688 26.6224 170.688 27.716V59.4991C170.688 60.5928 171.101 61.5383 171.926 62.3357C172.751 63.1331 173.77 63.5319 174.984 63.5319H179.57ZM211.241 64.4888C213.085 64.4888 214.906 64.3293 216.701 64.0103C217.866 63.828 218.764 63.2357 219.395 62.2332C219.832 61.5497 220.051 60.8434 220.051 60.1143C220.051 59.7953 220.026 59.4536 219.978 59.089L219.686 57.9954C219.444 57.0385 218.837 56.2753 217.866 55.7057C216.896 55.1361 215.803 54.8285 214.59 54.7829C211.241 54.6462 209.566 52.5957 209.566 48.6314V33.9359C209.566 33.6169 209.736 33.4575 210.076 33.4575H215.245C216.41 33.4575 217.417 33.0587 218.267 32.2613C219.116 31.4639 219.541 30.5184 219.541 29.4248V27.716C219.541 26.6224 219.116 25.6768 218.267 24.8794C217.417 24.082 216.41 23.6833 215.245 23.6833H210.076C209.736 23.6833 209.566 23.5238 209.566 23.2048V17.2583C209.566 16.1191 209.142 15.1622 208.292 14.3876C207.443 13.6129 206.436 13.2256 205.271 13.2256H202.796C201.582 13.2256 200.514 13.6015 199.592 14.3534C198.67 15.1052 198.112 16.0508 197.918 17.1899L197.117 23.2048C197.068 23.5238 196.85 23.7061 196.461 23.7516L194.787 23.8883C193.573 23.9795 192.554 24.4465 191.729 25.2895C190.904 26.1325 190.491 27.1236 190.491 28.2628V29.4248C190.491 30.5184 190.916 31.4639 191.765 32.2613C192.615 33.0587 193.622 33.4575 194.787 33.4575H195.733C196.073 33.4575 196.243 33.6169 196.243 33.9359V48.7681C196.243 53.7349 197.456 57.5967 199.883 60.3535C202.31 63.1104 206.096 64.4888 211.241 64.4888ZM246.843 64.4888C250.726 64.4888 254.56 63.6458 258.346 61.9598C259.414 61.5041 260.094 60.7067 260.385 59.5675C260.531 59.203 260.603 58.8384 260.603 58.4739C260.603 57.7904 260.385 57.1069 259.948 56.4234L259.73 56.0133C259.147 55.0563 258.298 54.4184 257.181 54.0994C256.648 53.9627 256.114 53.8944 255.58 53.8944C254.949 53.8944 254.342 53.9855 253.76 54.1678C252.109 54.7146 250.411 54.988 248.663 54.988C242.936 54.988 239.465 52.5957 238.252 47.8111C238.203 47.6744 238.228 47.5491 238.325 47.4352C238.422 47.3213 238.543 47.2643 238.689 47.2643H258.71C259.972 47.2643 261.089 46.8884 262.059 46.1365C263.03 45.3847 263.54 44.4392 263.588 43.3V42.0013C263.588 36.2598 262.035 31.612 258.929 28.0577C255.822 24.5035 251.308 22.7264 245.387 22.7264C242.814 22.7264 240.327 23.2162 237.924 24.1959C235.522 25.1756 233.386 26.5426 231.517 28.297C229.649 30.0513 228.144 32.2613 227.003 34.927C225.863 37.5927 225.293 40.4976 225.293 43.6417C225.293 50.0667 227.319 55.1475 231.372 58.884C235.425 62.6205 240.582 64.4888 246.843 64.4888ZM251.794 39.1989H238.47C238.131 39.1989 237.961 39.085 237.961 38.8572C237.961 36.9889 238.907 35.3257 240.8 33.8676C242.159 32.7739 243.785 32.2271 245.678 32.2271C247.862 32.2271 249.5 32.8081 250.593 33.9701C251.685 35.1321 252.279 36.6927 252.376 38.6521V38.7205C252.376 39.0394 252.182 39.1989 251.794 39.1989ZM291.255 64.4888C295.138 64.4888 298.972 63.6458 302.758 61.9598C303.826 61.5041 304.505 60.7067 304.796 59.5675C304.942 59.203 305.015 58.8384 305.015 58.4739C305.015 57.7904 304.796 57.1069 304.36 56.4234L304.141 56.0133C303.559 55.0563 302.709 54.4184 301.593 54.0994C301.059 53.9627 300.525 53.8944 299.991 53.8944C299.36 53.8944 298.754 53.9855 298.171 54.1678C296.521 54.7146 294.822 54.988 293.075 54.988C287.347 54.988 283.877 52.5957 282.663 47.8111C282.615 47.6744 282.639 47.5491 282.736 47.4352C282.833 47.3213 282.955 47.2643 283.1 47.2643H303.122C304.384 47.2643 305.5 46.8884 306.471 46.1365C307.442 45.3847 307.951 44.4392 308 43.3V42.0013C308 36.2598 306.447 31.612 303.34 28.0577C300.234 24.5035 295.72 22.7264 289.798 22.7264C287.226 22.7264 284.738 23.2162 282.336 24.1959C279.933 25.1756 277.798 26.5426 275.929 28.297C274.06 30.0513 272.556 32.2613 271.415 34.927C270.274 37.5927 269.704 40.4976 269.704 43.6417C269.704 50.0667 271.73 55.1475 275.783 58.884C279.836 62.6205 284.993 64.4888 291.255 64.4888ZM296.205 39.1989H282.882C282.542 39.1989 282.372 39.085 282.372 38.8572C282.372 36.9889 283.319 35.3257 285.212 33.8676C286.571 32.7739 288.197 32.2271 290.09 32.2271C292.274 32.2271 293.912 32.8081 295.004 33.9701C296.096 35.1321 296.691 36.6927 296.788 38.6521V38.7205C296.788 39.0394 296.594 39.1989 296.205 39.1989Z" fill="black"/>
</svg>
