<svg width="308" height="99" viewBox="0 0 208 153" fill="none" xmlns="http://www.w3.org/2000/svg">
<g clip-path="url(#clip0_473_906)">
<path d="M205.688 147.699C205.688 149.921 204.056 151.413 202.124 151.413V151.399C200.138 151.413 198.536 149.921 198.536 147.699C198.536 145.478 200.138 143.99 202.124 143.99C204.057 143.99 205.688 145.477 205.688 147.699ZM207.134 147.699C207.134 144.648 204.765 142.878 202.124 142.878C199.466 142.878 197.096 144.648 197.096 147.699C197.096 150.747 199.466 152.524 202.124 152.524C204.765 152.524 207.134 150.747 207.134 147.699ZM201.293 148.107H201.83L203.072 150.289H204.437L203.06 148.015C203.771 147.964 204.357 147.626 204.357 146.668C204.357 145.477 203.536 145.096 202.147 145.096H200.136V150.289H201.292L201.293 148.107ZM201.293 147.227V145.977H202.097C202.534 145.977 203.13 146.013 203.13 146.546C203.13 147.126 202.822 147.227 202.306 147.227H201.293ZM173.398 121.13L179.644 138.216H166.959L173.398 121.13ZM166.709 114.476L152.315 150.945H162.479L164.755 144.501H181.789L183.944 150.945H194.978L180.477 114.472L166.709 114.476ZM137.811 150.959H148.123V114.465L137.809 114.463L137.811 150.959ZM66.2244 114.463L57.621 143.387L49.3795 114.465L38.2531 114.463L50.0237 150.959H64.8795L76.7449 114.463H66.2244ZM107.906 122.41H112.339C118.768 122.41 122.927 125.296 122.927 132.788C122.927 140.28 118.768 143.167 112.339 143.167H107.906V122.41ZM97.681 114.463V150.959H114.398C123.305 150.959 126.214 149.479 129.359 146.158C131.58 143.825 133.017 138.707 133.017 133.113C133.017 127.981 131.801 123.407 129.681 120.557C125.862 115.46 120.36 114.463 112.148 114.463H97.681ZM8.39233e-05 114.412V150.959H10.3992V123.209L18.4568 123.211C21.1248 123.211 23.0267 123.877 24.3114 125.249C25.941 126.984 26.6064 129.786 26.6064 134.912V150.959H36.6831V130.767C36.6831 116.355 27.4975 114.412 18.5099 114.412H8.39233e-05ZM81.0849 114.463L81.089 150.959H91.3962V114.463H81.0849Z" fill="black"/>
<path d="M27.7134 41.7951C27.7134 41.7951 40.9761 22.2269 67.4575 20.2025V13.1031C38.126 15.4588 12.7262 40.3011 12.7262 40.3011C12.7262 40.3011 27.1122 81.8882 67.4575 85.6966V78.1505C37.8502 74.4258 27.7134 41.7951 27.7134 41.7951ZM67.4575 63.1432V70.0546C45.081 66.0647 38.8698 42.8047 38.8698 42.8047C38.8698 42.8047 49.6137 30.9027 67.4575 28.9726V36.5558C67.4439 36.5558 67.4345 36.5517 67.4233 36.5517C58.0579 35.4278 50.7417 44.1767 50.7417 44.1767C50.7417 44.1767 54.8424 58.9046 67.4575 63.1432ZM67.4575 0.00891113V13.1031C68.3185 13.0371 69.1796 12.9811 70.0453 12.9517C103.392 11.8278 125.12 40.3011 125.12 40.3011C125.12 40.3011 100.165 70.6457 74.1661 70.6457C71.7833 70.6457 69.5526 70.4247 67.4575 70.0534V78.1505C69.3106 78.3886 71.1768 78.5091 73.0451 78.5112C97.2386 78.5112 114.735 66.1554 131.676 51.5318C134.485 53.7814 145.985 59.2541 148.348 61.6492C132.24 75.136 94.6991 86.0071 73.4158 86.0071C71.3643 86.0071 69.3941 85.8834 67.4575 85.6966V97.074H159.415V0.00891113H67.4575ZM67.4575 28.9726V20.2025C68.3097 20.1429 69.1684 20.0976 70.0453 20.0699C94.0249 19.3167 109.757 40.6765 109.757 40.6765C109.757 40.6765 92.7649 64.2754 74.5456 64.2754C71.9236 64.2754 69.5727 63.854 67.4569 63.1426V36.5552C76.7922 37.6832 78.6711 41.8069 84.2835 51.1629L96.7665 40.6376C96.7665 40.6376 87.6546 28.6874 72.2943 28.6874C70.6241 28.6868 69.0263 28.8046 67.4575 28.9726Z" fill="#77B900"/>
</g>
<defs>
<clipPath id="clip0_473_906">
<rect width="207.134" height="152.533" fill="white"/>
</clipPath>
</defs>
</svg>
