<svg width="308" height="80" viewBox="0 0 308 96" fill="none" xmlns="http://www.w3.org/2000/svg">
<path d="M166.32 15.9134V31.8267L163.548 29.0547C161.905 27.4634 159.287 25.564 157.285 24.5887C154.257 23.1 153.23 22.8434 148.867 22.6894C140.653 22.33 135.007 24.5374 129.257 30.2867C119.401 40.1427 119.247 54.8754 128.847 64.8854C134.391 70.686 140.653 73.15 148.867 72.7907C153.23 72.6367 154.257 72.38 157.388 70.84C159.544 69.8134 161.957 68.0167 163.651 66.374L166.32 63.602V67.76V71.918L170.581 71.764L174.79 71.61L174.944 35.7794L175.047 2.28882e-05H170.683H166.32V15.9134ZM155.54 31.4674C157.491 32.186 159.236 33.418 161.238 35.3687C164.78 38.9107 166.063 42.1447 166.063 47.74C166.063 53.3354 164.78 56.5694 161.238 60.1114C157.542 63.756 153.846 65.296 148.353 65.3474C140.807 65.3987 135.366 62.2674 132.337 56.1074C130.797 52.9247 130.643 52.2574 130.643 47.74C130.643 43.5307 130.849 42.4527 131.978 39.9887C136.033 31.3647 145.735 27.874 155.54 31.4674Z" fill="black"/>
<path d="M225.867 15.9133V31.7753L223.454 29.2087C221.965 27.6173 219.707 25.9747 217.294 24.794C213.957 23.1513 212.879 22.8947 208.978 22.6893C206.514 22.5867 203.229 22.7407 201.586 23.1C194.245 24.5887 187.315 30.184 183.927 37.268C181.977 41.272 181.977 41.3747 181.977 47.7913C181.977 54.1567 181.977 54.2593 183.876 58.058C187.367 65.0907 192.757 69.8133 199.789 71.918C202.561 72.7907 204.307 72.9447 208.311 72.7907C212.931 72.6367 213.701 72.4827 217.191 70.7373C219.707 69.5053 221.914 67.914 223.454 66.2713L225.815 63.756L225.969 67.6573L226.123 71.61H230.23H234.337L234.491 35.7793L234.593 1.52588e-05H230.23H225.867V15.9133ZM212.212 30.5433C215.035 31.0053 218.783 33.0073 221.041 35.266C226.996 41.2207 227.458 52.1033 222.119 59.136C218.731 63.4993 210.98 66.22 204.717 65.2447C197.171 64.0127 191.884 58.7253 190.447 50.974C188.701 41.0667 195.067 31.6727 204.563 30.2867C207.13 29.9273 208.413 29.9273 212.212 30.5433Z" fill="black"/>
<path d="M243.32 35.9334V71.8667H247.427H251.533V35.9334V3.05176e-05H247.427H243.32V35.9334Z" fill="black"/>
<path d="M11.9094 26.2827L12.0634 30.03L24.8967 30.2867C37.0114 30.5433 37.884 30.5947 40.1427 31.724C45.1734 34.188 48.4074 38.808 49.3314 44.814C50.5634 52.822 46.9187 60.4193 40.2454 63.7047C37.8327 64.8853 37.1654 64.9367 24.8967 65.1933L12.0634 65.45L11.9094 80.4393L11.8067 95.48H16.17H20.5334V84.1867V72.8933H28.3874C39.8347 72.8933 44.2494 71.456 50.2554 65.912C52.6167 63.756 53.9514 61.9593 55.594 58.6227L57.75 54.2593V47.74V41.272L55.594 36.8573C52.206 30.03 46.4054 25.256 39.27 23.3567C36.96 22.792 33.3154 22.5867 23.9727 22.5867H11.7554L11.9094 26.2827Z" fill="black"/>
<path d="M80.542 23.8187C59.752 31.1594 56.8774 58.4687 75.7167 69.5567C80.08 72.072 83.9814 72.996 89.5767 72.7907C94.0427 72.6367 95.172 72.38 98.2007 70.994C100.1 70.07 102.923 68.1707 104.463 66.682L107.235 64.064L107.389 67.8114L107.543 71.61H111.65H115.757V47.74V23.87H111.65H107.543L107.287 27.6174L107.03 31.3647L105.233 29.4654C102.718 26.8474 98.7654 24.3834 95.48 23.408C91.322 22.176 84.7 22.33 80.542 23.8187ZM95.788 31.1594C99.6894 32.2887 103.026 35.112 105.182 39.0134C106.979 42.2474 107.03 42.504 107.03 47.74C107.03 52.6167 106.876 53.3867 105.644 55.7994C102.872 61.0354 98.3547 64.218 92.2974 65.1934C79.7207 67.1954 69.8647 57.2367 71.918 44.6087C73.7147 33.3667 83.9814 27.6174 95.788 31.1594Z" fill="black"/>
<path d="M276.173 23.562C267.857 26.2313 261.954 31.9807 259.285 39.9373C257.796 44.2493 257.796 51.2307 259.285 55.5427C262.827 66.1173 272.323 72.8933 283.668 72.8933C292.446 72.8933 300.249 68.7353 305.125 61.3947C305.844 60.3167 306.46 59.1873 306.46 58.982C306.46 58.7253 304.509 58.52 302.148 58.52H297.836L294.807 61.4973C291.317 64.9367 288.237 66.22 283.514 66.22C276.635 66.22 270.373 61.9593 268.063 55.7993C267.447 54.1567 266.933 52.514 266.933 52.1033C266.933 51.436 269.808 51.3333 287.467 51.3333H308V49.28C308 45.6867 306.46 39.424 304.663 35.574C301.686 29.26 296.758 24.9993 290.341 23.3053C286.645 22.33 279.613 22.4327 276.173 23.562ZM291.009 31.0567C295.269 33.418 298.349 37.576 299.068 42.042L299.427 44.1467H283.103H266.831L267.139 42.504C267.96 38.4487 271.091 33.88 274.428 31.7753C279.253 28.798 286.286 28.49 291.009 31.0567Z" fill="black"/>
<path d="M12.166 34.7527C11.9607 34.9067 11.8067 35.574 11.8067 36.19C11.8067 36.7547 11.1907 38.5 10.472 39.9374C9.03467 42.812 6.006 45.3787 3.28533 45.9434C0.205333 46.662 0 46.7647 0 48.048C0 49.0234 0.256667 49.28 1.28333 49.28C5.95467 49.28 11.7553 55.0294 11.8067 59.6494C11.8067 60.83 12.012 61.0867 13.09 61.0867C13.9627 61.0867 14.3733 60.7787 14.3733 60.1627C14.3733 55.2347 20.02 49.3314 24.794 49.28C25.9233 49.28 26.18 49.0234 26.18 48.048C26.18 46.8674 25.3587 46.2 23.7673 46.2C19.9687 46.2 14.4247 40.04 14.3733 35.7794C14.3733 34.804 14.1167 34.3934 13.4493 34.3934C12.936 34.3934 12.32 34.5474 12.166 34.7527Z" fill="black"/>
</svg>
