<svg width="308" height="129" viewBox="0 0 308 154" fill="none" xmlns="http://www.w3.org/2000/svg">
<g clip-path="url(#clip0_473_986)">
<path d="M73.0902 55.7633L65.6159 63.2492C78.0743 75.7036 78.0743 96.0109 65.6159 108.465C53.1459 120.939 32.8542 120.939 20.3803 108.465C7.9297 96.0148 7.9297 75.7036 20.3803 63.2492L40.3245 43.3049L42.8225 40.4557V25.4995L12.5469 55.7633C8.57142 59.702 5.4157 64.3895 3.26208 69.5548C1.10847 74.7201 -0.000366211 80.261 -0.000366211 85.8573C-0.000366211 91.4536 1.10847 96.9945 3.26208 102.16C5.4157 107.325 8.57142 112.013 12.5469 115.951C16.4858 119.927 21.1735 123.084 26.3391 125.238C31.5048 127.392 37.0461 128.501 42.6429 128.501C48.2397 128.501 53.781 127.392 58.9467 125.238C64.1124 123.084 68.8001 119.927 72.7389 115.951C89.8301 99.2114 89.8301 72.1519 73.0902 55.7633Z" fill="#EE4C2C"/>
<path d="M63.8323 47.9222C63.7934 49.4082 63.1758 50.8202 62.111 51.8575C61.0462 52.8948 59.6185 53.4753 58.132 53.4753C56.6455 53.4753 55.2177 52.8948 54.1529 51.8575C53.0882 50.8202 52.4705 49.4082 52.4316 47.9222C52.4316 46.4104 53.0322 44.9605 54.1012 43.8914C55.1702 42.8224 56.6201 42.2219 58.132 42.2219C59.6438 42.2219 61.0937 42.8224 62.1627 43.8914C63.2317 44.9605 63.8323 46.4104 63.8323 47.9222Z" fill="#EE4C2C"/>
<path d="M118.903 82.9319H113.049V97.9936H108.674V55.2441H119.36C130.686 55.2441 136.037 60.7473 136.037 68.7211C136.037 78.1117 129.391 82.8109 118.872 82.9592L118.903 82.9319ZM119.192 59.2993H112.897V78.8923L119.056 78.7206C127.15 78.5684 131.526 75.325 131.526 68.6899C131.526 62.6988 127.318 59.2993 119.223 59.2993H119.192ZM155.814 97.8218L153.222 104.625C150.311 112.236 147.368 114.503 143.02 114.503C140.6 114.503 138.812 113.863 136.861 113.04L138.157 109.168C139.62 109.976 141.24 110.464 143.02 110.464C145.448 110.464 147.231 109.168 149.499 103.146L151.607 97.6423L139.468 66.7072H143.996L153.878 92.6231L163.589 66.7072H167.964L155.814 97.8218ZM182.526 59.4671V98.1614H178.151V59.4671H163.101V55.2441H197.572V59.2993H182.53L182.526 59.4671ZM209.89 98.9654C201.139 98.9654 194.66 92.4865 194.66 82.4441C194.66 72.4134 201.307 65.7627 210.183 65.7627C218.918 65.7627 225.244 72.2416 225.244 82.2879C225.244 92.3186 218.597 98.9693 209.863 98.9693L209.89 98.9654ZM210.046 69.693C203.411 69.693 199.04 75.0323 199.04 82.3192C199.04 89.93 203.579 95.1132 210.21 95.1132C216.845 95.1132 221.216 89.7739 221.216 82.487C221.216 74.8644 216.677 69.6969 210.042 69.6969L210.046 69.693ZM236.118 98.1614H231.903V66.7423L236.118 65.9305V72.5773C238.218 68.5221 241.297 65.9305 245.352 65.9305C247.273 65.9461 249.166 66.4496 250.856 67.3941L249.712 71.4337C248.432 70.6258 246.648 70.1379 244.865 70.1379C241.617 70.1379 238.553 72.5773 235.962 78.2327V98.1614H236.118ZM267.521 98.9693C258.131 98.9693 252.14 92.1703 252.14 82.4441C252.14 72.5773 258.619 65.7627 267.518 65.7627C271.409 65.7627 274.66 66.7384 277.4 68.5221L276.272 72.4095C273.68 70.6902 270.632 69.7875 267.521 69.8179C260.722 69.8179 256.515 74.8332 256.515 82.2879C256.515 89.8988 261.058 94.9141 267.689 94.9141C270.793 94.8981 273.828 93.9993 276.44 92.3225L277.248 96.2099C274.488 97.9936 271.089 98.9537 267.521 98.9537V98.9693ZM303.624 98.1614V77.9127C303.624 72.4095 301.368 70.0169 296.989 70.0169C293.426 70.0169 289.874 71.785 287.278 74.5444V98.3448H283.055V52.0397L287.278 51.2318V70.9771C290.514 67.7454 294.721 65.9617 298.121 65.9617C304.28 65.9617 307.999 69.8491 307.999 76.6481V98.177L303.624 98.1614Z" fill="#252525"/>
</g>
<defs>
<clipPath id="clip0_473_986">
<rect width="308" height="154" fill="white"/>
</clipPath>
</defs>
</svg>
