<svg width="308" height="74" viewBox="0 0 308 74" fill="none" xmlns="http://www.w3.org/2000/svg">
<path d="M22.8503 10.3575C22.7148 10.4925 22.7148 10.695 22.7825 10.83C22.9857 11.1675 24.3062 10.83 24.3062 10.4588C24.3062 10.1213 23.1889 10.0538 22.8503 10.3575Z" fill="#EC6B15"/>
<path d="M21.1913 11.4039C20.8527 11.4714 20.5818 11.6739 20.5818 11.8426C20.5818 12.0114 20.1416 12.2139 19.566 12.3489C19.0242 12.4839 18.5502 12.6864 18.5502 12.8551C18.5502 12.9901 18.1439 13.2939 17.636 13.4964C17.0942 13.6989 16.4509 14.0026 16.18 14.1714C15.9091 14.3401 15.4351 14.5764 15.1642 14.6776C14.8933 14.8126 14.2161 15.1839 13.6405 15.5551C13.0988 15.9264 12.2523 16.3989 11.7782 16.6351C11.3042 16.8713 10.3222 17.4114 9.57733 17.8839C8.25679 18.6938 5.75116 20.1113 3.99044 21.0226C3.0085 21.5288 2.80534 21.6638 1.45095 22.8788C0.50287 23.7226 0.43515 23.9588 0.43515 26.0513C0.43515 28.5488 0.841469 29.1563 3.48254 30.7426C4.22746 31.1813 4.90466 31.6538 5.00624 31.7888C5.10782 31.9238 5.58186 32.2276 6.02204 32.3963C6.49607 32.5988 7.10555 32.9026 7.37643 33.0713C7.64731 33.2738 8.83241 33.9488 10.0175 34.5901L12.1507 35.8051L14.5209 34.3876C15.8075 33.5776 17.2974 32.7338 17.8053 32.4638C18.3132 32.1938 18.7872 31.8901 18.8888 31.7888C18.9904 31.6538 19.4983 31.2826 20.0062 30.9788L20.9543 30.3713L20.1755 29.7976C18.8888 28.8863 18.11 28.4138 16.9249 27.8738C15.5705 27.2326 14.8595 25.9501 15.5028 25.1738C15.7398 24.9038 16.1461 24.6676 16.417 24.6676C16.6879 24.6676 17.2974 24.3638 17.7714 23.9926C18.2455 23.6213 18.8549 23.3176 19.092 23.3176C19.3628 23.3176 19.566 23.1826 19.566 22.9801C19.566 22.8113 19.9385 22.5751 20.4125 22.4401C20.8865 22.3388 21.259 22.0351 21.259 21.7988C21.259 21.5626 21.733 21.2926 22.3087 21.1576C23.3922 20.9551 23.3583 20.2801 22.2409 20.2801C21.6315 20.2801 21.5976 20.0101 21.5976 16.2301C21.5976 12.8551 21.6992 12.1801 22.1055 12.1801C22.3764 12.1801 22.6134 11.9439 22.6134 11.6739C22.6134 11.1676 22.3087 11.1001 21.1913 11.4039Z" fill="#EC6B15"/>
<path d="M23.7986 19.6051C23.1891 19.8751 23.223 19.9088 24.0695 19.9088C24.6112 19.9426 24.9498 19.8076 24.8144 19.6051C24.7128 19.4026 24.5774 19.2676 24.5435 19.3013C24.5096 19.3013 24.171 19.4363 23.7986 19.6051Z" fill="#EC6B15"/>
<path d="M69.5095 38.5388C68.7646 39.1126 67.7488 39.7201 67.2409 39.8888C66.6992 40.0913 66.2928 40.3951 66.2928 40.5638C66.2928 40.7326 66.0897 40.8676 65.8527 40.8676C65.5818 40.8676 65.04 41.1713 64.5998 41.5426C64.1597 41.9138 63.6179 42.2176 63.347 42.2176C62.5682 42.2176 62.873 42.8926 63.8549 43.3313C64.3628 43.5338 64.8707 43.8376 64.9723 44.0063C65.2093 44.3438 66.3606 45.0188 67.5795 45.5926C68.8662 46.1326 68.4599 47.5163 66.6314 48.8326C65.7849 49.4401 64.8369 49.9463 64.5321 49.9463C64.1935 49.9801 63.9226 50.2163 63.9226 50.4863C63.9226 50.7563 63.6518 50.9925 63.347 50.9925C63.0084 50.9925 62.5005 51.1613 62.2296 51.33C61.7895 51.6 61.8233 51.7013 62.3312 52.0725C62.873 52.4775 62.7714 52.5113 61.5863 52.41C60.7059 52.3088 60.1981 52.41 60.1981 52.6463C60.1981 52.8488 60.7398 53.0175 61.3831 53.0175H62.5682V56.46C62.5344 60.0038 62.3312 60.78 61.1461 61.2188C60.8075 61.32 60.5367 61.59 60.5367 61.7925C60.5367 62.3325 61.891 62.1975 62.0942 61.6238C62.2296 61.3538 62.6698 61.1175 63.0761 61.1175C63.5163 61.1175 64.0919 60.8813 64.3967 60.6113C64.6676 60.3413 65.0739 60.105 65.277 60.105C65.6156 60.105 68.1551 58.755 70.356 57.3713C70.6269 57.2025 71.1687 56.8988 71.5411 56.73C71.9136 56.5275 73.1325 55.8525 74.2499 55.2113C75.3673 54.5363 76.7894 53.7938 77.3989 53.5238C77.9745 53.22 78.4824 52.8488 78.4824 52.68C78.4824 52.4775 78.6856 52.3425 78.9564 52.3425C79.1935 52.3425 79.5998 52.1063 79.8368 51.8363C80.0738 51.5663 80.5479 51.33 80.8865 51.33C81.225 51.33 82.0377 50.6551 82.681 49.8451C84.5772 47.5838 84.3402 45.6938 81.8684 43.1288C81.3944 42.6226 80.8526 42.2176 80.6833 42.2176C80.4801 42.2176 79.5321 41.6776 78.5163 41.0363C77.5343 40.3951 76.5185 39.8551 76.2815 39.8551C76.0445 39.8551 75.672 39.6188 75.435 39.3488C75.198 39.0788 74.7917 38.8426 74.5208 38.8426C74.2499 38.8426 73.6404 38.5388 73.1664 38.1676C72.0152 37.2563 71.1348 37.3576 69.5095 38.5388Z" fill="#EC6B15"/>
<path d="M39.5429 0.53636C39.0688 0.77261 37.579 1.65011 36.1907 2.42636C34.8363 3.23636 33.2788 4.11386 32.737 4.38386C32.2291 4.68761 30.9763 5.39636 29.9944 5.97011C29.0124 6.54386 26.2359 8.1301 23.798 9.51385C21.394 10.8976 19.0915 12.1801 18.719 12.4164C18.3466 12.6189 17.3646 13.1251 16.552 13.5638C15.7055 13.9688 15.2315 14.4076 15.4685 14.4751C15.7055 14.5426 16.1457 14.3738 16.4504 14.1038C16.7551 13.8338 17.3646 13.4963 17.8048 13.3951C18.2111 13.2601 18.5497 13.0239 18.5497 12.8551C18.5497 12.7201 18.956 12.4839 19.4639 12.3489C19.9718 12.2476 20.4797 12.0114 20.5813 11.8426C20.6829 11.6739 21.1908 11.4376 21.6987 11.3364C22.4098 11.1339 22.6129 11.2014 22.6129 11.6401C22.6129 11.9439 22.3759 12.1801 22.105 12.1801C21.6987 12.1801 21.5971 12.8551 21.5971 16.2301C21.5971 20.0101 21.631 20.2801 22.2405 20.2801C23.3578 20.2801 23.3917 20.9551 22.3082 21.1576C21.7326 21.2926 21.2585 21.5626 21.2585 21.7988C21.2585 22.0351 20.8861 22.3388 20.412 22.4401C19.938 22.5751 19.5655 22.8113 19.5655 22.9801C19.5655 23.1826 19.3624 23.3176 19.0915 23.3176C18.8206 23.3176 18.2788 23.6213 17.8387 23.9926C17.0599 24.6676 17.0599 24.6676 18.3804 23.9926C20.649 22.8113 23.1885 21.3601 24.7122 20.3813C25.5249 19.8751 26.8454 19.0988 27.6919 18.6263C28.5384 18.1876 29.8251 17.4451 30.57 17.0401C31.3149 16.6013 32.2968 16.0951 32.737 15.8926C33.1772 15.6901 33.9898 15.2176 34.5316 14.8463C35.4458 14.1713 38.1207 12.6863 40.8634 11.3026C42.1162 10.6614 42.0146 10.5939 48.685 14.2388C50.0733 15.0151 51.9356 16.0276 52.8498 16.4663C53.7302 16.9388 54.5428 17.4451 54.6444 17.6138C54.746 17.7826 55.0846 17.9176 55.4232 17.9176C55.7618 17.9176 56.2358 18.1538 56.4728 18.4238C56.7098 18.6938 57.2516 18.9301 57.6579 18.9301C58.0981 18.9301 58.5044 19.1663 58.6398 19.4363C58.7414 19.7063 59.2155 19.9426 59.7572 19.9426C60.6376 19.9088 60.6714 19.8751 60.0958 19.4701C59.5879 19.0651 59.5202 18.5251 59.5879 15.0151C59.6895 11.0664 59.6895 11.0326 60.536 10.7964C61.3486 10.5601 61.3486 10.5601 60.299 10.3239C59.6895 10.1889 59.2832 9.9526 59.3848 9.78385C59.4863 9.6151 59.2155 9.3451 58.7753 9.17635C58.3351 9.0076 57.7595 8.63635 57.5225 8.3326C57.2854 8.02885 56.8791 7.7926 56.6421 7.7926C56.4051 7.7926 56.0326 7.55635 55.7956 7.28635C55.5586 7.01636 55.1523 6.78011 54.9153 6.78011C54.6444 6.78011 53.6963 6.24011 52.7821 5.56511C51.834 4.92386 50.4796 4.04636 49.7686 3.64136C49.0236 3.23636 47.3306 2.25761 45.9762 1.44761C43.3352 -0.104889 41.202 -0.408638 39.5429 0.53636ZM24.3059 10.4589C24.3059 10.8301 22.9854 11.1676 22.7822 10.8301C22.7145 10.6951 22.7145 10.4926 22.8499 10.3576C23.1885 10.0539 24.3059 10.1214 24.3059 10.4589ZM24.8138 19.6051C24.9492 19.8076 24.6106 19.9426 24.0689 19.9088C23.2224 19.9088 23.1885 19.8751 23.798 19.6051C24.1705 19.4363 24.5091 19.3013 24.5429 19.3013C24.5768 19.2676 24.7122 19.4026 24.8138 19.6051Z" fill="#EC9615"/>
<path d="M11.9471 16.2638C11.4054 16.6013 11.1006 16.9051 11.3038 16.9051C11.5408 16.9051 12.0487 16.6013 12.4889 16.2301C13.5047 15.4201 13.2677 15.4201 11.9471 16.2638Z" fill="#EC9615"/>
<path d="M4.15928 20.6513C3.61752 20.9888 3.31278 21.2925 3.51594 21.2925C3.75296 21.2925 4.26086 20.9888 4.70104 20.6175C5.71683 19.8075 5.47981 19.8075 4.15928 20.6513Z" fill="#EC9615"/>
<path d="M40.8633 20.955C40.1861 21.09 38.9333 21.6637 38.0529 22.2375C37.1726 22.845 36.3938 23.3175 36.3261 23.3175C36.2584 23.3175 35.5134 23.7562 34.7008 24.33C33.8882 24.87 32.8385 25.4775 32.3983 25.68C31.9582 25.8825 30.6038 26.6925 29.4187 27.5362C28.1997 28.38 27.0146 29.055 26.7776 29.055C26.1681 29.055 26.2358 29.6962 26.8453 29.9325C27.2516 30.1012 27.3532 30.9112 27.3532 34.1512C27.3532 37.4925 27.4548 38.1675 27.8611 38.1675C28.132 38.1675 28.369 38.3025 28.369 38.505C28.369 38.6737 28.0643 38.8425 27.7257 38.8425C27.3871 38.8425 27.0146 39.045 26.913 39.315C26.7099 39.7875 25.6941 40.4625 23.8995 41.2725C23.3577 41.5087 22.9514 41.7787 22.9514 41.9137C22.9514 42.2175 23.9672 42.8587 27.1839 44.58C28.6737 45.3562 30.536 46.47 31.3487 46.9762C32.1613 47.5162 32.8724 47.955 32.9401 47.955C33.0078 47.955 33.8882 48.4275 34.8701 49.0012C38.2222 50.9925 41.168 52.3425 42.15 52.3425C42.6579 52.3425 44.2154 51.7012 45.6037 50.8912C46.9919 50.115 48.8881 49.035 49.8362 48.495C50.7843 47.9887 51.6308 47.415 51.6646 47.2462C51.7323 47.0775 52.0032 46.9425 52.2741 46.9425C52.545 46.9425 53.019 46.6387 53.3238 46.2675C53.6623 45.8962 54.1025 45.5925 54.3734 45.5925C54.7797 45.5925 56.7436 44.3775 57.1499 43.8712C57.2515 43.7362 57.6578 43.5675 58.098 43.4325C58.5043 43.2975 58.8429 42.96 58.8429 42.69C58.8429 42.015 61.2808 42.0825 62.2628 42.7912C63.8203 43.9387 65.2763 44.6475 65.107 44.175C65.0054 43.905 64.4637 43.5337 63.9219 43.3312C62.9061 42.96 62.5336 42.2175 63.3463 42.2175C63.6172 42.2175 64.1589 41.9137 64.5991 41.5425C65.0393 41.1712 65.581 40.8675 65.8519 40.8675C66.0889 40.8675 66.2921 40.7325 66.2921 40.5637C66.2921 40.395 66.6307 40.125 67.037 39.99C67.4433 39.8887 68.5268 39.2475 69.4411 38.6062C70.5584 37.83 71.3711 37.4925 71.879 37.5937C72.6239 37.7287 72.6578 37.695 72.1499 36.9187C71.6081 36.1087 71.2018 35.94 70.8632 36.4462C70.7616 36.6487 70.2537 36.9862 69.7458 37.2562C69.2379 37.5262 67.6126 38.4037 66.1228 39.18C64.633 39.9562 63.2447 40.7325 63.0077 40.9012C62.8045 41.1037 61.958 41.2725 61.1454 41.3062L59.6894 41.3737L59.5878 37.3912C59.5201 34.2525 59.3847 33.375 59.0122 33.2062C58.1319 32.9025 58.4705 32.5312 60.1296 32.0587C61.0099 31.8225 61.4501 31.5525 61.1454 31.485C60.8068 31.4175 60.5359 31.1475 60.5359 30.8775C60.5359 30.6075 60.028 30.135 59.4524 29.865C58.8429 29.595 57.8948 29.0887 57.3192 28.7175C56.7775 28.3462 56.0664 27.9412 55.7955 27.84C55.5246 27.705 53.6623 26.625 51.6308 25.4437C49.633 24.2962 47.9062 23.3175 47.8046 23.3175C47.703 23.3175 46.9242 22.845 46.0777 22.2375C44.317 21.0562 42.6917 20.6512 40.8633 20.955ZM43.3351 32.16C44.1477 32.565 44.8588 33.0037 44.9604 33.105C45.0619 33.2062 45.5021 33.4762 45.9762 33.7125C48.177 34.7925 49.4976 35.7037 49.9716 36.3787C50.4118 37.0875 50.3779 37.155 49.4976 37.56C48.9558 37.7962 47.3983 38.64 46.01 39.45C42.2516 41.6437 41.9468 41.6437 37.8159 39.2475C33.1771 36.5812 33.0755 36.0412 36.9356 34.1175C38.0868 33.5437 39.6444 32.7 40.3893 32.2612C41.1342 31.8225 41.7775 31.4512 41.8114 31.4175C41.8452 31.4175 42.5563 31.755 43.3351 32.16Z" fill="#EC9615"/>
<path d="M0.0282974 26.0175C0.0282974 26.8613 0.0957974 27.1988 0.163297 26.76C0.230797 26.355 0.230797 25.68 0.163297 25.2413C0.0957974 24.8363 0.0282974 25.1738 0.0282974 26.0175Z" fill="#EC9615"/>
<path d="M15.502 25.1737C14.8586 25.9499 15.5697 27.2324 16.9241 27.8737C18.1092 28.4137 18.888 28.8862 20.1747 29.7974L20.9534 30.3712L20.0054 30.9787C19.4975 31.2824 18.9896 31.6537 18.888 31.7887C18.7864 31.8899 18.3124 32.1937 17.8045 32.4637C17.2966 32.7337 15.8067 33.5774 14.4862 34.3874C12.4207 35.6362 12.0144 35.8049 11.5404 35.3999C11.0325 34.9949 11.0325 35.0287 11.4727 35.7037C12.0144 36.6149 12.6916 36.6824 13.7751 35.9399C14.1815 35.6362 15.6374 34.8262 16.958 34.1512C20.3778 32.3962 22.3417 31.1137 22.2062 30.7087C22.1385 30.5062 20.7164 29.5612 19.0573 28.5824C15.9083 26.7599 15.265 25.9162 16.3823 25.1062C16.8902 24.7349 16.8902 24.6674 16.4501 24.6674C16.1792 24.6674 15.739 24.9037 15.502 25.1737Z" fill="#EC9615"/>
<path d="M73.4023 38.3363C73.6393 38.6063 74.0795 38.8426 74.3504 38.8426C74.7906 38.8426 74.7567 38.7413 74.215 38.3363C73.3685 37.6951 72.8606 37.6951 73.4023 38.3363Z" fill="#EC9615"/>
<path d="M78.8203 41.2051C80.0054 42.0151 80.6487 42.2514 79.8361 41.5764C79.362 41.2051 78.8541 40.8676 78.651 40.8676C78.4817 40.8676 78.5494 41.0364 78.8203 41.2051Z" fill="#EC9615"/>
<path d="M67.6469 45.8288C67.8162 45.8963 67.9855 46.3013 67.9855 46.7063C67.9855 47.4825 66.8681 48.3938 64.3963 49.6425C63.6853 50.0138 62.8388 50.4863 62.5679 50.655C60.9426 51.6675 54.4415 55.38 54.2722 55.38C54.1368 55.38 53.358 55.8188 52.5115 56.3925C51.6989 56.9325 50.9201 57.405 50.7847 57.405C50.6492 57.405 49.735 57.945 48.7192 58.5863C47.7373 59.2275 46.8908 59.7675 46.8231 59.7675C46.7553 59.7675 45.7734 60.3075 44.656 60.9488C42.3874 62.2988 41.5409 62.4 40.2881 61.5225C39.7802 61.185 38.6967 60.5438 37.8502 60.1388C37.0037 59.7338 35.8863 59.0925 35.3107 58.755C34.7689 58.3838 33.3468 57.6413 32.1956 57.0675C31.0105 56.4938 29.9947 55.8863 29.8931 55.6838C29.7577 55.515 29.4191 55.38 29.0466 55.38C28.708 55.38 28.3694 55.1438 28.234 54.8738C28.1324 54.6038 27.6583 54.3675 27.1843 54.3675C26.7103 54.3675 26.2362 54.1313 26.1346 53.8613C25.9992 53.5575 25.4913 53.355 24.9496 53.355C23.8999 53.355 23.629 53.9288 24.4755 54.2325C24.8818 54.4013 24.9834 55.2113 24.9834 58.4175C24.9834 62.2988 24.9496 62.4338 24.2385 62.5688L23.4597 62.7038L24.2046 62.9738C24.611 63.1088 25.0173 63.4125 25.1189 63.6825C25.2204 63.9525 25.6606 64.3238 26.0669 64.4925C27.5229 65.1338 30.5703 66.9225 31.7554 67.8338C32.3987 68.3063 33.3129 68.9138 33.787 69.15C34.261 69.3863 35.1752 69.8925 35.8186 70.2975C38.3581 71.8163 41.27 73.2675 41.8795 73.2675C42.7937 73.2675 44.4529 72.525 47.805 70.6013C49.4303 69.6563 50.8524 68.88 50.9878 68.88C51.0894 68.88 51.428 68.6775 51.6989 68.4075C52.0036 68.1713 52.9517 67.5638 53.8659 67.0575C56.8456 65.4038 58.3354 64.56 61.7891 62.535C63.6853 61.4213 65.5137 60.4088 65.8862 60.3075C66.2586 60.1725 66.7665 59.835 67.0374 59.5313C67.4437 58.9913 67.4099 59.025 66.6311 59.5313C66.1909 59.835 65.5814 60.105 65.3444 60.105C65.1074 60.105 64.6672 60.3413 64.3963 60.6113C64.0916 60.8813 63.516 61.1175 63.0758 61.1175C62.6695 61.1175 62.2293 61.3538 62.0939 61.6238C61.8907 62.1975 60.5363 62.3325 60.5363 61.7925C60.5363 61.59 60.8072 61.32 61.1458 61.2188C62.3309 60.78 62.534 60.0038 62.5679 56.46V53.0175H61.3828C60.7395 53.0175 60.1977 52.8488 60.1977 52.6463C60.1977 52.41 60.7056 52.3088 61.586 52.41C62.7711 52.5113 62.8726 52.4775 62.3309 52.0725C61.823 51.7013 61.7891 51.6 62.2293 51.33C62.5002 51.1613 63.0081 50.9925 63.3467 50.9925C63.6514 50.9925 63.9223 50.7563 63.9223 50.4863C63.9223 50.2163 64.1932 49.98 64.5318 49.9463C64.8365 49.9463 65.7846 49.44 66.6311 48.8325C67.8162 47.9888 68.1548 47.5163 68.1548 46.7738C68.1548 46.2338 67.9516 45.795 67.7146 45.7275C67.4776 45.6938 67.4437 45.7275 67.6469 45.8288Z" fill="#EC9615"/>
<path d="M82.5449 50.0474C81.9016 50.8574 81.6646 51.2961 81.9693 51.0261C82.6126 50.5199 84.0348 48.6299 83.7977 48.6299C83.73 48.6299 83.1544 49.2711 82.5449 50.0474Z" fill="#EC9615"/>
<path d="M22.9514 52.6799C22.9514 52.8486 23.1884 53.0174 23.4593 53.0174C23.7302 53.0174 23.9672 52.8486 23.9672 52.6799C23.9672 52.4774 23.7302 52.3424 23.4593 52.3424C23.1884 52.3424 22.9514 52.4774 22.9514 52.6799Z" fill="#EC9615"/>
<path d="M76.2807 54.03C74.9602 54.9075 75.4342 54.9075 76.8564 54.03C77.4658 53.6587 77.8383 53.355 77.6351 53.355C77.4658 53.355 76.8564 53.6587 76.2807 54.03Z" fill="#EC9615"/>
<path d="M68.4929 58.4174C67.9512 58.7886 67.6464 59.0924 67.8157 59.0924C68.0189 59.0924 68.6284 58.7886 69.1701 58.4174C69.7457 58.0461 70.0505 57.7424 69.8473 57.7424C69.678 57.7424 69.0685 58.0461 68.4929 58.4174Z" fill="#EC9615"/>
<path d="M21.9358 61.7587C21.9358 61.9612 22.2405 62.0624 22.613 62.0287C22.9854 61.9949 23.2902 61.8599 23.2902 61.7249C23.2902 61.5899 22.9854 61.455 22.613 61.455C22.2405 61.455 21.9358 61.5899 21.9358 61.7587Z" fill="#EC9615"/>
<path d="M53.2566 5.8686C53.8323 6.37485 54.4756 6.7461 54.7465 6.77985C55.3221 6.77985 55.3221 6.77985 53.5952 5.8011L52.2408 5.02485L53.2566 5.8686Z" fill="#ECC115"/>
<path d="M57.4888 8.26493C57.7597 8.60244 58.3353 9.00743 58.7755 9.17619C59.2157 9.34493 59.4866 9.61493 59.385 9.78368C59.2834 9.95243 59.6897 10.1887 60.2992 10.3237C61.3489 10.5599 61.3489 10.5599 60.5362 10.7962C59.6897 11.0324 59.6897 11.0662 59.5881 15.0149C59.5204 18.5249 59.5881 19.0649 60.096 19.4699C60.6717 19.8749 60.6378 19.9087 59.7574 19.9424C59.2157 19.9424 58.7416 19.7062 58.6401 19.4362C58.5046 19.1662 58.0983 18.9299 57.6581 18.9299C57.2518 18.9299 56.71 18.6937 56.473 18.4237C56.236 18.1537 55.7958 17.9174 55.4911 17.9512C55.0848 17.9512 55.0848 18.0187 55.6265 18.2887C55.999 18.4574 56.7778 18.8962 57.3195 19.2674C57.8951 19.6387 58.5723 20.0437 58.8432 20.1787C59.1141 20.3137 60.9764 21.3599 62.9403 22.5074C64.938 23.6549 66.868 24.7012 67.2743 24.8362C67.7822 24.9712 67.9854 25.3424 67.9854 26.0174C67.9854 26.8612 67.7145 27.1312 66.0554 27.9749C64.9719 28.5149 63.5497 29.2912 62.9064 29.6962C62.2631 30.0674 61.4504 30.4049 61.1457 30.4049C60.8071 30.4049 60.5362 30.6074 60.5362 30.8774C60.5362 31.1474 60.8071 31.4174 61.1457 31.4849C61.4504 31.5524 61.0103 31.8224 60.1299 32.0587C58.4708 32.5312 58.1322 32.9024 59.0125 33.2062C59.385 33.3749 59.5204 34.2524 59.5881 37.3912L59.6897 41.3737L61.1457 41.3062C61.9583 41.2724 62.8387 41.0699 63.1096 40.8337C63.3804 40.6312 64.464 40.0237 65.5136 39.4837C68.0193 38.2687 70.1863 37.0199 70.8635 36.4799C71.1682 36.2437 71.473 36.1424 71.6084 36.2774C71.7438 36.3787 72.2179 36.1087 72.6919 35.6699C73.166 35.2312 74.6558 34.3199 75.9425 33.6112C79.7348 31.6199 81.2246 30.6412 82.6129 29.3587C83.798 28.2449 83.8996 27.9749 83.8996 26.3549C83.8996 23.3512 82.8499 22.2712 76.6197 18.9299C75.1298 18.1199 73.3014 17.0737 72.5565 16.6012C70.491 15.2849 69.9154 14.9474 69.1705 14.6099C68.798 14.4074 67.3082 13.5637 65.8522 12.7199C64.3962 11.8762 63.1434 11.1674 63.008 11.1674C62.8726 11.1674 62.534 10.9649 62.2631 10.6949C61.2473 9.85118 56.9809 7.65744 57.4888 8.26493Z" fill="#ECC115"/>
<path d="M32.9404 24.9374C32.3987 25.2749 31.2475 25.9836 30.401 26.5236C27.489 28.3799 23.4597 30.5061 22.7148 30.5061C22.4777 30.5061 22.2746 30.6411 22.2746 30.8099C22.2746 31.1474 20.1075 32.4974 16.857 34.2186C12.4213 36.5811 11.9812 36.8174 11.8119 37.0536C11.5749 37.3574 10.5929 37.9311 8.22272 39.1799C7.3085 39.6524 5.88639 40.4624 5.10761 40.9686C4.29497 41.4749 3.58391 41.8799 3.48234 41.8799C2.839 41.8799 0.570384 44.1749 0.231785 45.1536C-0.309974 46.8749 0.130205 49.1361 1.21372 50.1486C2.3311 51.1949 4.93831 52.8823 7.20692 54.0636C8.155 54.5698 9.44168 55.2786 10.085 55.6836C10.7284 56.0548 11.7442 56.5948 12.2859 56.8986C12.8615 57.1686 13.7757 57.7086 14.3175 58.0798C14.8931 58.4511 15.638 58.8898 16.0105 59.0923C16.383 59.2948 17.2972 59.8011 18.0421 60.2061C18.787 60.6448 20.3107 61.4886 21.4281 62.0961C22.5455 62.7373 23.866 63.5136 24.3739 63.8511C24.8479 64.2223 25.3558 64.4923 25.4574 64.4923C25.9314 64.4923 24.7802 63.1761 24.1369 62.9398C23.4935 62.7373 23.4935 62.7036 24.2385 62.5686C24.9495 62.4336 24.9834 62.2986 24.9834 58.4173C24.9834 55.2111 24.8818 54.4011 24.4755 54.2323C23.629 53.9286 23.8999 53.3548 24.9495 53.3548C25.4913 53.3548 25.9992 53.5573 26.1346 53.8611C26.2362 54.1311 26.5748 54.3673 26.8795 54.3673C27.3197 54.3673 27.252 54.2323 26.6425 53.7598C26.2023 53.4223 25.5929 53.0174 25.322 52.9161C25.0511 52.7811 24.3739 52.4099 23.7983 52.0724C23.2565 51.7349 21.936 50.9924 20.9202 50.4186C17.8051 48.7311 17.3988 48.4949 16.62 47.8199C16.1798 47.4486 15.8412 46.9761 15.8412 46.7399C15.8412 46.3011 22.0376 42.5549 22.7825 42.5549C23.0534 42.5549 23.1888 42.3524 23.0872 42.1161C23.0195 41.8799 23.3581 41.5086 23.866 41.2724C25.6944 40.4624 26.7102 39.7874 26.9134 39.3149C27.015 39.0449 27.3874 38.8424 27.726 38.8424C28.0646 38.8424 28.3694 38.6736 28.3694 38.5049C28.3694 38.3024 28.1323 38.1674 27.8615 38.1674C27.4551 38.1674 27.3536 37.4924 27.3536 34.1511C27.3536 30.9111 27.252 30.1011 26.8457 29.9324C26.2362 29.6961 26.1685 29.0549 26.7779 29.0549C27.015 29.0549 28.2001 28.3799 29.419 27.5361C30.6041 26.6924 31.9585 25.8824 32.3648 25.6799C33.4145 25.2411 34.7012 24.3299 34.2948 24.3636C34.0917 24.3636 33.5161 24.6336 32.9404 24.9374ZM23.9676 52.6798C23.9676 52.8486 23.7306 53.0174 23.4597 53.0174C23.1888 53.0174 22.9518 52.8486 22.9518 52.6798C22.9518 52.4774 23.1888 52.3424 23.4597 52.3424C23.7306 52.3424 23.9676 52.4774 23.9676 52.6798ZM23.2904 61.7248C23.2904 61.8598 22.9856 61.9948 22.6132 62.0286C22.2407 62.0623 21.936 61.9611 21.936 61.7586C21.936 61.5898 22.2407 61.4548 22.6132 61.4548C22.9856 61.4548 23.2904 61.5898 23.2904 61.7248Z" fill="#ECC115"/>
<path d="M58.8431 42.6898C58.8431 42.9598 58.5045 43.2973 58.0982 43.4323C57.6918 43.5336 57.2178 43.7698 57.0146 43.9386C56.8115 44.1073 56.2697 44.5461 55.7957 44.9173C55.3216 45.3223 56.1343 44.9511 57.5564 44.1073C58.9785 43.2973 60.5022 42.5548 60.9424 42.4536C61.3826 42.3861 61.0778 42.2848 60.299 42.2511C59.2494 42.2173 58.8431 42.3523 58.8431 42.6898Z" fill="#ECC115"/>
<path d="M28.5385 66.1798C29.1141 66.5511 29.7236 66.8548 29.8929 66.8548C30.096 66.8548 29.7913 66.5511 29.2157 66.1798C28.6739 65.8086 28.0644 65.5048 27.8613 65.5048C27.692 65.5048 27.9967 65.8086 28.5385 66.1798Z" fill="#ECC115"/>
<path d="M242.492 0.937847C242.204 1.05534 240.822 1.46656 239.497 1.81904L237.02 2.46525V9.74981C237.02 13.7446 236.789 17.1519 236.559 17.3281C236.271 17.5043 235.061 17.2693 233.794 16.7994C230.799 15.6832 226.939 15.7419 223.195 16.8581C220.833 17.5631 219.336 18.5618 216.801 21.1466C213.979 24.0252 213.287 25.2001 212.193 28.8424C208.852 40.1217 213.345 51.166 222.389 53.8684C227.112 55.2783 231.26 54.6908 236.617 51.871C236.847 51.7535 237.02 52.2235 237.02 52.8697C237.02 53.9859 237.365 54.1033 240.764 54.1033H244.508V27.3737C244.508 0.115398 244.508 0.174145 242.492 0.937847ZM235.004 24.0839L236.732 25.0826L236.905 35.0695C237.077 46.2901 237.02 46.3488 232.93 47.5238C230.741 48.1112 226.421 47.5825 224.405 46.5251C221.006 44.6452 218.645 38.4181 219.451 33.3659C220.43 27.315 223.195 23.9664 227.919 23.0265C230.799 22.439 232.642 22.7328 235.004 24.0839Z" fill="black"/>
<path d="M258.621 2.52388C255.798 4.05129 255.222 7.04736 257.238 9.69094C258.851 11.7471 261.847 11.8058 263.805 9.74969C266.109 7.39983 265.533 4.11003 262.538 2.52388C260.982 1.64269 260.118 1.64269 258.621 2.52388Z" fill="black"/>
<path d="M132.76 15.9768L131.32 17.6805L128.497 16.7993C120.49 14.2732 112.599 17.2105 109.373 23.8489C108.048 26.6687 107.875 27.6086 108.163 30.6047C108.509 34.5995 110.525 38.653 112.944 40.2979L114.5 41.2966L112.599 42.824C111.562 43.6464 110.352 45.2326 109.891 46.29C109.2 48.1111 109.2 48.5224 110.122 50.461C111.619 53.6333 113.635 54.162 122.218 53.692C128.267 53.3983 129.476 53.5158 130.744 54.3383C131.896 55.1607 132.184 55.7482 132.068 57.1581C131.78 59.8604 129.476 61.3291 125.041 61.6228C120.951 61.9165 118.301 61.2116 115.248 59.0967L113.232 57.6868L110.813 60.9179C109.488 62.6802 108.509 64.2077 108.624 64.3251C108.739 64.4426 110.179 65.2063 111.735 65.97C121.009 70.6698 133.048 69.2011 138.174 62.739C139.73 60.7416 139.96 60.0367 139.96 56.7469C139.96 52.2821 138.808 50.3435 135.064 48.3461C132.241 46.8775 127.633 46.6425 122.449 47.6412C119.223 48.2286 117.207 47.6999 117.207 46.1725C117.207 44.4689 119.626 43.5289 124.004 43.5289C130.513 43.5289 134.545 41.2378 136.849 36.1856C138.232 33.1895 138.289 27.3737 137.022 24.1426C135.985 21.499 135.755 21.969 139.326 19.2666C139.73 19.0317 138.981 17.9742 137.368 16.5056C135.928 15.2131 134.661 14.2145 134.488 14.2145C134.315 14.2145 133.566 15.0369 132.76 15.9768ZM126.423 23.2614C131.608 26.0225 130.859 35.4219 125.329 37.1256C120.663 38.5355 116.055 34.8932 116.055 29.7823C116.055 24.0839 121.527 20.6766 126.423 23.2614Z" fill="black"/>
<path d="M160.869 16.4469C158.853 17.1519 155.8 18.973 155.8 19.5605C155.8 19.7955 155.57 20.0305 155.224 20.0305C154.936 20.0305 154.648 19.208 154.648 18.2681V16.5057H150.616H146.584V35.3045V54.1034H150.558H154.591L154.763 41.2379L154.936 28.3725L156.722 26.0814C157.701 24.8477 159.487 23.4965 160.697 23.0265C162.597 22.2628 163.173 22.2628 165.305 23.0265L167.724 23.9665L169.279 20.7354C170.316 18.6793 170.662 17.3281 170.316 16.9757C169.51 16.1532 162.77 15.8007 160.869 16.4469Z" fill="black"/>
<path d="M180.108 16.7406C178.438 17.1518 176.94 17.6805 176.767 17.8568C176.595 18.033 176.825 19.4429 177.228 21.0291C177.804 22.9677 178.323 23.7902 178.899 23.6139C187.136 21.2053 193.875 23.1439 194.509 28.1961C194.682 29.6061 194.624 29.6648 189.498 29.7823C180.972 29.9585 175.673 32.8371 173.426 38.3593C171.237 43.7052 173.081 50.3435 177.516 52.8109C182.24 55.4545 189.67 55.0432 193.299 51.9297L195.027 50.4023L197.044 52.6346C198.829 54.6908 199.175 54.8083 201.364 54.5145C202.689 54.3383 204.129 53.8096 204.589 53.3396C205.281 52.6346 205.223 52.2234 204.129 50.2848C202.919 48.2874 202.804 47.0537 202.516 37.1256C202.17 26.7275 202.055 26.0225 200.557 22.8502C199.175 19.9716 198.541 19.2667 195.834 17.9155C192.032 16.0356 184.889 15.5069 180.108 16.7406ZM194.509 36.2444C195.143 36.6556 195.085 40.4154 194.394 43.0002C193.472 46.4663 191.514 47.8174 187.193 48.1112C183.852 48.3462 183.392 48.2287 182.067 46.8775C179.014 43.7639 180.569 37.8893 184.774 36.5381C188.403 35.3632 192.896 35.2457 194.509 36.2444Z" fill="black"/>
<path d="M284.255 17.0343C281.893 17.8567 280.338 19.0316 278.092 21.4402C274.463 25.3762 273.311 28.7835 273.311 35.3044C273.311 43.9401 276.191 49.4623 282.239 52.6346C285.234 54.2207 286.156 54.397 290.534 54.397C296.294 54.3382 299.578 53.1633 302.803 49.8735C309.485 43.0002 309.773 28.6073 303.379 21.0878C299.462 16.623 290.649 14.7431 284.255 17.0343ZM295.661 23.9663C300.96 27.9023 301.19 40.8266 296.064 45.8787C294.163 47.7586 293.702 47.9349 290.591 47.9349C286.732 47.9349 284.716 46.7599 282.815 43.4701C281.893 41.8252 281.663 40.4153 281.663 35.5981C281.663 30.4284 281.836 29.4297 283.103 27.1386C285.004 23.7313 287.711 22.2039 291.34 22.5564C292.896 22.6739 294.854 23.3201 295.661 23.9663Z" fill="black"/>
<path d="M251.997 19.678V22.9091L254.185 23.0853L256.317 23.2615L256.49 38.6531L256.605 54.1034H260.637H264.669V35.3045V16.5057H258.333H251.997V19.678Z" fill="black"/>
</svg>
