<svg width="308" height="99" viewBox="0 0 147 158" fill="none" xmlns="http://www.w3.org/2000/svg">
<path d="M52.3348 42.3194L21.4302 60.2305L21.2949 72.096C21.2046 81.5253 21.2949 83.9165 21.746 83.736C22.0618 83.6458 31.4911 78.2318 42.6348 71.7351L62.9371 59.9598L63.0724 71.9156C63.1176 78.5025 63.3431 83.8713 63.5236 83.8713C63.7041 83.8713 68.3059 81.2546 73.765 78.0965L83.6905 72.3216L83.8259 48.3198C83.871 35.1008 83.7808 24.318 83.6003 24.3631C83.3747 24.3631 69.3436 32.4389 52.3348 42.3194Z" fill="#EC9615"/>
<path d="M136.476 42.3194L126.551 48.1394L126.415 59.9598C126.325 69.3891 126.415 71.7351 126.867 71.5547C127.182 71.4193 131.829 68.8026 137.153 65.6896L146.853 60.0501L146.988 48.2747C147.034 41.778 146.943 36.4994 146.763 36.4994C146.537 36.5445 141.935 39.1613 136.476 42.3194Z" fill="#EC9615"/>
<path d="M94.2025 90.9997L84.3672 96.7294V108.595V120.461L86.9839 119.017C88.3825 118.205 92.8941 115.588 96.9997 113.197L104.444 108.911L104.579 97.0452C104.624 90.5485 104.534 85.2248 104.354 85.2699C104.128 85.2699 99.5713 87.8866 94.2025 90.9997Z" fill="#EC9615"/>
<path d="M63.1625 133.048V157.05L64.6513 156.193C65.4183 155.741 70.1104 153.034 75.028 150.192L83.9159 145.049V133.093V121.092L75.4341 116.22C70.7871 113.558 66.1401 110.851 65.1025 110.219L63.1625 109.091V133.048Z" fill="#EC9615"/>
<path d="M84.4573 36.3189L84.5926 48.3198L92.0368 52.6058C96.1424 54.9519 105.436 60.3207 112.7 64.5165L125.874 72.096L125.784 60.05L125.648 48.0491L105.166 36.1835C93.9317 29.6417 84.6377 24.318 84.5475 24.318C84.4573 24.318 84.4122 29.7319 84.4573 36.3189Z" fill="#EC6B40"/>
<path d="M0.0902323 60.2756L0.225581 72.3216L3.38371 74.1714C5.14324 75.2091 9.74509 77.916 13.6702 80.1718L20.7534 84.2774V72.2314V60.1854L10.3767 54.23L0 48.2747L0.0902323 60.2756Z" fill="#EC6B40"/>
<path d="M52.335 66.5016L42.1838 72.4118L42.0485 108.73L41.9583 145.049L52.1996 151.004L62.4861 156.96L62.7117 132.958C62.847 119.739 63.1177 108.956 63.2982 108.956C63.5238 109.001 68.2159 111.708 73.8103 114.911L83.9163 120.776V108.775V96.7295L75.254 91.7667C70.5168 89.0146 65.7345 86.2625 64.6968 85.5858L62.7117 84.3676L62.6215 72.5021L62.4861 60.5914L52.335 66.5016Z" fill="#EC6B40"/>
<path d="M41.8676 24.0022C19.129 37.2212 0.631392 48.1393 0.811856 48.3198C1.17279 48.6356 20.7532 59.9598 20.9788 59.9598C21.069 59.9598 23.4151 58.6514 26.122 57.0723C28.8741 55.4482 31.1299 54.3203 31.1299 54.4556C31.1299 54.6361 31.3104 54.5458 31.4908 54.2751C31.8969 53.6435 38.935 49.5831 39.6118 49.5831C39.8825 49.5831 40.1531 49.4026 40.2434 49.2221C40.4238 48.6807 47.5522 44.6203 48.1838 44.6203C48.4996 44.6203 48.7252 44.4398 48.7252 44.2594C48.7252 43.8533 50.3945 42.951 51.1615 42.9059C51.3871 42.9059 51.7029 42.7254 51.8382 42.4547C52.1992 41.9584 59.7336 37.5822 59.9591 37.8077C60.0494 37.8529 60.275 37.7626 60.4103 37.4919C60.7712 36.9505 67.8545 32.8901 68.4861 32.8901C68.7568 32.8901 69.0275 32.7096 69.1177 32.484C69.2982 32.0329 79.6749 26.0324 80.1261 26.1227C80.3065 26.1678 80.5772 26.0324 80.7126 25.8068C81.1186 25.2203 83.3744 23.8668 83.9609 23.8668C84.2316 23.8668 93.7963 29.2808 105.256 35.9129L126.009 47.9138L128.31 46.6505C129.573 45.9287 131.423 44.9361 132.416 44.3947C133.408 43.8984 134.311 43.357 134.446 43.2217C134.852 42.7254 141.98 38.7552 142.477 38.7552C142.747 38.7552 143.018 38.5747 143.108 38.3943C143.198 38.2138 144.011 37.5822 144.958 36.9957C145.905 36.4091 146.627 35.9129 146.537 35.8226C146.447 35.7775 139.183 31.5366 130.385 26.4836C121.588 21.3855 107.647 13.3548 99.4358 8.57247C91.2246 3.83527 84.2316 -0.0447197 83.8707 0.000396729C83.5098 0.000396729 64.6061 10.8283 41.8676 24.0022Z" fill="#ECC140"/>
<path d="M81.4797 73.8556C80.2165 74.5323 78.9983 75.2993 78.7277 75.5249C78.4118 75.7956 77.1937 76.5174 75.9756 77.104C74.7574 77.7356 73.6746 78.3672 73.5393 78.5026C73.2235 78.9086 66.05 82.9691 65.6891 82.9691C65.5086 82.9691 64.9672 83.3751 64.4709 83.8263C63.5235 84.6835 63.5686 84.6835 66.8621 86.5783C68.6667 87.6611 73.2235 90.323 77.0132 92.4886L83.8709 96.5039L85.5853 95.7369C86.5327 95.2858 87.39 94.7895 87.5253 94.6541C87.9313 94.203 95.1499 90.1425 95.4657 90.1876C95.6462 90.2328 95.9169 90.0974 96.0523 89.8267C96.4132 89.2402 103.496 85.2249 104.128 85.2249C104.444 85.2249 104.669 85.0444 104.669 84.8639C104.669 84.5481 84.3221 72.5472 83.8709 72.6375C83.7807 72.6375 82.6979 73.1788 81.4797 73.8556Z" fill="#ECC140"/>
</svg>
