<svg width="308" height="90" viewBox="0 0 172 111" fill="none" xmlns="http://www.w3.org/2000/svg">
<g clip-path="url(#clip0_473_895)">
<path d="M71.9351 33.8395H65.4971L74.5954 20.9102C75.7128 19.3672 74.5954 17.1857 72.68 17.1857H25.8048L30.487 25.3264H60.8149L54.8557 33.8395H47.0875L42.8309 26.4969H32.9877L37.191 33.7863H25.6983V81.8321H35.2224V70.233H46.0234V81.8321H55.5474V70.233H66.3484V81.8321H75.8724V37.6704C75.8192 35.5421 74.1166 33.8395 71.9351 33.8395ZM35.2224 41.9269H46.0234V47.9393H35.2224V41.9269ZM46.0234 62.1456H35.2224V56.1332L46.0234 56.08V62.1456ZM66.3484 62.1456H55.5474V56.1332H66.3484V62.1456ZM66.3484 47.9925H55.5474V41.9269H66.3484V47.9925ZM8.99138 28.8381L1.48921 15.8024H11.2793L18.7814 28.8381H8.99138ZM52.5146 86.4611H84.3855L79.6501 94.7082H51.9293H34.7967C30.3805 94.7082 27.7734 94.1761 25.2727 93.2716C22.6655 92.3138 22.2399 92.0478 20.0052 90.8241C18.0898 89.7599 16.2275 88.2169 14.4185 86.2483C13.9396 85.7694 13.5672 85.2373 13.1947 84.6521L13.0883 84.4924L1.48921 94.7614V81.9917L8.61893 75.8729V44.002H0.265457V35.7017H15.4294C16.9192 35.7017 18.143 36.9255 18.143 38.4153V74.5428C18.143 74.5428 18.2494 77.3627 20.1648 79.757C21.1225 80.8744 22.0271 81.7257 23.038 82.4706C24.7938 83.6943 26.8689 84.386 29.1036 85.0777C31.7107 85.8758 34.4775 86.3015 38.5212 86.5143C41.6072 86.5675 46.3426 86.4611 52.5146 86.4611ZM166.324 94.6549C151.905 90.2388 138.816 82.6302 127.909 72.7337C117.48 81.8321 105.189 88.6958 92.0473 92.8991L91.6748 93.0055C91.6216 93.0055 91.462 93.0587 91.462 93.0587C89.653 93.644 87.4183 94.2825 86.2477 94.5485L93.6967 81.6725C103.859 77.8416 113.011 72.3613 120.885 65.604C109.765 53.4196 101.571 38.5217 97.4212 22.134L97.2084 21.3891H107.584L107.797 22.134C111.681 35.8614 118.704 48.365 128.068 58.6871C137.646 48.4182 144.828 35.9678 148.925 22.2404L149.191 21.3891H159.514L159.301 22.2404C154.991 38.3621 146.638 53.4196 135.145 65.6572C145.467 74.862 157.864 81.7789 171.485 85.6098L166.324 94.6549ZM125.727 31.2856L116.842 15.8556H128.441L137.326 31.2856H125.727Z" fill="#615CED"/>
</g>
<defs>
<clipPath id="clip0_473_895">
<rect width="171.858" height="110.67" fill="white"/>
</clipPath>
</defs>
</svg>
