<svg width="271" height="271" viewBox="0 0 271 271" fill="none" xmlns="http://www.w3.org/2000/svg">
<g filter="url(#filter0_d_275_52)">
<rect x="6.97119" y="3.38794" width="257.489" height="257.489" rx="4.29149" fill="white"/>
</g>
<path d="M45.024 164.072H51.232V165.944H36.848V164.072H43.024V160.856H38.688V159.016H43.024V156.2H39.712C39.248 157.08 38.752 157.896 38.224 158.52C37.84 158.216 36.992 157.64 36.512 157.384C37.76 156.04 38.8 153.832 39.344 151.656L41.312 152.088C41.088 152.856 40.832 153.608 40.56 154.344H43.024V151.464H45.024V154.344H50.416V156.2H45.024V159.016H49.808V160.856H45.024V164.072ZM54.384 165.848L52.656 164.984C53.312 163.912 53.84 162.36 54.112 160.952L55.808 161.528C55.488 162.952 55.04 164.712 54.384 165.848ZM59.2 164.376H61.952C62.736 164.376 62.864 164.136 62.96 162.52C63.376 162.824 64.16 163.096 64.672 163.208C64.448 165.496 63.888 166.072 62.096 166.072H59.008C56.8 166.072 56.224 165.544 56.224 163.816V161.08H58.112V163.8C58.112 164.312 58.272 164.376 59.2 164.376ZM58 158.728L59.648 157.736C60.56 158.216 61.76 158.968 62.384 159.544L60.624 160.6C60.08 160.056 58.928 159.24 58 158.728ZM58.48 160.888L59.936 160.024C60.768 160.776 61.808 161.88 62.256 162.648L60.688 163.624C60.272 162.888 59.296 161.704 58.48 160.888ZM63.808 161.32L65.488 160.776C66.272 162.136 67.088 163.928 67.392 165.112L65.6 165.736C65.328 164.584 64.576 162.728 63.808 161.32ZM67.248 155.24H62.16C63.264 157.032 65.008 158.296 67.584 158.856C67.152 159.256 66.592 160.072 66.32 160.6C63.328 159.752 61.456 158.056 60.24 155.496C59.392 157.784 57.648 159.688 53.68 160.792C53.488 160.344 53.024 159.608 52.608 159.192C55.984 158.344 57.504 156.936 58.272 155.24H52.784V153.48H58.784C58.928 152.76 59.008 152.04 59.072 151.272H61.04C60.976 152.024 60.896 152.76 60.768 153.48H67.248V155.24ZM71.712 155.096V157.592C71.712 160.152 71.488 164.072 70.16 166.552C69.808 166.216 68.944 165.64 68.48 165.448C69.68 163.192 69.776 159.896 69.776 157.592V153.288H75.888C75.712 152.744 75.488 152.184 75.28 151.704L77.2 151.256C77.488 151.88 77.808 152.648 78.032 153.288H83.2V155.096H71.712ZM78.448 161.176L76.608 161.672C76.416 160.2 75.824 157.912 75.328 156.184L77.056 155.736C77.6 157.496 78.192 159.656 78.448 161.176ZM72.16 157.176L73.84 156.52C74.528 158.264 75.28 160.456 75.648 161.944L73.856 162.696C73.552 161.208 72.8 158.904 72.16 157.176ZM79.408 163.976H83.376V165.768H71.472V163.976H77.392C78.944 161.592 80.112 158.376 80.688 155.672L82.736 156.344C81.984 158.888 80.816 161.64 79.408 163.976ZM93.12 159.928H96.496V157.96H93.12V159.928ZM88.144 159.928H91.2V157.96H88.192V158.248C88.192 158.76 88.176 159.336 88.144 159.928ZM91.2 154.328H88.192V156.184H91.2V154.328ZM96.496 156.184V154.328H93.12V156.184H96.496ZM98.384 152.52V164.136C98.384 165.16 98.16 165.672 97.52 165.96C96.864 166.28 95.888 166.312 94.448 166.296C94.384 165.784 94.08 164.968 93.84 164.472C94.736 164.52 95.792 164.504 96.08 164.504C96.384 164.504 96.496 164.408 96.496 164.12V161.72H93.12V166.184H91.2V161.72H87.936C87.648 163.464 87.072 165.224 85.92 166.472C85.616 166.12 84.848 165.464 84.416 165.24C86.16 163.32 86.304 160.472 86.304 158.232V152.52H98.384ZM110.992 159.16H105.152C105.856 160.344 106.832 161.352 108.08 162.136C109.296 161.368 110.288 160.376 110.992 159.16ZM112.432 157.224L113.76 158.008C112.928 160.168 111.632 161.832 109.968 163.112C111.52 163.736 113.36 164.184 115.472 164.408C115.056 164.856 114.512 165.736 114.272 166.28C111.776 165.928 109.712 165.304 107.984 164.36C106.064 165.368 103.824 166.008 101.424 166.392C101.264 165.896 100.768 164.984 100.4 164.568C102.528 164.296 104.48 163.832 106.16 163.128C104.96 162.152 103.984 160.936 103.168 159.464L104.032 159.16H101.936V157.288H106.96V155.432H101.152V153.544H106.96V151.448H108.944V153.544H114.784V155.432H108.944V157.288H112.096L112.432 157.224ZM128.176 157.208V156.456H124.416V157.208H128.176ZM129.488 155.352V154.76H123.152V155.352H129.488ZM122.8 158.328V156.056H121.488V153.416H122.992C122.784 153 122.496 152.552 122.208 152.184L123.76 151.56C124.192 152.056 124.624 152.712 124.816 153.176L124.272 153.416H125.392V151.448H127.2V153.416H128.64L127.904 153.16C128.192 152.696 128.576 152.04 128.768 151.576L130.624 152.12C130.256 152.616 129.888 153.048 129.584 153.416H131.232V156.056H129.904V158.328H122.8ZM121.536 159.816L119.968 160.28V164.392C119.968 165.288 119.824 165.768 119.328 166.072C118.848 166.392 118.144 166.44 117.136 166.44C117.072 165.96 116.848 165.176 116.624 164.648C117.2 164.68 117.76 164.68 117.952 164.68C118.144 164.68 118.208 164.616 118.208 164.392V160.808L116.768 161.224L116.352 159.4C116.88 159.272 117.504 159.128 118.208 158.952V156.232H116.576V154.472H118.208V151.464H119.968V154.472H121.248V156.232H119.968V158.472C120.416 158.36 120.832 158.232 121.28 158.104L121.536 159.816ZM131.488 162.696V163.992H127.328V164.728C127.328 165.592 127.104 165.944 126.48 166.152C125.84 166.376 124.96 166.392 123.728 166.376C123.632 165.944 123.36 165.352 123.136 164.952C123.888 164.984 124.88 164.984 125.088 164.968C125.36 164.952 125.456 164.888 125.456 164.68V163.992H121.136V162.696H125.456V162.008H121.76V160.744H125.456V160.136C124.416 160.184 123.376 160.2 122.4 160.184C122.352 159.832 122.192 159.304 122.064 158.968C124.656 158.952 127.76 158.808 129.536 158.472L130.576 159.624C129.632 159.8 128.512 159.944 127.328 160.024V160.744H130.864V162.008H127.328V162.696H131.488Z" fill="#222222"/>
<path opacity="0.8" d="M45.46 186.53V187.26H41.36V190.76H40.6V187.26H36.56V186.53H40.6V183.04H37.08V182.31H44.9V183.04H41.36V186.53H45.46ZM37.78 183.73L38.43 183.53C38.84 184.25 39.25 185.19 39.38 185.78L38.68 186.02C38.54 185.43 38.16 184.46 37.78 183.73ZM43.08 186.05L42.45 185.84C42.82 185.22 43.28 184.2 43.53 183.48L44.31 183.7C43.95 184.5 43.47 185.45 43.08 186.05ZM53.4 187.29H48.57V189.5H53.4V187.29ZM47.82 190.76V186.58H54.18V190.74H53.4V190.22H48.57V190.76H47.82ZM51.98 183.15L52.57 182.77C53.54 183.62 54.69 184.84 55.21 185.67L54.58 186.12C54.43 185.86 54.22 185.57 53.97 185.26C48.26 185.58 47.68 185.6 47.29 185.74C47.26 185.58 47.13 185.21 47.05 185.01C47.27 184.97 47.53 184.75 47.86 184.42C48.22 184.1 49.38 182.84 50.16 181.6L50.89 181.93C50.1 183.01 49.21 184.04 48.33 184.87L53.43 184.62C52.97 184.1 52.46 183.58 51.98 183.15ZM64.41 186H62.69C61.75 186 61.51 185.77 61.51 184.96V181.66H62.23V183.33C63.08 183.05 63.98 182.68 64.55 182.39L65.05 182.93C64.26 183.3 63.19 183.65 62.23 183.94V184.95C62.23 185.26 62.31 185.33 62.76 185.33H64.35C64.73 185.33 64.8 185.16 64.85 184.17C65 184.3 65.3 184.41 65.51 184.46C65.42 185.66 65.2 186 64.41 186ZM57.73 188.15H59.84V187.24H57.73V188.15ZM59.84 185.8H57.73V186.65H59.84V185.8ZM60.57 185.17V189.91C60.57 190.29 60.5 190.49 60.22 190.61C59.95 190.73 59.52 190.74 58.89 190.74C58.85 190.54 58.75 190.25 58.65 190.06C59.12 190.08 59.54 190.07 59.67 190.06C59.81 190.06 59.84 190.03 59.84 189.9V188.73H57.73V190.76H57.04V185.17H60.57ZM59.13 182.48L59.74 182.23C60.25 182.9 60.81 183.8 61.02 184.39L60.37 184.68C60.31 184.52 60.24 184.35 60.15 184.15C57.42 184.35 57.08 184.4 56.86 184.48C56.82 184.33 56.71 183.96 56.62 183.78C56.77 183.74 56.91 183.6 57.08 183.39C57.25 183.18 57.8 182.39 58.12 181.61L58.88 181.85C58.54 182.51 58.09 183.19 57.66 183.72L59.85 183.59C59.63 183.2 59.37 182.81 59.13 182.48ZM62.79 190.02H64.4C64.81 190.02 64.89 189.82 64.94 188.71C65.1 188.82 65.39 188.94 65.6 188.98C65.51 190.33 65.29 190.68 64.46 190.68H62.72C61.76 190.68 61.51 190.45 61.51 189.63V186.28H62.24V187.85C63.14 187.56 64.11 187.18 64.67 186.81L65.16 187.36C64.4 187.81 63.25 188.19 62.24 188.47V189.63C62.24 189.96 62.33 190.02 62.79 190.02ZM74.3 183.04H72.71C72.32 183.52 71.84 183.98 71.26 184.38C71.15 184.22 70.92 184.03 70.76 183.93C71.79 183.28 72.47 182.38 72.83 181.65L73.52 181.76C73.41 181.99 73.29 182.2 73.14 182.43H74.63L74.77 182.4L75.23 182.6C74.58 184.58 73.02 185.75 71.3 186.34C71.21 186.17 71.04 185.94 70.9 185.8C71.55 185.6 72.19 185.3 72.75 184.89C72.49 184.65 72.16 184.4 71.88 184.2L72.37 183.82C72.65 184 72.99 184.24 73.25 184.46C73.68 184.05 74.04 183.59 74.3 183.04ZM68.73 185.28H67.69V187.62H68.73V185.28ZM70.66 182.9V183.29C70.58 188.09 70.52 189.62 70.2 190.08C70.01 190.35 69.82 190.43 69.52 190.47C69.24 190.51 68.78 190.5 68.32 190.47C68.31 190.27 68.23 189.97 68.11 189.78C68.6 189.82 69.04 189.82 69.24 189.82C69.4 189.83 69.48 189.79 69.57 189.65C69.8 189.34 69.88 187.84 69.96 183.59H67.85C67.66 183.98 67.46 184.34 67.26 184.66H69.32V188.24H67.69V188.94H67.09V184.91C67.04 184.97 67 185.03 66.95 185.09C66.82 184.98 66.5 184.79 66.33 184.69C66.95 183.96 67.49 182.82 67.81 181.69L68.51 181.86C68.41 182.21 68.29 182.56 68.15 182.9H70.66ZM75.18 186.27L75.64 186.46C74.95 188.95 73.17 190.18 71 190.77C70.92 190.59 70.75 190.3 70.61 190.16C71.56 189.94 72.45 189.55 73.18 188.98C72.88 188.68 72.48 188.34 72.12 188.09L72.64 187.7C72.98 187.93 73.38 188.25 73.69 188.53C74.13 188.08 74.48 187.55 74.73 186.93H73.04C72.56 187.45 71.96 187.95 71.22 188.38C71.12 188.22 70.9 187.98 70.76 187.89C71.98 187.23 72.83 186.3 73.24 185.5L73.95 185.62C73.84 185.85 73.69 186.08 73.53 186.31H74.89V186.3H75.04L75.18 186.27ZM84.09 183.32V182.53H80.79V183.32H84.09ZM84.09 184.64V183.84H80.79V184.64H84.09ZM84.8 181.97V185.21H80.11V181.97H84.8ZM79.37 185.99L79.46 186.67C79.1 186.8 78.73 186.91 78.36 187.04V189.84C78.36 190.25 78.27 190.44 78.02 190.56C77.79 190.68 77.41 190.71 76.78 190.7C76.75 190.52 76.66 190.22 76.56 190.01C76.99 190.02 77.38 190.02 77.49 190.02C77.62 190.02 77.67 189.98 77.67 189.83V187.26C77.26 187.4 76.87 187.52 76.51 187.63L76.33 186.91C76.7 186.82 77.16 186.68 77.67 186.52V184.33H76.44V183.64H77.67V181.65H78.36V183.64H79.46V184.33H78.36V186.3L79.37 185.99ZM82.79 188.33V189.9C83.08 189.94 83.4 189.96 83.73 189.96C83.97 189.96 85.33 189.96 85.66 189.95C85.56 190.11 85.47 190.42 85.44 190.61H83.7C82.26 190.61 81.21 190.34 80.56 188.94C80.28 189.69 79.89 190.3 79.36 190.77C79.25 190.65 78.97 190.42 78.81 190.32C79.7 189.62 80.14 188.5 80.3 187.02L80.99 187.1C80.94 187.47 80.88 187.84 80.79 188.17C81.08 189.01 81.52 189.47 82.09 189.71V186.55H79.65V185.92H85.35V186.55H82.79V187.72H84.86V188.33H82.79ZM88.71 181.66L89.41 181.88C89.13 182.6 88.78 183.33 88.39 184.02V190.75H87.66V185.14C87.35 185.59 87.01 186 86.67 186.35C86.59 186.18 86.38 185.8 86.25 185.62C87.23 184.67 88.15 183.17 88.71 181.66ZM90.84 188.21L91.55 188.43C91.05 189.3 90.31 190.17 89.64 190.74C89.51 190.61 89.22 190.37 89.05 190.28C89.73 189.76 90.42 188.98 90.84 188.21ZM93.1 188.57L93.68 188.24C94.37 188.89 95.11 189.78 95.46 190.37L94.83 190.78C94.5 190.16 93.76 189.23 93.1 188.57ZM91.36 184.48V186.92H93.31V184.48H91.36ZM94.03 186.92H95.57V187.65H89.11V186.92H90.64V184.48H89.35V183.76H90.64V181.75H91.36V183.76H93.31V181.74H94.03V183.76H95.45V184.48H94.03V186.92ZM99.69 185.83H102.47V183H99.69V185.41C99.69 185.55 99.69 185.69 99.69 185.83ZM105.45 185.83V186.55H103.23V190.78H102.47V186.55H99.66C99.52 188.11 99.01 189.66 97.18 190.81C97.04 190.64 96.77 190.38 96.59 190.26C98.25 189.24 98.76 187.9 98.9 186.55H96.56V185.83H98.93C98.94 185.68 98.94 185.55 98.94 185.4V183H96.93V182.29H105.14V183H103.23V185.83H105.45ZM109.27 182.95L108.6 183.17C108.51 182.8 108.28 182.23 108.09 181.81L108.73 181.62C108.94 182.04 109.17 182.59 109.27 182.95ZM108.36 185.27H110.44C110.44 185.27 110.44 185.51 110.43 185.61C110.36 188.88 110.29 189.98 110.04 190.33C109.88 190.54 109.71 190.62 109.45 190.65C109.2 190.68 108.8 190.68 108.38 190.65C108.36 190.45 108.29 190.16 108.18 189.96C108.59 190 108.96 190.01 109.12 190.01C109.25 190.01 109.34 189.98 109.41 189.87C109.58 189.65 109.65 188.69 109.71 185.95H108.36V186.02C108.36 187.66 108.16 189.35 106.84 190.76C106.71 190.6 106.47 190.4 106.29 190.28C107.5 188.99 107.65 187.42 107.65 186.01V183.94H106.47V183.25H110.88V183.94H108.36V185.27ZM114.11 184.18H112.24C112.22 184.21 112.21 184.25 112.2 184.28C112.41 185.45 112.71 186.52 113.15 187.43C113.62 186.53 113.92 185.46 114.11 184.18ZM115.58 184.18H114.85C114.6 185.79 114.19 187.1 113.57 188.18C114.11 189.03 114.79 189.7 115.67 190.11C115.5 190.26 115.27 190.54 115.15 190.75C114.31 190.31 113.64 189.66 113.12 188.85C112.52 189.64 111.74 190.28 110.75 190.79C110.68 190.62 110.46 190.3 110.32 190.14C111.36 189.66 112.14 189 112.72 188.16C112.31 187.35 112 186.41 111.75 185.38C111.54 185.84 111.29 186.25 111.03 186.62C110.91 186.48 110.62 186.19 110.45 186.06C111.26 185.01 111.81 183.34 112.12 181.63L112.87 181.75C112.75 182.34 112.62 182.93 112.46 183.49H115.58V184.18ZM119.68 185.99V183.9H117.58V185.99H119.68ZM117.58 189.05H119.68V186.65H117.58V189.05ZM118.42 181.61L119.22 181.76C119.05 182.25 118.87 182.8 118.7 183.23H120.36V189.72H117.58V190.51H116.9V183.23H118.02C118.17 182.75 118.35 182.08 118.42 181.61ZM125.25 183.2V183.58C125.09 188.14 124.96 189.68 124.56 190.17C124.34 190.45 124.11 190.54 123.77 190.57C123.42 190.61 122.85 190.59 122.29 190.56C122.27 190.34 122.18 190.04 122.04 189.83C122.69 189.89 123.29 189.89 123.52 189.89C123.72 189.89 123.83 189.87 123.93 189.74C124.26 189.39 124.41 187.87 124.54 183.89H122C121.72 184.56 121.41 185.17 121.06 185.64C120.93 185.52 120.61 185.32 120.45 185.22C121.12 184.34 121.66 182.96 121.98 181.59L122.69 181.76C122.57 182.25 122.43 182.73 122.26 183.2H125.25ZM123.67 187.7L123.04 188.09C122.74 187.49 122.07 186.5 121.52 185.78L122.1 185.44C122.66 186.15 123.35 187.11 123.67 187.7ZM135.39 183.62H127.98V185.63C127.98 187.13 127.85 189.35 127.04 190.84C126.92 190.71 126.57 190.5 126.41 190.43C127.17 189.01 127.24 187.04 127.24 185.63V182.91H131.21C131.08 182.56 130.87 182.1 130.68 181.74L131.4 181.56C131.65 181.99 131.92 182.56 132.05 182.91H135.39V183.62ZM132.34 187.76L131.64 187.96C131.5 187.04 131.14 185.63 130.81 184.55L131.48 184.37C131.82 185.44 132.19 186.83 132.34 187.76ZM130.42 188.24L129.73 188.52C129.54 187.6 129.06 186.18 128.65 185.11L129.29 184.85C129.73 185.93 130.21 187.32 130.42 188.24ZM132.82 189.59H135.52V190.3H128.11V189.59H132.06C133.02 188.05 133.78 186.02 134.17 184.31L134.95 184.59C134.47 186.24 133.73 188.05 132.82 189.59ZM141.42 187.01H144.11V185.35H141.42V187.01ZM138.25 187.01H140.68V185.35H138.29V185.94C138.29 186.27 138.28 186.64 138.25 187.01ZM140.68 183.05H138.29V184.65H140.68V183.05ZM144.11 184.65V183.05H141.42V184.65H144.11ZM144.84 182.34V189.76C144.84 190.24 144.71 190.46 144.39 190.59C144.05 190.71 143.47 190.72 142.53 190.71C142.5 190.51 142.38 190.19 142.28 189.99C142.98 190.02 143.66 190.01 143.84 190.01C144.04 190 144.11 189.94 144.11 189.75V187.72H141.42V190.67H140.68V187.72H138.18C138.03 188.83 137.69 189.97 136.93 190.82C136.82 190.67 136.52 190.42 136.36 190.33C137.46 189.09 137.56 187.33 137.56 185.94V182.34H144.84ZM148.61 184.39V184.74C148.92 185.08 149.71 186.01 149.89 186.23L149.5 186.87C149.33 186.58 148.93 186.01 148.61 185.56V190.74H147.92V185.98C147.58 187.03 147.13 188.05 146.68 188.68C146.6 188.47 146.43 188.16 146.3 187.97C146.93 187.2 147.56 185.7 147.87 184.39H146.46V183.7H147.92V181.61H148.61V183.7H149.71V184.39H148.61ZM150.68 189.61H155.58V190.29H149.97V182.22H155.42V182.91H150.68V189.61ZM151.03 187.99H152.72V186.44H151.29V185.81H152.72V184.42H151.12V183.77H155.19V184.42H153.42V185.81H154.98V186.44H153.42V187.99H155.28V188.64H151.03V187.99ZM164.35 185.17V183.1H162.3V185.17H164.35ZM165.08 182.44V185.82H161.6V182.44H165.08ZM160.14 183.34H158.74C158.53 184.68 158.04 185.7 156.86 186.34C156.77 186.18 156.56 185.91 156.4 185.79C157.41 185.27 157.83 184.44 158.02 183.34H156.59V182.69H158.11C158.14 182.37 158.16 182.01 158.17 181.65H158.9C158.88 182.01 158.86 182.36 158.82 182.69H160.87C160.87 182.69 160.86 182.9 160.85 182.99C160.74 184.78 160.64 185.49 160.4 185.75C160.24 185.93 160.07 185.99 159.83 186.01C159.62 186.03 159.24 186.03 158.84 186.01C158.82 185.8 158.75 185.53 158.64 185.35C159.03 185.38 159.37 185.39 159.52 185.39C159.65 185.39 159.73 185.38 159.81 185.29C159.94 185.14 160.04 184.62 160.14 183.34ZM165.23 187.69H161.87C162.72 188.66 164.15 189.49 165.52 189.89C165.36 190.03 165.14 190.32 165.03 190.51C163.68 190.04 162.28 189.15 161.36 188.08V190.78H160.6V188.01C159.68 189.12 158.24 190.09 156.93 190.59C156.82 190.4 156.59 190.13 156.44 189.98C157.74 189.55 159.19 188.67 160.05 187.69H156.64V187.02H160.6V186.06H161.36V187.02H165.23V187.69ZM169.22 182.77V184.57H170.96V185.26H169.22V185.52C169.6 185.92 170.64 187.14 170.89 187.45L170.44 188.06C170.21 187.68 169.65 186.93 169.22 186.37V190.74H168.49V186.34C168 187.5 167.34 188.63 166.7 189.32C166.62 189.12 166.43 188.82 166.29 188.64C167.05 187.88 167.85 186.51 168.3 185.26H166.54V184.57H168.49V182.91C167.93 183 167.37 183.08 166.84 183.15C166.8 182.97 166.72 182.73 166.63 182.56C167.95 182.38 169.51 182.08 170.39 181.73L170.89 182.31C170.43 182.48 169.84 182.64 169.22 182.77ZM172.03 188.78H174.26V183.27H172.03V188.78ZM171.3 182.56H175V190.25H174.26V189.5H172.03V190.32H171.3V182.56ZM181.07 183.84V183.09H179.62V182.46H181.07V181.64H181.78V182.46H183.3V181.64H184.02V182.46H185.41V183.09H184.02V183.85H183.3V183.09H181.78V183.84H181.07ZM179.67 186.59L179.2 187.14C179.06 186.8 178.75 186.16 178.48 185.64V190.76H177.77V186.27C177.48 187.24 177.11 188.15 176.74 188.74C176.66 188.52 176.48 188.2 176.35 188.02C176.93 187.19 177.5 185.6 177.77 184.25H176.54V183.55H177.77V181.63H178.48V183.55H179.51V184.25H178.48V184.64C178.74 185.02 179.49 186.28 179.67 186.59ZM180.72 185.83V186.54H184.18V185.83H180.72ZM180.72 184.59V185.3H184.18V184.59H180.72ZM185.4 188.56H183.16C183.65 189.36 184.5 189.91 185.63 190.15C185.47 190.29 185.26 190.57 185.16 190.76C183.88 190.41 182.96 189.67 182.46 188.58C182.06 189.64 181.26 190.34 179.52 190.76C179.46 190.6 179.27 190.32 179.14 190.18C180.6 189.85 181.31 189.32 181.69 188.56H179.4V187.93H181.91C181.97 187.68 182.01 187.39 182.05 187.1H180.03V184.03H184.89V187.1H182.78C182.75 187.39 182.7 187.67 182.65 187.93H185.4V188.56ZM194.9 181.7V186.15C194.9 186.56 194.82 186.75 194.52 186.87C194.22 186.98 193.74 186.99 193.03 186.99C193 186.79 192.89 186.51 192.78 186.31C193.35 186.33 193.85 186.33 194 186.31C194.15 186.31 194.19 186.27 194.19 186.13V181.7H194.9ZM193.03 182.2V185.53H192.34V182.2H193.03ZM188.66 184.01V184.07H189.89V182.7H188.66V184.01ZM189.89 184.73H188.61C188.49 185.59 188.12 186.48 187.11 187.12C187.01 186.98 186.76 186.71 186.62 186.6C187.49 186.07 187.8 185.4 187.92 184.73H186.71V184.07H187.97V183.99V182.7H187.04V182.04H191.52V182.7H190.59V184.07H191.72V184.73H190.59V186.87H189.89V184.73ZM191.43 189.73H195.49V190.43H186.51V189.73H190.68V188.47H187.54V187.79H190.68V186.67H191.43V187.79H194.45V188.47H191.43V189.73ZM197.77 186.7H199.3V185.02H197.79V185.57C197.79 185.91 197.78 186.3 197.77 186.7ZM199.3 182.69H197.79V184.33H199.3V182.69ZM199.99 182V189.88C199.99 190.28 199.91 190.5 199.65 190.63C199.4 190.76 199 190.77 198.33 190.77C198.31 190.58 198.21 190.25 198.11 190.06C198.57 190.07 198.99 190.07 199.11 190.06C199.25 190.05 199.3 190.01 199.3 189.87V187.41H197.73C197.64 188.59 197.44 189.84 196.98 190.78C196.85 190.66 196.55 190.49 196.37 190.42C197.06 189.02 197.11 187.04 197.11 185.57V182H199.99ZM204.56 186.09H202.47C202.74 186.91 203.1 187.67 203.56 188.33C203.99 187.69 204.33 186.94 204.56 186.09ZM204.94 185.38L205.37 185.53C205.11 186.89 204.63 188.01 204 188.9C204.48 189.45 205.04 189.9 205.67 190.21C205.5 190.35 205.3 190.6 205.19 190.78C204.59 190.44 204.05 189.99 203.57 189.43C203.12 189.96 202.61 190.39 202.06 190.71C201.96 190.54 201.77 190.29 201.62 190.16C202.17 189.86 202.69 189.43 203.15 188.89C202.59 188.08 202.15 187.12 201.82 186.09H201.57V190.77H200.87V182.03H205.09V183.95C205.09 184.33 205 184.52 204.7 184.63C204.38 184.73 203.88 184.73 203.13 184.73C203.1 184.53 202.99 184.28 202.89 184.1C203.5 184.11 204.02 184.11 204.17 184.1C204.33 184.1 204.37 184.06 204.37 183.94V182.72H201.57V185.4H204.81L204.94 185.38ZM211.04 187.18H214.66C214.66 187.18 214.65 187.41 214.62 187.51C214.41 189.32 214.18 190.07 213.84 190.38C213.62 190.58 213.4 190.63 213.03 190.65C212.74 190.66 212.14 190.66 211.55 190.62C211.54 190.42 211.45 190.15 211.32 189.96C211.95 190.02 212.58 190.03 212.83 190.03C213.03 190.03 213.15 190.02 213.26 189.94C213.49 189.75 213.69 189.14 213.86 187.83H210.83C210.2 189.44 208.97 190.28 207.01 190.75C206.93 190.58 206.74 190.27 206.6 190.12C208.36 189.78 209.47 189.11 210.04 187.83H207.29V187.18H210.27C210.35 186.88 210.42 186.55 210.46 186.19L211.23 186.25C211.18 186.58 211.11 186.9 211.04 187.18ZM209.39 183.3L209.24 183.44C209.68 183.99 210.31 184.42 211.08 184.75C212.02 184.37 212.84 183.89 213.43 183.3H209.39ZM214.13 182.62L214.58 182.93C213.98 183.83 213.05 184.52 211.95 185.06C212.99 185.38 214.23 185.56 215.56 185.64C215.41 185.81 215.24 186.1 215.15 186.31C213.62 186.18 212.23 185.91 211.07 185.43C209.74 185.95 208.24 186.25 206.79 186.43C206.74 186.24 206.61 185.95 206.49 185.78C207.76 185.66 209.07 185.42 210.25 185.04C209.67 184.72 209.17 184.33 208.76 183.86C208.36 184.19 207.9 184.49 207.39 184.78C207.29 184.61 207.09 184.35 206.93 184.23C208.33 183.52 209.32 182.49 209.83 181.62L210.61 181.78C210.42 182.07 210.21 182.37 209.97 182.66H214L214.13 182.62ZM217.57 191.07L217.35 190.54C218.12 190.22 218.56 189.75 218.61 189.07C218.55 189.08 218.5 189.08 218.44 189.08C218.03 189.08 217.69 188.84 217.69 188.37C217.69 187.9 218.04 187.65 218.45 187.65C219 187.65 219.3 188.1 219.3 188.8C219.3 189.88 218.62 190.7 217.57 191.07ZM234.09 183.32V182.53H230.79V183.32H234.09ZM234.09 184.64V183.84H230.79V184.64H234.09ZM234.8 181.97V185.21H230.11V181.97H234.8ZM229.37 185.99L229.46 186.67C229.1 186.8 228.73 186.91 228.36 187.04V189.84C228.36 190.25 228.27 190.44 228.02 190.56C227.79 190.68 227.41 190.71 226.78 190.7C226.75 190.52 226.66 190.22 226.56 190.01C226.99 190.02 227.38 190.02 227.49 190.02C227.62 190.02 227.67 189.98 227.67 189.83V187.26C227.26 187.4 226.87 187.52 226.51 187.63L226.33 186.91C226.7 186.82 227.16 186.68 227.67 186.52V184.33H226.44V183.64H227.67V181.65H228.36V183.64H229.46V184.33H228.36V186.3L229.37 185.99ZM232.79 188.33V189.9C233.08 189.94 233.4 189.96 233.73 189.96C233.97 189.96 235.33 189.96 235.66 189.95C235.56 190.11 235.47 190.42 235.44 190.61H233.7C232.26 190.61 231.21 190.34 230.56 188.94C230.28 189.69 229.89 190.3 229.36 190.77C229.25 190.65 228.97 190.42 228.81 190.32C229.7 189.62 230.14 188.5 230.3 187.02L230.99 187.1C230.94 187.47 230.88 187.84 230.79 188.17C231.08 189.01 231.52 189.47 232.09 189.71V186.55H229.65V185.92H235.35V186.55H232.79V187.72H234.86V188.33H232.79ZM38.71 196.66L39.41 196.88C39.13 197.6 38.78 198.33 38.39 199.02V205.75H37.66V200.14C37.35 200.59 37.01 201 36.67 201.35C36.59 201.18 36.38 200.8 36.25 200.62C37.23 199.67 38.15 198.17 38.71 196.66ZM40.84 203.21L41.55 203.43C41.05 204.3 40.31 205.17 39.64 205.74C39.51 205.61 39.22 205.37 39.05 205.28C39.73 204.76 40.42 203.98 40.84 203.21ZM43.1 203.57L43.68 203.24C44.37 203.89 45.11 204.78 45.46 205.37L44.83 205.78C44.5 205.16 43.76 204.23 43.1 203.57ZM41.36 199.48V201.92H43.31V199.48H41.36ZM44.03 201.92H45.57V202.65H39.11V201.92H40.64V199.48H39.35V198.76H40.64V196.75H41.36V198.76H43.31V196.74H44.03V198.76H45.45V199.48H44.03V201.92ZM55.45 202.63V203.36H51.38V205.74H50.61V203.36H46.57V202.63H50.61V201.02H47.43V200.31H50.61V198.83H46.94V198.1H50.61V196.64H51.38V198.1H55.05V198.83H51.38V200.31H54.59V201.02H51.38V202.63H55.45ZM60.6 202.76H58.21V203.54H60.6V202.76ZM63.85 203.54V202.76H61.32V203.54H63.85ZM61.32 204.86H63.85V204.06H61.32V204.86ZM58.21 204.06V204.86H60.6V204.06H58.21ZM57.51 205.78V202.19H64.58V205.74H63.85V205.44H58.21V205.78H57.51ZM63.86 198.7V199.24H58.15V198.7H63.86ZM58.86 200.32V201.08H63.08V200.32H58.86ZM63.8 201.61H58.18V199.79H63.8V201.61ZM61.55 197.44H65.18V199.33H64.45V198.09H57.56V199.33H56.85V197.44H60.65C60.53 197.2 60.4 196.94 60.27 196.72L61.04 196.54C61.22 196.82 61.42 197.18 61.55 197.44ZM69.68 200.99V198.9H67.58V200.99H69.68ZM67.58 204.05H69.68V201.65H67.58V204.05ZM68.42 196.61L69.22 196.76C69.05 197.25 68.87 197.8 68.7 198.23H70.36V204.72H67.58V205.51H66.9V198.23H68.02C68.17 197.75 68.35 197.08 68.42 196.61ZM75.25 198.2V198.58C75.09 203.14 74.96 204.68 74.56 205.17C74.34 205.45 74.11 205.54 73.77 205.57C73.42 205.61 72.85 205.59 72.29 205.56C72.27 205.34 72.18 205.04 72.04 204.83C72.69 204.89 73.29 204.89 73.52 204.89C73.72 204.89 73.83 204.87 73.93 204.74C74.26 204.39 74.41 202.87 74.54 198.89H72C71.72 199.56 71.41 200.17 71.06 200.64C70.93 200.52 70.61 200.32 70.45 200.22C71.12 199.34 71.66 197.96 71.98 196.59L72.69 196.76C72.57 197.25 72.43 197.73 72.26 198.2H75.25ZM73.67 202.7L73.04 203.09C72.74 202.49 72.07 201.5 71.52 200.78L72.1 200.44C72.66 201.15 73.35 202.11 73.67 202.7ZM80.1463 202.02H82.3663L82.0163 200.9C81.7463 200.07 81.5163 199.27 81.2763 198.42H81.2363C81.0063 199.28 80.7663 200.07 80.5063 200.9L80.1463 202.02ZM83.2963 205L82.5963 202.76H79.9163L79.2063 205H78.2663L80.7563 197.67H81.7863L84.2763 205H83.2963ZM90.0169 198.3L89.5169 198.85C89.1869 198.42 88.4969 197.75 87.9469 197.29L88.4269 196.81C88.9769 197.25 89.6769 197.89 90.0169 198.3ZM89.3669 204L90.5869 203.18C90.6369 203.37 90.7669 203.68 90.8269 203.83C88.9669 205.15 88.6869 205.37 88.5269 205.58C88.4569 205.38 88.2669 205.06 88.1369 204.9C88.3269 204.77 88.6169 204.49 88.6169 204.07V200.49H87.0469V199.76H89.3669V204ZM96.1069 199.94V200.69H93.5769V205.77H92.8069V200.69H90.2669V199.94H92.8069V196.67H93.5769V199.94H96.1069ZM100.407 203.46H102.957V202.6H100.417V203.25C100.417 203.32 100.417 203.39 100.407 203.46ZM99.0769 201.5V202.1H104.177V201.5H99.0769ZM99.0769 200.45V201.02H104.177V200.45H99.0769ZM99.0769 199.39V199.97H104.177V199.39H99.0769ZM103.167 197.99H102.367C102.127 198.33 101.857 198.65 101.597 198.89H103.837C103.697 198.64 103.437 198.28 103.167 197.99ZM105.997 203.46V204.08H103.707V205.75H102.957V204.08H100.267C100.017 204.7 99.3669 205.31 97.7669 205.78C97.6669 205.61 97.4669 205.36 97.3069 205.22C98.5469 204.91 99.1569 204.49 99.4369 204.08H97.1469V203.46H99.6769C99.6869 203.38 99.6869 203.31 99.6869 203.25V202.6H98.3469V198.89H99.4269C99.3269 198.65 99.1369 198.28 98.9369 197.99H98.4269C98.1469 198.4 97.8469 198.77 97.5469 199.06C97.4069 198.95 97.1169 198.74 96.9369 198.66C97.5469 198.15 98.0969 197.37 98.4069 196.6L99.0869 196.78C98.9969 196.98 98.8969 197.18 98.7969 197.38H101.417V197.99H99.7069C99.8669 198.23 100.017 198.49 100.087 198.68L99.5469 198.89H101.507C101.337 198.77 101.077 198.63 100.907 198.56C101.517 198.08 102.027 197.35 102.297 196.6L103.007 196.76C102.927 196.97 102.837 197.18 102.727 197.38H105.907V197.99H104.007C104.207 198.21 104.377 198.46 104.477 198.65L103.947 198.89H104.937V202.6H103.707V203.46H105.997ZM108.867 203.32L109.867 202.97L109.987 203.63C109.007 204 107.947 204.38 107.137 204.66L106.947 203.97C107.287 203.86 107.717 203.72 108.177 203.56V200.87H107.147V200.18H108.177V198H106.997V197.32H109.957V198H108.867V200.18H109.747V200.87H108.867V203.32ZM113.297 200.06L113.857 199.68C114.597 200.49 115.507 201.6 115.937 202.29L115.327 202.75C114.927 202.05 114.037 200.9 113.297 200.06ZM110.467 197.28H115.957V197.99H113.807C113.657 198.42 113.487 198.85 113.287 199.25V205.74H112.557V200.61C112.007 201.5 111.377 202.27 110.687 202.87C110.567 202.71 110.277 202.43 110.107 202.29C111.347 201.3 112.367 199.74 113.007 197.99H110.467V197.28ZM125.517 197.37V198H120.527V197.37H122.687C122.607 197.15 122.497 196.92 122.407 196.71L123.097 196.58C123.217 196.82 123.347 197.12 123.437 197.37H125.517ZM125.777 199.18V199.82H120.227V199.18H121.637C121.587 198.91 121.457 198.52 121.327 198.22L121.937 198.09C122.067 198.4 122.237 198.82 122.297 199.08L121.927 199.18H123.587C123.737 198.86 123.917 198.42 124.007 198.12L124.697 198.27C124.547 198.59 124.387 198.91 124.257 199.18H125.777ZM119.947 202.61L120.087 203.29C119.087 203.7 118.007 204.12 117.167 204.44L116.927 203.69C117.277 203.58 117.707 203.43 118.177 203.26V199.76H117.077V199.06H118.177V196.75H118.897V199.06H119.867V199.76H118.897V203L119.947 202.61ZM121.397 201.99V202.66H124.537V201.99H121.397ZM121.397 200.85V201.5H124.537V200.85H121.397ZM124.397 205.05H124.877C125.017 205.05 125.167 205.04 125.217 205.01C125.297 204.99 125.367 204.91 125.397 204.8C125.417 204.66 125.427 204.35 125.437 203.95C125.587 204.08 125.837 204.21 126.037 204.27C126.017 204.66 125.977 205.07 125.917 205.24C125.837 205.39 125.727 205.5 125.547 205.55C125.397 205.6 125.127 205.63 124.937 205.63H124.267C124.037 205.63 123.737 205.58 123.587 205.46C123.407 205.34 123.337 205.18 123.337 204.65V203.17H122.447C122.287 204.61 121.777 205.37 119.957 205.8C119.887 205.63 119.697 205.35 119.567 205.22C121.187 204.89 121.617 204.33 121.747 203.17H120.707V200.34H125.247V203.17H124.037V204.72C124.037 204.87 124.047 204.97 124.127 205C124.187 205.04 124.277 205.05 124.397 205.05ZM129.957 204.98L129.277 205.56C128.637 204.77 127.777 203.91 127.067 203.33L127.717 202.76C128.437 203.34 129.337 204.25 129.957 204.98ZM141.447 198.97V198.3H139.027V198.97H141.447ZM141.447 200.16V199.5H139.027V200.16H141.447ZM141.447 201.38V200.69H139.027V201.38H141.447ZM138.297 202.28V199.11C138.037 199.39 137.737 199.66 137.427 199.92C137.307 199.76 137.067 199.54 136.897 199.44C137.987 198.61 138.787 197.49 139.217 196.62L139.977 196.76C139.807 197.06 139.627 197.39 139.407 197.7H141.677C141.547 197.41 141.377 197.07 141.217 196.8L141.877 196.6C142.097 196.94 142.337 197.38 142.447 197.7H145.377V198.3H142.167V198.97H144.977V199.5H142.167V200.16H145.007V200.69H142.167V201.38H145.707V201.98H139.027V202.28H138.297ZM145.987 203.36H142.577C143.517 204.07 144.937 204.67 146.177 204.98C146.027 205.12 145.817 205.4 145.707 205.58C144.417 205.2 142.907 204.46 141.887 203.61V205.76H141.157V203.62C140.137 204.5 138.637 205.26 137.367 205.66C137.257 205.47 137.047 205.19 136.877 205.05C138.117 204.72 139.547 204.09 140.497 203.36H137.117V202.75H141.157V202.08H141.887V202.75H145.987V203.36ZM153.247 197.13L153.687 196.68C154.307 196.99 155.087 197.47 155.477 197.82L155.017 198.33C154.637 197.98 153.877 197.47 153.247 197.13ZM154.667 199.83L155.417 200.02C154.987 201.31 154.397 202.45 153.657 203.4C154.027 204.38 154.487 204.95 154.997 204.95C155.277 204.95 155.397 204.43 155.467 203.1C155.637 203.27 155.907 203.44 156.107 203.5C155.967 205.2 155.697 205.69 154.937 205.69C154.167 205.69 153.567 205.08 153.107 204.05C152.507 204.7 151.817 205.26 151.047 205.71C150.937 205.56 150.677 205.26 150.507 205.12C151.397 204.64 152.167 204.02 152.807 203.27C152.447 202.14 152.207 200.67 152.077 199.06H148.627V200.36H151.177V200.68C151.127 202.92 151.067 203.76 150.857 204.02C150.707 204.21 150.537 204.28 150.257 204.31C150.007 204.33 149.557 204.33 149.067 204.31C149.057 204.08 148.977 203.8 148.857 203.61C149.317 203.65 149.747 203.66 149.917 203.66C150.057 203.66 150.157 203.64 150.217 203.55C150.357 203.4 150.407 202.77 150.447 201.05H148.627V201.13C148.627 202.53 148.477 204.54 147.577 205.84C147.447 205.69 147.127 205.43 146.957 205.34C147.777 204.12 147.867 202.41 147.867 201.12V198.33H152.037C151.997 197.78 151.987 197.22 151.977 196.65H152.747C152.747 197.23 152.757 197.79 152.787 198.33H156.017V199.06H152.837C152.937 200.39 153.117 201.58 153.387 202.53C153.927 201.74 154.357 200.84 154.667 199.83ZM165.797 197.24V197.94H160.897V197.24H165.797ZM159.227 196.63L159.947 196.91C159.287 197.8 158.267 198.78 157.357 199.41C157.257 199.25 157.037 198.96 156.897 198.82C157.747 198.27 158.727 197.36 159.227 196.63ZM159.627 198.76L160.327 199.02C160.017 199.52 159.647 200.03 159.237 200.52V205.8H158.487V201.35C158.107 201.74 157.717 202.09 157.347 202.39C157.237 202.23 156.967 201.92 156.807 201.78C157.847 201.05 158.937 199.89 159.627 198.76ZM166.037 199.97V200.68H164.557V204.8C164.557 205.26 164.437 205.46 164.097 205.58C163.747 205.68 163.187 205.69 162.267 205.68C162.227 205.49 162.107 205.19 161.997 205C162.697 205.02 163.367 205.02 163.557 205.01C163.747 205 163.797 204.96 163.797 204.79V200.68H160.467V199.97H166.037ZM175.057 198.94L175.727 199.27C175.247 200.41 174.577 201.79 174.007 202.71L173.397 202.38C173.947 201.48 174.667 200.04 175.057 198.94ZM169.497 202.35L168.757 202.63C168.517 201.75 167.917 200.25 167.397 199.12L168.087 198.91C168.617 200.02 169.227 201.48 169.497 202.35ZM173.137 204.51H175.927V205.24H167.187V204.51H169.967V196.76H170.707V204.51H172.397V196.77H173.137V204.51ZM185.547 198.34V204.78C185.547 205.26 185.437 205.5 185.097 205.62C184.747 205.75 184.127 205.75 183.237 205.75C183.207 205.55 183.097 205.2 182.987 205C183.687 205.03 184.367 205.03 184.577 205.02C184.757 205.01 184.817 204.95 184.817 204.77V199.07H181.917C181.897 199.48 181.847 199.92 181.737 200.37C182.727 201.24 183.947 202.41 184.557 203.15L183.947 203.63C183.437 202.96 182.437 201.94 181.517 201.08C181.147 202.04 180.427 202.97 179.087 203.76C178.977 203.6 178.727 203.33 178.557 203.2C180.757 202.03 181.117 200.38 181.177 199.07H178.297V205.78H177.567V198.34H181.187V196.63H181.927V198.34H185.547ZM193.997 197.47L194.477 197.77C193.217 199.98 190.307 201.32 187.717 201.86C187.657 201.66 187.497 201.35 187.367 201.19C188.477 200.99 189.657 200.63 190.717 200.12C190.387 199.82 189.947 199.5 189.547 199.27L190.087 198.89C190.507 199.13 191.007 199.47 191.367 199.79C192.157 199.33 192.847 198.79 193.337 198.17H190.517C189.877 198.7 189.097 199.19 188.197 199.6C188.087 199.43 187.857 199.2 187.697 199.08C189.287 198.41 190.477 197.44 191.117 196.62L191.927 196.79C191.737 197.03 191.517 197.26 191.277 197.5H193.867L193.997 197.47ZM195.457 200.96L195.957 201.27C194.567 204.21 191.157 205.37 187.637 205.79C187.587 205.58 187.467 205.25 187.337 205.07C189.027 204.91 190.707 204.56 192.107 203.91C191.777 203.59 191.327 203.21 190.937 202.91L191.547 202.56C191.947 202.85 192.427 203.24 192.787 203.57C193.637 203.08 194.347 202.46 194.847 201.68H192.147C191.317 202.35 190.287 202.96 189.037 203.45C188.947 203.29 188.737 203.02 188.567 202.9C190.587 202.17 192.007 201.06 192.737 200.08L193.557 200.26C193.357 200.51 193.147 200.76 192.897 201H195.307L195.457 200.96ZM198.137 198.21V199.57H197.417V197.52H201.167C201.057 197.27 200.927 197.01 200.797 196.79L201.557 196.57C201.737 196.85 201.937 197.23 202.047 197.52H205.737V199.57H204.987V198.21H198.137ZM204.427 200.2L205.037 200.68C204.587 201.05 204.037 201.45 203.497 201.81C203.957 203.13 204.907 204.26 206.157 204.74C205.997 204.88 205.777 205.16 205.677 205.35C204.407 204.78 203.457 203.62 202.917 202.18C202.767 202.28 202.597 202.38 202.447 202.46C202.787 203.75 202.537 204.98 201.997 205.4C201.677 205.67 201.417 205.75 200.977 205.75C200.747 205.75 200.437 205.74 200.117 205.73C200.117 205.52 200.037 205.23 199.927 205.03C200.287 205.06 200.617 205.08 200.827 205.08C201.087 205.08 201.277 205.05 201.467 204.87C201.767 204.65 201.947 203.96 201.857 203.15C200.717 204.02 199.007 204.85 197.577 205.29C197.497 205.1 197.327 204.83 197.187 204.66C198.787 204.29 200.727 203.36 201.717 202.46C201.647 202.23 201.567 201.99 201.447 201.76C200.467 202.43 198.927 203.13 197.737 203.5C197.657 203.34 197.497 203.07 197.357 202.92C198.607 202.62 200.277 201.91 201.147 201.26C201.017 201.05 200.857 200.86 200.667 200.67C199.777 201.17 198.747 201.56 197.787 201.85C197.717 201.7 197.507 201.4 197.377 201.26C198.637 200.96 199.997 200.46 200.947 199.81H198.667V199.16H204.417V199.81H201.937C201.717 200 201.487 200.17 201.227 200.34C201.687 200.8 202.037 201.33 202.247 201.87C203.007 201.38 203.867 200.72 204.427 200.2ZM215.867 197.34V198.1H208.797V200.3C208.797 201.9 208.647 204.21 207.657 205.73C207.517 205.6 207.177 205.38 206.977 205.3C207.937 203.85 208.017 201.79 208.017 200.3V197.34H215.867ZM220.517 200.59L221.047 200.84C220.537 201.44 219.747 202.11 219.117 202.54C219.067 202.42 218.887 202.09 218.777 201.96C219.367 201.59 220.057 201.09 220.517 200.59ZM222.727 202.78H220.347V203.94H222.727V202.78ZM223.347 204.49H220.347V204.95H219.697V202.22H223.347V204.49ZM224.527 201.98L224.087 202.5C223.657 202.09 222.797 201.43 222.137 200.96L222.557 200.52C223.207 200.96 224.077 201.59 224.527 201.98ZM225.367 199.79V204.94C225.367 205.33 225.267 205.5 224.977 205.61C224.677 205.7 224.177 205.71 223.327 205.71C223.287 205.53 223.197 205.3 223.097 205.14C223.717 205.16 224.297 205.15 224.457 205.14C224.617 205.13 224.677 205.09 224.677 204.93V200.41H218.477V205.75H217.767V199.79H222.377C222.647 199.38 222.947 198.83 223.117 198.43L223.907 198.6C223.657 199.01 223.397 199.44 223.137 199.79H225.367ZM219.307 198.59L219.977 198.37C220.187 198.71 220.477 199.19 220.607 199.48L219.927 199.75C219.797 199.46 219.527 198.96 219.307 198.59ZM222.157 197.71H225.917V198.35H217.197V197.71H221.347C221.237 197.41 221.097 197.06 220.957 196.79L221.677 196.6C221.847 196.95 222.047 197.38 222.157 197.71ZM231.947 204.73H235.997V205.45H227.137V204.73H231.187V202.19H228.217V201.47H231.187V199.29H228.837C228.517 199.92 228.167 200.47 227.787 200.92C227.647 200.8 227.317 200.58 227.117 200.48C227.937 199.6 228.577 198.22 228.967 196.8L229.717 196.96C229.557 197.51 229.377 198.05 229.157 198.56H231.187V196.64H231.947V198.56H235.527V199.29H231.947V201.47H235.157V202.19H231.947V204.73ZM37.24 220.37L36.57 220.02C37.02 219.38 37.37 218.38 37.56 217.58L38.22 217.8C38 218.62 37.68 219.68 37.24 220.37ZM40.21 219.87H42.44C42.97 219.87 43.05 219.72 43.11 218.7C43.27 218.82 43.57 218.93 43.78 218.98C43.68 220.23 43.45 220.54 42.49 220.54H40.17C39.02 220.54 38.71 220.33 38.71 219.53V217.58H39.44V219.52C39.44 219.81 39.56 219.87 40.21 219.87ZM39.82 215.9L40.44 215.51C41.02 215.84 41.72 216.33 42.09 216.71L41.42 217.14C41.11 216.77 40.4 216.25 39.82 215.9ZM40.1 217.34L40.68 217C41.24 217.5 41.95 218.21 42.29 218.68L41.69 219.08C41.37 218.6 40.68 217.86 40.1 217.34ZM43.48 217.64L44.14 217.43C44.65 218.25 45.18 219.35 45.37 220.06L44.66 220.31C44.49 219.62 43.99 218.48 43.48 217.64ZM45.45 213.73H41.8C42.49 215.16 43.76 216.17 45.55 216.57C45.38 216.74 45.16 217.04 45.05 217.26C43.08 216.72 41.77 215.51 41.03 213.73C40.54 215.3 39.48 216.61 36.9 217.3C36.82 217.12 36.63 216.83 36.49 216.68C38.8 216.1 39.78 215.02 40.25 213.73H36.59V213.03H40.45C40.56 212.57 40.62 212.09 40.67 211.6H41.43C41.38 212.09 41.31 212.57 41.22 213.03H45.45V213.73ZM55.39 213.62H47.98V215.63C47.98 217.13 47.85 219.35 47.04 220.84C46.92 220.71 46.57 220.5 46.41 220.43C47.17 219.01 47.24 217.04 47.24 215.63V212.91H51.21C51.08 212.56 50.87 212.1 50.68 211.74L51.4 211.56C51.65 211.99 51.92 212.56 52.05 212.91H55.39V213.62ZM52.34 217.76L51.64 217.96C51.5 217.04 51.14 215.63 50.81 214.55L51.48 214.37C51.82 215.44 52.19 216.83 52.34 217.76ZM50.42 218.24L49.73 218.52C49.54 217.6 49.06 216.18 48.65 215.11L49.29 214.85C49.73 215.93 50.21 217.32 50.42 218.24ZM52.82 219.59H55.52V220.3H48.11V219.59H52.06C53.02 218.05 53.78 216.02 54.17 214.31L54.95 214.59C54.47 216.24 53.73 218.05 52.82 219.59ZM61.42 217.01H64.11V215.35H61.42V217.01ZM58.25 217.01H60.68V215.35H58.29V215.94C58.29 216.27 58.28 216.64 58.25 217.01ZM60.68 213.05H58.29V214.65H60.68V213.05ZM64.11 214.65V213.05H61.42V214.65H64.11ZM64.84 212.34V219.76C64.84 220.24 64.71 220.46 64.39 220.59C64.05 220.71 63.47 220.72 62.53 220.71C62.5 220.51 62.38 220.19 62.28 219.99C62.98 220.02 63.66 220.01 63.84 220.01C64.04 220 64.11 219.94 64.11 219.75V217.72H61.42V220.67H60.68V217.72H58.18C58.03 218.83 57.69 219.97 56.93 220.82C56.82 220.67 56.52 220.42 56.36 220.33C57.46 219.09 57.56 217.33 57.56 215.94V212.34H64.84ZM67.57 221.07L67.35 220.54C68.12 220.22 68.56 219.75 68.61 219.07C68.55 219.08 68.5 219.08 68.44 219.08C68.03 219.08 67.69 218.84 67.69 218.37C67.69 217.9 68.04 217.65 68.45 217.65C69 217.65 69.3 218.1 69.3 218.8C69.3 219.88 68.62 220.7 67.57 221.07ZM80.13 215.87L80.22 216.56C79.73 216.71 79.23 216.87 78.74 217.01V219.78C78.74 220.21 78.64 220.4 78.38 220.52C78.12 220.65 77.71 220.66 77.02 220.66C76.99 220.46 76.88 220.16 76.78 219.96C77.26 219.97 77.69 219.97 77.81 219.97C77.95 219.97 78.01 219.92 78.01 219.77V217.24C77.52 217.38 77.06 217.52 76.65 217.64L76.43 216.89C76.87 216.78 77.42 216.63 78.01 216.48V214.35H76.52V213.64H78.01V211.65H78.74V213.64H80.12V214.35H78.74V216.26L80.13 215.87ZM85.57 212.48V213.21H83.8V219.68C83.8 220.19 83.67 220.44 83.31 220.56C82.95 220.7 82.33 220.71 81.39 220.71C81.34 220.49 81.2 220.12 81.08 219.91C81.81 219.94 82.54 219.94 82.75 219.93C82.94 219.92 83.02 219.86 83.02 219.67V213.21H80.17V212.48H85.57ZM91.94 213.54H90.38C90.17 213.93 89.93 214.29 89.68 214.58C89.55 214.47 89.22 214.3 89.06 214.22C89.63 213.62 90.11 212.69 90.38 211.77L91.07 211.93C90.97 212.25 90.84 212.58 90.71 212.89H91.94V211.65H92.67V212.89H95.01V213.54H92.67V214.81H95.44V215.46H89.07V214.81H91.94V213.54ZM90.56 216.89V218.44H93.94V216.89H90.56ZM94.67 219.06H89.86V216.27H94.67V219.06ZM88.81 213.6L88.23 214.04C87.94 213.6 87.28 212.91 86.73 212.43L87.28 212.04C87.83 212.5 88.5 213.16 88.81 213.6ZM88.53 215.44V219.05C88.73 219.13 88.92 219.31 89.27 219.51C89.88 219.85 90.74 219.91 91.8 219.91C92.97 219.91 94.61 219.84 95.66 219.71C95.57 219.91 95.45 220.26 95.44 220.48C94.57 220.53 92.82 220.58 91.78 220.58C90.62 220.58 89.79 220.49 89.15 220.13C88.78 219.91 88.49 219.65 88.29 219.65C87.96 219.65 87.46 220.13 86.97 220.69L86.5 220.04C86.94 219.64 87.4 219.28 87.81 219.12V216.14H86.51V215.44H88.53ZM105.45 217.63V218.36H101.38V220.74H100.61V218.36H96.57V217.63H100.61V216.02H97.43V215.31H100.61V213.83H96.94V213.1H100.61V211.64H101.38V213.1H105.05V213.83H101.38V215.31H104.59V216.02H101.38V217.63H105.45ZM110.6 217.76H108.21V218.54H110.6V217.76ZM113.85 218.54V217.76H111.32V218.54H113.85ZM111.32 219.86H113.85V219.06H111.32V219.86ZM108.21 219.06V219.86H110.6V219.06H108.21ZM107.51 220.78V217.19H114.58V220.74H113.85V220.44H108.21V220.78H107.51ZM113.86 213.7V214.24H108.15V213.7H113.86ZM108.86 215.32V216.08H113.08V215.32H108.86ZM113.8 216.61H108.18V214.79H113.8V216.61ZM111.55 212.44H115.18V214.33H114.45V213.09H107.56V214.33H106.85V212.44H110.65C110.53 212.2 110.4 211.94 110.27 211.72L111.04 211.54C111.22 211.82 111.42 212.18 111.55 212.44ZM119.68 215.99V213.9H117.58V215.99H119.68ZM117.58 219.05H119.68V216.65H117.58V219.05ZM118.42 211.61L119.22 211.76C119.05 212.25 118.87 212.8 118.7 213.23H120.36V219.72H117.58V220.51H116.9V213.23H118.02C118.17 212.75 118.35 212.08 118.42 211.61ZM125.25 213.2V213.58C125.09 218.14 124.96 219.68 124.56 220.17C124.34 220.45 124.11 220.54 123.77 220.57C123.42 220.61 122.85 220.59 122.29 220.56C122.27 220.34 122.18 220.04 122.04 219.83C122.69 219.89 123.29 219.89 123.52 219.89C123.72 219.89 123.83 219.87 123.93 219.74C124.26 219.39 124.41 217.87 124.54 213.89H122C121.72 214.56 121.41 215.17 121.06 215.64C120.93 215.52 120.61 215.32 120.45 215.22C121.12 214.34 121.66 212.96 121.98 211.59L122.69 211.76C122.57 212.25 122.43 212.73 122.26 213.2H125.25ZM123.67 217.7L123.04 218.09C122.74 217.49 122.07 216.5 121.52 215.78L122.1 215.44C122.66 216.15 123.35 217.11 123.67 217.7ZM128.34 220.13C127.57 220.13 126.83 219.81 126.31 219.38L126.76 218.78C127.23 219.16 127.72 219.42 128.37 219.42C129.09 219.42 129.44 219.04 129.44 218.57C129.44 218.02 128.8 217.77 128.2 217.54C127.44 217.26 126.58 216.89 126.58 215.97C126.58 215.11 127.27 214.43 128.45 214.43C129.12 214.43 129.71 214.71 130.14 215.04L129.7 215.63C129.32 215.35 128.94 215.15 128.45 215.15C127.77 215.15 127.46 215.51 127.46 215.93C127.46 216.45 128.05 216.64 128.66 216.87C129.45 217.17 130.32 217.49 130.32 218.52C130.32 219.4 129.62 220.13 128.34 220.13ZM132.848 220.13C131.938 220.13 131.258 219.57 131.258 218.59C131.258 217.41 132.288 216.82 134.598 216.56C134.598 215.86 134.368 215.19 133.478 215.19C132.848 215.19 132.278 215.48 131.848 215.77L131.488 215.14C131.988 214.82 132.758 214.43 133.628 214.43C134.948 214.43 135.508 215.32 135.508 216.66V220H134.758L134.678 219.35H134.648C134.128 219.78 133.518 220.13 132.848 220.13ZM133.108 219.4C133.638 219.4 134.068 219.15 134.598 218.68V217.16C132.768 217.38 132.148 217.83 132.148 218.53C132.148 219.15 132.568 219.4 133.108 219.4ZM138.492 220.13C137.582 220.13 136.902 219.57 136.902 218.59C136.902 217.41 137.932 216.82 140.242 216.56C140.242 215.86 140.012 215.19 139.122 215.19C138.492 215.19 137.922 215.48 137.492 215.77L137.132 215.14C137.632 214.82 138.402 214.43 139.272 214.43C140.592 214.43 141.152 215.32 141.152 216.66V220H140.402L140.322 219.35H140.292C139.772 219.78 139.162 220.13 138.492 220.13ZM138.752 219.4C139.282 219.4 139.712 219.15 140.242 218.68V217.16C138.412 217.38 137.792 217.83 137.792 218.53C137.792 219.15 138.212 219.4 138.752 219.4ZM144.307 220.13C143.537 220.13 142.797 219.81 142.277 219.38L142.727 218.78C143.197 219.16 143.687 219.42 144.337 219.42C145.057 219.42 145.407 219.04 145.407 218.57C145.407 218.02 144.767 217.77 144.167 217.54C143.407 217.26 142.547 216.89 142.547 215.97C142.547 215.11 143.237 214.43 144.417 214.43C145.087 214.43 145.677 214.71 146.107 215.04L145.667 215.63C145.287 215.35 144.907 215.15 144.417 215.15C143.737 215.15 143.427 215.51 143.427 215.93C143.427 216.45 144.017 216.64 144.627 216.87C145.417 217.17 146.287 217.49 146.287 218.52C146.287 219.4 145.587 220.13 144.307 220.13ZM156.035 213.62H148.625V215.63C148.625 217.13 148.495 219.35 147.685 220.84C147.565 220.71 147.215 220.5 147.055 220.43C147.815 219.01 147.885 217.04 147.885 215.63V212.91H151.855C151.725 212.56 151.515 212.1 151.325 211.74L152.045 211.56C152.295 211.99 152.565 212.56 152.695 212.91H156.035V213.62ZM152.985 217.76L152.285 217.96C152.145 217.04 151.785 215.63 151.455 214.55L152.125 214.37C152.465 215.44 152.835 216.83 152.985 217.76ZM151.065 218.24L150.375 218.52C150.185 217.6 149.705 216.18 149.295 215.11L149.935 214.85C150.375 215.93 150.855 217.32 151.065 218.24ZM153.465 219.59H156.165V220.3H148.755V219.59H152.705C153.665 218.05 154.425 216.02 154.815 214.31L155.595 214.59C155.115 216.24 154.375 218.05 153.465 219.59ZM162.065 217.01H164.755V215.35H162.065V217.01ZM158.895 217.01H161.325V215.35H158.935V215.94C158.935 216.27 158.925 216.64 158.895 217.01ZM161.325 213.05H158.935V214.65H161.325V213.05ZM164.755 214.65V213.05H162.065V214.65H164.755ZM165.485 212.34V219.76C165.485 220.24 165.355 220.46 165.035 220.59C164.695 220.71 164.115 220.72 163.175 220.71C163.145 220.51 163.025 220.19 162.925 219.99C163.625 220.02 164.305 220.01 164.485 220.01C164.685 220 164.755 219.94 164.755 219.75V217.72H162.065V220.67H161.325V217.72H158.825C158.675 218.83 158.335 219.97 157.575 220.82C157.465 220.67 157.165 220.42 157.005 220.33C158.105 219.09 158.205 217.33 158.205 215.94V212.34H165.485ZM168.415 216.7H169.945V215.02H168.435V215.57C168.435 215.91 168.425 216.3 168.415 216.7ZM169.945 212.69H168.435V214.33H169.945V212.69ZM170.635 212V219.88C170.635 220.28 170.555 220.5 170.295 220.63C170.045 220.76 169.645 220.77 168.975 220.77C168.955 220.58 168.855 220.25 168.755 220.06C169.215 220.07 169.635 220.07 169.755 220.06C169.895 220.05 169.945 220.01 169.945 219.87V217.41H168.375C168.285 218.59 168.085 219.84 167.625 220.78C167.495 220.66 167.195 220.49 167.015 220.42C167.705 219.02 167.755 217.04 167.755 215.57V212H170.635ZM175.205 216.09H173.115C173.385 216.91 173.745 217.67 174.205 218.33C174.635 217.69 174.975 216.94 175.205 216.09ZM175.585 215.38L176.015 215.53C175.755 216.89 175.275 218.01 174.645 218.9C175.125 219.45 175.685 219.9 176.315 220.21C176.145 220.35 175.945 220.6 175.835 220.78C175.235 220.44 174.695 219.99 174.215 219.43C173.765 219.96 173.255 220.39 172.705 220.71C172.605 220.54 172.415 220.29 172.265 220.16C172.815 219.86 173.335 219.43 173.795 218.89C173.235 218.08 172.795 217.12 172.465 216.09H172.215V220.77H171.515V212.03H175.735V213.95C175.735 214.33 175.645 214.52 175.345 214.63C175.025 214.73 174.525 214.73 173.775 214.73C173.745 214.53 173.635 214.28 173.535 214.1C174.145 214.11 174.665 214.11 174.815 214.1C174.975 214.1 175.015 214.06 175.015 213.94V212.72H172.215V215.4H175.455L175.585 215.38ZM181.685 217.18H185.305C185.305 217.18 185.295 217.41 185.265 217.51C185.055 219.32 184.825 220.07 184.485 220.38C184.265 220.58 184.045 220.63 183.675 220.65C183.385 220.66 182.785 220.66 182.195 220.62C182.185 220.42 182.095 220.15 181.965 219.96C182.595 220.02 183.225 220.03 183.475 220.03C183.675 220.03 183.795 220.02 183.905 219.94C184.135 219.75 184.335 219.14 184.505 217.83H181.475C180.845 219.44 179.615 220.28 177.655 220.75C177.575 220.58 177.385 220.27 177.245 220.12C179.005 219.78 180.115 219.11 180.685 217.83H177.935V217.18H180.915C180.995 216.88 181.065 216.55 181.105 216.19L181.875 216.25C181.825 216.58 181.755 216.9 181.685 217.18ZM180.035 213.3L179.885 213.44C180.325 213.99 180.955 214.42 181.725 214.75C182.665 214.37 183.485 213.89 184.075 213.3H180.035ZM184.775 212.62L185.225 212.93C184.625 213.83 183.695 214.52 182.595 215.06C183.635 215.38 184.875 215.56 186.205 215.64C186.055 215.81 185.885 216.1 185.795 216.31C184.265 216.18 182.875 215.91 181.715 215.43C180.385 215.95 178.885 216.25 177.435 216.43C177.385 216.24 177.255 215.95 177.135 215.78C178.405 215.66 179.715 215.42 180.895 215.04C180.315 214.72 179.815 214.33 179.405 213.86C179.005 214.19 178.545 214.49 178.035 214.78C177.935 214.61 177.735 214.35 177.575 214.23C178.975 213.52 179.965 212.49 180.475 211.62L181.255 211.78C181.065 212.07 180.855 212.37 180.615 212.66H184.645L184.775 212.62ZM188.585 217.56C189.435 217.56 190.115 218.24 190.115 219.08C190.115 219.93 189.435 220.61 188.585 220.61C187.755 220.61 187.065 219.93 187.065 219.08C187.065 218.24 187.755 217.56 188.585 217.56ZM188.585 220.1C189.155 220.1 189.605 219.65 189.605 219.08C189.605 218.53 189.155 218.07 188.585 218.07C188.035 218.07 187.575 218.53 187.575 219.08C187.575 219.65 188.035 220.1 188.585 220.1Z" fill="#222222"/>
<path d="M77.5632 42.7021L77.5635 42.7021C79.718 42.8118 80.9486 42.8982 81.6401 43.0484C81.9853 43.1234 82.206 43.2161 82.3398 43.3434C82.4772 43.4742 82.5158 43.6345 82.5158 43.8228C82.5158 43.9241 82.4583 44.0353 82.3674 44.1498C82.2751 44.266 82.1419 44.3938 81.9758 44.5293C81.6436 44.8006 81.1739 45.1082 80.6212 45.4227C79.5156 46.0518 78.0715 46.7121 76.7154 47.1682L76.7151 47.1682C75.5809 47.5438 74.7758 47.9565 74.2548 48.4352C73.736 48.9118 73.4979 49.4544 73.4979 50.0974C73.4979 50.7975 73.644 51.2471 73.9922 51.5258C74.3442 51.8074 74.9155 51.9257 75.7963 51.9257C76.6299 51.9257 77.9167 51.6145 79.096 51.1877C79.6848 50.9746 80.2448 50.7334 80.7058 50.4893C81.1684 50.2443 81.526 49.9991 81.7151 49.7797L81.7151 49.7797L81.716 49.7786C81.8769 49.6017 82.2043 49.3323 82.6014 49.0419C82.9997 48.7508 83.4717 48.4361 83.9242 48.1685L83.9242 48.1684L83.9254 48.1678C84.8238 47.6677 86.5857 46.446 87.8401 45.5051C90.1108 43.7978 92.1027 41.7516 93.1938 39.9437C93.7397 39.0392 94.0568 38.1997 94.0753 37.4951C94.0937 36.7951 93.8179 36.2272 93.1699 35.8536L93.1699 35.8536L93.168 35.8525C93.0761 35.7944 92.9773 35.729 92.8724 35.6596C92.5477 35.4446 92.1647 35.1912 91.747 34.997C91.196 34.7409 90.5959 34.594 90.0072 34.7758C89.7644 34.8659 89.4778 35.0859 89.1915 35.3965C88.9057 35.7066 88.6241 36.1027 88.3908 36.5381C88.3 36.7105 88.2175 36.8712 88.1406 37.021C87.9289 37.4332 87.76 37.7623 87.5774 38.0228C87.3252 38.3828 87.0441 38.6169 86.5862 38.7719C86.1324 38.9255 85.5057 39.0012 84.5635 39.0507C83.8586 39.0877 82.9735 39.1102 81.8474 39.1389C81.4667 39.1486 81.0585 39.159 80.6205 39.1708C78.8854 39.2179 77.5459 39.263 76.5124 39.3306C75.4781 39.3982 74.7536 39.4881 74.2469 39.6239C73.7404 39.7597 73.4602 39.939 73.3035 40.1788C73.1456 40.4203 73.1058 40.7335 73.1058 41.1561C73.1058 41.4767 73.1332 41.7139 73.2306 41.8968C73.3263 42.0766 73.4943 42.2118 73.7949 42.3168C74.0972 42.4224 74.5279 42.4955 75.141 42.5537C75.7534 42.6119 76.5437 42.655 77.5632 42.7021ZM93.1969 35.8068C93.1066 35.7497 93.0089 35.6851 92.9048 35.6162C92.1502 35.1167 91.0579 34.3938 89.9898 34.7246C89.4801 34.9128 88.8136 35.6344 88.3431 36.5129L93.1969 35.8068Z" fill="url(#paint0_linear_275_52)" stroke="url(#paint1_linear_275_52)" stroke-width="0.108097"/>
<path d="M39.8036 35.5783L39.8037 35.5782C40.1145 35.2518 40.5779 34.8548 41.0845 34.5476C41.5926 34.2394 42.136 34.0266 42.6094 34.0568C43.2152 34.1024 43.666 34.4218 44.0699 35.0156C44.4758 35.6121 44.83 36.4794 45.2419 37.6095L45.2454 37.6189L45.2519 37.6264L46.5747 39.1527L46.5908 39.1714H46.6155H53.0943C56.1131 39.2341 58.1701 39.2968 59.5311 39.3869C60.2117 39.432 60.7168 39.4838 61.0804 39.5456C61.4469 39.6079 61.6606 39.679 61.7669 39.757L61.7697 39.759L61.7697 39.7589C61.9537 39.8767 62.1023 40.0782 62.21 40.3252C62.3175 40.5717 62.3824 40.8596 62.4017 41.1445C62.4209 41.4295 62.3942 41.7087 62.3208 41.938C62.2473 42.1675 62.1294 42.3404 61.971 42.4256C61.9437 42.4376 61.878 42.4532 61.7701 42.4704C61.6629 42.4876 61.5205 42.5055 61.3466 42.5238C60.999 42.5605 60.5281 42.5986 59.9673 42.6359C58.8457 42.7103 57.3664 42.7809 55.7986 42.8279C55.7986 42.8279 55.7986 42.8279 55.7986 42.8279L55.8002 42.8819C50.3504 43.0388 50.1152 43.0702 49.9976 43.729L39.8036 35.5783ZM39.8036 35.5783C39.2991 36.1062 39.054 36.5484 39.054 37.1566C39.054 37.7717 39.3043 38.5623 39.8143 39.7865C40.4013 41.1642 41.0068 42.2994 41.8505 43.3596C42.6942 44.4199 43.778 45.4074 45.3236 46.4876C46.0467 46.9901 46.9091 47.5199 47.7273 48.0225L47.796 48.0647C48.6333 48.5792 49.4197 49.0641 49.9513 49.458L49.9515 49.4581C51.1636 50.3654 52.37 50.9553 53.1414 51.0792C54.2859 51.2057 55.51 51.617 60.3265 53.3404C60.5909 53.4275 61.206 53.6377 62.0328 53.9202C63.293 54.3509 65.0447 54.9495 66.7953 55.5363C70.3054 56.7131 73.3847 57.8822 75.7145 58.8987C76.8793 59.4069 77.8574 59.8772 78.6086 60.2916C79.3569 60.7042 79.8857 61.0644 80.1476 61.3539L81.9396 63.1095L82.0342 63.2022H81.9018H80.7335M39.8036 35.5783L80.7335 63.2022M80.7335 63.2022C80.5967 63.2422 80.3846 63.2531 80.1367 63.2507C79.8819 63.2482 79.5817 63.2315 79.2721 63.2139L79.248 63.2125C78.6333 63.1775 77.988 63.1407 77.569 63.2015C76.9007 63.3273 76.5218 63.4278 76.2739 63.6112C76.03 63.7916 75.9064 64.0578 75.7695 64.5426C75.662 64.9575 75.6271 65.2689 75.7073 65.5068C75.7856 65.7391 75.9785 65.9135 76.3618 66.0419C76.7467 66.1709 77.3139 66.25 78.1243 66.2966C78.9338 66.343 79.9812 66.3568 81.324 66.3568H81.3581H81.3921H81.426H81.4598H81.4934H81.5269H81.5602H81.5934H81.6265H81.6594H81.6922H81.7249H81.7574H81.7898H81.8221H81.8542H81.8862H81.9181H81.9499H81.9815H82.0129H82.0443H82.0755H82.1066H82.1375H82.1683H82.199H82.2296H82.26H82.2903H82.3205H82.3505H82.3804H82.4102H82.4399H82.4694H82.4988H82.5281H82.5572H82.5862H82.6151H82.6439H82.6725H82.7011H82.7295H82.7577H82.7859H82.8139H82.8418H82.8695H82.8972H82.9247H82.9521H82.9794H83.0066H83.0336H83.0605H83.0873H83.114H83.1405H83.1669H83.1932H83.2194H83.2455H83.2714H83.2973H83.323H83.3486H83.374H83.3994H83.4246H83.4497H83.4747H83.4996H83.5244H83.549H83.5736H83.598H83.6223H83.6465H83.6705H83.6945H83.7183H83.742H83.7656H83.7891H83.8125H83.8358H83.859H83.882H83.9049H83.9277H83.9505H83.973H83.9955H84.0179H84.0402H84.0623H84.0844H84.1063H84.1281H84.1498H84.1714H84.1929H84.2143H84.2356H84.2567H84.2778H84.2988H84.3196H84.3403H84.361H84.3815H84.4019H84.4222H84.4424H84.4625H84.4825H84.5024H84.5222H84.5419H84.5615H84.5809H84.6003H84.6196H84.6388H84.6578H84.6768H84.6956H84.7144H84.733H84.7516H84.7701H84.7884H84.8067H84.8248H84.8429H84.8608H84.8787H84.8964H84.9141H84.9316H84.9491H84.9664H84.9837H85.0009H85.0179H85.0349H85.0518H85.0686H85.0853H85.1018H85.1183H85.1347H85.151H85.1672H85.1833H85.1994H85.2153H85.2311H85.2469H85.2625H85.2781H85.2935H85.3089H85.3242H85.3393H85.3544H85.3694H85.3843H85.3992H85.4139H85.4285H85.4431H85.4575H85.4719H85.4862H85.5004H85.5145H85.5285H85.5424H85.5563H85.57H85.5837H85.5973H85.6108H85.6242H85.6375H85.6508H85.6639H85.677H85.69H85.7029H85.7157H85.7284H85.741H85.7536H85.7661H85.7785H85.7908H85.803H85.8152H85.8272H85.8392H85.8511H85.863H85.8747H85.8864H85.898H85.9095H85.9209H85.9322H85.9435H85.9547H85.9658H85.9768H85.9878H85.9987H86.0095H86.0202H86.0308H86.0414H86.0519H86.0623H86.0726H86.0829H86.0931H86.1032H86.1132H86.1232H86.1331H86.1429H86.1527H86.1623H86.1719H86.1815H86.1909H86.2003H86.2096H86.2188H86.228H86.2371H86.2461H86.2551H86.264H86.2728H86.2815H86.2902H86.2988H86.3074H86.3158H86.3242H86.3326H86.3408H86.349H86.3572H86.3652H86.3732H86.3812H86.389H86.3968H86.4046H86.4122H86.4198H86.4274H86.4348H86.4423H86.4496H86.4569H86.4641H86.4713H86.4784H86.4854H86.4924H86.4993H86.5061H86.5129H86.5196H86.5263H86.5329H86.5394H86.5459H86.5523H86.5587H86.565H86.5713H86.5774H86.5836H86.5896H86.5957H86.6016H86.6075H86.6133H86.6191H86.6249H86.6305H86.6361H86.6417H86.6472H86.6527H86.6581H86.6634H86.6687H86.6739H86.6791H86.6842H86.6893H86.6943H86.6993H86.7042H86.7091H86.7139H86.7186H86.7233H86.728H86.7326H86.7372H86.7417H86.7461H86.7505H86.7549H86.7592H86.7635H86.7677H86.7718H86.776H86.78H86.784H86.788H86.7919H86.7958H86.7997H86.8035H86.8072H86.8109H86.8145H86.8182H86.8217H86.8252H86.8287H86.8321H86.8355H86.8389H86.8422H86.8454H86.8486H86.8518H86.855H86.858H86.8611H86.8641H86.8671H86.87H86.8729H86.8757H86.8785H86.8813H86.884H86.8867H86.8894H86.892H86.8946H86.8971H86.8996H86.9021H86.9045H86.9069H86.9093H86.9116H86.9139H86.9161H86.9183H86.9205H86.9226H86.9247H86.9268H86.9289H86.9309H86.9328H86.9348H86.9367H86.9386H86.9404H86.9422H86.9436H86.944H86.9457H86.9474H86.9491H86.9508H86.9524H86.954H86.9556H86.9571H86.9586H86.9601H86.9615H86.963H86.9644H86.9657H86.9671H86.9684H86.9697H86.9709H86.9721H86.9733H86.9745H86.9757H86.9768H86.9779H86.979H86.98H86.9811H86.9821H86.9831H86.984H86.9849H86.9859H86.9867H86.9876H86.9885H86.9893H86.9901H86.9909H86.9916H86.9924H86.9931H86.9938H86.9945H86.9951H86.9958H86.9964H86.997H86.9976H86.9981H86.9987H86.9992H86.9997H87.0002H87.0007H87.0012H87.0016H87.002H87.0025H87.0029H87.0032H87.0036H87.004H87.0043H87.0046H87.0049H87.0052H87.0055H87.0058H87.0061H87.0063H87.0066H87.0068H87.007H87.0072H87.0074H87.0076H87.0077H87.0079H87.008H87.0082H87.0083H87.0084H87.0085H87.0087H87.0087H87.0088H87.0089H87.009H87.009H87.0091H87.0091H87.0092H87.0092H87.0093L87.0094 66.4107L87.0621 66.4006C87.1731 66.9783 87.3759 67.408 87.5939 67.8701C87.6809 68.0545 87.7704 68.244 87.8574 68.4502C88.1614 69.1707 88.425 70.0746 88.425 71.6294V71.6413L88.42 71.6521L87.058 74.5902L87.0435 74.6215H87.009H76.2271C73.2477 74.6215 70.4938 74.6529 68.4555 74.6999C67.4363 74.7235 66.5963 74.7509 65.9967 74.7803C65.6967 74.795 65.4574 74.8101 65.2861 74.8255C65.2003 74.8332 65.1323 74.8408 65.0824 74.8484C65.0575 74.8522 65.0378 74.8558 65.0231 74.8593C65.0184 74.8604 65.0143 74.8615 65.011 74.8624C65.0091 74.863 65.0074 74.8635 65.0059 74.864C65.0015 74.8654 64.9999 74.8662 65.0001 74.8661C64.8874 74.9262 64.6442 75.0903 64.4151 75.3244C64.1856 75.559 63.976 75.858 63.9199 76.1874L63.9199 76.1874L63.9194 76.1899C63.7829 76.8141 63.8401 77.1544 64.052 77.366C64.1599 77.4737 64.3126 77.5533 64.5147 77.6176C64.7166 77.6819 64.9637 77.7297 65.2572 77.7767C65.5871 77.8232 66.8371 77.8702 68.5828 77.9055C70.3271 77.9408 72.5615 77.9643 74.8548 77.9643H83.7156H85.8225H85.8551L85.8703 77.9932C85.9179 78.0836 85.9178 78.1825 85.8865 78.2823C85.8555 78.3811 85.7934 78.4836 85.7123 78.587C85.5501 78.7939 85.3024 79.0167 85.0389 79.2363C84.9197 79.3358 84.7981 79.4338 84.6789 79.53C84.5315 79.649 84.3877 79.765 84.2563 79.8771C84.1385 79.9776 84.0332 80.0729 83.9479 80.1611C83.8621 80.2497 83.7991 80.3287 83.7634 80.3964L83.7635 80.3965L83.7623 80.3985C83.6897 80.5229 83.5627 80.6673 83.3929 80.8265C83.2224 80.9863 83.0061 81.1633 82.7524 81.3528C82.245 81.7317 81.5853 82.1622 80.8369 82.6059C79.3402 83.4934 77.4853 84.4358 75.777 85.1271M80.7335 63.2022L51.3447 45.2513C51.7577 45.4716 52.1905 45.6763 52.56 45.8261C52.7448 45.901 52.9143 45.9624 53.058 46.0052C53.2004 46.0476 53.3219 46.0732 53.4086 46.0732C53.5278 46.0732 53.7412 46.1153 54.0314 46.1944C54.3195 46.273 54.6777 46.3866 55.0836 46.5261C55.8953 46.8051 56.8953 47.187 57.9018 47.5985C58.9083 48.01 59.9206 48.4508 60.757 48.8473C61.5952 49.2448 62.2515 49.5954 62.5499 49.8265L62.5505 49.8269C62.8895 50.0822 63.6007 50.4452 64.4679 50.8215C65.3369 51.1986 66.3676 51.5914 67.3495 51.9057C71.8568 53.3797 80.3222 56.7353 82.9457 58.0825C84.0584 58.6604 85.7802 59.8734 87.3038 61.0807C88.0651 61.6841 88.7758 62.2851 89.3351 62.8035C89.8957 63.3232 90.2984 63.7547 90.4509 64.021C90.5501 64.2114 90.669 64.4016 90.7833 64.5566C90.8955 64.709 91.0084 64.8344 91.0969 64.8879M75.777 85.1271C75.777 85.1271 75.7771 85.127 75.7771 85.127L75.7566 85.077L75.7768 85.1271C75.7769 85.1271 75.7769 85.1271 75.777 85.1271ZM75.777 85.1271C75.0722 85.4169 74.5087 85.6786 74.0725 85.9297C73.6359 86.1812 73.3301 86.4202 73.1378 86.6635C72.9467 86.9051 72.8672 87.1511 72.8829 87.4209C72.8987 87.693 73.0117 87.9942 73.2155 88.3438M73.2155 88.3438C73.3883 88.6355 73.59 88.8469 73.8419 88.9812C74.0939 89.1157 74.4009 89.1756 74.7884 89.1563C75.5665 89.1176 76.6561 88.7609 78.2443 88.0705L78.2446 88.0704C81.0652 86.8636 83.6699 85.5002 85.7058 84.2118C86.7239 83.5676 87.599 82.9425 88.2877 82.3656C88.9772 81.788 89.4765 81.2612 89.7464 80.814M73.2155 88.3438C73.2155 88.3437 73.2155 88.3436 73.2154 88.3435L73.1689 88.3711M73.2155 88.3438C73.2156 88.3438 73.2156 88.3438 73.2156 88.3439L73.1689 88.3711M89.7464 80.814C92.607 75.9538 93.5386 72.8005 92.9939 70.0293M89.7464 80.814C89.7463 80.8141 89.7462 80.8143 89.7461 80.8144L89.7927 80.8418L89.7464 80.8139C89.7464 80.8139 89.7464 80.814 89.7464 80.814ZM92.9939 70.0293C92.7985 69.0759 92.427 67.8552 92.0503 66.8374C91.862 66.3286 91.6727 65.8715 91.5041 65.5247C91.4197 65.3512 91.341 65.2062 91.2705 65.0964C91.1991 64.9852 91.1403 64.9167 91.0969 64.8879M92.9939 70.0293C92.9939 70.0293 92.9939 70.0294 92.9939 70.0294L93.0469 70.0186L92.9938 70.029C92.9938 70.0291 92.9939 70.0292 92.9939 70.0293ZM91.0969 64.8879C91.0966 64.8878 91.0964 64.8876 91.0961 64.8874L91.1257 64.8422L91.0979 64.8886C91.0976 64.8884 91.0972 64.8882 91.0969 64.8879ZM73.1689 88.3711C73.8746 89.5632 75.09 89.5005 78.2658 88.1201L73.1689 88.3711Z" fill="url(#paint2_linear_275_52)" stroke="url(#paint3_linear_275_52)" stroke-width="0.108097"/>
<path d="M41.7708 79.2436L41.7707 79.2434C39.5404 75.7368 38.8798 73.2717 39.3477 70.277C39.778 67.5852 40.2853 66.2448 41.4944 64.5594C44.1518 60.9008 49.747 57.2674 55.2274 55.6699C56.0887 55.4193 57.2198 55.2015 57.7215 55.2015H57.723C58.2791 55.1861 58.8665 55.3783 59.3144 55.6674C59.7657 55.9586 60.0591 56.3366 60.0591 56.6847C60.0591 56.8335 59.9756 57.0421 59.8312 57.2775C59.6884 57.5105 59.4911 57.7615 59.2748 57.9928C59.0586 58.2242 58.8249 58.4343 58.6099 58.5861C58.5024 58.662 58.4005 58.7226 58.3086 58.7641C58.2161 58.8059 58.1371 58.8267 58.0744 58.8267C58.0061 58.8267 57.8882 58.8549 57.7403 58.9012C57.5898 58.9483 57.401 59.0164 57.1871 59.101C56.7592 59.2702 56.2286 59.5061 55.698 59.7734C55.1897 60.0237 54.6522 60.2583 54.203 60.4302C53.9784 60.5162 53.7764 60.5862 53.6116 60.6347C53.4449 60.6838 53.3217 60.709 53.252 60.709C53.2091 60.709 53.1584 60.7205 53.1044 60.7386C53.0496 60.7569 52.9878 60.7831 52.9217 60.8151C52.7895 60.8791 52.6367 60.968 52.4823 61.0681C52.1742 61.268 51.8539 61.5166 51.6732 61.7093L51.6717 61.7109L51.6718 61.7109C51.5381 61.8654 51.4409 62.0041 51.388 62.1286C51.3348 62.2538 51.3239 62.3711 51.3739 62.4757C51.4229 62.5786 51.5251 62.6571 51.6698 62.719C51.8152 62.7813 52.0108 62.83 52.2583 62.8688C53.2163 63.0191 55.0043 63.0284 57.8438 63.0431L58.1134 63.0445C58.2604 63.0451 58.4045 63.0458 58.5458 63.0464C60.062 63.0531 61.2477 63.0584 62.1751 63.0817C63.1896 63.1072 63.8913 63.1542 64.3765 63.2474C64.8626 63.3408 65.1196 63.4783 65.2591 63.6747C65.4 63.8728 65.4305 64.1427 65.4305 64.5276C65.4305 64.9139 65.3628 65.2588 65.2394 65.5287C65.1158 65.7985 64.9382 65.9899 64.7195 66.0774L64.7176 66.0782C64.702 66.0852 64.6699 66.094 64.6177 66.1034C64.5669 66.1127 64.501 66.1219 64.4203 66.1311C64.2591 66.1494 64.0417 66.1671 63.7744 66.1839C63.2399 66.2177 62.5079 66.2481 61.6309 66.2736C59.877 66.3245 57.5447 66.3559 55.0555 66.3559H45.9987H45.972L45.9558 66.377L45.3297 67.1912C45.3295 67.1915 45.3292 67.1917 45.329 67.192C44.5926 68.0845 44.239 69.6127 44.2538 71.0222C44.2612 71.7284 44.361 72.4089 44.5539 72.9695C44.7463 73.5289 45.0339 73.9763 45.4223 74.2053L45.4226 74.2055C45.5375 74.2724 45.7105 74.3307 45.9283 74.381C46.1471 74.4316 46.4151 74.4751 46.7227 74.5105C47.3379 74.5814 48.1144 74.6207 48.9784 74.6207C49.7911 74.6207 50.4503 74.6461 50.982 74.709C51.5141 74.7719 51.9152 74.8719 52.2136 75.019C52.5105 75.1653 52.7057 75.3582 52.8278 75.6094C52.9508 75.8621 53.0019 76.1783 53.0019 76.5744C53.0019 76.8274 52.9991 77.0101 52.9631 77.1507C52.9285 77.2862 52.8634 77.3807 52.7343 77.4573C52.601 77.5364 52.3984 77.5969 52.0866 77.6551C51.7761 77.7131 51.3637 77.7678 50.8144 77.8384C50.2951 77.9011 49.8919 77.9542 49.5777 78.0109C49.2641 78.0675 49.0354 78.1283 48.8671 78.2079C48.6968 78.2884 48.5869 78.3888 48.5132 78.5234C48.4409 78.6554 48.4056 78.8165 48.3761 79.013C48.3761 79.0131 48.3761 79.0133 48.376 79.0134L48.4295 79.0214C48.3511 79.492 48.5079 80.1508 48.7431 80.4959L41.7708 79.2436ZM41.7708 79.2436C44.2324 83.1517 48.102 85.9061 53.7789 87.817L53.779 87.8171C56.3672 88.6957 59.9354 89.9507 65.5029 91.9585L65.5036 91.9588C65.8356 92.0838 66.1676 92.1932 66.4311 92.2712C66.5628 92.3103 66.677 92.3414 66.7653 92.3627C66.8562 92.3846 66.9134 92.3945 66.9352 92.3945C66.9482 92.3945 66.9644 92.397 66.9807 92.4002C66.998 92.4036 67.0193 92.4085 67.0439 92.4147C67.0933 92.4272 67.1583 92.4454 67.2367 92.4688C67.3937 92.5156 67.6063 92.5835 67.859 92.6679C68.3643 92.8367 69.0313 93.0721 69.7375 93.339L41.7708 79.2436Z" fill="url(#paint4_linear_275_52)" stroke="url(#paint5_linear_275_52)" stroke-width="0.108097"/>
<path d="M41.5716 100.263L41.5716 100.263L41.57 100.265C41.2998 100.574 40.9688 101.103 40.6458 101.71C40.3234 102.316 40.0106 102.996 39.7762 103.606C39.1494 105.267 39.0102 106.465 39.3489 107.243C39.6838 108.013 40.4978 108.395 41.843 108.395C42.4538 108.395 42.9584 108.16 43.3749 107.665C43.7934 107.169 44.1241 106.41 44.3782 105.362C44.6338 104.276 44.969 103.422 45.3808 102.811C45.793 102.199 46.2843 101.827 46.8511 101.714L46.8519 101.714C46.9835 101.689 47.2913 101.666 47.7313 101.643C48.173 101.621 48.7517 101.599 49.4283 101.579C50.7814 101.54 52.5265 101.509 54.35 101.493L54.3503 101.493C58.1164 101.477 60.2379 101.43 61.4183 101.223C62.009 101.12 62.3532 100.978 62.5506 100.789C62.7446 100.603 62.8047 100.364 62.8047 100.041C62.8047 99.6947 62.7421 99.4107 62.6062 99.1773C62.4705 98.9442 62.259 98.7567 61.9528 98.6075C61.3371 98.3072 60.3481 98.1659 58.858 98.1188C58.1313 98.1031 57.4144 98.0559 56.8445 97.997C56.5595 97.9675 56.3108 97.935 56.1156 97.9019C55.9228 97.8692 55.7763 97.8349 55.7003 97.8002L55.7003 97.8002L55.6984 97.7993C55.5012 97.6996 55.3912 97.56 55.3797 97.3895C55.3685 97.2234 55.4523 97.0441 55.603 96.8652C55.9053 96.5064 56.5028 96.118 57.3098 95.7873C58.6807 95.2231 59.5482 94.6247 59.8963 94.0447C60.0687 93.7574 60.1124 93.477 60.0299 93.2059C59.947 92.9328 59.7337 92.6612 59.3764 92.3984C58.9177 92.062 58.4012 91.9074 57.6222 91.9461C56.84 91.985 55.7966 92.2186 54.2873 92.6577C52.9171 93.065 51.1563 93.754 50.3762 94.1597C49.592 94.5676 48.2588 95.2578 47.396 95.6972C45.4014 96.7299 42.742 98.796 41.5716 100.263Z" fill="url(#paint6_linear_275_52)" stroke="url(#paint7_linear_275_52)" stroke-width="0.108097"/>
<path d="M76.2198 65.8536C76.2198 68.7043 73.9112 71.0128 71.0665 71.0128C68.2217 71.0128 65.9132 68.7043 65.9132 65.8536C65.9132 63.003 68.2217 60.6945 71.0665 60.6945C73.9112 60.6945 76.2198 63.003 76.2198 65.8536Z" fill="url(#paint8_linear_275_52)" stroke="url(#paint9_linear_275_52)" stroke-width="3.2429"/>
<path d="M64.4771 77.6063C64.4771 80.457 62.1686 82.7655 59.3238 82.7655C56.4791 82.7655 54.1705 80.457 54.1705 77.6063C54.1705 74.7557 56.4791 72.4471 59.3238 72.4471C62.1686 72.4471 64.4771 74.7557 64.4771 77.6063Z" fill="url(#paint10_linear_275_52)" stroke="url(#paint11_linear_275_52)" stroke-width="3.2429"/>
<path d="M71.7034 101.112C71.7034 103.963 69.3949 106.271 66.5501 106.271C63.7054 106.271 61.3968 103.963 61.3968 101.112C61.3968 98.2613 63.7054 95.9528 66.5501 95.9528C69.3949 95.9528 71.7034 98.2613 71.7034 101.112Z" fill="url(#paint12_linear_275_52)" stroke="url(#paint13_linear_275_52)" stroke-width="3.2429"/>
<path d="M71.7034 42.3485C71.7034 45.1992 69.3949 47.5077 66.5501 47.5077C63.7054 47.5077 61.3968 45.1992 61.3968 42.3485C61.3968 39.4978 63.7054 37.1893 66.5501 37.1893C69.3949 37.1893 71.7034 39.4978 71.7034 42.3485Z" fill="url(#paint14_linear_275_52)" stroke="url(#paint15_linear_275_52)" stroke-width="3.2429"/>
<defs>
<filter id="filter0_d_275_52" x="0.791444" y="0.641385" width="269.849" height="269.849" filterUnits="userSpaceOnUse" color-interpolation-filters="sRGB">
<feFlood flood-opacity="0" result="BackgroundImageFix"/>
<feColorMatrix in="SourceAlpha" type="matrix" values="0 0 0 0 0 0 0 0 0 0 0 0 0 0 0 0 0 0 127 0" result="hardAlpha"/>
<feMorphology radius="0.858298" operator="dilate" in="SourceAlpha" result="effect1_dropShadow_275_52"/>
<feOffset dy="3.43319"/>
<feGaussianBlur stdDeviation="2.66072"/>
<feComposite in2="hardAlpha" operator="out"/>
<feColorMatrix type="matrix" values="0 0 0 0 0.794815 0 0 0 0 0.857965 0 0 0 0 0.966667 0 0 0 1 0"/>
<feBlend mode="normal" in2="BackgroundImageFix" result="effect1_dropShadow_275_52"/>
<feBlend mode="normal" in="SourceGraphic" in2="effect1_dropShadow_275_52" result="shape"/>
</filter>
<linearGradient id="paint0_linear_275_52" x1="83.591" y1="34.6409" x2="83.591" y2="51.9797" gradientUnits="userSpaceOnUse">
<stop stop-color="#28BEE3"/>
<stop offset="0.95" stop-color="#337EFF"/>
</linearGradient>
<linearGradient id="paint1_linear_275_52" x1="83.591" y1="34.6409" x2="83.591" y2="51.9797" gradientUnits="userSpaceOnUse">
<stop stop-color="#28BEE3"/>
<stop offset="0.95" stop-color="#337EFF"/>
</linearGradient>
<linearGradient id="paint2_linear_275_52" x1="66.098" y1="33.9999" x2="66.098" y2="89.2139" gradientUnits="userSpaceOnUse">
<stop stop-color="#28BEE3"/>
<stop offset="0.95" stop-color="#337EFF"/>
</linearGradient>
<linearGradient id="paint3_linear_275_52" x1="66.098" y1="33.9999" x2="66.098" y2="89.2139" gradientUnits="userSpaceOnUse">
<stop stop-color="#28BEE3"/>
<stop offset="0.95" stop-color="#337EFF"/>
</linearGradient>
<linearGradient id="paint4_linear_275_52" x1="66.1085" y1="55.1466" x2="66.1085" y2="108.409" gradientUnits="userSpaceOnUse">
<stop stop-color="#28BEE3"/>
<stop offset="0.95" stop-color="#337EFF"/>
</linearGradient>
<linearGradient id="paint5_linear_275_52" x1="66.1085" y1="55.1466" x2="66.1085" y2="108.409" gradientUnits="userSpaceOnUse">
<stop stop-color="#28BEE3"/>
<stop offset="0.95" stop-color="#337EFF"/>
</linearGradient>
<linearGradient id="paint6_linear_275_52" x1="50.987" y1="91.8862" x2="50.987" y2="108.449" gradientUnits="userSpaceOnUse">
<stop stop-color="#28BEE3"/>
<stop offset="0.95" stop-color="#337EFF"/>
</linearGradient>
<linearGradient id="paint7_linear_275_52" x1="50.987" y1="91.8862" x2="50.987" y2="108.449" gradientUnits="userSpaceOnUse">
<stop stop-color="#28BEE3"/>
<stop offset="0.95" stop-color="#337EFF"/>
</linearGradient>
<linearGradient id="paint8_linear_275_52" x1="71.0665" y1="72.6343" x2="71.0665" y2="59.073" gradientUnits="userSpaceOnUse">
<stop stop-color="#28BEE3"/>
<stop offset="0.95" stop-color="#337EFF"/>
</linearGradient>
<linearGradient id="paint9_linear_275_52" x1="71.0665" y1="72.6343" x2="71.0665" y2="59.073" gradientUnits="userSpaceOnUse">
<stop stop-color="#28BEE3"/>
<stop offset="0.95" stop-color="#337EFF"/>
</linearGradient>
<linearGradient id="paint10_linear_275_52" x1="59.3238" y1="84.387" x2="59.3238" y2="70.8257" gradientUnits="userSpaceOnUse">
<stop stop-color="#28BEE3"/>
<stop offset="0.95" stop-color="#337EFF"/>
</linearGradient>
<linearGradient id="paint11_linear_275_52" x1="59.3238" y1="84.387" x2="59.3238" y2="70.8257" gradientUnits="userSpaceOnUse">
<stop stop-color="#28BEE3"/>
<stop offset="0.95" stop-color="#337EFF"/>
</linearGradient>
<linearGradient id="paint12_linear_275_52" x1="66.5501" y1="107.893" x2="66.5501" y2="94.3313" gradientUnits="userSpaceOnUse">
<stop stop-color="#28BEE3"/>
<stop offset="0.95" stop-color="#337EFF"/>
</linearGradient>
<linearGradient id="paint13_linear_275_52" x1="66.5501" y1="107.893" x2="66.5501" y2="94.3313" gradientUnits="userSpaceOnUse">
<stop stop-color="#28BEE3"/>
<stop offset="0.95" stop-color="#337EFF"/>
</linearGradient>
<linearGradient id="paint14_linear_275_52" x1="66.5501" y1="49.1291" x2="66.5501" y2="35.5679" gradientUnits="userSpaceOnUse">
<stop stop-color="#28BEE3"/>
<stop offset="0.95" stop-color="#337EFF"/>
</linearGradient>
<linearGradient id="paint15_linear_275_52" x1="66.5501" y1="49.1291" x2="66.5501" y2="35.5679" gradientUnits="userSpaceOnUse">
<stop stop-color="#28BEE3"/>
<stop offset="0.95" stop-color="#337EFF"/>
</linearGradient>
</defs>
</svg>
