<svg width="271" height="271" viewBox="0 0 271 271" fill="none" xmlns="http://www.w3.org/2000/svg">
<g filter="url(#filter0_d_275_50)">
<rect x="6.94263" y="3.44165" width="257.489" height="257.489" rx="4.29149" fill="white"/>
</g>
<path d="M38.8 142.464V144.352H40.4C40.128 143.92 39.68 143.376 39.312 142.96L40.288 142.464H38.8ZM40.992 144.352H42.112V145.904H33.824V144.352H37.04V142.464H34.4V140.864H37.04V139.36H34V137.696H41.856V139.36H38.8V140.864H41.504V142.464H40.624C41.056 142.912 41.568 143.504 41.824 143.888L40.992 144.352ZM33.2 146.832H42.672V136.816H33.2V146.832ZM31.264 135.072H44.704V149.392H42.672V148.592H33.2V149.392H31.264V135.072ZM60.944 140.464V142.32H49.808V142.72C49.808 144.704 49.504 147.712 48.032 149.584C47.712 149.216 46.864 148.464 46.432 148.224C47.696 146.592 47.808 144.304 47.808 142.672V140.464H51.104C50.832 139.872 50.384 139.104 49.968 138.512L51.328 137.92H47.68V136.112H53.184C52.992 135.68 52.72 135.232 52.464 134.864L54.432 134.384C54.832 134.896 55.232 135.584 55.44 136.112H60.608V137.92H51.728C52.208 138.56 52.752 139.376 52.992 139.952L51.856 140.464H55.568C56 139.76 56.48 138.704 56.752 137.936L58.88 138.592C58.432 139.248 57.968 139.904 57.568 140.464H60.944ZM64.272 147.744L62.464 146.8C63.2 145.584 63.792 143.808 64.064 142.176L65.872 142.72C65.536 144.368 65.024 146.4 64.272 147.744ZM68.032 139.712H66.144V138.192H62.976V136.368H66.144V134.432H68.032V136.368H71.936V134.432H73.84V136.368H77.072V138.192H73.84V139.728H71.936V138.192H68.032V139.712ZM68.72 139.904L70.368 139.104C71.248 140.336 72.208 141.968 72.56 143.088L70.752 144.016C70.464 142.912 69.568 141.184 68.72 139.904ZM69.28 147.248H71.664C72.4 147.248 72.528 146.96 72.624 145.104C73.008 145.408 73.872 145.728 74.4 145.856C74.144 148.4 73.6 149.088 71.808 149.088H69.088C66.976 149.088 66.432 148.496 66.432 146.576V141.696H68.352V146.56C68.352 147.168 68.496 147.248 69.28 147.248ZM73.936 142.592L75.744 142.064C76.496 143.616 77.216 145.6 77.408 146.912L75.44 147.52C75.28 146.24 74.64 144.192 73.936 142.592ZM92.368 140.384H82.608C82.608 141.072 82.592 141.744 82.544 142.432H90.464V149.408H88.368V144.432H82.304C81.952 146.288 81.28 148.048 79.888 149.504C79.6 149.008 78.864 148.272 78.4 147.936C80.384 145.792 80.608 142.848 80.608 140.16V134.784H82.608V138.416H86.528V134.464H88.592V138.416H92.368V140.384ZM104.992 142.16H99.152C99.856 143.344 100.832 144.352 102.08 145.136C103.296 144.368 104.288 143.376 104.992 142.16ZM106.432 140.224L107.76 141.008C106.928 143.168 105.632 144.832 103.968 146.112C105.52 146.736 107.36 147.184 109.472 147.408C109.056 147.856 108.512 148.736 108.272 149.28C105.776 148.928 103.712 148.304 101.984 147.36C100.064 148.368 97.824 149.008 95.424 149.392C95.264 148.896 94.768 147.984 94.4 147.568C96.528 147.296 98.48 146.832 100.16 146.128C98.96 145.152 97.984 143.936 97.168 142.464L98.032 142.16H95.936V140.288H100.96V138.432H95.152V136.544H100.96V134.448H102.944V136.544H108.784V138.432H102.944V140.288H106.096L106.432 140.224ZM115.44 141.232L115.68 142.944C115.184 143.088 114.688 143.248 114.176 143.376V147.28C114.176 148.16 114.016 148.624 113.52 148.928C113.056 149.232 112.352 149.296 111.328 149.28C111.28 148.816 111.072 148.032 110.832 147.52C111.424 147.552 111.968 147.552 112.16 147.536C112.352 147.536 112.432 147.472 112.432 147.264V143.888L110.784 144.368L110.368 142.544C110.944 142.4 111.648 142.224 112.432 142.032V139.232H110.624V137.472H112.432V134.464H114.176V137.472H115.536V139.232H114.176V141.584L115.44 141.232ZM116.8 145.024L118.304 144.176C118.96 144.976 119.76 146.112 120.096 146.896L118.48 147.824C118.192 147.04 117.44 145.872 116.8 145.024ZM125.488 141.12H123.616V142.384H125.376V144.112H123.616V147.376C123.616 148.336 123.44 148.8 122.816 149.088C122.224 149.36 121.392 149.392 120.24 149.392C120.16 148.864 119.92 148.112 119.696 147.6C120.416 147.632 121.248 147.632 121.504 147.616C121.728 147.616 121.808 147.568 121.808 147.344V144.112H115.92V142.384H121.808V141.12H115.776V139.392H119.744V138H116.464V136.272H119.744V134.528H121.552V136.272H124.768V138H121.552V139.392H125.488V141.12Z" fill="#222222"/>
<path opacity="0.8" d="M39.46 167.53V168.26H35.36V171.76H34.6V168.26H30.56V167.53H34.6V164.04H31.08V163.31H38.9V164.04H35.36V167.53H39.46ZM31.78 164.73L32.43 164.53C32.84 165.25 33.25 166.19 33.38 166.78L32.68 167.02C32.54 166.43 32.16 165.46 31.78 164.73ZM37.08 167.05L36.45 166.84C36.82 166.22 37.28 165.2 37.53 164.48L38.31 164.7C37.95 165.5 37.47 166.45 37.08 167.05ZM47.4 168.29H42.57V170.5H47.4V168.29ZM41.82 171.76V167.58H48.18V171.74H47.4V171.22H42.57V171.76H41.82ZM45.98 164.15L46.57 163.77C47.54 164.62 48.69 165.84 49.21 166.67L48.58 167.12C48.43 166.86 48.22 166.57 47.97 166.26C42.26 166.58 41.68 166.6 41.29 166.74C41.26 166.58 41.13 166.21 41.05 166.01C41.27 165.97 41.53 165.75 41.86 165.42C42.22 165.1 43.38 163.84 44.16 162.6L44.89 162.93C44.1 164.01 43.21 165.04 42.33 165.87L47.43 165.62C46.97 165.1 46.46 164.58 45.98 164.15ZM58.41 167H56.69C55.75 167 55.51 166.77 55.51 165.96V162.66H56.23V164.33C57.08 164.05 57.98 163.68 58.55 163.39L59.05 163.93C58.26 164.3 57.19 164.65 56.23 164.94V165.95C56.23 166.26 56.31 166.33 56.76 166.33H58.35C58.73 166.33 58.8 166.16 58.85 165.17C59 165.3 59.3 165.41 59.51 165.46C59.42 166.66 59.2 167 58.41 167ZM51.73 169.15H53.84V168.24H51.73V169.15ZM53.84 166.8H51.73V167.65H53.84V166.8ZM54.57 166.17V170.91C54.57 171.29 54.5 171.49 54.22 171.61C53.95 171.73 53.52 171.74 52.89 171.74C52.85 171.54 52.75 171.25 52.65 171.06C53.12 171.08 53.54 171.07 53.67 171.06C53.81 171.06 53.84 171.03 53.84 170.9V169.73H51.73V171.76H51.04V166.17H54.57ZM53.13 163.48L53.74 163.23C54.25 163.9 54.81 164.8 55.02 165.39L54.37 165.68C54.31 165.52 54.24 165.35 54.15 165.15C51.42 165.35 51.08 165.4 50.86 165.48C50.82 165.33 50.71 164.96 50.62 164.78C50.77 164.74 50.91 164.6 51.08 164.39C51.25 164.18 51.8 163.39 52.12 162.61L52.88 162.85C52.54 163.51 52.09 164.19 51.66 164.72L53.85 164.59C53.63 164.2 53.37 163.81 53.13 163.48ZM56.79 171.02H58.4C58.81 171.02 58.89 170.82 58.94 169.71C59.1 169.82 59.39 169.94 59.6 169.98C59.51 171.33 59.29 171.68 58.46 171.68H56.72C55.76 171.68 55.51 171.45 55.51 170.63V167.28H56.24V168.85C57.14 168.56 58.11 168.18 58.67 167.81L59.16 168.36C58.4 168.81 57.25 169.19 56.24 169.47V170.63C56.24 170.96 56.33 171.02 56.79 171.02ZM68.3 164.04H66.71C66.32 164.52 65.84 164.98 65.26 165.38C65.15 165.22 64.92 165.03 64.76 164.93C65.79 164.28 66.47 163.38 66.83 162.65L67.52 162.76C67.41 162.99 67.29 163.2 67.14 163.43H68.63L68.77 163.4L69.23 163.6C68.58 165.58 67.02 166.75 65.3 167.34C65.21 167.17 65.04 166.94 64.9 166.8C65.55 166.6 66.19 166.3 66.75 165.89C66.49 165.65 66.16 165.4 65.88 165.2L66.37 164.82C66.65 165 66.99 165.24 67.25 165.46C67.68 165.05 68.04 164.59 68.3 164.04ZM62.73 166.28H61.69V168.62H62.73V166.28ZM64.66 163.9V164.29C64.58 169.09 64.52 170.62 64.2 171.08C64.01 171.35 63.82 171.43 63.52 171.47C63.24 171.51 62.78 171.5 62.32 171.47C62.31 171.27 62.23 170.97 62.11 170.78C62.6 170.82 63.04 170.82 63.24 170.82C63.4 170.83 63.48 170.79 63.57 170.65C63.8 170.34 63.88 168.84 63.96 164.59H61.85C61.66 164.98 61.46 165.34 61.26 165.66H63.32V169.24H61.69V169.94H61.09V165.91C61.04 165.97 61 166.03 60.95 166.09C60.82 165.98 60.5 165.79 60.33 165.69C60.95 164.96 61.49 163.82 61.81 162.69L62.51 162.86C62.41 163.21 62.29 163.56 62.15 163.9H64.66ZM69.18 167.27L69.64 167.46C68.95 169.95 67.17 171.18 65 171.77C64.92 171.59 64.75 171.3 64.61 171.16C65.56 170.94 66.45 170.55 67.18 169.98C66.88 169.68 66.48 169.34 66.12 169.09L66.64 168.7C66.98 168.93 67.38 169.25 67.69 169.53C68.13 169.08 68.48 168.55 68.73 167.93H67.04C66.56 168.45 65.96 168.95 65.22 169.38C65.12 169.22 64.9 168.98 64.76 168.89C65.98 168.23 66.83 167.3 67.24 166.5L67.95 166.62C67.84 166.85 67.69 167.08 67.53 167.31H68.89V167.3H69.04L69.18 167.27ZM79.45 167.38L78.83 167.74C78.73 167.53 78.59 167.28 78.43 167.01C74.82 167.35 74.4 167.4 74.13 167.52C74.09 167.34 73.95 166.95 73.88 166.8C74.06 166.75 74.32 166.68 74.5 166.49C74.73 166.28 75.44 165.37 75.88 164.75H74.08V164.08H76.49C76.39 163.74 76.14 163.2 75.95 162.8L76.63 162.61C76.85 163.01 77.11 163.56 77.23 163.88L76.6 164.08H79.44V164.75H76.75C76.33 165.34 75.76 166.11 75.32 166.65L78.06 166.42C77.85 166.1 77.62 165.77 77.4 165.48L77.98 165.19C78.51 165.89 79.16 166.82 79.45 167.38ZM71.82 168.11L73.69 167.74C73.67 167.94 73.68 168.24 73.71 168.39C71.24 168.93 70.91 169.03 70.7 169.16C70.66 169.01 70.54 168.65 70.46 168.45C70.66 168.4 70.9 168.16 71.21 167.79C71.39 167.6 71.78 167.1 72.2 166.48C71.01 166.65 70.78 166.7 70.63 166.78C70.59 166.61 70.46 166.23 70.37 166.01C70.55 165.97 70.74 165.74 70.95 165.41C71.19 165.08 71.93 163.8 72.36 162.6L73.12 162.95C72.65 163.99 72.05 165.07 71.44 165.93L72.65 165.8C72.88 165.45 73.09 165.07 73.28 164.71L73.94 165.1C73.32 166.18 72.57 167.24 71.82 168.11ZM73.68 169.51L73.8 170.16C72.69 170.52 71.52 170.89 70.63 171.18L70.46 170.44C71.26 170.23 72.48 169.87 73.68 169.51ZM75.11 167.49H75.84C75.76 169.73 75.45 171 73.64 171.73C73.56 171.55 73.36 171.26 73.19 171.14C74.81 170.53 75.04 169.46 75.11 167.49ZM77.95 170.92H78.63C78.84 170.92 78.88 170.73 78.91 169.54C79.06 169.68 79.36 169.79 79.55 169.84C79.49 171.2 79.32 171.56 78.71 171.56H77.84C77.14 171.56 76.97 171.34 76.97 170.62V167.48H77.7V170.62C77.7 170.88 77.73 170.92 77.95 170.92ZM80.47 166.7H89.52V167.51H80.47V166.7ZM90.59 171.14L90.46 170.44C91.3 170.28 92.55 169.99 93.81 169.7L93.87 170.32C92.71 170.62 91.5 170.91 90.59 171.14ZM91.36 166L92.68 165.85C92.91 165.5 93.12 165.12 93.32 164.74L93.89 165.09C93.25 166.2 92.48 167.32 91.7 168.22L93.75 167.85C93.74 168.03 93.73 168.31 93.74 168.46C91.24 168.95 90.91 169.04 90.7 169.16C90.67 169.02 90.57 168.71 90.48 168.53C90.7 168.49 90.93 168.24 91.24 167.87C91.43 167.66 91.83 167.14 92.28 166.48C91.02 166.65 90.78 166.71 90.64 166.78C90.61 166.64 90.49 166.29 90.42 166.12C90.59 166.09 90.76 165.83 90.97 165.49C91.2 165.16 91.93 163.85 92.32 162.64L92.96 162.94C92.53 164.01 91.95 165.13 91.36 166ZM94.82 165.52V169.17C95.79 168.04 96.15 166.73 96.28 165.52H94.82ZM99.17 164.84V170.81C99.17 171.24 99.08 171.45 98.8 171.58C98.49 171.7 98 171.71 97.23 171.71C97.2 171.51 97.09 171.2 96.99 171C97.58 171.02 98.12 171.02 98.27 171.01C98.43 171 98.48 170.95 98.48 170.81V165.52H97C96.97 165.84 96.92 166.17 96.86 166.5C97.46 167.39 98.16 168.5 98.47 169.19L97.85 169.56C97.61 169 97.13 168.16 96.65 167.37C96.39 168.19 95.98 168.99 95.34 169.72C95.22 169.59 95.01 169.43 94.82 169.33V171.76H94.13V164.84H96.33C96.35 164.54 96.35 164.24 96.35 163.97V162.65H97.06V163.97C97.06 164.25 97.06 164.54 97.04 164.84H99.17ZM102.6 164.01H101.91C101.67 164.48 101.4 164.89 101.1 165.21C100.96 165.12 100.65 164.95 100.47 164.87C101.01 164.31 101.45 163.47 101.69 162.61L102.41 162.73C102.34 162.98 102.26 163.21 102.16 163.45H104.83V164.01H103.31C103.5 164.32 103.67 164.65 103.75 164.88L103.12 165.11C103.03 164.81 102.81 164.38 102.6 164.01ZM107.69 169.89H102.88V170.85H107.69V169.89ZM107.17 167.2H102.88V168.05H107.17V167.2ZM102.88 168.62V169.31H108.42V171.75H107.69V171.43H102.88V171.77H102.14V166.63H107.9V168.62H102.88ZM104.41 164.8L105.07 164.66C105.21 164.89 105.38 165.19 105.47 165.43H109.11V167.06H108.37V166.02H101.76V167.06H101.04V165.43H104.71C104.62 165.22 104.52 164.99 104.41 164.8ZM106.37 163.46H109.36V164.01H107.58C107.81 164.31 108.02 164.63 108.13 164.86L107.53 165.14C107.4 164.83 107.11 164.38 106.82 164.01H106.12C105.94 164.34 105.74 164.64 105.53 164.87C105.4 164.76 105.1 164.6 104.92 164.52C105.37 164.05 105.71 163.34 105.89 162.62L106.61 162.74C106.54 162.99 106.46 163.22 106.37 163.46ZM117.45 163.47L117.93 163.77C116.67 165.98 113.76 167.32 111.17 167.86C111.11 167.66 110.95 167.35 110.82 167.19C111.93 166.99 113.11 166.63 114.17 166.12C113.84 165.82 113.4 165.5 113 165.27L113.54 164.89C113.96 165.13 114.46 165.47 114.82 165.79C115.61 165.33 116.3 164.79 116.79 164.17H113.97C113.33 164.7 112.55 165.19 111.65 165.6C111.54 165.43 111.31 165.2 111.15 165.08C112.74 164.41 113.93 163.44 114.57 162.62L115.38 162.79C115.19 163.03 114.97 163.26 114.73 163.5H117.32L117.45 163.47ZM118.91 166.96L119.41 167.27C118.02 170.21 114.61 171.37 111.09 171.79C111.04 171.58 110.92 171.25 110.79 171.07C112.48 170.91 114.16 170.56 115.56 169.91C115.23 169.59 114.78 169.21 114.39 168.91L115 168.56C115.4 168.85 115.88 169.24 116.24 169.57C117.09 169.08 117.8 168.46 118.3 167.68H115.6C114.77 168.35 113.74 168.96 112.49 169.45C112.4 169.29 112.19 169.02 112.02 168.9C114.04 168.17 115.46 167.06 116.19 166.08L117.01 166.26C116.81 166.51 116.6 166.76 116.35 167H118.76L118.91 166.96ZM122.81 166.13V166.34C123.1 166.65 123.96 167.72 124.16 168L123.71 168.58C123.54 168.26 123.14 167.62 122.81 167.14V171.74H122.09V167.32C121.68 168.33 121.16 169.32 120.64 169.94C120.56 169.74 120.38 169.44 120.26 169.27C120.89 168.56 121.59 167.27 121.99 166.13H120.49V165.43H122.09V163.92C121.62 164.01 121.15 164.09 120.71 164.15C120.68 163.99 120.58 163.73 120.5 163.57C121.62 163.39 122.93 163.1 123.68 162.77L124.13 163.36C123.75 163.51 123.3 163.65 122.81 163.76V165.43H124.09V166.13H122.81ZM127.26 167.82H128.63V165.45H127.26V167.82ZM125.12 167.82H126.53V165.45H125.12V167.82ZM127.26 164.73H129.36V169.09H128.63V168.53H127.26V171.74H126.53V168.53H125.12V169.14H124.41V164.73H126.53V162.66H127.26V164.73ZM137.54 163.74H132.17V164.87H137.54V163.74ZM137.51 167.33H133.54C131.91 167.33 131.44 167.12 131.44 166.15V163.1H138.27V165.51H132.17V166.14C132.17 166.57 132.37 166.67 133.49 166.67H137.49C138.31 166.67 138.45 166.52 138.53 165.7C138.72 165.82 139.02 165.92 139.25 165.95C139.1 167.06 138.81 167.33 137.51 167.33ZM139.48 168.75V169.43H137.24V171.74H136.51V169.43H133.27C133.09 170.28 132.55 171.15 131.07 171.8C130.97 171.63 130.74 171.37 130.58 171.23C131.8 170.72 132.3 170.07 132.5 169.43H130.56V168.75H132.62C132.63 168.64 132.63 168.54 132.63 168.45V167.65H133.36V168.47C133.36 168.56 133.36 168.65 133.35 168.75H136.51V167.66H137.24V168.75H139.48ZM142.73 165.25V165.71C142.99 166.04 143.77 167.22 143.95 167.51L143.48 168.06C143.34 167.73 143.01 167.12 142.73 166.62V171.76H142.01V166.89C141.67 168 141.22 169.07 140.76 169.74C140.67 169.52 140.49 169.2 140.35 169.02C141 168.19 141.63 166.61 141.93 165.25H140.53V164.55H142.01V162.63H142.73V164.55H143.89V165.25H142.73ZM147.82 169.43L147.23 169.68C147.18 169.48 147.11 169.24 147.02 168.97C144.82 169.41 144.5 169.49 144.32 169.6C144.28 169.46 144.17 169.12 144.08 168.94C144.24 168.9 144.39 168.67 144.55 168.35C144.72 168.02 145.28 166.78 145.54 165.63L146.26 165.84C145.94 166.85 145.49 167.9 145.05 168.72L146.82 168.4C146.66 168 146.47 167.59 146.31 167.24L146.87 167.04C147.24 167.82 147.66 168.83 147.82 169.43ZM149.34 164.27V164.65C149.18 169.32 149.05 170.85 148.68 171.34C148.48 171.62 148.27 171.7 147.94 171.74C147.65 171.78 147.15 171.77 146.66 171.74C146.65 171.52 146.56 171.21 146.42 171C146.96 171.05 147.44 171.05 147.65 171.05C147.83 171.06 147.92 171.02 148.03 170.89C148.32 170.55 148.47 169.03 148.6 164.96H145.14C144.86 165.59 144.53 166.14 144.19 166.6C144.06 166.48 143.76 166.25 143.58 166.14C144.3 165.3 144.85 163.98 145.17 162.63L145.89 162.8C145.76 163.3 145.6 163.8 145.42 164.27H149.34ZM151.77 167.7H153.3V166.02H151.79V166.57C151.79 166.91 151.78 167.3 151.77 167.7ZM153.3 163.69H151.79V165.33H153.3V163.69ZM153.99 163V170.88C153.99 171.28 153.91 171.5 153.65 171.63C153.4 171.76 153 171.77 152.33 171.77C152.31 171.58 152.21 171.25 152.11 171.06C152.57 171.07 152.99 171.07 153.11 171.06C153.25 171.05 153.3 171.01 153.3 170.87V168.41H151.73C151.64 169.59 151.44 170.84 150.98 171.78C150.85 171.66 150.55 171.49 150.37 171.42C151.06 170.02 151.11 168.04 151.11 166.57V163H153.99ZM158.56 167.09H156.47C156.74 167.91 157.1 168.67 157.56 169.33C157.99 168.69 158.33 167.94 158.56 167.09ZM158.94 166.38L159.37 166.53C159.11 167.89 158.63 169.01 158 169.9C158.48 170.45 159.04 170.9 159.67 171.21C159.5 171.35 159.3 171.6 159.19 171.78C158.59 171.44 158.05 170.99 157.57 170.43C157.12 170.96 156.61 171.39 156.06 171.71C155.96 171.54 155.77 171.29 155.62 171.16C156.17 170.86 156.69 170.43 157.15 169.89C156.59 169.08 156.15 168.12 155.82 167.09H155.57V171.77H154.87V163.03H159.09V164.95C159.09 165.33 159 165.52 158.7 165.63C158.38 165.73 157.88 165.73 157.13 165.73C157.1 165.53 156.99 165.28 156.89 165.1C157.5 165.11 158.02 165.11 158.17 165.1C158.33 165.1 158.37 165.06 158.37 164.94V163.72H155.57V166.4H158.81L158.94 166.38ZM165.04 168.18H168.66C168.66 168.18 168.65 168.41 168.62 168.51C168.41 170.32 168.18 171.07 167.84 171.38C167.62 171.58 167.4 171.63 167.03 171.65C166.74 171.66 166.14 171.66 165.55 171.62C165.54 171.42 165.45 171.15 165.32 170.96C165.95 171.02 166.58 171.03 166.83 171.03C167.03 171.03 167.15 171.02 167.26 170.94C167.49 170.75 167.69 170.14 167.86 168.83H164.83C164.2 170.44 162.97 171.28 161.01 171.75C160.93 171.58 160.74 171.27 160.6 171.12C162.36 170.78 163.47 170.11 164.04 168.83H161.29V168.18H164.27C164.35 167.88 164.42 167.55 164.46 167.19L165.23 167.25C165.18 167.58 165.11 167.9 165.04 168.18ZM163.39 164.3L163.24 164.44C163.68 164.99 164.31 165.42 165.08 165.75C166.02 165.37 166.84 164.89 167.43 164.3H163.39ZM168.13 163.62L168.58 163.93C167.98 164.83 167.05 165.52 165.95 166.06C166.99 166.38 168.23 166.56 169.56 166.64C169.41 166.81 169.24 167.1 169.15 167.31C167.62 167.18 166.23 166.91 165.07 166.43C163.74 166.95 162.24 167.25 160.79 167.43C160.74 167.24 160.61 166.95 160.49 166.78C161.76 166.66 163.07 166.42 164.25 166.04C163.67 165.72 163.17 165.33 162.76 164.86C162.36 165.19 161.9 165.49 161.39 165.78C161.29 165.61 161.09 165.35 160.93 165.23C162.33 164.52 163.32 163.49 163.83 162.62L164.61 162.78C164.42 163.07 164.21 163.37 163.97 163.66H168L168.13 163.62ZM178.01 165.13V163.72H176.16V165.13H178.01ZM178.73 163.08V165.77H175.47V163.08H178.73ZM176.12 170.82H177.89V169.35H176.12V170.82ZM173.79 170.82V169.35H172.13V170.82H173.79ZM173.69 165.13V163.72H171.92V165.13H173.69ZM179.46 167.44H176.76C177.51 168.05 178.6 168.55 179.65 168.81C179.48 168.95 179.28 169.22 179.18 169.4C178.99 169.34 178.8 169.28 178.61 169.21V171.71H177.89V171.47H176.12V171.76H175.43V168.7H177.5C176.86 168.35 176.28 167.91 175.83 167.44H173.96C173.53 167.89 173.01 168.32 172.39 168.7H174.5V171.71H173.79V171.47H172.13V171.76H171.44V169.22C171.22 169.32 171 169.42 170.76 169.51C170.7 169.34 170.5 169.07 170.36 168.95C171.44 168.55 172.31 168.02 172.98 167.44H170.54V166.78H173.62C173.91 166.45 174.13 166.1 174.29 165.77H171.25V163.08H174.4V165.66L175.11 165.8C174.94 166.13 174.74 166.46 174.51 166.78H177.3C176.97 166.56 176.51 166.33 176.11 166.18L176.5 165.79C177.01 165.96 177.64 166.27 177.97 166.53L177.73 166.78H179.46V167.44ZM183.41 170.98L182.73 171.56C182.09 170.77 181.23 169.91 180.52 169.33L181.17 168.76C181.89 169.34 182.79 170.25 183.41 170.98ZM199.35 164.65H193.94C193.59 165.45 193.16 166.21 192.65 166.91V171.75H191.92V167.78C191.56 168.16 191.17 168.52 190.73 168.82C190.65 168.64 190.47 168.32 190.35 168.15C191.57 167.3 192.48 166.03 193.13 164.65H190.67V163.93H193.43C193.6 163.5 193.75 163.06 193.87 162.63L194.63 162.81C194.51 163.19 194.39 163.56 194.24 163.93H199.35V164.65ZM199.54 168.33V169.03H196.87V170.88C196.87 171.32 196.78 171.53 196.45 171.65C196.12 171.76 195.57 171.76 194.72 171.76C194.68 171.55 194.58 171.27 194.48 171.05C195.14 171.08 195.74 171.08 195.91 171.06C196.09 171.05 196.13 171.01 196.13 170.87V169.03H193.37V168.33H196.13V167.51C196.62 167.25 197.16 166.84 197.6 166.45H194.21V165.77H198.28L198.43 165.72L198.91 166.1C198.37 166.69 197.6 167.3 196.87 167.75V168.33H199.54ZM204.57 164.58L204.03 164.97C203.82 164.58 203.34 163.97 202.91 163.53L203.42 163.19C203.85 163.6 204.36 164.18 204.57 164.58ZM202.19 162.62L202.81 162.79C202.61 163.5 202.36 164.2 202.07 164.87V171.74H201.42V166.19C201.17 166.63 200.92 167.02 200.66 167.37C200.59 167.21 200.4 166.85 200.28 166.68C201.07 165.67 201.75 164.15 202.19 162.62ZM204.12 170.16L205.08 169.6C205.12 169.8 205.21 170.06 205.26 170.2C203.85 171.07 203.62 171.24 203.47 171.41C203.41 171.24 203.23 170.93 203.11 170.8C203.25 170.7 203.47 170.45 203.47 170.03V166.52H202.49V165.81H204.12V170.16ZM208.45 169V168H206.29V169H208.45ZM206.29 170.6H208.45V169.57H206.29V170.6ZM206.99 164.4V165.65H207.21C207.52 165.26 207.81 164.84 208.08 164.4H206.99ZM209.55 166.33H207.51C207.2 166.71 206.86 167.06 206.51 167.38H209.12V171.69H208.45V171.22H206.29V171.73H205.65V168.1C205.41 168.27 205.16 168.45 204.91 168.61C204.82 168.47 204.57 168.18 204.43 168.04C205.22 167.59 205.95 167.01 206.61 166.33H204.72V165.65H206.31V164.4H205.01V163.76H206.31V162.63H206.99V163.76H208.15V164.28C208.4 163.86 208.62 163.43 208.81 162.97L209.47 163.15C209.08 164.06 208.6 164.9 208.05 165.65H209.55V166.33ZM213.41 170.98L212.73 171.56C212.09 170.77 211.23 169.91 210.52 169.33L211.17 168.76C211.89 169.34 212.79 170.25 213.41 170.98ZM221.7 164.48V165.79H220.96V163.79H224.62C224.48 163.48 224.3 163.1 224.15 162.8L224.91 162.62C225.11 162.99 225.34 163.45 225.49 163.79H229.04V165.79H228.27V164.48H221.7ZM226.56 167.22H223.89C223.62 167.66 223.35 168.08 223.1 168.44C223.79 168.66 224.53 168.93 225.25 169.21C225.81 168.68 226.26 168.02 226.56 167.22ZM229.31 167.22H227.41C227.06 168.15 226.58 168.9 225.98 169.5C227.21 170.02 228.34 170.57 229.1 171.06L228.49 171.7C227.76 171.2 226.61 170.61 225.35 170.06C224.29 170.88 222.95 171.38 221.32 171.74C221.24 171.55 221.01 171.23 220.85 171.06C222.36 170.8 223.61 170.39 224.58 169.73C223.68 169.37 222.77 169.03 221.94 168.77L221.95 168.76C222.28 168.34 222.65 167.8 223.01 167.22H220.71V166.51H223.43C223.73 165.96 224.02 165.4 224.22 164.9L225.02 165.07C224.82 165.52 224.57 166.02 224.3 166.51H229.31V167.22ZM232.02 166.3H238.04C236.94 165.56 235.94 164.72 235 163.64C234.19 164.65 233.14 165.57 232.02 166.3ZM238.07 166.97H235.38V168.52H238.07V169.18H235.38V170.81H239.25V171.49H230.8V170.81H234.62V169.18H232.05V168.52H234.62V166.97H231.99V166.32C231.61 166.58 231.21 166.8 230.82 167C230.71 166.8 230.49 166.56 230.3 166.39C232.11 165.56 233.93 164.1 234.93 162.53L235.59 162.83C235.53 162.92 235.47 163.01 235.41 163.1C236.64 164.53 238.11 165.56 239.73 166.41C239.54 166.57 239.32 166.82 239.21 167.04C238.82 166.8 238.44 166.57 238.07 166.32V166.97ZM32.34 179.1H31.92C31.64 179.57 31.32 180 30.98 180.34C30.85 180.22 30.54 180.01 30.37 179.91C30.99 179.34 31.55 178.46 31.89 177.59L32.59 177.77C32.5 178.01 32.4 178.24 32.28 178.47H34.88V179.1H33.07C33.23 179.41 33.37 179.76 33.42 179.99L32.77 180.23C32.7 179.93 32.52 179.48 32.34 179.1ZM32.26 184.72L32.8 184.3C33.43 184.7 34.18 185.32 34.51 185.78L33.94 186.25C33.62 185.79 32.9 185.15 32.26 184.72ZM39.52 182.76H37.39V183.64H39.26V184.29H37.39V185.89C37.39 186.33 37.29 186.52 36.95 186.64C36.62 186.75 36.07 186.76 35.24 186.76C35.2 186.54 35.08 186.26 34.97 186.06C35.65 186.08 36.24 186.08 36.42 186.06C36.6 186.06 36.64 186.02 36.64 185.88V184.29H30.83V183.64H36.64V182.76H30.51V182.11H34.61V181.22H31.49V180.59H34.61V179.92C34.51 179.85 34.4 179.79 34.34 179.75C34.95 179.23 35.49 178.42 35.77 177.59L36.48 177.75C36.39 178 36.3 178.23 36.18 178.47H39.42V179.1H37.29C37.52 179.41 37.73 179.76 37.84 180.01L37.2 180.29C37.09 179.96 36.8 179.48 36.5 179.1H35.82C35.63 179.39 35.42 179.67 35.2 179.9H35.36V180.59H38.58V181.22H35.36V182.11H39.52V182.76ZM45.61 178.69V179.11C45.61 180.04 45.29 181.12 43.86 181.81C43.77 181.66 43.52 181.37 43.38 181.26C44.69 180.66 44.91 179.83 44.91 179.09V177.99H48.07V180.31C48.07 180.59 48.1 180.68 48.25 180.68H48.94C49.08 180.68 49.29 180.66 49.41 180.63C49.42 180.82 49.45 181.1 49.48 181.27C49.35 181.31 49.15 181.32 48.95 181.32H48.2C47.52 181.32 47.37 181.03 47.37 180.29V178.69H45.61ZM43.26 179.3L42.76 179.83C42.44 179.41 41.78 178.74 41.24 178.27L41.72 177.82C42.26 178.26 42.94 178.9 43.26 179.3ZM42.59 185.04L43.69 184.25C43.75 184.44 43.87 184.72 43.96 184.86C42.2 186.16 41.93 186.38 41.77 186.56C41.7 186.39 41.51 186.08 41.37 185.94C41.56 185.82 41.87 185.49 41.87 185.04V181.47H40.47V180.76H42.59V185.04ZM48.04 182.72H44.92C45.28 183.48 45.82 184.15 46.48 184.7C47.14 184.17 47.68 183.51 48.04 182.72ZM48.52 181.99L48.98 182.2C48.59 183.44 47.91 184.4 47.06 185.12C47.78 185.59 48.64 185.93 49.6 186.14C49.43 186.3 49.24 186.59 49.14 186.8C48.12 186.55 47.21 186.14 46.46 185.58C45.66 186.13 44.74 186.51 43.79 186.78C43.73 186.58 43.56 186.29 43.42 186.12C44.3 185.92 45.15 185.59 45.89 185.12C45.19 184.47 44.63 183.68 44.22 182.77L44.36 182.72H43.85V182.02H48.39L48.52 181.99ZM54.61 183.08H52.49V184.08H54.61V183.08ZM57.45 184.08V183.08H55.36V184.08H57.45ZM55.36 185.79H57.45V184.69H55.36V185.79ZM52.49 185.79H54.61V184.69H52.49V185.79ZM51.74 186.76V182.42H58.23V186.74H57.45V186.44H52.49V186.76H51.74ZM53.4 179.15L53.3 179.25C53.73 179.72 54.31 180.12 54.99 180.46C55.71 180.09 56.36 179.65 56.84 179.15H53.4ZM57.57 178.45L58.05 178.76C57.52 179.58 56.71 180.27 55.77 180.81C56.92 181.27 58.27 181.58 59.68 181.73C59.52 181.9 59.33 182.21 59.23 182.42C57.7 182.21 56.23 181.82 54.99 181.24C53.65 181.89 52.11 182.32 50.68 182.56C50.61 182.35 50.47 182.02 50.35 181.85C51.63 181.68 53 181.33 54.22 180.82C53.67 180.5 53.19 180.13 52.78 179.71C52.35 180.06 51.87 180.38 51.31 180.68C51.2 180.5 50.98 180.26 50.81 180.14C52.24 179.46 53.21 178.47 53.7 177.61L54.49 177.76C54.35 178.01 54.18 178.25 53.98 178.49H57.44L57.57 178.45ZM61.57 187.07L61.35 186.54C62.12 186.22 62.56 185.75 62.61 185.07C62.55 185.08 62.5 185.08 62.44 185.08C62.03 185.08 61.69 184.84 61.69 184.37C61.69 183.9 62.04 183.65 62.45 183.65C63 183.65 63.3 184.1 63.3 184.8C63.3 185.88 62.62 186.7 61.57 187.07ZM78.09 179.32V178.53H74.79V179.32H78.09ZM78.09 180.64V179.84H74.79V180.64H78.09ZM78.8 177.97V181.21H74.11V177.97H78.8ZM73.37 181.99L73.46 182.67C73.1 182.8 72.73 182.91 72.36 183.04V185.84C72.36 186.25 72.27 186.44 72.02 186.56C71.79 186.68 71.41 186.71 70.78 186.7C70.75 186.52 70.66 186.22 70.56 186.01C70.99 186.02 71.38 186.02 71.49 186.02C71.62 186.02 71.67 185.98 71.67 185.83V183.26C71.26 183.4 70.87 183.52 70.51 183.63L70.33 182.91C70.7 182.82 71.16 182.68 71.67 182.52V180.33H70.44V179.64H71.67V177.65H72.36V179.64H73.46V180.33H72.36V182.3L73.37 181.99ZM76.79 184.33V185.9C77.08 185.94 77.4 185.96 77.73 185.96C77.97 185.96 79.33 185.96 79.66 185.95C79.56 186.11 79.47 186.42 79.44 186.61H77.7C76.26 186.61 75.21 186.34 74.56 184.94C74.28 185.69 73.89 186.3 73.36 186.77C73.25 186.65 72.97 186.42 72.81 186.32C73.7 185.62 74.14 184.5 74.3 183.02L74.99 183.1C74.94 183.47 74.88 183.84 74.79 184.17C75.08 185.01 75.52 185.47 76.09 185.71V182.55H73.65V181.92H79.35V182.55H76.79V183.72H78.86V184.33H76.79ZM82.71 177.66L83.41 177.88C83.13 178.6 82.78 179.33 82.39 180.02V186.75H81.66V181.14C81.35 181.59 81.01 182 80.67 182.35C80.59 182.18 80.38 181.8 80.25 181.62C81.23 180.67 82.15 179.17 82.71 177.66ZM84.84 184.21L85.55 184.43C85.05 185.3 84.31 186.17 83.64 186.74C83.51 186.61 83.22 186.37 83.05 186.28C83.73 185.76 84.42 184.98 84.84 184.21ZM87.1 184.57L87.68 184.24C88.37 184.89 89.11 185.78 89.46 186.37L88.83 186.78C88.5 186.16 87.76 185.23 87.1 184.57ZM85.36 180.48V182.92H87.31V180.48H85.36ZM88.03 182.92H89.57V183.65H83.11V182.92H84.64V180.48H83.35V179.76H84.64V177.75H85.36V179.76H87.31V177.74H88.03V179.76H89.45V180.48H88.03V182.92ZM97.45 178.47L97.93 178.77C96.67 180.98 93.76 182.32 91.17 182.86C91.11 182.66 90.95 182.35 90.82 182.19C91.93 181.99 93.11 181.63 94.17 181.12C93.84 180.82 93.4 180.5 93 180.27L93.54 179.89C93.96 180.13 94.46 180.47 94.82 180.79C95.61 180.33 96.3 179.79 96.79 179.17H93.97C93.33 179.7 92.55 180.19 91.65 180.6C91.54 180.43 91.31 180.2 91.15 180.08C92.74 179.41 93.93 178.44 94.57 177.62L95.38 177.79C95.19 178.03 94.97 178.26 94.73 178.5H97.32L97.45 178.47ZM98.91 181.96L99.41 182.27C98.02 185.21 94.61 186.37 91.09 186.79C91.04 186.58 90.92 186.25 90.79 186.07C92.48 185.91 94.16 185.56 95.56 184.91C95.23 184.59 94.78 184.21 94.39 183.91L95 183.56C95.4 183.85 95.88 184.24 96.24 184.57C97.09 184.08 97.8 183.46 98.3 182.68H95.6C94.77 183.35 93.74 183.96 92.49 184.45C92.4 184.29 92.19 184.02 92.02 183.9C94.04 183.17 95.46 182.06 96.19 181.08L97.01 181.26C96.81 181.51 96.6 181.76 96.35 182H98.76L98.91 181.96ZM109.32 178.34V179.1H102.25V181.3C102.25 182.9 102.1 185.21 101.11 186.73C100.97 186.6 100.63 186.38 100.43 186.3C101.39 184.85 101.47 182.79 101.47 181.3V178.34H109.32ZM113.97 181.59L114.5 181.84C113.99 182.44 113.2 183.11 112.57 183.54C112.52 183.42 112.34 183.09 112.23 182.96C112.82 182.59 113.51 182.09 113.97 181.59ZM116.18 183.78H113.8V184.94H116.18V183.78ZM116.8 185.49H113.8V185.95H113.15V183.22H116.8V185.49ZM117.98 182.98L117.54 183.5C117.11 183.09 116.25 182.43 115.59 181.96L116.01 181.52C116.66 181.96 117.53 182.59 117.98 182.98ZM118.82 180.79V185.94C118.82 186.33 118.72 186.5 118.43 186.61C118.13 186.7 117.63 186.71 116.78 186.71C116.74 186.53 116.65 186.3 116.55 186.14C117.17 186.16 117.75 186.15 117.91 186.14C118.07 186.13 118.13 186.09 118.13 185.93V181.41H111.93V186.75H111.22V180.79H115.83C116.1 180.38 116.4 179.83 116.57 179.43L117.36 179.6C117.11 180.01 116.85 180.44 116.59 180.79H118.82ZM112.76 179.59L113.43 179.37C113.64 179.71 113.93 180.19 114.06 180.48L113.38 180.75C113.25 180.46 112.98 179.96 112.76 179.59ZM115.61 178.71H119.37V179.35H110.65V178.71H114.8C114.69 178.41 114.55 178.06 114.41 177.79L115.13 177.6C115.3 177.95 115.5 178.38 115.61 178.71ZM123.68 181.99V179.9H121.58V181.99H123.68ZM121.58 185.05H123.68V182.65H121.58V185.05ZM122.42 177.61L123.22 177.76C123.05 178.25 122.87 178.8 122.7 179.23H124.36V185.72H121.58V186.51H120.9V179.23H122.02C122.17 178.75 122.35 178.08 122.42 177.61ZM129.25 179.2V179.58C129.09 184.14 128.96 185.68 128.56 186.17C128.34 186.45 128.11 186.54 127.77 186.57C127.42 186.61 126.85 186.59 126.29 186.56C126.27 186.34 126.18 186.04 126.04 185.83C126.69 185.89 127.29 185.89 127.52 185.89C127.72 185.89 127.83 185.87 127.93 185.74C128.26 185.39 128.41 183.87 128.54 179.89H126C125.72 180.56 125.41 181.17 125.06 181.64C124.93 181.52 124.61 181.32 124.45 181.22C125.12 180.34 125.66 178.96 125.98 177.59L126.69 177.76C126.57 178.25 126.43 178.73 126.26 179.2H129.25ZM127.67 183.7L127.04 184.09C126.74 183.49 126.07 182.5 125.52 181.78L126.1 181.44C126.66 182.15 127.35 183.11 127.67 183.7ZM136.116 186.13C134.186 186.13 132.816 184.72 132.816 182.34C132.816 179.97 134.236 178.53 136.176 178.53C137.196 178.53 137.866 178.99 138.286 179.44L137.786 180.04C137.416 179.65 136.946 179.34 136.196 179.34C134.726 179.34 133.766 180.48 133.766 182.31C133.766 184.16 134.636 185.32 136.206 185.32C136.736 185.32 137.246 185.16 137.536 184.89V182.97H135.986V182.2H138.386V185.28C137.916 185.77 137.106 186.13 136.116 186.13ZM140.131 186V178.67H142.221C143.871 178.67 144.971 179.22 144.971 180.82C144.971 182.37 143.871 183.09 142.271 183.09H141.061V186H140.131ZM141.061 182.34H142.151C143.441 182.34 144.051 181.87 144.051 180.82C144.051 179.76 143.401 179.42 142.111 179.42H141.061V182.34ZM149.049 186.13C147.559 186.13 146.419 185.33 146.419 182.97V178.67H147.349V183C147.349 184.77 148.099 185.32 149.049 185.32C150.029 185.32 150.799 184.77 150.799 183V178.67H151.689V182.97C151.689 185.33 150.549 186.13 149.049 186.13ZM162.106 182.38L161.486 182.74C161.386 182.53 161.246 182.28 161.086 182.01C157.476 182.35 157.056 182.4 156.786 182.52C156.746 182.34 156.606 181.95 156.536 181.8C156.716 181.75 156.976 181.68 157.156 181.49C157.386 181.28 158.096 180.37 158.536 179.75H156.736V179.08H159.146C159.046 178.74 158.796 178.2 158.606 177.8L159.286 177.61C159.506 178.01 159.766 178.56 159.886 178.88L159.256 179.08H162.096V179.75H159.406C158.986 180.34 158.416 181.11 157.976 181.65L160.716 181.42C160.506 181.1 160.276 180.77 160.056 180.48L160.636 180.19C161.166 180.89 161.816 181.82 162.106 182.38ZM154.476 183.11L156.346 182.74C156.326 182.94 156.336 183.24 156.366 183.39C153.896 183.93 153.566 184.03 153.356 184.16C153.316 184.01 153.196 183.65 153.116 183.45C153.316 183.4 153.556 183.16 153.866 182.79C154.046 182.6 154.436 182.1 154.856 181.48C153.666 181.65 153.436 181.7 153.286 181.78C153.246 181.61 153.116 181.23 153.026 181.01C153.206 180.97 153.396 180.74 153.606 180.41C153.846 180.08 154.586 178.8 155.016 177.6L155.776 177.95C155.306 178.99 154.706 180.07 154.096 180.93L155.306 180.8C155.536 180.45 155.746 180.07 155.936 179.71L156.596 180.1C155.976 181.18 155.226 182.24 154.476 183.11ZM156.336 184.51L156.456 185.16C155.346 185.52 154.176 185.89 153.286 186.18L153.116 185.44C153.916 185.23 155.136 184.87 156.336 184.51ZM157.766 182.49H158.496C158.416 184.73 158.106 186 156.296 186.73C156.216 186.55 156.016 186.26 155.846 186.14C157.466 185.53 157.696 184.46 157.766 182.49ZM160.606 185.92H161.286C161.496 185.92 161.536 185.73 161.566 184.54C161.716 184.68 162.016 184.79 162.206 184.84C162.146 186.2 161.976 186.56 161.366 186.56H160.496C159.796 186.56 159.626 186.34 159.626 185.62V182.48H160.356V185.62C160.356 185.88 160.386 185.92 160.606 185.92ZM163.126 181.7H172.176V182.51H163.126V181.7ZM175.256 179.01H174.566C174.326 179.48 174.056 179.89 173.756 180.21C173.616 180.12 173.306 179.95 173.126 179.87C173.666 179.31 174.106 178.47 174.346 177.61L175.066 177.73C174.996 177.98 174.916 178.21 174.816 178.45H177.486V179.01H175.966C176.156 179.32 176.326 179.65 176.406 179.88L175.776 180.11C175.686 179.81 175.466 179.38 175.256 179.01ZM180.346 184.89H175.536V185.85H180.346V184.89ZM179.826 182.2H175.536V183.05H179.826V182.2ZM175.536 183.62V184.31H181.076V186.75H180.346V186.43H175.536V186.77H174.796V181.63H180.556V183.62H175.536ZM177.066 179.8L177.726 179.66C177.866 179.89 178.036 180.19 178.126 180.43H181.766V182.06H181.026V181.02H174.416V182.06H173.696V180.43H177.366C177.276 180.22 177.176 179.99 177.066 179.8ZM179.026 178.46H182.016V179.01H180.236C180.466 179.31 180.676 179.63 180.786 179.86L180.186 180.14C180.056 179.83 179.766 179.38 179.476 179.01H178.776C178.596 179.34 178.396 179.64 178.186 179.87C178.056 179.76 177.756 179.6 177.576 179.52C178.026 179.05 178.366 178.34 178.546 177.62L179.266 177.74C179.196 177.99 179.116 178.22 179.026 178.46ZM186.186 183.99L186.316 184.7C185.246 185.06 184.106 185.45 183.216 185.74L183.046 184.99C183.416 184.88 183.876 184.74 184.386 184.57V181.88H183.246V181.18H184.386V179.01H183.146V178.31H186.246V179.01H185.096V181.18H186.106V181.88H185.096V184.35L186.186 183.99ZM187.416 180.61V181.89H188.936V180.61H187.416ZM187.416 178.74V180H188.936V178.74H187.416ZM191.106 180V178.74H189.576V180H191.106ZM191.106 181.89V180.61H189.576V181.89H191.106ZM189.636 185.76H192.286V186.44H185.846V185.76H188.886V184.39H186.616V183.71H188.886V182.54H186.736V178.09H191.816V182.54H189.636V183.71H191.966V184.39H189.636V185.76ZM194.586 181.39H200.746C200.746 181.39 200.736 181.65 200.726 181.75C200.586 184.78 200.456 185.92 200.116 186.3C199.896 186.55 199.686 186.63 199.336 186.65C199.006 186.68 198.386 186.67 197.766 186.63C197.756 186.41 197.666 186.1 197.526 185.89C198.176 185.95 198.776 185.96 199.016 185.96C199.226 185.96 199.336 185.93 199.446 185.83C199.696 185.58 199.836 184.6 199.956 182.12H197.246C196.976 184.09 196.316 185.88 193.806 186.8C193.706 186.61 193.496 186.31 193.336 186.17C195.686 185.38 196.236 183.8 196.466 182.12H194.546V181.43C194.296 181.7 194.026 181.94 193.766 182.16C193.626 182.01 193.316 181.73 193.126 181.59C194.316 180.73 195.326 179.35 195.906 177.83L196.696 178.05C196.186 179.32 195.426 180.49 194.586 181.39ZM198.696 178.09L199.366 177.81C199.986 179.16 201.186 180.66 202.226 181.44C202.026 181.59 201.766 181.87 201.626 182.07C200.586 181.16 199.396 179.56 198.696 178.09ZM211.236 179.19L210.636 179.6C210.366 179.22 209.806 178.59 209.376 178.13L209.946 177.77C210.376 178.21 210.956 178.83 211.236 179.19ZM210.066 182.39H206.936C207.316 183.18 207.856 183.88 208.536 184.45C209.176 183.89 209.706 183.2 210.066 182.39ZM210.566 181.63L211.066 181.88C210.656 183.14 209.986 184.13 209.126 184.9C209.996 185.49 211.046 185.91 212.266 186.14C212.106 186.29 211.906 186.59 211.806 186.8C210.536 186.52 209.446 186.04 208.556 185.37C207.636 186.03 206.586 186.49 205.476 186.79C205.396 186.6 205.216 186.31 205.086 186.15C206.116 185.91 207.116 185.49 207.966 184.89C207.376 184.34 206.876 183.69 206.476 182.94C205.786 184.17 204.846 185.19 203.556 185.99C203.446 185.82 203.186 185.55 203.006 185.42C204.826 184.31 205.926 182.68 206.586 180.61H205.196C204.566 180.61 204.226 180.67 204.136 180.78C204.086 180.62 203.966 180.25 203.886 180.08C204.026 180.04 204.136 179.9 204.246 179.68C204.366 179.48 204.736 178.67 204.916 177.91L205.696 178.06C205.526 178.7 205.236 179.37 204.976 179.89H206.776C206.966 179.17 207.106 178.41 207.196 177.6L208.026 177.72C207.916 178.49 207.786 179.21 207.626 179.89H211.936L211.926 180.61H207.426C207.316 180.97 207.196 181.33 207.076 181.67H210.426L210.566 181.63ZM214.226 187.07L214.006 186.54C214.776 186.22 215.216 185.75 215.266 185.07C215.206 185.08 215.156 185.08 215.096 185.08C214.686 185.08 214.346 184.84 214.346 184.37C214.346 183.9 214.696 183.65 215.106 183.65C215.656 183.65 215.956 184.1 215.956 184.8C215.956 185.88 215.276 186.7 214.226 187.07ZM226.026 179.38L225.346 179.71C225.156 179.3 224.706 178.66 224.306 178.2L224.946 177.92C225.346 178.36 225.806 178.98 226.026 179.38ZM227.486 180.03H231.636C231.636 180.03 231.626 180.31 231.626 180.42C231.466 184.39 231.336 185.79 230.946 186.26C230.716 186.53 230.486 186.62 230.116 186.65C229.776 186.68 229.136 186.67 228.536 186.63C228.516 186.41 228.416 186.09 228.276 185.86C228.936 185.93 229.576 185.93 229.826 185.93C230.026 185.93 230.146 185.9 230.256 185.78C230.556 185.48 230.706 184.15 230.846 180.77H227.416C227.176 182.71 226.376 184.93 223.816 186.63C223.696 186.45 223.426 186.21 223.236 186.09C225.626 184.53 226.416 182.53 226.656 180.77H223.516V180.03H226.736C226.766 179.61 226.776 179.21 226.776 178.83V177.66H227.516V178.84C227.516 179.22 227.506 179.61 227.486 180.03ZM229.646 183.89L228.996 184.25C228.746 183.73 228.156 182.89 227.646 182.29L228.256 181.99C228.786 182.57 229.386 183.37 229.646 183.89ZM237.716 185.55H242.076V186.29H233.206V185.55H236.926V177.79H237.716V180.85H241.456V181.6H237.716V185.55ZM38.09 193.76H32.1V194.95H38.09V193.76ZM38.83 195.6H32.1V196.01C32.1 197.69 31.97 200.12 31.01 201.75C30.87 201.63 30.54 201.45 30.35 201.38C31.28 199.82 31.37 197.6 31.37 196.02V193.11H38.83V195.6ZM38.7 197.11H33.06V196.45H38.7V197.11ZM39.39 198.81H35.34C34.87 199.53 34.34 200.23 33.81 200.8L37.65 200.57C37.38 200.16 37.1 199.73 36.84 199.37L37.48 199.09C38.04 199.87 38.73 200.92 39.08 201.52L38.4 201.86C38.3 201.66 38.17 201.43 38.01 201.16C33.67 201.46 33.2 201.5 32.89 201.61C32.85 201.46 32.72 201.11 32.63 200.92C32.8 200.89 32.99 200.71 33.21 200.47C33.39 200.26 33.94 199.56 34.38 198.81H32.41V198.15H39.39V198.81ZM49.27 194.08H46.1C45.88 194.45 45.64 194.81 45.39 195.18V201.74H44.6V196.18C43.59 197.33 42.37 198.36 40.98 199.09C40.87 198.9 40.63 198.61 40.48 198.44C42.45 197.45 44.16 195.79 45.15 194.08H40.73V193.34H49.27V194.08ZM45.59 196.23L46.14 195.75C47.3 196.5 48.82 197.62 49.55 198.38L48.96 198.95C48.25 198.19 46.77 197.01 45.59 196.23ZM56.31 197.22H53.69V199.11H56.31V197.22ZM57.01 199.75H53.69V200.47H53V196.59H57.01V199.75ZM57.54 194.9V195.55H52.5V194.9H57.54ZM59.11 193.15V200.83C59.11 201.29 59 201.51 58.7 201.64C58.39 201.76 57.89 201.78 57.03 201.78C57 201.57 56.88 201.25 56.76 201.05C57.39 201.07 57.97 201.07 58.14 201.06C58.32 201.05 58.38 200.99 58.38 200.83V193.86H51.63V201.79H50.91V193.15H59.11ZM69.39 194.62H61.98V196.63C61.98 198.13 61.85 200.35 61.04 201.84C60.92 201.71 60.57 201.5 60.41 201.43C61.17 200.01 61.24 198.04 61.24 196.63V193.91H65.21C65.08 193.56 64.87 193.1 64.68 192.74L65.4 192.56C65.65 192.99 65.92 193.56 66.05 193.91H69.39V194.62ZM66.34 198.76L65.64 198.96C65.5 198.04 65.14 196.63 64.81 195.55L65.48 195.37C65.82 196.44 66.19 197.83 66.34 198.76ZM64.42 199.24L63.73 199.52C63.54 198.6 63.06 197.18 62.65 196.11L63.29 195.85C63.73 196.93 64.21 198.32 64.42 199.24ZM66.82 200.59H69.52V201.3H62.11V200.59H66.06C67.02 199.05 67.78 197.02 68.17 195.31L68.95 195.59C68.47 197.24 67.73 199.05 66.82 200.59ZM75.42 198.01H78.11V196.35H75.42V198.01ZM72.25 198.01H74.68V196.35H72.29V196.94C72.29 197.27 72.28 197.64 72.25 198.01ZM74.68 194.05H72.29V195.65H74.68V194.05ZM78.11 195.65V194.05H75.42V195.65H78.11ZM78.84 193.34V200.76C78.84 201.24 78.71 201.46 78.39 201.59C78.05 201.71 77.47 201.72 76.53 201.71C76.5 201.51 76.38 201.19 76.28 200.99C76.98 201.02 77.66 201.01 77.84 201.01C78.04 201 78.11 200.94 78.11 200.75V198.72H75.42V201.67H74.68V198.72H72.18C72.03 199.83 71.69 200.97 70.93 201.82C70.82 201.67 70.52 201.42 70.36 201.33C71.46 200.09 71.56 198.33 71.56 196.94V193.34H78.84ZM88.09 194.32V193.53H84.79V194.32H88.09ZM88.09 195.64V194.84H84.79V195.64H88.09ZM88.8 192.97V196.21H84.11V192.97H88.8ZM83.37 196.99L83.46 197.67C83.1 197.8 82.73 197.91 82.36 198.04V200.84C82.36 201.25 82.27 201.44 82.02 201.56C81.79 201.68 81.41 201.71 80.78 201.7C80.75 201.52 80.66 201.22 80.56 201.01C80.99 201.02 81.38 201.02 81.49 201.02C81.62 201.02 81.67 200.98 81.67 200.83V198.26C81.26 198.4 80.87 198.52 80.51 198.63L80.33 197.91C80.7 197.82 81.16 197.68 81.67 197.52V195.33H80.44V194.64H81.67V192.65H82.36V194.64H83.46V195.33H82.36V197.3L83.37 196.99ZM86.79 199.33V200.9C87.08 200.94 87.4 200.96 87.73 200.96C87.97 200.96 89.33 200.96 89.66 200.95C89.56 201.11 89.47 201.42 89.44 201.61H87.7C86.26 201.61 85.21 201.34 84.56 199.94C84.28 200.69 83.89 201.3 83.36 201.77C83.25 201.65 82.97 201.42 82.81 201.32C83.7 200.62 84.14 199.5 84.3 198.02L84.99 198.1C84.94 198.47 84.88 198.84 84.79 199.17C85.08 200.01 85.52 200.47 86.09 200.71V197.55H83.65V196.92H89.35V197.55H86.79V198.72H88.86V199.33H86.79ZM92.71 192.66L93.41 192.88C93.13 193.6 92.78 194.33 92.39 195.02V201.75H91.66V196.14C91.35 196.59 91.01 197 90.67 197.35C90.59 197.18 90.38 196.8 90.25 196.62C91.23 195.67 92.15 194.17 92.71 192.66ZM94.84 199.21L95.55 199.43C95.05 200.3 94.31 201.17 93.64 201.74C93.51 201.61 93.22 201.37 93.05 201.28C93.73 200.76 94.42 199.98 94.84 199.21ZM97.1 199.57L97.68 199.24C98.37 199.89 99.11 200.78 99.46 201.37L98.83 201.78C98.5 201.16 97.76 200.23 97.1 199.57ZM95.36 195.48V197.92H97.31V195.48H95.36ZM98.03 197.92H99.57V198.65H93.11V197.92H94.64V195.48H93.35V194.76H94.64V192.75H95.36V194.76H97.31V192.74H98.03V194.76H99.45V195.48H98.03V197.92ZM106.48 200.81H105.79V200.17H103.27V199.69H105.79V199.17H103.81V198.72H105.79V198.22H103.63V197.76H105.79V197.18H106.48V197.76H108.56V198.22H106.48V198.72H108.39V199.17H106.48V199.69H108.96V200.17H106.48V200.81ZM104.92 195.43L104.84 195.51C105.18 195.79 105.64 196.05 106.18 196.25C106.66 196.03 107.08 195.75 107.4 195.43H104.92ZM107.98 194.9L108.39 195.13C108.03 195.68 107.51 196.12 106.89 196.48C107.71 196.73 108.65 196.88 109.6 196.96C109.46 197.1 109.28 197.35 109.21 197.53C108.14 197.41 107.09 197.19 106.19 196.84C105.24 197.26 104.13 197.53 103.04 197.69C102.99 197.53 102.85 197.3 102.74 197.17C103.69 197.06 104.65 196.85 105.5 196.55C105.1 196.34 104.73 196.11 104.43 195.84C104.13 196.08 103.78 196.3 103.39 196.51C103.29 196.36 103.1 196.14 102.97 196.06C104 195.57 104.75 194.87 105.15 194.27L105.81 194.4C105.69 194.58 105.56 194.75 105.4 194.93H107.86L107.98 194.9ZM102.91 194.68V193.94H100.6V193.31H102.91V192.64H103.64V193.31H106.32V192.64H107.05V193.31H109.41V193.94H107.05V194.67H106.32V193.94H103.64V194.68H102.91ZM102.71 196.15L102.09 196.52C101.81 196.11 101.24 195.44 100.79 194.96L101.37 194.64C101.83 195.11 102.41 195.74 102.71 196.15ZM102.56 197.39V200.1C102.8 200.17 103.04 200.37 103.44 200.59C104.08 200.92 104.93 200.99 106 200.99C107.11 200.99 108.59 200.93 109.56 200.83C109.48 201.01 109.37 201.32 109.36 201.51C108.59 201.56 106.92 201.61 105.98 201.61C104.84 201.61 103.98 201.5 103.3 201.14C102.88 200.91 102.57 200.64 102.33 200.64C101.97 200.64 101.44 201.14 100.91 201.72L100.43 201.14C100.92 200.7 101.42 200.32 101.87 200.16V198.03H100.62V197.39H102.56ZM111.3 195.8V196.66H110.67V195.17H112.66V194.26H110.74V193.63H112.66V192.67H113.37V193.63H115.25V194.26H113.37V195.17H115.33V196.66H114.67V195.8H111.3ZM115.39 198.94L113.33 199.2V200.81C113.33 201.2 113.26 201.39 112.97 201.51C112.68 201.62 112.25 201.63 111.6 201.63C111.56 201.42 111.46 201.14 111.35 200.94C111.87 200.96 112.31 200.96 112.45 200.95C112.59 200.94 112.62 200.91 112.62 200.8V199.29L110.58 199.54L110.49 198.86C111.07 198.8 111.81 198.72 112.62 198.62V197.93C112.94 197.75 113.3 197.5 113.6 197.26H111.31V196.67H114.26L114.42 196.63L114.87 196.98C114.45 197.41 113.87 197.83 113.33 198.15V198.54L115.38 198.31L115.39 198.94ZM119.27 194.92V195.29C119.16 199.45 119.06 200.85 118.74 201.27C118.56 201.52 118.36 201.6 118.06 201.64C117.76 201.67 117.27 201.65 116.79 201.63C116.78 201.42 116.7 201.14 116.58 200.94C117.09 200.98 117.57 200.99 117.75 200.99C117.92 200.99 118.02 200.96 118.12 200.83C118.35 200.54 118.47 199.24 118.56 195.62H117.31C117.2 198.25 116.77 200.43 115.16 201.78C115.05 201.61 114.81 201.36 114.62 201.25C116.13 200.06 116.51 198.04 116.63 195.62H115.58V194.92H116.65C116.67 194.22 116.67 193.47 116.67 192.72H117.36C117.36 193.47 117.36 194.22 117.34 194.92H119.27ZM123.68 196.99V194.9H121.58V196.99H123.68ZM121.58 200.05H123.68V197.65H121.58V200.05ZM122.42 192.61L123.22 192.76C123.05 193.25 122.87 193.8 122.7 194.23H124.36V200.72H121.58V201.51H120.9V194.23H122.02C122.17 193.75 122.35 193.08 122.42 192.61ZM129.25 194.2V194.58C129.09 199.14 128.96 200.68 128.56 201.17C128.34 201.45 128.11 201.54 127.77 201.57C127.42 201.61 126.85 201.59 126.29 201.56C126.27 201.34 126.18 201.04 126.04 200.83C126.69 200.89 127.29 200.89 127.52 200.89C127.72 200.89 127.83 200.87 127.93 200.74C128.26 200.39 128.41 198.87 128.54 194.89H126C125.72 195.56 125.41 196.17 125.06 196.64C124.93 196.52 124.61 196.32 124.45 196.22C125.12 195.34 125.66 193.96 125.98 192.59L126.69 192.76C126.57 193.25 126.43 193.73 126.26 194.2H129.25ZM127.67 198.7L127.04 199.09C126.74 198.49 126.07 197.5 125.52 196.78L126.1 196.44C126.66 197.15 127.35 198.11 127.67 198.7ZM133.86 199.46H136.41V198.6H133.87V199.25C133.87 199.32 133.87 199.39 133.86 199.46ZM132.53 197.5V198.1H137.63V197.5H132.53ZM132.53 196.45V197.02H137.63V196.45H132.53ZM132.53 195.39V195.97H137.63V195.39H132.53ZM136.62 193.99H135.82C135.58 194.33 135.31 194.65 135.05 194.89H137.29C137.15 194.64 136.89 194.28 136.62 193.99ZM139.45 199.46V200.08H137.16V201.75H136.41V200.08H133.72C133.47 200.7 132.82 201.31 131.22 201.78C131.12 201.61 130.92 201.36 130.76 201.22C132 200.91 132.61 200.49 132.89 200.08H130.6V199.46H133.13C133.14 199.38 133.14 199.31 133.14 199.25V198.6H131.8V194.89H132.88C132.78 194.65 132.59 194.28 132.39 193.99H131.88C131.6 194.4 131.3 194.77 131 195.06C130.86 194.95 130.57 194.74 130.39 194.66C131 194.15 131.55 193.37 131.86 192.6L132.54 192.78C132.45 192.98 132.35 193.18 132.25 193.38H134.87V193.99H133.16C133.32 194.23 133.47 194.49 133.54 194.68L133 194.89H134.96C134.79 194.77 134.53 194.63 134.36 194.56C134.97 194.08 135.48 193.35 135.75 192.6L136.46 192.76C136.38 192.97 136.29 193.18 136.18 193.38H139.36V193.99H137.46C137.66 194.21 137.83 194.46 137.93 194.65L137.4 194.89H138.39V198.6H137.16V199.46H139.45ZM144.88 194.81H149.04C149.04 194.81 149.03 195.09 149.02 195.2C148.8 199.3 148.59 200.79 148.15 201.29C147.92 201.57 147.68 201.65 147.3 201.69C146.95 201.72 146.31 201.7 145.7 201.66C145.69 201.44 145.6 201.12 145.45 200.9C146.13 200.96 146.77 200.97 147.02 200.97C147.23 200.97 147.36 200.94 147.48 200.82C147.84 200.48 148.06 199.07 148.25 195.55H144.84C144.7 197.62 144.04 200.04 141.14 201.81C141.02 201.63 140.75 201.34 140.57 201.22C143.28 199.61 143.92 197.42 144.07 195.55H140.87V194.81H144.11C144.11 194.66 144.11 194.52 144.11 194.38V192.65H144.88V194.38C144.88 194.52 144.88 194.66 144.88 194.81ZM157.28 197.15H152.88C153.38 198.09 154.1 198.87 155.04 199.48C155.99 198.88 156.76 198.12 157.28 197.15ZM157.85 196.39L158.36 196.71C157.79 198.07 156.88 199.1 155.73 199.88C156.82 200.44 158.11 200.82 159.6 201C159.44 201.18 159.24 201.5 159.14 201.72C157.53 201.47 156.14 201.02 155.01 200.34C153.77 201.03 152.32 201.48 150.81 201.77C150.74 201.57 150.54 201.23 150.4 201.06C151.82 200.83 153.17 200.46 154.33 199.88C153.38 199.19 152.64 198.31 152.1 197.23L152.32 197.15H151.26V196.42H154.6V194.89H150.81V194.16H154.6V192.64H155.36V194.16H159.17V194.89H155.36V196.42H157.7L157.85 196.39ZM164.17 194.49V195.51H163.5V193.93H164.67C164.53 193.66 164.3 193.29 164.08 193.02L164.69 192.77C164.95 193.08 165.23 193.48 165.35 193.74L164.95 193.93H166.05V192.64H166.76V193.93H168.02L167.53 193.74C167.73 193.48 167.98 193.08 168.11 192.8L168.83 193.05C168.58 193.38 168.34 193.69 168.13 193.93H169.33V195.51H168.64V194.49H164.17ZM165.02 195.5V196.24H167.72V195.5H165.02ZM168.4 196.73H164.38V195H168.4V196.73ZM163.35 196.83L163.46 197.52C163.09 197.64 162.7 197.77 162.33 197.89V200.89C162.33 201.3 162.24 201.5 161.98 201.62C161.75 201.75 161.37 201.77 160.74 201.77C160.71 201.57 160.62 201.27 160.52 201.07C160.95 201.08 161.34 201.08 161.45 201.07C161.58 201.07 161.63 201.03 161.63 200.89V198.12L160.5 198.49L160.31 197.77C160.67 197.66 161.13 197.53 161.63 197.38V195.33H160.43V194.64H161.63V192.65H162.33V194.64H163.28V195.33H162.33V197.15L163.35 196.83ZM169.58 199.58V200.12H166.81V201.01C166.81 201.41 166.7 201.56 166.4 201.66C166.1 201.76 165.61 201.76 164.83 201.76C164.78 201.57 164.67 201.34 164.57 201.17C165.16 201.19 165.72 201.19 165.87 201.18C166.04 201.17 166.08 201.13 166.08 201V200.12H163.25V199.58H166.08V198.93H163.6V198.39H166.08V197.8C165.35 197.84 164.6 197.87 163.92 197.87C163.9 197.73 163.83 197.51 163.77 197.37C165.39 197.33 167.4 197.21 168.48 197L168.92 197.48C168.34 197.6 167.59 197.68 166.81 197.74V198.39H169.16V198.93H166.81V199.58H169.58ZM171.94 198.56C172.79 198.56 173.47 199.24 173.47 200.08C173.47 200.93 172.79 201.61 171.94 201.61C171.11 201.61 170.42 200.93 170.42 200.08C170.42 199.24 171.11 198.56 171.94 198.56ZM171.94 201.1C172.51 201.1 172.96 200.65 172.96 200.08C172.96 199.53 172.51 199.07 171.94 199.07C171.39 199.07 170.93 199.53 170.93 200.08C170.93 200.65 171.39 201.1 171.94 201.1Z" fill="#222222"/>
<g filter="url(#filter1_d_275_50)">
<path d="M42 71.5806V82.1027C42 83.5248 43.1528 84.6776 44.5749 84.6776H56.1271C57.5492 84.6776 58.702 83.5248 58.702 82.1027V77.9161C58.702 76.494 57.5492 75.3412 56.1271 75.3412H55.3616C53.9395 75.3412 52.7867 74.1883 52.7867 72.7663V71.5806C52.7867 70.1585 51.6339 69.0057 50.2118 69.0057H44.5749C43.1528 69.0057 42 70.1585 42 71.5806Z" fill="url(#paint0_linear_275_50)"/>
<path d="M72.3072 75.3412H63.7126C62.2905 75.3412 61.1377 76.494 61.1377 77.9161V82.1027C61.1377 83.5248 62.2905 84.6776 63.7126 84.6776H72.3072C73.7293 84.6776 74.8821 83.5248 74.8821 82.1027V77.9161C74.8821 76.494 73.7293 75.3412 72.3072 75.3412Z" fill="url(#paint1_linear_275_50)"/>
<path d="M80.4842 75.3412H79.5447C78.1227 75.3412 76.9698 76.494 76.9698 77.9161V82.1027C76.9698 83.5248 78.1227 84.6776 79.5447 84.6776H90.923C92.3451 84.6776 93.4979 83.5248 93.4979 82.1027V71.5806C93.4979 70.1585 92.3451 69.0057 90.923 69.0057H85.634C84.2119 69.0057 83.0591 70.1585 83.0591 71.5806V72.7663C83.0591 74.1883 81.9063 75.3412 80.4842 75.3412Z" fill="url(#paint2_linear_275_50)"/>
<path d="M56.1271 35.6611H44.5749C43.1528 35.6611 42 36.814 42 38.236V49.7585C42 51.1806 43.1528 52.3334 44.5749 52.3334H50.2118C51.6339 52.3334 52.7867 51.1806 52.7867 49.7585V48.9063C52.7867 47.4842 53.9395 46.3314 55.3616 46.3314H56.1271C57.5492 46.3314 58.702 45.1786 58.702 43.7565V38.236C58.702 36.814 57.5492 35.6611 56.1271 35.6611Z" fill="url(#paint3_linear_275_50)"/>
<path d="M50.2118 54.1674H44.5749C43.1528 54.1674 42 55.3202 42 56.7423V63.93C42 65.352 43.1528 66.5049 44.5749 66.5049H50.2118C51.6339 66.5049 52.7867 65.352 52.7867 63.93V56.7423C52.7867 55.3202 51.6339 54.1674 50.2118 54.1674Z" fill="url(#paint4_linear_275_50)"/>
<path d="M72.3072 46.3314H63.7126C62.2905 46.3314 61.1377 45.1786 61.1377 43.7565V38.236C61.1377 36.814 62.2905 35.6611 63.7126 35.6611H72.3072C73.7293 35.6611 74.8821 36.814 74.8821 38.236V43.7565C74.8821 45.1786 73.7293 46.3314 72.3072 46.3314Z" fill="url(#paint5_linear_275_50)"/>
<path d="M80.4842 46.3314H79.5447C78.1227 46.3314 76.9698 45.1786 76.9698 43.7565V38.236C76.9698 36.814 78.1227 35.6611 79.5447 35.6611H90.923C92.3451 35.6611 93.4979 36.814 93.4979 38.236V49.7585C93.4979 51.1806 92.3451 52.3334 90.923 52.3334H85.634C84.2119 52.3334 83.0591 51.1806 83.0591 49.7585V48.9063C83.0591 47.4842 81.9063 46.3314 80.4842 46.3314Z" fill="url(#paint6_linear_275_50)"/>
<path d="M90.923 54.1674H85.634C84.2119 54.1674 83.0591 55.3202 83.0591 56.7423V63.93C83.0591 65.352 84.2119 66.5049 85.634 66.5049H90.923C92.3451 66.5049 93.4979 65.352 93.4979 63.93V56.7423C93.4979 55.3202 92.3451 54.1674 90.923 54.1674Z" fill="url(#paint7_linear_275_50)"/>
<path d="M78.3965 47.8319H57.2754C55.8533 47.8319 54.7005 48.9847 54.7005 50.4068V70.4321C54.7005 71.8542 55.8533 73.007 57.2754 73.007H78.3965C79.8186 73.007 80.9714 71.8542 80.9714 70.4322V50.4068C80.9714 48.9847 79.8186 47.8319 78.3965 47.8319Z" fill="url(#paint8_linear_275_50)"/>
<path d="M42 71.5806V82.1027C42 83.5248 43.1528 84.6776 44.5749 84.6776H56.1271C57.5492 84.6776 58.702 83.5248 58.702 82.1027V77.9161C58.702 76.494 57.5492 75.3412 56.1271 75.3412H55.3616C53.9395 75.3412 52.7867 74.1883 52.7867 72.7663V71.5806C52.7867 70.1585 51.6339 69.0057 50.2118 69.0057H44.5749C43.1528 69.0057 42 70.1585 42 71.5806Z" stroke="url(#paint9_linear_275_50)" stroke-width="0.858298"/>
<path d="M72.3072 75.3412H63.7126C62.2905 75.3412 61.1377 76.494 61.1377 77.9161V82.1027C61.1377 83.5248 62.2905 84.6776 63.7126 84.6776H72.3072C73.7293 84.6776 74.8821 83.5248 74.8821 82.1027V77.9161C74.8821 76.494 73.7293 75.3412 72.3072 75.3412Z" stroke="url(#paint10_linear_275_50)" stroke-width="0.858298"/>
<path d="M80.4842 75.3412H79.5447C78.1227 75.3412 76.9698 76.494 76.9698 77.9161V82.1027C76.9698 83.5248 78.1227 84.6776 79.5447 84.6776H90.923C92.3451 84.6776 93.4979 83.5248 93.4979 82.1027V71.5806C93.4979 70.1585 92.3451 69.0057 90.923 69.0057H85.634C84.2119 69.0057 83.0591 70.1585 83.0591 71.5806V72.7663C83.0591 74.1883 81.9063 75.3412 80.4842 75.3412Z" stroke="url(#paint11_linear_275_50)" stroke-width="0.858298"/>
<path d="M56.1271 35.6611H44.5749C43.1528 35.6611 42 36.814 42 38.236V49.7585C42 51.1806 43.1528 52.3334 44.5749 52.3334H50.2118C51.6339 52.3334 52.7867 51.1806 52.7867 49.7585V48.9063C52.7867 47.4842 53.9395 46.3314 55.3616 46.3314H56.1271C57.5492 46.3314 58.702 45.1786 58.702 43.7565V38.236C58.702 36.814 57.5492 35.6611 56.1271 35.6611Z" stroke="url(#paint12_linear_275_50)" stroke-width="0.858298"/>
<path d="M50.2118 54.1674H44.5749C43.1528 54.1674 42 55.3202 42 56.7423V63.93C42 65.352 43.1528 66.5049 44.5749 66.5049H50.2118C51.6339 66.5049 52.7867 65.352 52.7867 63.93V56.7423C52.7867 55.3202 51.6339 54.1674 50.2118 54.1674Z" stroke="url(#paint13_linear_275_50)" stroke-width="0.858298"/>
<path d="M72.3072 46.3314H63.7126C62.2905 46.3314 61.1377 45.1786 61.1377 43.7565V38.236C61.1377 36.814 62.2905 35.6611 63.7126 35.6611H72.3072C73.7293 35.6611 74.8821 36.814 74.8821 38.236V43.7565C74.8821 45.1786 73.7293 46.3314 72.3072 46.3314Z" stroke="url(#paint14_linear_275_50)" stroke-width="0.858298"/>
<path d="M80.4842 46.3314H79.5447C78.1227 46.3314 76.9698 45.1786 76.9698 43.7565V38.236C76.9698 36.814 78.1227 35.6611 79.5447 35.6611H90.923C92.3451 35.6611 93.4979 36.814 93.4979 38.236V49.7585C93.4979 51.1806 92.3451 52.3334 90.923 52.3334H85.634C84.2119 52.3334 83.0591 51.1806 83.0591 49.7585V48.9063C83.0591 47.4842 81.9063 46.3314 80.4842 46.3314Z" stroke="url(#paint15_linear_275_50)" stroke-width="0.858298"/>
<path d="M90.923 54.1674H85.634C84.2119 54.1674 83.0591 55.3202 83.0591 56.7423V63.93C83.0591 65.352 84.2119 66.5049 85.634 66.5049H90.923C92.3451 66.5049 93.4979 65.352 93.4979 63.93V56.7423C93.4979 55.3202 92.3451 54.1674 90.923 54.1674Z" stroke="url(#paint16_linear_275_50)" stroke-width="0.858298"/>
<path d="M78.3965 47.8319H57.2754C55.8533 47.8319 54.7005 48.9847 54.7005 50.4068V70.4321C54.7005 71.8542 55.8533 73.007 57.2754 73.007H78.3965C79.8186 73.007 80.9714 71.8542 80.9714 70.4322V50.4068C80.9714 48.9847 79.8186 47.8319 78.3965 47.8319Z" stroke="url(#paint17_linear_275_50)" stroke-width="0.858298"/>
<rect x="61.2187" y="54.0966" width="13.0606" height="12.48" rx="1.28745" fill="#FFFBFB" stroke="url(#paint18_linear_275_50)" stroke-width="0.858298"/>
<path d="M48.5304 26.9907C48.5304 26.1473 47.8073 25.4291 46.8718 25.4291C45.9362 25.4291 45.2131 26.1473 45.2131 26.9907C45.2131 27.8341 45.9362 28.5523 46.8718 28.5523C47.8073 28.5523 48.5304 27.8341 48.5304 26.9907Z" fill="url(#paint19_linear_275_50)" stroke="url(#paint20_linear_275_50)" stroke-width="0.858298"/>
<path d="M46.8721 35.6609V28.3248" stroke="url(#paint21_linear_275_50)" stroke-width="1.7166"/>
<path d="M56.8813 26.9907C56.8813 26.1473 56.1581 25.4291 55.2226 25.4291C54.287 25.4291 53.5639 26.1473 53.5639 26.9907C53.5639 27.8341 54.287 28.5523 55.2226 28.5523C56.1581 28.5523 56.8813 27.8341 56.8813 26.9907Z" fill="url(#paint22_linear_275_50)" stroke="url(#paint23_linear_275_50)" stroke-width="0.858298"/>
<path d="M55.2229 35.6609V28.3248" stroke="url(#paint24_linear_275_50)" stroke-width="1.7166"/>
<path d="M65.2326 26.9907C65.2326 26.1473 64.5095 25.4291 63.5739 25.4291C62.6384 25.4291 61.9152 26.1473 61.9152 26.9907C61.9152 27.8341 62.6384 28.5523 63.5739 28.5523C64.5095 28.5523 65.2326 27.8341 65.2326 26.9907Z" fill="url(#paint25_linear_275_50)" stroke="url(#paint26_linear_275_50)" stroke-width="0.858298"/>
<path d="M63.5737 35.6609V28.3248" stroke="url(#paint27_linear_275_50)" stroke-width="1.7166"/>
<path d="M73.5839 26.9907C73.5839 26.1473 72.8608 25.4291 71.9252 25.4291C70.9897 25.4291 70.2666 26.1473 70.2666 26.9907C70.2666 27.8341 70.9897 28.5523 71.9252 28.5523C72.8608 28.5523 73.5839 27.8341 73.5839 26.9907Z" fill="url(#paint28_linear_275_50)" stroke="url(#paint29_linear_275_50)" stroke-width="0.858298"/>
<path d="M71.925 35.6609V28.3248" stroke="url(#paint30_linear_275_50)" stroke-width="1.7166"/>
<path d="M81.9345 26.9907C81.9345 26.1473 81.2114 25.4291 80.2758 25.4291C79.3403 25.4291 78.6171 26.1473 78.6171 26.9907C78.6171 27.8341 79.3403 28.5523 80.2758 28.5523C81.2114 28.5523 81.9345 27.8341 81.9345 26.9907Z" fill="url(#paint31_linear_275_50)" stroke="url(#paint32_linear_275_50)" stroke-width="0.858298"/>
<path d="M80.2759 35.6609V28.3248" stroke="url(#paint33_linear_275_50)" stroke-width="1.7166"/>
<path d="M90.2851 26.9907C90.2851 26.1473 89.562 25.4291 88.6264 25.4291C87.6909 25.4291 86.9677 26.1473 86.9677 26.9907C86.9677 27.8341 87.6909 28.5523 88.6264 28.5523C89.562 28.5523 90.2851 27.8341 90.2851 26.9907Z" fill="url(#paint34_linear_275_50)" stroke="url(#paint35_linear_275_50)" stroke-width="0.858298"/>
<path d="M88.6265 35.6609V28.3248" stroke="url(#paint36_linear_275_50)" stroke-width="1.7166"/>
<path d="M90.2848 39.5989C90.2848 40.4423 89.5617 41.1605 88.6262 41.1605C87.6906 41.1605 86.9675 40.4423 86.9675 39.5989C86.9675 38.7555 87.6906 38.0373 88.6262 38.0373C89.5617 38.0373 90.2848 38.7555 90.2848 39.5989Z" fill="white" stroke="url(#paint37_linear_275_50)" stroke-width="0.858298"/>
<path d="M90.2848 81.4031C90.2848 82.2465 89.5617 82.9647 88.6262 82.9647C87.6906 82.9647 86.9675 82.2465 86.9675 81.4031C86.9675 80.5597 87.6906 79.8415 88.6262 79.8415C89.5617 79.8415 90.2848 80.5597 90.2848 81.4031Z" fill="white" stroke="url(#paint38_linear_275_50)" stroke-width="0.858298"/>
<path d="M48.5302 81.4031C48.5302 82.2465 47.8071 82.9647 46.8715 82.9647C45.936 82.9647 45.2128 82.2465 45.2128 81.4031C45.2128 80.5597 45.936 79.8415 46.8715 79.8415C47.8071 79.8415 48.5302 80.5597 48.5302 81.4031Z" fill="white" stroke="url(#paint39_linear_275_50)" stroke-width="0.858298"/>
<path d="M48.5304 93.3909C48.5304 94.2343 47.8073 94.9525 46.8718 94.9525C45.9362 94.9525 45.2131 94.2343 45.2131 93.3909C45.2131 92.5475 45.9362 91.8293 46.8718 91.8293C47.8073 91.8293 48.5304 92.5475 48.5304 93.3909Z" fill="url(#paint40_linear_275_50)" stroke="url(#paint41_linear_275_50)" stroke-width="0.858298"/>
<path d="M46.8721 84.7212V92.0573" stroke="url(#paint42_linear_275_50)" stroke-width="1.7166"/>
<path d="M56.8813 93.3909C56.8813 94.2343 56.1581 94.9525 55.2226 94.9525C54.287 94.9525 53.5639 94.2343 53.5639 93.3909C53.5639 92.5475 54.287 91.8293 55.2226 91.8293C56.1581 91.8293 56.8813 92.5475 56.8813 93.3909Z" fill="url(#paint43_linear_275_50)" stroke="url(#paint44_linear_275_50)" stroke-width="0.858298"/>
<path d="M55.2229 84.7212V92.0573" stroke="url(#paint45_linear_275_50)" stroke-width="1.7166"/>
<path d="M65.2326 93.3909C65.2326 94.2343 64.5095 94.9525 63.5739 94.9525C62.6384 94.9525 61.9152 94.2343 61.9152 93.3909C61.9152 92.5475 62.6384 91.8293 63.5739 91.8293C64.5095 91.8293 65.2326 92.5475 65.2326 93.3909Z" fill="url(#paint46_linear_275_50)" stroke="url(#paint47_linear_275_50)" stroke-width="0.858298"/>
<path d="M63.5737 84.7212V92.0573" stroke="url(#paint48_linear_275_50)" stroke-width="1.7166"/>
<path d="M73.5839 93.3909C73.5839 94.2343 72.8608 94.9525 71.9252 94.9525C70.9897 94.9525 70.2666 94.2343 70.2666 93.3909C70.2666 92.5475 70.9897 91.8293 71.9252 91.8293C72.8608 91.8293 73.5839 92.5475 73.5839 93.3909Z" fill="url(#paint49_linear_275_50)" stroke="url(#paint50_linear_275_50)" stroke-width="0.858298"/>
<path d="M71.925 84.7212V92.0573" stroke="url(#paint51_linear_275_50)" stroke-width="1.7166"/>
<path d="M81.9345 93.3909C81.9345 94.2343 81.2114 94.9525 80.2758 94.9525C79.3403 94.9525 78.6171 94.2343 78.6171 93.3909C78.6171 92.5475 79.3403 91.8293 80.2758 91.8293C81.2114 91.8293 81.9345 92.5475 81.9345 93.3909Z" fill="url(#paint52_linear_275_50)" stroke="url(#paint53_linear_275_50)" stroke-width="0.858298"/>
<path d="M80.2759 84.7212V92.0573" stroke="url(#paint54_linear_275_50)" stroke-width="1.7166"/>
<path d="M90.2851 93.3909C90.2851 94.2343 89.562 94.9525 88.6264 94.9525C87.6909 94.9525 86.9677 94.2343 86.9677 93.3909C86.9677 92.5475 87.6909 91.8293 88.6264 91.8293C89.562 91.8293 90.2851 92.5475 90.2851 93.3909Z" fill="url(#paint55_linear_275_50)" stroke="url(#paint56_linear_275_50)" stroke-width="0.858298"/>
<path d="M88.6265 84.7212V92.0573" stroke="url(#paint57_linear_275_50)" stroke-width="1.7166"/>
<path d="M48.3215 39.866C48.3215 40.7094 47.5983 41.4276 46.6628 41.4276C45.7272 41.4276 45.0041 40.7094 45.0041 39.866C45.0041 39.0226 45.7272 38.3044 46.6628 38.3044C47.5983 38.3044 48.3215 39.0226 48.3215 39.866Z" fill="white" stroke="url(#paint58_linear_275_50)" stroke-width="0.858298"/>
</g>
<defs>
<filter id="filter0_d_275_50" x="0.76288" y="0.695096" width="269.849" height="269.849" filterUnits="userSpaceOnUse" color-interpolation-filters="sRGB">
<feFlood flood-opacity="0" result="BackgroundImageFix"/>
<feColorMatrix in="SourceAlpha" type="matrix" values="0 0 0 0 0 0 0 0 0 0 0 0 0 0 0 0 0 0 127 0" result="hardAlpha"/>
<feMorphology radius="0.858298" operator="dilate" in="SourceAlpha" result="effect1_dropShadow_275_50"/>
<feOffset dy="3.43319"/>
<feGaussianBlur stdDeviation="2.66072"/>
<feComposite in2="hardAlpha" operator="out"/>
<feColorMatrix type="matrix" values="0 0 0 0 0.794815 0 0 0 0 0.857965 0 0 0 0 0.966667 0 0 0 1 0"/>
<feBlend mode="normal" in2="BackgroundImageFix" result="effect1_dropShadow_275_50"/>
<feBlend mode="normal" in="SourceGraphic" in2="effect1_dropShadow_275_50" result="shape"/>
</filter>
<filter id="filter1_d_275_50" x="38.1376" y="25" width="59.2226" height="77.248" filterUnits="userSpaceOnUse" color-interpolation-filters="sRGB">
<feFlood flood-opacity="0" result="BackgroundImageFix"/>
<feColorMatrix in="SourceAlpha" type="matrix" values="0 0 0 0 0 0 0 0 0 0 0 0 0 0 0 0 0 0 127 0" result="hardAlpha"/>
<feOffset dy="3.43319"/>
<feGaussianBlur stdDeviation="1.7166"/>
<feComposite in2="hardAlpha" operator="out"/>
<feColorMatrix type="matrix" values="0 0 0 0 0.711111 0 0 0 0 0.81732 0 0 0 0 1 0 0 0 1 0"/>
<feBlend mode="normal" in2="BackgroundImageFix" result="effect1_dropShadow_275_50"/>
<feBlend mode="normal" in="SourceGraphic" in2="effect1_dropShadow_275_50" result="shape"/>
</filter>
<linearGradient id="paint0_linear_275_50" x1="67.7489" y1="35.6611" x2="67.7489" y2="84.6776" gradientUnits="userSpaceOnUse">
<stop stop-color="#28BEE3"/>
<stop offset="0.95" stop-color="#337EFF"/>
</linearGradient>
<linearGradient id="paint1_linear_275_50" x1="67.7489" y1="35.6611" x2="67.7489" y2="84.6776" gradientUnits="userSpaceOnUse">
<stop stop-color="#28BEE3"/>
<stop offset="0.95" stop-color="#337EFF"/>
</linearGradient>
<linearGradient id="paint2_linear_275_50" x1="67.7489" y1="35.6611" x2="67.7489" y2="84.6776" gradientUnits="userSpaceOnUse">
<stop stop-color="#28BEE3"/>
<stop offset="0.95" stop-color="#337EFF"/>
</linearGradient>
<linearGradient id="paint3_linear_275_50" x1="67.7489" y1="35.6611" x2="67.7489" y2="84.6776" gradientUnits="userSpaceOnUse">
<stop stop-color="#28BEE3"/>
<stop offset="0.95" stop-color="#337EFF"/>
</linearGradient>
<linearGradient id="paint4_linear_275_50" x1="67.7489" y1="35.6611" x2="67.7489" y2="84.6776" gradientUnits="userSpaceOnUse">
<stop stop-color="#28BEE3"/>
<stop offset="0.95" stop-color="#337EFF"/>
</linearGradient>
<linearGradient id="paint5_linear_275_50" x1="67.7489" y1="35.6611" x2="67.7489" y2="84.6776" gradientUnits="userSpaceOnUse">
<stop stop-color="#28BEE3"/>
<stop offset="0.95" stop-color="#337EFF"/>
</linearGradient>
<linearGradient id="paint6_linear_275_50" x1="67.7489" y1="35.6611" x2="67.7489" y2="84.6776" gradientUnits="userSpaceOnUse">
<stop stop-color="#28BEE3"/>
<stop offset="0.95" stop-color="#337EFF"/>
</linearGradient>
<linearGradient id="paint7_linear_275_50" x1="67.7489" y1="35.6611" x2="67.7489" y2="84.6776" gradientUnits="userSpaceOnUse">
<stop stop-color="#28BEE3"/>
<stop offset="0.95" stop-color="#337EFF"/>
</linearGradient>
<linearGradient id="paint8_linear_275_50" x1="67.7489" y1="35.6611" x2="67.7489" y2="84.6776" gradientUnits="userSpaceOnUse">
<stop stop-color="#28BEE3"/>
<stop offset="0.95" stop-color="#337EFF"/>
</linearGradient>
<linearGradient id="paint9_linear_275_50" x1="67.7489" y1="35.6611" x2="67.7489" y2="84.6776" gradientUnits="userSpaceOnUse">
<stop stop-color="#28BEE3"/>
<stop offset="0.95" stop-color="#337EFF"/>
</linearGradient>
<linearGradient id="paint10_linear_275_50" x1="67.7489" y1="35.6611" x2="67.7489" y2="84.6776" gradientUnits="userSpaceOnUse">
<stop stop-color="#28BEE3"/>
<stop offset="0.95" stop-color="#337EFF"/>
</linearGradient>
<linearGradient id="paint11_linear_275_50" x1="67.7489" y1="35.6611" x2="67.7489" y2="84.6776" gradientUnits="userSpaceOnUse">
<stop stop-color="#28BEE3"/>
<stop offset="0.95" stop-color="#337EFF"/>
</linearGradient>
<linearGradient id="paint12_linear_275_50" x1="67.7489" y1="35.6611" x2="67.7489" y2="84.6776" gradientUnits="userSpaceOnUse">
<stop stop-color="#28BEE3"/>
<stop offset="0.95" stop-color="#337EFF"/>
</linearGradient>
<linearGradient id="paint13_linear_275_50" x1="67.7489" y1="35.6611" x2="67.7489" y2="84.6776" gradientUnits="userSpaceOnUse">
<stop stop-color="#28BEE3"/>
<stop offset="0.95" stop-color="#337EFF"/>
</linearGradient>
<linearGradient id="paint14_linear_275_50" x1="67.7489" y1="35.6611" x2="67.7489" y2="84.6776" gradientUnits="userSpaceOnUse">
<stop stop-color="#28BEE3"/>
<stop offset="0.95" stop-color="#337EFF"/>
</linearGradient>
<linearGradient id="paint15_linear_275_50" x1="67.7489" y1="35.6611" x2="67.7489" y2="84.6776" gradientUnits="userSpaceOnUse">
<stop stop-color="#28BEE3"/>
<stop offset="0.95" stop-color="#337EFF"/>
</linearGradient>
<linearGradient id="paint16_linear_275_50" x1="67.7489" y1="35.6611" x2="67.7489" y2="84.6776" gradientUnits="userSpaceOnUse">
<stop stop-color="#28BEE3"/>
<stop offset="0.95" stop-color="#337EFF"/>
</linearGradient>
<linearGradient id="paint17_linear_275_50" x1="67.7489" y1="35.6611" x2="67.7489" y2="84.6776" gradientUnits="userSpaceOnUse">
<stop stop-color="#28BEE3"/>
<stop offset="0.95" stop-color="#337EFF"/>
</linearGradient>
<linearGradient id="paint18_linear_275_50" x1="67.749" y1="53.6675" x2="67.749" y2="67.0058" gradientUnits="userSpaceOnUse">
<stop stop-color="#28BEE3"/>
<stop offset="0.95" stop-color="#337EFF"/>
</linearGradient>
<linearGradient id="paint19_linear_275_50" x1="46.8718" y1="28.9814" x2="46.8718" y2="25" gradientUnits="userSpaceOnUse">
<stop stop-color="#28BEE3"/>
<stop offset="0.95" stop-color="#337EFF"/>
</linearGradient>
<linearGradient id="paint20_linear_275_50" x1="46.8718" y1="28.9814" x2="46.8718" y2="25" gradientUnits="userSpaceOnUse">
<stop stop-color="#28BEE3"/>
<stop offset="0.95" stop-color="#337EFF"/>
</linearGradient>
<linearGradient id="paint21_linear_275_50" x1="47.3721" y1="35.6609" x2="47.3721" y2="28.3248" gradientUnits="userSpaceOnUse">
<stop stop-color="#28BEE3"/>
<stop offset="0.95" stop-color="#337EFF"/>
</linearGradient>
<linearGradient id="paint22_linear_275_50" x1="55.2226" y1="28.9814" x2="55.2226" y2="25" gradientUnits="userSpaceOnUse">
<stop stop-color="#28BEE3"/>
<stop offset="0.95" stop-color="#337EFF"/>
</linearGradient>
<linearGradient id="paint23_linear_275_50" x1="55.2226" y1="28.9814" x2="55.2226" y2="25" gradientUnits="userSpaceOnUse">
<stop stop-color="#28BEE3"/>
<stop offset="0.95" stop-color="#337EFF"/>
</linearGradient>
<linearGradient id="paint24_linear_275_50" x1="55.7229" y1="35.6609" x2="55.7229" y2="28.3248" gradientUnits="userSpaceOnUse">
<stop stop-color="#28BEE3"/>
<stop offset="0.95" stop-color="#337EFF"/>
</linearGradient>
<linearGradient id="paint25_linear_275_50" x1="63.5739" y1="28.9814" x2="63.5739" y2="25" gradientUnits="userSpaceOnUse">
<stop stop-color="#28BEE3"/>
<stop offset="0.95" stop-color="#337EFF"/>
</linearGradient>
<linearGradient id="paint26_linear_275_50" x1="63.5739" y1="28.9814" x2="63.5739" y2="25" gradientUnits="userSpaceOnUse">
<stop stop-color="#28BEE3"/>
<stop offset="0.95" stop-color="#337EFF"/>
</linearGradient>
<linearGradient id="paint27_linear_275_50" x1="64.0737" y1="35.6609" x2="64.0737" y2="28.3248" gradientUnits="userSpaceOnUse">
<stop stop-color="#28BEE3"/>
<stop offset="0.95" stop-color="#337EFF"/>
</linearGradient>
<linearGradient id="paint28_linear_275_50" x1="71.9252" y1="28.9814" x2="71.9252" y2="25" gradientUnits="userSpaceOnUse">
<stop stop-color="#28BEE3"/>
<stop offset="0.95" stop-color="#337EFF"/>
</linearGradient>
<linearGradient id="paint29_linear_275_50" x1="71.9252" y1="28.9814" x2="71.9252" y2="25" gradientUnits="userSpaceOnUse">
<stop stop-color="#28BEE3"/>
<stop offset="0.95" stop-color="#337EFF"/>
</linearGradient>
<linearGradient id="paint30_linear_275_50" x1="72.425" y1="35.6609" x2="72.425" y2="28.3248" gradientUnits="userSpaceOnUse">
<stop stop-color="#28BEE3"/>
<stop offset="0.95" stop-color="#337EFF"/>
</linearGradient>
<linearGradient id="paint31_linear_275_50" x1="80.2758" y1="28.9814" x2="80.2758" y2="25" gradientUnits="userSpaceOnUse">
<stop stop-color="#28BEE3"/>
<stop offset="0.95" stop-color="#337EFF"/>
</linearGradient>
<linearGradient id="paint32_linear_275_50" x1="80.2758" y1="28.9814" x2="80.2758" y2="25" gradientUnits="userSpaceOnUse">
<stop stop-color="#28BEE3"/>
<stop offset="0.95" stop-color="#337EFF"/>
</linearGradient>
<linearGradient id="paint33_linear_275_50" x1="80.7759" y1="35.6609" x2="80.7759" y2="28.3248" gradientUnits="userSpaceOnUse">
<stop stop-color="#28BEE3"/>
<stop offset="0.95" stop-color="#337EFF"/>
</linearGradient>
<linearGradient id="paint34_linear_275_50" x1="88.6264" y1="28.9814" x2="88.6264" y2="25" gradientUnits="userSpaceOnUse">
<stop stop-color="#28BEE3"/>
<stop offset="0.95" stop-color="#337EFF"/>
</linearGradient>
<linearGradient id="paint35_linear_275_50" x1="88.6264" y1="28.9814" x2="88.6264" y2="25" gradientUnits="userSpaceOnUse">
<stop stop-color="#28BEE3"/>
<stop offset="0.95" stop-color="#337EFF"/>
</linearGradient>
<linearGradient id="paint36_linear_275_50" x1="89.1265" y1="35.6609" x2="89.1265" y2="28.3248" gradientUnits="userSpaceOnUse">
<stop stop-color="#28BEE3"/>
<stop offset="0.95" stop-color="#337EFF"/>
</linearGradient>
<linearGradient id="paint37_linear_275_50" x1="88.6262" y1="37.6082" x2="88.6262" y2="41.5896" gradientUnits="userSpaceOnUse">
<stop stop-color="#28BEE3"/>
<stop offset="0.95" stop-color="#337EFF"/>
</linearGradient>
<linearGradient id="paint38_linear_275_50" x1="88.6262" y1="79.4124" x2="88.6262" y2="83.3938" gradientUnits="userSpaceOnUse">
<stop stop-color="#28BEE3"/>
<stop offset="0.95" stop-color="#337EFF"/>
</linearGradient>
<linearGradient id="paint39_linear_275_50" x1="46.8715" y1="79.4124" x2="46.8715" y2="83.3938" gradientUnits="userSpaceOnUse">
<stop stop-color="#28BEE3"/>
<stop offset="0.95" stop-color="#337EFF"/>
</linearGradient>
<linearGradient id="paint40_linear_275_50" x1="46.8718" y1="91.4001" x2="46.8718" y2="95.3816" gradientUnits="userSpaceOnUse">
<stop stop-color="#28BEE3"/>
<stop offset="0.95" stop-color="#337EFF"/>
</linearGradient>
<linearGradient id="paint41_linear_275_50" x1="46.8718" y1="91.4001" x2="46.8718" y2="95.3816" gradientUnits="userSpaceOnUse">
<stop stop-color="#28BEE3"/>
<stop offset="0.95" stop-color="#337EFF"/>
</linearGradient>
<linearGradient id="paint42_linear_275_50" x1="47.3721" y1="84.7212" x2="47.3721" y2="92.0573" gradientUnits="userSpaceOnUse">
<stop stop-color="#28BEE3"/>
<stop offset="0.95" stop-color="#337EFF"/>
</linearGradient>
<linearGradient id="paint43_linear_275_50" x1="55.2226" y1="91.4001" x2="55.2226" y2="95.3816" gradientUnits="userSpaceOnUse">
<stop stop-color="#28BEE3"/>
<stop offset="0.95" stop-color="#337EFF"/>
</linearGradient>
<linearGradient id="paint44_linear_275_50" x1="55.2226" y1="91.4001" x2="55.2226" y2="95.3816" gradientUnits="userSpaceOnUse">
<stop stop-color="#28BEE3"/>
<stop offset="0.95" stop-color="#337EFF"/>
</linearGradient>
<linearGradient id="paint45_linear_275_50" x1="55.7229" y1="84.7212" x2="55.7229" y2="92.0573" gradientUnits="userSpaceOnUse">
<stop stop-color="#28BEE3"/>
<stop offset="0.95" stop-color="#337EFF"/>
</linearGradient>
<linearGradient id="paint46_linear_275_50" x1="63.5739" y1="91.4001" x2="63.5739" y2="95.3816" gradientUnits="userSpaceOnUse">
<stop stop-color="#28BEE3"/>
<stop offset="0.95" stop-color="#337EFF"/>
</linearGradient>
<linearGradient id="paint47_linear_275_50" x1="63.5739" y1="91.4001" x2="63.5739" y2="95.3816" gradientUnits="userSpaceOnUse">
<stop stop-color="#28BEE3"/>
<stop offset="0.95" stop-color="#337EFF"/>
</linearGradient>
<linearGradient id="paint48_linear_275_50" x1="64.0737" y1="84.7212" x2="64.0737" y2="92.0573" gradientUnits="userSpaceOnUse">
<stop stop-color="#28BEE3"/>
<stop offset="0.95" stop-color="#337EFF"/>
</linearGradient>
<linearGradient id="paint49_linear_275_50" x1="71.9252" y1="91.4001" x2="71.9252" y2="95.3816" gradientUnits="userSpaceOnUse">
<stop stop-color="#28BEE3"/>
<stop offset="0.95" stop-color="#337EFF"/>
</linearGradient>
<linearGradient id="paint50_linear_275_50" x1="71.9252" y1="91.4001" x2="71.9252" y2="95.3816" gradientUnits="userSpaceOnUse">
<stop stop-color="#28BEE3"/>
<stop offset="0.95" stop-color="#337EFF"/>
</linearGradient>
<linearGradient id="paint51_linear_275_50" x1="72.425" y1="84.7212" x2="72.425" y2="92.0573" gradientUnits="userSpaceOnUse">
<stop stop-color="#28BEE3"/>
<stop offset="0.95" stop-color="#337EFF"/>
</linearGradient>
<linearGradient id="paint52_linear_275_50" x1="80.2758" y1="91.4001" x2="80.2758" y2="95.3816" gradientUnits="userSpaceOnUse">
<stop stop-color="#28BEE3"/>
<stop offset="0.95" stop-color="#337EFF"/>
</linearGradient>
<linearGradient id="paint53_linear_275_50" x1="80.2758" y1="91.4001" x2="80.2758" y2="95.3816" gradientUnits="userSpaceOnUse">
<stop stop-color="#28BEE3"/>
<stop offset="0.95" stop-color="#337EFF"/>
</linearGradient>
<linearGradient id="paint54_linear_275_50" x1="80.7759" y1="84.7212" x2="80.7759" y2="92.0573" gradientUnits="userSpaceOnUse">
<stop stop-color="#28BEE3"/>
<stop offset="0.95" stop-color="#337EFF"/>
</linearGradient>
<linearGradient id="paint55_linear_275_50" x1="88.6264" y1="91.4001" x2="88.6264" y2="95.3816" gradientUnits="userSpaceOnUse">
<stop stop-color="#28BEE3"/>
<stop offset="0.95" stop-color="#337EFF"/>
</linearGradient>
<linearGradient id="paint56_linear_275_50" x1="88.6264" y1="91.4001" x2="88.6264" y2="95.3816" gradientUnits="userSpaceOnUse">
<stop stop-color="#28BEE3"/>
<stop offset="0.95" stop-color="#337EFF"/>
</linearGradient>
<linearGradient id="paint57_linear_275_50" x1="89.1265" y1="84.7212" x2="89.1265" y2="92.0573" gradientUnits="userSpaceOnUse">
<stop stop-color="#28BEE3"/>
<stop offset="0.95" stop-color="#337EFF"/>
</linearGradient>
<linearGradient id="paint58_linear_275_50" x1="46.6628" y1="37.8752" x2="46.6628" y2="41.8567" gradientUnits="userSpaceOnUse">
<stop stop-color="#28BEE3"/>
<stop offset="0.95" stop-color="#337EFF"/>
</linearGradient>
</defs>
</svg>
