<svg width="271" height="271" viewBox="0 0 271 271" fill="none" xmlns="http://www.w3.org/2000/svg">
<g filter="url(#filter0_d_275_49)">
<rect x="6.97119" y="3.00806" width="257.489" height="257.489" rx="4.29149" fill="white"/>
</g>
<path d="M38.24 140.16H39.76C39.776 140.032 39.776 139.92 39.776 139.808V139.12H38.976C38.752 139.504 38.496 139.856 38.24 140.16ZM44.08 143.184L42.736 144.4C42.288 144 41.392 143.344 40.672 142.848C40.096 143.664 39.168 144.48 37.728 145.152C37.472 144.768 36.944 144.176 36.528 143.872C38.16 143.232 38.976 142.448 39.376 141.648H36.72V140.16H37.792C37.408 139.92 36.896 139.632 36.576 139.472C37.392 138.704 38.016 137.536 38.336 136.352L40.016 136.704C39.92 137.008 39.824 137.328 39.696 137.648H43.664V139.12H41.584V139.84C41.584 139.952 41.584 140.048 41.568 140.16H44.032V141.648H41.392C42.064 142 43.664 142.912 44.08 143.184ZM47.328 146.128H40.72V147.024H47.328V146.128ZM40.72 149.344H47.328V148.4H40.72V149.344ZM38.848 151.392V144.64H49.28V151.376H47.328V150.864H40.72V151.392H38.848ZM48.768 142V139.296H46.336V142H48.768ZM44.576 137.616H50.656V143.68H44.576V137.616ZM55.232 146.944H57.616V146.016H55.232V146.944ZM57.616 143.76H55.232V144.608H57.616V143.76ZM59.504 142.192V149.456C59.504 150.288 59.344 150.752 58.8 151.024C58.272 151.328 57.52 151.344 56.576 151.344C56.48 150.848 56.192 150.112 55.952 149.664C56.528 149.696 57.152 149.68 57.36 149.664C57.552 149.664 57.616 149.616 57.616 149.424V148.352H55.232V151.376H53.472V142.192H59.504ZM56.88 138.016L58.496 137.424C59.232 138.512 60.048 139.936 60.304 140.944L58.576 141.632C58.528 141.392 58.432 141.12 58.32 140.832C54.464 141.152 53.84 141.264 53.424 141.424C53.328 141.056 53.008 140.16 52.784 139.648C53.04 139.584 53.296 139.376 53.568 139.024C53.808 138.704 54.56 137.584 55.008 136.4L57.024 136.928C56.576 137.84 55.936 138.784 55.328 139.552L57.664 139.408C57.424 138.928 57.136 138.448 56.88 138.016ZM65.248 143.6H63.056C61.2 143.6 60.736 143.056 60.736 141.312V136.496H62.624V138.8C63.712 138.368 64.784 137.888 65.52 137.456L66.736 138.832C65.52 139.424 64.016 139.92 62.624 140.336V141.28C62.624 141.856 62.72 141.92 63.328 141.92H65.056C65.584 141.92 65.68 141.68 65.76 140.288C66.144 140.576 66.896 140.864 67.424 140.976C67.216 143.024 66.704 143.6 65.248 143.6ZM63.376 149.616H65.168C65.728 149.616 65.824 149.312 65.904 147.712C66.304 147.984 67.056 148.272 67.568 148.4C67.376 150.64 66.864 151.28 65.344 151.28H63.104C61.232 151.28 60.752 150.72 60.752 148.976V143.952H62.64V146.112C63.776 145.664 64.88 145.136 65.648 144.624L66.896 146.016C65.664 146.672 64.096 147.248 62.64 147.712V148.976C62.64 149.536 62.752 149.616 63.376 149.616ZM74.528 147.296H77.888V146.32H74.528V147.296ZM72.576 144.592V145.184H79.68V144.592H72.576ZM75.552 138.992H73.568C73.744 139.28 73.904 139.568 73.984 139.792L72.928 140.176H76.4C75.968 139.92 75.376 139.616 75.008 139.456C75.2 139.312 75.376 139.168 75.552 138.992ZM78.72 138.992H77.872C77.552 139.44 77.2 139.84 76.864 140.176H79.6C79.376 139.824 79.056 139.376 78.72 138.992ZM72.576 142.928V143.52H79.68V142.928H72.576ZM79.68 141.312H72.576V141.872H79.68V141.312ZM83.232 147.296V148.8H79.856V151.36H77.888V148.8H74.288C73.84 149.824 72.72 150.752 70.224 151.392C69.968 150.992 69.44 150.352 69.008 150C70.592 149.68 71.504 149.264 72 148.8H68.8V147.296H72.608V146.32H70.656V140.176H72.256C72.112 139.824 71.872 139.376 71.616 138.992H71.28C70.832 139.6 70.352 140.144 69.888 140.56C69.552 140.256 68.8 139.744 68.352 139.504C69.36 138.736 70.304 137.52 70.816 136.32L72.592 136.8C72.48 137.024 72.368 137.264 72.24 137.488H75.776V138.752C76.432 138.08 76.976 137.2 77.296 136.32L79.104 136.752C79.008 136.992 78.896 137.248 78.784 137.488H83.184V138.992H80.832C81.04 139.248 81.232 139.488 81.344 139.696L80.272 140.176H81.696V146.32H79.856V147.296H83.232ZM92.16 139.776H98.64C98.64 139.776 98.624 140.432 98.592 140.688C98.272 147.056 97.952 149.456 97.248 150.288C96.768 150.912 96.304 151.088 95.616 151.184C95.024 151.264 94.032 151.264 93.056 151.216C93.024 150.64 92.768 149.792 92.4 149.248C93.408 149.328 94.352 149.328 94.768 149.328C95.104 149.328 95.296 149.28 95.52 149.072C96 148.576 96.32 146.48 96.576 141.728H92.096C91.84 145.04 90.72 148.928 86.224 151.472C85.92 150.992 85.2 150.272 84.736 149.92C88.704 147.76 89.776 144.528 90.048 141.728H85.232V139.776H90.128V136.48H92.16V139.776ZM109.2 137.312L110.992 136.64C111.952 138.656 113.872 141.024 115.52 142.384C115.04 142.752 114.336 143.488 113.984 144C113.696 143.712 113.392 143.408 113.088 143.088V143.136C112.928 147.856 112.736 149.744 112.176 150.4C111.776 150.912 111.344 151.088 110.736 151.152C110.16 151.232 109.264 151.232 108.304 151.2C108.272 150.624 108.032 149.824 107.696 149.28C108.56 149.36 109.408 149.36 109.792 149.36C110.08 149.36 110.256 149.312 110.432 149.152C110.768 148.784 110.928 147.424 111.072 144.176H107.728C107.312 147.2 106.256 149.92 102.144 151.44C101.92 150.928 101.376 150.16 100.944 149.744C104.512 148.592 105.36 146.48 105.696 144.176H103.12V143.232C102.816 143.568 102.496 143.872 102.16 144.144C101.808 143.744 101.008 142.976 100.544 142.64C102.416 141.296 104.032 139.056 104.928 136.672L106.976 137.232C106.256 139.088 105.184 140.848 103.984 142.288H112.416C111.216 140.8 110.032 139.024 109.2 137.312ZM120.752 139.984V138.704H120.096V139.984H120.752ZM122.176 144.4V141.568H121.456V144.16C121.456 144.368 121.472 144.384 121.6 144.384H121.888C122.032 144.384 122.064 144.384 122.096 144.336C122.112 144.352 122.144 144.384 122.176 144.4ZM118.464 148.816H122.176V147.728H118.464V148.816ZM119.168 141.568H118.464V145.104C119.088 144.416 119.168 143.536 119.168 142.816V141.568ZM122.032 145.312H121.488C120.8 145.312 120.592 145.104 120.592 144.16V141.568H120.032V142.832C120.032 143.728 119.872 144.912 119.136 145.744C118.992 145.584 118.656 145.28 118.464 145.152V146.416H122.176V145.312C122.128 145.312 122.08 145.312 122.032 145.312ZM116.704 138.704L116.72 137.024H123.984V138.704H122V139.984H123.696V151.088H122.176V150.288H118.464V151.296H117.008V139.984H118.864V138.704H116.704ZM127.248 149.392H129.04C129.664 149.392 129.76 149.008 129.856 146.896C130.256 147.2 131.056 147.536 131.552 147.648C131.36 150.352 130.848 151.168 129.2 151.168H126.976C125.2 151.168 124.64 150.624 124.64 148.656V142.016H129.104V139.008H124.576V137.168H130.944V144.816H129.104V143.824H126.528V148.64C126.528 149.312 126.624 149.392 127.248 149.392Z" fill="#222222"/>
<path opacity="0.8" d="M45.46 168.53V169.26H41.36V172.76H40.6V169.26H36.56V168.53H40.6V165.04H37.08V164.31H44.9V165.04H41.36V168.53H45.46ZM37.78 165.73L38.43 165.53C38.84 166.25 39.25 167.19 39.38 167.78L38.68 168.02C38.54 167.43 38.16 166.46 37.78 165.73ZM43.08 168.05L42.45 167.84C42.82 167.22 43.28 166.2 43.53 165.48L44.31 165.7C43.95 166.5 43.47 167.45 43.08 168.05ZM53.4 169.29H48.57V171.5H53.4V169.29ZM47.82 172.76V168.58H54.18V172.74H53.4V172.22H48.57V172.76H47.82ZM51.98 165.15L52.57 164.77C53.54 165.62 54.69 166.84 55.21 167.67L54.58 168.12C54.43 167.86 54.22 167.57 53.97 167.26C48.26 167.58 47.68 167.6 47.29 167.74C47.26 167.58 47.13 167.21 47.05 167.01C47.27 166.97 47.53 166.75 47.86 166.42C48.22 166.1 49.38 164.84 50.16 163.6L50.89 163.93C50.1 165.01 49.21 166.04 48.33 166.87L53.43 166.62C52.97 166.1 52.46 165.58 51.98 165.15ZM64.41 168H62.69C61.75 168 61.51 167.77 61.51 166.96V163.66H62.23V165.33C63.08 165.05 63.98 164.68 64.55 164.39L65.05 164.93C64.26 165.3 63.19 165.65 62.23 165.94V166.95C62.23 167.26 62.31 167.33 62.76 167.33H64.35C64.73 167.33 64.8 167.16 64.85 166.17C65 166.3 65.3 166.41 65.51 166.46C65.42 167.66 65.2 168 64.41 168ZM57.73 170.15H59.84V169.24H57.73V170.15ZM59.84 167.8H57.73V168.65H59.84V167.8ZM60.57 167.17V171.91C60.57 172.29 60.5 172.49 60.22 172.61C59.95 172.73 59.52 172.74 58.89 172.74C58.85 172.54 58.75 172.25 58.65 172.06C59.12 172.08 59.54 172.07 59.67 172.06C59.81 172.06 59.84 172.03 59.84 171.9V170.73H57.73V172.76H57.04V167.17H60.57ZM59.13 164.48L59.74 164.23C60.25 164.9 60.81 165.8 61.02 166.39L60.37 166.68C60.31 166.52 60.24 166.35 60.15 166.15C57.42 166.35 57.08 166.4 56.86 166.48C56.82 166.33 56.71 165.96 56.62 165.78C56.77 165.74 56.91 165.6 57.08 165.39C57.25 165.18 57.8 164.39 58.12 163.61L58.88 163.85C58.54 164.51 58.09 165.19 57.66 165.72L59.85 165.59C59.63 165.2 59.37 164.81 59.13 164.48ZM62.79 172.02H64.4C64.81 172.02 64.89 171.82 64.94 170.71C65.1 170.82 65.39 170.94 65.6 170.98C65.51 172.33 65.29 172.68 64.46 172.68H62.72C61.76 172.68 61.51 172.45 61.51 171.63V168.28H62.24V169.85C63.14 169.56 64.11 169.18 64.67 168.81L65.16 169.36C64.4 169.81 63.25 170.19 62.24 170.47V171.63C62.24 171.96 62.33 172.02 62.79 172.02ZM74.3 165.04H72.71C72.32 165.52 71.84 165.98 71.26 166.38C71.15 166.22 70.92 166.03 70.76 165.93C71.79 165.28 72.47 164.38 72.83 163.65L73.52 163.76C73.41 163.99 73.29 164.2 73.14 164.43H74.63L74.77 164.4L75.23 164.6C74.58 166.58 73.02 167.75 71.3 168.34C71.21 168.17 71.04 167.94 70.9 167.8C71.55 167.6 72.19 167.3 72.75 166.89C72.49 166.65 72.16 166.4 71.88 166.2L72.37 165.82C72.65 166 72.99 166.24 73.25 166.46C73.68 166.05 74.04 165.59 74.3 165.04ZM68.73 167.28H67.69V169.62H68.73V167.28ZM70.66 164.9V165.29C70.58 170.09 70.52 171.62 70.2 172.08C70.01 172.35 69.82 172.43 69.52 172.47C69.24 172.51 68.78 172.5 68.32 172.47C68.31 172.27 68.23 171.97 68.11 171.78C68.6 171.82 69.04 171.82 69.24 171.82C69.4 171.83 69.48 171.79 69.57 171.65C69.8 171.34 69.88 169.84 69.96 165.59H67.85C67.66 165.98 67.46 166.34 67.26 166.66H69.32V170.24H67.69V170.94H67.09V166.91C67.04 166.97 67 167.03 66.95 167.09C66.82 166.98 66.5 166.79 66.33 166.69C66.95 165.96 67.49 164.82 67.81 163.69L68.51 163.86C68.41 164.21 68.29 164.56 68.15 164.9H70.66ZM75.18 168.27L75.64 168.46C74.95 170.95 73.17 172.18 71 172.77C70.92 172.59 70.75 172.3 70.61 172.16C71.56 171.94 72.45 171.55 73.18 170.98C72.88 170.68 72.48 170.34 72.12 170.09L72.64 169.7C72.98 169.93 73.38 170.25 73.69 170.53C74.13 170.08 74.48 169.55 74.73 168.93H73.04C72.56 169.45 71.96 169.95 71.22 170.38C71.12 170.22 70.9 169.98 70.76 169.89C71.98 169.23 72.83 168.3 73.24 167.5L73.95 167.62C73.84 167.85 73.69 168.08 73.53 168.31H74.89V168.3H75.04L75.18 168.27ZM78.74 163.63V165.55H79.91V166.25H78.74V166.72C79 167.07 79.73 168.22 79.9 168.51L79.45 169.04C79.32 168.72 79.01 168.12 78.74 167.63V172.76H78.06V167.87C77.72 168.99 77.26 170.08 76.79 170.74C76.71 170.53 76.52 170.2 76.39 170.03C77.04 169.19 77.67 167.61 77.98 166.25H76.53V165.55H78.06V163.63H78.74ZM81.03 166.55V167.79H84.02V166.55H81.03ZM84.02 164.73H81.03V165.93H84.02V164.73ZM84.83 168.76L85.33 169.28C84.82 169.69 84.16 170.14 83.6 170.46C84.12 171.17 84.79 171.73 85.62 172.06C85.45 172.2 85.23 172.5 85.11 172.69C83.5 171.96 82.54 170.44 82.02 168.44H81.03V171.77L82.85 171.33C82.84 171.54 82.86 171.82 82.88 171.98C80.82 172.54 80.52 172.64 80.33 172.77C80.28 172.6 80.12 172.29 80.02 172.14C80.15 172.07 80.3 171.93 80.3 171.55V164.07H84.74V168.44H82.66C82.81 168.98 83.02 169.48 83.27 169.93C83.79 169.6 84.43 169.13 84.83 168.76ZM89.53 168.66L88.39 169.03V171.84C88.39 172.25 88.3 172.44 88.05 172.56C87.82 172.68 87.44 172.71 86.81 172.7C86.78 172.52 86.69 172.22 86.59 172.01C87.02 172.02 87.42 172.02 87.53 172.02C87.65 172.02 87.7 171.98 87.7 171.83V169.26C87.28 169.4 86.88 169.52 86.52 169.63L86.34 168.92C86.71 168.81 87.18 168.67 87.7 168.52V166.33H86.46V165.64H87.7V163.64H88.39V165.64H89.52V166.33H88.39V168.31L89.43 167.98L89.53 168.66ZM90.67 167.74H92.61V166.64H90.68V167.07C90.68 167.29 90.68 167.5 90.67 167.74ZM94.49 164.72H90.68V165.99H94.49V164.72ZM94.56 171.75V170.24H91.49V171.75H94.56ZM95.54 168.38H93.32V169.61H95.24V172.74H94.56V172.37H91.49V172.78H90.84V169.61H92.61V168.38H90.64C90.55 169.86 90.28 171.54 89.44 172.77C89.32 172.63 89.01 172.42 88.84 172.35C89.87 170.82 89.96 168.65 89.96 167.07V164.07H95.2V166.64H93.32V167.74H95.54V168.38ZM98.96 163.64L99.68 163.86C99.38 164.59 99.03 165.3 98.62 165.98V172.77H97.89V167.08C97.52 167.58 97.12 168.04 96.71 168.43C96.64 168.25 96.41 167.87 96.25 167.69C97.34 166.72 98.35 165.19 98.96 163.64ZM105.56 168.6H102.74V171.67H105.41V172.39H99.43V171.67H102V168.6H99.05V167.88H102V165.24C101.2 165.38 100.37 165.5 99.61 165.59C99.58 165.41 99.46 165.13 99.38 164.96C101.23 164.72 103.39 164.32 104.61 163.88L105.16 164.5C104.48 164.72 103.64 164.93 102.74 165.11V167.88H105.56V168.6ZM111.04 169.18H114.66C114.66 169.18 114.65 169.41 114.62 169.51C114.41 171.32 114.18 172.07 113.84 172.38C113.62 172.58 113.4 172.63 113.03 172.65C112.74 172.66 112.14 172.66 111.55 172.62C111.54 172.42 111.45 172.15 111.32 171.96C111.95 172.02 112.58 172.03 112.83 172.03C113.03 172.03 113.15 172.02 113.26 171.94C113.49 171.75 113.69 171.14 113.86 169.83H110.83C110.2 171.44 108.97 172.28 107.01 172.75C106.93 172.58 106.74 172.27 106.6 172.12C108.36 171.78 109.47 171.11 110.04 169.83H107.29V169.18H110.27C110.35 168.88 110.42 168.55 110.46 168.19L111.23 168.25C111.18 168.58 111.11 168.9 111.04 169.18ZM109.39 165.3L109.24 165.44C109.68 165.99 110.31 166.42 111.08 166.75C112.02 166.37 112.84 165.89 113.43 165.3H109.39ZM114.13 164.62L114.58 164.93C113.98 165.83 113.05 166.52 111.95 167.06C112.99 167.38 114.23 167.56 115.56 167.64C115.41 167.81 115.24 168.1 115.15 168.31C113.62 168.18 112.23 167.91 111.07 167.43C109.74 167.95 108.24 168.25 106.79 168.43C106.74 168.24 106.61 167.95 106.49 167.78C107.76 167.66 109.07 167.42 110.25 167.04C109.67 166.72 109.17 166.33 108.76 165.86C108.36 166.19 107.9 166.49 107.39 166.78C107.29 166.61 107.09 166.35 106.93 166.23C108.33 165.52 109.32 164.49 109.83 163.62L110.61 163.78C110.42 164.07 110.21 164.37 109.97 164.66H114L114.13 164.62ZM124.86 165.36L124.31 165.77C124.04 165.36 123.46 164.72 122.97 164.26L123.49 163.89C123.97 164.33 124.57 164.96 124.86 165.36ZM118.74 163.66L119.44 163.87C119.15 164.65 118.79 165.42 118.39 166.15V172.76H117.68V167.29C117.41 167.68 117.12 168.04 116.84 168.35C116.76 168.18 116.54 167.8 116.41 167.62C117.34 166.65 118.21 165.17 118.74 163.66ZM125.47 166.7H121.86C121.68 169.15 121.13 171.4 119.32 172.72C119.2 172.54 118.96 172.31 118.77 172.18C120.47 170.99 120.97 168.94 121.13 166.7H118.93V165.99H121.18C121.21 165.25 121.22 164.5 121.22 163.76H121.95C121.95 164.5 121.94 165.25 121.9 165.99H125.47V166.7ZM123.44 171.81H124.45C124.74 171.81 124.8 171.58 124.83 170.27C124.99 170.4 125.29 170.53 125.49 170.59C125.42 172.08 125.23 172.49 124.51 172.49H123.35C122.57 172.49 122.36 172.25 122.36 171.44V167.48H123.09V171.44C123.09 171.74 123.14 171.81 123.44 171.81ZM133.09 171.9H134.36C134.72 171.9 134.78 171.69 134.82 170.4C134.99 170.53 135.3 170.66 135.51 170.71C135.43 172.22 135.21 172.61 134.42 172.61H133C132.12 172.61 131.9 172.36 131.9 171.55V168.62H130.01C129.81 170.57 129.25 172.03 126.98 172.82C126.9 172.63 126.68 172.33 126.51 172.19C128.62 171.54 129.07 170.26 129.24 168.62H126.65V167.9H130.63V165.9H128.57C128.33 166.47 128.03 167 127.7 167.42C127.53 167.3 127.24 167.15 127.05 167.07C127.74 166.23 128.24 164.91 128.48 163.87L129.23 164.02C129.13 164.4 129 164.79 128.86 165.19H130.63V163.64H131.37V165.19H134.65V165.9H131.37V167.9H135.37V168.62H132.64V171.55C132.64 171.85 132.71 171.9 133.09 171.9ZM137.86 169.05L139.8 168.5C139.8 168.7 139.83 168.97 139.86 169.13C137.21 169.92 136.87 170.05 136.65 170.21C136.61 170.06 136.5 169.73 136.42 169.53C136.63 169.49 136.88 169.25 137.19 168.87C137.38 168.67 137.8 168.14 138.25 167.47C136.98 167.64 136.74 167.71 136.59 167.78C136.55 167.62 136.44 167.28 136.36 167.08C136.53 167.04 136.71 166.79 136.94 166.46C137.16 166.13 137.92 164.84 138.35 163.62L139.03 163.95C138.56 165.01 137.96 166.1 137.35 166.95L138.69 166.8C138.91 166.45 139.12 166.08 139.32 165.72L139.93 166.09C139.32 167.14 138.59 168.18 137.86 169.05ZM139.86 170.21L139.99 170.85C138.82 171.32 137.57 171.79 136.64 172.14L136.46 171.41C137.31 171.14 138.6 170.67 139.86 170.21ZM143.44 164.98H141.85C141.82 165.68 141.77 166.36 141.71 166.99C142.06 168.13 142.58 169.22 143.24 170.12C143.73 169.43 144.12 168.61 144.37 167.65H142.66C142.91 166.95 143.21 165.91 143.44 164.98ZM144.76 166.96L145.22 167.15C144.92 168.59 144.39 169.76 143.7 170.68C144.26 171.31 144.91 171.81 145.62 172.15C145.46 172.29 145.23 172.56 145.11 172.76C144.41 172.39 143.79 171.87 143.24 171.25C142.64 171.91 141.95 172.41 141.22 172.79C141.12 172.61 140.86 172.33 140.7 172.22C141.48 171.86 142.18 171.35 142.79 170.69C142.3 170.02 141.88 169.26 141.54 168.43C141.28 170.21 140.81 171.67 139.95 172.79C139.83 172.67 139.48 172.43 139.31 172.33C140.66 170.74 141 168.16 141.12 164.98H140.01V164.28H144.36C144.14 165.14 143.85 166.17 143.6 166.99H144.63L144.76 166.96ZM149.22 164.77V166.57H150.96V167.26H149.22V167.52C149.6 167.92 150.64 169.14 150.89 169.45L150.44 170.06C150.21 169.68 149.65 168.93 149.22 168.37V172.74H148.49V168.34C148 169.5 147.34 170.63 146.7 171.32C146.62 171.12 146.43 170.82 146.29 170.64C147.05 169.88 147.85 168.51 148.3 167.26H146.54V166.57H148.49V164.91C147.93 165 147.37 165.08 146.84 165.15C146.8 164.97 146.72 164.73 146.63 164.56C147.95 164.38 149.51 164.08 150.39 163.73L150.89 164.31C150.43 164.48 149.84 164.64 149.22 164.77ZM152.03 170.78H154.26V165.27H152.03V170.78ZM151.3 164.56H155V172.25H154.26V171.5H152.03V172.32H151.3V164.56ZM159.52 163.82V167.55H158.84V163.82H159.52ZM157.83 164.27V167.22H157.15V164.27H157.83ZM158.99 170.79L159.67 171.06C159.02 171.66 158.06 172.28 157.27 172.66C157.14 172.53 156.87 172.28 156.7 172.16C157.52 171.82 158.42 171.31 158.99 170.79ZM162.32 171.2L162.86 170.82C163.64 171.21 164.66 171.81 165.19 172.24L164.63 172.66C164.14 172.24 163.13 171.61 162.32 171.2ZM163.91 164.69H161.61C161.86 165.19 162.22 165.62 162.66 165.98C163.18 165.64 163.61 165.21 163.91 164.69ZM164.45 164.01L164.88 164.19C164.54 165.12 163.96 165.84 163.23 166.37C163.83 166.73 164.56 166.97 165.38 167.11C165.21 167.27 165.02 167.56 164.92 167.76C164.02 167.56 163.24 167.24 162.61 166.79C162.01 167.12 161.33 167.37 160.64 167.55L160.67 167.57C160.21 167.92 159.72 168.24 159.22 168.5L161.15 168.46C161.58 168.23 162.03 167.98 162.44 167.73L162.95 168.25C161.8 168.91 160.61 169.46 159.41 169.91L163.44 169.7C163.19 169.5 162.92 169.31 162.68 169.14L163.19 168.78C163.91 169.25 164.77 169.95 165.19 170.46L164.66 170.86C164.52 170.68 164.31 170.47 164.08 170.25L161.52 170.39V171.96C161.52 172.35 161.43 172.52 161.12 172.63C160.81 172.74 160.34 172.74 159.61 172.74C159.56 172.53 159.45 172.28 159.33 172.09C159.92 172.11 160.44 172.11 160.58 172.11C160.74 172.1 160.78 172.07 160.78 171.95V170.44C157.97 170.6 157.58 170.64 157.3 170.74C157.27 170.59 157.17 170.23 157.09 170.04C157.42 170.01 157.83 169.88 158.37 169.68C158.65 169.58 159.2 169.37 159.87 169.07C158.43 169.13 158.19 169.16 158.02 169.22C158 169.07 157.89 168.73 157.81 168.55C157.98 168.52 158.19 168.44 158.41 168.3C158.67 168.19 159.49 167.7 160.08 167.15L160.2 167.24C160.15 167.14 160.08 167.05 160.03 166.99C160.75 166.85 161.44 166.64 162.05 166.34C161.58 165.87 161.21 165.34 160.94 164.69H160.39V164.04H164.31L164.45 164.01ZM171.98 165H169.18C168.9 165.33 168.6 165.65 168.26 165.96H171.3C171.54 165.68 171.78 165.33 171.98 165ZM167.78 166.59V166.37C167.55 166.55 167.32 166.72 167.07 166.88C166.95 166.7 166.72 166.45 166.54 166.34C167.86 165.58 168.77 164.5 169.22 163.61L170.02 163.75C169.9 163.97 169.76 164.17 169.63 164.39H172.39L172.52 164.36L173.02 164.69C172.79 165.1 172.48 165.56 172.17 165.96H174.17V169.49H167.58V168.86H173.44V168.01H167.91V167.42H173.44V166.59H167.78ZM170.13 169.91L170.68 169.55C171.23 170.02 171.86 170.68 172.15 171.15L171.55 171.55C171.28 171.09 170.66 170.4 170.13 169.91ZM167.13 172.41L166.45 172.08C166.86 171.58 167.25 170.77 167.48 170.2L168.12 170.49C167.87 171.07 167.49 171.88 167.13 172.41ZM170.14 171.94H172.34C172.86 171.94 172.95 171.81 173 170.85C173.17 170.98 173.47 171.08 173.68 171.13C173.58 172.33 173.34 172.61 172.39 172.61H170.1C168.94 172.61 168.64 172.41 168.64 171.64V170.18H169.38V171.63C169.38 171.9 169.5 171.94 170.14 171.94ZM173.66 170.18L174.31 169.93C174.77 170.58 175.27 171.44 175.47 172.01L174.78 172.3C174.59 171.73 174.12 170.84 173.66 170.18ZM178.02 165.32V167.32C178.02 168.91 177.9 171.2 177.06 172.77C176.92 172.65 176.58 172.49 176.4 172.43C177.21 170.93 177.29 168.81 177.29 167.32V164.63H181.14C181.02 164.35 180.88 164.02 180.74 163.76L181.47 163.58C181.66 163.9 181.86 164.31 181.98 164.63H185.45V165.32H178.02ZM183 167.06H180.58V168.11H183V167.06ZM183.73 168.71H179.87V167.06H178.27V166.44H179.87V165.58H180.58V166.44H183V165.58H183.73V166.44H185.34V167.06H183.73V168.71ZM183.54 169.96H180.09C180.49 170.46 181.07 170.87 181.78 171.2C182.49 170.89 183.11 170.48 183.54 169.96ZM184.19 169.31L184.65 169.57C184.19 170.42 183.46 171.05 182.58 171.53C183.46 171.83 184.48 172.03 185.58 172.13C185.43 172.28 185.25 172.58 185.16 172.77C183.91 172.63 182.74 172.34 181.75 171.91C180.69 172.32 179.48 172.57 178.25 172.71C178.19 172.54 178.05 172.25 177.93 172.09C178.99 171.99 180.04 171.81 180.97 171.51C180.31 171.13 179.77 170.67 179.36 170.1L179.71 169.96H178.4V169.35H184.05L184.19 169.31ZM187.93 167.39H194.09C194.09 167.39 194.08 167.65 194.07 167.75C193.93 170.78 193.8 171.92 193.46 172.3C193.24 172.55 193.03 172.63 192.68 172.65C192.35 172.68 191.73 172.67 191.11 172.63C191.1 172.41 191.01 172.1 190.87 171.89C191.52 171.95 192.12 171.96 192.36 171.96C192.57 171.96 192.68 171.93 192.79 171.83C193.04 171.58 193.18 170.6 193.3 168.12H190.59C190.32 170.09 189.66 171.88 187.15 172.8C187.05 172.61 186.84 172.31 186.68 172.17C189.03 171.38 189.58 169.8 189.81 168.12H187.89V167.43C187.64 167.7 187.37 167.94 187.11 168.16C186.97 168.01 186.66 167.73 186.47 167.59C187.66 166.73 188.67 165.35 189.25 163.83L190.04 164.05C189.53 165.32 188.77 166.49 187.93 167.39ZM192.04 164.09L192.71 163.81C193.33 165.16 194.53 166.66 195.57 167.44C195.37 167.59 195.11 167.87 194.97 168.07C193.93 167.16 192.74 165.56 192.04 164.09ZM203.44 163.82L204.21 164.06C203.84 164.57 203.39 165.1 203.04 165.45L202.44 165.22C202.77 164.83 203.2 164.24 203.44 163.82ZM199.55 165.19L198.9 165.52C198.71 165.14 198.26 164.55 197.84 164.15L198.46 163.85C198.89 164.24 199.36 164.81 199.55 165.19ZM200.61 168.21V166.54C199.74 167.52 198.4 168.31 197.04 168.7C196.94 168.52 196.73 168.25 196.56 168.1C197.87 167.79 199.2 167.1 200.01 166.26H196.75V165.57H200.61V163.64H201.34V165.57H205.29V166.26H201.8C203.03 166.85 204.47 167.58 205.25 168.07L204.89 168.67C204.09 168.15 202.6 167.35 201.34 166.72V168.21H200.61ZM205.33 170.2H201.73C202.46 171.25 203.78 171.87 205.59 172.07C205.42 172.24 205.22 172.55 205.12 172.77C203.12 172.45 201.75 171.66 200.98 170.26C200.45 171.5 199.36 172.33 196.88 172.77C196.82 172.57 196.64 172.25 196.49 172.09C198.67 171.75 199.67 171.12 200.17 170.2H196.7V169.5H200.44C200.53 169.18 200.59 168.81 200.64 168.43H201.41C201.36 168.81 201.3 169.17 201.22 169.5H205.33V170.2ZM207.57 173.07L207.35 172.54C208.12 172.22 208.56 171.75 208.61 171.07C208.55 171.08 208.5 171.08 208.44 171.08C208.03 171.08 207.69 170.84 207.69 170.37C207.69 169.9 208.04 169.65 208.45 169.65C209 169.65 209.3 170.1 209.3 170.8C209.3 171.88 208.62 172.7 207.57 173.07ZM220.54 165.58V166.85H219.84V164.91H222.29C222.19 164.54 222.05 164.09 221.92 163.73L222.65 163.6C222.82 164.01 222.99 164.52 223.08 164.91H225.42V166.84H224.7V165.58H220.54ZM219.78 168.91L218.51 169.32V171.91C218.51 172.32 218.41 172.52 218.15 172.64C217.9 172.75 217.5 172.77 216.84 172.77C216.81 172.58 216.7 172.29 216.61 172.09C217.06 172.1 217.48 172.1 217.6 172.1C217.73 172.1 217.79 172.05 217.79 171.91V169.54C217.33 169.69 216.9 169.83 216.52 169.94L216.34 169.23C216.74 169.12 217.24 168.97 217.79 168.81V166.33H216.45V165.64H217.79V163.64H218.51V165.64H219.58V166.33H218.51V168.59L219.68 168.24L219.78 168.91ZM223.69 168.21H221.82C221.61 168.72 221.37 169.22 221.16 169.64C221.67 169.9 222.2 170.18 222.73 170.47C223.21 169.9 223.53 169.15 223.69 168.21ZM225.56 168.21H224.48C224.27 169.31 223.91 170.16 223.37 170.84C224.21 171.33 224.98 171.82 225.5 172.22L224.97 172.79C224.47 172.38 223.7 171.87 222.87 171.37C222.15 172.01 221.19 172.45 219.95 172.78C219.9 172.61 219.72 172.29 219.59 172.13C220.71 171.88 221.57 171.52 222.22 170.98C221.54 170.59 220.82 170.21 220.19 169.9C220.45 169.43 220.75 168.85 221.03 168.21H219.56V167.54H221.31C221.53 167 221.72 166.46 221.86 165.97L222.62 166.07C222.48 166.54 222.29 167.04 222.1 167.54H225.56V168.21ZM39.16 179.73H37.66V181.47H39.16V179.73ZM37.66 184.08H39.16V182.13H37.66V184.08ZM37.66 184.75V185.26H36.96V179.06H39.85V184.75H37.66ZM37.17 187.81L36.46 187.49C36.91 186.99 37.43 186.18 37.77 185.45L38.47 185.65C38.13 186.39 37.63 187.25 37.17 187.81ZM39.41 185.74L40.1 185.67C40.23 186.31 40.34 187.13 40.35 187.62L39.62 187.73C39.62 187.23 39.54 186.39 39.41 185.74ZM44.46 179.71H42.68C42.45 180.92 41.91 181.72 40.38 182.18C40.31 182.02 40.12 181.75 39.98 181.62C41.28 181.27 41.75 180.64 41.95 179.71H40.29V179.05H45.2C45.2 179.05 45.19 179.24 45.18 179.34C45.09 180.78 45 181.37 44.78 181.6C44.63 181.76 44.46 181.82 44.2 181.83C43.97 181.85 43.53 181.85 43.08 181.82C43.06 181.64 42.99 181.39 42.88 181.21C43.32 181.25 43.73 181.26 43.88 181.26C44.03 181.26 44.13 181.24 44.19 181.17C44.31 181.04 44.39 180.65 44.46 179.71ZM44.19 184.45V182.93H41.28V184.45H44.19ZM44.92 182.32V185.07H40.58V182.32H44.92ZM41.54 185.71L42.23 185.57C42.5 186.2 42.78 187.02 42.88 187.53L42.15 187.71C42.05 187.2 41.8 186.34 41.54 185.71ZM43.57 185.65L44.23 185.37C44.71 186.02 45.27 186.9 45.53 187.47L44.82 187.78C44.59 187.23 44.04 186.31 43.57 185.65ZM53.49 178.53L53.7 178.91C53.16 179.18 52.81 179.7 52.81 180.14C52.87 180.09 52.98 180.06 53.09 180.06C53.46 180.06 53.71 180.34 53.71 180.7C53.71 181.01 53.48 181.35 53.03 181.35C52.6 181.35 52.25 180.95 52.25 180.4C52.25 179.51 52.85 178.82 53.49 178.53ZM55.41 178.53L55.62 178.91C55.08 179.18 54.73 179.7 54.73 180.14C54.79 180.09 54.89 180.06 55 180.06C55.38 180.06 55.63 180.34 55.63 180.7C55.63 181.01 55.4 181.35 54.95 181.35C54.52 181.35 54.16 180.95 54.16 180.4C54.16 179.51 54.77 178.82 55.41 178.53ZM65.19 180.55L64.66 180.88C64.49 180.48 64.06 179.84 63.66 179.39L64.16 179.11C64.57 179.54 65.01 180.15 65.19 180.55ZM61.11 179.87V180.53H56.57V179.87H58.7C58.59 179.53 58.4 179.12 58.25 178.78L58.93 178.63C59.13 179.01 59.35 179.51 59.46 179.87H61.11ZM57.45 184.26L58.07 184.39C57.86 185.29 57.48 186.22 57.07 186.81C56.95 186.72 56.68 186.54 56.53 186.45C56.95 185.89 57.27 185.07 57.45 184.26ZM57.76 181.93V183.13H60.01V181.93H57.76ZM60.7 183.73H59.28V186.97C59.28 187.31 59.22 187.48 58.98 187.59C58.76 187.69 58.42 187.71 57.9 187.7C57.88 187.52 57.78 187.26 57.69 187.09C58.04 187.1 58.37 187.1 58.47 187.09C58.58 187.09 58.61 187.06 58.61 186.96V183.73H57.11V181.32H60.7V183.73ZM60.95 185.89L60.39 186.15C60.29 185.67 59.98 184.93 59.68 184.39L60.21 184.15C60.53 184.69 60.85 185.41 60.95 185.89ZM65.5 181.89H63.16C62.96 184.14 62.44 186.38 60.91 187.78C60.79 187.63 60.56 187.44 60.37 187.33C61.81 186.08 62.31 183.99 62.48 181.89H61.2V181.22H62.53C62.58 180.34 62.58 179.47 62.59 178.66H63.29C63.28 179.47 63.28 180.34 63.22 181.22H65.5V181.89ZM64.17 186.96H64.6C64.72 186.96 64.84 186.95 64.89 186.91C64.97 186.88 65.02 186.79 65.04 186.64C65.07 186.46 65.08 186.07 65.09 185.56C65.23 185.69 65.48 185.81 65.67 185.86C65.66 186.31 65.62 186.84 65.56 187.04C65.5 187.24 65.39 187.36 65.25 187.43C65.1 187.51 64.86 187.53 64.68 187.53H64.04C63.82 187.53 63.57 187.48 63.42 187.36C63.26 187.24 63.19 187.08 63.19 186.45V182.68H63.85V186.53C63.85 186.74 63.87 186.87 63.93 186.91C63.99 186.94 64.07 186.96 64.17 186.96ZM72.91 182.26H70.89C70.83 183.56 70.59 185.11 69.82 186.22C69.69 186.09 69.37 185.86 69.2 185.78C70.07 184.5 70.17 182.73 70.17 181.43V179.23C71.74 179.14 73.62 178.95 74.63 178.64L75.24 179.19C74.11 179.53 72.42 179.73 70.91 179.83V181.43V181.57H75.48V182.26H73.64V186.19H72.91V182.26ZM68.93 180.52L68.33 180.94C68.03 180.48 67.38 179.73 66.84 179.2L67.41 178.84C67.95 179.35 68.62 180.06 68.93 180.52ZM68.64 182.23V185.79C68.83 185.91 69.04 186.1 69.38 186.3C70.02 186.7 70.86 186.77 71.98 186.77C73.16 186.77 74.64 186.69 75.6 186.58C75.52 186.78 75.4 187.15 75.39 187.37C74.69 187.41 72.91 187.47 71.96 187.47C70.72 187.47 69.91 187.36 69.2 186.93C68.8 186.66 68.47 186.32 68.26 186.32C67.91 186.32 67.43 186.92 66.92 187.59L66.42 186.92C66.94 186.34 67.46 185.9 67.91 185.73V182.96H66.55V182.23H68.64ZM78.51 181.39L78.3 181.01C78.84 180.74 79.19 180.22 79.19 179.78C79.13 179.82 79.02 179.86 78.91 179.86C78.54 179.86 78.29 179.58 78.29 179.22C78.29 178.9 78.52 178.57 78.97 178.57C79.4 178.57 79.76 178.97 79.76 179.52C79.76 180.41 79.15 181.09 78.51 181.39ZM76.59 181.39L76.38 181.01C76.92 180.74 77.27 180.22 77.27 179.78C77.21 179.82 77.11 179.86 77 179.86C76.62 179.86 76.37 179.58 76.37 179.22C76.37 178.9 76.6 178.57 77.05 178.57C77.48 178.57 77.84 178.97 77.84 179.52C77.84 180.41 77.23 181.09 76.59 181.39ZM89.41 186.98L88.73 187.56C88.09 186.77 87.23 185.91 86.52 185.33L87.17 184.76C87.89 185.34 88.79 186.25 89.41 186.98ZM103.49 178.53L103.7 178.91C103.16 179.18 102.81 179.7 102.81 180.14C102.87 180.09 102.98 180.06 103.09 180.06C103.46 180.06 103.71 180.34 103.71 180.7C103.71 181.01 103.48 181.35 103.03 181.35C102.6 181.35 102.25 180.95 102.25 180.4C102.25 179.51 102.85 178.82 103.49 178.53ZM105.41 178.53L105.62 178.91C105.08 179.18 104.73 179.7 104.73 180.14C104.79 180.09 104.89 180.06 105 180.06C105.38 180.06 105.63 180.34 105.63 180.7C105.63 181.01 105.4 181.35 104.95 181.35C104.52 181.35 104.16 180.95 104.16 180.4C104.16 179.51 104.77 178.82 105.41 178.53ZM115.19 180.55L114.66 180.88C114.49 180.48 114.06 179.84 113.66 179.39L114.16 179.11C114.57 179.54 115.01 180.15 115.19 180.55ZM111.11 179.87V180.53H106.57V179.87H108.7C108.59 179.53 108.4 179.12 108.25 178.78L108.93 178.63C109.13 179.01 109.35 179.51 109.46 179.87H111.11ZM107.45 184.26L108.07 184.39C107.86 185.29 107.48 186.22 107.07 186.81C106.95 186.72 106.68 186.54 106.53 186.45C106.95 185.89 107.27 185.07 107.45 184.26ZM107.76 181.93V183.13H110.01V181.93H107.76ZM110.7 183.73H109.28V186.97C109.28 187.31 109.22 187.48 108.98 187.59C108.76 187.69 108.42 187.71 107.9 187.7C107.88 187.52 107.78 187.26 107.69 187.09C108.04 187.1 108.37 187.1 108.47 187.09C108.58 187.09 108.61 187.06 108.61 186.96V183.73H107.11V181.32H110.7V183.73ZM110.95 185.89L110.39 186.15C110.29 185.67 109.98 184.93 109.68 184.39L110.21 184.15C110.53 184.69 110.85 185.41 110.95 185.89ZM115.5 181.89H113.16C112.96 184.14 112.44 186.38 110.91 187.78C110.79 187.63 110.56 187.44 110.37 187.33C111.81 186.08 112.31 183.99 112.48 181.89H111.2V181.22H112.53C112.58 180.34 112.58 179.47 112.59 178.66H113.29C113.28 179.47 113.28 180.34 113.22 181.22H115.5V181.89ZM114.17 186.96H114.6C114.72 186.96 114.84 186.95 114.89 186.91C114.97 186.88 115.02 186.79 115.04 186.64C115.07 186.46 115.08 186.07 115.09 185.56C115.23 185.69 115.48 185.81 115.67 185.86C115.66 186.31 115.62 186.84 115.56 187.04C115.5 187.24 115.39 187.36 115.25 187.43C115.1 187.51 114.86 187.53 114.68 187.53H114.04C113.82 187.53 113.57 187.48 113.42 187.36C113.26 187.24 113.19 187.08 113.19 186.45V182.68H113.85V186.53C113.85 186.74 113.87 186.87 113.93 186.91C113.99 186.94 114.07 186.96 114.17 186.96ZM119.27 180.5L118.67 180.92C118.4 180.41 117.78 179.63 117.22 179.07L117.79 178.72C118.33 179.26 118.97 180 119.27 180.5ZM116.84 187.76V180.91H117.55V187.76H116.84ZM123.71 185.15L123.17 185.6C122.78 185.02 122.05 184.16 121.34 183.42V186.92H120.67V183.44C120.13 184.45 119.38 185.33 118.61 185.86C118.5 185.69 118.29 185.45 118.13 185.32C119 184.81 119.84 183.83 120.36 182.78H118.37V182.15H120.67V180.8H121.34V182.15H123.78V182.78H121.6C122.41 183.57 123.27 184.52 123.71 185.15ZM125.16 179.06V186.69C125.16 187.18 125.05 187.41 124.72 187.53C124.38 187.65 123.79 187.67 122.91 187.67C122.88 187.46 122.76 187.13 122.64 186.93C123.33 186.96 123.99 186.95 124.19 186.94C124.38 186.94 124.44 186.87 124.44 186.69V179.76H119.58V179.06H125.16ZM128.51 181.39L128.3 181.01C128.84 180.74 129.19 180.22 129.19 179.78C129.13 179.82 129.02 179.86 128.91 179.86C128.54 179.86 128.29 179.58 128.29 179.22C128.29 178.9 128.52 178.57 128.97 178.57C129.4 178.57 129.76 178.97 129.76 179.52C129.76 180.41 129.15 181.09 128.51 181.39ZM126.59 181.39L126.38 181.01C126.92 180.74 127.27 180.22 127.27 179.78C127.21 179.82 127.11 179.86 127 179.86C126.62 179.86 126.37 179.58 126.37 179.22C126.37 178.9 126.6 178.57 127.05 178.57C127.48 178.57 127.84 178.97 127.84 179.52C127.84 180.41 127.23 181.09 126.59 181.39ZM139.41 186.98L138.73 187.56C138.09 186.77 137.23 185.91 136.52 185.33L137.17 184.76C137.89 185.34 138.79 186.25 139.41 186.98ZM153.49 178.53L153.7 178.91C153.16 179.18 152.81 179.7 152.81 180.14C152.87 180.09 152.98 180.06 153.09 180.06C153.46 180.06 153.71 180.34 153.71 180.7C153.71 181.01 153.48 181.35 153.03 181.35C152.6 181.35 152.25 180.95 152.25 180.4C152.25 179.51 152.85 178.82 153.49 178.53ZM155.41 178.53L155.62 178.91C155.08 179.18 154.73 179.7 154.73 180.14C154.79 180.09 154.89 180.06 155 180.06C155.38 180.06 155.63 180.34 155.63 180.7C155.63 181.01 155.4 181.35 154.95 181.35C154.52 181.35 154.16 180.95 154.16 180.4C154.16 179.51 154.77 178.82 155.41 178.53ZM165.19 180.55L164.66 180.88C164.49 180.48 164.06 179.84 163.66 179.39L164.16 179.11C164.57 179.54 165.01 180.15 165.19 180.55ZM161.11 179.87V180.53H156.57V179.87H158.7C158.59 179.53 158.4 179.12 158.25 178.78L158.93 178.63C159.13 179.01 159.35 179.51 159.46 179.87H161.11ZM157.45 184.26L158.07 184.39C157.86 185.29 157.48 186.22 157.07 186.81C156.95 186.72 156.68 186.54 156.53 186.45C156.95 185.89 157.27 185.07 157.45 184.26ZM157.76 181.93V183.13H160.01V181.93H157.76ZM160.7 183.73H159.28V186.97C159.28 187.31 159.22 187.48 158.98 187.59C158.76 187.69 158.42 187.71 157.9 187.7C157.88 187.52 157.78 187.26 157.69 187.09C158.04 187.1 158.37 187.1 158.47 187.09C158.58 187.09 158.61 187.06 158.61 186.96V183.73H157.11V181.32H160.7V183.73ZM160.95 185.89L160.39 186.15C160.29 185.67 159.98 184.93 159.68 184.39L160.21 184.15C160.53 184.69 160.85 185.41 160.95 185.89ZM165.5 181.89H163.16C162.96 184.14 162.44 186.38 160.91 187.78C160.79 187.63 160.56 187.44 160.37 187.33C161.81 186.08 162.31 183.99 162.48 181.89H161.2V181.22H162.53C162.58 180.34 162.58 179.47 162.59 178.66H163.29C163.28 179.47 163.28 180.34 163.22 181.22H165.5V181.89ZM164.17 186.96H164.6C164.72 186.96 164.84 186.95 164.89 186.91C164.97 186.88 165.02 186.79 165.04 186.64C165.07 186.46 165.08 186.07 165.09 185.56C165.23 185.69 165.48 185.81 165.67 185.86C165.66 186.31 165.62 186.84 165.56 187.04C165.5 187.24 165.39 187.36 165.25 187.43C165.1 187.51 164.86 187.53 164.68 187.53H164.04C163.82 187.53 163.57 187.48 163.42 187.36C163.26 187.24 163.19 187.08 163.19 186.45V182.68H163.85V186.53C163.85 186.74 163.87 186.87 163.93 186.91C163.99 186.94 164.07 186.96 164.17 186.96ZM175.2 178.96V180.98H170.26V178.96H170.9V180.35H172.39V178.64H173.06V180.35H174.54V178.96H175.2ZM168.9 185.8V182.88H167.81V185.8H168.9ZM169.87 179.9H168.31C168.18 180.71 168.03 181.5 167.83 182.22H169.55V186.45H167.81V187.28H167.19V184C167.06 184.26 166.93 184.51 166.77 184.73C166.69 184.58 166.47 184.25 166.35 184.1C167.02 183.09 167.4 181.53 167.62 179.9H166.45V179.24H169.87V179.9ZM175.57 182.42H171.53C171.37 184.55 171.01 186.26 170.13 187.49C170.03 187.36 169.74 187.13 169.59 187.03C170.42 185.97 170.73 184.35 170.87 182.42H169.79V181.78H170.9C170.91 181.58 170.92 181.38 170.93 181.17L171.61 181.21L171.58 181.78H175.57V182.42ZM174.52 185.37L174.07 185.18C174.3 184.68 174.59 183.9 174.73 183.36L175.31 183.57C175.05 184.17 174.78 184.89 174.52 185.37ZM171.93 185.47L171.45 185.22C171.72 184.77 171.9 184.03 171.97 183.4L172.48 183.48C172.4 184.13 172.23 184.96 171.93 185.47ZM173.12 182.61H173.75C173.73 183.3 173.69 183.93 173.61 184.48C173.92 185.77 174.57 186.77 175.7 187.18C175.55 187.3 175.37 187.54 175.29 187.7C174.38 187.31 173.76 186.56 173.38 185.56C173.05 186.58 172.42 187.3 171.22 187.77C171.16 187.61 170.97 187.38 170.83 187.26C172.81 186.52 173.05 185.11 173.12 182.61ZM178.51 181.39L178.3 181.01C178.84 180.74 179.19 180.22 179.19 179.78C179.13 179.82 179.02 179.86 178.91 179.86C178.54 179.86 178.29 179.58 178.29 179.22C178.29 178.9 178.52 178.57 178.97 178.57C179.4 178.57 179.76 178.97 179.76 179.52C179.76 180.41 179.15 181.09 178.51 181.39ZM176.59 181.39L176.38 181.01C176.92 180.74 177.27 180.22 177.27 179.78C177.21 179.82 177.11 179.86 177 179.86C176.62 179.86 176.37 179.58 176.37 179.22C176.37 178.9 176.6 178.57 177.05 178.57C177.48 178.57 177.84 178.97 177.84 179.52C177.84 180.41 177.23 181.09 176.59 181.39ZM189.73 185L190.42 185.24C189.91 185.96 189.22 186.8 188.66 187.34C188.51 187.23 188.21 187.03 188.03 186.92C188.62 186.42 189.28 185.67 189.73 185ZM189.7 182.99V183.92H193.85V182.99H189.7ZM189.7 181.5V182.43H193.85V181.5H189.7ZM194.6 184.51H192.13V186.95C192.13 187.34 192.05 187.53 191.75 187.64C191.45 187.76 190.96 187.76 190.2 187.76C190.17 187.56 190.06 187.29 189.97 187.1C190.55 187.11 191.06 187.11 191.21 187.11C191.37 187.1 191.41 187.06 191.41 186.94V184.51H188.97V180.91H190.92C191.07 180.61 191.21 180.25 191.3 179.99L192.16 180.12C192.01 180.39 191.86 180.66 191.72 180.91H194.6V184.51ZM192.97 185.33L193.56 185.02C194.15 185.64 194.95 186.49 195.35 187L194.73 187.4C194.36 186.86 193.57 185.98 192.97 185.33ZM195.39 179.19V179.87H188.07V182.01C188.07 183.61 187.94 185.97 187.02 187.56C186.88 187.44 186.57 187.26 186.38 187.19C187.25 185.67 187.34 183.53 187.34 182.01V179.19H195.39ZM199.24 185.84L199.7 185.38C200.31 185.87 201.12 186.55 201.52 186.99L201.03 187.53C200.65 187.08 199.86 186.36 199.24 185.84ZM197.06 179.17H201.35V185.18H200.63V179.84H197.76V185.2H197.06V179.17ZM204.31 178.71H205.04V186.72C205.04 187.23 204.9 187.45 204.59 187.57C204.26 187.69 203.72 187.72 202.81 187.71C202.77 187.51 202.65 187.17 202.53 186.97C203.24 186.99 203.86 186.98 204.05 186.98C204.23 186.97 204.31 186.91 204.31 186.73V178.71ZM202.47 179.53H203.17V185.48H202.47V179.53ZM198.82 180.53H199.52V183.36C199.52 184.89 199.17 186.7 196.94 187.78C196.86 187.62 196.63 187.34 196.48 187.23C198.57 186.21 198.82 184.7 198.82 183.34V180.53ZM208.4 186.52H213.73V185.04H208.4V186.52ZM213.73 182.89H208.4V184.34H213.73V182.89ZM213.73 180.7H208.4V182.19H213.73V180.7ZM210.91 179.99H214.5V187.73H213.73V187.22H208.4V187.78H207.66V179.99H210.17C210.32 179.55 210.48 179.01 210.56 178.62L211.41 178.73C211.26 179.16 211.08 179.61 210.91 179.99ZM220.77 179.45V180.12H216.93V179.45H220.77ZM221.12 186.12L220.46 186.33C220.41 186.15 220.35 185.92 220.28 185.68C217.52 186.29 217.16 186.4 216.93 186.54V186.5C216.92 186.51 216.92 186.52 216.92 186.53C216.89 186.38 216.77 186.03 216.69 185.84C216.85 185.8 216.98 185.53 217.14 185.16C217.28 184.83 217.7 183.66 217.95 182.5H216.57V181.82H220.94V182.5H218.72C218.46 183.55 218.09 184.65 217.7 185.55L220.07 185.05C219.89 184.54 219.69 184 219.49 183.53L220.1 183.36C220.49 184.25 220.93 185.42 221.12 186.12ZM223.22 180.93H225.42C225.42 180.93 225.41 181.2 225.41 181.3C225.28 185.39 225.16 186.8 224.82 187.24C224.61 187.5 224.42 187.58 224.1 187.62C223.79 187.65 223.25 187.64 222.72 187.61C222.7 187.39 222.62 187.09 222.49 186.88C223.05 186.93 223.57 186.93 223.79 186.93C223.96 186.94 224.07 186.91 224.17 186.78C224.43 186.49 224.57 185.18 224.68 181.64H223.19C223.05 184.1 222.63 186.36 221.17 187.76C221.04 187.58 220.78 187.33 220.59 187.22C221.94 185.98 222.34 183.91 222.46 181.64H221.07V180.93H222.49C222.52 180.23 222.52 179.51 222.52 178.8H223.25C223.25 179.51 223.24 180.23 223.22 180.93ZM37.93 197.39H44.09C44.09 197.39 44.08 197.65 44.07 197.75C43.93 200.78 43.8 201.92 43.46 202.3C43.24 202.55 43.03 202.63 42.68 202.65C42.35 202.68 41.73 202.67 41.11 202.63C41.1 202.41 41.01 202.1 40.87 201.89C41.52 201.95 42.12 201.96 42.36 201.96C42.57 201.96 42.68 201.93 42.79 201.83C43.04 201.58 43.18 200.6 43.3 198.12H40.59C40.32 200.09 39.66 201.88 37.15 202.8C37.05 202.61 36.84 202.31 36.68 202.17C39.03 201.38 39.58 199.8 39.81 198.12H37.89V197.43C37.64 197.7 37.37 197.94 37.11 198.16C36.97 198.01 36.66 197.73 36.47 197.59C37.66 196.73 38.67 195.35 39.25 193.83L40.04 194.05C39.53 195.32 38.77 196.49 37.93 197.39ZM42.04 194.09L42.71 193.81C43.33 195.16 44.53 196.66 45.57 197.44C45.37 197.59 45.11 197.87 44.97 198.07C43.93 197.16 42.74 195.56 42.04 194.09ZM49.16 195.85V194.69H48.57V195.85H49.16ZM50.21 198.49V196.48H49.53V198.35C49.53 198.48 49.54 198.49 49.67 198.49H50.03C50.13 198.49 50.16 198.49 50.17 198.46L50.21 198.49ZM47.45 201.44H50.21V200.41H47.45V201.44ZM48.14 196.48H47.45V199.85H50.21V198.92C50.18 198.93 50.14 198.93 50.1 198.93H49.62C49.23 198.93 49.11 198.83 49.11 198.35V196.48H48.55V197.28C48.55 197.89 48.41 198.68 47.79 199.25C47.72 199.16 47.55 199.01 47.46 198.96C48.04 198.45 48.14 197.8 48.14 197.27V196.48ZM46.6 194.69V194.02H51.05V194.69H49.69V195.85H50.82V202.59H50.21V202.04H47.45V202.73H46.85V195.85H48.04V194.69H46.6ZM52.85 201.96H54.39C54.83 201.96 54.91 201.71 54.96 200.27C55.13 200.4 55.44 200.54 55.65 200.59C55.55 202.21 55.34 202.66 54.43 202.66H52.77C51.85 202.66 51.57 202.43 51.57 201.52V197.21H54.55V194.8H51.53V194.08H55.28V198.59H54.55V197.92H52.3V201.52C52.3 201.89 52.39 201.96 52.85 201.96ZM59.22 194.77V196.57H60.96V197.26H59.22V197.52C59.6 197.92 60.64 199.14 60.89 199.45L60.44 200.06C60.21 199.68 59.65 198.93 59.22 198.37V202.74H58.49V198.34C58 199.5 57.34 200.63 56.7 201.32C56.62 201.12 56.43 200.82 56.29 200.64C57.05 199.88 57.85 198.51 58.3 197.26H56.54V196.57H58.49V194.91C57.93 195 57.37 195.08 56.84 195.15C56.8 194.97 56.72 194.73 56.63 194.56C57.95 194.38 59.51 194.08 60.39 193.73L60.89 194.31C60.43 194.48 59.84 194.64 59.22 194.77ZM62.03 200.78H64.26V195.27H62.03V200.78ZM61.3 194.56H65V202.25H64.26V201.5H62.03V202.32H61.3V194.56ZM68.6 195.01H67.91C67.67 195.48 67.4 195.89 67.1 196.21C66.96 196.12 66.65 195.95 66.47 195.87C67.01 195.31 67.45 194.47 67.69 193.61L68.41 193.73C68.34 193.98 68.26 194.21 68.16 194.45H70.83V195.01H69.31C69.5 195.32 69.67 195.65 69.75 195.88L69.12 196.11C69.03 195.81 68.81 195.38 68.6 195.01ZM73.69 200.89H68.88V201.85H73.69V200.89ZM73.17 198.2H68.88V199.05H73.17V198.2ZM68.88 199.62V200.31H74.42V202.75H73.69V202.43H68.88V202.77H68.14V197.63H73.9V199.62H68.88ZM70.41 195.8L71.07 195.66C71.21 195.89 71.38 196.19 71.47 196.43H75.11V198.06H74.37V197.02H67.76V198.06H67.04V196.43H70.71C70.62 196.22 70.52 195.99 70.41 195.8ZM72.37 194.46H75.36V195.01H73.58C73.81 195.31 74.02 195.63 74.13 195.86L73.53 196.14C73.4 195.83 73.11 195.38 72.82 195.01H72.12C71.94 195.34 71.74 195.64 71.53 195.87C71.4 195.76 71.1 195.6 70.92 195.52C71.37 195.05 71.71 194.34 71.89 193.62L72.61 193.74C72.54 193.99 72.46 194.22 72.37 194.46ZM79.53 199.99L79.66 200.7C78.59 201.06 77.45 201.45 76.56 201.74L76.39 200.99C76.76 200.88 77.22 200.74 77.73 200.57V197.88H76.59V197.18H77.73V195.01H76.49V194.31H79.59V195.01H78.44V197.18H79.45V197.88H78.44V200.35L79.53 199.99ZM80.76 196.61V197.89H82.28V196.61H80.76ZM80.76 194.74V196H82.28V194.74H80.76ZM84.45 196V194.74H82.92V196H84.45ZM84.45 197.89V196.61H82.92V197.89H84.45ZM82.98 201.76H85.63V202.44H79.19V201.76H82.23V200.39H79.96V199.71H82.23V198.54H80.08V194.09H85.16V198.54H82.98V199.71H85.31V200.39H82.98V201.76ZM89.86 200.46H92.41V199.6H89.87V200.25C89.87 200.32 89.87 200.39 89.86 200.46ZM88.53 198.5V199.1H93.63V198.5H88.53ZM88.53 197.45V198.02H93.63V197.45H88.53ZM88.53 196.39V196.97H93.63V196.39H88.53ZM92.62 194.99H91.82C91.58 195.33 91.31 195.65 91.05 195.89H93.29C93.15 195.64 92.89 195.28 92.62 194.99ZM95.45 200.46V201.08H93.16V202.75H92.41V201.08H89.72C89.47 201.7 88.82 202.31 87.22 202.78C87.12 202.61 86.92 202.36 86.76 202.22C88 201.91 88.61 201.49 88.89 201.08H86.6V200.46H89.13C89.14 200.38 89.14 200.31 89.14 200.25V199.6H87.8V195.89H88.88C88.78 195.65 88.59 195.28 88.39 194.99H87.88C87.6 195.4 87.3 195.77 87 196.06C86.86 195.95 86.57 195.74 86.39 195.66C87 195.15 87.55 194.37 87.86 193.6L88.54 193.78C88.45 193.98 88.35 194.18 88.25 194.38H90.87V194.99H89.16C89.32 195.23 89.47 195.49 89.54 195.68L89 195.89H90.96C90.79 195.77 90.53 195.63 90.36 195.56C90.97 195.08 91.48 194.35 91.75 193.6L92.46 193.76C92.38 193.97 92.29 194.18 92.18 194.38H95.36V194.99H93.46C93.66 195.21 93.83 195.46 93.93 195.65L93.4 195.89H94.39V199.6H93.16V200.46H95.45ZM100.88 195.81H105.04C105.04 195.81 105.03 196.09 105.02 196.2C104.8 200.3 104.59 201.79 104.15 202.29C103.92 202.57 103.68 202.65 103.3 202.69C102.95 202.72 102.31 202.7 101.7 202.66C101.69 202.44 101.6 202.12 101.45 201.9C102.13 201.96 102.77 201.97 103.02 201.97C103.23 201.97 103.36 201.94 103.48 201.82C103.84 201.48 104.06 200.07 104.25 196.55H100.84C100.7 198.62 100.04 201.04 97.14 202.81C97.02 202.63 96.75 202.34 96.57 202.22C99.28 200.61 99.92 198.42 100.07 196.55H96.87V195.81H100.11C100.11 195.66 100.11 195.52 100.11 195.38V193.65H100.88V195.38C100.88 195.52 100.88 195.66 100.88 195.81ZM109.35 195.01L108.96 195.59C108.51 195.24 107.6 194.78 106.88 194.51L107.25 193.99C107.97 194.24 108.89 194.67 109.35 195.01ZM109.41 196.17L109.52 196.82C108.56 197.14 107.54 197.48 106.74 197.74L106.53 197.05C107.25 196.85 108.33 196.51 109.41 196.17ZM114.26 200.99H113.51V198.97H108.58V201.06H107.85V198.29H114.26V200.99ZM110.74 199.26H111.46C111.13 201.25 110.21 202.32 106.86 202.79C106.81 202.62 106.65 202.33 106.53 202.18C109.69 201.79 110.44 200.91 110.74 199.26ZM111.16 201.23L111.57 200.69C112.79 201.07 114.45 201.68 115.32 202.12L114.88 202.73C114.05 202.29 112.4 201.64 111.16 201.23ZM114.24 195.14H112.76C112.71 195.32 112.65 195.48 112.59 195.65C113.14 196.51 114.21 197.18 115.46 197.45C115.3 197.58 115.11 197.85 115.01 198.03C113.9 197.72 112.93 197.08 112.3 196.23C111.83 197.04 111.05 197.69 109.67 198.1C109.6 197.94 109.41 197.69 109.27 197.56C111.04 197.08 111.72 196.17 112.01 195.14H110.83C110.55 195.54 110.21 195.93 109.79 196.28C109.67 196.11 109.43 195.91 109.27 195.82C110.07 195.2 110.59 194.36 110.84 193.67L111.55 193.77C111.45 194.03 111.33 194.29 111.19 194.55H114.57L114.69 194.52L115.23 194.67C114.98 195.22 114.67 195.82 114.43 196.21L113.78 196.02C113.93 195.79 114.08 195.46 114.24 195.14ZM119 194.81L118.56 195.4C118.18 195.1 117.44 194.61 116.9 194.26L117.33 193.75C117.87 194.06 118.62 194.52 119 194.81ZM118.53 197.41L118.09 198.01C117.71 197.72 116.97 197.25 116.41 196.94L116.84 196.42C117.38 196.72 118.14 197.14 118.53 197.41ZM118.14 199.01L118.72 199.42C118.31 200.47 117.75 201.7 117.28 202.62L116.62 202.21C117.06 201.44 117.68 200.13 118.14 199.01ZM120.12 194.8V196.85C120.12 198.59 119.95 201.06 118.77 202.73C118.65 202.6 118.33 202.41 118.16 202.34C119.29 200.74 119.39 198.49 119.39 196.85V194.12H125.47V194.8H120.12ZM121.04 199.94L121.71 200.12C121.38 200.85 120.88 201.65 120.45 202.17C120.31 202.06 120.03 201.89 119.85 201.79C120.31 201.31 120.75 200.6 121.04 199.94ZM121.36 197.93V198.81H124.4V197.93H121.36ZM121.36 196.52V197.39H124.4V196.52H121.36ZM125.09 199.38H123.19V201.99C123.19 202.36 123.13 202.55 122.85 202.66C122.58 202.77 122.16 202.77 121.49 202.76C121.46 202.57 121.37 202.31 121.28 202.12C121.76 202.14 122.2 202.13 122.31 202.13C122.44 202.12 122.48 202.09 122.48 201.98V199.38H120.69V195.95H122.2C122.31 195.63 122.43 195.22 122.49 194.94L123.32 195.11C123.18 195.4 123.04 195.69 122.91 195.95H125.09V199.38ZM123.86 200.11L124.5 199.86C124.89 200.47 125.39 201.29 125.64 201.77L124.96 202.07C124.74 201.57 124.25 200.74 123.86 200.11ZM127.57 203.07L127.35 202.54C128.12 202.22 128.56 201.75 128.61 201.07C128.55 201.08 128.5 201.08 128.44 201.08C128.03 201.08 127.69 200.84 127.69 200.37C127.69 199.9 128.04 199.65 128.45 199.65C129 199.65 129.3 200.1 129.3 200.8C129.3 201.88 128.62 202.7 127.57 203.07ZM138.99 197.89H137.89V200.84H138.99V197.89ZM139.62 201.51H137.89V202.31H137.25V198.7C137.09 199 136.92 199.27 136.73 199.51C136.68 199.34 136.51 198.92 136.39 198.72C137.08 197.77 137.52 196.36 137.79 194.85H136.6V194.16H139.93V194.85H138.49C138.34 195.67 138.13 196.49 137.88 197.23H139.62V201.51ZM143.1 199.7H144.53V198.51H143.1V199.7ZM141.1 199.7H142.43V198.51H141.13V198.81C141.13 199.09 141.12 199.4 141.1 199.7ZM143.36 195.09H141.58C141.38 195.47 141.16 195.84 140.92 196.17H142.63C142.87 195.88 143.16 195.46 143.36 195.09ZM141.13 196.81V197.91H142.43V196.81H141.13ZM144.53 197.91V196.81H143.1V197.91H144.53ZM145.24 196.17V201.87C145.24 202.26 145.16 202.45 144.91 202.56C144.66 202.68 144.24 202.68 143.62 202.68C143.6 202.49 143.52 202.21 143.43 202.02C143.86 202.04 144.26 202.04 144.37 202.03C144.49 202.03 144.53 201.99 144.53 201.86V200.35H143.1V202.4H142.43V200.35H141.02C140.88 201.22 140.57 202.11 139.93 202.78C139.82 202.66 139.53 202.44 139.36 202.36C140.32 201.36 140.44 199.94 140.44 198.81V196.78C140.27 196.97 140.11 197.14 139.94 197.3C139.86 197.16 139.63 196.88 139.49 196.74C140.34 195.99 141.09 194.82 141.52 193.6L142.17 193.77C142.08 194.01 141.99 194.23 141.89 194.46H143.79L143.9 194.43L144.37 194.75C144.14 195.21 143.77 195.74 143.42 196.17H145.24ZM148.78 193.66L149.48 193.87C149.19 194.59 148.85 195.3 148.46 195.95V202.74H147.75V197.04C147.41 197.52 147.04 197.95 146.68 198.32C146.6 198.16 146.39 197.77 146.26 197.6C147.25 196.65 148.21 195.17 148.78 193.66ZM150.51 194.77V196.6H154.22V194.77H150.51ZM155.51 199.18H153.14C153.8 200.23 154.81 201.24 155.77 201.76C155.61 201.89 155.37 202.16 155.24 202.35C154.34 201.77 153.38 200.73 152.71 199.64V202.77H151.97V199.67C151.27 200.77 150.27 201.77 149.3 202.33C149.17 202.15 148.95 201.88 148.78 201.74C149.81 201.23 150.87 200.24 151.54 199.18H149.07V198.5H151.97V197.26H149.81V194.1H154.96V197.26H152.71V198.5H155.51V199.18ZM158.96 193.64L159.68 193.86C159.38 194.59 159.03 195.3 158.62 195.98V202.77H157.89V197.08C157.52 197.58 157.12 198.04 156.71 198.43C156.64 198.25 156.41 197.87 156.25 197.69C157.34 196.72 158.35 195.19 158.96 193.64ZM165.56 198.6H162.74V201.67H165.41V202.39H159.43V201.67H162V198.6H159.05V197.88H162V195.24C161.2 195.38 160.37 195.5 159.61 195.59C159.58 195.41 159.46 195.13 159.38 194.96C161.23 194.72 163.39 194.32 164.61 193.88L165.16 194.5C164.48 194.72 163.64 194.93 162.74 195.11V197.88H165.56V198.6ZM171.04 199.18H174.66C174.66 199.18 174.65 199.41 174.62 199.51C174.41 201.32 174.18 202.07 173.84 202.38C173.62 202.58 173.4 202.63 173.03 202.65C172.74 202.66 172.14 202.66 171.55 202.62C171.54 202.42 171.45 202.15 171.32 201.96C171.95 202.02 172.58 202.03 172.83 202.03C173.03 202.03 173.15 202.02 173.26 201.94C173.49 201.75 173.69 201.14 173.86 199.83H170.83C170.2 201.44 168.97 202.28 167.01 202.75C166.93 202.58 166.74 202.27 166.6 202.12C168.36 201.78 169.47 201.11 170.04 199.83H167.29V199.18H170.27C170.35 198.88 170.42 198.55 170.46 198.19L171.23 198.25C171.18 198.58 171.11 198.9 171.04 199.18ZM169.39 195.3L169.24 195.44C169.68 195.99 170.31 196.42 171.08 196.75C172.02 196.37 172.84 195.89 173.43 195.3H169.39ZM174.13 194.62L174.58 194.93C173.98 195.83 173.05 196.52 171.95 197.06C172.99 197.38 174.23 197.56 175.56 197.64C175.41 197.81 175.24 198.1 175.15 198.31C173.62 198.18 172.23 197.91 171.07 197.43C169.74 197.95 168.24 198.25 166.79 198.43C166.74 198.24 166.61 197.95 166.49 197.78C167.76 197.66 169.07 197.42 170.25 197.04C169.67 196.72 169.17 196.33 168.76 195.86C168.36 196.19 167.9 196.49 167.39 196.78C167.29 196.61 167.09 196.35 166.93 196.23C168.33 195.52 169.32 194.49 169.83 193.62L170.61 193.78C170.42 194.07 170.21 194.37 169.97 194.66H174L174.13 194.62ZM180.54 195.58V196.85H179.84V194.91H182.29C182.19 194.54 182.05 194.09 181.92 193.73L182.65 193.6C182.82 194.01 182.99 194.52 183.08 194.91H185.42V196.84H184.7V195.58H180.54ZM179.78 198.91L178.51 199.32V201.91C178.51 202.32 178.41 202.52 178.15 202.64C177.9 202.75 177.5 202.77 176.84 202.77C176.81 202.58 176.7 202.29 176.61 202.09C177.06 202.1 177.48 202.1 177.6 202.1C177.73 202.1 177.79 202.05 177.79 201.91V199.54C177.33 199.69 176.9 199.83 176.52 199.94L176.34 199.23C176.74 199.12 177.24 198.97 177.79 198.81V196.33H176.45V195.64H177.79V193.64H178.51V195.64H179.58V196.33H178.51V198.59L179.68 198.24L179.78 198.91ZM183.69 198.21H181.82C181.61 198.72 181.37 199.22 181.16 199.64C181.67 199.9 182.2 200.18 182.73 200.47C183.21 199.9 183.53 199.15 183.69 198.21ZM185.56 198.21H184.48C184.27 199.31 183.91 200.16 183.37 200.84C184.21 201.33 184.98 201.82 185.5 202.22L184.97 202.79C184.47 202.38 183.7 201.87 182.87 201.37C182.15 202.01 181.19 202.45 179.95 202.78C179.9 202.61 179.72 202.29 179.59 202.13C180.71 201.88 181.57 201.52 182.22 200.98C181.54 200.59 180.82 200.21 180.19 199.9C180.45 199.43 180.75 198.85 181.03 198.21H179.56V197.54H181.31C181.53 197 181.72 196.46 181.86 195.97L182.62 196.07C182.48 196.54 182.29 197.04 182.1 197.54H185.56V198.21ZM189.25 195.14H187.55V197.32H189.25V195.14ZM187.55 200.25H189.25V197.99H187.55V200.25ZM189.95 194.47V200.93H187.55V201.72H186.85V194.47H189.95ZM195.58 195.63V196.36H194.37V201.66C194.37 202.19 194.22 202.42 193.87 202.53C193.52 202.66 192.89 202.67 191.89 202.66C191.85 202.46 191.74 202.12 191.62 201.92C192.39 201.94 193.13 201.94 193.35 201.93C193.55 201.92 193.63 201.86 193.63 201.66V196.36H190.4V195.63H193.63V193.69H194.37V195.63H195.58ZM192.91 199.54L192.26 199.92C191.94 199.31 191.27 198.25 190.74 197.48L191.35 197.16C191.88 197.92 192.58 198.94 192.91 199.54ZM197.59 195.49V196.97H196.86V194.78H200.72C200.58 194.45 200.39 194.06 200.22 193.76L200.96 193.55C201.2 193.93 201.46 194.42 201.6 194.78H205.12V196.97H204.36V195.49H197.59ZM203.68 197.24H198.29V196.55H203.68V197.24ZM203 201.92H204.38C204.76 201.92 204.82 201.74 204.86 200.6C205.03 200.73 205.33 200.84 205.54 200.89C205.45 202.27 205.24 202.61 204.45 202.61H202.92C202.01 202.61 201.78 202.38 201.78 201.59V199.1H200.02C199.87 201.17 199.35 202.25 196.87 202.78C196.81 202.59 196.62 202.3 196.48 202.16C198.73 201.72 199.15 200.87 199.27 199.1H196.61V198.39H205.39V199.1H202.52V201.58C202.52 201.87 202.59 201.92 203 201.92ZM212.7 194.13L213.14 193.68C213.76 193.99 214.54 194.47 214.93 194.82L214.47 195.33C214.09 194.98 213.33 194.47 212.7 194.13ZM214.12 196.83L214.87 197.02C214.44 198.31 213.85 199.45 213.11 200.4C213.48 201.38 213.94 201.95 214.45 201.95C214.73 201.95 214.85 201.43 214.92 200.1C215.09 200.27 215.36 200.44 215.56 200.5C215.42 202.2 215.15 202.69 214.39 202.69C213.62 202.69 213.02 202.08 212.56 201.05C211.96 201.7 211.27 202.26 210.5 202.71C210.39 202.56 210.13 202.26 209.96 202.12C210.85 201.64 211.62 201.02 212.26 200.27C211.9 199.14 211.66 197.67 211.53 196.06H208.08V197.36H210.63V197.68C210.58 199.92 210.52 200.76 210.31 201.02C210.16 201.21 209.99 201.28 209.71 201.31C209.46 201.33 209.01 201.33 208.52 201.31C208.51 201.08 208.43 200.8 208.31 200.61C208.77 200.65 209.2 200.66 209.37 200.66C209.51 200.66 209.61 200.64 209.67 200.55C209.81 200.4 209.86 199.77 209.9 198.05H208.08V198.13C208.08 199.53 207.93 201.54 207.03 202.84C206.9 202.69 206.58 202.43 206.41 202.34C207.23 201.12 207.32 199.41 207.32 198.12V195.33H211.49C211.45 194.78 211.44 194.22 211.43 193.65H212.2C212.2 194.23 212.21 194.79 212.24 195.33H215.47V196.06H212.29C212.39 197.39 212.57 198.58 212.84 199.53C213.38 198.74 213.81 197.84 214.12 196.83ZM217.94 199.56C218.79 199.56 219.47 200.24 219.47 201.08C219.47 201.93 218.79 202.61 217.94 202.61C217.11 202.61 216.42 201.93 216.42 201.08C216.42 200.24 217.11 199.56 217.94 199.56ZM217.94 202.1C218.51 202.1 218.96 201.65 218.96 201.08C218.96 200.53 218.51 200.07 217.94 200.07C217.39 200.07 216.93 200.53 216.93 201.08C216.93 201.65 217.39 202.1 217.94 202.1Z" fill="#222222"/>
<path d="M50.2096 28C50.2096 30.4332 52.1822 32.4057 54.6154 32.4057C57.0486 32.4057 59.0211 30.4332 59.0211 28C59.0211 25.5668 57.0486 23.5943 54.6154 23.5943C52.1822 23.5943 50.2096 25.5668 50.2096 28ZM67.6162 28C67.6162 30.4332 69.5888 32.4057 72.022 32.4057C74.4552 32.4057 76.4277 30.4332 76.4277 28C76.4277 25.5668 74.4552 23.5943 72.022 23.5943C69.5888 23.5943 67.6162 25.5668 67.6162 28ZM92.5934 72.6082L91.9349 73.1069L93.0022 73.326L92.5934 72.6082ZM102.088 51.1302L102.843 51.4642L102.684 50.5588L102.088 51.1302ZM83.4404 55.2606C83.4404 57.6938 85.4129 59.6663 87.8462 59.6663C90.2794 59.6663 92.2519 57.6938 92.2519 55.2606C92.2519 52.8273 90.2794 50.8548 87.8462 50.8548C85.4129 50.8548 83.4404 52.8273 83.4404 55.2606ZM88.1877 41.2172C88.1877 43.6505 90.1602 45.623 92.5934 45.623C95.0266 45.623 96.9992 43.6505 96.9992 41.2172C96.9992 38.784 95.0266 36.8115 92.5934 36.8115C90.1602 36.8115 88.1877 38.784 88.1877 41.2172ZM45.9121 72.6082L45.1369 72.8938L45.9121 73.4343V72.6082ZM67.6162 89.1298C67.6162 91.563 69.5888 93.5355 72.022 93.5355C74.4552 93.5355 76.4277 91.563 76.4277 89.1298C76.4277 86.6965 74.4552 84.724 72.022 84.724C69.5888 84.724 67.6162 86.6965 67.6162 89.1298ZM73.9459 68.4778C73.9459 70.911 75.9184 72.8836 78.3517 72.8836C80.7849 72.8836 82.7574 70.911 82.7574 68.4778C82.7574 66.0446 80.7849 64.0721 78.3517 64.0721C75.9184 64.0721 73.9459 66.0446 73.9459 68.4778ZM33.5943 51.1302C33.5943 53.5634 35.5668 55.5359 38 55.5359C40.4332 55.5359 42.4057 53.5634 42.4057 51.1302C42.4057 48.697 40.4332 46.7244 38 46.7244C35.5668 46.7244 33.5943 48.697 33.5943 51.1302ZM105.594 62.6953C105.594 65.1285 107.567 67.101 110 67.101C112.433 67.101 114.406 65.1285 114.406 62.6953C114.406 60.262 112.433 58.2895 110 58.2895C107.567 58.2895 105.594 60.262 105.594 62.6953ZM54.0915 28.6387L65.1684 37.7255L66.2162 36.4482L55.1393 27.3613L54.0915 28.6387ZM66.3701 37.559L72.6998 28.4722L71.3441 27.5278L65.0145 36.6147L66.3701 37.559ZM65.0338 37.5856L91.9349 73.1069L93.2519 72.1095L66.3508 36.5881L65.0338 37.5856ZM93.349 72.9422L102.843 51.4642L101.332 50.7962L91.8379 72.2742L93.349 72.9422ZM101.858 50.3368L87.6161 54.4672L88.0763 56.054L102.318 51.9236L101.858 50.3368ZM102.684 50.5588L93.19 40.6458L91.9968 41.7886L101.491 51.7016L102.684 50.5588ZM64.9706 36.685L45.1904 72.2063L46.6338 73.0101L66.414 37.4888L64.9706 36.685ZM45.9121 73.4343H61.7363V71.7821H45.9121V73.4343ZM61.035 73.0448L71.3207 89.5664L72.7233 88.6932L62.4375 72.1716L61.035 73.0448ZM61.9356 73.4099L78.5509 69.2795L78.1524 67.6761L61.537 71.8065L61.9356 73.4099ZM46.6872 72.3227L38.7752 50.8446L37.2248 51.4157L45.1369 72.8938L46.6872 72.3227ZM93.0022 73.326L110.409 63.4131L109.591 61.9774L92.1846 71.8904L93.0022 73.326Z" fill="url(#paint0_linear_275_49)"/>
<ellipse cx="66.8791" cy="37.5" rx="5.93429" ry="6.19581" fill="url(#paint1_linear_275_49)"/>
<ellipse cx="47.4945" cy="70.9559" rx="4.74743" ry="4.95665" fill="url(#paint2_linear_275_49)"/>
<ellipse cx="100.505" cy="51.1304" rx="3.16495" ry="3.30443" fill="url(#paint3_linear_275_49)"/>
<ellipse cx="93.3847" cy="70.956" rx="3.16495" ry="3.30443" fill="url(#paint4_linear_275_49)"/>
<defs>
<filter id="filter0_d_275_49" x="0.791444" y="0.261503" width="269.849" height="269.849" filterUnits="userSpaceOnUse" color-interpolation-filters="sRGB">
<feFlood flood-opacity="0" result="BackgroundImageFix"/>
<feColorMatrix in="SourceAlpha" type="matrix" values="0 0 0 0 0 0 0 0 0 0 0 0 0 0 0 0 0 0 127 0" result="hardAlpha"/>
<feMorphology radius="0.858298" operator="dilate" in="SourceAlpha" result="effect1_dropShadow_275_49"/>
<feOffset dy="3.43319"/>
<feGaussianBlur stdDeviation="2.66072"/>
<feComposite in2="hardAlpha" operator="out"/>
<feColorMatrix type="matrix" values="0 0 0 0 0.794815 0 0 0 0 0.857965 0 0 0 0 0.966667 0 0 0 1 0"/>
<feBlend mode="normal" in2="BackgroundImageFix" result="effect1_dropShadow_275_49"/>
<feBlend mode="normal" in="SourceGraphic" in2="effect1_dropShadow_275_49" result="shape"/>
</filter>
<linearGradient id="paint0_linear_275_49" x1="74" y1="28" x2="74" y2="89.1298" gradientUnits="userSpaceOnUse">
<stop stop-color="#28BEE3"/>
<stop offset="0.95" stop-color="#337EFF"/>
</linearGradient>
<linearGradient id="paint1_linear_275_49" x1="66.8139" y1="33.816" x2="66.9214" y2="43.6954" gradientUnits="userSpaceOnUse">
<stop stop-color="#28BEE3"/>
<stop offset="0.95" stop-color="#337EFF"/>
</linearGradient>
<linearGradient id="paint2_linear_275_49" x1="47.4423" y1="68.0087" x2="47.5283" y2="75.9122" gradientUnits="userSpaceOnUse">
<stop stop-color="#28BEE3"/>
<stop offset="0.95" stop-color="#337EFF"/>
</linearGradient>
<linearGradient id="paint3_linear_275_49" x1="100.471" y1="49.1656" x2="100.528" y2="54.4346" gradientUnits="userSpaceOnUse">
<stop stop-color="#28BEE3"/>
<stop offset="0.95" stop-color="#337EFF"/>
</linearGradient>
<linearGradient id="paint4_linear_275_49" x1="93.3499" y1="68.9912" x2="93.4072" y2="74.2602" gradientUnits="userSpaceOnUse">
<stop stop-color="#28BEE3"/>
<stop offset="0.95" stop-color="#337EFF"/>
</linearGradient>
</defs>
</svg>
