<svg width="271" height="271" viewBox="0 0 271 271" fill="none" xmlns="http://www.w3.org/2000/svg">
<g filter="url(#filter0_d_275_48)">
<rect x="7" y="3" width="257.489" height="257.489" rx="4.29149" fill="white"/>
</g>
<path d="M44.888 142.664L46.136 143.416C44.072 147.096 39.528 149.08 34.92 149.944C34.744 149.464 34.376 148.68 34.04 148.264C35.672 148.024 37.304 147.624 38.776 147.048C38.36 146.664 37.88 146.296 37.464 145.992L38.888 145.112C39.4 145.432 39.976 145.864 40.488 146.296C41.496 145.752 42.408 145.128 43.112 144.424H39.128C38.136 145.128 37.016 145.752 35.736 146.328C35.448 145.896 34.856 145.24 34.44 144.968C37.016 144.008 38.92 142.648 39.992 141.4L42.04 141.88C41.768 142.168 41.48 142.456 41.176 142.744H44.552L44.888 142.664ZM46.936 148.552L48.248 149.304C45.992 154.168 40.744 155.848 34.648 156.424C34.504 155.896 34.184 155.064 33.88 154.584C36.44 154.408 38.856 154.04 40.888 153.304C40.456 152.904 39.944 152.504 39.512 152.184L41.08 151.272C41.576 151.624 42.184 152.072 42.68 152.504C43.752 151.928 44.648 151.208 45.336 150.328H41.704C40.424 151.24 38.904 152.04 37.08 152.712C36.856 152.28 36.312 151.576 35.912 151.24C39.208 150.216 41.416 148.648 42.632 147.096L44.696 147.576C44.376 147.944 44.072 148.296 43.72 148.648H46.584L46.936 148.552ZM62.68 142.568V144.408H51.32V142.568H62.68ZM60.552 154.344H61.992C62.52 154.344 62.616 153.928 62.696 151.624C63.112 151.96 63.928 152.296 64.456 152.424C64.264 155.288 63.784 156.12 62.152 156.12H60.232C58.424 156.12 57.96 155.512 57.96 153.64V148.744H55.56C55.272 152.072 54.536 154.808 50.712 156.36C50.488 155.88 49.96 155.176 49.528 154.808C52.856 153.56 53.304 151.4 53.496 148.744H49.88V146.888H64.152V148.744H59.928V153.64C59.928 154.248 60.024 154.344 60.552 154.344ZM71.528 152.296H74.888V151.32H71.528V152.296ZM69.576 149.592V150.184H76.68V149.592H69.576ZM72.552 143.992H70.568C70.744 144.28 70.904 144.568 70.984 144.792L69.928 145.176H73.4C72.968 144.92 72.376 144.616 72.008 144.456C72.2 144.312 72.376 144.168 72.552 143.992ZM75.72 143.992H74.872C74.552 144.44 74.2 144.84 73.864 145.176H76.6C76.376 144.824 76.056 144.376 75.72 143.992ZM69.576 147.928V148.52H76.68V147.928H69.576ZM76.68 146.312H69.576V146.872H76.68V146.312ZM80.232 152.296V153.8H76.856V156.36H74.888V153.8H71.288C70.84 154.824 69.72 155.752 67.224 156.392C66.968 155.992 66.44 155.352 66.008 155C67.592 154.68 68.504 154.264 69 153.8H65.8V152.296H69.608V151.32H67.656V145.176H69.256C69.112 144.824 68.872 144.376 68.616 143.992H68.28C67.832 144.6 67.352 145.144 66.888 145.56C66.552 145.256 65.8 144.744 65.352 144.504C66.36 143.736 67.304 142.52 67.816 141.32L69.592 141.8C69.48 142.024 69.368 142.264 69.24 142.488H72.776V143.752C73.432 143.08 73.976 142.2 74.296 141.32L76.104 141.752C76.008 141.992 75.896 142.248 75.784 142.488H80.184V143.992H77.832C78.04 144.248 78.232 144.488 78.344 144.696L77.272 145.176H78.696V151.32H76.856V152.296H80.232ZM89.16 144.776H95.64C95.64 144.776 95.624 145.432 95.592 145.688C95.272 152.056 94.952 154.456 94.248 155.288C93.768 155.912 93.304 156.088 92.616 156.184C92.024 156.264 91.032 156.264 90.056 156.216C90.024 155.64 89.768 154.792 89.4 154.248C90.408 154.328 91.352 154.328 91.768 154.328C92.104 154.328 92.296 154.28 92.52 154.072C93 153.576 93.32 151.48 93.576 146.728H89.096C88.84 150.04 87.72 153.928 83.224 156.472C82.92 155.992 82.2 155.272 81.736 154.92C85.704 152.76 86.776 149.528 87.048 146.728H82.232V144.776H87.128V141.48H89.16V144.776ZM102.12 144.104L100.808 145.432C100.328 144.696 99.192 143.592 98.312 142.84L99.528 141.672C100.408 142.376 101.576 143.4 102.12 144.104ZM105.064 147.48H106.648V146.392H105.352V145.064H106.648V143.992H108.12V145.064H109.48V146.392H108.12V147.48H109.816V148.824H105.064V147.48ZM108.104 151.112H106.552V152.424H108.104V151.112ZM109.496 153.752H106.552V154.456H105.176V149.8H109.496V153.752ZM111.896 142.024V154.392C111.896 155.24 111.752 155.736 111.208 156.04C110.712 156.328 109.976 156.376 108.856 156.376C108.808 155.896 108.568 155.096 108.312 154.648C108.984 154.696 109.688 154.68 109.912 154.68C110.136 154.664 110.216 154.584 110.216 154.36V143.688H104.616V148.232C104.616 150.712 104.376 154.216 102.856 156.376C102.584 156.072 101.896 155.528 101.512 155.352C101.88 154.824 102.152 154.232 102.328 153.624C100.312 155.384 99.896 155.768 99.64 156.104C99.416 155.736 98.808 155.128 98.488 154.872C98.888 154.52 99.48 153.768 99.48 152.792V148.184H97.592V146.36H101.336V152.264L102.168 151.56C102.28 151.864 102.44 152.264 102.616 152.6C102.936 151.144 102.968 149.576 102.968 148.232V142.024H111.896ZM116.712 144.6V147.064C116.712 149.752 116.504 153.752 115.176 156.36C114.792 156.088 113.928 155.688 113.432 155.544C114.712 153.08 114.824 149.512 114.824 147.08V142.824H120.792C120.68 142.456 120.552 142.072 120.408 141.768L122.344 141.336C122.568 141.784 122.792 142.328 122.952 142.824H128.232V144.6H116.712ZM123.896 147.512H120.984V148.568H123.896V147.512ZM125.784 150.008H119.192V147.512H117.032V146.024H119.192V144.968H120.984V146.024H123.896V144.968H125.784V146.024H128.088V147.512H125.784V150.008ZM124.424 152.136H120.2C120.76 152.648 121.48 153.08 122.312 153.432C123.128 153.08 123.832 152.664 124.424 152.136ZM126.104 150.584L127.288 151.192C126.616 152.44 125.656 153.4 124.472 154.152C125.688 154.44 127.032 154.616 128.488 154.728C128.12 155.128 127.64 155.896 127.4 156.376C125.448 156.184 123.72 155.816 122.216 155.208C120.696 155.752 118.968 156.088 117.16 156.28C117.016 155.832 116.664 155.112 116.376 154.696C117.704 154.584 118.984 154.424 120.152 154.136C119.416 153.64 118.76 153.048 118.216 152.392L118.856 152.136H117.16V150.648H125.768L126.104 150.584Z" fill="#222222"/>
<path opacity="0.8" d="M42.46 176.53V177.26H38.36V180.76H37.6V177.26H33.56V176.53H37.6V173.04H34.08V172.31H41.9V173.04H38.36V176.53H42.46ZM34.78 173.73L35.43 173.53C35.84 174.25 36.25 175.19 36.38 175.78L35.68 176.02C35.54 175.43 35.16 174.46 34.78 173.73ZM40.08 176.05L39.45 175.84C39.82 175.22 40.28 174.2 40.53 173.48L41.31 173.7C40.95 174.5 40.47 175.45 40.08 176.05ZM50.4 177.29H45.57V179.5H50.4V177.29ZM44.82 180.76V176.58H51.18V180.74H50.4V180.22H45.57V180.76H44.82ZM48.98 173.15L49.57 172.77C50.54 173.62 51.69 174.84 52.21 175.67L51.58 176.12C51.43 175.86 51.22 175.57 50.97 175.26C45.26 175.58 44.68 175.6 44.29 175.74C44.26 175.58 44.13 175.21 44.05 175.01C44.27 174.97 44.53 174.75 44.86 174.42C45.22 174.1 46.38 172.84 47.16 171.6L47.89 171.93C47.1 173.01 46.21 174.04 45.33 174.87L50.43 174.62C49.97 174.1 49.46 173.58 48.98 173.15ZM61.41 176H59.69C58.75 176 58.51 175.77 58.51 174.96V171.66H59.23V173.33C60.08 173.05 60.98 172.68 61.55 172.39L62.05 172.93C61.26 173.3 60.19 173.65 59.23 173.94V174.95C59.23 175.26 59.31 175.33 59.76 175.33H61.35C61.73 175.33 61.8 175.16 61.85 174.17C62 174.3 62.3 174.41 62.51 174.46C62.42 175.66 62.2 176 61.41 176ZM54.73 178.15H56.84V177.24H54.73V178.15ZM56.84 175.8H54.73V176.65H56.84V175.8ZM57.57 175.17V179.91C57.57 180.29 57.5 180.49 57.22 180.61C56.95 180.73 56.52 180.74 55.89 180.74C55.85 180.54 55.75 180.25 55.65 180.06C56.12 180.08 56.54 180.07 56.67 180.06C56.81 180.06 56.84 180.03 56.84 179.9V178.73H54.73V180.76H54.04V175.17H57.57ZM56.13 172.48L56.74 172.23C57.25 172.9 57.81 173.8 58.02 174.39L57.37 174.68C57.31 174.52 57.24 174.35 57.15 174.15C54.42 174.35 54.08 174.4 53.86 174.48C53.82 174.33 53.71 173.96 53.62 173.78C53.77 173.74 53.91 173.6 54.08 173.39C54.25 173.18 54.8 172.39 55.12 171.61L55.88 171.85C55.54 172.51 55.09 173.19 54.66 173.72L56.85 173.59C56.63 173.2 56.37 172.81 56.13 172.48ZM59.79 180.02H61.4C61.81 180.02 61.89 179.82 61.94 178.71C62.1 178.82 62.39 178.94 62.6 178.98C62.51 180.33 62.29 180.68 61.46 180.68H59.72C58.76 180.68 58.51 180.45 58.51 179.63V176.28H59.24V177.85C60.14 177.56 61.11 177.18 61.67 176.81L62.16 177.36C61.4 177.81 60.25 178.19 59.24 178.47V179.63C59.24 179.96 59.33 180.02 59.79 180.02ZM71.3 173.04H69.71C69.32 173.52 68.84 173.98 68.26 174.38C68.15 174.22 67.92 174.03 67.76 173.93C68.79 173.28 69.47 172.38 69.83 171.65L70.52 171.76C70.41 171.99 70.29 172.2 70.14 172.43H71.63L71.77 172.4L72.23 172.6C71.58 174.58 70.02 175.75 68.3 176.34C68.21 176.17 68.04 175.94 67.9 175.8C68.55 175.6 69.19 175.3 69.75 174.89C69.49 174.65 69.16 174.4 68.88 174.2L69.37 173.82C69.65 174 69.99 174.24 70.25 174.46C70.68 174.05 71.04 173.59 71.3 173.04ZM65.73 175.28H64.69V177.62H65.73V175.28ZM67.66 172.9V173.29C67.58 178.09 67.52 179.62 67.2 180.08C67.01 180.35 66.82 180.43 66.52 180.47C66.24 180.51 65.78 180.5 65.32 180.47C65.31 180.27 65.23 179.97 65.11 179.78C65.6 179.82 66.04 179.82 66.24 179.82C66.4 179.83 66.48 179.79 66.57 179.65C66.8 179.34 66.88 177.84 66.96 173.59H64.85C64.66 173.98 64.46 174.34 64.26 174.66H66.32V178.24H64.69V178.94H64.09V174.91C64.04 174.97 64 175.03 63.95 175.09C63.82 174.98 63.5 174.79 63.33 174.69C63.95 173.96 64.49 172.82 64.81 171.69L65.51 171.86C65.41 172.21 65.29 172.56 65.15 172.9H67.66ZM72.18 176.27L72.64 176.46C71.95 178.95 70.17 180.18 68 180.77C67.92 180.59 67.75 180.3 67.61 180.16C68.56 179.94 69.45 179.55 70.18 178.98C69.88 178.68 69.48 178.34 69.12 178.09L69.64 177.7C69.98 177.93 70.38 178.25 70.69 178.53C71.13 178.08 71.48 177.55 71.73 176.93H70.04C69.56 177.45 68.96 177.95 68.22 178.38C68.12 178.22 67.9 177.98 67.76 177.89C68.98 177.23 69.83 176.3 70.24 175.5L70.95 175.62C70.84 175.85 70.69 176.08 70.53 176.31H71.89V176.3H72.04L72.18 176.27ZM76.92 172.75L77.4 172.91C77.17 174.46 76.77 175.81 76.23 176.96C76.71 177.67 77.11 178.34 77.38 178.86L76.81 179.41C76.58 178.93 76.24 178.35 75.85 177.71C75.29 178.71 74.61 179.5 73.88 180.07C73.76 179.88 73.53 179.61 73.35 179.48C74.11 178.94 74.82 178.07 75.39 176.99C74.83 176.14 74.2 175.24 73.63 174.5L74.14 174.06C74.65 174.73 75.22 175.49 75.74 176.24C76.11 175.4 76.4 174.45 76.58 173.45H73.55V172.78H76.79L76.92 172.75ZM82.56 173.83V174.55H81.36V179.76C81.36 180.23 81.24 180.46 80.94 180.58C80.64 180.71 80.14 180.73 79.29 180.73C79.26 180.53 79.15 180.19 79.04 179.98C79.67 180 80.23 180 80.39 179.99C80.56 179.99 80.63 179.94 80.63 179.76V174.55H77.78V173.83H80.63V171.66H81.36V173.83H82.56ZM79.85 177.98L79.19 178.31C79.03 177.65 78.53 176.63 78.02 175.87L78.63 175.59C79.15 176.33 79.67 177.33 79.85 177.98ZM90.45 172.47L90.93 172.77C89.67 174.98 86.76 176.32 84.17 176.86C84.11 176.66 83.95 176.35 83.82 176.19C84.93 175.99 86.11 175.63 87.17 175.12C86.84 174.82 86.4 174.5 86 174.27L86.54 173.89C86.96 174.13 87.46 174.47 87.82 174.79C88.61 174.33 89.3 173.79 89.79 173.17H86.97C86.33 173.7 85.55 174.19 84.65 174.6C84.54 174.43 84.31 174.2 84.15 174.08C85.74 173.41 86.93 172.44 87.57 171.62L88.38 171.79C88.19 172.03 87.97 172.26 87.73 172.5H90.32L90.45 172.47ZM91.91 175.96L92.41 176.27C91.02 179.21 87.61 180.37 84.09 180.79C84.04 180.58 83.92 180.25 83.79 180.07C85.48 179.91 87.16 179.56 88.56 178.91C88.23 178.59 87.78 178.21 87.39 177.91L88 177.56C88.4 177.85 88.88 178.24 89.24 178.57C90.09 178.08 90.8 177.46 91.3 176.68H88.6C87.77 177.35 86.74 177.96 85.49 178.45C85.4 178.29 85.19 178.02 85.02 177.9C87.04 177.17 88.46 176.06 89.19 175.08L90.01 175.26C89.81 175.51 89.6 175.76 89.35 176H91.76L91.91 175.96ZM101.55 172.42V173.13H94.51V172.42H101.55ZM100.05 179.88H101.34C101.74 179.88 101.8 179.62 101.85 178.09C102.02 178.23 102.34 178.36 102.54 178.42C102.46 180.12 102.26 180.59 101.39 180.59H99.96C99.07 180.59 98.83 180.33 98.83 179.48V175.92H96.96C96.77 178.06 96.29 179.81 93.99 180.74C93.9 180.56 93.69 180.29 93.52 180.16C95.65 179.35 96.02 177.79 96.17 175.92H93.64V175.2H102.39V175.92H99.58V179.47C99.58 179.81 99.66 179.88 100.05 179.88ZM106.86 178.46H109.41V177.6H106.87V178.25C106.87 178.32 106.87 178.39 106.86 178.46ZM105.53 176.5V177.1H110.63V176.5H105.53ZM105.53 175.45V176.02H110.63V175.45H105.53ZM105.53 174.39V174.97H110.63V174.39H105.53ZM109.62 172.99H108.82C108.58 173.33 108.31 173.65 108.05 173.89H110.29C110.15 173.64 109.89 173.28 109.62 172.99ZM112.45 178.46V179.08H110.16V180.75H109.41V179.08H106.72C106.47 179.7 105.82 180.31 104.22 180.78C104.12 180.61 103.92 180.36 103.76 180.22C105 179.91 105.61 179.49 105.89 179.08H103.6V178.46H106.13C106.14 178.38 106.14 178.31 106.14 178.25V177.6H104.8V173.89H105.88C105.78 173.65 105.59 173.28 105.39 172.99H104.88C104.6 173.4 104.3 173.77 104 174.06C103.86 173.95 103.57 173.74 103.39 173.66C104 173.15 104.55 172.37 104.86 171.6L105.54 171.78C105.45 171.98 105.35 172.18 105.25 172.38H107.87V172.99H106.16C106.32 173.23 106.47 173.49 106.54 173.68L106 173.89H107.96C107.79 173.77 107.53 173.63 107.36 173.56C107.97 173.08 108.48 172.35 108.75 171.6L109.46 171.76C109.38 171.97 109.29 172.18 109.18 172.38H112.36V172.99H110.46C110.66 173.21 110.83 173.46 110.93 173.65L110.4 173.89H111.39V177.6H110.16V178.46H112.45ZM117.88 173.81H122.04C122.04 173.81 122.03 174.09 122.02 174.2C121.8 178.3 121.59 179.79 121.15 180.29C120.92 180.57 120.68 180.65 120.3 180.69C119.95 180.72 119.31 180.7 118.7 180.66C118.69 180.44 118.6 180.12 118.45 179.9C119.13 179.96 119.77 179.97 120.02 179.97C120.23 179.97 120.36 179.94 120.48 179.82C120.84 179.48 121.06 178.07 121.25 174.55H117.84C117.7 176.62 117.04 179.04 114.14 180.81C114.02 180.63 113.75 180.34 113.57 180.22C116.28 178.61 116.92 176.42 117.07 174.55H113.87V173.81H117.11C117.11 173.66 117.11 173.52 117.11 173.38V171.65H117.88V173.38C117.88 173.52 117.88 173.66 117.88 173.81ZM128.54 174.15V175.32C128.54 175.52 128.54 175.72 128.52 175.93H130.19V174.15H128.54ZM130.19 176.65H128.44C128.29 177.6 127.91 178.56 127.03 179.23C126.93 179.09 126.65 178.81 126.49 178.7C127.24 178.14 127.57 177.4 127.71 176.65H126.34V175.93H127.79C127.81 175.72 127.81 175.52 127.81 175.31V174.15H126.4V173.43H127.81V171.84H128.54V173.43H130.19V171.84H130.92V173.43H132.2V174.15H130.92V175.93H132.4V176.65H130.92V179.18H130.19V176.65ZM125.93 173.45L125.37 173.92C125.06 173.46 124.4 172.74 123.85 172.24L124.38 171.84C124.93 172.32 125.61 173.01 125.93 173.45ZM125.64 175.23V178.82C125.83 178.94 126.04 179.13 126.37 179.33C127.02 179.74 127.85 179.81 128.98 179.81C130.15 179.81 131.64 179.73 132.6 179.62C132.52 179.82 132.4 180.18 132.38 180.39C131.68 180.44 129.91 180.5 128.95 180.5C127.72 180.5 126.89 180.38 126.2 179.95C125.8 179.68 125.47 179.35 125.26 179.35C124.92 179.35 124.43 179.94 123.92 180.62L123.43 179.95C123.96 179.39 124.47 178.94 124.91 178.77V175.93H123.54V175.23H125.64ZM142.25 172.24V172.94H137.35V172.24H142.25ZM135.68 171.63L136.4 171.91C135.74 172.8 134.72 173.78 133.81 174.41C133.71 174.25 133.49 173.96 133.35 173.82C134.2 173.27 135.18 172.36 135.68 171.63ZM136.08 173.76L136.78 174.02C136.47 174.52 136.1 175.03 135.69 175.52V180.8H134.94V176.35C134.56 176.74 134.17 177.09 133.8 177.39C133.69 177.23 133.42 176.92 133.26 176.78C134.3 176.05 135.39 174.89 136.08 173.76ZM142.49 174.97V175.68H141.01V179.8C141.01 180.26 140.89 180.46 140.55 180.58C140.2 180.68 139.64 180.69 138.72 180.68C138.68 180.49 138.56 180.19 138.45 180C139.15 180.02 139.82 180.02 140.01 180.01C140.2 180 140.25 179.96 140.25 179.79V175.68H136.92V174.97H142.49ZM152.45 176.38L151.83 176.74C151.73 176.53 151.59 176.28 151.43 176.01C147.82 176.35 147.4 176.4 147.13 176.52C147.09 176.34 146.95 175.95 146.88 175.8C147.06 175.75 147.32 175.68 147.5 175.49C147.73 175.28 148.44 174.37 148.88 173.75H147.08V173.08H149.49C149.39 172.74 149.14 172.2 148.95 171.8L149.63 171.61C149.85 172.01 150.11 172.56 150.23 172.88L149.6 173.08H152.44V173.75H149.75C149.33 174.34 148.76 175.11 148.32 175.65L151.06 175.42C150.85 175.1 150.62 174.77 150.4 174.48L150.98 174.19C151.51 174.89 152.16 175.82 152.45 176.38ZM144.82 177.11L146.69 176.74C146.67 176.94 146.68 177.24 146.71 177.39C144.24 177.93 143.91 178.03 143.7 178.16C143.66 178.01 143.54 177.65 143.46 177.45C143.66 177.4 143.9 177.16 144.21 176.79C144.39 176.6 144.78 176.1 145.2 175.48C144.01 175.65 143.78 175.7 143.63 175.78C143.59 175.61 143.46 175.23 143.37 175.01C143.55 174.97 143.74 174.74 143.95 174.41C144.19 174.08 144.93 172.8 145.36 171.6L146.12 171.95C145.65 172.99 145.05 174.07 144.44 174.93L145.65 174.8C145.88 174.45 146.09 174.07 146.28 173.71L146.94 174.1C146.32 175.18 145.57 176.24 144.82 177.11ZM146.68 178.51L146.8 179.16C145.69 179.52 144.52 179.89 143.63 180.18L143.46 179.44C144.26 179.23 145.48 178.87 146.68 178.51ZM148.11 176.49H148.84C148.76 178.73 148.45 180 146.64 180.73C146.56 180.55 146.36 180.26 146.19 180.14C147.81 179.53 148.04 178.46 148.11 176.49ZM150.95 179.92H151.63C151.84 179.92 151.88 179.73 151.91 178.54C152.06 178.68 152.36 178.79 152.55 178.84C152.49 180.2 152.32 180.56 151.71 180.56H150.84C150.14 180.56 149.97 180.34 149.97 179.62V176.48H150.7V179.62C150.7 179.88 150.73 179.92 150.95 179.92ZM153.47 175.7H162.52V176.51H153.47V175.7ZM166.1 173.35L165.58 173.87C165.27 173.44 164.62 172.77 164.08 172.31L164.57 171.86C165.11 172.3 165.79 172.94 166.1 173.35ZM167.9 175.47H169.18V174.45H168.12V173.89H169.18V173.05H169.79V173.89H170.9V174.45H169.79V175.47H171.17V176.03H167.9V175.47ZM170.21 177.41H168.7V178.61H170.21V177.41ZM170.79 179.17H168.7V179.62H168.12V176.85H170.79V179.17ZM172.21 172.08V179.87C172.21 180.28 172.12 180.48 171.86 180.61C171.59 180.73 171.16 180.74 170.45 180.74C170.42 180.55 170.31 180.24 170.21 180.05C170.73 180.08 171.2 180.07 171.34 180.07C171.48 180.06 171.54 180.01 171.54 179.86V172.75H167.5V175.79C167.5 177.32 167.36 179.4 166.39 180.76C166.27 180.64 166 180.44 165.85 180.37C166.13 179.97 166.32 179.53 166.47 179.07C165.15 180.11 164.91 180.32 164.77 180.48C164.68 180.35 164.44 180.09 164.31 179.98C164.51 179.82 164.87 179.43 164.87 178.91V175.47H163.47V174.76H165.59V178.91L166.31 178.36C166.36 178.5 166.45 178.71 166.53 178.86C166.8 177.84 166.84 176.73 166.84 175.78V172.08H172.21ZM175.02 173.32V175.32C175.02 176.91 174.9 179.2 174.06 180.77C173.92 180.65 173.58 180.49 173.4 180.43C174.21 178.93 174.29 176.81 174.29 175.32V172.63H178.14C178.02 172.35 177.88 172.02 177.74 171.76L178.47 171.58C178.66 171.9 178.86 172.31 178.98 172.63H182.45V173.32H175.02ZM180 175.06H177.58V176.11H180V175.06ZM180.73 176.71H176.87V175.06H175.27V174.44H176.87V173.58H177.58V174.44H180V173.58H180.73V174.44H182.34V175.06H180.73V176.71ZM180.54 177.96H177.09C177.49 178.46 178.07 178.87 178.78 179.2C179.49 178.89 180.11 178.48 180.54 177.96ZM181.19 177.31L181.65 177.57C181.19 178.42 180.46 179.05 179.58 179.53C180.46 179.83 181.48 180.03 182.58 180.13C182.43 180.28 182.25 180.58 182.16 180.77C180.91 180.63 179.74 180.34 178.75 179.91C177.69 180.32 176.48 180.57 175.25 180.71C175.19 180.54 175.05 180.25 174.93 180.09C175.99 179.99 177.04 179.81 177.97 179.51C177.31 179.13 176.77 178.67 176.36 178.1L176.71 177.96H175.4V177.35H181.05L181.19 177.31ZM185.6 173.01H184.91C184.67 173.48 184.4 173.89 184.1 174.21C183.96 174.12 183.65 173.95 183.47 173.87C184.01 173.31 184.45 172.47 184.69 171.61L185.41 171.73C185.34 171.98 185.26 172.21 185.16 172.45H187.83V173.01H186.31C186.5 173.32 186.67 173.65 186.75 173.88L186.12 174.11C186.03 173.81 185.81 173.38 185.6 173.01ZM190.69 178.89H185.88V179.85H190.69V178.89ZM190.17 176.2H185.88V177.05H190.17V176.2ZM185.88 177.62V178.31H191.42V180.75H190.69V180.43H185.88V180.77H185.14V175.63H190.9V177.62H185.88ZM187.41 173.8L188.07 173.66C188.21 173.89 188.38 174.19 188.47 174.43H192.11V176.06H191.37V175.02H184.76V176.06H184.04V174.43H187.71C187.62 174.22 187.52 173.99 187.41 173.8ZM189.37 172.46H192.36V173.01H190.58C190.81 173.31 191.02 173.63 191.13 173.86L190.53 174.14C190.4 173.83 190.11 173.38 189.82 173.01H189.12C188.94 173.34 188.74 173.64 188.53 173.87C188.4 173.76 188.1 173.6 187.92 173.52C188.37 173.05 188.71 172.34 188.89 171.62L189.61 171.74C189.54 171.99 189.46 172.22 189.37 172.46ZM196.53 177.99L196.66 178.7C195.59 179.06 194.45 179.45 193.56 179.74L193.39 178.99C193.76 178.88 194.22 178.74 194.73 178.57V175.88H193.59V175.18H194.73V173.01H193.49V172.31H196.59V173.01H195.44V175.18H196.45V175.88H195.44V178.35L196.53 177.99ZM197.76 174.61V175.89H199.28V174.61H197.76ZM197.76 172.74V174H199.28V172.74H197.76ZM201.45 174V172.74H199.92V174H201.45ZM201.45 175.89V174.61H199.92V175.89H201.45ZM199.98 179.76H202.63V180.44H196.19V179.76H199.23V178.39H196.96V177.71H199.23V176.54H197.08V172.09H202.16V176.54H199.98V177.71H202.31V178.39H199.98V179.76ZM206.41 179.98L205.73 180.56C205.09 179.77 204.23 178.91 203.52 178.33L204.17 177.76C204.89 178.34 205.79 179.25 206.41 179.98ZM220.94 173.68H215.73C215.2 174.43 214.61 175.08 214 175.58C213.86 175.44 213.57 175.16 213.38 175.04C214.48 174.23 215.46 172.94 216.04 171.58L216.79 171.8C216.61 172.21 216.4 172.6 216.18 172.97H221.7V173.32C221.59 176.64 221.49 177.8 221.21 178.16C221.04 178.39 220.85 178.47 220.58 178.5C220.32 178.53 219.89 178.53 219.42 178.5C219.41 178.29 219.33 177.99 219.23 177.79C219.66 177.83 220.06 177.84 220.23 177.83C220.38 177.84 220.47 177.82 220.56 177.7C220.75 177.46 220.86 176.45 220.94 173.68ZM218.31 175.38H215.71V176.99H218.31V175.38ZM216.96 179.85H220.76C221.61 179.85 221.75 179.63 221.86 178.6C222.04 178.72 222.36 178.83 222.57 178.87C222.42 180.18 222.12 180.55 220.77 180.55H217C215.44 180.55 214.98 180.28 214.98 179.17V174.71H219.04V177.66H215.71V179.17C215.71 179.71 215.9 179.85 216.96 179.85ZM226.62 175.98L226.71 176.66C226.29 176.79 225.87 176.92 225.45 177.05V179.86C225.45 180.29 225.35 180.49 225.09 180.61C224.84 180.73 224.44 180.74 223.77 180.74C223.74 180.55 223.63 180.25 223.54 180.05C224 180.06 224.43 180.06 224.55 180.06C224.69 180.05 224.74 180.01 224.74 179.86V177.27L223.57 177.61L223.37 176.88C223.75 176.79 224.23 176.66 224.74 176.52V174.34H223.49V173.64H224.74V171.64H225.45V173.64H226.6V174.34H225.45V176.32C225.83 176.21 226.23 176.09 226.62 175.98ZM231.29 179.69V177.74H227.89V179.69H231.29ZM232.57 175.35H229.95V177.06H232.04V180.73H231.29V180.37H227.89V180.77H227.17V177.06H229.22V175.35H226.84V174.64H229.22V172.91C228.54 173.01 227.84 173.1 227.18 173.16C227.16 172.99 227.06 172.72 226.98 172.56C228.61 172.38 230.55 172.07 231.63 171.7L232.13 172.3C231.52 172.49 230.77 172.66 229.95 172.8V174.64H232.57V175.35ZM38.11 192.83L37.55 193.36C37.24 192.72 36.65 191.78 36.05 190.98C35.73 192.95 35.17 194.54 34.16 195.75C34.03 195.62 33.64 195.36 33.44 195.24C35.08 193.51 35.48 190.55 35.64 186.87L36.44 186.9C36.38 188.01 36.3 189.05 36.19 190.01C36.93 190.89 37.73 192.06 38.11 192.83ZM39.45 186.85L40.25 186.89C40.17 188.08 40.07 189.16 39.91 190.16C40.27 191.83 41.03 193.95 42.54 194.98C42.39 195.12 42.12 195.44 42 195.64C40.79 194.7 40.05 193.11 39.62 191.66C39.2 193.35 38.53 194.7 37.43 195.72C37.3 195.59 36.91 195.32 36.71 195.2C38.7 193.54 39.23 190.67 39.45 186.85ZM46.47 188.3L45.97 188.85C45.64 188.42 44.95 187.75 44.4 187.29L44.88 186.81C45.43 187.25 46.13 187.89 46.47 188.3ZM45.82 194L47.04 193.18C47.09 193.37 47.22 193.68 47.28 193.83C45.42 195.15 45.14 195.37 44.98 195.58C44.91 195.38 44.72 195.06 44.59 194.9C44.78 194.77 45.07 194.49 45.07 194.07V190.49H43.5V189.76H45.82V194ZM52.56 189.94V190.69H50.03V195.77H49.26V190.69H46.72V189.94H49.26V186.67H50.03V189.94H52.56ZM56.86 193.46H59.41V192.6H56.87V193.25C56.87 193.32 56.87 193.39 56.86 193.46ZM55.53 191.5V192.1H60.63V191.5H55.53ZM55.53 190.45V191.02H60.63V190.45H55.53ZM55.53 189.39V189.97H60.63V189.39H55.53ZM59.62 187.99H58.82C58.58 188.33 58.31 188.65 58.05 188.89H60.29C60.15 188.64 59.89 188.28 59.62 187.99ZM62.45 193.46V194.08H60.16V195.75H59.41V194.08H56.72C56.47 194.7 55.82 195.31 54.22 195.78C54.12 195.61 53.92 195.36 53.76 195.22C55 194.91 55.61 194.49 55.89 194.08H53.6V193.46H56.13C56.14 193.38 56.14 193.31 56.14 193.25V192.6H54.8V188.89H55.88C55.78 188.65 55.59 188.28 55.39 187.99H54.88C54.6 188.4 54.3 188.77 54 189.06C53.86 188.95 53.57 188.74 53.39 188.66C54 188.15 54.55 187.37 54.86 186.6L55.54 186.78C55.45 186.98 55.35 187.18 55.25 187.38H57.87V187.99H56.16C56.32 188.23 56.47 188.49 56.54 188.68L56 188.89H57.96C57.79 188.77 57.53 188.63 57.36 188.56C57.97 188.08 58.48 187.35 58.75 186.6L59.46 186.76C59.38 186.97 59.29 187.18 59.18 187.38H62.36V187.99H60.46C60.66 188.21 60.83 188.46 60.93 188.65L60.4 188.89H61.39V192.6H60.16V193.46H62.45ZM70.45 187.47L70.93 187.77C69.67 189.98 66.76 191.32 64.17 191.86C64.11 191.66 63.95 191.35 63.82 191.19C64.93 190.99 66.11 190.63 67.17 190.12C66.84 189.82 66.4 189.5 66 189.27L66.54 188.89C66.96 189.13 67.46 189.47 67.82 189.79C68.61 189.33 69.3 188.79 69.79 188.17H66.97C66.33 188.7 65.55 189.19 64.65 189.6C64.54 189.43 64.31 189.2 64.15 189.08C65.74 188.41 66.93 187.44 67.57 186.62L68.38 186.79C68.19 187.03 67.97 187.26 67.73 187.5H70.32L70.45 187.47ZM71.91 190.96L72.41 191.27C71.02 194.21 67.61 195.37 64.09 195.79C64.04 195.58 63.92 195.25 63.79 195.07C65.48 194.91 67.16 194.56 68.56 193.91C68.23 193.59 67.78 193.21 67.39 192.91L68 192.56C68.4 192.85 68.88 193.24 69.24 193.57C70.09 193.08 70.8 192.46 71.3 191.68H68.6C67.77 192.35 66.74 192.96 65.49 193.45C65.4 193.29 65.19 193.02 65.02 192.9C67.04 192.17 68.46 191.06 69.19 190.08L70.01 190.26C69.81 190.51 69.6 190.76 69.35 191H71.76L71.91 190.96ZM78.95 188.24L78.26 188.53C78.12 188.1 77.76 187.42 77.41 186.92L78.06 186.68C78.42 187.17 78.8 187.81 78.95 188.24ZM76.74 191.46L76.28 192C76.14 191.67 75.83 191.08 75.56 190.58V195.76H74.85V191.18C74.54 192.18 74.14 193.13 73.74 193.74C73.66 193.53 73.48 193.2 73.35 193.03C73.96 192.19 74.55 190.61 74.85 189.25H73.59V188.55H74.85V186.63H75.56V188.55H76.62V189.25H75.56V189.65C75.82 190.01 76.57 191.17 76.74 191.46ZM82.44 192.69V193.38H79.97V195.76H79.24V193.38H76.62V192.69H79.24V191.28H77.31V190.59H79.24V189.23H76.99V188.54H80.26C80.6 187.99 80.98 187.2 81.2 186.61L81.94 186.86C81.68 187.42 81.35 188.04 81.05 188.54H82.23V189.23H79.97V190.59H81.92V191.28H79.97V192.69H82.44ZM90.56 188.74V187.72H85.45V188.74H90.56ZM90.56 190.35V189.32H85.45V190.35H90.56ZM91.3 187.12V190.96H84.72V187.12H91.3ZM90.37 194L89.8 193.73C90.26 193.19 90.85 192.34 91.18 191.71L91.81 192C91.39 192.69 90.83 193.47 90.37 194ZM85.99 193.76L85.38 194.05C85.15 193.53 84.67 192.66 84.26 192.03L84.85 191.78C85.26 192.4 85.76 193.25 85.99 193.76ZM89.41 194.59H92.56V195.31H83.44V194.59H86.53V191.35H87.24V194.59H88.7V191.35H89.41V194.59ZM98.33 192.68L98.72 192.11C99.75 192.5 101.24 193.11 102 193.49L101.6 194.15C100.86 193.75 99.39 193.1 98.33 192.68ZM98.16 190.3H102.45V191.03H98.19V195.77H97.42V191.03H93.56V190.3H97.39V186.63H98.16V188.05H101.44V188.76H98.16V190.3ZM106.41 194.98L105.73 195.56C105.09 194.77 104.23 193.91 103.52 193.33L104.17 192.76C104.89 193.34 105.79 194.25 106.41 194.98ZM119.37 193.2H116.52V194.13H119.37V193.2ZM120.04 192.64V194.69H116.52V195.18H115.83V192.64H120.04ZM122.02 191.42V194.98C122.02 195.34 121.93 195.49 121.66 195.59C121.4 195.68 120.97 195.69 120.34 195.68C120.3 195.51 120.19 195.28 120.1 195.13C120.53 195.15 120.99 195.14 121.11 195.14C121.24 195.13 121.28 195.1 121.28 194.98V192.05H114.71V195.76H113.99V191.42H122.02ZM120.18 190.33V189.43H115.87V190.33H120.18ZM115.14 188.88H120.94V190.88H115.14V188.88ZM118.53 187.68H122.34V188.32H113.63V187.68H117.72C117.63 187.39 117.51 187.05 117.41 186.77L118.13 186.6C118.27 186.94 118.42 187.36 118.53 187.68ZM127.28 189.73V191H128.86V189.73H127.28ZM131.24 189.73H129.59V191H131.24V189.73ZM128.86 194.49V192.16C128.26 193 127.39 193.77 126.56 194.19C126.45 194.02 126.24 193.76 126.08 193.63C126.98 193.25 127.97 192.43 128.54 191.6H126.59V189.14H128.86V188.32H126.2V187.67H128.86V186.65H129.59V187.67H132.41V188.32H129.59V189.14H131.96V191.6H129.83C130.71 192.21 131.71 192.98 132.24 193.53L131.76 194.03C131.3 193.53 130.42 192.78 129.59 192.18V194.49H128.86ZM125.85 188.7L125.26 189.15C124.95 188.68 124.27 187.96 123.72 187.43L124.27 187.04C124.83 187.53 125.52 188.24 125.85 188.7ZM125.68 190.18V194.01C125.89 194.11 126.1 194.28 126.45 194.48C127.09 194.83 127.94 194.9 129.01 194.9C130.15 194.9 131.61 194.83 132.58 194.73C132.5 194.92 132.39 195.26 132.37 195.47C131.65 195.52 129.93 195.57 128.99 195.57C127.83 195.57 126.97 195.47 126.29 195.08C125.88 194.83 125.56 194.55 125.33 194.55C124.97 194.55 124.45 195.07 123.91 195.69L123.45 195.07C123.98 194.56 124.5 194.14 124.96 193.98V190.88H123.51V190.18H125.68ZM136.47 188.3L135.97 188.85C135.64 188.42 134.95 187.75 134.4 187.29L134.88 186.81C135.43 187.25 136.13 187.89 136.47 188.3ZM135.82 194L137.04 193.18C137.09 193.37 137.22 193.68 137.28 193.83C135.42 195.15 135.14 195.37 134.98 195.58C134.91 195.38 134.72 195.06 134.59 194.9C134.78 194.77 135.07 194.49 135.07 194.07V190.49H133.5V189.76H135.82V194ZM142.56 189.94V190.69H140.03V195.77H139.26V190.69H136.72V189.94H139.26V186.67H140.03V189.94H142.56ZM146.86 193.46H149.41V192.6H146.87V193.25C146.87 193.32 146.87 193.39 146.86 193.46ZM145.53 191.5V192.1H150.63V191.5H145.53ZM145.53 190.45V191.02H150.63V190.45H145.53ZM145.53 189.39V189.97H150.63V189.39H145.53ZM149.62 187.99H148.82C148.58 188.33 148.31 188.65 148.05 188.89H150.29C150.15 188.64 149.89 188.28 149.62 187.99ZM152.45 193.46V194.08H150.16V195.75H149.41V194.08H146.72C146.47 194.7 145.82 195.31 144.22 195.78C144.12 195.61 143.92 195.36 143.76 195.22C145 194.91 145.61 194.49 145.89 194.08H143.6V193.46H146.13C146.14 193.38 146.14 193.31 146.14 193.25V192.6H144.8V188.89H145.88C145.78 188.65 145.59 188.28 145.39 187.99H144.88C144.6 188.4 144.3 188.77 144 189.06C143.86 188.95 143.57 188.74 143.39 188.66C144 188.15 144.55 187.37 144.86 186.6L145.54 186.78C145.45 186.98 145.35 187.18 145.25 187.38H147.87V187.99H146.16C146.32 188.23 146.47 188.49 146.54 188.68L146 188.89H147.96C147.79 188.77 147.53 188.63 147.36 188.56C147.97 188.08 148.48 187.35 148.75 186.6L149.46 186.76C149.38 186.97 149.29 187.18 149.18 187.38H152.36V187.99H150.46C150.66 188.21 150.83 188.46 150.93 188.65L150.4 188.89H151.39V192.6H150.16V193.46H152.45ZM158.06 192.93L157.57 193.41C157.38 193.05 157.11 192.61 156.81 192.14C156.41 193.08 155.92 193.87 155.32 194.51C155.21 194.41 154.9 194.2 154.74 194.1C155.43 193.43 155.96 192.54 156.34 191.48C155.9 190.85 155.41 190.2 154.96 189.65L155.42 189.24C155.81 189.69 156.21 190.21 156.59 190.72C156.78 190.06 156.92 189.37 157.04 188.63L157.72 188.7C157.56 189.67 157.35 190.58 157.08 191.4C157.47 191.96 157.82 192.5 158.06 192.93ZM160.97 193.28L160.45 193.71C160.25 193.28 159.97 192.75 159.63 192.19C159.23 193.14 158.74 193.94 158.11 194.59C157.98 194.48 157.69 194.27 157.52 194.18C158.26 193.51 158.79 192.59 159.19 191.49C158.76 190.86 158.28 190.21 157.83 189.65L158.31 189.28C158.69 189.72 159.07 190.22 159.43 190.72C159.62 190.07 159.75 189.38 159.86 188.65L160.53 188.72C160.38 189.7 160.18 190.6 159.91 191.42C160.35 192.09 160.73 192.75 160.97 193.28ZM162.11 187.24V194.78C162.11 195.25 161.98 195.48 161.66 195.61C161.34 195.73 160.8 195.75 159.9 195.74C159.86 195.53 159.72 195.21 159.62 195C160.28 195.03 160.93 195.02 161.12 195.02C161.3 195.01 161.38 194.95 161.38 194.78V187.94H154.66V195.75H153.92V187.24H162.11ZM168.46 192.16H171.44C170.88 191.83 170.39 191.41 169.96 190.98C169.5 191.44 168.99 191.84 168.46 192.16ZM168.7 194.73H171.2V192.81H168.7V194.73ZM167.24 191.54V192.02C168.04 191.68 168.83 191.15 169.5 190.46C169.13 190.01 168.83 189.54 168.58 189.09C168.3 189.53 167.99 189.91 167.67 190.24C167.56 190.13 167.33 189.92 167.15 189.8V190.1H166V191.54H167.24ZM164.58 187.7V189.45H166.46V187.7H164.58ZM170.95 188.3H169.04L168.94 188.49C169.19 188.98 169.52 189.5 169.93 189.99C170.35 189.48 170.7 188.92 170.95 188.3ZM171.41 187.62L171.87 187.83C171.55 188.87 171.03 189.75 170.41 190.49C171.03 191.09 171.79 191.62 172.69 191.96C172.54 192.1 172.33 192.39 172.23 192.57C172.13 192.52 172.02 192.48 171.91 192.43V195.72H171.2V195.39H168.7V195.75H168.01V192.42C167.81 192.52 167.61 192.61 167.41 192.7C167.34 192.55 167.19 192.35 167.05 192.2H166V193.99C166.43 193.89 166.87 193.79 167.31 193.68L167.38 194.35C166.02 194.68 164.6 195.02 163.55 195.28L163.41 194.56L163.92 194.45V191.04H164.55V194.32L165.32 194.14V190.1H163.92V187.05H167.15V189.7C167.94 188.95 168.59 187.83 168.96 186.63L169.67 186.8C169.57 187.09 169.46 187.38 169.35 187.65H171.28L171.41 187.62ZM174 195V187.67H174.93V195H174ZM176.85 195V189.57H177.6L177.68 190.35H177.71C178.23 189.84 178.79 189.43 179.53 189.43C180.67 189.43 181.19 190.17 181.19 191.56V195H180.28V191.68C180.28 190.66 179.97 190.23 179.25 190.23C178.69 190.23 178.31 190.51 177.76 191.06V195H176.85ZM183.113 189.57V188.7C183.113 187.6 183.613 186.91 184.693 186.91C185.023 186.91 185.343 186.98 185.603 187.09L185.403 187.78C185.203 187.69 184.983 187.64 184.793 187.64C184.273 187.64 184.023 188.01 184.023 188.71V189.57H185.173V190.31H184.023V195H183.113V190.31H182.373V189.62L183.113 189.57ZM186.413 195V189.57H187.333V195H186.413ZM186.873 187.27C187.233 187.27 187.513 187.49 187.513 187.86C187.513 188.2 187.233 188.45 186.873 188.45C186.523 188.45 186.253 188.2 186.253 187.86C186.253 187.49 186.523 187.27 186.873 187.27ZM189.164 195V189.57H189.914L189.994 190.35H190.024C190.544 189.84 191.104 189.43 191.844 189.43C192.984 189.43 193.504 190.17 193.504 191.56V195H192.594V191.68C192.594 190.66 192.284 190.23 191.564 190.23C191.004 190.23 190.624 190.51 190.074 191.06V195H189.164ZM195.277 195V189.57H196.187V195H195.277ZM195.737 188.45C195.377 188.45 195.107 188.2 195.107 187.86C195.107 187.49 195.377 187.27 195.737 187.27C196.097 187.27 196.367 187.49 196.367 187.86C196.367 188.2 196.097 188.45 195.737 188.45ZM198.111 195V187.67H200.291C201.781 187.67 202.811 188.17 202.811 189.46C202.811 190.19 202.421 190.83 201.731 191.05V191.1C202.611 191.27 203.231 191.85 203.231 192.85C203.231 194.29 202.091 195 200.451 195H198.111ZM199.041 190.79H200.131C201.391 190.79 201.901 190.32 201.901 189.58C201.901 188.72 201.311 188.4 200.171 188.4H199.041V190.79ZM199.041 194.26H200.321C201.581 194.26 202.321 193.81 202.321 192.82C202.321 191.91 201.601 191.5 200.321 191.5H199.041V194.26ZM205.854 195.13C204.944 195.13 204.264 194.57 204.264 193.59C204.264 192.41 205.294 191.82 207.604 191.56C207.604 190.86 207.374 190.19 206.484 190.19C205.854 190.19 205.284 190.48 204.854 190.77L204.494 190.14C204.994 189.82 205.764 189.43 206.634 189.43C207.954 189.43 208.514 190.32 208.514 191.66V195H207.764L207.684 194.35H207.654C207.134 194.78 206.524 195.13 205.854 195.13ZM206.114 194.4C206.644 194.4 207.074 194.15 207.604 193.68V192.16C205.774 192.38 205.154 192.83 205.154 193.53C205.154 194.15 205.574 194.4 206.114 194.4ZM210.248 195V189.57H210.998L211.078 190.35H211.108C211.628 189.84 212.188 189.43 212.928 189.43C214.068 189.43 214.588 190.17 214.588 191.56V195H213.678V191.68C213.678 190.66 213.368 190.23 212.648 190.23C212.088 190.23 211.708 190.51 211.158 191.06V195H210.248ZM218.211 195.13C216.851 195.13 215.971 194.1 215.971 192.29C215.971 190.53 217.081 189.43 218.321 189.43C218.961 189.43 219.371 189.67 219.851 190.07L219.801 189.13V187.04H220.711V195H219.971L219.881 194.36H219.861C219.431 194.78 218.861 195.13 218.211 195.13ZM218.411 194.37C218.911 194.37 219.351 194.12 219.801 193.62V190.77C219.341 190.36 218.931 190.2 218.481 190.2C217.601 190.2 216.911 191.04 216.911 192.28C216.911 193.59 217.451 194.37 218.411 194.37ZM225.053 194.98L224.373 195.56C223.733 194.77 222.873 193.91 222.163 193.33L222.813 192.76C223.533 193.34 224.433 194.25 225.053 194.98ZM34.93 203.42V206.14H36.16C37.31 206.14 37.94 205.68 37.94 204.73C37.94 203.76 37.31 203.42 36.16 203.42H34.93ZM39.08 210H38.03L36.25 206.89H34.93V210H34V202.67H36.3C37.79 202.67 38.86 203.2 38.86 204.73C38.86 205.87 38.2 206.55 37.2 206.79L39.08 210ZM42.2702 210.13C40.9402 210.13 39.7502 209.09 39.7502 207.29C39.7502 205.48 40.9402 204.43 42.2702 204.43C43.6002 204.43 44.7902 205.48 44.7902 207.29C44.7902 209.09 43.6002 210.13 42.2702 210.13ZM42.2702 209.37C43.2102 209.37 43.8502 208.54 43.8502 207.29C43.8502 206.04 43.2102 205.19 42.2702 205.19C41.3302 205.19 40.7002 206.04 40.7002 207.29C40.7002 208.54 41.3302 209.37 42.2702 209.37ZM49.0747 210.13C47.2547 210.13 45.8847 208.72 45.8847 206.34C45.8847 203.97 47.2747 202.53 49.1347 202.53C50.0247 202.53 50.7247 202.97 51.1447 203.44L50.6447 204.04C50.2647 203.63 49.7747 203.34 49.1447 203.34C47.7547 203.34 46.8347 204.48 46.8347 206.31C46.8347 208.16 47.7147 209.32 49.1147 209.32C49.8147 209.32 50.3447 209.01 50.8147 208.5L51.3247 209.08C50.7447 209.75 50.0247 210.13 49.0747 210.13ZM52.6816 210V202.67H56.9116V203.45H53.6116V205.75H56.3916V206.54H53.6116V209.21H57.0216V210H52.6816ZM60.9705 209.98L60.2905 210.56C59.6505 209.77 58.7905 208.91 58.0805 208.33L58.7305 207.76C59.4505 208.34 60.3505 209.25 60.9705 209.98ZM76.9005 204.47H73.8105C74.5305 206.16 75.7905 207.74 77.1705 208.52C76.9805 208.68 76.7205 208.95 76.6005 209.15C75.1205 208.22 73.8305 206.42 73.0805 204.47H72.9405V208.16H75.2605V208.9H72.9405V210.76H72.1705V208.9H69.8505V208.16H72.1705V204.47H72.0105C71.2405 206.42 69.9505 208.2 68.5105 209.18C68.3905 209 68.1505 208.73 67.9805 208.59C69.3005 207.78 70.5305 206.16 71.2605 204.47H68.2405V203.73H72.1705V201.64H72.9405V203.73H76.9005V204.47ZM79.9905 204.73V207.62C80.3605 207.46 80.7405 207.29 81.1305 207.14L81.2805 207.8C80.2205 208.3 79.0905 208.79 78.2105 209.18L77.9205 208.44C78.2905 208.31 78.7705 208.12 79.2905 207.9V204.73H78.0105V204.02H79.2905V201.75H79.9905V204.02H81.1605V204.73H79.9905ZM83.3405 209.87H85.7505C86.3305 209.87 86.4305 209.6 86.5005 208.45C86.6805 208.58 86.9605 208.7 87.1705 208.74C87.0505 210.1 86.8205 210.54 85.7705 210.54H83.3205C82.1905 210.54 81.8505 210.27 81.8505 209.2V206.05L81.0605 206.38L80.7705 205.74L81.8505 205.28V202.56H82.5605V204.98L83.9005 204.41V201.63H84.6105V204.12L85.9305 203.56L86.0905 203.42L86.2305 203.31L86.7505 203.51L86.7105 203.65C86.7105 205.52 86.6905 207.01 86.6105 207.39C86.5605 207.8 86.3605 207.98 86.0805 208.05C85.8005 208.12 85.4205 208.12 85.1405 208.12C85.1105 207.92 85.0505 207.64 84.9605 207.48C85.2005 207.49 85.5205 207.49 85.6305 207.49C85.7805 207.49 85.8805 207.45 85.9305 207.23C85.9805 206.99 86.0005 205.88 86.0005 204.29L84.6105 204.88V208.55H83.9005V205.18L82.5605 205.75V209.21C82.5605 209.74 82.6905 209.87 83.3405 209.87ZM90.7969 210V202.67H91.7569L94.4269 207.29L95.2069 208.8H95.2569C95.2069 208.06 95.1369 207.24 95.1369 206.48V202.67H96.0169V210H95.0669L92.3969 205.37L91.6069 203.86H91.5669C91.6069 204.6 91.6769 205.38 91.6769 206.15V210H90.7969ZM99.3637 210L97.0237 202.67H97.9937L99.1837 206.64C99.4437 207.5 99.6137 208.2 99.8937 209.06H99.9337C100.204 208.2 100.384 207.5 100.644 206.64L101.824 202.67H102.764L100.434 210H99.3637ZM103.766 210V202.67H104.886L106.296 206.59C106.466 207.1 106.636 207.61 106.816 208.12H106.866C107.036 207.61 107.196 207.1 107.366 206.59L108.766 202.67H109.886V210H109.016V205.94C109.016 205.31 109.086 204.42 109.136 203.78H109.096L108.516 205.45L107.126 209.26H106.506L105.116 205.45L104.536 203.78H104.496C104.536 204.42 104.606 205.31 104.606 205.94V210H103.766ZM111.881 210V202.67H116.111V203.45H112.811V205.75H115.591V206.54H112.811V209.21H116.221V210H111.881ZM125.786 207.61V208.33H119.606V207.61H125.786ZM121.616 205.51H127.866C127.866 205.51 127.856 205.77 127.836 205.87C127.556 208.72 127.276 209.86 126.826 210.29C126.576 210.55 126.316 210.62 125.896 210.64C125.536 210.66 124.816 210.65 124.116 210.6C124.096 210.38 123.986 210.07 123.836 209.87C124.616 209.94 125.386 209.94 125.676 209.94C125.926 209.94 126.076 209.93 126.186 209.82C126.566 209.53 126.816 208.5 127.046 206.21H121.286L120.666 206.2C120.976 205.1 121.376 203.22 121.616 201.85L122.366 201.93C122.296 202.27 122.236 202.64 122.156 203.01H127.716V203.72H122.016C121.876 204.35 121.746 204.97 121.616 205.51ZM132.596 206.79H135.406V204.42H132.646V205.54C132.646 205.96 132.636 206.38 132.596 206.79ZM138.366 206.79V207.53H136.166V210.76H135.406V207.53H132.506C132.286 208.8 131.726 209.96 130.376 210.86C130.236 210.7 129.946 210.44 129.746 210.32C130.956 209.55 131.486 208.6 131.706 207.53H129.646V206.79H131.826C131.866 206.38 131.876 205.96 131.876 205.53V204.42H129.956V203.69H131.876V201.68H132.646V203.69H135.406V201.67H136.166V203.69H138.136V204.42H136.166V206.79H138.366ZM148.246 202.24V202.94H143.346V202.24H148.246ZM141.676 201.63L142.396 201.91C141.736 202.8 140.716 203.78 139.806 204.41C139.706 204.25 139.486 203.96 139.346 203.82C140.196 203.27 141.176 202.36 141.676 201.63ZM142.076 203.76L142.776 204.02C142.466 204.52 142.096 205.03 141.686 205.52V210.8H140.936V206.35C140.556 206.74 140.166 207.09 139.796 207.39C139.686 207.23 139.416 206.92 139.256 206.78C140.296 206.05 141.386 204.89 142.076 203.76ZM148.486 204.97V205.68H147.006V209.8C147.006 210.26 146.886 210.46 146.546 210.58C146.196 210.68 145.636 210.69 144.716 210.68C144.676 210.49 144.556 210.19 144.446 210C145.146 210.02 145.816 210.02 146.006 210.01C146.196 210 146.246 209.96 146.246 209.79V205.68H142.916V204.97H148.486ZM154.776 203.11L153.966 203.37C153.846 202.96 153.526 202.29 153.226 201.8L153.996 201.58C154.296 202.05 154.636 202.69 154.776 203.11ZM156.086 204.12H151.846C152.366 205.39 153.086 206.53 154.026 207.47C154.916 206.57 155.586 205.47 156.086 204.12ZM158.496 204.12H156.926C156.356 205.7 155.586 206.96 154.586 207.99C155.686 208.92 157.036 209.63 158.626 210.02C158.446 210.19 158.236 210.5 158.116 210.71C156.486 210.25 155.126 209.52 154.016 208.52C152.896 209.5 151.516 210.22 149.856 210.75C149.766 210.57 149.546 210.23 149.396 210.06C151.046 209.59 152.386 208.91 153.476 207.99C152.446 206.93 151.656 205.63 151.076 204.12H149.536V203.39H158.496V204.12ZM161.696 201.67L162.396 201.89C162.116 202.62 161.786 203.36 161.406 204.05V210.75H160.696V205.2C160.406 205.63 160.086 206.02 159.776 206.37C159.706 206.19 159.486 205.81 159.356 205.64C160.286 204.67 161.166 203.18 161.696 201.67ZM168.476 206.59V207.32H165.766V210.77H165.026V207.32H162.176V206.59H165.026V204.4H163.456C163.246 204.98 163.006 205.5 162.736 205.92C162.596 205.81 162.286 205.63 162.096 205.54C162.686 204.72 163.096 203.42 163.326 202.13L164.026 202.28C163.936 202.75 163.826 203.22 163.696 203.67H165.026V201.76H165.766V203.67H168.046V204.4H165.766V206.59H168.476ZM178.346 203.65H172.936C172.586 204.45 172.156 205.21 171.646 205.91V210.75H170.916V206.78C170.556 207.16 170.166 207.52 169.726 207.82C169.646 207.64 169.466 207.32 169.346 207.15C170.566 206.3 171.476 205.03 172.126 203.65H169.666V202.93H172.426C172.596 202.5 172.746 202.06 172.866 201.63L173.626 201.81C173.506 202.19 173.386 202.56 173.236 202.93H178.346V203.65ZM178.536 207.33V208.03H175.866V209.88C175.866 210.32 175.776 210.53 175.446 210.65C175.116 210.76 174.566 210.76 173.716 210.76C173.676 210.55 173.576 210.27 173.476 210.05C174.136 210.08 174.736 210.08 174.906 210.06C175.086 210.05 175.126 210.01 175.126 209.87V208.03H172.366V207.33H175.126V206.51C175.616 206.25 176.156 205.84 176.596 205.45H173.206V204.77H177.276L177.426 204.72L177.906 205.1C177.366 205.69 176.596 206.3 175.866 206.75V207.33H178.536ZM183.566 203.58L183.026 203.97C182.816 203.58 182.336 202.97 181.906 202.53L182.416 202.19C182.846 202.6 183.356 203.18 183.566 203.58ZM181.186 201.62L181.806 201.79C181.606 202.5 181.356 203.2 181.066 203.87V210.74H180.416V205.19C180.166 205.63 179.916 206.02 179.656 206.37C179.586 206.21 179.396 205.85 179.276 205.68C180.066 204.67 180.746 203.15 181.186 201.62ZM183.116 209.16L184.076 208.6C184.116 208.8 184.206 209.06 184.256 209.2C182.846 210.07 182.616 210.24 182.466 210.41C182.406 210.24 182.226 209.93 182.106 209.8C182.246 209.7 182.466 209.45 182.466 209.03V205.52H181.486V204.81H183.116V209.16ZM187.446 208V207H185.286V208H187.446ZM185.286 209.6H187.446V208.57H185.286V209.6ZM185.986 203.4V204.65H186.206C186.516 204.26 186.806 203.84 187.076 203.4H185.986ZM188.546 205.33H186.506C186.196 205.71 185.856 206.06 185.506 206.38H188.116V210.69H187.446V210.22H185.286V210.73H184.646V207.1C184.406 207.27 184.156 207.45 183.906 207.61C183.816 207.47 183.566 207.18 183.426 207.04C184.216 206.59 184.946 206.01 185.606 205.33H183.716V204.65H185.306V203.4H184.006V202.76H185.306V201.63H185.986V202.76H187.146V203.28C187.396 202.86 187.616 202.43 187.806 201.97L188.466 202.15C188.076 203.06 187.596 203.9 187.046 204.65H188.546V205.33ZM196.276 206.15H191.876C192.376 207.09 193.096 207.87 194.036 208.48C194.986 207.88 195.756 207.12 196.276 206.15ZM196.846 205.39L197.356 205.71C196.786 207.07 195.876 208.1 194.726 208.88C195.816 209.44 197.106 209.82 198.596 210C198.436 210.18 198.236 210.5 198.136 210.72C196.526 210.47 195.136 210.02 194.006 209.34C192.766 210.03 191.316 210.48 189.806 210.77C189.736 210.57 189.536 210.23 189.396 210.06C190.816 209.83 192.166 209.46 193.326 208.88C192.376 208.19 191.636 207.31 191.096 206.23L191.316 206.15H190.256V205.42H193.596V203.89H189.806V203.16H193.596V201.64H194.356V203.16H198.166V203.89H194.356V205.42H196.696L196.846 205.39ZM202.406 205.98L202.506 206.66L201.416 207.01V209.87C201.416 210.28 201.326 210.48 201.076 210.6C200.846 210.72 200.466 210.75 199.836 210.74C199.806 210.55 199.716 210.25 199.616 210.04C200.046 210.06 200.436 210.06 200.546 210.05C200.676 210.05 200.726 210.01 200.726 209.87V207.24C200.286 207.39 199.866 207.52 199.496 207.63L199.306 206.92C199.696 206.81 200.186 206.66 200.726 206.49V204.33H199.446V203.64H200.726V201.64H201.416V203.64H202.476V204.33H201.416V206.29L202.406 205.98ZM203.476 207.96L204.046 207.62C204.486 208.14 204.976 208.86 205.186 209.34L204.566 209.71C204.376 209.23 203.906 208.48 203.476 207.96ZM208.566 205.56H207.266V206.66H208.496V207.34H207.266V209.86C207.266 210.32 207.176 210.52 206.886 210.63C206.586 210.75 206.106 210.76 205.366 210.76C205.336 210.54 205.236 210.25 205.136 210.04C205.696 210.06 206.226 210.06 206.376 210.05C206.516 210.04 206.566 210 206.566 209.86V207.34H202.736V206.66H206.566V205.56H202.616V204.87H205.246V203.6H203.126V202.92H205.246V201.68H205.956V202.92H208.086V203.6H205.956V204.87H208.566V205.56ZM210.936 207.56C211.786 207.56 212.466 208.24 212.466 209.08C212.466 209.93 211.786 210.61 210.936 210.61C210.106 210.61 209.416 209.93 209.416 209.08C209.416 208.24 210.106 207.56 210.936 207.56ZM210.936 210.1C211.506 210.1 211.956 209.65 211.956 209.08C211.956 208.53 211.506 208.07 210.936 208.07C210.386 208.07 209.926 208.53 209.926 209.08C209.926 209.65 210.386 210.1 210.936 210.1Z" fill="#222222"/>
<g filter="url(#filter1_d_275_48)">
<mask id="path-4-inside-1_275_48" fill="white">
<path fill-rule="evenodd" clip-rule="evenodd" d="M59.1863 64.5661C59.1863 64.566 59.1862 64.5659 59.186 64.5659C53.7045 64.4958 49.2854 60.5615 49.2854 55.7184C49.2854 52.1721 51.6548 49.1131 55.0758 47.7016C56.3675 47.1687 57.4453 46.1598 58.088 44.919C60.0373 41.1555 64.3288 38.5417 69.3094 38.5417C76.1244 38.5417 81.649 43.4353 81.649 49.4717C81.649 49.6412 81.7622 49.7906 81.9252 49.837C85.3673 50.8171 87.8567 53.6623 87.8567 57.0194C87.8567 61.1876 84.0191 64.5666 79.2852 64.5666C79.2664 64.5666 79.2477 64.5665 79.2291 64.5664H59.4339C59.4009 64.5667 59.3679 64.5668 59.3348 64.5668C59.3017 64.5668 59.2687 64.5667 59.2357 64.5664H59.1865C59.1864 64.5664 59.1863 64.5663 59.1863 64.5661Z"/>
</mask>
<path d="M79.2291 64.5664L79.2435 61.9916L79.2363 61.9915H79.2291V64.5664ZM59.4339 64.5664V61.9915H59.423L59.412 61.9916L59.4339 64.5664ZM59.2357 64.5664L59.2575 61.9916L59.2466 61.9915H59.2357V64.5664ZM81.9252 49.837L82.6303 47.3605L81.9252 49.837ZM59.186 64.5659L59.1531 67.1406L59.186 64.5659ZM59.2189 61.9912C54.8327 61.9351 51.8603 58.8579 51.8603 55.7184H46.7105C46.7105 62.2652 52.5763 67.0565 59.1531 67.1406L59.2189 61.9912ZM51.8603 55.7184C51.8603 53.3952 53.4224 51.1692 56.0578 50.0819L54.0937 45.3214C49.8872 47.0569 46.7105 50.949 46.7105 55.7184H51.8603ZM60.3744 46.1032C61.8428 43.2683 65.2043 41.1166 69.3094 41.1166V35.9669C63.4532 35.9669 58.2319 39.0428 55.8016 43.7347L60.3744 46.1032ZM69.3094 41.1166C75.0048 41.1166 79.0742 45.142 79.0742 49.4717H84.2239C84.2239 41.7285 77.244 35.9669 69.3094 35.9669V41.1166ZM81.22 52.3134C83.7773 53.0416 85.2818 55.028 85.2818 57.0194H90.4316C90.4316 52.2965 86.9572 48.5926 82.6303 47.3605L81.22 52.3134ZM85.2818 57.0194C85.2818 59.4673 82.9147 61.9917 79.2852 61.9917V67.1415C85.1235 67.1415 90.4316 62.9078 90.4316 57.0194H85.2818ZM79.2852 61.9917C79.2713 61.9917 79.2575 61.9916 79.2435 61.9916L79.2146 67.1413C79.238 67.1414 79.2616 67.1415 79.2852 67.1415V61.9917ZM79.2291 61.9915H59.4339V67.1413H79.2291V61.9915ZM59.412 61.9916C59.3863 61.9918 59.3605 61.9919 59.3348 61.9919V67.1417C59.3752 67.1417 59.4155 67.1415 59.4558 67.1412L59.412 61.9916ZM59.3348 61.9919C59.309 61.9919 59.2833 61.9918 59.2575 61.9916L59.2138 67.1412C59.2541 67.1415 59.2944 67.1417 59.3348 67.1417V61.9919ZM59.2357 61.9915H59.1865V67.1413H59.2357V61.9915ZM59.1865 61.9915C60.6085 61.9915 61.7612 63.1442 61.7612 64.5661H56.6114C56.6114 65.9884 57.7643 67.1413 59.1865 67.1413V61.9915ZM56.0578 50.0819C57.9303 49.3093 59.4611 47.8665 60.3744 46.1032L55.8016 43.7347C55.4295 44.4531 54.8048 45.028 54.0937 45.3214L56.0578 50.0819ZM79.0742 49.4717C79.0742 50.7956 79.9543 51.953 81.22 52.3134L82.6303 47.3605C83.5701 47.6281 84.2239 48.4867 84.2239 49.4717H79.0742ZM59.1531 67.1406C57.7631 67.1228 56.6114 65.9942 56.6114 64.5661H61.7612C61.7612 63.1378 60.6092 62.009 59.2189 61.9912L59.1531 67.1406Z" fill="url(#paint0_linear_275_48)" mask="url(#path-4-inside-1_275_48)"/>
</g>
<g filter="url(#filter2_d_275_48)">
<mask id="path-6-inside-2_275_48" fill="white">
<path fill-rule="evenodd" clip-rule="evenodd" d="M54.5754 69.7699C54.5754 69.7694 54.5751 69.7691 54.5746 69.7691C46.4261 69.6596 39.8569 63.4959 39.8569 55.9086C39.8569 49.979 43.8691 44.919 49.5117 42.9386C50.8335 42.4747 51.909 41.4504 52.428 40.1492C55.025 33.638 61.7443 29 69.6241 29C79.7549 29 87.9676 36.6665 87.9676 46.1236C87.9676 46.3897 88.1436 46.6247 88.3983 46.7016C93.5042 48.2429 97.1946 52.6952 97.1946 57.9473C97.1946 64.4772 91.49 69.7708 84.453 69.7708C84.4358 69.7708 84.4185 69.7707 84.4013 69.7707H54.5762C54.5758 69.7707 54.5754 69.7703 54.5754 69.7699Z"/>
</mask>
<path d="M84.4013 69.7707L84.411 67.1958H84.4013V69.7707ZM88.3983 46.7016L89.1425 44.2365L88.3983 46.7016ZM54.5746 69.7691L54.6093 67.1944L54.5746 69.7691ZM54.6093 67.1944C47.6861 67.1014 42.4318 61.911 42.4318 55.9086H37.282C37.282 65.0809 45.1662 72.2178 54.54 72.3437L54.6093 67.1944ZM42.4318 55.9086C42.4318 51.2039 45.6237 47.032 50.3644 45.3682L48.659 40.509C42.1145 42.8059 37.282 48.7541 37.282 55.9086H42.4318ZM54.8196 41.1031C57.0077 35.6173 62.7472 31.5749 69.6241 31.5749V26.4251C60.7415 26.4251 53.0423 31.6588 50.0363 39.1953L54.8196 41.1031ZM69.6241 31.5749C78.5026 31.5749 85.3927 38.2526 85.3927 46.1236H90.5425C90.5425 35.0804 81.0072 26.4251 69.6241 26.4251V31.5749ZM87.6542 49.1666C91.8118 50.4217 94.6198 53.9692 94.6198 57.9473H99.7695C99.7695 51.4212 95.1967 46.0642 89.1425 44.2365L87.6542 49.1666ZM94.6198 57.9473C94.6198 62.8772 90.2527 67.1959 84.453 67.1959V72.3457C92.7274 72.3457 99.7695 66.0773 99.7695 57.9473H94.6198ZM84.453 67.1959C84.4388 67.1959 84.4248 67.1959 84.411 67.1958L84.3916 72.3456C84.4123 72.3456 84.4328 72.3457 84.453 72.3457V67.1959ZM84.4013 67.1958H54.5762V72.3456H84.4013V67.1958ZM54.5762 67.1958C55.9996 67.1958 57.1503 68.35 57.1503 69.7699H52.0005C52.0005 71.1907 53.152 72.3456 54.5762 72.3456V67.1958ZM50.3644 45.3682C52.3819 44.6601 54.0224 43.1018 54.8196 41.1031L50.0363 39.1953C49.7955 39.799 49.2852 40.2892 48.659 40.509L50.3644 45.3682ZM85.3927 46.1236C85.3927 47.5354 86.3223 48.7645 87.6542 49.1666L89.1425 44.2365C89.9649 44.4848 90.5425 45.244 90.5425 46.1236H85.3927ZM54.54 72.3437C53.1508 72.3251 52.0005 71.1968 52.0005 69.7699H57.1503C57.1503 68.3421 55.9993 67.2131 54.6093 67.1944L54.54 72.3437Z" fill="url(#paint1_linear_275_48)" mask="url(#path-6-inside-2_275_48)"/>
</g>
<path d="M33 100.142V90.5807C33 90.1067 33.3843 89.7224 33.8583 89.7224H52.7136C53.1877 89.7224 53.5719 90.1067 53.5719 90.5807V100.142C53.5719 100.616 53.1877 101 52.7136 101H33.8583C33.3843 101 33 100.616 33 100.142Z" stroke="url(#paint2_linear_275_48)" stroke-width="2.57489" stroke-linecap="round" stroke-linejoin="bevel"/>
<path d="M69.4282 68.9033V78.4454M69.4282 78.4454H45.0022C44.0542 78.4454 43.2856 79.214 43.2856 80.162V86.6864M69.4282 78.4454H92.997C93.945 78.4454 94.7136 79.214 94.7136 80.162V86.6864" stroke="url(#paint3_linear_275_48)" stroke-width="2.57489" stroke-linecap="round" stroke-linejoin="bevel"/>
<path d="M84.4277 100.142V90.5807C84.4277 90.1067 84.812 89.7224 85.286 89.7224H104.141C104.615 89.7224 105 90.1067 105 90.5807V100.142C105 100.616 104.615 101 104.141 101H85.286C84.812 101 84.4277 100.616 84.4277 100.142Z" stroke="url(#paint4_linear_275_48)" stroke-width="2.57489" stroke-linecap="round" stroke-linejoin="bevel"/>
<defs>
<filter id="filter0_d_275_48" x="0.820253" y="0.253446" width="269.849" height="269.849" filterUnits="userSpaceOnUse" color-interpolation-filters="sRGB">
<feFlood flood-opacity="0" result="BackgroundImageFix"/>
<feColorMatrix in="SourceAlpha" type="matrix" values="0 0 0 0 0 0 0 0 0 0 0 0 0 0 0 0 0 0 127 0" result="hardAlpha"/>
<feMorphology radius="0.858298" operator="dilate" in="SourceAlpha" result="effect1_dropShadow_275_48"/>
<feOffset dy="3.43319"/>
<feGaussianBlur stdDeviation="2.66072"/>
<feComposite in2="hardAlpha" operator="out"/>
<feColorMatrix type="matrix" values="0 0 0 0 0.794815 0 0 0 0 0.857965 0 0 0 0 0.966667 0 0 0 1 0"/>
<feBlend mode="normal" in2="BackgroundImageFix" result="effect1_dropShadow_275_48"/>
<feBlend mode="normal" in="SourceGraphic" in2="effect1_dropShadow_275_48" result="shape"/>
</filter>
<filter id="filter1_d_275_48" x="49.2854" y="37.6473" width="39.913" height="26.9196" filterUnits="userSpaceOnUse" color-interpolation-filters="sRGB">
<feFlood flood-opacity="0" result="BackgroundImageFix"/>
<feColorMatrix in="SourceAlpha" type="matrix" values="0 0 0 0 0 0 0 0 0 0 0 0 0 0 0 0 0 0 127 0" result="hardAlpha"/>
<feOffset dx="1.34171" dy="-0.894472"/>
<feComposite in2="hardAlpha" operator="out"/>
<feColorMatrix type="matrix" values="0 0 0 0 0.934912 0 0 0 0 0.977219 0 0 0 0 1 0 0 0 1 0"/>
<feBlend mode="normal" in2="BackgroundImageFix" result="effect1_dropShadow_275_48"/>
<feBlend mode="normal" in="SourceGraphic" in2="effect1_dropShadow_275_48" result="shape"/>
</filter>
<filter id="filter2_d_275_48" x="39.8569" y="28.1055" width="58.6794" height="41.6652" filterUnits="userSpaceOnUse" color-interpolation-filters="sRGB">
<feFlood flood-opacity="0" result="BackgroundImageFix"/>
<feColorMatrix in="SourceAlpha" type="matrix" values="0 0 0 0 0 0 0 0 0 0 0 0 0 0 0 0 0 0 127 0" result="hardAlpha"/>
<feOffset dx="1.34171" dy="-0.894472"/>
<feComposite in2="hardAlpha" operator="out"/>
<feColorMatrix type="matrix" values="0 0 0 0 0.934912 0 0 0 0 0.977219 0 0 0 0 1 0 0 0 1 0"/>
<feBlend mode="normal" in2="BackgroundImageFix" result="effect1_dropShadow_275_48"/>
<feBlend mode="normal" in="SourceGraphic" in2="effect1_dropShadow_275_48" result="shape"/>
</filter>
<linearGradient id="paint0_linear_275_48" x1="68.571" y1="38.5417" x2="68.571" y2="64.5666" gradientUnits="userSpaceOnUse">
<stop stop-color="#28BEE3"/>
<stop offset="0.955" stop-color="#337EFF"/>
</linearGradient>
<linearGradient id="paint1_linear_275_48" x1="68.5259" y1="29" x2="68.5259" y2="69.7709" gradientUnits="userSpaceOnUse">
<stop stop-color="#28BEE3"/>
<stop offset="0.955" stop-color="#337EFF"/>
</linearGradient>
<linearGradient id="paint2_linear_275_48" x1="43.286" y1="89.7224" x2="43.286" y2="101" gradientUnits="userSpaceOnUse">
<stop stop-color="#28BEE3"/>
<stop offset="0.955" stop-color="#337EFF"/>
</linearGradient>
<linearGradient id="paint3_linear_275_48" x1="68.9996" y1="68.9033" x2="68.9996" y2="86.6864" gradientUnits="userSpaceOnUse">
<stop stop-color="#28BEE3"/>
<stop offset="0.955" stop-color="#337EFF"/>
</linearGradient>
<linearGradient id="paint4_linear_275_48" x1="94.7137" y1="89.7224" x2="94.7137" y2="101" gradientUnits="userSpaceOnUse">
<stop stop-color="#28BEE3"/>
<stop offset="0.955" stop-color="#337EFF"/>
</linearGradient>
</defs>
</svg>
