<svg width="271" height="271" viewBox="0 0 271 271" fill="none" xmlns="http://www.w3.org/2000/svg">
<g filter="url(#filter0_d_275_51)">
<rect x="7" y="3.38794" width="257.489" height="257.489" rx="4.29149" fill="white"/>
</g>
<path d="M29.24 154.16H30.76C30.776 154.032 30.776 153.92 30.776 153.808V153.12H29.976C29.752 153.504 29.496 153.856 29.24 154.16ZM35.08 157.184L33.736 158.4C33.288 158 32.392 157.344 31.672 156.848C31.096 157.664 30.168 158.48 28.728 159.152C28.472 158.768 27.944 158.176 27.528 157.872C29.16 157.232 29.976 156.448 30.376 155.648H27.72V154.16H28.792C28.408 153.92 27.896 153.632 27.576 153.472C28.392 152.704 29.016 151.536 29.336 150.352L31.016 150.704C30.92 151.008 30.824 151.328 30.696 151.648H34.664V153.12H32.584V153.84C32.584 153.952 32.584 154.048 32.568 154.16H35.032V155.648H32.392C33.064 156 34.664 156.912 35.08 157.184ZM38.328 160.128H31.72V161.024H38.328V160.128ZM31.72 163.344H38.328V162.4H31.72V163.344ZM29.848 165.392V158.64H40.28V165.376H38.328V164.864H31.72V165.392H29.848ZM39.768 156V153.296H37.336V156H39.768ZM35.576 151.616H41.656V157.68H35.576V151.616ZM53.384 156.096V155.472H51.016V154.352H53.384V153.824H51.464V152.72H53.384V152.224H51.144V151.12H53.384V150.448H55.16V151.12H57.592V152.224H55.16V152.72H57.336V153.824H55.16V154.352H57.896V155.472H55.16V156.096H53.384ZM56.696 156.32V160.96H51.528C52.088 161.328 52.68 161.792 52.984 162.16L51.784 163.232C51.432 162.752 50.6 162.08 49.912 161.664L50.712 160.96H45.128V159.76H54.824V159.168H45.768V158.064H54.824V157.504H45.224V156.32H56.696ZM46.552 156.096V155.472H43.992V154.352H46.552V153.824H44.584V152.72H46.552V152.224H44.2V151.12H46.552V150.448H48.296V151.12H50.408V152.224H48.296V152.72H50.232V153.824H48.296V154.352H50.568V155.472H48.296V156.096H46.552ZM45.512 165.04L43.848 164.112C44.424 163.424 44.936 162.384 45.208 161.456L46.856 162.16C46.52 163.104 46.088 164.272 45.512 165.04ZM50.264 163.6H52.936C53.624 163.6 53.752 163.424 53.832 162.24C54.232 162.512 54.968 162.736 55.48 162.832C55.256 164.672 54.744 165.152 53.096 165.152H50.072C47.88 165.152 47.32 164.672 47.32 163.136V161.424H49.208V163.104C49.208 163.536 49.368 163.6 50.264 163.6ZM55.256 161.776L57.016 161.312C57.64 162.288 58.296 163.584 58.536 164.464L56.648 164.992C56.44 164.144 55.848 162.784 55.256 161.776ZM73.256 151.264V153.024H65.096V151.264H73.256ZM65.144 162.176V162.048C65.112 162.096 65.096 162.128 65.096 162.176C65 161.76 64.664 160.816 64.424 160.288C64.76 160.192 65.032 159.904 65.352 159.456C65.624 159.088 66.312 157.888 66.84 156.56H64.024V154.784H74.296V156.56H69.144C68.6 157.744 67.864 158.96 67.16 159.984L71.016 159.68C70.616 158.976 70.232 158.272 69.864 157.648L71.448 156.928C72.328 158.4 73.576 160.4 74.168 161.6L72.456 162.48C72.312 162.144 72.12 161.744 71.912 161.312C66.568 161.824 65.752 161.92 65.144 162.176ZM64.008 153.12L62.664 154.48C62.072 153.904 60.792 152.928 59.912 152.24L61.16 151.04C62.024 151.648 63.352 152.56 64.008 153.12ZM63.4 155.888V162.032C63.672 162.192 64.008 162.432 64.44 162.688C65.512 163.328 66.936 163.408 68.68 163.408C70.296 163.408 72.984 163.264 74.648 163.024C74.424 163.568 74.088 164.56 74.072 165.12C72.872 165.184 70.344 165.28 68.6 165.28C66.6 165.28 65.32 165.088 64.184 164.448C63.544 164.096 63 163.616 62.664 163.616C62.168 163.616 61.4 164.608 60.728 165.568L59.416 163.712C60.104 163.024 60.84 162.464 61.528 162.128V157.648H59.576V155.888H63.4ZM78.472 158.944L81.176 158.512C81.096 158.992 81.096 159.712 81.112 160.096C77.16 160.848 76.504 161.024 76.088 161.28C76.008 160.928 75.72 160.128 75.528 159.696C75.928 159.6 76.296 159.216 76.792 158.64C77.032 158.384 77.48 157.776 78.008 157.024C76.6 157.184 76.2 157.28 75.96 157.408C75.864 157.04 75.576 156.192 75.368 155.712C75.704 155.632 75.976 155.296 76.328 154.768C76.68 154.272 77.736 152.272 78.296 150.4L79.992 151.2C79.4 152.688 78.52 154.256 77.64 155.536L79 155.44C79.352 154.832 79.688 154.208 79.976 153.584L81.464 154.496C80.616 156.048 79.576 157.6 78.472 158.944ZM75.912 164.688L75.56 162.88C77.016 162.608 79.24 162.08 81.384 161.6L81.56 163.184C79.608 163.712 77.512 164.256 75.912 164.688ZM84.104 161.152V162.592H86.056V161.152H84.104ZM86.056 156.4V155.008H84.104V156.4H86.056ZM86.056 159.44V158.096H84.104V159.44H86.056ZM90.424 162.592V164.368H84.104V165.408H82.312V157.184C82.104 157.456 81.88 157.728 81.656 157.984C81.496 157.504 81.112 156.656 80.84 156.208C82.04 154.752 83.112 152.352 83.608 150.512L85.432 151.024C85.176 151.776 84.888 152.528 84.536 153.296H86.584C86.376 152.672 85.992 151.84 85.608 151.2L87.224 150.528C87.688 151.216 88.152 152.144 88.36 152.752L87.176 153.296H90.216V155.008H87.832V156.4H89.848V158.096H87.832V159.44H89.88V161.152H87.832V162.592H90.424ZM95.08 152.912H94.44C94.04 153.632 93.592 154.256 93.144 154.752C92.76 154.512 91.944 154.096 91.496 153.904C92.392 153.04 93.176 151.68 93.592 150.336L95.464 150.688C95.352 150.976 95.24 151.28 95.096 151.584H98.92V152.912H96.952C97.24 153.328 97.48 153.728 97.608 154.032L95.992 154.624C95.848 154.176 95.448 153.504 95.08 152.912ZM102.824 162.672H96.072V163.568H102.824V162.672ZM102.024 158.352H96.072V159.184H102.024V158.352ZM96.072 160.544V161.28H104.728V165.408H102.824V164.976H96.072V165.408H94.136V156.976H103.88V160.544H96.072ZM97.752 154L99.448 153.664C99.688 154.016 99.928 154.496 100.088 154.896H105.88V157.68H103.928V156.32H94.056V157.68H92.216V154.896H98.168C98.056 154.592 97.912 154.256 97.752 154ZM101.944 151.6H106.2V152.912H103.992C104.28 153.296 104.552 153.664 104.712 153.952L103.112 154.672C102.936 154.192 102.44 153.504 101.96 152.912H101.304C101.032 153.392 100.728 153.824 100.408 154.16C100.056 153.92 99.272 153.536 98.84 153.344C99.576 152.608 100.136 151.456 100.44 150.336L102.28 150.672C102.184 150.976 102.072 151.296 101.944 151.6ZM112.744 160.4L113.064 162.192C111.304 162.816 109.384 163.424 107.848 163.92L107.416 161.984C107.976 161.84 108.632 161.664 109.368 161.456V157.696H107.752V155.952H109.368V153.136H107.608V151.36H112.888V153.136H111.176V155.952H112.616V157.696H111.176V160.896C111.704 160.736 112.232 160.576 112.744 160.4ZM115.208 155.568V156.944H116.856V155.568H115.208ZM115.208 152.736V154.064H116.856V152.736H115.208ZM120.04 154.064V152.736H118.456V154.064H120.04ZM120.04 156.944V155.568H118.456V156.944H120.04ZM118.632 163.168H122.568V164.896H112.28V163.168H116.696V161.648H113.384V159.936H116.696V158.56H113.496V151.12H121.848V158.56H118.632V159.936H122.024V161.648H118.632V163.168Z" fill="#222222"/>
<path opacity="0.8" d="M36.46 186.53V187.26H32.36V190.76H31.6V187.26H27.56V186.53H31.6V183.04H28.08V182.31H35.9V183.04H32.36V186.53H36.46ZM28.78 183.73L29.43 183.53C29.84 184.25 30.25 185.19 30.38 185.78L29.68 186.02C29.54 185.43 29.16 184.46 28.78 183.73ZM34.08 186.05L33.45 185.84C33.82 185.22 34.28 184.2 34.53 183.48L35.31 183.7C34.95 184.5 34.47 185.45 34.08 186.05ZM44.4 187.29H39.57V189.5H44.4V187.29ZM38.82 190.76V186.58H45.18V190.74H44.4V190.22H39.57V190.76H38.82ZM42.98 183.15L43.57 182.77C44.54 183.62 45.69 184.84 46.21 185.67L45.58 186.12C45.43 185.86 45.22 185.57 44.97 185.26C39.26 185.58 38.68 185.6 38.29 185.74C38.26 185.58 38.13 185.21 38.05 185.01C38.27 184.97 38.53 184.75 38.86 184.42C39.22 184.1 40.38 182.84 41.16 181.6L41.89 181.93C41.1 183.01 40.21 184.04 39.33 184.87L44.43 184.62C43.97 184.1 43.46 183.58 42.98 183.15ZM55.41 186H53.69C52.75 186 52.51 185.77 52.51 184.96V181.66H53.23V183.33C54.08 183.05 54.98 182.68 55.55 182.39L56.05 182.93C55.26 183.3 54.19 183.65 53.23 183.94V184.95C53.23 185.26 53.31 185.33 53.76 185.33H55.35C55.73 185.33 55.8 185.16 55.85 184.17C56 184.3 56.3 184.41 56.51 184.46C56.42 185.66 56.2 186 55.41 186ZM48.73 188.15H50.84V187.24H48.73V188.15ZM50.84 185.8H48.73V186.65H50.84V185.8ZM51.57 185.17V189.91C51.57 190.29 51.5 190.49 51.22 190.61C50.95 190.73 50.52 190.74 49.89 190.74C49.85 190.54 49.75 190.25 49.65 190.06C50.12 190.08 50.54 190.07 50.67 190.06C50.81 190.06 50.84 190.03 50.84 189.9V188.73H48.73V190.76H48.04V185.17H51.57ZM50.13 182.48L50.74 182.23C51.25 182.9 51.81 183.8 52.02 184.39L51.37 184.68C51.31 184.52 51.24 184.35 51.15 184.15C48.42 184.35 48.08 184.4 47.86 184.48C47.82 184.33 47.71 183.96 47.62 183.78C47.77 183.74 47.91 183.6 48.08 183.39C48.25 183.18 48.8 182.39 49.12 181.61L49.88 181.85C49.54 182.51 49.09 183.19 48.66 183.72L50.85 183.59C50.63 183.2 50.37 182.81 50.13 182.48ZM53.79 190.02H55.4C55.81 190.02 55.89 189.82 55.94 188.71C56.1 188.82 56.39 188.94 56.6 188.98C56.51 190.33 56.29 190.68 55.46 190.68H53.72C52.76 190.68 52.51 190.45 52.51 189.63V186.28H53.24V187.85C54.14 187.56 55.11 187.18 55.67 186.81L56.16 187.36C55.4 187.81 54.25 188.19 53.24 188.47V189.63C53.24 189.96 53.33 190.02 53.79 190.02ZM65.3 183.04H63.71C63.32 183.52 62.84 183.98 62.26 184.38C62.15 184.22 61.92 184.03 61.76 183.93C62.79 183.28 63.47 182.38 63.83 181.65L64.52 181.76C64.41 181.99 64.29 182.2 64.14 182.43H65.63L65.77 182.4L66.23 182.6C65.58 184.58 64.02 185.75 62.3 186.34C62.21 186.17 62.04 185.94 61.9 185.8C62.55 185.6 63.19 185.3 63.75 184.89C63.49 184.65 63.16 184.4 62.88 184.2L63.37 183.82C63.65 184 63.99 184.24 64.25 184.46C64.68 184.05 65.04 183.59 65.3 183.04ZM59.73 185.28H58.69V187.62H59.73V185.28ZM61.66 182.9V183.29C61.58 188.09 61.52 189.62 61.2 190.08C61.01 190.35 60.82 190.43 60.52 190.47C60.24 190.51 59.78 190.5 59.32 190.47C59.31 190.27 59.23 189.97 59.11 189.78C59.6 189.82 60.04 189.82 60.24 189.82C60.4 189.83 60.48 189.79 60.57 189.65C60.8 189.34 60.88 187.84 60.96 183.59H58.85C58.66 183.98 58.46 184.34 58.26 184.66H60.32V188.24H58.69V188.94H58.09V184.91C58.04 184.97 58 185.03 57.95 185.09C57.82 184.98 57.5 184.79 57.33 184.69C57.95 183.96 58.49 182.82 58.81 181.69L59.51 181.86C59.41 182.21 59.29 182.56 59.15 182.9H61.66ZM66.18 186.27L66.64 186.46C65.95 188.95 64.17 190.18 62 190.77C61.92 190.59 61.75 190.3 61.61 190.16C62.56 189.94 63.45 189.55 64.18 188.98C63.88 188.68 63.48 188.34 63.12 188.09L63.64 187.7C63.98 187.93 64.38 188.25 64.69 188.53C65.13 188.08 65.48 187.55 65.73 186.93H64.04C63.56 187.45 62.96 187.95 62.22 188.38C62.12 188.22 61.9 187.98 61.76 187.89C62.98 187.23 63.83 186.3 64.24 185.5L64.95 185.62C64.84 185.85 64.69 186.08 64.53 186.31H65.89V186.3H66.04L66.18 186.27ZM68.67 183.47V184.79H67.94V182.77H71.8C71.67 182.46 71.48 182.09 71.3 181.8L72.03 181.57C72.27 181.94 72.54 182.42 72.68 182.77H76.08V184.79H75.32V183.47H68.67ZM71.35 185.07L70.88 185.6C70.59 185.26 69.96 184.77 69.42 184.45L69.87 183.98C70.4 184.27 71.04 184.72 71.35 185.07ZM68.44 185.99L68.87 185.49C69.42 185.79 70.11 186.25 70.43 186.59L69.98 187.15C69.66 186.79 68.99 186.31 68.44 185.99ZM72.37 188.9L72.73 188.36C74.06 188.84 75.46 189.53 76.27 190.13L75.82 190.7C75.02 190.09 73.69 189.4 72.37 188.9ZM72.41 187.43H76.31V188.08H72.18C71.61 189.35 70.49 190.22 68.27 190.73C68.19 190.53 68.01 190.25 67.85 190.09C69.75 189.69 70.77 189.04 71.32 188.08H67.75V187.43H71.62C71.93 186.51 71.99 185.38 72.03 183.97H72.8C72.76 185.33 72.68 186.47 72.41 187.43ZM82.03 182.78V187.4H81.32V182.12H85.78V187.4H85.05V182.78H82.03ZM80.92 188L81.02 188.69L77.63 189.7L77.47 188.98C77.87 188.87 78.37 188.75 78.91 188.59V185.87H77.73V185.18H78.91V183.01H77.59V182.31H80.87V183.01H79.63V185.18H80.67V185.87H79.63V188.38C80.05 188.27 80.49 188.13 80.92 188ZM84.64 189.94H85.45C85.81 189.94 85.86 189.67 85.91 188.26C86.09 188.39 86.32 188.5 86.51 188.54C86.42 190.11 86.31 190.5 85.45 190.5H84.54C83.86 190.5 83.59 190.32 83.59 189.66V187.56C83.24 188.75 82.45 189.94 80.8 190.79C80.71 190.65 80.48 190.36 80.33 190.25C82.84 188.97 83.15 187.09 83.15 185.54V183.62H83.85V185.56C83.85 186.1 83.81 186.66 83.67 187.24H84.28V189.59C84.28 189.87 84.36 189.94 84.64 189.94ZM90.35 183.01L89.96 183.59C89.51 183.24 88.6 182.78 87.88 182.51L88.25 181.99C88.97 182.24 89.89 182.67 90.35 183.01ZM90.41 184.17L90.52 184.82C89.56 185.14 88.54 185.48 87.74 185.74L87.53 185.05C88.25 184.85 89.33 184.51 90.41 184.17ZM95.26 188.99H94.51V186.97H89.58V189.06H88.85V186.29H95.26V188.99ZM91.74 187.26H92.46C92.13 189.25 91.21 190.32 87.86 190.79C87.81 190.62 87.65 190.33 87.53 190.18C90.69 189.79 91.44 188.91 91.74 187.26ZM92.16 189.23L92.57 188.69C93.79 189.07 95.45 189.68 96.32 190.12L95.88 190.73C95.05 190.29 93.4 189.64 92.16 189.23ZM95.24 183.14H93.76C93.71 183.32 93.65 183.48 93.59 183.65C94.14 184.51 95.21 185.18 96.46 185.45C96.3 185.58 96.11 185.85 96.01 186.03C94.9 185.72 93.93 185.08 93.3 184.23C92.83 185.04 92.05 185.69 90.67 186.1C90.6 185.94 90.41 185.69 90.27 185.56C92.04 185.08 92.72 184.17 93.01 183.14H91.83C91.55 183.54 91.21 183.93 90.79 184.28C90.67 184.11 90.43 183.91 90.27 183.82C91.07 183.2 91.59 182.36 91.84 181.67L92.55 181.77C92.45 182.03 92.33 182.29 92.19 182.55H95.57L95.69 182.52L96.23 182.67C95.98 183.22 95.67 183.82 95.43 184.21L94.78 184.02C94.93 183.79 95.08 183.46 95.24 183.14ZM100 182.81L99.56 183.4C99.18 183.1 98.44 182.61 97.9 182.26L98.33 181.75C98.87 182.06 99.62 182.52 100 182.81ZM99.53 185.41L99.09 186.01C98.71 185.72 97.97 185.25 97.41 184.94L97.84 184.42C98.38 184.72 99.14 185.14 99.53 185.41ZM99.14 187.01L99.72 187.42C99.31 188.47 98.75 189.7 98.28 190.62L97.62 190.21C98.06 189.44 98.68 188.13 99.14 187.01ZM101.12 182.8V184.85C101.12 186.59 100.95 189.06 99.77 190.73C99.65 190.6 99.33 190.41 99.16 190.34C100.29 188.74 100.39 186.49 100.39 184.85V182.12H106.47V182.8H101.12ZM102.04 187.94L102.71 188.12C102.38 188.85 101.88 189.65 101.45 190.17C101.31 190.06 101.03 189.89 100.85 189.79C101.31 189.31 101.75 188.6 102.04 187.94ZM102.36 185.93V186.81H105.4V185.93H102.36ZM102.36 184.52V185.39H105.4V184.52H102.36ZM106.09 187.38H104.19V189.99C104.19 190.36 104.13 190.55 103.85 190.66C103.58 190.77 103.16 190.77 102.49 190.76C102.46 190.57 102.37 190.31 102.28 190.12C102.76 190.14 103.2 190.13 103.31 190.13C103.44 190.12 103.48 190.09 103.48 189.98V187.38H101.69V183.95H103.2C103.31 183.63 103.43 183.22 103.49 182.94L104.32 183.11C104.18 183.4 104.04 183.69 103.91 183.95H106.09V187.38ZM104.86 188.11L105.5 187.86C105.89 188.47 106.39 189.29 106.64 189.77L105.96 190.07C105.74 189.57 105.25 188.74 104.86 188.11ZM112.47 182.78V187.39H111.76V182.12H115.96V187.39H115.23V182.78H112.47ZM111.35 188.74L110.83 189.3C110.6 188.91 110.02 188.15 109.58 187.6C109.35 188.71 108.87 189.82 107.92 190.66C107.83 190.51 107.58 190.26 107.4 190.15C108.62 189.16 108.97 187.63 109.07 186.29H107.46V185.59H109.1C109.11 185.38 109.11 185.16 109.11 184.97V183.98H107.68V183.29H109.11V181.74H109.81V183.29H111.17V183.98H109.81V184.96C109.81 185.16 109.81 185.38 109.8 185.59H111.28V186.29H109.77C109.75 186.47 109.73 186.65 109.71 186.84C110.1 187.25 111.11 188.44 111.35 188.74ZM114.85 189.96H115.55C115.86 189.96 115.91 189.7 115.95 188.32C116.13 188.46 116.38 188.57 116.56 188.61C116.48 190.16 116.36 190.55 115.54 190.55H114.75C114.1 190.55 113.84 190.37 113.84 189.7V187.83C113.45 188.91 112.67 189.97 111.16 190.76C111.07 190.61 110.83 190.32 110.7 190.22C113.2 188.94 113.51 187.07 113.51 185.53V183.63H114.21V185.54C114.21 186.03 114.17 186.56 114.05 187.1H114.51V189.63C114.51 189.9 114.59 189.96 114.85 189.96ZM117.61 186.62L118.01 186.12C118.61 186.38 119.45 186.78 119.88 187.03L119.47 187.6C119.05 187.33 118.22 186.91 117.61 186.62ZM120.44 185.3L120.01 185.85C119.6 185.56 118.79 185.06 118.19 184.73L118.62 184.25C119.19 184.55 120.02 185.01 120.44 185.3ZM118.3 190.74L117.78 190.13C118.44 189.54 119.42 188.53 120.18 187.63L120.59 188.18C119.91 189.02 119.04 189.98 118.3 190.74ZM123.37 183.19H120.6V184.15H119.85V183.19H117.62V182.5H119.85V181.64H120.6V182.5H123.37V181.64H124.12V182.5H126.41V183.19H124.12V184.15H123.37V183.19ZM122.67 189.89H125.1C125.68 189.89 125.78 189.66 125.85 188.54C126.04 188.66 126.34 188.79 126.56 188.84C126.45 190.2 126.2 190.59 125.12 190.59H122.63C121.47 190.59 121.11 190.34 121.11 189.33V184.6H125.67V187.12C125.67 187.54 125.58 187.75 125.25 187.87C124.9 187.99 124.35 188 123.51 188C123.46 187.78 123.33 187.49 123.22 187.29C123.93 187.31 124.53 187.31 124.71 187.3C124.9 187.29 124.94 187.25 124.94 187.12V185.31H121.87V189.33C121.87 189.79 122 189.89 122.67 189.89ZM130.15 181.64L130.88 181.87C130.6 182.55 130.25 183.22 129.87 183.84V190.77H129.1V185C128.73 185.49 128.35 185.94 127.95 186.31C127.86 186.15 127.61 185.76 127.46 185.6C128.52 184.65 129.54 183.17 130.15 181.64ZM133.53 189.85H135.17C135.7 189.85 135.77 189.42 135.85 187.72C136.05 187.87 136.36 188.03 136.58 188.08C136.48 189.94 136.26 190.58 135.21 190.58H133.45C132.45 190.58 132.17 190.28 132.17 189.17V187.45C131.71 187.75 131.24 188.02 130.78 188.25C130.66 188.1 130.42 187.84 130.23 187.69C130.87 187.38 131.53 186.99 132.17 186.55V181.82H132.95V185.96C133.99 185.13 134.94 184.15 135.63 183.08L136.36 183.56C135.45 184.83 134.23 185.98 132.95 186.91V189.19C132.95 189.74 133.05 189.85 133.53 189.85ZM138.57 191.07L138.35 190.54C139.12 190.22 139.56 189.75 139.61 189.07C139.55 189.08 139.5 189.08 139.44 189.08C139.03 189.08 138.69 188.84 138.69 188.37C138.69 187.9 139.04 187.65 139.45 187.65C140 187.65 140.3 188.1 140.3 188.8C140.3 189.88 139.62 190.7 138.57 191.07ZM151.94 185.26H149.33V187.54H151.94V185.26ZM152.67 188.25H149.33V189.05H148.61V184.54H152.67V188.25ZM156.44 182.34V183.08H155.21V189.7C155.21 190.24 155.08 190.5 154.7 190.61C154.3 190.75 153.61 190.75 152.63 190.75C152.58 190.54 152.43 190.17 152.31 189.96C153.11 190 153.93 189.99 154.16 189.98C154.38 189.97 154.45 189.9 154.45 189.69V183.08H147.59V182.34H156.44ZM162.23 182.78V187.4H161.51V182.12H166.04V187.4H165.3V182.78H162.23ZM160.09 182.91L159.49 183.29C159.31 182.93 158.93 182.38 158.57 181.99L159.14 181.66C159.52 182.03 159.91 182.54 160.09 182.91ZM161.07 187.21L160.6 187.8C160.4 187.5 159.98 186.93 159.63 186.48V190.76H158.92V186.89C158.54 187.3 158.15 187.66 157.76 187.95C157.7 187.74 157.54 187.37 157.43 187.23C158.44 186.54 159.5 185.29 160.08 184.03H157.67V183.35H160.44L160.58 183.32L160.98 183.59C160.7 184.35 160.29 185.11 159.82 185.78C160.19 186.19 160.88 186.99 161.07 187.21ZM164.75 190.05H165.56C165.9 190.05 165.95 189.79 166 188.36C166.18 188.5 166.42 188.6 166.61 188.65C166.52 190.22 166.4 190.62 165.55 190.62H164.64C163.96 190.62 163.69 190.43 163.69 189.78V187.87C163.29 188.94 162.51 189.99 161.02 190.78C160.94 190.62 160.7 190.34 160.55 190.22C163.06 188.92 163.36 187.03 163.36 185.48V183.54H164.08V185.5C164.08 186.05 164.03 186.63 163.88 187.24H164.38V189.7C164.38 189.98 164.46 190.05 164.75 190.05ZM170.15 181.64L170.88 181.87C170.6 182.55 170.25 183.22 169.87 183.84V190.77H169.1V185C168.73 185.49 168.35 185.94 167.95 186.31C167.86 186.15 167.61 185.76 167.46 185.6C168.52 184.65 169.54 183.17 170.15 181.64ZM173.53 189.85H175.17C175.7 189.85 175.77 189.42 175.85 187.72C176.05 187.87 176.36 188.03 176.58 188.08C176.48 189.94 176.26 190.58 175.21 190.58H173.45C172.45 190.58 172.17 190.28 172.17 189.17V187.45C171.71 187.75 171.24 188.02 170.78 188.25C170.66 188.1 170.42 187.84 170.23 187.69C170.87 187.38 171.53 186.99 172.17 186.55V181.82H172.95V185.96C173.99 185.13 174.94 184.15 175.63 183.08L176.36 183.56C175.45 184.83 174.23 185.98 172.95 186.91V189.19C172.95 189.74 173.05 189.85 173.53 189.85ZM179.6 183.01H178.91C178.67 183.48 178.4 183.89 178.1 184.21C177.96 184.12 177.65 183.95 177.47 183.87C178.01 183.31 178.45 182.47 178.69 181.61L179.41 181.73C179.34 181.98 179.26 182.21 179.16 182.45H181.83V183.01H180.31C180.5 183.32 180.67 183.65 180.75 183.88L180.12 184.11C180.03 183.81 179.81 183.38 179.6 183.01ZM184.69 188.89H179.88V189.85H184.69V188.89ZM184.17 186.2H179.88V187.05H184.17V186.2ZM179.88 187.62V188.31H185.42V190.75H184.69V190.43H179.88V190.77H179.14V185.63H184.9V187.62H179.88ZM181.41 183.8L182.07 183.66C182.21 183.89 182.38 184.19 182.47 184.43H186.11V186.06H185.37V185.02H178.76V186.06H178.04V184.43H181.71C181.62 184.22 181.52 183.99 181.41 183.8ZM183.37 182.46H186.36V183.01H184.58C184.81 183.31 185.02 183.63 185.13 183.86L184.53 184.14C184.4 183.83 184.11 183.38 183.82 183.01H183.12C182.94 183.34 182.74 183.64 182.53 183.87C182.4 183.76 182.1 183.6 181.92 183.52C182.37 183.05 182.71 182.34 182.89 181.62L183.61 181.74C183.54 181.99 183.46 182.22 183.37 182.46ZM190.53 187.99L190.66 188.7C189.59 189.06 188.45 189.45 187.56 189.74L187.39 188.99C187.76 188.88 188.22 188.74 188.73 188.57V185.88H187.59V185.18H188.73V183.01H187.49V182.31H190.59V183.01H189.44V185.18H190.45V185.88H189.44V188.35L190.53 187.99ZM191.76 184.61V185.89H193.28V184.61H191.76ZM191.76 182.74V184H193.28V182.74H191.76ZM195.45 184V182.74H193.92V184H195.45ZM195.45 185.89V184.61H193.92V185.89H195.45ZM193.98 189.76H196.63V190.44H190.19V189.76H193.23V188.39H190.96V187.71H193.23V186.54H191.08V182.09H196.16V186.54H193.98V187.71H196.31V188.39H193.98V189.76ZM200.45 182.91V183.43C200.97 185.48 201.83 187.15 203.19 188.34C204.05 187.56 204.72 186.55 205.12 185.29H202.54C202.74 184.66 202.97 183.74 203.15 182.91H200.45ZM205.57 184.54L206.06 184.75C205.63 186.51 204.84 187.83 203.8 188.8C204.58 189.34 205.51 189.75 206.59 190C206.43 190.17 206.21 190.48 206.1 190.69C204.95 190.39 203.99 189.93 203.18 189.32C202.3 189.97 201.29 190.43 200.22 190.75C200.13 190.55 199.93 190.25 199.79 190.09C200.79 189.85 201.75 189.43 202.6 188.83C201.63 187.92 200.91 186.76 200.38 185.37C200.22 187.07 199.66 188.99 197.94 190.62C197.83 190.43 197.56 190.13 197.4 190C199.52 188.01 199.69 185.52 199.69 183.74V182.91H197.94V182.17H204.07C203.91 182.93 203.69 183.83 203.51 184.58H205.43L205.57 184.54ZM213.37 188.2H210.52V189.13H213.37V188.2ZM214.04 187.64V189.69H210.52V190.18H209.83V187.64H214.04ZM216.02 186.42V189.98C216.02 190.34 215.93 190.49 215.66 190.59C215.4 190.68 214.97 190.69 214.34 190.68C214.3 190.51 214.19 190.28 214.1 190.13C214.53 190.15 214.99 190.14 215.11 190.14C215.24 190.13 215.28 190.1 215.28 189.98V187.05H208.71V190.76H207.99V186.42H216.02ZM214.18 185.33V184.43H209.87V185.33H214.18ZM209.14 183.88H214.94V185.88H209.14V183.88ZM212.53 182.68H216.34V183.32H207.63V182.68H211.72C211.63 182.39 211.51 182.05 211.41 181.77L212.13 181.6C212.27 181.94 212.42 182.36 212.53 182.68ZM222.12 183.08V183.76H217.61V183.08H219.75C219.61 182.73 219.32 182.24 219.04 181.87L219.64 181.62C219.95 181.99 220.27 182.5 220.42 182.83L219.88 183.08H222.12ZM222.04 185.7L221.45 186.03C221.27 185.56 220.8 184.82 220.35 184.28L220.91 183.99C221.35 184.5 221.84 185.22 222.04 185.7ZM218.72 184.01L219.36 184.21C218.99 185.06 218.42 186 217.91 186.61C217.8 186.49 217.54 186.26 217.38 186.16C217.9 185.6 218.4 184.79 218.72 184.01ZM221.67 189.28L221.07 189.74C220.86 189.32 220.5 188.8 220.06 188.26C219.5 189.18 218.78 189.94 217.94 190.52C217.83 190.38 217.58 190.11 217.42 189.98C218.32 189.42 219.06 188.65 219.6 187.69C219.22 187.24 218.8 186.79 218.41 186.4L218.95 186C219.27 186.32 219.61 186.67 219.95 187.03C220.15 186.59 220.32 186.13 220.46 185.63L221.15 185.77C220.97 186.43 220.72 187.03 220.44 187.59C220.96 188.2 221.41 188.8 221.67 189.28ZM225.21 184.14H223.55C223.47 184.38 223.4 184.61 223.31 184.84C223.52 185.81 223.83 186.73 224.23 187.53C224.71 186.6 225.01 185.47 225.21 184.14ZM226.49 184.14H225.93C225.68 185.81 225.28 187.16 224.63 188.25C225.16 189.08 225.83 189.75 226.62 190.16C226.45 190.29 226.22 190.57 226.1 190.75C225.35 190.31 224.72 189.68 224.21 188.89C223.62 189.67 222.87 190.29 221.91 190.79C221.82 190.66 221.55 190.37 221.4 190.24C222.45 189.75 223.23 189.09 223.82 188.23C223.44 187.5 223.13 186.69 222.89 185.81C222.72 186.14 222.53 186.45 222.34 186.73C222.24 186.59 222 186.31 221.84 186.18C222.64 185.09 223.14 183.39 223.44 181.62L224.13 181.72C224.02 182.31 223.9 182.89 223.75 183.44H226.49V184.14ZM235.81 182.26V182.96H230.81V182.26H235.81ZM230.77 188.78V188.75C230.76 188.76 230.76 188.78 230.76 188.78C230.72 188.63 230.59 188.25 230.5 188.04C230.68 188 230.84 187.79 231.04 187.47C231.24 187.2 231.78 186.23 232.18 185.23H230.15V184.53H236.51V185.23H233.06C232.65 186.17 232.12 187.14 231.59 187.9L234.87 187.65C234.55 187.08 234.19 186.48 233.86 185.97L234.47 185.69C235.09 186.66 235.89 187.95 236.27 188.7L235.62 189.05C235.52 188.83 235.38 188.57 235.22 188.29C231.5 188.62 231.07 188.66 230.77 188.78ZM229.98 183.45L229.47 183.98C229.08 183.63 228.29 183.06 227.71 182.64L228.2 182.18C228.77 182.56 229.58 183.11 229.98 183.45ZM229.54 185.11V188.93C229.76 189.03 229.98 189.24 230.37 189.47C231.04 189.89 231.88 189.96 232.98 189.96C234.11 189.96 235.61 189.88 236.64 189.76C236.54 189.98 236.42 190.35 236.4 190.58C235.73 190.62 234.04 190.68 232.96 190.68C231.74 190.68 230.91 190.56 230.21 190.13C229.81 189.88 229.47 189.56 229.24 189.56C228.91 189.56 228.41 190.15 227.92 190.81L227.41 190.12C227.9 189.59 228.39 189.16 228.82 188.96V185.8H227.45V185.11H229.54ZM34.92 198.06L34.26 198.36C34.15 197.98 33.85 197.38 33.59 196.94L34.21 196.69C34.5 197.12 34.8 197.69 34.92 198.06ZM28.73 202.2L30.67 201.86C30.65 202.05 30.65 202.32 30.66 202.47C28.25 202.96 27.92 203.05 27.71 203.17C27.68 203.03 27.57 202.69 27.49 202.52C27.7 202.48 27.94 202.22 28.24 201.86C28.43 201.66 28.82 201.14 29.25 200.49C28.01 200.66 27.78 200.71 27.64 200.78C27.61 200.64 27.49 200.29 27.42 200.1C27.58 200.06 27.75 199.82 27.96 199.48C28.18 199.15 28.88 197.84 29.25 196.65L29.93 196.95C29.5 198.01 28.93 199.13 28.35 200L29.64 199.86C29.88 199.48 30.1 199.09 30.3 198.7L30.9 199.05C30.26 200.17 29.49 201.3 28.73 202.2ZM27.62 205.15L27.48 204.44C28.33 204.27 29.59 203.97 30.84 203.69L30.91 204.3C29.75 204.61 28.53 204.91 27.62 205.15ZM32.35 203V204.36H33.95V203H32.35ZM33.95 200.37V199.11H32.35V200.37H33.95ZM33.95 202.33V201.05H32.35V202.33H33.95ZM36.53 204.36V205.05H32.35V205.78H31.65V199.98C31.43 200.29 31.22 200.59 30.98 200.85C30.92 200.68 30.74 200.36 30.61 200.2C31.41 199.28 32.11 197.83 32.46 196.69L33.17 196.89C33 197.39 32.78 197.91 32.53 198.43H36.39V199.11H34.65V200.37H36.14V201.05H34.65V202.33H36.16V203H34.65V204.36H36.53ZM38.57 206.07L38.35 205.54C39.12 205.22 39.56 204.75 39.61 204.07C39.55 204.08 39.5 204.08 39.44 204.08C39.03 204.08 38.69 203.84 38.69 203.37C38.69 202.9 39.04 202.65 39.45 202.65C40 202.65 40.3 203.1 40.3 203.8C40.3 204.88 39.62 205.7 38.57 206.07ZM48.77 202.04V203.76C49.35 203.64 49.98 203.5 50.64 203.36V202.04H48.77ZM50.64 197.8H48.77V199.26H50.64V197.8ZM50.64 201.37V199.93H48.77V201.37H50.64ZM51.89 203.09L51.94 203.76C50.38 204.13 48.7 204.52 47.51 204.79L47.38 204.04L48.09 203.9V197.12H51.34V203.21L51.89 203.09ZM54.01 198.89H56.27C56.27 198.89 56.26 199.17 56.26 199.26C56.16 203.45 56.06 204.87 55.73 205.31C55.54 205.57 55.33 205.65 55.01 205.69C54.71 205.72 54.17 205.7 53.64 205.68C53.62 205.46 53.55 205.16 53.42 204.97C53.99 205.01 54.51 205.01 54.72 205.01C54.89 205.02 55 204.99 55.09 204.86C55.34 204.56 55.45 203.24 55.54 199.6H53.98C53.83 202.2 53.28 204.45 51.26 205.79C51.15 205.61 50.91 205.35 50.72 205.24C52.62 204.05 53.12 201.99 53.26 199.6H51.67V198.89H53.29C53.32 198.16 53.32 197.41 53.32 196.64H54.04C54.04 197.41 54.04 198.16 54.01 198.89ZM61.88 198.81H66.04C66.04 198.81 66.03 199.09 66.02 199.2C65.8 203.3 65.59 204.79 65.15 205.29C64.92 205.57 64.68 205.65 64.3 205.69C63.95 205.72 63.31 205.7 62.7 205.66C62.69 205.44 62.6 205.12 62.45 204.9C63.13 204.96 63.77 204.97 64.02 204.97C64.23 204.97 64.36 204.94 64.48 204.82C64.84 204.48 65.06 203.07 65.25 199.55H61.84C61.7 201.62 61.04 204.04 58.14 205.81C58.02 205.63 57.75 205.34 57.57 205.22C60.28 203.61 60.92 201.42 61.07 199.55H57.87V198.81H61.11C61.11 198.66 61.11 198.52 61.11 198.38V196.65H61.88V198.38C61.88 198.52 61.88 198.66 61.88 198.81ZM68.64 199.46L68.09 199.6C68.04 199.01 67.81 198.1 67.55 197.41L68.06 197.29C68.34 197.98 68.57 198.87 68.64 199.46ZM69.53 200.67V200.89C69.8 201.23 70.63 202.44 70.82 202.75L70.32 203.32C70.19 202.99 69.83 202.33 69.53 201.81V205.75H68.85V202.02C68.54 202.99 68.12 203.93 67.73 204.53C67.65 204.31 67.46 203.97 67.34 203.78C67.85 203.07 68.42 201.77 68.73 200.67H67.44V199.97H68.85V196.67H69.53V199.98H70.64V200.67H69.53ZM70.12 199.61L69.66 199.46C69.88 198.88 70.16 197.9 70.3 197.24L70.91 197.39C70.68 198.13 70.37 199.06 70.12 199.61ZM72.31 203.61H75.2V202.87H72.31V203.61ZM75.2 201.59H72.31V202.33H75.2V201.59ZM75.9 201.02V205C75.9 205.36 75.82 205.54 75.56 205.65C75.31 205.75 74.89 205.76 74.27 205.76C74.24 205.57 74.15 205.32 74.06 205.14C74.51 205.15 74.92 205.15 75.04 205.15C75.17 205.15 75.2 205.11 75.2 205V204.14H72.31V205.76H71.61V201.02H75.9ZM74.06 199.85H76.56V200.42H70.98V199.85H73.35V199.17H71.51V198.63H73.35V198.02H71.26V197.45H73.35V196.65H74.06V197.45H76.3V198.02H74.06V198.63H76.09V199.17H74.06V199.85ZM79.99 200.89H78.89V203.84H79.99V200.89ZM80.62 204.51H78.89V205.31H78.25V201.7C78.09 202 77.92 202.27 77.73 202.51C77.68 202.34 77.51 201.92 77.39 201.72C78.08 200.77 78.52 199.36 78.79 197.85H77.6V197.16H80.93V197.85H79.49C79.34 198.67 79.13 199.49 78.88 200.23H80.62V204.51ZM84.1 202.7H85.53V201.51H84.1V202.7ZM82.1 202.7H83.43V201.51H82.13V201.81C82.13 202.09 82.12 202.4 82.1 202.7ZM84.36 198.09H82.58C82.38 198.47 82.16 198.84 81.92 199.17H83.63C83.87 198.88 84.16 198.46 84.36 198.09ZM82.13 199.81V200.91H83.43V199.81H82.13ZM85.53 200.91V199.81H84.1V200.91H85.53ZM86.24 199.17V204.87C86.24 205.26 86.16 205.45 85.91 205.56C85.66 205.68 85.24 205.68 84.62 205.68C84.6 205.49 84.52 205.21 84.43 205.02C84.86 205.04 85.26 205.04 85.37 205.03C85.49 205.03 85.53 204.99 85.53 204.86V203.35H84.1V205.4H83.43V203.35H82.02C81.88 204.22 81.57 205.11 80.93 205.78C80.82 205.66 80.53 205.44 80.36 205.36C81.32 204.36 81.44 202.94 81.44 201.81V199.78C81.27 199.97 81.11 200.14 80.94 200.3C80.86 200.16 80.63 199.88 80.49 199.74C81.34 198.99 82.09 197.82 82.52 196.6L83.17 196.77C83.08 197.01 82.99 197.23 82.89 197.46H84.79L84.9 197.43L85.37 197.75C85.14 198.21 84.77 198.74 84.42 199.17H86.24ZM90.35 198.01L89.96 198.59C89.51 198.24 88.6 197.78 87.88 197.51L88.25 196.99C88.97 197.24 89.89 197.67 90.35 198.01ZM90.41 199.17L90.52 199.82C89.56 200.14 88.54 200.48 87.74 200.74L87.53 200.05C88.25 199.85 89.33 199.51 90.41 199.17ZM95.26 203.99H94.51V201.97H89.58V204.06H88.85V201.29H95.26V203.99ZM91.74 202.26H92.46C92.13 204.25 91.21 205.32 87.86 205.79C87.81 205.62 87.65 205.33 87.53 205.18C90.69 204.79 91.44 203.91 91.74 202.26ZM92.16 204.23L92.57 203.69C93.79 204.07 95.45 204.68 96.32 205.12L95.88 205.73C95.05 205.29 93.4 204.64 92.16 204.23ZM95.24 198.14H93.76C93.71 198.32 93.65 198.48 93.59 198.65C94.14 199.51 95.21 200.18 96.46 200.45C96.3 200.58 96.11 200.85 96.01 201.03C94.9 200.72 93.93 200.08 93.3 199.23C92.83 200.04 92.05 200.69 90.67 201.1C90.6 200.94 90.41 200.69 90.27 200.56C92.04 200.08 92.72 199.17 93.01 198.14H91.83C91.55 198.54 91.21 198.93 90.79 199.28C90.67 199.11 90.43 198.91 90.27 198.82C91.07 198.2 91.59 197.36 91.84 196.67L92.55 196.77C92.45 197.03 92.33 197.29 92.19 197.55H95.57L95.69 197.52L96.23 197.67C95.98 198.22 95.67 198.82 95.43 199.21L94.78 199.02C94.93 198.79 95.08 198.46 95.24 198.14ZM100 197.81L99.56 198.4C99.18 198.1 98.44 197.61 97.9 197.26L98.33 196.75C98.87 197.06 99.62 197.52 100 197.81ZM99.53 200.41L99.09 201.01C98.71 200.72 97.97 200.25 97.41 199.94L97.84 199.42C98.38 199.72 99.14 200.14 99.53 200.41ZM99.14 202.01L99.72 202.42C99.31 203.47 98.75 204.7 98.28 205.62L97.62 205.21C98.06 204.44 98.68 203.13 99.14 202.01ZM101.12 197.8V199.85C101.12 201.59 100.95 204.06 99.77 205.73C99.65 205.6 99.33 205.41 99.16 205.34C100.29 203.74 100.39 201.49 100.39 199.85V197.12H106.47V197.8H101.12ZM102.04 202.94L102.71 203.12C102.38 203.85 101.88 204.65 101.45 205.17C101.31 205.06 101.03 204.89 100.85 204.79C101.31 204.31 101.75 203.6 102.04 202.94ZM102.36 200.93V201.81H105.4V200.93H102.36ZM102.36 199.52V200.39H105.4V199.52H102.36ZM106.09 202.38H104.19V204.99C104.19 205.36 104.13 205.55 103.85 205.66C103.58 205.77 103.16 205.77 102.49 205.76C102.46 205.57 102.37 205.31 102.28 205.12C102.76 205.14 103.2 205.13 103.31 205.13C103.44 205.12 103.48 205.09 103.48 204.98V202.38H101.69V198.95H103.2C103.31 198.63 103.43 198.22 103.49 197.94L104.32 198.11C104.18 198.4 104.04 198.69 103.91 198.95H106.09V202.38ZM104.86 203.11L105.5 202.86C105.89 203.47 106.39 204.29 106.64 204.77L105.96 205.07C105.74 204.57 105.25 203.74 104.86 203.11ZM108.93 200.39H115.09C115.09 200.39 115.08 200.65 115.07 200.75C114.93 203.78 114.8 204.92 114.46 205.3C114.24 205.55 114.03 205.63 113.68 205.65C113.35 205.68 112.73 205.67 112.11 205.63C112.1 205.41 112.01 205.1 111.87 204.89C112.52 204.95 113.12 204.96 113.36 204.96C113.57 204.96 113.68 204.93 113.79 204.83C114.04 204.58 114.18 203.6 114.3 201.12H111.59C111.32 203.09 110.66 204.88 108.15 205.8C108.05 205.61 107.84 205.31 107.68 205.17C110.03 204.38 110.58 202.8 110.81 201.12H108.89V200.43C108.64 200.7 108.37 200.94 108.11 201.16C107.97 201.01 107.66 200.73 107.47 200.59C108.66 199.73 109.67 198.35 110.25 196.83L111.04 197.05C110.53 198.32 109.77 199.49 108.93 200.39ZM113.04 197.09L113.71 196.81C114.33 198.16 115.53 199.66 116.57 200.44C116.37 200.59 116.11 200.87 115.97 201.07C114.93 200.16 113.74 198.56 113.04 197.09ZM120.16 198.85V197.69H119.57V198.85H120.16ZM121.21 201.49V199.48H120.53V201.35C120.53 201.48 120.54 201.49 120.67 201.49H121.03C121.13 201.49 121.16 201.49 121.17 201.46L121.21 201.49ZM118.45 204.44H121.21V203.41H118.45V204.44ZM119.14 199.48H118.45V202.85H121.21V201.92C121.18 201.93 121.14 201.93 121.1 201.93H120.62C120.23 201.93 120.11 201.83 120.11 201.35V199.48H119.55V200.28C119.55 200.89 119.41 201.68 118.79 202.25C118.72 202.16 118.55 202.01 118.46 201.96C119.04 201.45 119.14 200.8 119.14 200.27V199.48ZM117.6 197.69V197.02H122.05V197.69H120.69V198.85H121.82V205.59H121.21V205.04H118.45V205.73H117.85V198.85H119.04V197.69H117.6ZM123.85 204.96H125.39C125.83 204.96 125.91 204.71 125.96 203.27C126.13 203.4 126.44 203.54 126.65 203.59C126.55 205.21 126.34 205.66 125.43 205.66H123.77C122.85 205.66 122.57 205.43 122.57 204.52V200.21H125.55V197.8H122.53V197.08H126.28V201.59H125.55V200.92H123.3V204.52C123.3 204.89 123.39 204.96 123.85 204.96ZM133.79 202.61V203.33H127.61V202.61H133.79ZM129.62 200.51H135.87C135.87 200.51 135.86 200.77 135.84 200.87C135.56 203.72 135.28 204.86 134.83 205.29C134.58 205.55 134.32 205.62 133.9 205.64C133.54 205.66 132.82 205.65 132.12 205.6C132.1 205.38 131.99 205.07 131.84 204.87C132.62 204.94 133.39 204.94 133.68 204.94C133.93 204.94 134.08 204.93 134.19 204.82C134.57 204.53 134.82 203.5 135.05 201.21H129.29L128.67 201.2C128.98 200.1 129.38 198.22 129.62 196.85L130.37 196.93C130.3 197.27 130.24 197.64 130.16 198.01H135.72V198.72H130.02C129.88 199.35 129.75 199.97 129.62 200.51ZM145.98 197.4V198.1H141.65V197.4H145.98ZM141.12 201.4L140.68 201.99C140.52 201.67 140.11 201.05 139.78 200.56V205.76H139.04V200.8C138.68 201.87 138.2 202.91 137.7 203.54C137.61 203.33 137.41 203.03 137.28 202.85C137.91 202.1 138.56 200.68 138.88 199.44H137.53V198.74H139.04V196.64H139.78V198.74H141.07V199.44H139.78V199.7C140.08 200.06 140.93 201.14 141.12 201.4ZM141.91 201.58L142.59 201.73C142.28 202.88 141.78 204.04 141.24 204.8C141.11 204.7 140.82 204.49 140.65 204.41C141.2 203.71 141.65 202.64 141.91 201.58ZM146.51 200.47H144.09V204.82C144.09 205.24 144.01 205.46 143.72 205.58C143.44 205.72 142.98 205.73 142.28 205.73C142.25 205.51 142.14 205.19 142.05 204.97C142.57 204.99 143.03 204.99 143.16 204.98C143.31 204.97 143.35 204.94 143.35 204.81V200.47H141.22V199.77H146.51V200.47ZM144.77 201.75L145.39 201.56C145.87 202.52 146.36 203.78 146.53 204.57L145.84 204.81C145.7 204.03 145.24 202.73 144.77 201.75ZM149.55 199.26L148.86 199.63C148.6 199.05 148.01 198.09 147.51 197.38L148.17 197.08C148.67 197.76 149.28 198.69 149.55 199.26ZM148.27 205.3L147.52 204.94C147.97 204.14 148.59 202.78 149.03 201.61L149.7 201.97C149.28 203.08 148.73 204.35 148.27 205.3ZM151.36 203.03V204.38H153.45V203.03H151.36ZM153.45 200.39V199.07H151.36V200.39H153.45ZM153.45 202.37V201.05H151.36V202.37H153.45ZM156.5 204.38V205.06H151.36V205.77H150.66V199.95C150.36 200.42 150.02 200.84 149.68 201.2C149.57 201.06 149.3 200.79 149.13 200.67C150.12 199.73 150.96 198.25 151.47 196.72L152.15 196.9C151.98 197.42 151.76 197.93 151.53 198.42H153.81C153.67 198.02 153.34 197.43 153.06 196.99L153.69 196.7C154 197.15 154.33 197.72 154.47 198.1L153.85 198.42H156.3V199.07H154.18V200.39H156.1V201.05H154.18V202.37H156.09V203.03H154.18V204.38H156.5ZM160.15 196.64L160.88 196.87C160.6 197.55 160.25 198.22 159.87 198.84V205.77H159.1V200C158.73 200.49 158.35 200.94 157.95 201.31C157.86 201.15 157.61 200.76 157.46 200.6C158.52 199.65 159.54 198.17 160.15 196.64ZM163.53 204.85H165.17C165.7 204.85 165.77 204.42 165.85 202.72C166.05 202.87 166.36 203.03 166.58 203.08C166.48 204.94 166.26 205.58 165.21 205.58H163.45C162.45 205.58 162.17 205.28 162.17 204.17V202.45C161.71 202.75 161.24 203.02 160.78 203.25C160.66 203.1 160.42 202.84 160.23 202.69C160.87 202.38 161.53 201.99 162.17 201.55V196.82H162.95V200.96C163.99 200.13 164.94 199.15 165.63 198.08L166.36 198.56C165.45 199.83 164.23 200.98 162.95 201.91V204.19C162.95 204.74 163.05 204.85 163.53 204.85ZM168.77 201.7H170.3V200.02H168.79V200.57C168.79 200.91 168.78 201.3 168.77 201.7ZM170.3 197.69H168.79V199.33H170.3V197.69ZM170.99 197V204.88C170.99 205.28 170.91 205.5 170.65 205.63C170.4 205.76 170 205.77 169.33 205.77C169.31 205.58 169.21 205.25 169.11 205.06C169.57 205.07 169.99 205.07 170.11 205.06C170.25 205.05 170.3 205.01 170.3 204.87V202.41H168.73C168.64 203.59 168.44 204.84 167.98 205.78C167.85 205.66 167.55 205.49 167.37 205.42C168.06 204.02 168.11 202.04 168.11 200.57V197H170.99ZM175.56 201.09H173.47C173.74 201.91 174.1 202.67 174.56 203.33C174.99 202.69 175.33 201.94 175.56 201.09ZM175.94 200.38L176.37 200.53C176.11 201.89 175.63 203.01 175 203.9C175.48 204.45 176.04 204.9 176.67 205.21C176.5 205.35 176.3 205.6 176.19 205.78C175.59 205.44 175.05 204.99 174.57 204.43C174.12 204.96 173.61 205.39 173.06 205.71C172.96 205.54 172.77 205.29 172.62 205.16C173.17 204.86 173.69 204.43 174.15 203.89C173.59 203.08 173.15 202.12 172.82 201.09H172.57V205.77H171.87V197.03H176.09V198.95C176.09 199.33 176 199.52 175.7 199.63C175.38 199.73 174.88 199.73 174.13 199.73C174.1 199.53 173.99 199.28 173.89 199.1C174.5 199.11 175.02 199.11 175.17 199.1C175.33 199.1 175.37 199.06 175.37 198.94V197.72H172.57V200.4H175.81L175.94 200.38ZM182.04 202.18H185.66C185.66 202.18 185.65 202.41 185.62 202.51C185.41 204.32 185.18 205.07 184.84 205.38C184.62 205.58 184.4 205.63 184.03 205.65C183.74 205.66 183.14 205.66 182.55 205.62C182.54 205.42 182.45 205.15 182.32 204.96C182.95 205.02 183.58 205.03 183.83 205.03C184.03 205.03 184.15 205.02 184.26 204.94C184.49 204.75 184.69 204.14 184.86 202.83H181.83C181.2 204.44 179.97 205.28 178.01 205.75C177.93 205.58 177.74 205.27 177.6 205.12C179.36 204.78 180.47 204.11 181.04 202.83H178.29V202.18H181.27C181.35 201.88 181.42 201.55 181.46 201.19L182.23 201.25C182.18 201.58 182.11 201.9 182.04 202.18ZM180.39 198.3L180.24 198.44C180.68 198.99 181.31 199.42 182.08 199.75C183.02 199.37 183.84 198.89 184.43 198.3H180.39ZM185.13 197.62L185.58 197.93C184.98 198.83 184.05 199.52 182.95 200.06C183.99 200.38 185.23 200.56 186.56 200.64C186.41 200.81 186.24 201.1 186.15 201.31C184.62 201.18 183.23 200.91 182.07 200.43C180.74 200.95 179.24 201.25 177.79 201.43C177.74 201.24 177.61 200.95 177.49 200.78C178.76 200.66 180.07 200.42 181.25 200.04C180.67 199.72 180.17 199.33 179.76 198.86C179.36 199.19 178.9 199.49 178.39 199.78C178.29 199.61 178.09 199.35 177.93 199.23C179.33 198.52 180.32 197.49 180.83 196.62L181.61 196.78C181.42 197.07 181.21 197.37 180.97 197.66H185L185.13 197.62ZM195.81 197.26V197.96H190.81V197.26H195.81ZM190.77 203.78V203.75C190.76 203.76 190.76 203.78 190.76 203.78C190.72 203.63 190.59 203.25 190.5 203.04C190.68 203 190.84 202.79 191.04 202.47C191.24 202.2 191.78 201.23 192.18 200.23H190.15V199.53H196.51V200.23H193.06C192.65 201.17 192.12 202.14 191.59 202.9L194.87 202.65C194.55 202.08 194.19 201.48 193.86 200.97L194.47 200.69C195.09 201.66 195.89 202.95 196.27 203.7L195.62 204.05C195.52 203.83 195.38 203.57 195.22 203.29C191.5 203.62 191.07 203.66 190.77 203.78ZM189.98 198.45L189.47 198.98C189.08 198.63 188.29 198.06 187.71 197.64L188.2 197.18C188.77 197.56 189.58 198.11 189.98 198.45ZM189.54 200.11V203.93C189.76 204.03 189.98 204.24 190.37 204.47C191.04 204.89 191.88 204.96 192.98 204.96C194.11 204.96 195.61 204.88 196.64 204.76C196.54 204.98 196.42 205.35 196.4 205.58C195.73 205.62 194.04 205.68 192.96 205.68C191.74 205.68 190.91 205.56 190.21 205.13C189.81 204.88 189.47 204.56 189.24 204.56C188.91 204.56 188.41 205.15 187.92 205.81L187.41 205.12C187.9 204.59 188.39 204.16 188.82 203.96V200.8H187.45V200.11H189.54ZM204.72 203.61H199.43V204.79H204.72V203.61ZM198.72 205.8V202.96H205.45V205.78H204.72V205.42H199.43V205.8H198.72ZM203.97 201.79V200.91H200.12V201.79H203.97ZM199.42 200.37H204.7V202.33H199.42V200.37ZM197.93 201.06V199.12H206.15V201.06H205.43V199.72H198.62V201.06H197.93ZM204.11 197.46H206.37V198.14H204.11V198.85H203.38V198.14H200.57V198.85H199.84V198.14H197.64V197.46H199.84V196.64H200.57V197.46H203.38V196.64H204.11V197.46ZM208.57 206.07L208.35 205.54C209.12 205.22 209.56 204.75 209.61 204.07C209.55 204.08 209.5 204.08 209.44 204.08C209.03 204.08 208.69 203.84 208.69 203.37C208.69 202.9 209.04 202.65 209.45 202.65C210 202.65 210.3 203.1 210.3 203.8C210.3 204.88 209.62 205.7 208.57 206.07ZM220.95 198.36L220.23 198.68C220.07 198.2 219.63 197.46 219.21 196.91L219.89 196.62C220.32 197.16 220.78 197.88 220.95 198.36ZM220.64 201.55H223.4V199.4H220.64V201.31V201.55ZM226.45 201.55V202.27H224.17V205.77H223.4V202.27H220.59C220.45 203.6 219.93 204.91 218.12 205.84C218.01 205.66 217.75 205.38 217.59 205.24C219.17 204.44 219.67 203.37 219.82 202.27H217.57V201.55H219.88V201.3V199.4H217.94V198.69H223.1C223.44 198.08 223.81 197.24 224.02 196.61L224.86 196.86C224.56 197.46 224.22 198.15 223.9 198.69H226.14V199.4H224.17V201.55H226.45ZM233.02 199.7H231.35V200.58H233.02V199.7ZM235.43 199.7H233.69V200.58H235.43V199.7ZM233.69 202.04H235.43V201.13H233.69V202.04ZM231.35 202.04H233.02V201.13H231.35V202.04ZM231.35 202.61V204.28H230.64V199.13H233.47C232.86 198.83 232.14 198.51 231.53 198.28L231.99 197.86C232.43 198.02 232.95 198.23 233.44 198.44C233.93 198.21 234.44 197.89 234.85 197.59H230.65V197H235.53L235.68 196.96L236.13 197.31C235.59 197.84 234.83 198.36 234.09 198.74C234.37 198.87 234.63 199.01 234.83 199.13H236.14V203.53C236.14 203.9 236.06 204.07 235.8 204.18C235.54 204.29 235.12 204.3 234.45 204.3C234.42 204.11 234.34 203.86 234.25 203.68C234.72 203.7 235.14 203.69 235.26 203.69C235.39 203.69 235.43 203.65 235.43 203.52V202.61H233.69V204.24H233.02V202.61H231.35ZM229.91 198.67L229.37 199.16C229.02 198.7 228.27 197.97 227.67 197.45L228.19 197.03C228.78 197.52 229.55 198.22 229.91 198.67ZM229.58 200.36V203.9C229.78 204.01 229.99 204.2 230.34 204.41C231.01 204.82 231.85 204.9 232.96 204.9C234.13 204.9 235.63 204.81 236.65 204.71C236.57 204.9 236.46 205.23 236.44 205.44C235.75 205.48 234.01 205.54 232.94 205.54C231.72 205.54 230.89 205.42 230.19 204.99C229.8 204.75 229.45 204.42 229.22 204.42C228.88 204.42 228.39 204.99 227.89 205.66L227.42 205.05C227.93 204.51 228.43 204.06 228.86 203.88V201.06H227.46V200.36H229.58ZM34.19 218.08V214.13H30.35V213.42H34.19V211.67H34.93V213.42H36.31V214.13H34.93V218.08C34.93 218.58 34.8 218.8 34.45 218.91C34.11 219.03 33.5 219.05 32.56 219.05C32.53 218.84 32.41 218.51 32.3 218.3C33.02 218.32 33.72 218.32 33.92 218.32C34.12 218.31 34.19 218.25 34.19 218.08ZM30.82 215.24L31.41 214.92C31.91 215.53 32.55 216.35 32.84 216.87L32.21 217.25C31.93 216.73 31.33 215.86 30.82 215.24ZM29.91 213.56L29.3 213.99C29.02 213.52 28.38 212.79 27.83 212.28L28.4 211.9C28.95 212.4 29.61 213.09 29.91 213.56ZM29.64 215.36V218.71C29.83 218.83 30.04 219.01 30.38 219.22C31.02 219.62 31.88 219.7 32.98 219.7C34.15 219.7 35.64 219.61 36.61 219.51C36.51 219.71 36.39 220.08 36.38 220.31C35.67 220.36 33.92 220.41 32.96 220.41C31.73 220.41 30.9 220.3 30.21 219.86C29.8 219.6 29.47 219.27 29.25 219.27C28.92 219.27 28.44 219.86 27.93 220.54L27.41 219.84C27.94 219.27 28.47 218.83 28.91 218.66V216.06H27.54V215.36H29.64ZM44.45 212.47L44.93 212.77C43.67 214.98 40.76 216.32 38.17 216.86C38.11 216.66 37.95 216.35 37.82 216.19C38.93 215.99 40.11 215.63 41.17 215.12C40.84 214.82 40.4 214.5 40 214.27L40.54 213.89C40.96 214.13 41.46 214.47 41.82 214.79C42.61 214.33 43.3 213.79 43.79 213.17H40.97C40.33 213.7 39.55 214.19 38.65 214.6C38.54 214.43 38.31 214.2 38.15 214.08C39.74 213.41 40.93 212.44 41.57 211.62L42.38 211.79C42.19 212.03 41.97 212.26 41.73 212.5H44.32L44.45 212.47ZM45.91 215.96L46.41 216.27C45.02 219.21 41.61 220.37 38.09 220.79C38.04 220.58 37.92 220.25 37.79 220.07C39.48 219.91 41.16 219.56 42.56 218.91C42.23 218.59 41.78 218.21 41.39 217.91L42 217.56C42.4 217.85 42.88 218.24 43.24 218.57C44.09 218.08 44.8 217.46 45.3 216.68H42.6C41.77 217.35 40.74 217.96 39.49 218.45C39.4 218.29 39.19 218.02 39.02 217.9C41.04 217.17 42.46 216.06 43.19 215.08L44.01 215.26C43.81 215.51 43.6 215.76 43.35 216H45.76L45.91 215.96ZM54.92 213.06L54.26 213.36C54.15 212.98 53.85 212.38 53.59 211.94L54.21 211.69C54.5 212.12 54.8 212.69 54.92 213.06ZM48.73 217.2L50.67 216.86C50.65 217.05 50.65 217.32 50.66 217.47C48.25 217.96 47.92 218.05 47.71 218.17C47.68 218.03 47.57 217.69 47.49 217.52C47.7 217.48 47.94 217.22 48.24 216.86C48.43 216.66 48.82 216.14 49.25 215.49C48.01 215.66 47.78 215.71 47.64 215.78C47.61 215.64 47.49 215.29 47.42 215.1C47.58 215.06 47.75 214.82 47.96 214.48C48.18 214.15 48.88 212.84 49.25 211.65L49.93 211.95C49.5 213.01 48.93 214.13 48.35 215L49.64 214.86C49.88 214.48 50.1 214.09 50.3 213.7L50.9 214.05C50.26 215.17 49.49 216.3 48.73 217.2ZM47.62 220.15L47.48 219.44C48.33 219.27 49.59 218.97 50.84 218.69L50.91 219.3C49.75 219.61 48.53 219.91 47.62 220.15ZM52.35 218V219.36H53.95V218H52.35ZM53.95 215.37V214.11H52.35V215.37H53.95ZM53.95 217.33V216.05H52.35V217.33H53.95ZM56.53 219.36V220.05H52.35V220.78H51.65V214.98C51.43 215.29 51.22 215.59 50.98 215.85C50.92 215.68 50.74 215.36 50.61 215.2C51.41 214.28 52.11 212.83 52.46 211.69L53.17 211.89C53 212.39 52.78 212.91 52.53 213.43H56.39V214.11H54.65V215.37H56.14V216.05H54.65V217.33H56.16V218H54.65V219.36H56.53ZM66.41 213.71H63.2C62.84 214.53 62.4 215.27 61.91 215.82C61.78 215.71 61.48 215.48 61.3 215.37C62.14 214.5 62.79 213.12 63.15 211.65L63.87 211.8C63.76 212.22 63.62 212.63 63.48 213.03H66.41V213.71ZM63.33 214.8L63.89 214.41C64.59 214.87 65.47 215.55 65.91 216.01L65.31 216.46C64.9 216 64.04 215.3 63.33 214.8ZM60.92 211.67V216.38H60.19V211.67H60.92ZM58.96 212V216.07H58.24V212H58.96ZM59.32 217.62V219.82H60.66V217.62H59.32ZM62.69 217.62H61.35V219.82H62.69V217.62ZM64.74 217.62H63.38V219.82H64.74V217.62ZM65.47 219.82H66.53V220.5H57.5V219.82H58.62V216.98H65.47V219.82ZM71.36 213.49V214.58H70.68V212.85H73.31C73.2 212.52 73.02 212.12 72.88 211.8L73.57 211.63C73.75 212.02 73.98 212.51 74.1 212.85H76.5V214.48H75.79V213.49H71.36ZM73.93 214.49L74.39 214.08C75.02 214.61 75.86 215.38 76.29 215.83L75.81 216.31C75.4 215.85 74.57 215.05 73.93 214.49ZM72.61 214.1L73.25 214.32C72.71 215.1 71.9 215.91 71.18 216.41C71.09 216.29 70.86 215.98 70.72 215.86C71.42 215.41 72.14 214.74 72.61 214.1ZM70.32 216.07L70.44 216.74C70.08 216.87 69.72 217 69.36 217.13V219.82C69.36 220.23 69.27 220.42 69.02 220.54C68.79 220.66 68.41 220.69 67.78 220.68C67.75 220.5 67.66 220.2 67.56 219.99C68 220 68.39 220 68.5 220C68.62 220 68.68 219.96 68.68 219.81V217.38L67.53 217.79L67.36 217.06C67.72 216.95 68.18 216.81 68.68 216.63V214.26H67.47V213.57H68.68V211.62H69.36V213.57H70.4V214.26H69.36V216.4C69.67 216.3 70 216.18 70.32 216.07ZM73.87 219.78H76.6V220.44H70.34V219.78H73.13V217.29H71.14V216.62H75.9V217.29H73.87V219.78ZM85.09 213.32V212.53H81.79V213.32H85.09ZM85.09 214.64V213.84H81.79V214.64H85.09ZM85.8 211.97V215.21H81.11V211.97H85.8ZM80.37 215.99L80.46 216.67C80.1 216.8 79.73 216.91 79.36 217.04V219.84C79.36 220.25 79.27 220.44 79.02 220.56C78.79 220.68 78.41 220.71 77.78 220.7C77.75 220.52 77.66 220.22 77.56 220.01C77.99 220.02 78.38 220.02 78.49 220.02C78.62 220.02 78.67 219.98 78.67 219.83V217.26C78.26 217.4 77.87 217.52 77.51 217.63L77.33 216.91C77.7 216.82 78.16 216.68 78.67 216.52V214.33H77.44V213.64H78.67V211.65H79.36V213.64H80.46V214.33H79.36V216.3L80.37 215.99ZM83.79 218.33V219.9C84.08 219.94 84.4 219.96 84.73 219.96C84.97 219.96 86.33 219.96 86.66 219.95C86.56 220.11 86.47 220.42 86.44 220.61H84.7C83.26 220.61 82.21 220.34 81.56 218.94C81.28 219.69 80.89 220.3 80.36 220.77C80.25 220.65 79.97 220.42 79.81 220.32C80.7 219.62 81.14 218.5 81.3 217.02L81.99 217.1C81.94 217.47 81.88 217.84 81.79 218.17C82.08 219.01 82.52 219.47 83.09 219.71V216.55H80.65V215.92H86.35V216.55H83.79V217.72H85.86V218.33H83.79ZM96.47 215.64V216.36H94.32V220.77H93.57V216.36H90.52C90.44 218.01 90.01 219.63 87.98 220.79C87.87 220.62 87.61 220.35 87.45 220.23C89.3 219.19 89.71 217.79 89.79 216.36H87.55V215.64H89.8V213.42C89.16 213.6 88.52 213.77 87.9 213.91C87.86 213.73 87.74 213.46 87.63 213.31C89.21 212.94 90.97 212.39 91.96 211.79L92.52 212.4C91.96 212.69 91.27 212.95 90.53 213.19V215.64H93.57V211.83H94.32V215.64H96.47ZM100.86 218.46H103.41V217.6H100.87V218.25C100.87 218.32 100.87 218.39 100.86 218.46ZM99.53 216.5V217.1H104.63V216.5H99.53ZM99.53 215.45V216.02H104.63V215.45H99.53ZM99.53 214.39V214.97H104.63V214.39H99.53ZM103.62 212.99H102.82C102.58 213.33 102.31 213.65 102.05 213.89H104.29C104.15 213.64 103.89 213.28 103.62 212.99ZM106.45 218.46V219.08H104.16V220.75H103.41V219.08H100.72C100.47 219.7 99.82 220.31 98.22 220.78C98.12 220.61 97.92 220.36 97.76 220.22C99 219.91 99.61 219.49 99.89 219.08H97.6V218.46H100.13C100.14 218.38 100.14 218.31 100.14 218.25V217.6H98.8V213.89H99.88C99.78 213.65 99.59 213.28 99.39 212.99H98.88C98.6 213.4 98.3 213.77 98 214.06C97.86 213.95 97.57 213.74 97.39 213.66C98 213.15 98.55 212.37 98.86 211.6L99.54 211.78C99.45 211.98 99.35 212.18 99.25 212.38H101.87V212.99H100.16C100.32 213.23 100.47 213.49 100.54 213.68L100 213.89H101.96C101.79 213.77 101.53 213.63 101.36 213.56C101.97 213.08 102.48 212.35 102.75 211.6L103.46 211.76C103.38 211.97 103.29 212.18 103.18 212.38H106.36V212.99H104.46C104.66 213.21 104.83 213.46 104.93 213.65L104.4 213.89H105.39V217.6H104.16V218.46H106.45ZM111.88 213.81H116.04C116.04 213.81 116.03 214.09 116.02 214.2C115.8 218.3 115.59 219.79 115.15 220.29C114.92 220.57 114.68 220.65 114.3 220.69C113.95 220.72 113.31 220.7 112.7 220.66C112.69 220.44 112.6 220.12 112.45 219.9C113.13 219.96 113.77 219.97 114.02 219.97C114.23 219.97 114.36 219.94 114.48 219.82C114.84 219.48 115.06 218.07 115.25 214.55H111.84C111.7 216.62 111.04 219.04 108.14 220.81C108.02 220.63 107.75 220.34 107.57 220.22C110.28 218.61 110.92 216.42 111.07 214.55H107.87V213.81H111.11C111.11 213.66 111.11 213.52 111.11 213.38V211.65H111.88V213.38C111.88 213.52 111.88 213.66 111.88 213.81ZM122.12 213.08V213.76H117.61V213.08H119.75C119.61 212.73 119.32 212.24 119.04 211.87L119.64 211.62C119.95 211.99 120.27 212.5 120.42 212.83L119.88 213.08H122.12ZM122.04 215.7L121.45 216.03C121.27 215.56 120.8 214.82 120.35 214.28L120.91 213.99C121.35 214.5 121.84 215.22 122.04 215.7ZM118.72 214.01L119.36 214.21C118.99 215.06 118.42 216 117.91 216.61C117.8 216.49 117.54 216.26 117.38 216.16C117.9 215.6 118.4 214.79 118.72 214.01ZM121.67 219.28L121.07 219.74C120.86 219.32 120.5 218.8 120.06 218.26C119.5 219.18 118.78 219.94 117.94 220.52C117.83 220.38 117.58 220.11 117.42 219.98C118.32 219.42 119.06 218.65 119.6 217.69C119.22 217.24 118.8 216.79 118.41 216.4L118.95 216C119.27 216.32 119.61 216.67 119.95 217.03C120.15 216.59 120.32 216.13 120.46 215.63L121.15 215.77C120.97 216.43 120.72 217.03 120.44 217.59C120.96 218.2 121.41 218.8 121.67 219.28ZM125.21 214.14H123.55C123.47 214.38 123.4 214.61 123.31 214.84C123.52 215.81 123.83 216.73 124.23 217.53C124.71 216.6 125.01 215.47 125.21 214.14ZM126.49 214.14H125.93C125.68 215.81 125.28 217.16 124.63 218.25C125.16 219.08 125.83 219.75 126.62 220.16C126.45 220.29 126.22 220.57 126.1 220.75C125.35 220.31 124.72 219.68 124.21 218.89C123.62 219.67 122.87 220.29 121.91 220.79C121.82 220.66 121.55 220.37 121.4 220.24C122.45 219.75 123.23 219.09 123.82 218.23C123.44 217.5 123.13 216.69 122.89 215.81C122.72 216.14 122.53 216.45 122.34 216.73C122.24 216.59 122 216.31 121.84 216.18C122.64 215.09 123.14 213.39 123.44 211.62L124.13 211.72C124.02 212.31 123.9 212.89 123.75 213.44H126.49V214.14ZM134.21 217.03L133.62 217.29C133.57 217.13 133.47 216.95 133.35 216.76C130.75 217.01 130.4 217.06 130.2 217.16C130.16 217.02 130.06 216.69 129.98 216.51C130.21 216.48 130.46 216.29 130.81 216.02C131 215.86 131.43 215.47 131.91 214.98C130.76 215.07 130.54 215.12 130.39 215.18C130.36 215.04 130.26 214.71 130.18 214.55C130.33 214.53 130.47 214.41 130.62 214.23C130.75 214.1 131.09 213.69 131.39 213.21H127.75V212.53H131.82C131.69 212.28 131.51 211.98 131.36 211.75L132.08 211.56C132.3 211.85 132.54 212.25 132.67 212.53H136.38V213.21H132.17C131.87 213.65 131.54 214.08 131.22 214.43L132.49 214.35C132.72 214.09 132.96 213.81 133.16 213.52L133.77 213.87C132.98 214.79 132.11 215.67 131.25 216.36L133 216.22C132.84 216 132.67 215.77 132.51 215.58L133.06 215.35C133.51 215.86 134.01 216.56 134.21 217.03ZM136.26 216.89L135.71 217.33C135.3 216.94 134.45 216.34 133.75 215.93L134.28 215.53C134.95 215.91 135.82 216.48 136.26 216.89ZM135.26 213.59L135.88 213.97C135.43 214.43 134.85 214.91 134.39 215.22L133.85 214.87C134.3 214.55 134.92 214 135.26 213.59ZM127.89 214.03L128.39 213.62C128.92 213.94 129.58 214.41 129.91 214.75L129.39 215.2C129.08 214.86 128.43 214.36 127.89 214.03ZM130.05 215.51L130.2 216.06C129.44 216.47 128.63 216.9 127.97 217.23L127.6 216.63C128.22 216.38 129.15 215.94 130.05 215.51ZM136.46 217.97V218.66H132.39V220.77H131.61V218.66H127.55V217.97H131.61V217.15H132.39V217.97H136.46ZM138.94 217.56C139.79 217.56 140.47 218.24 140.47 219.08C140.47 219.93 139.79 220.61 138.94 220.61C138.11 220.61 137.42 219.93 137.42 219.08C137.42 218.24 138.11 217.56 138.94 217.56ZM138.94 220.1C139.51 220.1 139.96 219.65 139.96 219.08C139.96 218.53 139.51 218.07 138.94 218.07C138.39 218.07 137.93 218.53 137.93 219.08C137.93 219.65 138.39 220.1 138.94 220.1Z" fill="#222222"/>
<path d="M27.9451 42.8902C27.9451 42.3682 28.3682 41.9451 28.8902 41.9451H97.1098C97.6318 41.9451 98.0549 42.3682 98.0549 42.8902V81.6109V87.8428C98.0549 88.3648 97.6318 88.7879 97.1098 88.7879H28.8902C28.3682 88.7879 27.9451 88.3648 27.9451 87.8428V81.6109V42.8902Z" stroke="url(#paint0_linear_275_51)" stroke-width="1.89018"/>
<path d="M44.1511 47.3816H35.4356C34.3917 47.3816 33.5454 48.2279 33.5454 49.2718V75.0793C33.5454 76.1232 34.3917 76.9695 35.4356 76.9695H44.1511C45.195 76.9695 46.0413 76.1232 46.0413 75.0793V49.2718C46.0413 48.2279 45.195 47.3816 44.1511 47.3816Z" stroke="url(#paint1_linear_275_51)" stroke-width="1.89018"/>
<path d="M89.9693 47.9617H53.2869C52.243 47.9617 51.3967 48.8079 51.3967 49.8519V73.9189C51.3967 74.9629 52.243 75.8091 53.2869 75.8091H89.9694C91.0133 75.8091 91.8595 74.9629 91.8595 73.9189V49.8519C91.8595 48.8079 91.0133 47.9617 89.9693 47.9617Z" stroke="url(#paint2_linear_275_51)" stroke-width="1.89018"/>
<path d="M86.2515 54.6333H56.4101C55.4489 54.6333 54.6697 53.854 54.6697 52.8928C54.6697 51.9316 55.4489 51.1523 56.4101 51.1523H86.2515C87.2128 51.1523 87.992 51.9316 87.992 52.8928C87.992 53.854 87.2128 54.6333 86.2515 54.6333Z" stroke="url(#paint3_linear_275_51)" stroke-width="1.89018"/>
<path d="M86.1018 57.8241H56.5599C55.5159 57.8241 54.6697 58.6704 54.6697 59.7143V70.7279C54.6697 71.7718 55.5159 72.6181 56.5599 72.6181H86.1018C87.1457 72.6181 87.992 71.7718 87.992 70.7279V59.7143C87.992 58.6704 87.1457 57.8241 86.1018 57.8241Z" stroke="url(#paint4_linear_275_51)" stroke-width="1.89018"/>
<path d="M40.0908 58.19C42.2333 58.19 44.0112 56.4905 44.0112 54.344C44.0112 52.1975 42.2333 50.498 40.0908 50.498C37.9483 50.498 36.1704 52.1975 36.1704 54.344C36.1704 56.4905 37.9483 58.19 40.0908 58.19Z" stroke="url(#paint5_linear_275_51)" stroke-width="1.89018"/>
<path d="M36.8181 61.0151H42.7687" stroke="url(#paint6_linear_275_51)" stroke-width="1.89018" stroke-linecap="round"/>
<path d="M37.1155 64.2063H43.0661" stroke="url(#paint7_linear_275_51)" stroke-width="1.89018" stroke-linecap="round"/>
<rect x="43.311" y="95.1692" width="39.3778" height="5.37111" rx="1.89018" stroke="url(#paint8_linear_275_51)" stroke-width="1.89018"/>
<defs>
<filter id="filter0_d_275_51" x="0.820253" y="0.641385" width="269.849" height="269.849" filterUnits="userSpaceOnUse" color-interpolation-filters="sRGB">
<feFlood flood-opacity="0" result="BackgroundImageFix"/>
<feColorMatrix in="SourceAlpha" type="matrix" values="0 0 0 0 0 0 0 0 0 0 0 0 0 0 0 0 0 0 127 0" result="hardAlpha"/>
<feMorphology radius="0.858298" operator="dilate" in="SourceAlpha" result="effect1_dropShadow_275_51"/>
<feOffset dy="3.43319"/>
<feGaussianBlur stdDeviation="2.66072"/>
<feComposite in2="hardAlpha" operator="out"/>
<feColorMatrix type="matrix" values="0 0 0 0 0.794815 0 0 0 0 0.857965 0 0 0 0 0.966667 0 0 0 1 0"/>
<feBlend mode="normal" in2="BackgroundImageFix" result="effect1_dropShadow_275_51"/>
<feBlend mode="normal" in="SourceGraphic" in2="effect1_dropShadow_275_51" result="shape"/>
</filter>
<linearGradient id="paint0_linear_275_51" x1="63" y1="41" x2="63" y2="89.733" gradientUnits="userSpaceOnUse">
<stop stop-color="#28BEE3"/>
<stop offset="0.95" stop-color="#337EFF"/>
</linearGradient>
<linearGradient id="paint1_linear_275_51" x1="39.7933" y1="47.3816" x2="39.7933" y2="76.9695" gradientUnits="userSpaceOnUse">
<stop stop-color="#28BEE3"/>
<stop offset="0.95" stop-color="#337EFF"/>
</linearGradient>
<linearGradient id="paint2_linear_275_51" x1="71.6281" y1="47.9617" x2="71.6281" y2="75.8091" gradientUnits="userSpaceOnUse">
<stop stop-color="#28BEE3"/>
<stop offset="0.95" stop-color="#337EFF"/>
</linearGradient>
<linearGradient id="paint3_linear_275_51" x1="71.3308" y1="51.1523" x2="71.3308" y2="72.6181" gradientUnits="userSpaceOnUse">
<stop stop-color="#28BEE3"/>
<stop offset="0.95" stop-color="#337EFF"/>
</linearGradient>
<linearGradient id="paint4_linear_275_51" x1="71.3308" y1="51.1523" x2="71.3308" y2="72.6181" gradientUnits="userSpaceOnUse">
<stop stop-color="#28BEE3"/>
<stop offset="0.95" stop-color="#337EFF"/>
</linearGradient>
<linearGradient id="paint5_linear_275_51" x1="40.0908" y1="51.4431" x2="40.0908" y2="57.2449" gradientUnits="userSpaceOnUse">
<stop stop-color="#28BEE3"/>
<stop offset="0.95" stop-color="#337EFF"/>
</linearGradient>
<linearGradient id="paint6_linear_275_51" x1="39.7934" y1="61.0151" x2="39.7934" y2="62.0151" gradientUnits="userSpaceOnUse">
<stop stop-color="#28BEE3"/>
<stop offset="0.95" stop-color="#337EFF"/>
</linearGradient>
<linearGradient id="paint7_linear_275_51" x1="40.0908" y1="64.2063" x2="40.0908" y2="65.2063" gradientUnits="userSpaceOnUse">
<stop stop-color="#28BEE3"/>
<stop offset="0.95" stop-color="#337EFF"/>
</linearGradient>
<linearGradient id="paint8_linear_275_51" x1="62.9999" y1="96.1143" x2="62.9999" y2="99.5952" gradientUnits="userSpaceOnUse">
<stop stop-color="#28BEE3"/>
<stop offset="0.95" stop-color="#337EFF"/>
</linearGradient>
</defs>
</svg>
