<svg width="271" height="270" viewBox="0 0 271 270" fill="none" xmlns="http://www.w3.org/2000/svg">
<g filter="url(#filter0_d_275_53)">
<rect x="6.94263" y="2.82178" width="257.489" height="257.489" rx="4.29149" fill="white"/>
</g>
<path d="M46.12 152.536H42.52C42.152 153.048 41.736 153.544 41.304 154.04H45.144C45.496 153.56 45.848 153.048 46.12 152.536ZM39.88 161.048V155.448C39.592 155.704 39.288 155.96 38.984 156.2C38.664 155.784 38.008 155.144 37.544 154.872C39.784 153.32 41.32 151.24 42.152 149.464L44.2 149.832C43.992 150.216 43.768 150.616 43.528 151.016H47.144L47.448 150.92L48.76 151.768C48.392 152.456 47.864 153.288 47.336 154.04H50.552V161.048H48.536V155.688H41.816V161.048H39.88ZM44.2 156.712H46.168C45.88 161 45.08 163.352 38.584 164.392C38.44 163.912 38.024 163.176 37.672 162.776C43.56 161.992 43.96 160.248 44.2 156.712ZM45.24 161.8L46.408 160.584C48.424 161.384 50.712 162.424 52.056 163.112L50.584 164.408C49.352 163.704 47.24 162.632 45.24 161.8ZM68.024 151.784L66.552 152.76C66.216 152.12 65.416 151.16 64.76 150.472L66.136 149.624C66.808 150.248 67.64 151.176 68.024 151.784ZM66.088 155.08L67.784 155.56C67.208 157.592 66.424 159.4 65.416 160.984C65.736 161.896 66.12 162.424 66.552 162.424C66.84 162.424 67 161.768 67.08 160.104C67.448 160.52 68.072 160.92 68.504 161.096C68.248 163.576 67.704 164.232 66.376 164.232C65.448 164.232 64.744 163.64 64.184 162.648C63.592 163.336 62.968 163.944 62.248 164.504C61.976 164.088 61.432 163.512 60.984 163.192C61.912 162.536 62.744 161.72 63.464 160.76C62.984 159.048 62.728 156.824 62.584 154.392H57.224L58.488 154.728C58.36 155.016 58.216 155.304 58.072 155.608H62.104V157.08H57.256C57 157.544 56.712 157.976 56.424 158.376H57.944V157.432H59.704V158.376H61.912L61.896 159.928H59.704V160.84L62.184 160.664L62.168 162.184C61.368 162.264 60.52 162.344 59.704 162.424V164.328H57.944V162.568C56.52 162.696 55.176 162.824 54.072 162.92L53.928 161.224C55 161.16 56.408 161.064 57.944 160.952V159.928H56.04C55.416 159.928 54.856 160.024 54.712 160.184C54.632 159.832 54.344 158.984 54.136 158.52C54.424 158.44 54.696 158.152 54.952 157.736C55.032 157.624 55.192 157.384 55.352 157.08H53.992V155.608H56.104C56.28 155.208 56.44 154.808 56.568 154.392H53.768V152.92H57.24V151.976H54.568V150.536H57.24V149.464H59.064V150.536H61.672V151.976H59.064V152.92H62.52C62.488 151.784 62.472 150.632 62.472 149.48H64.344C64.312 150.648 64.328 151.8 64.36 152.92H68.28V154.392H64.408C64.504 155.912 64.648 157.32 64.84 158.504C65.352 157.448 65.768 156.296 66.088 155.08ZM81.496 157.688L81.928 159.176C79.96 160.344 77.784 161.56 76.12 162.456L75.4 160.744C76.904 160.088 79.288 158.856 81.496 157.688ZM80.44 157.208L79.272 158.472C78.728 157.832 77.608 156.744 76.728 155.976L77.848 154.92C78.776 155.64 79.88 156.6 80.44 157.208ZM78.792 151.848H84.024C84.024 151.848 84.024 152.504 84.008 152.728C83.832 160.04 83.672 162.584 83.064 163.448C82.616 164.056 82.184 164.232 81.528 164.328C80.936 164.424 79.912 164.392 78.968 164.376C78.936 163.864 78.696 163.08 78.392 162.568C79.432 162.664 80.36 162.664 80.792 162.664C81.112 162.664 81.288 162.616 81.464 162.392C81.928 161.88 82.104 159.416 82.248 153.576H77.8C77.16 154.536 76.488 155.432 75.8 156.104C75.608 155.8 75.224 155.256 74.872 154.824V154.936H73.16V158.84C73.8 158.552 74.424 158.232 75.064 157.928L75.528 159.48C73.704 160.536 71.704 161.64 70.12 162.472L69.464 160.52C69.992 160.328 70.616 160.04 71.336 159.704V154.936H69.64V153.128H71.336V149.656H73.16V153.128H74.872V154.264C76.104 153.048 77.224 151.256 77.912 149.448L79.64 149.992C79.4 150.616 79.112 151.24 78.792 151.848ZM100.104 150.44V152.152H96.744V150.44H100.104ZM87.992 149.448L89.704 150.072C88.856 151.464 87.576 152.984 86.392 153.976C86.168 153.576 85.72 152.872 85.432 152.52C86.408 151.72 87.464 150.44 87.992 149.448ZM93.464 152.136H92.008C91.864 152.488 91.672 152.824 91.48 153.16H93.016C93.16 152.856 93.32 152.504 93.464 152.136ZM94.664 155.304V154.44H93.72V155.304H94.664ZM94.664 157.384V156.504H93.72V157.384H94.664ZM91.4 156.504V157.384H92.392V156.504H91.4ZM91.4 154.44V155.304H92.392V154.44H91.4ZM90.04 158.664V154.648C89.88 154.488 89.688 154.328 89.496 154.168C89.304 154.568 89.08 154.968 88.856 155.352V164.392H87.128V157.88C86.856 158.2 86.584 158.52 86.328 158.792C86.152 158.392 85.624 157.464 85.304 157.064C86.408 155.992 87.544 154.36 88.232 152.792L89.432 153.224C90.328 152.072 90.92 150.696 91.24 149.544L92.92 149.816C92.824 150.104 92.728 150.392 92.616 150.696H94.232L94.488 150.632L95.592 151.352C95.368 151.912 95.032 152.568 94.696 153.16H96.088V158.664H90.04ZM96.376 161H94.248C94.968 161.56 95.704 162.184 96.104 162.68L94.952 163.832C94.584 163.336 93.864 162.664 93.144 162.056C92.648 163.048 91.784 163.784 90.312 164.312C90.152 163.912 89.736 163.336 89.4 163.032C90.792 162.568 91.48 161.896 91.848 161H89.624V159.496H92.184C92.2 159.288 92.216 159.08 92.232 158.872H93.864C93.848 159.08 93.832 159.288 93.816 159.496H96.376V161ZM100.44 154.376V156.104H99.384V162.44C99.384 163.256 99.272 163.72 98.776 164.008C98.296 164.296 97.64 164.328 96.728 164.328C96.696 163.832 96.504 163.128 96.28 162.616C96.776 162.632 97.304 162.632 97.464 162.632C97.64 162.632 97.688 162.584 97.688 162.408V156.104H96.44V154.376H100.44ZM105.096 149.48L106.856 150.056C106.44 151.096 105.944 152.184 105.368 153.208V164.36H103.56V155.992C103.16 156.504 102.76 156.984 102.344 157.416C102.168 156.952 101.64 155.928 101.32 155.464C102.808 154.024 104.264 151.752 105.096 149.48ZM108.984 151.816V153.96H113.672V151.816H108.984ZM116.36 158.808H113.16C114.104 160.2 115.48 161.512 116.824 162.296C116.392 162.664 115.784 163.336 115.48 163.816C114.312 162.984 113.144 161.688 112.232 160.264V164.392H110.312V160.344C109.336 161.752 108.12 162.968 106.856 163.784C106.568 163.32 105.976 162.632 105.544 162.264C106.984 161.512 108.408 160.216 109.4 158.808H106.12V157.08H110.312V155.64H107.176V150.152H115.576V155.64H112.232V157.08H116.36V158.808ZM126.728 153.064H128.568C128.712 152.712 128.856 152.328 128.936 152.008H126.328C126.488 152.36 126.648 152.76 126.728 153.064ZM124.648 152.232L125.496 152.008H123.4V150.536H126.68C126.6 150.264 126.52 149.976 126.44 149.736L128.152 149.336C128.296 149.704 128.472 150.152 128.584 150.536H131.864V152.008H129.32L130.808 152.264C130.648 152.552 130.504 152.824 130.376 153.064H132.328V154.552H122.824V153.064H124.936C124.856 152.776 124.76 152.488 124.648 152.232ZM121.944 150.008L123.192 150.712C122.76 152.056 122.216 153.672 121.752 154.888C122.744 156.152 122.968 157.288 122.968 158.216C122.968 159.256 122.744 159.944 122.232 160.328C121.992 160.52 121.672 160.632 121.32 160.68C121.016 160.728 120.632 160.728 120.264 160.728C120.248 160.248 120.104 159.56 119.848 159.08C120.136 159.112 120.376 159.128 120.552 159.096C120.712 159.096 120.888 159.064 121 158.968C121.208 158.824 121.288 158.472 121.288 158.024C121.288 157.256 121.064 156.216 120.136 155.096C120.456 154.12 120.792 152.808 121.064 151.768H119.64V164.36H117.976V150.072H121.672L121.944 150.008ZM125.496 158.12V158.824H129.704V158.12H125.496ZM125.496 156.408V157.08H129.704V156.408H125.496ZM132.344 160.776V162.328H128.648V164.392H126.76V162.328H122.872V160.776H126.76V160.008H123.736V155.208H131.544V160.008H128.648V160.776H132.344Z" fill="#222222"/>
<path opacity="0.8" d="M46.46 182.53V183.26H42.36V186.76H41.6V183.26H37.56V182.53H41.6V179.04H38.08V178.31H45.9V179.04H42.36V182.53H46.46ZM38.78 179.73L39.43 179.53C39.84 180.25 40.25 181.19 40.38 181.78L39.68 182.02C39.54 181.43 39.16 180.46 38.78 179.73ZM44.08 182.05L43.45 181.84C43.82 181.22 44.28 180.2 44.53 179.48L45.31 179.7C44.95 180.5 44.47 181.45 44.08 182.05ZM54.4 183.29H49.57V185.5H54.4V183.29ZM48.82 186.76V182.58H55.18V186.74H54.4V186.22H49.57V186.76H48.82ZM52.98 179.15L53.57 178.77C54.54 179.62 55.69 180.84 56.21 181.67L55.58 182.12C55.43 181.86 55.22 181.57 54.97 181.26C49.26 181.58 48.68 181.6 48.29 181.74C48.26 181.58 48.13 181.21 48.05 181.01C48.27 180.97 48.53 180.75 48.86 180.42C49.22 180.1 50.38 178.84 51.16 177.6L51.89 177.93C51.1 179.01 50.21 180.04 49.33 180.87L54.43 180.62C53.97 180.1 53.46 179.58 52.98 179.15ZM65.41 182H63.69C62.75 182 62.51 181.77 62.51 180.96V177.66H63.23V179.33C64.08 179.05 64.98 178.68 65.55 178.39L66.05 178.93C65.26 179.3 64.19 179.65 63.23 179.94V180.95C63.23 181.26 63.31 181.33 63.76 181.33H65.35C65.73 181.33 65.8 181.16 65.85 180.17C66 180.3 66.3 180.41 66.51 180.46C66.42 181.66 66.2 182 65.41 182ZM58.73 184.15H60.84V183.24H58.73V184.15ZM60.84 181.8H58.73V182.65H60.84V181.8ZM61.57 181.17V185.91C61.57 186.29 61.5 186.49 61.22 186.61C60.95 186.73 60.52 186.74 59.89 186.74C59.85 186.54 59.75 186.25 59.65 186.06C60.12 186.08 60.54 186.07 60.67 186.06C60.81 186.06 60.84 186.03 60.84 185.9V184.73H58.73V186.76H58.04V181.17H61.57ZM60.13 178.48L60.74 178.23C61.25 178.9 61.81 179.8 62.02 180.39L61.37 180.68C61.31 180.52 61.24 180.35 61.15 180.15C58.42 180.35 58.08 180.4 57.86 180.48C57.82 180.33 57.71 179.96 57.62 179.78C57.77 179.74 57.91 179.6 58.08 179.39C58.25 179.18 58.8 178.39 59.12 177.61L59.88 177.85C59.54 178.51 59.09 179.19 58.66 179.72L60.85 179.59C60.63 179.2 60.37 178.81 60.13 178.48ZM63.79 186.02H65.4C65.81 186.02 65.89 185.82 65.94 184.71C66.1 184.82 66.39 184.94 66.6 184.98C66.51 186.33 66.29 186.68 65.46 186.68H63.72C62.76 186.68 62.51 186.45 62.51 185.63V182.28H63.24V183.85C64.14 183.56 65.11 183.18 65.67 182.81L66.16 183.36C65.4 183.81 64.25 184.19 63.24 184.47V185.63C63.24 185.96 63.33 186.02 63.79 186.02ZM75.3 179.04H73.71C73.32 179.52 72.84 179.98 72.26 180.38C72.15 180.22 71.92 180.03 71.76 179.93C72.79 179.28 73.47 178.38 73.83 177.65L74.52 177.76C74.41 177.99 74.29 178.2 74.14 178.43H75.63L75.77 178.4L76.23 178.6C75.58 180.58 74.02 181.75 72.3 182.34C72.21 182.17 72.04 181.94 71.9 181.8C72.55 181.6 73.19 181.3 73.75 180.89C73.49 180.65 73.16 180.4 72.88 180.2L73.37 179.82C73.65 180 73.99 180.24 74.25 180.46C74.68 180.05 75.04 179.59 75.3 179.04ZM69.73 181.28H68.69V183.62H69.73V181.28ZM71.66 178.9V179.29C71.58 184.09 71.52 185.62 71.2 186.08C71.01 186.35 70.82 186.43 70.52 186.47C70.24 186.51 69.78 186.5 69.32 186.47C69.31 186.27 69.23 185.97 69.11 185.78C69.6 185.82 70.04 185.82 70.24 185.82C70.4 185.83 70.48 185.79 70.57 185.65C70.8 185.34 70.88 183.84 70.96 179.59H68.85C68.66 179.98 68.46 180.34 68.26 180.66H70.32V184.24H68.69V184.94H68.09V180.91C68.04 180.97 68 181.03 67.95 181.09C67.82 180.98 67.5 180.79 67.33 180.69C67.95 179.96 68.49 178.82 68.81 177.69L69.51 177.86C69.41 178.21 69.29 178.56 69.15 178.9H71.66ZM76.18 182.27L76.64 182.46C75.95 184.95 74.17 186.18 72 186.77C71.92 186.59 71.75 186.3 71.61 186.16C72.56 185.94 73.45 185.55 74.18 184.98C73.88 184.68 73.48 184.34 73.12 184.09L73.64 183.7C73.98 183.93 74.38 184.25 74.69 184.53C75.13 184.08 75.48 183.55 75.73 182.93H74.04C73.56 183.45 72.96 183.95 72.22 184.38C72.12 184.22 71.9 183.98 71.76 183.89C72.98 183.23 73.83 182.3 74.24 181.5L74.95 181.62C74.84 181.85 74.69 182.08 74.53 182.31H75.89V182.3H76.04L76.18 182.27ZM85.25 179.05H82.85C82.29 179.5 81.66 179.91 81.01 180.21C80.9 180.07 80.67 179.85 80.53 179.73C81.67 179.26 82.72 178.44 83.26 177.64L84.01 177.86C83.86 178.06 83.7 178.25 83.52 178.44H85.67L85.8 178.41L86.28 178.67C85.34 180.67 83.15 181.77 80.97 182.26C80.89 182.08 80.74 181.82 80.6 181.67C81.41 181.51 82.24 181.26 82.98 180.9C82.76 180.58 82.39 180.2 82.05 179.92L82.6 179.6C82.94 179.87 83.33 180.26 83.57 180.57C84.26 180.16 84.84 179.66 85.25 179.05ZM79.32 180.56V177.65H80.04V186.76H79.32V183.23C78.81 183.73 78.29 184.22 77.83 184.62L77.42 184C77.9 183.62 78.62 182.99 79.32 182.35V180.63L78.8 181.06C78.56 180.59 77.99 179.89 77.47 179.39L77.99 178.99C78.48 179.45 79.06 180.1 79.32 180.56ZM81.23 183.8L81.82 183.47C82.34 183.99 82.91 184.72 83.16 185.22L82.52 185.59C82.29 185.09 81.74 184.34 81.23 183.8ZM86.47 182.49V183.18H85.26V185.88C85.26 186.31 85.16 186.52 84.85 186.64C84.54 186.75 84.01 186.76 83.23 186.76C83.2 186.56 83.09 186.26 82.99 186.05C83.6 186.07 84.16 186.07 84.32 186.07C84.49 186.06 84.53 186.01 84.53 185.87V183.18H80.51V182.49H84.53V181.26H85.26V182.49H86.47ZM88.48 179.17V180.33H87.78V178.51H91.7C91.59 178.26 91.45 177.98 91.33 177.76L92.1 177.54C92.28 177.83 92.47 178.22 92.6 178.51H96.24V180.33H95.51V179.17H88.48ZM94.95 184.9H94.18V182.48H89.77V184.97H89.03V181.84H94.95V184.9ZM95.25 180.17V180.77H93.7V181.5H92.96V180.77H91.04V181.5H90.29V180.77H88.76V180.17H90.29V179.51H91.04V180.17H92.96V179.51H93.7V180.17H95.25ZM91.41 183.62V182.84H92.2V183.63C92.2 184.69 91.76 186.02 87.94 186.91C87.85 186.75 87.63 186.45 87.46 186.3C91.15 185.54 91.41 184.42 91.41 183.62ZM93.57 185.99H95.29C95.78 185.99 95.86 185.8 95.91 184.49C96.07 184.62 96.37 184.74 96.57 184.78C96.48 186.3 96.25 186.64 95.34 186.64H93.51C92.5 186.64 92.23 186.43 92.23 185.69V184.08H92.97V185.68C92.97 185.94 93.07 185.99 93.57 185.99ZM104.14 178.02L104.84 177.86C105.24 179.4 105.77 180.53 106.53 181.52C106.33 181.66 106.07 181.92 105.94 182.13C105.1 180.98 104.58 179.72 104.14 178.02ZM102.43 177.97L103.19 178.1C102.83 179.69 102.22 181.18 101.46 182.15C101.33 182.04 100.99 181.81 100.81 181.71C101.57 180.83 102.13 179.43 102.43 177.97ZM101.09 182.81L100.58 183.42C100.42 183.05 100.06 182.39 99.74 181.84V186.76H99.01V182.08C98.67 183.19 98.22 184.26 97.76 184.93C97.67 184.72 97.49 184.4 97.35 184.21C98 183.39 98.63 181.81 98.93 180.44H97.5V179.74H99.01V177.63H99.74V179.74H100.98V180.44H99.74V180.84C100.08 181.29 100.91 182.51 101.09 182.81ZM104.34 183.55L104.95 183.29C105.49 184.23 106.1 185.49 106.34 186.24L105.66 186.56C105.6 186.34 105.5 186.08 105.39 185.81C102.06 186.25 101.62 186.32 101.34 186.46H101.33V186.42C101.27 186.25 101.15 185.91 101.06 185.71C101.28 185.65 101.47 185.32 101.71 184.83C101.97 184.35 102.78 182.52 103.2 180.83L103.97 181.12C103.51 182.64 102.87 184.24 102.2 185.51L105.13 185.16C104.88 184.61 104.61 184.04 104.34 183.55ZM109.96 177.64L110.68 177.86C110.38 178.59 110.03 179.3 109.62 179.98V186.77H108.89V181.08C108.52 181.58 108.12 182.04 107.71 182.43C107.64 182.25 107.41 181.87 107.25 181.69C108.34 180.72 109.35 179.19 109.96 177.64ZM116.56 182.6H113.74V185.67H116.41V186.39H110.43V185.67H113V182.6H110.05V181.88H113V179.24C112.2 179.38 111.37 179.5 110.61 179.59C110.58 179.41 110.46 179.13 110.38 178.96C112.23 178.72 114.39 178.32 115.61 177.88L116.16 178.5C115.48 178.72 114.64 178.93 113.74 179.11V181.88H116.56V182.6ZM122.04 183.18H125.66C125.66 183.18 125.65 183.41 125.62 183.51C125.41 185.32 125.18 186.07 124.84 186.38C124.62 186.58 124.4 186.63 124.03 186.65C123.74 186.66 123.14 186.66 122.55 186.62C122.54 186.42 122.45 186.15 122.32 185.96C122.95 186.02 123.58 186.03 123.83 186.03C124.03 186.03 124.15 186.02 124.26 185.94C124.49 185.75 124.69 185.14 124.86 183.83H121.83C121.2 185.44 119.97 186.28 118.01 186.75C117.93 186.58 117.74 186.27 117.6 186.12C119.36 185.78 120.47 185.11 121.04 183.83H118.29V183.18H121.27C121.35 182.88 121.42 182.55 121.46 182.19L122.23 182.25C122.18 182.58 122.11 182.9 122.04 183.18ZM120.39 179.3L120.24 179.44C120.68 179.99 121.31 180.42 122.08 180.75C123.02 180.37 123.84 179.89 124.43 179.3H120.39ZM125.13 178.62L125.58 178.93C124.98 179.83 124.05 180.52 122.95 181.06C123.99 181.38 125.23 181.56 126.56 181.64C126.41 181.81 126.24 182.1 126.15 182.31C124.62 182.18 123.23 181.91 122.07 181.43C120.74 181.95 119.24 182.25 117.79 182.43C117.74 182.24 117.61 181.95 117.49 181.78C118.76 181.66 120.07 181.42 121.25 181.04C120.67 180.72 120.17 180.33 119.76 179.86C119.36 180.19 118.9 180.49 118.39 180.78C118.29 180.61 118.09 180.35 117.93 180.23C119.33 179.52 120.32 178.49 120.83 177.62L121.61 177.78C121.42 178.07 121.21 178.37 120.97 178.66H125L125.13 178.62ZM128.93 181.39H135.09C135.09 181.39 135.08 181.65 135.07 181.75C134.93 184.78 134.8 185.92 134.46 186.3C134.24 186.55 134.03 186.63 133.68 186.65C133.35 186.68 132.73 186.67 132.11 186.63C132.1 186.41 132.01 186.1 131.87 185.89C132.52 185.95 133.12 185.96 133.36 185.96C133.57 185.96 133.68 185.93 133.79 185.83C134.04 185.58 134.18 184.6 134.3 182.12H131.59C131.32 184.09 130.66 185.88 128.15 186.8C128.05 186.61 127.84 186.31 127.68 186.17C130.03 185.38 130.58 183.8 130.81 182.12H128.89V181.43C128.64 181.7 128.37 181.94 128.11 182.16C127.97 182.01 127.66 181.73 127.47 181.59C128.66 180.73 129.67 179.35 130.25 177.83L131.04 178.05C130.53 179.32 129.77 180.49 128.93 181.39ZM133.04 178.09L133.71 177.81C134.33 179.16 135.53 180.66 136.57 181.44C136.37 181.59 136.11 181.87 135.97 182.07C134.93 181.16 133.74 179.56 133.04 178.09ZM146.06 181.64L145.43 182.09C145.27 181.88 145.05 181.63 144.79 181.37C139.4 181.63 138.86 181.65 138.49 181.78C138.45 181.61 138.34 181.24 138.25 181.04C138.44 181.01 138.67 180.84 138.94 180.58C139.19 180.37 139.87 179.68 140.44 178.89H137.8V178.19H146.13V178.89H141.41C140.82 179.66 140.18 180.38 139.55 180.95L144.17 180.76C143.76 180.39 143.33 180.02 142.93 179.71L143.52 179.33C144.42 180 145.53 180.97 146.06 181.64ZM142.36 185.68H146.45V186.38H137.58V185.68H141.61V183.84H138.45V183.15H141.61V181.85H142.36V183.15H145.61V183.84H142.36V185.68ZM149.67 177.67L150.37 177.87C150.11 178.59 149.79 179.3 149.42 179.99V186.75H148.7V181.18C148.38 181.66 148.03 182.1 147.68 182.48C147.6 182.31 147.4 181.91 147.26 181.75C148.23 180.75 149.13 179.23 149.67 177.67ZM152.77 184.68L153.31 184.51C153.66 185.1 154.06 185.91 154.23 186.4L153.65 186.61C153.5 186.11 153.11 185.29 152.77 184.68ZM151.47 181.45H153.69C153.61 180.66 153.56 179.8 153.52 178.9C152.84 179.04 152.15 179.16 151.47 179.25V181.45ZM156.48 182.15H154.47C154.72 184.3 155.16 185.78 155.71 185.81C155.9 185.81 156.02 185.3 156.1 184.37C156.23 184.5 156.5 184.69 156.64 184.75C156.44 186.25 156.1 186.68 155.71 186.68C154.63 186.66 154.05 184.84 153.76 182.15H151.47V185.8L152.88 185.45C152.87 185.63 152.88 185.92 152.9 186.06C151.08 186.58 150.8 186.69 150.63 186.81C150.6 186.63 150.47 186.34 150.36 186.18C150.53 186.11 150.77 185.97 150.77 185.58V178.72H150.78L150.77 178.71C152.45 178.46 154.36 178.07 155.44 177.66L156.07 178.25C155.53 178.43 154.9 178.6 154.22 178.76C154.25 179.71 154.31 180.62 154.39 181.45H156.48V182.15ZM166.1 179.11L165.55 179.5C165.32 179.13 164.79 178.58 164.34 178.19L164.87 177.85C165.32 178.2 165.87 178.74 166.1 179.11ZM162.84 184.61V185.23C162.24 185.3 161.64 185.36 161.04 185.42V186.73H160.34V185.48C159.37 185.58 158.47 185.67 157.75 185.75L157.67 185.06C158.38 185.01 159.31 184.93 160.34 184.84V183.85H159.04C158.63 183.85 158.33 183.91 158.24 183.99C158.2 183.84 158.1 183.49 158.01 183.31C158.16 183.28 158.31 183.08 158.47 182.81C158.55 182.69 158.68 182.42 158.85 182.09H157.72V181.48H159.12C159.26 181.17 159.39 180.84 159.49 180.51L160.22 180.71C160.12 180.97 160.01 181.23 159.89 181.48H162.83V182.09H159.6C159.39 182.49 159.17 182.88 158.96 183.21H160.34V182.4H161.04V183.21H162.62V183.85H161.04V184.78C161.63 184.73 162.25 184.67 162.84 184.61ZM165.36 181L166.03 181.19C165.68 182.42 165.17 183.6 164.52 184.62C164.8 185.48 165.17 185.96 165.6 185.96C165.85 185.96 165.95 185.53 166.01 184.36C166.16 184.53 166.41 184.67 166.59 184.74C166.47 186.23 166.23 186.68 165.54 186.68C164.89 186.68 164.4 186.18 164.03 185.33C163.6 185.88 163.12 186.37 162.59 186.79C162.47 186.63 162.25 186.41 162.07 186.28C162.71 185.83 163.27 185.23 163.75 184.54C163.45 183.47 163.26 182.07 163.17 180.49H157.57V179.89H159.98V179.04H158.08V178.44H159.98V177.64H160.69V178.44H162.45V179.04H160.69V179.89H163.14C163.1 179.18 163.08 178.42 163.08 177.66H163.81C163.8 178.44 163.81 179.19 163.84 179.89H166.47V180.49H163.88C163.95 181.73 164.09 182.82 164.27 183.7C164.73 182.87 165.11 181.94 165.36 181ZM175.46 181.14V184.46C175.46 184.91 175.37 185.16 175 185.28C174.64 185.4 174.02 185.4 173.08 185.4C173.06 185.18 172.95 184.85 172.85 184.63C173.58 184.66 174.25 184.66 174.46 184.64C174.65 184.64 174.7 184.6 174.7 184.44V181.86H171.39V186.74H170.62V181.86H168.01V181.14H175.46ZM174.1 178.77H176.42V179.48H174.1V180.61H173.33V179.48H170.66V180.61H169.91V179.48H167.59V178.77H169.91V177.63H170.66V178.77H173.33V177.63H174.1V178.77ZM184.58 183.14V181.36H179.39V183.14H184.58ZM185.33 180.66V183.84H178.68V180.66H181.55V177.63H182.29V178.7H186.07V179.4H182.29V180.66H185.33ZM178.13 186.76L177.45 186.43C177.98 185.98 178.49 185.18 178.81 184.44L179.51 184.62C179.18 185.4 178.67 186.24 178.13 186.76ZM180.41 184.71L181.12 184.65C181.25 185.28 181.36 186.1 181.37 186.58L180.63 186.68C180.63 186.18 180.54 185.35 180.41 184.71ZM182.46 184.72L183.13 184.57C183.44 185.17 183.76 185.98 183.88 186.48L183.16 186.65C183.06 186.16 182.76 185.33 182.46 184.72ZM184.49 184.63L185.14 184.38C185.65 185.01 186.22 185.84 186.47 186.4L185.77 186.68C185.54 186.13 184.99 185.27 184.49 184.63ZM188.57 187.07L188.35 186.54C189.12 186.22 189.56 185.75 189.61 185.07C189.55 185.08 189.5 185.08 189.44 185.08C189.03 185.08 188.69 184.84 188.69 184.37C188.69 183.9 189.04 183.65 189.45 183.65C190 183.65 190.3 184.1 190.3 184.8C190.3 185.88 189.62 186.7 188.57 187.07ZM202.38 185.26H206.47V186H197.55V185.26H201.57V179.52H198.07V178.76H205.97V179.52H202.38V185.26ZM209.87 177.67L210.58 177.9C210.31 178.62 209.95 179.35 209.56 180.04V186.75H208.82V181.19C208.51 181.63 208.17 182.03 207.83 182.38C207.76 182.21 207.54 181.8 207.4 181.64C208.39 180.68 209.31 179.19 209.87 177.67ZM216.58 180.01H213.5V181.44H216.35V182.13H213.5V183.64H216.49V184.34H213.5V186.76H212.75V180.01H212.06C211.63 180.81 211.14 181.53 210.64 182.09C210.52 181.96 210.23 181.71 210.06 181.59C210.96 180.66 211.77 179.22 212.26 177.76L212.97 177.95C212.81 178.41 212.62 178.86 212.42 179.3H216.58V180.01ZM221.94 181.26H219.33V183.54H221.94V181.26ZM222.67 184.25H219.33V185.05H218.61V180.54H222.67V184.25ZM226.44 178.34V179.08H225.21V185.7C225.21 186.24 225.08 186.5 224.7 186.61C224.3 186.75 223.61 186.75 222.63 186.75C222.58 186.54 222.43 186.17 222.31 185.96C223.11 186 223.93 185.99 224.16 185.98C224.38 185.97 224.45 185.9 224.45 185.69V179.08H217.59V178.34H226.44ZM232.34 185.42H235.09V183.2H232.34V185.42ZM228.91 183.2V185.42H231.6V183.2H228.91ZM231.6 180.31H228.91V182.47H231.6V180.31ZM235.09 180.31H232.34V182.47H235.09V180.31ZM232.34 179.57H235.84V186.72H235.09V186.15H228.91V186.77H228.17V179.57H231.6V177.65H232.34V179.57ZM37.47 196.7H46.52V197.51H37.47V196.7ZM51.61 201.76V195.57H52.37V201.76H51.61ZM52.06 192.63L52.71 192.94C52.62 193.09 52.54 193.24 52.44 193.38C53.71 194.89 55.11 195.83 56.65 196.58C56.45 196.73 56.22 197.01 56.11 197.24C54.63 196.47 53.32 195.53 52.01 193.96C50.94 195.33 49.46 196.49 47.94 197.23C47.82 197.02 47.59 196.73 47.39 196.56C49.27 195.75 51.06 194.3 52.06 192.63ZM59.24 197.71H61.6V196.64H59.24V197.71ZM59.24 194.99V196.04H61.6V194.99H59.24ZM64.83 196.04V194.99H62.35V196.04H64.83ZM64.83 197.71V196.64H62.35V197.71H64.83ZM66.44 199.29V199.98H62.35V201.76H61.6V199.98H57.57V199.29H61.6V198.34H58.51V194.36H60.35C60.13 193.96 59.74 193.39 59.38 192.98L60 192.68C60.42 193.13 60.88 193.74 61.08 194.15L60.67 194.36H63.08C63.43 193.88 63.84 193.18 64.08 192.68L64.87 192.95C64.58 193.42 64.22 193.94 63.91 194.36H65.58V198.34H62.35V199.29H66.44ZM75.55 193.42V194.13H68.51V193.42H75.55ZM74.05 200.88H75.34C75.74 200.88 75.8 200.62 75.85 199.09C76.02 199.23 76.34 199.36 76.54 199.42C76.46 201.12 76.26 201.59 75.39 201.59H73.96C73.07 201.59 72.83 201.33 72.83 200.48V196.92H70.96C70.77 199.06 70.29 200.81 67.99 201.74C67.9 201.56 67.69 201.29 67.52 201.16C69.65 200.35 70.02 198.79 70.17 196.92H67.64V196.2H76.39V196.92H73.58V200.47C73.58 200.81 73.66 200.88 74.05 200.88ZM78.93 196.39H85.09C85.09 196.39 85.08 196.65 85.07 196.75C84.93 199.78 84.8 200.92 84.46 201.3C84.24 201.55 84.03 201.63 83.68 201.65C83.35 201.68 82.73 201.67 82.11 201.63C82.1 201.41 82.01 201.1 81.87 200.89C82.52 200.95 83.12 200.96 83.36 200.96C83.57 200.96 83.68 200.93 83.79 200.83C84.04 200.58 84.18 199.6 84.3 197.12H81.59C81.32 199.09 80.66 200.88 78.15 201.8C78.05 201.61 77.84 201.31 77.68 201.17C80.03 200.38 80.58 198.8 80.81 197.12H78.89V196.43C78.64 196.7 78.37 196.94 78.11 197.16C77.97 197.01 77.66 196.73 77.47 196.59C78.66 195.73 79.67 194.35 80.25 192.83L81.04 193.05C80.53 194.32 79.77 195.49 78.93 196.39ZM83.04 193.09L83.71 192.81C84.33 194.16 85.53 195.66 86.57 196.44C86.37 196.59 86.11 196.87 85.97 197.07C84.93 196.16 83.74 194.56 83.04 193.09ZM95.79 194.35L95.21 194.6C95.07 194.21 94.77 193.61 94.48 193.17L95.03 192.95C95.34 193.39 95.65 193.96 95.79 194.35ZM90.03 196.73L90.17 197.4C89.84 197.54 89.49 197.67 89.16 197.81V200.94C89.16 201.33 89.07 201.52 88.83 201.64C88.61 201.75 88.24 201.77 87.64 201.77C87.61 201.59 87.52 201.31 87.42 201.11C87.84 201.12 88.23 201.12 88.33 201.11C88.46 201.11 88.51 201.07 88.51 200.94V198.05L87.53 198.43L87.32 197.72C87.66 197.61 88.06 197.47 88.51 197.3V195.33H87.47V194.64H88.51V192.64H89.16V194.64H90.02V195.33H89.16V197.06L90.03 196.73ZM93.54 199.25V200.6H94.74V199.25H93.54ZM94.74 196.63V195.3H93.54V196.63H94.74ZM94.74 198.6V197.28H93.54V198.6H94.74ZM96.57 200.6V201.25H93.54V201.75H92.91V195.78C92.75 196 92.59 196.21 92.42 196.41C92.35 196.29 92.21 196.1 92.09 195.97C92.01 196.72 91.9 197.39 91.76 197.96C92.08 198.61 92.36 199.23 92.5 199.7L91.98 199.98C91.89 199.64 91.72 199.23 91.52 198.79C91.18 199.78 90.7 200.5 90.08 201.02C89.99 200.87 89.81 200.64 89.66 200.51C90.31 200.01 90.8 199.16 91.12 197.96C90.78 197.28 90.37 196.57 89.98 195.96L90.45 195.73C90.75 196.16 91.04 196.65 91.32 197.14C91.45 196.44 91.54 195.63 91.59 194.73H90.12V194.06H91.74L91.85 194.04L92.22 194.09C92.2 194.71 92.16 195.29 92.11 195.82C92.81 194.96 93.44 193.66 93.74 192.62L94.39 192.8C94.18 193.39 93.91 194.03 93.59 194.64H96.5V195.3H95.36V196.63H96.34V197.28H95.36V198.6H96.35V199.25H95.36V200.6H96.57ZM100.66 198.49V200.05C101.34 199.92 102.05 199.79 102.74 199.66L102.79 200.31C101.02 200.65 99.13 201.01 97.82 201.27L97.66 200.57C98.27 200.47 99.08 200.32 99.95 200.17V198.49H98V197.83H99.95V196.75H100.66V197.83H102.65V198.49H100.66ZM97.74 193.95V193.29H102.85V193.95H100.15C99.81 194.61 99.4 195.28 99 195.81L101.55 195.59C101.31 195.24 101.05 194.9 100.81 194.6L101.34 194.28C101.9 194.95 102.56 195.85 102.85 196.42L102.28 196.79C102.2 196.62 102.08 196.4 101.93 196.17C98.82 196.47 98.46 196.51 98.22 196.62C98.18 196.46 98.06 196.11 97.97 195.92C98.13 195.89 98.28 195.72 98.45 195.48C98.6 195.28 99 194.66 99.32 193.95H97.74ZM104.1 193.5V199.51H103.4V193.5H104.1ZM105.36 192.8H106.09V200.6C106.09 201.07 105.98 201.3 105.68 201.41C105.37 201.53 104.84 201.55 104.12 201.55C104.09 201.36 103.96 201.02 103.85 200.82C104.43 200.84 104.98 200.84 105.15 200.83C105.32 200.82 105.36 200.78 105.36 200.61V192.8ZM114.45 193.47L114.93 193.77C113.67 195.98 110.76 197.32 108.17 197.86C108.11 197.66 107.95 197.35 107.82 197.19C108.93 196.99 110.11 196.63 111.17 196.12C110.84 195.82 110.4 195.5 110 195.27L110.54 194.89C110.96 195.13 111.46 195.47 111.82 195.79C112.61 195.33 113.3 194.79 113.79 194.17H110.97C110.33 194.7 109.55 195.19 108.65 195.6C108.54 195.43 108.31 195.2 108.15 195.08C109.74 194.41 110.93 193.44 111.57 192.62L112.38 192.79C112.19 193.03 111.97 193.26 111.73 193.5H114.32L114.45 193.47ZM115.91 196.96L116.41 197.27C115.02 200.21 111.61 201.37 108.09 201.79C108.04 201.58 107.92 201.25 107.79 201.07C109.48 200.91 111.16 200.56 112.56 199.91C112.23 199.59 111.78 199.21 111.39 198.91L112 198.56C112.4 198.85 112.88 199.24 113.24 199.57C114.09 199.08 114.8 198.46 115.3 197.68H112.6C111.77 198.35 110.74 198.96 109.49 199.45C109.4 199.29 109.19 199.02 109.02 198.9C111.04 198.17 112.46 197.06 113.19 196.08L114.01 196.26C113.81 196.51 113.6 196.76 113.35 197H115.76L115.91 196.96ZM121.61 201.76V195.57H122.37V201.76H121.61ZM122.06 192.63L122.71 192.94C122.62 193.09 122.54 193.24 122.44 193.38C123.71 194.89 125.11 195.83 126.65 196.58C126.45 196.73 126.22 197.01 126.11 197.24C124.63 196.47 123.32 195.53 122.01 193.96C120.94 195.33 119.46 196.49 117.94 197.23C117.82 197.02 117.59 196.73 117.39 196.56C119.27 195.75 121.06 194.3 122.06 192.63ZM129.24 197.71H131.6V196.64H129.24V197.71ZM129.24 194.99V196.04H131.6V194.99H129.24ZM134.83 196.04V194.99H132.35V196.04H134.83ZM134.83 197.71V196.64H132.35V197.71H134.83ZM136.44 199.29V199.98H132.35V201.76H131.6V199.98H127.57V199.29H131.6V198.34H128.51V194.36H130.35C130.13 193.96 129.74 193.39 129.38 192.98L130 192.68C130.42 193.13 130.88 193.74 131.08 194.15L130.67 194.36H133.08C133.43 193.88 133.84 193.18 134.08 192.68L134.87 192.95C134.58 193.42 134.22 193.94 133.91 194.36H135.58V198.34H132.35V199.29H136.44ZM145.55 193.42V194.13H138.51V193.42H145.55ZM144.05 200.88H145.34C145.74 200.88 145.8 200.62 145.85 199.09C146.02 199.23 146.34 199.36 146.54 199.42C146.46 201.12 146.26 201.59 145.39 201.59H143.96C143.07 201.59 142.83 201.33 142.83 200.48V196.92H140.96C140.77 199.06 140.29 200.81 137.99 201.74C137.9 201.56 137.69 201.29 137.52 201.16C139.65 200.35 140.02 198.79 140.17 196.92H137.64V196.2H146.39V196.92H143.58V200.47C143.58 200.81 143.66 200.88 144.05 200.88ZM152.06 200.55H156.42V201.29H147.55V200.55H151.27V192.79H152.06V195.85H155.8V196.6H152.06V200.55ZM160.54 196.98L160.64 197.65C160.26 197.78 159.87 197.91 159.48 198.03V200.87C159.48 201.28 159.39 201.48 159.13 201.61C158.9 201.73 158.52 201.76 157.88 201.76C157.85 201.56 157.76 201.25 157.66 201.04C158.09 201.05 158.48 201.05 158.59 201.05C158.72 201.05 158.77 201.01 158.77 200.87V198.26L157.56 198.65L157.37 197.93C157.76 197.83 158.24 197.68 158.77 197.53V195.42H157.52V194.73H158.77V192.64H159.48V194.73H160.51V195.42H159.48V197.31L160.54 196.98ZM162.98 194.77H165.24C165.14 198.89 165.11 201.05 165.69 201.05C165.86 201.05 165.94 200.72 165.98 199.72C166.14 199.86 166.41 199.99 166.59 200.06C166.51 201.39 166.27 201.76 165.65 201.76C164.36 201.76 164.44 199.41 164.48 195.45H162.96C162.93 196.28 162.86 197.03 162.74 197.7C163.38 198.08 163.98 198.48 164.37 198.78L163.93 199.37C163.61 199.1 163.13 198.77 162.6 198.42C162.23 199.87 161.55 200.95 160.29 201.8C160.2 201.65 159.93 201.33 159.76 201.19C160.99 200.46 161.63 199.42 161.96 198.02C161.55 197.77 161.12 197.52 160.74 197.31L161.15 196.8C161.45 196.96 161.77 197.13 162.09 197.32C162.18 196.75 162.23 196.13 162.25 195.45H160.74V194.77H162.27C162.28 194.1 162.27 193.4 162.25 192.63L162.98 192.62C162.99 193.39 162.99 194.1 162.98 194.77ZM176.25 193.24V193.94H171.35V193.24H176.25ZM169.68 192.63L170.4 192.91C169.74 193.8 168.72 194.78 167.81 195.41C167.71 195.25 167.49 194.96 167.35 194.82C168.2 194.27 169.18 193.36 169.68 192.63ZM170.08 194.76L170.78 195.02C170.47 195.52 170.1 196.03 169.69 196.52V201.8H168.94V197.35C168.56 197.74 168.17 198.09 167.8 198.39C167.69 198.23 167.42 197.92 167.26 197.78C168.3 197.05 169.39 195.89 170.08 194.76ZM176.49 195.97V196.68H175.01V200.8C175.01 201.26 174.89 201.46 174.55 201.58C174.2 201.68 173.64 201.69 172.72 201.68C172.68 201.49 172.56 201.19 172.45 201C173.15 201.02 173.82 201.02 174.01 201.01C174.2 201 174.25 200.96 174.25 200.79V196.68H170.92V195.97H176.49ZM178.57 202.07L178.35 201.54C179.12 201.22 179.56 200.75 179.61 200.07C179.55 200.08 179.5 200.08 179.44 200.08C179.03 200.08 178.69 199.84 178.69 199.37C178.69 198.9 179.04 198.65 179.45 198.65C180 198.65 180.3 199.1 180.3 199.8C180.3 200.88 179.62 201.7 178.57 202.07ZM189.99 196.89H188.89V199.84H189.99V196.89ZM190.62 200.51H188.89V201.31H188.25V197.7C188.09 198 187.92 198.27 187.73 198.51C187.68 198.34 187.51 197.92 187.39 197.72C188.08 196.77 188.52 195.36 188.79 193.85H187.6V193.16H190.93V193.85H189.49C189.34 194.67 189.13 195.49 188.88 196.23H190.62V200.51ZM194.1 198.7H195.53V197.51H194.1V198.7ZM192.1 198.7H193.43V197.51H192.13V197.81C192.13 198.09 192.12 198.4 192.1 198.7ZM194.36 194.09H192.58C192.38 194.47 192.16 194.84 191.92 195.17H193.63C193.87 194.88 194.16 194.46 194.36 194.09ZM192.13 195.81V196.91H193.43V195.81H192.13ZM195.53 196.91V195.81H194.1V196.91H195.53ZM196.24 195.17V200.87C196.24 201.26 196.16 201.45 195.91 201.56C195.66 201.68 195.24 201.68 194.62 201.68C194.6 201.49 194.52 201.21 194.43 201.02C194.86 201.04 195.26 201.04 195.37 201.03C195.49 201.03 195.53 200.99 195.53 200.86V199.35H194.1V201.4H193.43V199.35H192.02C191.88 200.22 191.57 201.11 190.93 201.78C190.82 201.66 190.53 201.44 190.36 201.36C191.32 200.36 191.44 198.94 191.44 197.81V195.78C191.27 195.97 191.11 196.14 190.94 196.3C190.86 196.16 190.63 195.88 190.49 195.74C191.34 194.99 192.09 193.82 192.52 192.6L193.17 192.77C193.08 193.01 192.99 193.23 192.89 193.46H194.79L194.9 193.43L195.37 193.75C195.14 194.21 194.77 194.74 194.42 195.17H196.24ZM199.78 192.66L200.48 192.87C200.19 193.59 199.85 194.3 199.46 194.95V201.74H198.75V196.04C198.41 196.52 198.04 196.95 197.68 197.32C197.6 197.16 197.39 196.77 197.26 196.6C198.25 195.65 199.21 194.17 199.78 192.66ZM201.51 193.77V195.6H205.22V193.77H201.51ZM206.51 198.18H204.14C204.8 199.23 205.81 200.24 206.77 200.76C206.61 200.89 206.37 201.16 206.24 201.35C205.34 200.77 204.38 199.73 203.71 198.64V201.77H202.97V198.67C202.27 199.77 201.27 200.77 200.3 201.33C200.17 201.15 199.95 200.88 199.78 200.74C200.81 200.23 201.87 199.24 202.54 198.18H200.07V197.5H202.97V196.26H200.81V193.1H205.96V196.26H203.71V197.5H206.51V198.18ZM210.35 194.01L209.96 194.59C209.51 194.24 208.6 193.78 207.88 193.51L208.25 192.99C208.97 193.24 209.89 193.67 210.35 194.01ZM210.41 195.17L210.52 195.82C209.56 196.14 208.54 196.48 207.74 196.74L207.53 196.05C208.25 195.85 209.33 195.51 210.41 195.17ZM215.26 199.99H214.51V197.97H209.58V200.06H208.85V197.29H215.26V199.99ZM211.74 198.26H212.46C212.13 200.25 211.21 201.32 207.86 201.79C207.81 201.62 207.65 201.33 207.53 201.18C210.69 200.79 211.44 199.91 211.74 198.26ZM212.16 200.23L212.57 199.69C213.79 200.07 215.45 200.68 216.32 201.12L215.88 201.73C215.05 201.29 213.4 200.64 212.16 200.23ZM215.24 194.14H213.76C213.71 194.32 213.65 194.48 213.59 194.65C214.14 195.51 215.21 196.18 216.46 196.45C216.3 196.58 216.11 196.85 216.01 197.03C214.9 196.72 213.93 196.08 213.3 195.23C212.83 196.04 212.05 196.69 210.67 197.1C210.6 196.94 210.41 196.69 210.27 196.56C212.04 196.08 212.72 195.17 213.01 194.14H211.83C211.55 194.54 211.21 194.93 210.79 195.28C210.67 195.11 210.43 194.91 210.27 194.82C211.07 194.2 211.59 193.36 211.84 192.67L212.55 192.77C212.45 193.03 212.33 193.29 212.19 193.55H215.57L215.69 193.52L216.23 193.67C215.98 194.22 215.67 194.82 215.43 195.21L214.78 195.02C214.93 194.79 215.08 194.46 215.24 194.14ZM220 193.81L219.56 194.4C219.18 194.1 218.44 193.61 217.9 193.26L218.33 192.75C218.87 193.06 219.62 193.52 220 193.81ZM219.53 196.41L219.09 197.01C218.71 196.72 217.97 196.25 217.41 195.94L217.84 195.42C218.38 195.72 219.14 196.14 219.53 196.41ZM219.14 198.01L219.72 198.42C219.31 199.47 218.75 200.7 218.28 201.62L217.62 201.21C218.06 200.44 218.68 199.13 219.14 198.01ZM221.12 193.8V195.85C221.12 197.59 220.95 200.06 219.77 201.73C219.65 201.6 219.33 201.41 219.16 201.34C220.29 199.74 220.39 197.49 220.39 195.85V193.12H226.47V193.8H221.12ZM222.04 198.94L222.71 199.12C222.38 199.85 221.88 200.65 221.45 201.17C221.31 201.06 221.03 200.89 220.85 200.79C221.31 200.31 221.75 199.6 222.04 198.94ZM222.36 196.93V197.81H225.4V196.93H222.36ZM222.36 195.52V196.39H225.4V195.52H222.36ZM226.09 198.38H224.19V200.99C224.19 201.36 224.13 201.55 223.85 201.66C223.58 201.77 223.16 201.77 222.49 201.76C222.46 201.57 222.37 201.31 222.28 201.12C222.76 201.14 223.2 201.13 223.31 201.13C223.44 201.12 223.48 201.09 223.48 200.98V198.38H221.69V194.95H223.2C223.31 194.63 223.43 194.22 223.49 193.94L224.32 194.11C224.18 194.4 224.04 194.69 223.91 194.95H226.09V198.38ZM224.86 199.11L225.5 198.86C225.89 199.47 226.39 200.29 226.64 200.77L225.96 201.07C225.74 200.57 225.25 199.74 224.86 199.11ZM229.43 198.83L230.81 198.17L230.99 198.79C229.83 199.39 228.59 200.03 227.65 200.51L227.39 199.76C227.75 199.6 228.21 199.39 228.71 199.16V195.73H227.46V195.02H228.71V192.75H229.43V195.02H230.63V195.73H229.43V198.83ZM234.83 197.87L235.01 198.45C233.75 199.18 232.38 199.93 231.35 200.48L231.05 199.8C231.99 199.36 233.47 198.59 234.83 197.87ZM234.11 197.53L233.64 198.03C233.25 197.61 232.47 196.9 231.85 196.39L232.3 195.97C232.95 196.46 233.72 197.13 234.11 197.53ZM232.75 194.23H236.27C236.27 194.23 236.27 194.52 236.26 194.62C236.13 199.27 236 200.85 235.61 201.34C235.39 201.63 235.17 201.72 234.79 201.76C234.44 201.79 233.78 201.77 233.18 201.74C233.16 201.52 233.08 201.23 232.94 201.02C233.65 201.09 234.29 201.09 234.55 201.09C234.76 201.1 234.87 201.06 234.98 200.94C235.31 200.59 235.45 199.01 235.56 194.92H232.36C231.97 195.57 231.53 196.14 231.08 196.6C230.98 196.46 230.72 196.15 230.58 196.02C231.45 195.2 232.24 193.94 232.7 192.63L233.37 192.84C233.2 193.31 232.98 193.78 232.75 194.23ZM46.34 208.33V209H44.29V208.33H46.34ZM39.01 207.63L39.68 207.89C39.23 208.69 38.52 209.62 37.86 210.22C37.77 210.08 37.59 209.8 37.46 209.67C38.05 209.14 38.68 208.3 39.01 207.63ZM42.41 209.07H41.23C41.08 209.37 40.92 209.68 40.73 209.97H42C42.14 209.72 42.29 209.38 42.41 209.07ZM43.17 211.37V210.51H42.28V211.37H43.17ZM43.17 212.77V211.89H42.28V212.77H43.17ZM40.78 211.37H41.72V210.51H40.78V211.37ZM41.72 211.89H40.78V212.77H41.72V211.89ZM40.21 213.31V210.7C40.16 210.75 40.12 210.81 40.07 210.86C39.96 210.72 39.75 210.54 39.58 210.45C39.46 210.69 39.33 210.93 39.19 211.16V216.77H38.51V212.19C38.27 212.53 38.03 212.83 37.78 213.09C37.71 212.94 37.49 212.59 37.35 212.45C38.05 211.73 38.77 210.66 39.22 209.62L39.88 209.84C39.81 210.01 39.73 210.17 39.64 210.33C40.36 209.53 40.82 208.51 41.04 207.69L41.71 207.78C41.64 208.01 41.56 208.24 41.47 208.48H42.71L42.82 208.44L43.26 208.73C43.11 209.14 42.9 209.59 42.68 209.97H43.76V213.31H40.21ZM41.67 213.46H42.33C42.31 213.65 42.29 213.82 42.26 213.99H44.01V214.61H42.35C42.93 215.04 43.53 215.57 43.85 215.95L43.4 216.41C43.09 216.04 42.52 215.5 41.96 215.06C41.64 215.79 41.08 216.33 40.1 216.68C40.02 216.53 39.85 216.3 39.72 216.18C40.69 215.85 41.18 215.33 41.43 214.61H39.88V213.99H41.6C41.63 213.82 41.65 213.65 41.67 213.46ZM46.54 210.77V211.46H45.72V215.9C45.72 216.28 45.66 216.47 45.41 216.59C45.18 216.71 44.82 216.72 44.27 216.72C44.24 216.53 44.16 216.24 44.06 216.04C44.45 216.05 44.8 216.05 44.91 216.04C45.02 216.04 45.05 216.01 45.05 215.9V211.46H44.06V210.77H46.54ZM47.89 212.28L47.31 212.08C47.58 211.42 47.76 210.33 47.83 209.52L48.39 209.6C48.34 210.42 48.15 211.55 47.89 212.28ZM48.75 216.76V207.63H49.49V216.76H48.75ZM49.56 209.47L50.08 209.23C50.38 209.77 50.69 210.48 50.81 210.9L50.25 211.17C50.14 210.74 49.84 210.02 49.56 209.47ZM53.95 215.71H56.45V216.42H50.35V215.71H53.21V213.21H51.09V212.52H53.21V210.45H51.75C51.55 211.05 51.32 211.57 51.05 212C50.9 211.9 50.57 211.74 50.39 211.66C50.97 210.79 51.37 209.45 51.6 208.09L52.32 208.21C52.22 208.73 52.1 209.25 51.96 209.74H53.21V207.67H53.95V209.74H56.21V210.45H53.95V212.52H55.99V213.21H53.95V215.71ZM63.79 213.61V214.33H57.61V213.61H63.79ZM59.62 211.51H65.87C65.87 211.51 65.86 211.77 65.84 211.87C65.56 214.72 65.28 215.86 64.83 216.29C64.58 216.55 64.32 216.62 63.9 216.64C63.54 216.66 62.82 216.65 62.12 216.6C62.1 216.38 61.99 216.07 61.84 215.87C62.62 215.94 63.39 215.94 63.68 215.94C63.93 215.94 64.08 215.93 64.19 215.82C64.57 215.53 64.82 214.5 65.05 212.21H59.29L58.67 212.2C58.98 211.1 59.38 209.22 59.62 207.85L60.37 207.93C60.3 208.27 60.24 208.64 60.16 209.01H65.72V209.72H60.02C59.88 210.35 59.75 210.97 59.62 211.51ZM70.41 208.79V210.63H72.46V211.32H70.41V211.59C70.89 212.04 72.04 213.19 72.34 213.49L71.9 214.1C71.6 213.72 70.93 212.99 70.41 212.43V216.75H69.67V212.46C69.15 213.6 68.45 214.71 67.78 215.39C67.69 215.19 67.5 214.88 67.37 214.69C68.17 213.94 69.04 212.57 69.52 211.32H67.57V210.63H69.67V208.93C69.02 209.06 68.37 209.16 67.75 209.25C67.72 209.07 67.61 208.82 67.52 208.66C68.99 208.44 70.71 208.1 71.65 207.69L72.2 208.26C71.71 208.45 71.08 208.63 70.41 208.79ZM73.97 208.82V214.3H73.24V208.82H73.97ZM75.36 207.75H76.09V215.73C76.09 216.24 75.95 216.46 75.64 216.58C75.32 216.71 74.77 216.73 73.86 216.73C73.81 216.53 73.7 216.18 73.59 215.98C74.28 216 74.91 215.99 75.1 215.99C75.28 215.98 75.36 215.93 75.36 215.73V207.75ZM82.42 213.01H85.11V211.35H82.42V213.01ZM79.25 213.01H81.68V211.35H79.29V211.94C79.29 212.27 79.28 212.64 79.25 213.01ZM81.68 209.05H79.29V210.65H81.68V209.05ZM85.11 210.65V209.05H82.42V210.65H85.11ZM85.84 208.34V215.76C85.84 216.24 85.71 216.46 85.39 216.59C85.05 216.71 84.47 216.72 83.53 216.71C83.5 216.51 83.38 216.19 83.28 215.99C83.98 216.02 84.66 216.01 84.84 216.01C85.04 216 85.11 215.94 85.11 215.75V213.72H82.42V216.67H81.68V213.72H79.18C79.03 214.83 78.69 215.97 77.93 216.82C77.82 216.67 77.52 216.42 77.36 216.33C78.46 215.09 78.56 213.33 78.56 211.94V208.34H85.84ZM94.21 213.03L93.62 213.29C93.57 213.13 93.47 212.95 93.35 212.76C90.75 213.01 90.4 213.06 90.2 213.16C90.16 213.02 90.06 212.69 89.98 212.51C90.21 212.48 90.46 212.29 90.81 212.02C91 211.86 91.43 211.47 91.91 210.98C90.76 211.07 90.54 211.12 90.39 211.18C90.36 211.04 90.26 210.71 90.18 210.55C90.33 210.53 90.47 210.41 90.62 210.23C90.75 210.1 91.09 209.69 91.39 209.21H87.75V208.53H91.82C91.69 208.28 91.51 207.98 91.36 207.75L92.08 207.56C92.3 207.85 92.54 208.25 92.67 208.53H96.38V209.21H92.17C91.87 209.65 91.54 210.08 91.22 210.43L92.49 210.35C92.72 210.09 92.96 209.81 93.16 209.52L93.77 209.87C92.98 210.79 92.11 211.67 91.25 212.36L93 212.22C92.84 212 92.67 211.77 92.51 211.58L93.06 211.35C93.51 211.86 94.01 212.56 94.21 213.03ZM96.26 212.89L95.71 213.33C95.3 212.94 94.45 212.34 93.75 211.93L94.28 211.53C94.95 211.91 95.82 212.48 96.26 212.89ZM95.26 209.59L95.88 209.97C95.43 210.43 94.85 210.91 94.39 211.22L93.85 210.87C94.3 210.55 94.92 210 95.26 209.59ZM87.89 210.03L88.39 209.62C88.92 209.94 89.58 210.41 89.91 210.75L89.39 211.2C89.08 210.86 88.43 210.36 87.89 210.03ZM90.05 211.51L90.2 212.06C89.44 212.47 88.63 212.9 87.97 213.23L87.6 212.63C88.22 212.38 89.15 211.94 90.05 211.51ZM96.46 213.97V214.66H92.39V216.77H91.61V214.66H87.55V213.97H91.61V213.15H92.39V213.97H96.46ZM100.41 215.98L99.73 216.56C99.09 215.77 98.23 214.91 97.52 214.33L98.17 213.76C98.89 214.34 99.79 215.25 100.41 215.98ZM109.33 214.02L110.33 213.65L110.46 214.31C109.5 214.7 108.49 215.11 107.69 215.42L107.45 214.68C107.79 214.58 108.19 214.43 108.64 214.27V210.75H107.57V210.06H108.64V207.75H109.33V210.06H110.32V210.75H109.33V214.02ZM114.86 213.56H111.94V214.39H114.86V213.56ZM111.94 215.69H114.86V214.94H111.94V215.69ZM111.25 216.74V212.99H115.57V216.74H114.86V216.27H111.94V216.74H111.25ZM111.43 207.92L112.05 207.66C112.33 207.99 112.64 208.45 112.77 208.77L112.13 209.08C111.99 208.77 111.69 208.28 111.43 207.92ZM111.66 210.06L112.09 209.9C112.39 210.33 112.68 210.91 112.79 211.29L112.34 211.49C112.24 211.1 111.96 210.5 111.66 210.06ZM114.27 211.51L113.89 211.34C114.15 210.96 114.5 210.32 114.67 209.9L115.18 210.09C114.89 210.58 114.55 211.15 114.27 211.51ZM115.4 211.84V209.61H113.68V211.84H115.4ZM111.35 209.61V211.84H113.1V209.61H111.35ZM114.67 209.08H116.04V212.37H110.73V209.08H113.9C114.2 208.68 114.55 208.05 114.75 207.61L115.51 207.88C115.24 208.29 114.94 208.73 114.67 209.08ZM121.92 209.45V209.84C121.73 214.18 121.57 215.66 121.21 216.12C121.01 216.39 120.82 216.47 120.53 216.5C120.27 216.54 119.86 216.54 119.44 216.51C119.42 216.28 119.34 215.96 119.22 215.75C119.64 215.79 120.02 215.8 120.2 215.8C120.36 215.8 120.45 215.76 120.55 215.63C120.83 215.31 121.01 213.93 121.17 210.18H119.76C119.64 212.68 119.27 215.17 118.02 216.72C117.88 216.55 117.63 216.33 117.43 216.22C118.6 214.83 118.93 212.51 119.03 210.18H117.65V209.45H119.05C119.07 208.84 119.07 208.23 119.07 207.66H119.81C119.81 208.24 119.8 208.84 119.78 209.45H121.92ZM123.4 215.17H125.34V209.6H123.4V215.17ZM122.67 208.88H126.1V216.55H125.34V215.89H123.4V216.62H122.67V208.88ZM129.87 212.84H134.19C133.6 212.34 133.11 211.76 132.77 211.14H131.19C130.83 211.77 130.4 212.33 129.87 212.84ZM129.84 215.62H134.17V213.53H129.84V215.62ZM136.46 211.14H133.56C134.25 212.15 135.38 212.98 136.65 213.39C136.52 213.58 136.39 213.92 136.34 214.14C135.85 213.95 135.39 213.71 134.96 213.42V216.74H134.17V216.32H129.84V216.76H129.09V213.51C128.7 213.79 128.27 214.05 127.8 214.28C127.71 214.1 127.51 213.79 127.37 213.64C128.67 213.06 129.63 212.18 130.31 211.14H127.55V210.45H130.72C130.98 209.95 131.19 209.43 131.34 208.88H128.14V208.19H135.9V208.88H132.18C132.01 209.43 131.8 209.95 131.57 210.45H136.46V211.14ZM139.74 209.26H138.46V213.61H139.74V209.26ZM140.44 214.33H138.46V215.1H137.77V208.54H140.44V214.33ZM143.93 215.61H146.57V216.34H140.28V215.61H143.18V211.5H140.96V210.78H143.18V207.8H143.93V210.78H146.27V211.5H143.93V215.61ZM154.45 208.97V208.41H149.51V208.97H154.45ZM154.45 209.94V209.37H149.51V209.94H154.45ZM155.19 207.96V210.39H148.8V207.96H155.19ZM156.42 210.78V211.35H147.55V210.78H156.42ZM149.31 213.83H151.62V213.24H149.31V213.83ZM149.31 212.26V212.84H151.62V212.26H149.31ZM154.74 212.84V212.26H152.34V212.84H154.74ZM154.74 213.83V213.24H152.34V213.83H154.74ZM152.34 215.93H156.51V216.51H147.5V215.93H151.62V215.36H148.32V214.83H151.62V214.29H148.62V211.8H155.47V214.29H152.34V214.83H155.66V215.36H152.34V215.93ZM158.94 213.56C159.79 213.56 160.47 214.24 160.47 215.08C160.47 215.93 159.79 216.61 158.94 216.61C158.11 216.61 157.42 215.93 157.42 215.08C157.42 214.24 158.11 213.56 158.94 213.56ZM158.94 216.1C159.51 216.1 159.96 215.65 159.96 215.08C159.96 214.53 159.51 214.07 158.94 214.07C158.39 214.07 157.93 214.53 157.93 215.08C157.93 215.65 158.39 216.1 158.94 216.1Z" fill="#222222"/>
<path d="M69.3865 43.8206L95.0344 69.0791" stroke="url(#paint0_linear_275_53)" stroke-width="4.57982"/>
<path d="M93.2025 44.759L70.3025 69.0821" stroke="url(#paint1_linear_275_53)" stroke-width="4.57982"/>
<path d="M98.6972 46.5903C102.275 46.5903 105.109 43.6393 105.109 40.0808C105.109 36.5223 102.275 33.5714 98.6972 33.5714C95.1198 33.5714 92.2853 36.5223 92.2853 40.0808C92.2853 43.6393 95.1198 46.5903 98.6972 46.5903Z" stroke="url(#paint2_linear_275_53)" stroke-width="3.66386"/>
<path d="M65.7226 47.5278C69.3 47.5278 72.1345 44.5768 72.1345 41.0183C72.1345 37.4598 69.3 34.5089 65.7226 34.5089C62.1452 34.5089 59.3106 37.4598 59.3106 41.0183C59.3106 44.5768 62.1452 47.5278 65.7226 47.5278Z" stroke="url(#paint3_linear_275_53)" stroke-width="3.66386"/>
<path d="M82.2101 64.3653C86.2934 64.3653 89.538 60.9955 89.538 56.9204C89.538 52.8452 86.2934 49.4754 82.2101 49.4754C78.1268 49.4754 74.8822 52.8452 74.8822 56.9204C74.8822 60.9955 78.1268 64.3653 82.2101 64.3653Z" fill="white" stroke="url(#paint4_linear_275_53)" stroke-width="3.66386"/>
<path d="M64.8068 81.2014C68.3842 81.2014 71.2187 78.2504 71.2187 74.6919C71.2187 71.1334 68.3842 68.1825 64.8068 68.1825C61.2294 68.1825 58.3949 71.1334 58.3949 74.6919C58.3949 78.2504 61.2294 81.2014 64.8068 81.2014Z" stroke="url(#paint5_linear_275_53)" stroke-width="3.66386"/>
<path d="M99.6134 81.2014C103.191 81.2014 106.025 78.2504 106.025 74.6919C106.025 71.1334 103.191 68.1825 99.6134 68.1825C96.036 68.1825 93.2015 71.1334 93.2015 74.6919C93.2015 78.2504 96.036 81.2014 99.6134 81.2014Z" stroke="url(#paint6_linear_275_53)" stroke-width="3.66386"/>
<path d="M111.979 83.662C113.251 82.6423 114.436 81.5807 115.533 80.4841L113.561 79.218C115.717 77.0632 117.511 74.7684 118.94 72.3918L121.217 73.2703C122.793 70.6492 123.952 67.9301 124.685 65.182L122.213 64.759C122.928 62.0794 123.213 59.3754 123.061 56.7203L125.586 56.6278C125.421 53.7258 124.767 50.8688 123.613 48.1429L121.219 48.7935C120.143 46.2519 118.603 43.8408 116.593 41.6391L118.633 40.4438C117.574 39.2842 116.395 38.1791 115.095 37.1384C113.796 36.0978 112.416 35.1538 110.967 34.3063L109.476 35.9412C106.727 34.3322 103.716 33.0995 100.543 32.2386L101.354 30.3209C97.9507 29.3975 94.384 28.8753 90.7613 28.7443L90.6471 30.767C87.3327 30.6472 83.9574 30.8764 80.6127 31.4505L80.0835 29.4707C76.6534 30.0595 73.2597 30.9888 69.9886 32.2526L71.0863 34.0763C68.1203 35.2222 65.2565 36.6608 62.5678 38.3888L60.9863 36.8095C59.6179 37.6889 58.2933 38.6388 57.0211 39.6585C55.7488 40.6782 54.5638 41.7398 53.4667 42.8364L55.4388 44.1025C53.2832 46.2573 51.4888 48.5522 50.0598 50.9287L47.7828 50.0503C46.2068 52.6714 45.0484 55.3904 44.3152 58.1385L46.7869 58.5615C46.0719 61.2411 45.7875 63.9451 45.9387 66.6002L43.4139 66.6927C43.5792 69.5948 44.2329 72.4517 45.3872 75.1776L47.7807 74.527C48.857 77.0686 50.3973 79.4797 52.4073 81.6814L50.3671 82.8767C51.4258 84.0363 52.6049 85.1414 53.9046 86.1821C55.2043 87.2228 56.5845 88.1668 58.0325 89.0142L59.5236 87.3793C62.273 88.9883 65.2837 90.221 68.4569 91.082L67.6459 92.9997C71.0493 93.923 74.616 94.4452 78.2387 94.5762L78.3529 92.5535C81.6674 92.6733 85.0426 92.4441 88.3873 91.87L88.9165 93.8498C92.3466 93.2611 95.7403 92.3318 99.0115 91.0679L97.9137 89.2443C100.88 88.0983 103.743 86.6597 106.432 84.9318L108.014 86.511C109.382 85.6316 110.707 84.6817 111.979 83.662Z" stroke="url(#paint7_linear_275_53)" stroke-width="4.57982" stroke-dasharray="9.16 9.16"/>
<defs>
<filter id="filter0_d_275_53" x="0.76288" y="0.0752233" width="269.849" height="269.849" filterUnits="userSpaceOnUse" color-interpolation-filters="sRGB">
<feFlood flood-opacity="0" result="BackgroundImageFix"/>
<feColorMatrix in="SourceAlpha" type="matrix" values="0 0 0 0 0 0 0 0 0 0 0 0 0 0 0 0 0 0 127 0" result="hardAlpha"/>
<feMorphology radius="0.858298" operator="dilate" in="SourceAlpha" result="effect1_dropShadow_275_53"/>
<feOffset dy="3.43319"/>
<feGaussianBlur stdDeviation="2.66072"/>
<feComposite in2="hardAlpha" operator="out"/>
<feColorMatrix type="matrix" values="0 0 0 0 0.794815 0 0 0 0 0.857965 0 0 0 0 0.966667 0 0 0 1 0"/>
<feBlend mode="normal" in2="BackgroundImageFix" result="effect1_dropShadow_275_53"/>
<feBlend mode="normal" in="SourceGraphic" in2="effect1_dropShadow_275_53" result="shape"/>
</filter>
<linearGradient id="paint0_linear_275_53" x1="82.2105" y1="43.8206" x2="82.2105" y2="69.0791" gradientUnits="userSpaceOnUse">
<stop stop-color="#28BEE3"/>
<stop offset="0.95" stop-color="#337EFF"/>
</linearGradient>
<linearGradient id="paint1_linear_275_53" x1="81.7525" y1="44.759" x2="81.7525" y2="69.0821" gradientUnits="userSpaceOnUse">
<stop stop-color="#28BEE3"/>
<stop offset="0.95" stop-color="#337EFF"/>
</linearGradient>
<linearGradient id="paint2_linear_275_53" x1="98.6972" y1="35.4033" x2="98.6972" y2="44.7583" gradientUnits="userSpaceOnUse">
<stop stop-color="#28BEE3"/>
<stop offset="0.95" stop-color="#337EFF"/>
</linearGradient>
<linearGradient id="paint3_linear_275_53" x1="65.7226" y1="36.3408" x2="65.7226" y2="45.6958" gradientUnits="userSpaceOnUse">
<stop stop-color="#28BEE3"/>
<stop offset="0.95" stop-color="#337EFF"/>
</linearGradient>
<linearGradient id="paint4_linear_275_53" x1="82.2101" y1="51.3074" x2="82.2101" y2="62.5334" gradientUnits="userSpaceOnUse">
<stop stop-color="#28BEE3"/>
<stop offset="0.95" stop-color="#337EFF"/>
</linearGradient>
<linearGradient id="paint5_linear_275_53" x1="64.8068" y1="70.0144" x2="64.8068" y2="79.3694" gradientUnits="userSpaceOnUse">
<stop stop-color="#28BEE3"/>
<stop offset="0.95" stop-color="#337EFF"/>
</linearGradient>
<linearGradient id="paint6_linear_275_53" x1="99.6134" y1="70.0144" x2="99.6134" y2="79.3694" gradientUnits="userSpaceOnUse">
<stop stop-color="#28BEE3"/>
<stop offset="0.95" stop-color="#337EFF"/>
</linearGradient>
<linearGradient id="paint7_linear_275_53" x1="85.9142" y1="91.9" x2="79.3978" y2="16.8443" gradientUnits="userSpaceOnUse">
<stop offset="0.12" stop-color="#337EFF" stop-opacity="0.93"/>
<stop offset="0.4" stop-color="#28BEE3"/>
<stop offset="0.86" stop-color="white" stop-opacity="0"/>
</linearGradient>
</defs>
</svg>
