<svg width="143" height="52" viewBox="0 0 143 52" fill="none" xmlns="http://www.w3.org/2000/svg">
<g filter="url(#filter0_d_923_60)">
<rect x="0.1" y="0.1" width="142.8" height="51.8" fill="white" stroke="#D7D7D7" stroke-width="0.2"/>
<g opacity="0.6">
<g opacity="0.69">
<rect width="24.321" height="1.52802" transform="matrix(0.90765 0.419727 -0.90765 0.419727 118.388 20)" fill="url(#paint0_linear_923_60)"/>
<rect width="24.321" height="1.52802" transform="matrix(0.90765 0.419727 -0.90765 0.419727 118.388 20)" stroke="url(#paint1_linear_923_60)" stroke-width="0.0934241"/>
<rect width="24.321" height="1.52802" transform="matrix(0.90765 0.419727 -0.90765 0.419727 118.388 20)" stroke="url(#paint2_linear_923_60)" stroke-width="0.0934241"/>
<rect width="24.321" height="1.52802" transform="matrix(0.90765 0.419727 -0.90765 0.419727 118.388 20)" stroke="black" stroke-opacity="0.2" stroke-width="0.0934241"/>
<rect width="24.321" height="19.2405" transform="matrix(0.90765 0.419727 0 1 117 20.6414)" fill="url(#paint3_linear_923_60)"/>
<rect width="24.321" height="19.2405" transform="matrix(0.90765 0.419727 0 1 117 20.6414)" stroke="url(#paint4_linear_923_60)" stroke-width="0.0934241"/>
<rect width="24.321" height="19.2405" transform="matrix(0.90765 0.419727 0 1 117 20.6414)" stroke="url(#paint5_linear_923_60)" stroke-width="0.0934241"/>
<rect width="24.321" height="19.2405" transform="matrix(0.90765 0.419727 0 1 117 20.6414)" stroke="black" stroke-opacity="0.2" stroke-width="0.0934241"/>
<rect width="1.52802" height="19.2405" transform="matrix(0.90765 -0.419727 0 1 139.076 30.8495)" fill="url(#paint6_linear_923_60)"/>
<rect width="1.52802" height="19.2405" transform="matrix(0.90765 -0.419727 0 1 139.076 30.8495)" stroke="url(#paint7_linear_923_60)" stroke-width="0.0934241"/>
<rect width="1.52802" height="19.2405" transform="matrix(0.90765 -0.419727 0 1 139.076 30.8495)" stroke="url(#paint8_linear_923_60)" stroke-width="0.0934241"/>
<rect width="1.52802" height="19.2405" transform="matrix(0.90765 -0.419727 0 1 139.076 30.8495)" stroke="black" stroke-opacity="0.2" stroke-width="0.0934241"/>
<g filter="url(#filter1_f_923_60)">
<ellipse cx="119" cy="32.5" rx="7" ry="6.5" fill="white"/>
</g>
<g opacity="0.66" filter="url(#filter2_f_923_60)">
<ellipse cx="124" cy="23.5" rx="12" ry="11.5" fill="white"/>
</g>
<g opacity="0.69">
<rect width="24.321" height="1.52802" transform="matrix(0.90765 0.419727 -0.90765 0.419727 124.923 27.2687)" fill="url(#paint9_linear_923_60)"/>
<rect width="24.321" height="1.52802" transform="matrix(0.90765 0.419727 -0.90765 0.419727 124.923 27.2687)" stroke="url(#paint10_linear_923_60)" stroke-width="0.0934241"/>
<rect width="24.321" height="1.52802" transform="matrix(0.90765 0.419727 -0.90765 0.419727 124.923 27.2687)" stroke="url(#paint11_linear_923_60)" stroke-width="0.0934241"/>
<rect width="24.321" height="1.52802" transform="matrix(0.90765 0.419727 -0.90765 0.419727 124.923 27.2687)" stroke="black" stroke-opacity="0.2" stroke-width="0.0934241"/>
<rect width="24.321" height="19.2405" transform="matrix(0.90765 0.419727 0 1 123.536 27.91)" fill="url(#paint12_linear_923_60)"/>
<rect width="24.321" height="19.2405" transform="matrix(0.90765 0.419727 0 1 123.536 27.91)" stroke="url(#paint13_linear_923_60)" stroke-width="0.0934241"/>
<rect width="24.321" height="19.2405" transform="matrix(0.90765 0.419727 0 1 123.536 27.91)" stroke="url(#paint14_linear_923_60)" stroke-width="0.0934241"/>
<rect width="24.321" height="19.2405" transform="matrix(0.90765 0.419727 0 1 123.536 27.91)" stroke="black" stroke-opacity="0.2" stroke-width="0.0934241"/>
</g>
</g>
<g opacity="0.72">
<rect width="24.321" height="1.52802" transform="matrix(0.90765 0.419727 -0.90765 0.419727 123.456 27.91)" fill="url(#paint15_linear_923_60)"/>
<rect width="24.321" height="1.52802" transform="matrix(0.90765 0.419727 -0.90765 0.419727 123.456 27.91)" stroke="url(#paint16_linear_923_60)" stroke-width="0.0934241"/>
<rect width="24.321" height="1.52802" transform="matrix(0.90765 0.419727 -0.90765 0.419727 123.456 27.91)" stroke="url(#paint17_linear_923_60)" stroke-width="0.0934241"/>
<rect width="24.321" height="1.52802" transform="matrix(0.90765 0.419727 -0.90765 0.419727 123.456 27.91)" stroke="black" stroke-opacity="0.2" stroke-width="0.0934241"/>
<rect width="24.321" height="19.2405" transform="matrix(0.90765 0.419727 0 1 122.069 28.5513)" fill="url(#paint18_linear_923_60)"/>
<rect width="24.321" height="19.2405" transform="matrix(0.90765 0.419727 0 1 122.069 28.5513)" stroke="url(#paint19_linear_923_60)" stroke-width="0.0934241"/>
<rect width="24.321" height="19.2405" transform="matrix(0.90765 0.419727 0 1 122.069 28.5513)" stroke="url(#paint20_linear_923_60)" stroke-width="0.0934241"/>
<rect width="24.321" height="19.2405" transform="matrix(0.90765 0.419727 0 1 122.069 28.5513)" stroke="black" stroke-opacity="0.2" stroke-width="0.0934241"/>
</g>
<rect width="4.32939" height="1.52802" transform="matrix(0.90765 0.419727 -0.90765 0.419727 126.662 33.3615)" fill="url(#paint21_linear_923_60)"/>
<rect width="4.32939" height="1.52802" transform="matrix(0.90765 0.419727 -0.90765 0.419727 126.662 33.3615)" stroke="url(#paint22_linear_923_60)" stroke-width="0.0934241"/>
<rect width="4.32939" height="1.52802" transform="matrix(0.90765 0.419727 -0.90765 0.419727 126.662 33.3615)" stroke="url(#paint23_linear_923_60)" stroke-width="0.0934241"/>
<rect width="4.32939" height="1.52802" transform="matrix(0.90765 0.419727 -0.90765 0.419727 126.662 33.3615)" stroke="black" stroke-opacity="0.2" stroke-width="0.0934241"/>
<rect width="4.32939" height="13.1477" transform="matrix(0.90765 0.419727 0 1 125.272 34.0028)" fill="url(#paint24_linear_923_60)"/>
<rect width="4.32939" height="13.1477" transform="matrix(0.90765 0.419727 0 1 125.272 34.0028)" stroke="url(#paint25_linear_923_60)" stroke-width="0.0934241"/>
<rect width="4.32939" height="13.1477" transform="matrix(0.90765 0.419727 0 1 125.272 34.0028)" stroke="url(#paint26_linear_923_60)" stroke-width="0.0934241"/>
<rect width="4.32939" height="13.1477" transform="matrix(0.90765 0.419727 0 1 125.272 34.0028)" stroke="black" stroke-opacity="0.2" stroke-width="0.0934241"/>
<rect width="1.52802" height="13.1477" transform="matrix(0.90765 -0.419727 0 1 129.204 35.82)" fill="url(#paint27_linear_923_60)"/>
<rect width="1.52802" height="13.1477" transform="matrix(0.90765 -0.419727 0 1 129.204 35.82)" stroke="url(#paint28_linear_923_60)" stroke-width="0.0934241"/>
<rect width="1.52802" height="13.1477" transform="matrix(0.90765 -0.419727 0 1 129.204 35.82)" stroke="url(#paint29_linear_923_60)" stroke-width="0.0934241"/>
<rect width="1.52802" height="13.1477" transform="matrix(0.90765 -0.419727 0 1 129.204 35.82)" stroke="black" stroke-opacity="0.2" stroke-width="0.0934241"/>
<rect width="4.32939" height="1.52802" transform="matrix(0.90765 0.419727 -0.90765 0.419727 132.533 39.9888)" fill="url(#paint30_linear_923_60)"/>
<rect width="4.32939" height="1.52802" transform="matrix(0.90765 0.419727 -0.90765 0.419727 132.533 39.9888)" stroke="url(#paint31_linear_923_60)" stroke-width="0.0934241"/>
<rect width="4.32939" height="1.52802" transform="matrix(0.90765 0.419727 -0.90765 0.419727 132.533 39.9888)" stroke="url(#paint32_linear_923_60)" stroke-width="0.0934241"/>
<rect width="4.32939" height="1.52802" transform="matrix(0.90765 0.419727 -0.90765 0.419727 132.533 39.9888)" stroke="black" stroke-opacity="0.2" stroke-width="0.0934241"/>
<rect width="4.32939" height="9.40648" transform="matrix(0.90765 0.419727 0 1 131.146 40.6301)" fill="url(#paint33_linear_923_60)"/>
<rect width="4.32939" height="9.40648" transform="matrix(0.90765 0.419727 0 1 131.146 40.6301)" stroke="url(#paint34_linear_923_60)" stroke-width="0.0934241"/>
<rect width="4.32939" height="9.40648" transform="matrix(0.90765 0.419727 0 1 131.146 40.6301)" stroke="url(#paint35_linear_923_60)" stroke-width="0.0934241"/>
<rect width="4.32939" height="9.40648" transform="matrix(0.90765 0.419727 0 1 131.146 40.6301)" stroke="black" stroke-opacity="0.2" stroke-width="0.0934241"/>
<rect width="1.52802" height="9.40648" transform="matrix(0.90765 -0.419727 0 1 135.076 42.4473)" fill="url(#paint36_linear_923_60)"/>
<rect width="1.52802" height="9.40648" transform="matrix(0.90765 -0.419727 0 1 135.076 42.4473)" stroke="url(#paint37_linear_923_60)" stroke-width="0.0934241"/>
<rect width="1.52802" height="9.40648" transform="matrix(0.90765 -0.419727 0 1 135.076 42.4473)" stroke="url(#paint38_linear_923_60)" stroke-width="0.0934241"/>
<rect width="1.52802" height="9.40648" transform="matrix(0.90765 -0.419727 0 1 135.076 42.4473)" stroke="black" stroke-opacity="0.2" stroke-width="0.0934241"/>
<rect width="4.32939" height="1.52802" transform="matrix(0.90765 0.419727 -0.90765 0.419727 138.405 45.2265)" fill="url(#paint39_linear_923_60)"/>
<rect width="4.32939" height="1.52802" transform="matrix(0.90765 0.419727 -0.90765 0.419727 138.405 45.2265)" stroke="url(#paint40_linear_923_60)" stroke-width="0.0934241"/>
<rect width="4.32939" height="1.52802" transform="matrix(0.90765 0.419727 -0.90765 0.419727 138.405 45.2265)" stroke="url(#paint41_linear_923_60)" stroke-width="0.0934241"/>
<rect width="4.32939" height="1.52802" transform="matrix(0.90765 0.419727 -0.90765 0.419727 138.405 45.2265)" stroke="black" stroke-opacity="0.2" stroke-width="0.0934241"/>
<rect width="4.32939" height="6.84107" transform="matrix(0.90765 0.419727 0 1 137.017 45.8679)" fill="url(#paint42_linear_923_60)"/>
<rect width="4.32939" height="6.84107" transform="matrix(0.90765 0.419727 0 1 137.017 45.8679)" stroke="url(#paint43_linear_923_60)" stroke-width="0.0934241"/>
<rect width="4.32939" height="6.84107" transform="matrix(0.90765 0.419727 0 1 137.017 45.8679)" stroke="url(#paint44_linear_923_60)" stroke-width="0.0934241"/>
<rect width="4.32939" height="6.84107" transform="matrix(0.90765 0.419727 0 1 137.017 45.8679)" stroke="black" stroke-opacity="0.2" stroke-width="0.0934241"/>
<rect width="1.52802" height="6.84107" transform="matrix(0.90765 -0.419727 0 1 140.946 47.6851)" fill="url(#paint45_linear_923_60)"/>
<rect width="1.52802" height="6.84107" transform="matrix(0.90765 -0.419727 0 1 140.946 47.6851)" stroke="url(#paint46_linear_923_60)" stroke-width="0.0934241"/>
<rect width="1.52802" height="6.84107" transform="matrix(0.90765 -0.419727 0 1 140.946 47.6851)" stroke="url(#paint47_linear_923_60)" stroke-width="0.0934241"/>
<rect width="1.52802" height="6.84107" transform="matrix(0.90765 -0.419727 0 1 140.946 47.6851)" stroke="black" stroke-opacity="0.2" stroke-width="0.0934241"/>
</g>
<g filter="url(#filter3_f_923_60)">
<ellipse cx="118" cy="22.5" rx="7" ry="6.5" fill="white"/>
</g>
<g filter="url(#filter4_f_923_60)">
<ellipse cx="119" cy="40.5" rx="7" ry="6.5" fill="white"/>
</g>
<path d="M143 43.5C137.5 48 132.5 50 129.5 52H143V43.5Z" fill="url(#paint48_linear_923_60)"/>
</g>
<defs>
<filter id="filter0_d_923_60" x="-4" y="0" width="155.083" height="66.0663" filterUnits="userSpaceOnUse" color-interpolation-filters="sRGB">
<feFlood flood-opacity="0" result="BackgroundImageFix"/>
<feColorMatrix in="SourceAlpha" type="matrix" values="0 0 0 0 0 0 0 0 0 0 0 0 0 0 0 0 0 0 127 0" result="hardAlpha"/>
<feOffset dy="4"/>
<feGaussianBlur stdDeviation="2"/>
<feComposite in2="hardAlpha" operator="out"/>
<feColorMatrix type="matrix" values="0 0 0 0 0 0 0 0 0 0 0 0 0 0 0 0 0 0 0.25 0"/>
<feBlend mode="normal" in2="BackgroundImageFix" result="effect1_dropShadow_923_60"/>
<feBlend mode="normal" in="SourceGraphic" in2="effect1_dropShadow_923_60" result="shape"/>
</filter>
<filter id="filter1_f_923_60" x="103" y="17" width="32" height="31" filterUnits="userSpaceOnUse" color-interpolation-filters="sRGB">
<feFlood flood-opacity="0" result="BackgroundImageFix"/>
<feBlend mode="normal" in="SourceGraphic" in2="BackgroundImageFix" result="shape"/>
<feGaussianBlur stdDeviation="4.5" result="effect1_foregroundBlur_923_60"/>
</filter>
<filter id="filter2_f_923_60" x="103" y="3" width="42" height="41" filterUnits="userSpaceOnUse" color-interpolation-filters="sRGB">
<feFlood flood-opacity="0" result="BackgroundImageFix"/>
<feBlend mode="normal" in="SourceGraphic" in2="BackgroundImageFix" result="shape"/>
<feGaussianBlur stdDeviation="4.5" result="effect1_foregroundBlur_923_60"/>
</filter>
<filter id="filter3_f_923_60" x="102" y="7" width="32" height="31" filterUnits="userSpaceOnUse" color-interpolation-filters="sRGB">
<feFlood flood-opacity="0" result="BackgroundImageFix"/>
<feBlend mode="normal" in="SourceGraphic" in2="BackgroundImageFix" result="shape"/>
<feGaussianBlur stdDeviation="4.5" result="effect1_foregroundBlur_923_60"/>
</filter>
<filter id="filter4_f_923_60" x="103" y="25" width="32" height="31" filterUnits="userSpaceOnUse" color-interpolation-filters="sRGB">
<feFlood flood-opacity="0" result="BackgroundImageFix"/>
<feBlend mode="normal" in="SourceGraphic" in2="BackgroundImageFix" result="shape"/>
<feGaussianBlur stdDeviation="4.5" result="effect1_foregroundBlur_923_60"/>
</filter>
<linearGradient id="paint0_linear_923_60" x1="-9.98419" y1="-0.0752751" x2="23.7543" y2="2.37512" gradientUnits="userSpaceOnUse">
<stop stop-color="#0073FF"/>
<stop offset="0.5" stop-color="#4EBBFF"/>
<stop offset="0.75" stop-color="#00C3FF"/>
<stop offset="0.875" stop-color="#0486FF"/>
<stop offset="1" stop-color="#0762FF"/>
</linearGradient>
<linearGradient id="paint1_linear_923_60" x1="1.17627" y1="0.0711479" x2="1.29624" y2="2.77555" gradientUnits="userSpaceOnUse">
<stop stop-color="#C3D9FF"/>
<stop offset="1" stop-color="#D1D9E9"/>
</linearGradient>
<linearGradient id="paint2_linear_923_60" x1="12.1605" y1="0" x2="12.1605" y2="1.52802" gradientUnits="userSpaceOnUse">
<stop stop-color="white" stop-opacity="0.66"/>
<stop offset="1" stop-color="white"/>
</linearGradient>
<linearGradient id="paint3_linear_923_60" x1="1.32331" y1="-1.94502" x2="13.8881" y2="29.4245" gradientUnits="userSpaceOnUse">
<stop stop-color="#0073FF"/>
<stop offset="0.5" stop-color="#4EBBFF"/>
<stop offset="0.75" stop-color="#00C3FF"/>
<stop offset="0.875" stop-color="#0486FF"/>
<stop offset="1" stop-color="#0762FF"/>
</linearGradient>
<linearGradient id="paint4_linear_923_60" x1="1.17627" y1="0.895881" x2="15.7026" y2="26.9021" gradientUnits="userSpaceOnUse">
<stop stop-color="#C3D9FF"/>
<stop offset="1" stop-color="#D1D9E9"/>
</linearGradient>
<linearGradient id="paint5_linear_923_60" x1="12.1605" y1="0" x2="12.1605" y2="19.2405" gradientUnits="userSpaceOnUse">
<stop stop-color="white" stop-opacity="0.66"/>
<stop offset="1" stop-color="white"/>
</linearGradient>
<linearGradient id="paint6_linear_923_60" x1="2.8803" y1="1.79684" x2="1.53962" y2="22.3047" gradientUnits="userSpaceOnUse">
<stop stop-color="#0073FF"/>
<stop offset="0.5" stop-color="#4EBBFF"/>
<stop offset="0.75" stop-color="#00C3FF"/>
<stop offset="0.875" stop-color="#0486FF"/>
<stop offset="1" stop-color="#0762FF"/>
</linearGradient>
<linearGradient id="paint7_linear_923_60" x1="0.0739019" y1="0.895881" x2="3.86375" y2="1.32216" gradientUnits="userSpaceOnUse">
<stop stop-color="#C3D9FF"/>
<stop offset="1" stop-color="#D1D9E9"/>
</linearGradient>
<linearGradient id="paint8_linear_923_60" x1="0.76401" y1="0" x2="0.76401" y2="19.2405" gradientUnits="userSpaceOnUse">
<stop stop-color="white" stop-opacity="0.66"/>
<stop offset="1" stop-color="white"/>
</linearGradient>
<linearGradient id="paint9_linear_923_60" x1="-9.98419" y1="-0.0752751" x2="23.7543" y2="2.37512" gradientUnits="userSpaceOnUse">
<stop stop-color="#0073FF"/>
<stop offset="0.5" stop-color="#4EBBFF"/>
<stop offset="0.75" stop-color="#00C3FF"/>
<stop offset="0.875" stop-color="#0486FF"/>
<stop offset="1" stop-color="#0762FF"/>
</linearGradient>
<linearGradient id="paint10_linear_923_60" x1="1.17627" y1="0.0711479" x2="1.29624" y2="2.77555" gradientUnits="userSpaceOnUse">
<stop stop-color="#C3D9FF"/>
<stop offset="1" stop-color="#D1D9E9"/>
</linearGradient>
<linearGradient id="paint11_linear_923_60" x1="12.1605" y1="0" x2="12.1605" y2="1.52802" gradientUnits="userSpaceOnUse">
<stop stop-color="white" stop-opacity="0.66"/>
<stop offset="1" stop-color="white"/>
</linearGradient>
<linearGradient id="paint12_linear_923_60" x1="1.32331" y1="-1.94502" x2="13.8881" y2="29.4245" gradientUnits="userSpaceOnUse">
<stop stop-color="#0073FF"/>
<stop offset="0.5" stop-color="#4EBBFF"/>
<stop offset="0.75" stop-color="#00C3FF"/>
<stop offset="0.875" stop-color="#0486FF"/>
<stop offset="1" stop-color="#0762FF"/>
</linearGradient>
<linearGradient id="paint13_linear_923_60" x1="1.17627" y1="0.895881" x2="15.7026" y2="26.9021" gradientUnits="userSpaceOnUse">
<stop stop-color="#C3D9FF"/>
<stop offset="1" stop-color="#D1D9E9"/>
</linearGradient>
<linearGradient id="paint14_linear_923_60" x1="12.1605" y1="0" x2="12.1605" y2="19.2405" gradientUnits="userSpaceOnUse">
<stop stop-color="white" stop-opacity="0.66"/>
<stop offset="1" stop-color="white"/>
</linearGradient>
<linearGradient id="paint15_linear_923_60" x1="-9.98419" y1="-0.0752751" x2="23.7543" y2="2.37512" gradientUnits="userSpaceOnUse">
<stop stop-color="#FCFCFC"/>
<stop offset="0.5" stop-color="#CEECFF"/>
<stop offset="0.75" stop-color="white"/>
<stop offset="0.875" stop-color="white"/>
<stop offset="1" stop-color="white"/>
</linearGradient>
<linearGradient id="paint16_linear_923_60" x1="1.17627" y1="0.0711479" x2="1.29624" y2="2.77555" gradientUnits="userSpaceOnUse">
<stop stop-color="#C3D9FF"/>
<stop offset="1" stop-color="#D1D9E9"/>
</linearGradient>
<linearGradient id="paint17_linear_923_60" x1="12.1605" y1="0" x2="12.1605" y2="1.52802" gradientUnits="userSpaceOnUse">
<stop stop-color="white" stop-opacity="0.66"/>
<stop offset="1" stop-color="white"/>
</linearGradient>
<linearGradient id="paint18_linear_923_60" x1="1.32331" y1="-1.94502" x2="13.8881" y2="29.4245" gradientUnits="userSpaceOnUse">
<stop stop-color="white"/>
<stop offset="0.5" stop-color="#E7F6FF"/>
<stop offset="0.75" stop-color="white"/>
<stop offset="0.875" stop-color="white"/>
<stop offset="1" stop-color="#0762FF"/>
</linearGradient>
<linearGradient id="paint19_linear_923_60" x1="1.17627" y1="0.895881" x2="15.7026" y2="26.9021" gradientUnits="userSpaceOnUse">
<stop stop-color="#C3D9FF"/>
<stop offset="1" stop-color="#D1D9E9"/>
</linearGradient>
<linearGradient id="paint20_linear_923_60" x1="12.1605" y1="0" x2="12.1605" y2="19.2405" gradientUnits="userSpaceOnUse">
<stop stop-color="white" stop-opacity="0.66"/>
<stop offset="1" stop-color="white"/>
</linearGradient>
<linearGradient id="paint21_linear_923_60" x1="-1.77729" y1="-0.0752751" x2="4.25919" y2="0.00276881" gradientUnits="userSpaceOnUse">
<stop stop-color="#0073FF"/>
<stop offset="0.5" stop-color="#4EBBFF"/>
<stop offset="0.75" stop-color="#00C3FF"/>
<stop offset="0.875" stop-color="#0486FF"/>
<stop offset="1" stop-color="#0762FF"/>
</linearGradient>
<linearGradient id="paint22_linear_923_60" x1="0.209389" y1="0.0711479" x2="0.845165" y2="2.62243" gradientUnits="userSpaceOnUse">
<stop stop-color="#C3D9FF"/>
<stop offset="1" stop-color="#D1D9E9"/>
</linearGradient>
<linearGradient id="paint23_linear_923_60" x1="2.16469" y1="0" x2="2.16469" y2="1.52802" gradientUnits="userSpaceOnUse">
<stop stop-color="white" stop-opacity="0.66"/>
<stop offset="1" stop-color="white"/>
</linearGradient>
<linearGradient id="paint24_linear_923_60" x1="0.235562" y1="-1.3291" x2="11.6046" y2="6.06506" gradientUnits="userSpaceOnUse">
<stop stop-color="#0073FF"/>
<stop offset="0.5" stop-color="#4EBBFF"/>
<stop offset="0.75" stop-color="#00C3FF"/>
<stop offset="0.875" stop-color="#0486FF"/>
<stop offset="1" stop-color="#0762FF"/>
</linearGradient>
<linearGradient id="paint25_linear_923_60" x1="0.209389" y1="0.612185" x2="9.14056" y2="4.77745" gradientUnits="userSpaceOnUse">
<stop stop-color="#C3D9FF"/>
<stop offset="1" stop-color="#D1D9E9"/>
</linearGradient>
<linearGradient id="paint26_linear_923_60" x1="2.16469" y1="0" x2="2.16469" y2="13.1477" gradientUnits="userSpaceOnUse">
<stop stop-color="white" stop-opacity="0.66"/>
<stop offset="1" stop-color="white"/>
</linearGradient>
<linearGradient id="paint27_linear_923_60" x1="2.8803" y1="1.22784" x2="2.25285" y2="15.2734" gradientUnits="userSpaceOnUse">
<stop stop-color="#0073FF"/>
<stop offset="0.5" stop-color="#4EBBFF"/>
<stop offset="0.75" stop-color="#00C3FF"/>
<stop offset="0.875" stop-color="#0486FF"/>
<stop offset="1" stop-color="#0762FF"/>
</linearGradient>
<linearGradient id="paint28_linear_923_60" x1="0.0739019" y1="0.612185" x2="3.81045" y2="1.22723" gradientUnits="userSpaceOnUse">
<stop stop-color="#C3D9FF"/>
<stop offset="1" stop-color="#D1D9E9"/>
</linearGradient>
<linearGradient id="paint29_linear_923_60" x1="0.76401" y1="0" x2="0.76401" y2="13.1477" gradientUnits="userSpaceOnUse">
<stop stop-color="white" stop-opacity="0.66"/>
<stop offset="1" stop-color="white"/>
</linearGradient>
<linearGradient id="paint30_linear_923_60" x1="-1.77729" y1="-0.0752751" x2="4.25919" y2="0.00276881" gradientUnits="userSpaceOnUse">
<stop stop-color="#0073FF"/>
<stop offset="0.5" stop-color="#4EBBFF"/>
<stop offset="0.75" stop-color="#00C3FF"/>
<stop offset="0.875" stop-color="#0486FF"/>
<stop offset="1" stop-color="#0762FF"/>
</linearGradient>
<linearGradient id="paint31_linear_923_60" x1="0.209389" y1="0.0711479" x2="0.845165" y2="2.62243" gradientUnits="userSpaceOnUse">
<stop stop-color="#C3D9FF"/>
<stop offset="1" stop-color="#D1D9E9"/>
</linearGradient>
<linearGradient id="paint32_linear_923_60" x1="2.16469" y1="0" x2="2.16469" y2="1.52802" gradientUnits="userSpaceOnUse">
<stop stop-color="white" stop-opacity="0.66"/>
<stop offset="1" stop-color="white"/>
</linearGradient>
<linearGradient id="paint33_linear_923_60" x1="0.235562" y1="-0.950899" x2="9.09358" y2="7.10148" gradientUnits="userSpaceOnUse">
<stop stop-color="#0073FF"/>
<stop offset="0.5" stop-color="#4EBBFF"/>
<stop offset="0.75" stop-color="#00C3FF"/>
<stop offset="0.875" stop-color="#0486FF"/>
<stop offset="1" stop-color="#0762FF"/>
</linearGradient>
<linearGradient id="paint34_linear_923_60" x1="0.209389" y1="0.437986" x2="7.84048" y2="5.41241" gradientUnits="userSpaceOnUse">
<stop stop-color="#C3D9FF"/>
<stop offset="1" stop-color="#D1D9E9"/>
</linearGradient>
<linearGradient id="paint35_linear_923_60" x1="2.16469" y1="0" x2="2.16469" y2="9.40648" gradientUnits="userSpaceOnUse">
<stop stop-color="white" stop-opacity="0.66"/>
<stop offset="1" stop-color="white"/>
</linearGradient>
<linearGradient id="paint36_linear_923_60" x1="2.8803" y1="0.878456" x2="2.55882" y2="10.9371" gradientUnits="userSpaceOnUse">
<stop stop-color="#0073FF"/>
<stop offset="0.5" stop-color="#4EBBFF"/>
<stop offset="0.75" stop-color="#00C3FF"/>
<stop offset="0.875" stop-color="#0486FF"/>
<stop offset="1" stop-color="#0762FF"/>
</linearGradient>
<linearGradient id="paint37_linear_923_60" x1="0.0739019" y1="0.437986" x2="3.71876" y2="1.27656" gradientUnits="userSpaceOnUse">
<stop stop-color="#C3D9FF"/>
<stop offset="1" stop-color="#D1D9E9"/>
</linearGradient>
<linearGradient id="paint38_linear_923_60" x1="0.76401" y1="0" x2="0.76401" y2="9.40648" gradientUnits="userSpaceOnUse">
<stop stop-color="white" stop-opacity="0.66"/>
<stop offset="1" stop-color="white"/>
</linearGradient>
<linearGradient id="paint39_linear_923_60" x1="-1.77729" y1="-0.0752751" x2="4.25919" y2="0.00276881" gradientUnits="userSpaceOnUse">
<stop stop-color="#0073FF"/>
<stop offset="0.5" stop-color="#4EBBFF"/>
<stop offset="0.75" stop-color="#00C3FF"/>
<stop offset="0.875" stop-color="#0486FF"/>
<stop offset="1" stop-color="#0762FF"/>
</linearGradient>
<linearGradient id="paint40_linear_923_60" x1="0.209389" y1="0.0711479" x2="0.845165" y2="2.62243" gradientUnits="userSpaceOnUse">
<stop stop-color="#C3D9FF"/>
<stop offset="1" stop-color="#D1D9E9"/>
</linearGradient>
<linearGradient id="paint41_linear_923_60" x1="2.16469" y1="0" x2="2.16469" y2="1.52802" gradientUnits="userSpaceOnUse">
<stop stop-color="white" stop-opacity="0.66"/>
<stop offset="1" stop-color="white"/>
</linearGradient>
<linearGradient id="paint42_linear_923_60" x1="0.235562" y1="-0.691563" x2="6.54928" y2="7.20024" gradientUnits="userSpaceOnUse">
<stop stop-color="#0073FF"/>
<stop offset="0.5" stop-color="#4EBBFF"/>
<stop offset="0.75" stop-color="#00C3FF"/>
<stop offset="0.875" stop-color="#0486FF"/>
<stop offset="1" stop-color="#0762FF"/>
</linearGradient>
<linearGradient id="paint43_linear_923_60" x1="0.209389" y1="0.318535" x2="6.23905" y2="5.72299" gradientUnits="userSpaceOnUse">
<stop stop-color="#C3D9FF"/>
<stop offset="1" stop-color="#D1D9E9"/>
</linearGradient>
<linearGradient id="paint44_linear_923_60" x1="2.16469" y1="0" x2="2.16469" y2="6.84107" gradientUnits="userSpaceOnUse">
<stop stop-color="white" stop-opacity="0.66"/>
<stop offset="1" stop-color="white"/>
</linearGradient>
<linearGradient id="paint45_linear_923_60" x1="2.8803" y1="0.638877" x2="2.71018" y2="7.95776" gradientUnits="userSpaceOnUse">
<stop stop-color="#0073FF"/>
<stop offset="0.5" stop-color="#4EBBFF"/>
<stop offset="0.75" stop-color="#00C3FF"/>
<stop offset="0.875" stop-color="#0486FF"/>
<stop offset="1" stop-color="#0762FF"/>
</linearGradient>
<linearGradient id="paint46_linear_923_60" x1="0.0739019" y1="0.318535" x2="3.56257" y2="1.42216" gradientUnits="userSpaceOnUse">
<stop stop-color="#C3D9FF"/>
<stop offset="1" stop-color="#D1D9E9"/>
</linearGradient>
<linearGradient id="paint47_linear_923_60" x1="0.76401" y1="0" x2="0.76401" y2="6.84107" gradientUnits="userSpaceOnUse">
<stop stop-color="white" stop-opacity="0.66"/>
<stop offset="1" stop-color="white"/>
</linearGradient>
<linearGradient id="paint48_linear_923_60" x1="136.25" y1="43.5" x2="136.25" y2="52" gradientUnits="userSpaceOnUse">
<stop stop-color="#C1D8FF"/>
<stop offset="1" stop-color="#0662FF"/>
</linearGradient>
</defs>
</svg>
