<svg width="240" height="160" viewBox="0 0 240 160" fill="none" xmlns="http://www.w3.org/2000/svg">
<rect width="239.302" height="159.535" fill="#F1F6FF"/>
<rect width="239.302" height="159.535" fill="url(#paint0_linear_907_58)" fill-opacity="0.18"/>
<g opacity="0.15" filter="url(#filter0_f_907_58)">
<ellipse cx="2.79156" cy="147.969" rx="109.68" ry="40.2826" fill="#B0CAF8" fill-opacity="0.85"/>
</g>
<g opacity="0.71" clip-path="url(#clip0_907_58)">
<g opacity="0.53">
<path opacity="0.0416667" d="M0.385681 134.958C-0.125334 147.064 24.4545 176.82 126.862 198.993C254.871 226.71 267.902 93.8602 389.779 96.7274C511.656 99.5947 417.373 -0.759865 572.211 17.3995" stroke="url(#paint1_linear_907_58)" stroke-width="0.685714"/>
<path opacity="0.0833333" d="M-2.54311 134.349C-3.04889 146.171 21.2791 175.229 122.637 196.882C249.335 223.949 262.232 94.2153 382.86 97.0153C503.489 99.8154 410.172 1.81495 563.423 19.5483" stroke="url(#paint2_linear_907_58)" stroke-width="0.685714"/>
<path opacity="0.125" d="M-5.47288 133.74C-5.97342 145.278 18.1027 173.638 118.412 194.771C243.798 221.188 256.561 94.5705 375.941 97.3033C495.32 100.036 402.97 4.38979 554.635 21.6972" stroke="url(#paint3_linear_907_58)" stroke-width="0.685714"/>
<path opacity="0.166667" d="M-8.40264 133.131C-8.89795 144.385 14.9263 172.047 114.186 192.66C238.261 218.426 250.891 94.9256 369.021 97.5911C487.152 100.257 395.768 6.96454 545.846 23.846" stroke="url(#paint4_linear_907_58)" stroke-width="0.685714"/>
<path opacity="0.208333" d="M-11.3314 132.522C-11.8215 143.492 11.7509 170.456 109.961 190.549C232.724 215.665 245.221 95.2808 362.103 97.879C478.985 100.477 388.567 9.53939 537.059 25.9948" stroke="url(#paint5_linear_907_58)" stroke-width="0.685714"/>
<path opacity="0.25" d="M-14.2612 131.913C-14.746 142.599 8.57457 168.865 105.736 188.438C227.187 212.904 239.55 95.636 355.184 98.167C470.817 100.698 381.365 12.1142 528.27 28.1437" stroke="url(#paint6_linear_907_58)" stroke-width="0.685714"/>
<path opacity="0.291667" d="M-17.191 131.304C-17.6706 141.707 5.3982 167.274 101.51 186.327C221.65 210.143 233.88 95.9912 348.264 98.4549C462.649 100.919 374.163 14.6891 519.481 30.2925" stroke="url(#paint7_linear_907_58)" stroke-width="0.685714"/>
<path opacity="0.333333" d="M-20.1207 130.695C-20.5951 140.814 2.22183 165.683 97.2845 184.216C216.113 207.381 228.209 96.3463 341.345 98.7427C454.481 101.139 366.96 17.2638 510.693 32.4413" stroke="url(#paint8_linear_907_58)" stroke-width="0.685714"/>
<path opacity="0.375" d="M-23.0505 130.086C-23.5196 139.921 -0.954539 164.092 93.0589 182.105C210.576 204.62 222.538 96.7014 334.425 99.0306C446.313 101.36 359.758 19.8386 501.904 34.5901" stroke="url(#paint9_linear_907_58)" stroke-width="0.685714"/>
<path opacity="0.416667" d="M-25.9793 129.477C-26.4432 139.028 -4.12993 162.501 88.8342 179.993C205.039 201.859 216.868 97.0566 327.507 99.3185C438.145 101.58 352.557 22.4134 493.117 36.7389" stroke="url(#paint10_linear_907_58)" stroke-width="0.685714"/>
<path opacity="0.458333" d="M-28.9091 128.868C-29.3677 138.135 -7.3063 160.91 84.6086 177.882C199.502 199.097 211.198 97.4118 320.588 99.6064C429.977 101.801 345.355 24.9883 484.328 38.8877" stroke="url(#paint11_linear_907_58)" stroke-width="0.685714"/>
<path opacity="0.5" d="M-31.8388 128.259C-32.2922 137.242 -10.4827 159.319 80.383 175.771C193.965 196.336 205.527 97.7669 313.668 99.8943C421.809 102.022 338.153 27.5631 475.54 41.0365" stroke="url(#paint12_linear_907_58)" stroke-width="0.685714"/>
<path opacity="0.541667" d="M-34.7686 127.651C-35.2168 136.349 -13.659 157.728 76.1574 173.66C188.428 193.575 199.856 98.1221 306.749 100.182C413.641 102.242 330.951 30.1379 466.751 43.1853" stroke="url(#paint13_linear_907_58)" stroke-width="0.685714"/>
<path opacity="0.583333" d="M-37.6974 127.042C-38.1403 135.456 -16.8344 156.137 71.9327 171.549C182.892 190.813 194.187 98.4772 299.83 100.47C405.474 102.463 323.75 32.7127 457.963 45.3341" stroke="url(#paint14_linear_907_58)" stroke-width="0.685714"/>
<path opacity="0.625" d="M-40.6271 126.433C-41.0649 134.563 -20.0108 154.547 67.7071 169.438C177.355 188.052 188.516 98.8325 292.911 100.758C397.306 102.684 316.547 35.2876 449.175 47.483" stroke="url(#paint15_linear_907_58)" stroke-width="0.685714"/>
<path opacity="0.666667" d="M-43.5569 125.824C-43.9894 133.67 -23.1872 152.956 63.4815 167.327C171.817 185.291 182.845 99.1876 285.991 101.046C389.138 102.904 309.345 37.8623 440.386 49.6318" stroke="url(#paint16_linear_907_58)" stroke-width="0.685714"/>
<path opacity="0.708333" d="M-46.4857 125.215C-46.9129 132.777 -26.3626 151.365 59.2569 165.216C166.281 182.529 177.176 99.5427 279.073 101.334C380.97 103.125 302.144 40.4371 431.599 51.7806" stroke="url(#paint17_linear_907_58)" stroke-width="0.685714"/>
<path opacity="0.75" d="M-49.4165 124.606C-49.8385 131.884 -29.5399 149.774 55.0303 163.104C160.743 179.768 171.504 99.8979 272.153 101.622C372.801 103.346 294.941 43.0119 422.809 53.9294" stroke="url(#paint18_linear_907_58)" stroke-width="0.685714"/>
<path opacity="0.791667" d="M-52.3452 123.997C-52.762 130.991 -32.7153 148.183 50.8056 160.993C155.207 177.007 165.834 100.253 265.234 101.91C364.634 103.566 287.74 45.5867 414.021 56.0783" stroke="url(#paint19_linear_907_58)" stroke-width="0.685714"/>
<path opacity="0.833333" d="M-55.274 123.388C-55.6856 130.098 -35.8907 146.592 46.581 158.882C149.671 174.245 160.165 100.608 258.316 102.197C356.467 103.787 280.539 48.1615 405.234 58.227" stroke="url(#paint20_linear_907_58)" stroke-width="0.685714"/>
<path opacity="0.875" d="M-58.2048 122.779C-58.6111 129.205 -39.0681 145.001 42.3544 156.771C144.132 171.484 154.493 100.963 251.395 102.485C348.298 104.007 273.336 50.7363 396.444 60.3759" stroke="url(#paint21_linear_907_58)" stroke-width="0.685714"/>
<path opacity="0.916667" d="M-61.1336 122.17C-61.5346 128.313 -42.2435 143.41 38.1298 154.66C138.596 168.723 148.823 101.318 244.477 102.773C340.131 104.228 266.134 53.3111 387.657 62.5247" stroke="url(#paint22_linear_907_58)" stroke-width="0.685714"/>
<path opacity="0.958333" d="M-64.0643 121.561C-64.4601 127.42 -45.4208 141.819 33.9032 152.549C133.058 165.961 143.152 101.674 237.557 103.061C331.962 104.449 258.931 55.886 378.867 64.6736" stroke="url(#paint23_linear_907_58)" stroke-width="0.685714"/>
<path d="M-66.9941 120.952C-67.3847 126.527 -48.5972 140.228 29.6776 150.438C127.521 163.2 137.481 102.029 230.637 103.349C323.793 104.669 251.729 58.4608 370.079 66.8224" stroke="url(#paint24_linear_907_58)" stroke-width="0.685714"/>
</g>
</g>
<defs>
<filter id="filter0_f_907_58" x="-129.702" y="84.8725" width="264.987" height="126.192" filterUnits="userSpaceOnUse" color-interpolation-filters="sRGB">
<feFlood flood-opacity="0" result="BackgroundImageFix"/>
<feBlend mode="normal" in="SourceGraphic" in2="BackgroundImageFix" result="shape"/>
<feGaussianBlur stdDeviation="11.4067" result="effect1_foregroundBlur_907_58"/>
</filter>
<linearGradient id="paint0_linear_907_58" x1="119.651" y1="0" x2="119.651" y2="155.547" gradientUnits="userSpaceOnUse">
<stop stop-color="white" stop-opacity="0"/>
<stop offset="0.15" stop-color="#91BAFF" stop-opacity="0.147727"/>
<stop offset="0.33" stop-color="#D3E3FF" stop-opacity="0.325"/>
<stop offset="0.455" stop-color="#90B9FF" stop-opacity="0.451202"/>
<stop offset="0.85" stop-color="#8BB5FF" stop-opacity="0.85"/>
<stop offset="1" stop-color="#C1D5F6"/>
</linearGradient>
<linearGradient id="paint1_linear_907_58" x1="0.37793" y1="109" x2="572.211" y2="109" gradientUnits="userSpaceOnUse">
<stop offset="0.225962" stop-color="#619BFF"/>
<stop offset="0.495192" stop-color="#73A5FB" stop-opacity="0.62"/>
<stop offset="0.745192" stop-color="#005EFF"/>
</linearGradient>
<linearGradient id="paint2_linear_907_58" x1="-2.55078" y1="109" x2="563.423" y2="109" gradientUnits="userSpaceOnUse">
<stop offset="0.225962" stop-color="#619BFF"/>
<stop offset="0.495192" stop-color="#73A5FB" stop-opacity="0.62"/>
<stop offset="0.745192" stop-color="#005EFF"/>
</linearGradient>
<linearGradient id="paint3_linear_907_58" x1="-5.48047" y1="109" x2="554.635" y2="109" gradientUnits="userSpaceOnUse">
<stop offset="0.225962" stop-color="#619BFF"/>
<stop offset="0.495192" stop-color="#73A5FB" stop-opacity="0.62"/>
<stop offset="0.745192" stop-color="#005EFF"/>
</linearGradient>
<linearGradient id="paint4_linear_907_58" x1="-8.41016" y1="109" x2="545.846" y2="109" gradientUnits="userSpaceOnUse">
<stop offset="0.225962" stop-color="#619BFF"/>
<stop offset="0.495192" stop-color="#73A5FB" stop-opacity="0.62"/>
<stop offset="0.745192" stop-color="#005EFF"/>
</linearGradient>
<linearGradient id="paint5_linear_907_58" x1="-11.3389" y1="109" x2="537.059" y2="109" gradientUnits="userSpaceOnUse">
<stop offset="0.225962" stop-color="#619BFF"/>
<stop offset="0.495192" stop-color="#73A5FB" stop-opacity="0.62"/>
<stop offset="0.745192" stop-color="#005EFF"/>
</linearGradient>
<linearGradient id="paint6_linear_907_58" x1="-14.2686" y1="109" x2="528.27" y2="109" gradientUnits="userSpaceOnUse">
<stop offset="0.225962" stop-color="#619BFF"/>
<stop offset="0.495192" stop-color="#73A5FB" stop-opacity="0.62"/>
<stop offset="0.745192" stop-color="#005EFF"/>
</linearGradient>
<linearGradient id="paint7_linear_907_58" x1="-17.1982" y1="109" x2="519.481" y2="109" gradientUnits="userSpaceOnUse">
<stop offset="0.225962" stop-color="#619BFF"/>
<stop offset="0.495192" stop-color="#73A5FB" stop-opacity="0.62"/>
<stop offset="0.745192" stop-color="#005EFF"/>
</linearGradient>
<linearGradient id="paint8_linear_907_58" x1="-20.1279" y1="109" x2="510.693" y2="109" gradientUnits="userSpaceOnUse">
<stop offset="0.225962" stop-color="#619BFF"/>
<stop offset="0.495192" stop-color="#73A5FB" stop-opacity="0.62"/>
<stop offset="0.745192" stop-color="#005EFF"/>
</linearGradient>
<linearGradient id="paint9_linear_907_58" x1="-23.0576" y1="109" x2="501.904" y2="109" gradientUnits="userSpaceOnUse">
<stop offset="0.225962" stop-color="#619BFF"/>
<stop offset="0.495192" stop-color="#73A5FB" stop-opacity="0.62"/>
<stop offset="0.745192" stop-color="#005EFF"/>
</linearGradient>
<linearGradient id="paint10_linear_907_58" x1="-25.9863" y1="109" x2="493.117" y2="109" gradientUnits="userSpaceOnUse">
<stop offset="0.225962" stop-color="#619BFF"/>
<stop offset="0.495192" stop-color="#73A5FB" stop-opacity="0.62"/>
<stop offset="0.745192" stop-color="#005EFF"/>
</linearGradient>
<linearGradient id="paint11_linear_907_58" x1="-28.916" y1="109" x2="484.328" y2="109" gradientUnits="userSpaceOnUse">
<stop offset="0.225962" stop-color="#619BFF"/>
<stop offset="0.495192" stop-color="#73A5FB" stop-opacity="0.62"/>
<stop offset="0.745192" stop-color="#005EFF"/>
</linearGradient>
<linearGradient id="paint12_linear_907_58" x1="-31.8457" y1="109" x2="475.54" y2="109" gradientUnits="userSpaceOnUse">
<stop offset="0.225962" stop-color="#619BFF"/>
<stop offset="0.495192" stop-color="#73A5FB" stop-opacity="0.62"/>
<stop offset="0.745192" stop-color="#005EFF"/>
</linearGradient>
<linearGradient id="paint13_linear_907_58" x1="-34.7754" y1="109" x2="466.751" y2="109" gradientUnits="userSpaceOnUse">
<stop offset="0.225962" stop-color="#619BFF"/>
<stop offset="0.495192" stop-color="#73A5FB" stop-opacity="0.62"/>
<stop offset="0.745192" stop-color="#005EFF"/>
</linearGradient>
<linearGradient id="paint14_linear_907_58" x1="-37.7041" y1="109" x2="457.963" y2="109" gradientUnits="userSpaceOnUse">
<stop offset="0.225962" stop-color="#619BFF"/>
<stop offset="0.495192" stop-color="#73A5FB" stop-opacity="0.62"/>
<stop offset="0.745192" stop-color="#005EFF"/>
</linearGradient>
<linearGradient id="paint15_linear_907_58" x1="-40.6338" y1="109" x2="449.175" y2="109" gradientUnits="userSpaceOnUse">
<stop offset="0.225962" stop-color="#619BFF"/>
<stop offset="0.495192" stop-color="#73A5FB" stop-opacity="0.62"/>
<stop offset="0.745192" stop-color="#005EFF"/>
</linearGradient>
<linearGradient id="paint16_linear_907_58" x1="-43.5635" y1="109" x2="440.386" y2="109" gradientUnits="userSpaceOnUse">
<stop offset="0.225962" stop-color="#619BFF"/>
<stop offset="0.495192" stop-color="#73A5FB" stop-opacity="0.62"/>
<stop offset="0.745192" stop-color="#005EFF"/>
</linearGradient>
<linearGradient id="paint17_linear_907_58" x1="-46.4922" y1="109" x2="431.599" y2="109" gradientUnits="userSpaceOnUse">
<stop offset="0.225962" stop-color="#619BFF"/>
<stop offset="0.495192" stop-color="#73A5FB" stop-opacity="0.62"/>
<stop offset="0.745192" stop-color="#005EFF"/>
</linearGradient>
<linearGradient id="paint18_linear_907_58" x1="-49.4229" y1="109" x2="422.809" y2="109" gradientUnits="userSpaceOnUse">
<stop offset="0.225962" stop-color="#619BFF"/>
<stop offset="0.495192" stop-color="#73A5FB" stop-opacity="0.62"/>
<stop offset="0.745192" stop-color="#005EFF"/>
</linearGradient>
<linearGradient id="paint19_linear_907_58" x1="-52.3516" y1="109" x2="414.021" y2="109" gradientUnits="userSpaceOnUse">
<stop offset="0.225962" stop-color="#619BFF"/>
<stop offset="0.495192" stop-color="#73A5FB" stop-opacity="0.62"/>
<stop offset="0.745192" stop-color="#005EFF"/>
</linearGradient>
<linearGradient id="paint20_linear_907_58" x1="-55.2803" y1="109" x2="405.234" y2="109" gradientUnits="userSpaceOnUse">
<stop offset="0.225962" stop-color="#619BFF"/>
<stop offset="0.495192" stop-color="#73A5FB" stop-opacity="0.62"/>
<stop offset="0.745192" stop-color="#005EFF"/>
</linearGradient>
<linearGradient id="paint21_linear_907_58" x1="-58.2109" y1="109" x2="396.444" y2="109" gradientUnits="userSpaceOnUse">
<stop offset="0.225962" stop-color="#619BFF"/>
<stop offset="0.495192" stop-color="#73A5FB" stop-opacity="0.62"/>
<stop offset="0.745192" stop-color="#005EFF"/>
</linearGradient>
<linearGradient id="paint22_linear_907_58" x1="-61.1396" y1="109" x2="387.657" y2="109" gradientUnits="userSpaceOnUse">
<stop offset="0.225962" stop-color="#619BFF"/>
<stop offset="0.495192" stop-color="#73A5FB" stop-opacity="0.62"/>
<stop offset="0.745192" stop-color="#005EFF"/>
</linearGradient>
<linearGradient id="paint23_linear_907_58" x1="-64.0703" y1="109" x2="378.867" y2="109" gradientUnits="userSpaceOnUse">
<stop offset="0.225962" stop-color="#619BFF"/>
<stop offset="0.495192" stop-color="#73A5FB" stop-opacity="0.62"/>
<stop offset="0.745192" stop-color="#005EFF"/>
</linearGradient>
<linearGradient id="paint24_linear_907_58" x1="-67" y1="109" x2="370.079" y2="109" gradientUnits="userSpaceOnUse">
<stop offset="0.225962" stop-color="#619BFF"/>
<stop offset="0.495192" stop-color="#73A5FB" stop-opacity="0.62"/>
<stop offset="0.745192" stop-color="#005EFF"/>
</linearGradient>
<clipPath id="clip0_907_58">
<rect width="270" height="160" fill="white" transform="translate(-31)"/>
</clipPath>
</defs>
</svg>
