<svg width="292" height="18" viewBox="0 0 292 18" fill="none" xmlns="http://www.w3.org/2000/svg">
<path opacity="0.6" d="M24.9481 9.61216H20.0345C20.5928 10.6619 21.3969 11.533 22.4466 12.2142C23.5075 11.5441 24.3674 10.6954 24.9481 9.61216ZM25.5847 8.76343L26.1542 9.12079C25.5177 10.6396 24.5014 11.7898 23.2172 12.6609C24.4344 13.2862 25.875 13.7106 27.539 13.9116C27.3603 14.1126 27.1369 14.47 27.0253 14.7157C25.2273 14.4365 23.675 13.934 22.4131 13.1746C21.0284 13.9451 19.4091 14.4477 17.7228 14.7715C17.6446 14.5482 17.4213 14.1685 17.2649 13.9786C18.8507 13.7218 20.3583 13.3086 21.6537 12.6609C20.5928 11.8903 19.7664 10.9076 19.1634 9.7015L19.4091 9.61216H18.2253V8.79693H21.9553V7.08831H17.7228V6.27309H21.9553V4.57564H22.804V6.27309H27.0588V7.08831H22.804V8.79693H25.4172L25.5847 8.76343ZM31.7938 9.42231L31.9054 10.1817L30.6882 10.5726V13.7664C30.6882 14.2243 30.5877 14.4477 30.3085 14.5817C30.0517 14.7157 29.6273 14.7492 28.9237 14.738C28.8902 14.5258 28.7897 14.1908 28.6781 13.9563C29.1583 13.9786 29.5938 13.9786 29.7166 13.9675C29.8618 13.9675 29.9176 13.9228 29.9176 13.7664V10.8294C29.4263 10.9969 28.9572 11.1421 28.544 11.2649L28.3319 10.472C28.7674 10.3492 29.3146 10.1817 29.9176 9.99185V7.57968H28.4882V6.80913H29.9176V4.57564H30.6882V6.80913H31.8719V7.57968H30.6882V9.7685L31.7938 9.42231ZM32.9887 11.6335L33.6252 11.2538C34.1166 11.8345 34.6638 12.6385 34.8983 13.1746L34.2059 13.5878C33.9938 13.0517 33.4689 12.2142 32.9887 11.6335ZM38.6729 8.95328H37.2211V10.1817H38.5947V10.9411H37.2211V13.7553C37.2211 14.269 37.1206 14.4923 36.7968 14.6152C36.4618 14.7492 35.9257 14.7603 35.0993 14.7603C35.0658 14.5147 34.9542 14.1908 34.8425 13.9563C35.4679 13.9786 36.0597 13.9786 36.2272 13.9675C36.3836 13.9563 36.4394 13.9116 36.4394 13.7553V10.9411H32.1623V10.1817H36.4394V8.95328H32.0283V8.18272H34.9653V6.76446H32.5978V6.00507H34.9653V4.62031H35.7582V6.00507H38.1369V6.76446H35.7582V8.18272H38.6729V8.95328ZM40.2699 13.9116V5.72589H41.3084V13.9116H40.2699ZM43.5416 13.9116V5.72589H45.9761C47.64 5.72589 48.7903 6.28426 48.7903 7.72486C48.7903 8.54008 48.3547 9.2548 47.5842 9.50048V9.55632C48.5669 9.74617 49.2593 10.3939 49.2593 11.5106C49.2593 13.1187 47.9862 13.9116 46.1548 13.9116H43.5416ZM44.5801 9.21013H45.7974C47.2045 9.21013 47.774 8.68526 47.774 7.85887C47.774 6.89847 47.1152 6.54111 45.8421 6.54111H44.5801V9.21013ZM44.5801 13.0852H46.0096C47.4167 13.0852 48.2431 12.5827 48.2431 11.4771C48.2431 10.4609 47.439 10.003 46.0096 10.003H44.5801V13.0852ZM59.8709 5.75939L59.3572 6.3401C58.9663 5.9604 58.1511 5.4467 57.4699 5.12284L57.9501 4.60914C58.6313 4.91066 59.4577 5.39086 59.8709 5.75939ZM55.4039 12.1695L55.4709 12.9512C53.7623 13.3197 51.942 13.7106 50.6466 14.001L50.4902 13.1634C51.6963 12.9289 53.5948 12.5492 55.4039 12.1695ZM54.2313 10.8071V8.8751H51.9644V10.8071H54.2313ZM51.1938 8.14922H55.0466V11.5218H51.1938V8.14922ZM58.9105 7.95937L59.7369 8.16039C59.2567 9.65683 58.5978 10.9634 57.7603 12.069C58.1734 13.2192 58.676 13.9116 59.2232 13.9116C59.5359 13.9116 59.6699 13.3309 59.7369 11.8456C59.9267 12.0467 60.2283 12.2365 60.4628 12.3147C60.3176 14.2243 60.0049 14.7715 59.145 14.7715C58.3075 14.7715 57.6374 14.0456 57.1349 12.8395C56.4425 13.5989 55.6608 14.2355 54.7785 14.7603C54.6445 14.5928 54.3207 14.269 54.1308 14.1238C55.1806 13.5654 56.074 12.8284 56.811 11.935C56.4202 10.6284 56.1745 8.97561 56.0293 7.16649H50.5461V6.35126H55.9846C55.9511 5.77056 55.94 5.18985 55.9288 4.59797H56.7999C56.7999 5.20102 56.811 5.78172 56.8334 6.35126H60.1836V7.16649H56.8892C57.0009 8.64059 57.1907 9.98068 57.4699 11.0639C58.0729 10.1482 58.5531 9.12079 58.9105 7.95937ZM63.0871 6.56344V9.60099H64.4607C65.745 9.60099 66.4485 9.08729 66.4485 8.02638C66.4485 6.94314 65.745 6.56344 64.4607 6.56344H63.0871ZM67.7216 13.9116H66.549L64.5612 10.4385H63.0871V13.9116H62.0486V5.72589H64.6171C66.281 5.72589 67.4759 6.31776 67.4759 8.02638C67.4759 9.29947 66.7389 10.0589 65.6221 10.3269L67.7216 13.9116ZM71.2843 14.0568C69.799 14.0568 68.4701 12.8954 68.4701 10.8852C68.4701 8.86394 69.799 7.69136 71.2843 7.69136C72.7696 7.69136 74.0985 8.86394 74.0985 10.8852C74.0985 12.8954 72.7696 14.0568 71.2843 14.0568ZM71.2843 13.2081C72.334 13.2081 73.0487 12.2812 73.0487 10.8852C73.0487 9.48931 72.334 8.54008 71.2843 8.54008C70.2345 8.54008 69.531 9.48931 69.531 10.8852C69.531 12.2812 70.2345 13.2081 71.2843 13.2081ZM78.8831 14.0568C76.8506 14.0568 75.3207 12.4822 75.3207 9.82434C75.3207 7.17765 76.873 5.56954 78.9501 5.56954C79.944 5.56954 80.7258 6.06091 81.1948 6.58578L80.6364 7.25583C80.212 6.79796 79.6648 6.47411 78.9613 6.47411C77.409 6.47411 76.3816 7.74719 76.3816 9.79084C76.3816 11.8568 77.3644 13.1522 78.9278 13.1522C79.7095 13.1522 80.3014 12.806 80.8263 12.2365L81.3958 12.8842C80.7481 13.6324 79.944 14.0568 78.8831 14.0568ZM82.9112 13.9116V5.72589H87.635V6.59695H83.9497V9.16546H87.0543V10.0477H83.9497V13.0294H87.7578V13.9116H82.9112ZM95.4733 11.9015H92.2906V12.9401H95.4733V11.9015ZM96.2215 11.2761V13.5654H92.2906V14.1126H91.52V11.2761H96.2215ZM98.4327 9.91368V13.8893C98.4327 14.2913 98.3322 14.4588 98.0307 14.5705C97.7403 14.671 97.2601 14.6822 96.5566 14.671C96.5119 14.4812 96.389 14.2243 96.2885 14.0568C96.7687 14.0791 97.2824 14.068 97.4164 14.068C97.5616 14.0568 97.6063 14.0233 97.6063 13.8893V10.6172H90.2693V14.7603H89.4652V9.91368H98.4327ZM96.3779 8.69643V7.69136H91.5647V8.69643H96.3779ZM90.7495 7.07715H97.2266V9.31063H90.7495V7.07715ZM94.5352 5.73705H98.79V6.45177H89.0632V5.73705H93.6307C93.5302 5.4132 93.3962 5.03351 93.2845 4.72082L94.0885 4.53097C94.2449 4.91066 94.4124 5.3797 94.5352 5.73705ZM104.307 8.02638V9.44464H106.071V8.02638H104.307ZM108.729 8.02638H106.886V9.44464H108.729V8.02638ZM106.071 13.3421V10.7401C105.401 11.6781 104.43 12.538 103.503 13.0071C103.38 12.8172 103.145 12.5269 102.967 12.3817C103.972 11.9573 105.077 11.0416 105.714 10.1147H103.536V7.3675H106.071V6.45177H103.101V5.72589H106.071V4.58681H106.886V5.72589H110.036V6.45177H106.886V7.3675H109.533V10.1147H107.154C108.137 10.7959 109.254 11.6558 109.846 12.27L109.31 12.8284C108.796 12.27 107.813 11.4324 106.886 10.7624V13.3421H106.071ZM102.71 6.87613L102.051 7.37867C101.705 6.8538 100.945 6.04974 100.331 5.45787L100.945 5.02234C101.571 5.56954 102.341 6.36243 102.71 6.87613ZM102.52 8.52891V12.806C102.754 12.9177 102.989 13.1076 103.38 13.3309C104.095 13.7218 105.044 13.7999 106.239 13.7999C107.512 13.7999 109.142 13.7218 110.226 13.6101C110.136 13.8223 110.013 14.202 109.991 14.4365C109.187 14.4923 107.266 14.5482 106.216 14.5482C104.921 14.5482 103.961 14.4365 103.201 14.001C102.743 13.7218 102.386 13.4091 102.129 13.4091C101.727 13.4091 101.146 13.9898 100.543 14.6822L100.03 13.9898C100.622 13.4203 101.202 12.9512 101.716 12.7725V9.31063H100.097V8.52891H102.52ZM116.345 11.6L115.798 12.136C115.586 11.734 115.284 11.2426 114.949 10.7177C114.503 11.7675 113.955 12.6497 113.285 13.3644C113.163 13.2527 112.816 13.0182 112.638 12.9066C113.408 12.1583 114 11.1644 114.424 9.98068C113.933 9.27713 113.386 8.55125 112.883 7.93704L113.397 7.47917C113.833 7.98171 114.279 8.56242 114.704 9.13196C114.916 8.3949 115.072 7.62435 115.206 6.79796L115.966 6.87613C115.787 7.95937 115.552 8.97561 115.251 9.89134C115.686 10.5167 116.077 11.1198 116.345 11.6ZM119.595 11.9908L119.014 12.471C118.791 11.9908 118.478 11.3989 118.099 10.7736C117.652 11.8345 117.105 12.7279 116.401 13.4538C116.256 13.3309 115.932 13.0964 115.742 12.9959C116.569 12.2477 117.16 11.2203 117.607 9.99185C117.127 9.2883 116.591 8.56242 116.088 7.93704L116.624 7.52384C117.049 8.01521 117.473 8.57358 117.875 9.13196C118.087 8.40607 118.233 7.63552 118.355 6.8203L119.104 6.89847C118.936 7.99288 118.713 8.99795 118.411 9.91368C118.903 10.6619 119.327 11.3989 119.595 11.9908ZM120.868 5.24569V13.6659C120.868 14.1908 120.723 14.4477 120.366 14.5928C120.008 14.7268 119.405 14.7492 118.4 14.738C118.355 14.5035 118.199 14.1461 118.087 13.9116C118.824 13.9451 119.55 13.934 119.762 13.934C119.964 13.9228 120.053 13.8558 120.053 13.6659V6.02741H112.548V14.7492H111.722V5.24569H120.868ZM122.543 14.1573L122.365 13.3309C123.291 13.1076 124.71 12.6944 126.106 12.2923L126.24 13.0182C124.933 13.4091 123.571 13.8223 122.543 14.1573ZM130.986 11.3431H127.837V13.3756H130.986V11.3431ZM127.066 14.6598V10.5949H131.79V14.6487H130.986V14.1126H127.837V14.6598H127.066ZM128.105 6.38477L128.026 6.51877C128.35 7.16649 128.819 7.73603 129.4 8.22739C130.059 7.70252 130.628 7.09948 131.03 6.38477H128.105ZM131.645 5.60304L132.125 5.91573C131.656 7.02131 130.908 7.94821 130.025 8.71876C130.762 9.2213 131.645 9.62332 132.594 9.86901C132.449 10.07 132.315 10.405 132.259 10.6284C131.22 10.2934 130.238 9.802 129.422 9.17663C128.507 9.8355 127.457 10.338 126.407 10.6954C126.34 10.472 126.173 10.1035 126.05 9.92484C127.021 9.64566 127.971 9.2213 128.808 8.67409C128.317 8.22739 127.904 7.71369 127.569 7.17765C127.256 7.61318 126.91 7.99288 126.563 8.31673C126.452 8.17156 126.217 7.8477 126.061 7.69136C125.413 8.75226 124.665 9.79084 123.917 10.6507L125.96 10.204C125.938 10.4162 125.949 10.7512 125.983 10.9299C123.236 11.6 122.867 11.7116 122.633 11.8568C122.588 11.6893 122.454 11.2873 122.365 11.0639C122.599 11.0193 122.867 10.7512 123.202 10.338C123.414 10.137 123.861 9.56749 124.352 8.86394C122.979 9.05378 122.711 9.12079 122.554 9.19896C122.51 9.02028 122.387 8.61825 122.286 8.3949C122.476 8.33907 122.677 8.09338 122.923 7.71369C123.169 7.34517 123.995 5.93807 124.453 4.60914L125.235 4.98884C124.743 6.12791 124.084 7.32283 123.437 8.24973L124.844 8.10455C125.089 7.72486 125.313 7.334 125.514 6.9543L126.24 7.38983L126.117 7.60202C126.977 6.8203 127.758 5.64771 128.227 4.4193L128.976 4.64264C128.842 4.9665 128.685 5.31269 128.529 5.62538H131.488L131.645 5.60304Z" fill="black"/>
<path opacity="0.6" d="M192.895 7.51268V6.42944H191.388V5.69238H192.895V4.59797H193.677V5.69238H195.899V4.59797H196.681V5.69238H198.233V6.42944H196.681V7.51268H195.899V6.42944H193.677V7.51268H192.895ZM196.536 11.8456H193.13V13.6436H196.536V11.8456ZM192.348 14.7715V11.1309H197.34V14.7715H196.536V14.3472H193.13V14.7715H192.348ZM193.107 9.55632H196.435C195.765 9.08729 195.129 8.57358 194.671 8.16039C194.213 8.65176 193.688 9.13196 193.107 9.55632ZM194.604 7.05481L195.352 7.32283C195.274 7.42334 195.196 7.53501 195.118 7.63552C195.866 8.33907 197.262 9.2883 198.423 9.802C198.244 9.94718 197.988 10.2375 197.854 10.4385C197.429 10.2152 196.971 9.92484 196.536 9.62332V10.2599H193.029V9.61216C192.594 9.92484 192.136 10.2264 191.656 10.4832C191.566 10.3604 191.376 10.1482 191.209 9.99185L190.36 10.3827V13.7329C190.36 14.202 190.26 14.4253 189.981 14.5593C189.713 14.6933 189.288 14.7268 188.573 14.7268C188.551 14.5035 188.439 14.1573 188.328 13.9228C188.808 13.934 189.243 13.934 189.366 13.934C189.512 13.934 189.567 13.8893 189.567 13.7218V10.7289L188.439 11.2203L188.194 10.405C188.585 10.2599 189.054 10.07 189.567 9.85784V7.57968H188.227V6.80913H189.567V4.57564H190.36V6.80913H191.365V7.57968H190.36V9.51165C190.673 9.36647 191.008 9.23246 191.321 9.08729L191.455 9.67916C192.761 8.96444 193.945 7.98171 194.604 7.05481ZM202.354 7.04364V5.74822H201.695V7.04364H202.354ZM203.527 9.99185V7.74719H202.767V9.8355C202.767 9.98068 202.778 9.99185 202.924 9.99185H203.326C203.437 9.99185 203.471 9.99185 203.482 9.95835L203.527 9.99185ZM200.444 13.2862H203.527V12.136H200.444V13.2862ZM201.215 7.74719H200.444V11.5106H203.527V10.472C203.493 10.4832 203.448 10.4832 203.404 10.4832H202.868C202.432 10.4832 202.298 10.3715 202.298 9.8355V7.74719H201.673V8.64059C201.673 9.3218 201.517 10.204 200.824 10.8406C200.746 10.7401 200.556 10.5726 200.456 10.5167C201.103 9.94718 201.215 9.2213 201.215 8.62942V7.74719ZM199.495 5.74822V5H204.465V5.74822H202.946V7.04364H204.208V14.5705H203.527V13.9563H200.444V14.7268H199.774V7.04364H201.103V5.74822H199.495ZM206.475 13.867H208.195C208.686 13.867 208.775 13.5878 208.831 11.9797C209.021 12.1248 209.367 12.2812 209.602 12.337C209.49 14.1461 209.256 14.6487 208.239 14.6487H206.386C205.358 14.6487 205.045 14.3918 205.045 13.3756V8.56242H208.373V5.87106H205.001V5.06701H209.189V10.1035H208.373V9.3553H205.861V13.3756C205.861 13.7888 205.961 13.867 206.475 13.867ZM212.818 13.9116V6.59695H210.339V5.72589H216.336V6.59695H213.857V13.9116H212.818ZM217.795 13.9116V5.72589H220.229C221.893 5.72589 223.043 6.28426 223.043 7.72486C223.043 8.54008 222.608 9.2548 221.837 9.50048V9.55632C222.82 9.74617 223.512 10.3939 223.512 11.5106C223.512 13.1187 222.239 13.9116 220.408 13.9116H217.795ZM218.833 9.21013H220.05C221.457 9.21013 222.027 8.68526 222.027 7.85887C222.027 6.89847 221.368 6.54111 220.095 6.54111H218.833V9.21013ZM218.833 13.0852H220.263C221.67 13.0852 222.496 12.5827 222.496 11.4771C222.496 10.4609 221.692 10.003 220.263 10.003H218.833V13.0852ZM226.094 10.6172L228.261 10.003C228.261 10.2264 228.294 10.5279 228.328 10.7066C225.369 11.5888 224.989 11.734 224.743 11.9126C224.699 11.7451 224.576 11.3766 224.486 11.1533C224.721 11.1086 225 10.8406 225.346 10.4162C225.558 10.1929 226.027 9.60099 226.53 8.85277C225.112 9.04262 224.844 9.12079 224.676 9.19896C224.632 9.02028 224.509 8.64059 224.419 8.41724C224.609 8.37257 224.81 8.09338 225.067 7.72486C225.313 7.35633 226.161 5.91573 226.642 4.5533L227.401 4.92183C226.876 6.10558 226.206 7.32283 225.525 8.27206L227.021 8.10455C227.267 7.71369 227.502 7.3005 227.725 6.89847L228.406 7.31166C227.725 8.48424 226.91 9.64566 226.094 10.6172ZM228.328 11.9126L228.473 12.6274C227.167 13.1522 225.771 13.6771 224.732 14.068L224.531 13.2527C225.48 12.9512 226.921 12.4264 228.328 11.9126ZM232.326 6.07208H230.55C230.517 6.8538 230.461 7.61318 230.394 8.31673C230.785 9.58982 231.366 10.8071 232.103 11.8121C232.65 11.0416 233.085 10.1259 233.364 9.05378H231.455C231.734 8.27206 232.069 7.11065 232.326 6.07208ZM233.8 8.28323L234.314 8.49541C233.979 10.1035 233.387 11.4101 232.616 12.4375C233.242 13.1411 233.968 13.6994 234.76 14.0791C234.582 14.2355 234.325 14.537 234.191 14.7603C233.409 14.3472 232.717 13.7664 232.103 13.0741C231.433 13.8111 230.662 14.3695 229.847 14.7938C229.735 14.5928 229.445 14.2801 229.266 14.1573C230.137 13.7553 230.919 13.1857 231.6 12.4487C231.053 11.7005 230.584 10.8517 230.204 9.92484C229.914 11.9126 229.389 13.5431 228.428 14.7938C228.294 14.6598 227.904 14.3918 227.714 14.2801C229.221 12.5045 229.601 9.62332 229.735 6.07208H228.495V5.29036H233.353C233.108 6.25076 232.784 7.401 232.505 8.31673H233.655L233.8 8.28323ZM237.441 8.66292H244.163C242.935 7.83653 241.818 6.89847 240.768 5.69238C239.864 6.8203 238.691 7.8477 237.441 8.66292ZM244.197 9.41114H241.193V11.1421H244.197V11.8791H241.193V13.6994H245.515V14.4588H236.078V13.6994H240.344V11.8791H237.474V11.1421H240.344V9.41114H237.407V8.68526C236.983 8.97561 236.536 9.2213 236.101 9.44464C235.978 9.2213 235.732 8.95328 235.52 8.76343C237.541 7.83653 239.574 6.20609 240.69 4.4528L241.427 4.78782C241.36 4.88833 241.293 4.98884 241.226 5.08934C242.6 6.68629 244.242 7.83653 246.051 8.78577C245.839 8.96444 245.593 9.24363 245.47 9.48931C245.034 9.2213 244.61 8.96444 244.197 8.68526V9.41114ZM250.093 6.70862L249.412 7.16649C249.088 6.60811 248.362 5.70355 247.748 5.05584L248.385 4.66498C248.988 5.27919 249.747 6.15025 250.093 6.70862ZM247.301 14.7603V7.11065H248.117V14.7603H247.301ZM254.895 12.0355L254.292 12.6944C253.79 11.8903 252.785 10.6954 251.824 9.74617C251.221 11.0193 250.395 12.0355 249.3 12.7949C249.211 12.605 248.954 12.2253 248.787 12.0355C250.428 10.9969 251.378 9.2548 251.835 6.97664L252.684 7.11065C252.539 7.75836 252.36 8.38374 252.148 8.96444C253.22 9.93601 254.348 11.1979 254.895 12.0355ZM256.57 5.04467V13.6548C256.57 14.1908 256.436 14.47 256.068 14.604C255.699 14.7492 255.04 14.7603 254.047 14.7603C254.002 14.5258 253.868 14.135 253.745 13.9116C254.493 13.9451 255.253 13.934 255.476 13.9228C255.677 13.9228 255.755 13.8446 255.755 13.6548V5.84873H250.35V5.04467H256.57ZM267.961 6.8203H261.92C261.529 7.71369 261.049 8.56242 260.479 9.34414V14.7492H259.664V10.3157C259.262 10.7401 258.826 11.1421 258.335 11.4771C258.246 11.2761 258.045 10.9187 257.911 10.7289C259.273 9.77967 260.289 8.3614 261.015 6.8203H258.268V6.01624H261.35C261.54 5.53604 261.707 5.04467 261.841 4.56447L262.69 4.76549C262.556 5.18985 262.422 5.60304 262.255 6.01624H267.961V6.8203ZM268.173 10.9299V11.7116H265.192V13.7776C265.192 14.269 265.091 14.5035 264.723 14.6375C264.354 14.7603 263.74 14.7603 262.791 14.7603C262.746 14.5258 262.634 14.2131 262.523 13.9675C263.26 14.001 263.93 14.001 264.12 13.9786C264.321 13.9675 264.365 13.9228 264.365 13.7664V11.7116H261.283V10.9299H264.365V10.0142C264.913 9.72383 265.516 9.26597 266.007 8.83044H262.221V8.07105H266.766L266.934 8.01521L267.47 8.43957C266.867 9.09845 266.007 9.77967 265.192 10.2822V10.9299H268.173ZM273.791 6.74212L273.188 7.17765C272.953 6.74212 272.417 6.06091 271.937 5.56954L272.506 5.18985C272.987 5.64771 273.556 6.29543 273.791 6.74212ZM271.133 4.5533L271.825 4.74315C271.602 5.53604 271.323 6.31776 270.999 7.06598V14.738H270.273V8.54008C269.994 9.03145 269.714 9.46698 269.424 9.85784C269.346 9.67916 269.134 9.27713 269 9.08729C269.882 7.95937 270.641 6.26192 271.133 4.5533ZM273.288 12.9736L274.36 12.3482C274.405 12.5715 274.505 12.8619 274.561 13.0182C272.987 13.9898 272.73 14.1796 272.562 14.3695C272.495 14.1796 272.294 13.8334 272.16 13.6883C272.317 13.5766 272.562 13.2974 272.562 12.8284V8.90861H271.468V8.11572H273.288V12.9736ZM278.124 11.6781V10.5614H275.711V11.6781H278.124ZM275.711 13.4649H278.124V12.3147H275.711V13.4649ZM276.493 6.54111V7.93704H276.739C277.085 7.50151 277.409 7.03248 277.71 6.54111H276.493ZM279.352 8.69643H277.074C276.728 9.12079 276.348 9.51165 275.957 9.86901H278.872V14.6822H278.124V14.1573H275.711V14.7268H274.997V10.6731C274.729 10.8629 274.449 11.0639 274.17 11.2426C274.07 11.0863 273.791 10.7624 273.634 10.6061C274.516 10.1035 275.332 9.45581 276.069 8.69643H273.958V7.93704H275.734V6.54111H274.282V5.82639H275.734V4.56447H276.493V5.82639H277.789V6.4071C278.068 5.93807 278.313 5.45787 278.526 4.94417L279.263 5.14518C278.827 6.16142 278.291 7.09948 277.677 7.93704H279.352V8.69643ZM282.423 11.6558V13.7106H283.908V11.6558H282.423ZM286.153 11.6558H284.679V13.7106H286.153V11.6558ZM288.42 11.6558H286.924V13.7106H288.42V11.6558ZM289.235 10.9858V13.7106H290.486V14.4477H280.391V13.7106H281.652V10.9858H289.235ZM284.21 9.16546L284.634 8.69643C285.248 8.97561 286.019 9.44464 286.421 9.802L285.974 10.3157C285.606 9.96951 284.846 9.47815 284.21 9.16546ZM285.941 7.7807H288.107V6.09441H283.071V7.3675C283.071 7.50151 283.071 7.63552 283.06 7.7807H285.918C285.583 7.44567 284.88 6.97664 284.299 6.70862L284.701 6.23959C285.293 6.49644 285.997 6.94314 286.376 7.27816L285.941 7.7807ZM288.923 7.7807H290.486V8.51775H288.923V9.81317C288.923 10.2264 288.833 10.4385 288.532 10.5614C288.23 10.6842 287.739 10.6842 286.991 10.6842C286.957 10.472 286.834 10.1817 286.723 9.98068C287.27 9.99185 287.772 9.99185 287.906 9.99185C288.063 9.98068 288.107 9.94718 288.107 9.81317V8.51775H282.97C282.792 9.42231 282.345 10.338 281.329 11.0081C281.206 10.8406 280.893 10.5391 280.726 10.4162C281.574 9.88017 281.976 9.21013 282.133 8.51775H280.469V7.7807H282.244C282.256 7.62435 282.256 7.49034 282.256 7.34517V5.4132H284.668C284.813 5.11168 284.969 4.72082 285.025 4.46397L285.93 4.64264C285.796 4.91066 285.673 5.17868 285.561 5.4132H288.923V7.7807Z" fill="black"/>
<path d="M3.2611 9.62911C1.85678 9.61025 1.03764 9.88747 0.469238 10.4268C0.469238 10.4268 3.52214 16.4621 5.25529 16.4093C6.98843 16.3566 7.69899 16.0384 8.44598 14.814C10.6266 10.6086 11.8491 7.8519 14.0297 3.6465C14.4285 2.87736 12.0355 3.64649 12.0355 3.64649L6.05296 14.0163L3.2611 9.62911Z" fill="#135EE0"/>
<path d="M168.381 9.62911C166.977 9.61025 166.158 9.88747 165.589 10.4268C165.589 10.4268 168.642 16.4621 170.375 16.4093C172.109 16.3566 172.819 16.0384 173.566 14.814C175.747 10.6086 176.969 7.8519 179.15 3.6465C179.549 2.87736 177.156 3.64649 177.156 3.64649L171.173 14.0163L168.381 9.62911Z" fill="#135EE0"/>
</svg>
