<svg width="1080" height="150" viewBox="0 0 1080 150" fill="none" xmlns="http://www.w3.org/2000/svg">
<rect x="350.461" y="63.8393" width="149.079" height="34.0786" rx="3.225" fill="url(#paint0_linear_455_8551)" stroke="url(#paint1_linear_455_8551)" stroke-width="0.921429"/>
<path d="M409.66 78.2257H402.939C402.255 79.1932 401.494 80.0317 400.707 80.6767C400.527 80.4961 400.153 80.1349 399.908 79.9801C401.327 78.9352 402.591 77.2711 403.339 75.5167L404.306 75.8005C404.074 76.3294 403.803 76.8325 403.52 77.3098H410.64V77.7613C410.498 82.0441 410.369 83.5405 410.008 84.0049C409.789 84.3016 409.544 84.4048 409.196 84.4435C408.86 84.4822 408.305 84.4822 407.699 84.4435C407.686 84.1726 407.583 83.7856 407.454 83.5276C408.009 83.5792 408.525 83.5921 408.744 83.5792C408.938 83.5921 409.054 83.5663 409.17 83.4115C409.415 83.1019 409.557 81.799 409.66 78.2257ZM406.267 80.4187H402.913V82.4956H406.267V80.4187ZM404.526 86.185H409.428C410.524 86.185 410.705 85.9012 410.847 84.5725C411.079 84.7273 411.492 84.8692 411.763 84.9208C411.569 86.6107 411.182 87.088 409.441 87.088H404.577C402.565 87.088 401.972 86.7397 401.972 85.3078V79.5544H407.209V83.3599H402.913V85.3078C402.913 86.0044 403.158 86.185 404.526 86.185ZM416.045 83.4889H418.935V80.9347H416.045V83.4889ZM424.572 83.4889V84.4177H419.903V87.3718H418.935V84.4177H412.975V83.4889H415.091V80.0317H418.935V78.0709H415.8C415.22 79.0642 414.536 79.9414 413.84 80.6122C413.659 80.4574 413.259 80.1349 413.014 80.0059C414.227 78.9481 415.31 77.284 415.916 75.5554L416.884 75.7876C416.703 76.2391 416.497 76.7035 416.291 77.1421H423.979V78.0709H419.903V80.0317H423.682V80.9347H419.903V83.4889H424.572ZM435.46 78.2257H428.739C428.055 79.1932 427.294 80.0317 426.507 80.6767C426.327 80.4961 425.953 80.1349 425.708 79.9801C427.127 78.9352 428.391 77.2711 429.139 75.5167L430.106 75.8005C429.874 76.3294 429.603 76.8325 429.32 77.3098H436.44V77.7613C436.298 82.0441 436.169 83.5405 435.808 84.0049C435.589 84.3016 435.344 84.4048 434.996 84.4435C434.66 84.4822 434.105 84.4822 433.499 84.4435C433.486 84.1726 433.383 83.7856 433.254 83.5276C433.809 83.5792 434.325 83.5921 434.544 83.5792C434.738 83.5921 434.854 83.5663 434.97 83.4115C435.215 83.1019 435.357 81.799 435.46 78.2257ZM432.067 80.4187H428.713V82.4956H432.067V80.4187ZM430.326 86.185H435.228C436.324 86.185 436.505 85.9012 436.647 84.5725C436.879 84.7273 437.292 84.8692 437.563 84.9208C437.369 86.6107 436.982 87.088 435.241 87.088H430.377C428.365 87.088 427.772 86.7397 427.772 85.3078V79.5544H433.009V83.3599H428.713V85.3078C428.713 86.0044 428.958 86.185 430.326 86.185ZM441.639 82.4311H447.676V80.2639H441.781C441.781 80.9347 441.742 81.67 441.639 82.4311ZM447.676 77.2066H441.781V79.348H447.676V77.2066ZM448.67 76.2649V85.9657C448.67 86.6365 448.476 86.9719 447.999 87.1267C447.509 87.2944 446.657 87.3073 445.277 87.3073C445.212 87.0364 445.032 86.5849 444.864 86.314C445.948 86.3527 446.98 86.3398 447.276 86.3398C447.573 86.3269 447.676 86.2366 447.676 85.9528V83.3728H441.484C441.162 84.8305 440.517 86.2882 439.265 87.3847C439.136 87.1783 438.749 86.83 438.556 86.6881C440.607 84.8821 440.813 82.2634 440.813 80.2123V76.2649H448.67Z" fill="#222222"/>
<rect x="200.461" y="63.8393" width="149.079" height="34.0786" rx="3.225" fill="url(#paint2_linear_455_8551)" stroke="url(#paint3_linear_455_8551)" stroke-width="0.921429"/>
<path d="M255.274 78.0967V79.735H254.371V77.2324H257.531C257.402 76.7551 257.222 76.1746 257.054 75.7102L257.996 75.5425C258.215 76.0714 258.434 76.7293 258.551 77.2324H261.569V79.7221H260.64V78.0967H255.274ZM254.294 82.3924L252.655 82.9213V86.2624C252.655 86.7913 252.526 87.0493 252.191 87.2041C251.868 87.346 251.352 87.3718 250.501 87.3718C250.462 87.1267 250.32 86.7526 250.204 86.4946C250.785 86.5075 251.327 86.5075 251.481 86.5075C251.649 86.5075 251.726 86.443 251.726 86.2624V83.2051C251.133 83.3986 250.578 83.5792 250.088 83.7211L249.856 82.8052C250.372 82.6633 251.017 82.4698 251.726 82.2634V79.0642H249.998V78.1741H251.726V75.5941H252.655V78.1741H254.036V79.0642H252.655V81.9796L254.165 81.5281L254.294 82.3924ZM259.337 81.4894H256.925C256.654 82.1473 256.345 82.7923 256.074 83.3341C256.732 83.6695 257.415 84.0307 258.099 84.4048C258.718 83.6695 259.131 82.702 259.337 81.4894ZM261.75 81.4894H260.357C260.086 82.9084 259.621 84.0049 258.925 84.8821C260.008 85.5142 261.002 86.1463 261.672 86.6623L260.989 87.3976C260.344 86.8687 259.35 86.2108 258.28 85.5658C257.351 86.3914 256.112 86.959 254.513 87.3847C254.448 87.1654 254.216 86.7526 254.048 86.5462C255.493 86.2237 256.603 85.7593 257.441 85.0627C256.564 84.5596 255.635 84.0694 254.822 83.6695C255.158 83.0632 255.545 82.315 255.906 81.4894H254.01V80.6251H256.267C256.551 79.9285 256.796 79.2319 256.977 78.5998L257.957 78.7288C257.777 79.3351 257.531 79.9801 257.286 80.6251H261.75V81.4894ZM264.214 78.3418V80.1478H263.362V77.6452H268.277V76.8841H264.085V76.1101H273.437V76.8841H269.193V77.6452H274.198V80.1478H273.308V78.3418H269.193V81.4249H268.277V78.3418H264.214ZM269.851 81.025V80.38H273.05V81.025H269.851ZM269.851 79.0384H272.715V79.6834H269.851V79.0384ZM264.575 81.025V80.38H267.658V81.025H264.575ZM264.846 79.0384H267.645V79.6834H264.846V79.0384ZM274.366 82.573H269.154C269.038 82.8826 268.909 83.2051 268.793 83.4889H273.656V86.4559C273.656 86.8945 273.579 87.1525 273.257 87.2944C272.921 87.4363 272.457 87.4492 271.747 87.4492C271.709 87.1912 271.58 86.83 271.451 86.5849C271.954 86.5978 272.405 86.5978 272.56 86.5849C272.702 86.5849 272.741 86.5591 272.741 86.4301V84.2758H270.728V87.2815H269.838V84.2758H267.89V87.2815H267.013V84.2758H265.117V87.3589H264.201V83.4889H267.903C267.993 83.1922 268.097 82.8697 268.187 82.573H263.207V81.7861H274.366V82.573ZM279.694 77.7355L279.049 78.445C278.623 77.8903 277.733 77.026 277.023 76.4326L277.643 75.8134C278.352 76.381 279.255 77.2066 279.694 77.7355ZM278.855 85.0885L280.429 84.0307C280.493 84.2758 280.661 84.6757 280.739 84.8692C278.339 86.572 277.978 86.8558 277.772 87.1267C277.681 86.8687 277.436 86.4559 277.268 86.2495C277.514 86.0818 277.888 85.7206 277.888 85.1788V80.5606H275.862V79.6189H278.855V85.0885ZM287.55 79.8511V80.8186H284.286V87.3718H283.293V80.8186H280.016V79.8511H283.293V75.6328H284.286V79.8511H287.55ZM290.672 79.6834H292.452C292.594 79.3738 292.671 79.0513 292.697 78.7159H290.839C290.788 79.0513 290.723 79.3738 290.672 79.6834ZM293.6 77.1034V78.0193H295.638V77.1034H293.6ZM298.463 77.1034H296.554V78.0193H298.463V77.1034ZM295.638 79.6834V78.7159H293.587C293.561 79.0513 293.51 79.3738 293.419 79.6834H295.638ZM290.555 85.5916V82.1989C290.22 82.3279 289.82 82.4311 289.394 82.5343C289.304 82.3279 289.072 81.9667 288.917 81.799C290.517 81.4249 291.458 80.9347 292 80.3671H289.678C289.807 79.735 289.962 78.7933 290.052 78.0322H290.414V78.0193H292.723V77.1034H289.549V76.4197H292.723V75.5941H293.6V76.4197H295.638V75.5941H296.554V76.4197H299.34V78.7159H296.554V79.6834H300.101C300.101 79.6834 300.089 79.8898 300.089 80.0059C299.998 80.8315 299.895 81.2572 299.714 81.4507C299.547 81.6184 299.353 81.6829 299.082 81.6829C298.863 81.7087 298.424 81.7087 297.96 81.67C297.96 81.4894 297.87 81.2056 297.779 81.025C298.179 81.0637 298.528 81.0637 298.67 81.0637C298.811 81.0637 298.902 81.0508 298.979 80.9863C299.044 80.9089 299.095 80.7283 299.147 80.3671H296.554V81.7216H295.638V80.3671H293.123C292.761 80.9992 292.129 81.5668 291.007 82.0183H298.67V85.5013H297.715V82.831H291.471V85.5916H290.555ZM294.232 83.3599H295.187C294.709 85.7206 293.406 86.8558 289.124 87.3718C289.059 87.1396 288.878 86.7655 288.724 86.5591C292.748 86.1592 293.819 85.282 294.232 83.3599ZM294.838 85.6174L295.341 84.9595C296.928 85.3723 299.108 86.0818 300.256 86.6107L299.727 87.3718C298.644 86.8429 296.477 86.0689 294.838 85.6174Z" fill="#222222"/>
<rect x="200.461" y="9.46071" width="149.079" height="34.0786" rx="3.225" fill="url(#paint4_linear_455_8551)" stroke="url(#paint5_linear_455_8551)" stroke-width="0.921429"/>
<path d="M256.254 26.3284V25.2061C255.635 25.3867 255.003 25.5673 254.397 25.7221C254.332 25.5028 254.177 25.1803 254.048 24.9739C254.771 24.7804 255.519 24.574 256.254 24.3289V21.7618H257.196V23.9935C258.473 23.5291 259.634 23.0002 260.408 22.4455L261.143 23.1808C260.099 23.8387 258.68 24.4192 257.196 24.9094V26.3413C257.196 26.7541 257.312 26.8315 257.918 26.8315H260.008C260.486 26.8315 260.576 26.6122 260.64 25.3996C260.86 25.5673 261.234 25.7092 261.492 25.7737C261.389 27.2572 261.105 27.67 260.073 27.67H257.815C256.59 27.67 256.254 27.3862 256.254 26.3284ZM252.333 28.0183V24.5869C251.83 25.0642 251.301 25.5028 250.772 25.864C250.63 25.6834 250.282 25.3093 250.075 25.1545C251.443 24.3031 252.797 22.9615 253.636 21.5683L254.513 21.8908C254.165 22.4713 253.739 23.0389 253.274 23.5807V28.0183H252.333ZM261.608 29.5147V30.4435H256.358V33.3718H255.364V30.4435H250.127V29.5147H255.364V28.0054H256.358V29.5147H261.608ZM272.07 30.8434H269.193V33.1138H268.277V30.8434H265.504V30.0436H268.277V28.7407H265.775V27.9538H267.129C267.013 27.5281 266.716 26.8831 266.42 26.4316L267.181 26.2381C267.49 26.6896 267.813 27.3217 267.929 27.7345L267.232 27.9538H269.541C269.812 27.412 270.109 26.6896 270.277 26.1865L271.141 26.38C270.896 26.9218 270.638 27.4765 270.393 27.9538H271.85V28.7407H269.193V30.0436H272.07V30.8434ZM274.418 23.7742H269.154C269.09 24.2515 269.012 24.7288 268.948 25.1416H273.734V32.2495C273.734 32.8171 273.592 33.0751 273.179 33.217C272.766 33.3718 272.031 33.3718 270.999 33.3718C270.935 33.1138 270.78 32.7526 270.651 32.5075C271.463 32.5462 272.25 32.5462 272.47 32.5333C272.702 32.5204 272.766 32.4559 272.766 32.2495V26.0317H264.781V33.3589H263.84V25.1416H268.032C268.097 24.7417 268.148 24.2644 268.2 23.7742H263.143V22.8712H268.29C268.329 22.4068 268.367 21.9553 268.38 21.5683L269.412 21.6844C269.374 22.0585 269.322 22.4713 269.27 22.8712H274.418V23.7742ZM277.075 23.4388H286.273V24.4579H277.075V23.4388ZM275.991 31.0369H287.356V32.0818H275.991V31.0369ZM290.349 32.0689H300.347V32.9848H289.407V22.2907H300.024V23.2066H290.349V32.0689ZM298.811 30.4822L298.05 31.1659C297.405 30.3661 296.412 29.3212 295.29 28.2634C294.206 29.3857 293.019 30.3919 291.82 31.1659C291.652 30.9853 291.291 30.6112 291.059 30.4564C292.31 29.7082 293.535 28.7278 294.619 27.6184C293.574 26.6509 292.478 25.6834 291.471 24.8578L292.142 24.2902C293.123 25.0771 294.219 26.0188 295.251 26.9476C296.128 25.9801 296.902 24.9094 297.521 23.8258L298.412 24.187C297.702 25.3867 296.864 26.5219 295.935 27.5668C297.083 28.6246 298.128 29.6566 298.811 30.4822Z" fill="#222222"/>
<path d="M93.806 33.8505H110.856V35.4125H92.2V17.1745H110.306V18.7365H93.806V33.8505ZM108.238 31.1445L106.94 32.3105C105.84 30.9465 104.146 29.1645 102.232 27.3605C100.384 29.2745 98.36 30.9905 96.314 32.3105C96.028 32.0025 95.412 31.3645 95.016 31.1005C97.15 29.8245 99.24 28.1525 101.088 26.2605C99.306 24.6105 97.436 22.9605 95.72 21.5525L96.864 20.5845C98.536 21.9265 100.406 23.5325 102.166 25.1165C103.662 23.4665 104.982 21.6405 106.038 19.7925L107.556 20.4085C106.346 22.4545 104.916 24.3905 103.332 26.1725C105.29 27.9765 107.072 29.7365 108.238 31.1445ZM118.908 28.7025L119.348 30.1545C117.346 31.1885 115.19 32.2665 113.496 33.1025L112.858 31.4965C113.562 31.2105 114.398 30.8365 115.322 30.4185V22.8505H113.012V21.3105H115.322V16.2285H116.862V21.3105H118.864V22.8505H116.862V29.6925C117.522 29.3845 118.226 29.0325 118.908 28.7025ZM126.234 30.0885L126.388 31.4745C123.77 32.2445 121.02 33.0365 118.93 33.6305L118.49 32.0905C120.47 31.6505 123.396 30.8365 126.234 30.0885ZM123.99 27.8005V24.1045H121.152V27.8005H123.99ZM119.876 22.7845H125.332V29.1205H119.876V22.7845ZM130.898 22.7845L132.394 23.0705C131.602 25.9525 130.546 28.4825 129.182 30.6605C129.71 33.0585 130.37 34.4885 131.184 34.4885C131.602 34.4885 131.8 33.6305 131.888 31.3425C132.218 31.7165 132.702 32.0245 133.054 32.2005C132.812 35.1265 132.372 36.0505 130.986 36.0505C129.644 36.0505 128.698 34.6425 128.016 32.2885C126.938 33.6965 125.684 34.8845 124.298 35.8745C124.056 35.5885 123.44 35.0605 123.088 34.7965C124.87 33.6745 126.344 32.1785 127.554 30.4405C127.048 27.8005 126.762 24.4345 126.63 20.7165H119.238V19.1985H126.586C126.542 18.1425 126.52 17.0645 126.52 15.9865H128.104C128.104 17.0865 128.104 18.1645 128.126 19.1985H131.58C131.03 18.5385 129.908 17.5485 128.962 16.8445L129.908 16.0305C130.876 16.6685 132.042 17.6145 132.592 18.2965L131.624 19.1985H132.79V20.7165H128.17C128.258 23.6425 128.478 26.2825 128.786 28.4385C129.688 26.7225 130.37 24.8525 130.898 22.7845Z" fill="#222222"/>
<path d="M97.634 73.8528L96.534 75.0628C95.808 74.1168 94.29 72.6428 93.08 71.6308L94.136 70.5748C95.346 71.5428 96.886 72.9508 97.634 73.8528ZM96.204 86.3928L98.888 84.5888C98.998 85.0068 99.284 85.6888 99.416 86.0188C95.324 88.9228 94.708 89.4068 94.356 89.8688C94.202 89.4288 93.784 88.7248 93.498 88.3728C93.916 88.0868 94.554 87.4708 94.554 86.5468V78.6708H91.1V77.0648H96.204V86.3928ZM111.032 77.4608V79.1108H105.466V90.2868H103.772V79.1108H98.184V77.4608H103.772V70.2668H105.466V77.4608H111.032ZM116.356 77.1748H119.392C119.634 76.6468 119.766 76.0968 119.81 75.5248H116.642C116.554 76.0968 116.444 76.6468 116.356 77.1748ZM121.35 72.7748V74.3368H124.826V72.7748H121.35ZM129.644 72.7748H126.388V74.3368H129.644V72.7748ZM124.826 77.1748V75.5248H121.328C121.284 76.0968 121.196 76.6468 121.042 77.1748H124.826ZM116.158 87.2508V81.4648C115.586 81.6848 114.904 81.8608 114.178 82.0368C114.024 81.6848 113.628 81.0688 113.364 80.7828C116.092 80.1448 117.698 79.3088 118.622 78.3408H114.662C114.882 77.2628 115.146 75.6568 115.3 74.3588H115.916V74.3368H119.854V72.7748H114.442V71.6088H119.854V70.2008H121.35V71.6088H124.826V70.2008H126.388V71.6088H131.14V75.5248H126.388V77.1748H132.438C132.438 77.1748 132.416 77.5268 132.416 77.7248C132.262 79.1328 132.086 79.8588 131.778 80.1888C131.492 80.4748 131.162 80.5848 130.7 80.5848C130.326 80.6288 129.578 80.6288 128.786 80.5628C128.786 80.2548 128.632 79.7708 128.478 79.4628C129.16 79.5288 129.754 79.5288 129.996 79.5288C130.238 79.5288 130.392 79.5068 130.524 79.3968C130.634 79.2648 130.722 78.9568 130.81 78.3408H126.388V80.6508H124.826V78.3408H120.536C119.92 79.4188 118.842 80.3868 116.928 81.1568H129.996V87.0968H128.368V82.5428H117.72V87.2508H116.158ZM122.428 83.4448H124.056C123.242 87.4708 121.02 89.4068 113.716 90.2868C113.606 89.8908 113.298 89.2528 113.034 88.9008C119.898 88.2188 121.724 86.7228 122.428 83.4448ZM123.462 87.2948L124.32 86.1728C127.026 86.8768 130.744 88.0868 132.702 88.9888L131.8 90.2868C129.952 89.3848 126.256 88.0648 123.462 87.2948ZM145.154 75.0408V73.3908H141.964V72.0048H145.154V70.2008H146.716V72.0048H150.06V70.2008H151.644V72.0048H154.702V73.3908H151.644V75.0628H150.06V73.3908H146.716V75.0408H145.154ZM142.074 81.0908L141.04 82.3008C140.732 81.5528 140.05 80.1448 139.456 79.0008V90.2648H137.894V80.3868C137.256 82.5208 136.442 84.5228 135.628 85.8208C135.452 85.3368 135.056 84.6328 134.77 84.2368C136.046 82.4108 137.3 78.9128 137.894 75.9428H135.188V74.4028H137.894V70.1788H139.456V74.4028H141.722V75.9428H139.456V76.8008C140.028 77.6368 141.678 80.4088 142.074 81.0908ZM144.384 79.4188V80.9808H151.996V79.4188H144.384ZM144.384 76.6908V78.2528H151.996V76.6908H144.384ZM154.68 85.4248H149.752C150.83 87.1848 152.7 88.3948 155.186 88.9228C154.834 89.2308 154.372 89.8468 154.152 90.2648C151.336 89.4948 149.312 87.8668 148.212 85.4688C147.332 87.8008 145.572 89.3408 141.744 90.2648C141.612 89.9128 141.194 89.2968 140.908 88.9888C144.12 88.2628 145.682 87.0968 146.518 85.4248H141.48V84.0388H147.002C147.134 83.4888 147.222 82.8508 147.31 82.2128H142.866V75.4588H153.558V82.2128H148.916C148.85 82.8508 148.74 83.4668 148.63 84.0388H154.68V85.4248ZM175.844 72.9728L174.7 74.0068C174.062 73.2368 172.698 72.0488 171.576 71.2568L172.676 70.3548C173.798 71.1028 175.184 72.2248 175.844 72.9728ZM163.59 80.7168V86.7448C165.13 86.4148 166.714 86.1068 168.298 85.7548L168.43 87.2068C164.712 88.0868 160.686 89.0108 157.892 89.6268L157.386 88.0208C158.618 87.7788 160.224 87.4488 161.984 87.0968V80.7168H158.068V79.1328H167.704V80.7168H163.59ZM176.746 75.8768H170.322C170.872 83.2688 172.588 88.6148 174.766 88.6148C175.36 88.6148 175.624 87.4048 175.756 84.4788C176.13 84.8528 176.746 85.2048 177.208 85.3808C176.922 89.1868 176.306 90.3088 174.634 90.3088C171.07 90.3088 169.244 83.9948 168.65 75.8768H157.298V74.2708H168.54C168.474 72.9728 168.452 71.6308 168.43 70.2888H170.146C170.146 71.6528 170.168 72.9728 170.234 74.2708H176.746V75.8768Z" fill="#222222"/>
<g opacity="0.8">
<path d="M209.136 126.39H203.375C202.789 127.22 202.137 127.938 201.462 128.491C201.307 128.336 200.987 128.027 200.777 127.894C201.993 126.999 203.077 125.572 203.718 124.068L204.547 124.312C204.348 124.765 204.116 125.196 203.873 125.605H209.976V125.992C209.855 129.663 209.744 130.946 209.434 131.344C209.246 131.598 209.036 131.687 208.738 131.72C208.45 131.753 207.975 131.753 207.455 131.72C207.444 131.488 207.356 131.156 207.245 130.935C207.721 130.979 208.163 130.99 208.351 130.979C208.517 130.99 208.616 130.968 208.716 130.835C208.926 130.57 209.047 129.453 209.136 126.39ZM206.228 128.27H203.353V130.05H206.228V128.27ZM204.735 133.213H208.937C209.877 133.213 210.031 132.969 210.153 131.831C210.352 131.963 210.706 132.085 210.938 132.129C210.772 133.578 210.441 133.987 208.948 133.987H204.779C203.054 133.987 202.546 133.688 202.546 132.461V127.529H207.035V130.791H203.353V132.461C203.353 133.058 203.563 133.213 204.735 133.213ZM214.609 130.902H217.086V128.712H214.609V130.902ZM221.918 130.902V131.698H217.915V134.23H217.086V131.698H211.978V130.902H213.791V127.938H217.086V126.258H214.399C213.901 127.109 213.315 127.861 212.718 128.436C212.564 128.303 212.221 128.027 212.011 127.916C213.05 127.01 213.979 125.583 214.499 124.102L215.328 124.301C215.173 124.688 214.996 125.086 214.819 125.462H221.409V126.258H217.915V127.938H221.155V128.712H217.915V130.902H221.918ZM231.25 126.39H225.489C224.903 127.22 224.251 127.938 223.576 128.491C223.422 128.336 223.101 128.027 222.891 127.894C224.107 126.999 225.191 125.572 225.832 124.068L226.661 124.312C226.462 124.765 226.23 125.196 225.987 125.605H232.09V125.992C231.969 129.663 231.858 130.946 231.549 131.344C231.361 131.598 231.151 131.687 230.852 131.72C230.565 131.753 230.089 131.753 229.569 131.72C229.558 131.488 229.47 131.156 229.359 130.935C229.835 130.979 230.277 130.99 230.465 130.979C230.631 130.99 230.73 130.968 230.83 130.835C231.04 130.57 231.162 129.453 231.25 126.39ZM228.342 128.27H225.467V130.05H228.342V128.27ZM226.849 133.213H231.051C231.991 133.213 232.146 132.969 232.267 131.831C232.466 131.963 232.82 132.085 233.052 132.129C232.887 133.578 232.555 133.987 231.062 133.987H226.894C225.169 133.987 224.66 133.688 224.66 132.461V127.529H229.149V130.791H225.467V132.461C225.467 133.058 225.677 133.213 226.849 133.213ZM236.546 129.995H241.721V128.137H236.668C236.668 128.712 236.635 129.343 236.546 129.995ZM241.721 125.517H236.668V127.352H241.721V125.517ZM242.573 124.71V133.025C242.573 133.6 242.407 133.887 241.998 134.02C241.577 134.164 240.848 134.175 239.665 134.175C239.609 133.942 239.454 133.555 239.311 133.323C240.24 133.356 241.124 133.345 241.378 133.345C241.633 133.334 241.721 133.257 241.721 133.014V130.802H236.414C236.137 132.052 235.584 133.301 234.512 134.241C234.401 134.064 234.07 133.766 233.904 133.644C235.662 132.096 235.839 129.851 235.839 128.093V124.71H242.573ZM248.422 125.97L247.869 126.578C247.504 126.103 246.741 125.362 246.133 124.853L246.664 124.323C247.272 124.809 248.046 125.517 248.422 125.97ZM247.703 132.273L249.052 131.366C249.107 131.576 249.251 131.919 249.317 132.085C247.261 133.544 246.951 133.788 246.774 134.02C246.697 133.799 246.487 133.445 246.343 133.268C246.553 133.124 246.874 132.815 246.874 132.35V128.392H245.138V127.585H247.703V132.273ZM255.156 127.784V128.613H252.358V134.23H251.507V128.613H248.698V127.784H251.507V124.168H252.358V127.784H255.156ZM257.831 127.64H259.357C259.479 127.375 259.545 127.098 259.567 126.811H257.975C257.931 127.098 257.876 127.375 257.831 127.64ZM260.341 125.428V126.214H262.088V125.428H260.341ZM264.51 125.428H262.874V126.214H264.51V125.428ZM262.088 127.64V126.811H260.33C260.308 127.098 260.264 127.375 260.187 127.64H262.088ZM257.732 132.704V129.796C257.444 129.907 257.102 129.995 256.737 130.084C256.659 129.907 256.46 129.597 256.328 129.453C257.699 129.133 258.506 128.712 258.97 128.226H256.98C257.091 127.684 257.223 126.877 257.301 126.225H257.61V126.214H259.59V125.428H256.87V124.842H259.59V124.135H260.341V124.842H262.088V124.135H262.874V124.842H265.262V126.811H262.874V127.64H265.914C265.914 127.64 265.903 127.817 265.903 127.916C265.826 128.624 265.737 128.989 265.583 129.155C265.439 129.298 265.273 129.354 265.041 129.354C264.853 129.376 264.477 129.376 264.079 129.343C264.079 129.188 264.001 128.945 263.924 128.79C264.267 128.823 264.565 128.823 264.687 128.823C264.809 128.823 264.886 128.812 264.952 128.757C265.008 128.69 265.052 128.536 265.096 128.226H262.874V129.387H262.088V128.226H259.932C259.623 128.768 259.081 129.254 258.119 129.641H264.687V132.627H263.869V130.338H258.517V132.704H257.732ZM260.883 130.791H261.701C261.292 132.815 260.176 133.788 256.505 134.23C256.449 134.031 256.295 133.71 256.162 133.533C259.612 133.191 260.529 132.439 260.883 130.791ZM261.403 132.726L261.834 132.162C263.194 132.516 265.063 133.124 266.047 133.578L265.594 134.23C264.665 133.777 262.807 133.113 261.403 132.726ZM269.242 129.951H271.852C271.874 129.73 271.874 129.497 271.874 129.276V128.834H269.242V129.951ZM269.242 127.076V128.182H271.874V127.076H269.242ZM275.501 127.076H272.714V128.182H275.501V127.076ZM275.501 129.951V128.834H272.714V129.287C272.714 129.509 272.703 129.741 272.692 129.951H275.501ZM276.308 130.636H272.593C272.46 131.322 272.162 131.952 271.609 132.516C273.002 133.146 274.904 133.312 277.358 133.379C277.215 133.578 277.06 133.92 277.016 134.186C274.461 134.075 272.449 133.832 270.945 133.036C270.204 133.522 269.176 133.931 267.739 134.23C267.65 134.042 267.429 133.699 267.252 133.511C268.568 133.257 269.508 132.947 270.182 132.56C269.652 132.151 269.198 131.643 268.822 131.001L269.508 130.725C269.884 131.3 270.326 131.753 270.846 132.096C271.354 131.665 271.609 131.167 271.741 130.636H268.457V126.39H271.874V125.462H267.451V124.721H277.005V125.462H272.714V126.39H276.308V130.636ZM287.553 126.037L286.945 126.49C286.646 126.037 286.005 125.329 285.463 124.82L286.038 124.411C286.569 124.898 287.232 125.594 287.553 126.037ZM280.786 124.157L281.56 124.389C281.239 125.252 280.841 126.103 280.399 126.91V134.219H279.614V128.171C279.315 128.602 278.995 129 278.685 129.343C278.597 129.155 278.354 128.735 278.21 128.536C279.238 127.463 280.2 125.827 280.786 124.157ZM288.228 127.518H284.236C284.037 130.227 283.429 132.715 281.427 134.175C281.295 133.976 281.029 133.721 280.819 133.578C282.699 132.262 283.252 129.995 283.429 127.518H280.996V126.733H283.484C283.517 125.915 283.528 125.086 283.528 124.267H284.335C284.335 125.086 284.324 125.915 284.28 126.733H288.228V127.518ZM285.983 133.168H287.1C287.42 133.168 287.487 132.914 287.52 131.466C287.697 131.609 288.029 131.753 288.25 131.819C288.172 133.467 287.962 133.92 287.166 133.92H285.883C285.021 133.92 284.789 133.655 284.789 132.759V128.381H285.596V132.759C285.596 133.091 285.651 133.168 285.983 133.168ZM294.696 129.276V130.128C295.393 130.128 296.1 130.117 296.808 130.106C296.498 129.929 296.189 129.785 295.89 129.652L296.399 129.276H294.696ZM291.224 128.723H293.867V127.994H291.224V128.723ZM291.224 126.744V127.463H293.867V126.744H291.224ZM297.416 126.744H294.696V127.463H297.416V126.744ZM297.416 128.723V127.994H294.696V128.723H297.416ZM289.72 130.88L289.676 130.15C290.793 130.161 292.263 130.15 293.867 130.139V129.276H290.439V126.191H293.867V125.484H289.687V124.809H293.867V124.146H294.696V124.809H298.997V125.484H294.696V126.191H298.223V129.276H296.487C297.449 129.663 298.533 130.36 299.086 130.88L298.522 131.355C298.345 131.156 298.079 130.957 297.792 130.736C294.84 130.802 291.733 130.858 289.72 130.88ZM295.702 132.129L295.138 132.627C294.762 132.24 293.977 131.709 293.314 131.366L293.834 130.924C294.486 131.233 295.293 131.742 295.702 132.129ZM290.129 133.887L289.422 133.5C289.864 132.98 290.24 132.107 290.461 131.455L291.158 131.731C290.914 132.428 290.572 133.312 290.129 133.887ZM293.369 133.379H295.769C296.299 133.379 296.399 133.246 296.454 132.273C296.642 132.394 296.963 132.516 297.184 132.56C297.073 133.788 296.819 134.075 295.824 134.075H293.325C292.075 134.075 291.744 133.865 291.744 133.058V131.499H292.551V133.047C292.551 133.334 292.673 133.379 293.369 133.379ZM297.129 131.709L297.825 131.466C298.367 132.096 298.931 132.947 299.141 133.533L298.4 133.799C298.19 133.235 297.648 132.361 297.129 131.709ZM301.607 134.562L301.363 133.976C302.215 133.622 302.701 133.102 302.757 132.35C302.69 132.361 302.635 132.361 302.569 132.361C302.115 132.361 301.739 132.096 301.739 131.576C301.739 131.057 302.126 130.78 302.58 130.78C303.188 130.78 303.52 131.278 303.52 132.052C303.52 133.246 302.768 134.153 301.607 134.562ZM319.84 131.432V129.619H315.992V131.432H319.84ZM317.518 128.945V127.551H314.333V126.811H317.518V125.473C316.678 125.572 315.793 125.65 315.008 125.694C314.986 125.495 314.897 125.218 314.809 125.03C316.711 124.887 319.044 124.621 320.36 124.223L320.758 124.898C320.105 125.097 319.254 125.252 318.336 125.373V126.811H321.432V127.551H318.336V128.945H320.658V132.107H315.218V128.945H317.518ZM313.913 126.28L313.261 126.777C312.94 126.28 312.244 125.517 311.647 124.975L312.255 124.533C312.841 125.041 313.571 125.793 313.913 126.28ZM313.692 128.049V132.14C313.946 132.251 314.201 132.472 314.654 132.715C315.373 133.102 316.313 133.18 317.518 133.18C318.79 133.18 320.448 133.102 321.51 132.992C321.432 133.191 321.299 133.567 321.288 133.799C320.481 133.854 318.546 133.909 317.507 133.909C316.202 133.909 315.251 133.799 314.466 133.367C314.013 133.102 313.67 132.781 313.416 132.781C313.029 132.781 312.465 133.367 311.901 134.042L311.392 133.367C311.912 132.848 312.432 132.417 312.896 132.218V128.823H311.403V128.049H313.692ZM330.134 130.537H325.004V132.826H330.134V130.537ZM324.174 134.208V129.807H330.986V134.164H330.134V133.589H325.004V134.208H324.174ZM325.048 127.717H330.267C329.294 127.12 328.409 126.424 327.58 125.539C326.861 126.368 325.988 127.098 325.048 127.717ZM327.69 124.102L328.409 124.455C328.299 124.632 328.177 124.787 328.055 124.953C329.349 126.324 330.886 127.231 332.644 127.972C332.434 128.149 332.202 128.458 332.08 128.712C331.45 128.403 330.853 128.093 330.289 127.728V128.48H324.749V127.916C324.196 128.248 323.633 128.558 323.058 128.812C322.914 128.591 322.693 128.281 322.46 128.093C324.55 127.264 326.574 125.804 327.69 124.102ZM338.969 129.829H342.142V126.899H338.969V129.829ZM334.955 129.829H338.117V126.899H334.955V129.829ZM338.969 126.092H342.983V131.267H342.142V130.636H338.969V134.219H338.117V130.636H334.955V131.322H334.148V126.092H338.117V124.124H338.969V126.092ZM352.58 124.378L353.398 124.732C352.315 126.003 350.645 127.131 349.141 127.861C349.009 127.684 348.677 127.363 348.478 127.209C350.026 126.567 351.618 125.517 352.58 124.378ZM354.493 129.243H350.28C351.098 131.134 352.635 132.538 354.747 133.146C354.537 133.312 354.294 133.666 354.172 133.898C351.884 133.146 350.324 131.521 349.44 129.243H347.715V132.936L350.358 132.284C350.358 132.527 350.391 132.87 350.435 133.058C347.427 133.854 347.018 133.987 346.753 134.164C346.698 133.954 346.554 133.611 346.421 133.434C346.598 133.345 346.864 133.191 346.864 132.759V129.243H344.752V128.436H346.864V124.201H347.715V128.436H354.493V129.243ZM357.445 129.708V130.813H359.447V129.708H357.445ZM359.447 126.324H357.445V127.297H359.447V126.324ZM357.445 127.961V129.044H359.447V127.961H357.445ZM361.017 130.813V131.554H355.621V130.813H356.693V126.324H355.765V125.583H356.693V124.245H357.445V125.583H359.447V124.245H360.21V125.583H361.017V126.324H360.21V130.813H361.017ZM357.147 131.786L357.932 131.996C357.534 132.848 356.903 133.688 356.295 134.23C356.141 134.097 355.831 133.865 355.632 133.754C356.24 133.257 356.815 132.516 357.147 131.786ZM358.717 132.129L359.358 131.786C359.8 132.284 360.309 132.969 360.519 133.423L359.856 133.81C359.657 133.367 359.159 132.649 358.717 132.129ZM362.31 129.763H364.588V127.927H362.333V128.668C362.333 129.011 362.321 129.387 362.31 129.763ZM364.588 125.428H362.333V127.187H364.588V125.428ZM365.384 124.677V133.168C365.384 133.655 365.263 133.898 364.964 134.031C364.643 134.164 364.135 134.186 363.317 134.186C363.283 133.954 363.173 133.6 363.062 133.39C363.648 133.401 364.201 133.401 364.356 133.39C364.522 133.39 364.588 133.334 364.588 133.157V130.504H362.255C362.145 131.819 361.868 133.224 361.205 134.285C361.072 134.13 360.74 133.876 360.552 133.799C361.47 132.339 361.559 130.249 361.559 128.668V124.677H365.384ZM374.363 125.539H372.107C371.842 125.904 371.532 126.269 371.189 126.601H373.655C373.909 126.291 374.164 125.893 374.363 125.539ZM370.924 127.297V126.844C370.813 126.943 370.703 127.021 370.592 127.109C370.482 126.943 370.249 126.689 370.084 126.589C371.079 125.86 371.764 124.887 372.118 124.079L372.881 124.212C372.782 124.433 372.66 124.654 372.538 124.876H374.783L374.904 124.842L375.413 125.174C375.17 125.639 374.838 126.158 374.495 126.601H375.933V130.504H370.769V129.818H375.192V128.856H371.068V128.215H375.192V127.297H370.924ZM374.462 132.041L373.865 132.406C373.633 132.03 373.135 131.432 372.726 131.001L373.301 130.681C373.71 131.09 374.219 131.665 374.462 132.041ZM370.471 130.05L369.951 130.736C369.818 130.415 369.475 129.796 369.188 129.287V134.241H368.414V129.564C368.027 130.625 367.551 131.643 367.054 132.306C366.977 132.074 366.766 131.72 366.623 131.51C367.242 130.725 367.916 129.298 368.292 128.049H366.866V127.275H368.414V125.495C368.016 125.583 367.607 125.661 367.231 125.727C367.187 125.539 367.076 125.263 366.988 125.075C368.016 124.876 369.221 124.555 369.918 124.212L370.426 124.876C370.073 125.041 369.641 125.185 369.188 125.307V127.275H370.448V128.049H369.188V128.303C369.475 128.657 370.283 129.763 370.471 130.05ZM370.349 133.688L369.686 133.323C370.05 132.781 370.426 131.897 370.659 131.3L371.3 131.587C371.034 132.195 370.692 133.091 370.349 133.688ZM372.881 133.39H374.285C374.628 133.39 374.694 133.257 374.728 132.284C374.893 132.406 375.192 132.505 375.402 132.56C375.325 133.754 375.104 134.053 374.363 134.053H372.804C371.875 134.053 371.643 133.843 371.643 133.091V131.3H372.395V133.091C372.395 133.345 372.461 133.39 372.881 133.39ZM375.137 131.421L375.778 131.211C376.187 131.886 376.629 132.781 376.806 133.334L376.132 133.6C375.955 133.036 375.524 132.096 375.137 131.421ZM379.018 126.158V127.773H378.211V125.373H382.501C382.368 125.03 382.169 124.61 381.992 124.29L382.788 124.057C383.031 124.466 383.308 125.008 383.441 125.373H387.377V127.773H386.548V126.158H379.018ZM383.208 130.88V133.091C383.761 133.202 384.369 133.235 385.022 133.235C385.42 133.235 387.311 133.235 387.841 133.213C387.709 133.423 387.576 133.799 387.532 134.042H384.978C382.678 134.042 381.03 133.644 380.024 131.764C379.648 132.793 379.106 133.633 378.376 134.263C378.244 134.108 377.912 133.821 377.713 133.699C378.94 132.759 379.537 131.189 379.781 129.199L380.599 129.287C380.533 129.796 380.444 130.271 380.345 130.714C380.765 131.886 381.472 132.527 382.368 132.87V128.303H379.626V127.518H386.028V128.303H383.208V130.106H386.481V130.88H383.208ZM392.397 128.945V126.634H390.075V128.945H392.397ZM390.075 132.328H392.397V129.674H390.075V132.328ZM391.004 124.102L391.888 124.267C391.7 124.809 391.501 125.417 391.313 125.893H393.149V133.069H390.075V133.942H389.323V125.893H390.561C390.727 125.362 390.926 124.621 391.004 124.102ZM398.556 125.86V126.28C398.379 131.322 398.235 133.025 397.793 133.567C397.55 133.876 397.295 133.976 396.919 134.009C396.532 134.053 395.902 134.031 395.283 133.998C395.261 133.754 395.161 133.423 395.006 133.191C395.725 133.257 396.389 133.257 396.643 133.257C396.864 133.257 396.986 133.235 397.096 133.091C397.461 132.704 397.627 131.023 397.771 126.623H394.962C394.653 127.363 394.31 128.038 393.923 128.558C393.779 128.425 393.425 128.204 393.248 128.093C393.989 127.12 394.586 125.594 394.94 124.079L395.725 124.267C395.592 124.809 395.438 125.34 395.25 125.86H398.556ZM396.809 130.835L396.112 131.267C395.78 130.603 395.04 129.509 394.431 128.712L395.073 128.336C395.692 129.122 396.455 130.183 396.809 130.835ZM400.491 133.379V125.274H401.519V133.379H400.491ZM405.422 133.379V126.136H402.967V125.274H408.905V126.136H406.45V133.379H405.422ZM410.869 126.49V128.038H410.139V125.893H414.352V125.24H410.758V124.577H418.775V125.24H415.137V125.893H419.427V128.038H418.664V126.49H415.137V129.133H414.352V126.49H410.869ZM415.701 128.79V128.237H418.443V128.79H415.701ZM415.701 127.087H418.156V127.64H415.701V127.087ZM411.179 128.79V128.237H413.821V128.79H411.179ZM411.411 127.087H413.81V127.64H411.411V127.087ZM419.571 130.117H415.104C415.004 130.382 414.894 130.658 414.794 130.902H418.963V133.445C418.963 133.821 418.896 134.042 418.62 134.164C418.333 134.285 417.934 134.296 417.326 134.296C417.293 134.075 417.183 133.766 417.072 133.555C417.503 133.567 417.89 133.567 418.023 133.555C418.145 133.555 418.178 133.533 418.178 133.423V131.576H416.453V134.153H415.69V131.576H414.02V134.153H413.268V131.576H411.643V134.219H410.858V130.902H414.031C414.109 130.647 414.197 130.371 414.275 130.117H410.007V129.442H419.571V130.117ZM429.467 127.275L430.175 127.773C429.5 128.558 428.616 129.453 427.864 130.072C428.693 131.178 429.744 132.085 430.938 132.605C430.75 132.759 430.484 133.08 430.341 133.301C428.56 132.439 427.178 130.758 426.227 128.723V133.113C426.227 133.688 426.073 133.942 425.708 134.075C425.343 134.219 424.69 134.241 423.717 134.241C423.673 134.009 423.54 133.622 423.43 133.379C424.182 133.401 424.9 133.401 425.122 133.39C425.321 133.379 425.398 133.323 425.398 133.113V130.681C423.972 131.565 422.468 132.461 421.34 133.113L420.809 132.372C421.926 131.797 423.728 130.791 425.398 129.84V126.777H421.053V125.981H425.398V124.157H426.227V125.981H429.191C428.737 125.594 427.908 125.075 427.245 124.721L427.731 124.201C428.428 124.555 429.312 125.075 429.755 125.451L429.29 125.981H430.65V126.777H426.227V126.921C426.537 127.817 426.957 128.679 427.455 129.464C428.14 128.834 428.97 127.961 429.467 127.275ZM424.115 129.475L423.452 129.962C423.109 129.365 422.335 128.48 421.639 127.861L422.258 127.43C422.954 128.027 423.762 128.878 424.115 129.475ZM433.503 130.681C434.443 130.681 435.195 131.432 435.195 132.361C435.195 133.301 434.443 134.053 433.503 134.053C432.585 134.053 431.822 133.301 431.822 132.361C431.822 131.432 432.585 130.681 433.503 130.681ZM433.503 133.489C434.133 133.489 434.631 132.992 434.631 132.361C434.631 131.753 434.133 131.245 433.503 131.245C432.895 131.245 432.386 131.753 432.386 132.361C432.386 132.992 432.895 133.489 433.503 133.489Z" fill="#333333"/>
<path d="M446.252 125.97L445.699 126.578C445.334 126.103 444.571 125.362 443.963 124.853L444.494 124.323C445.102 124.809 445.876 125.517 446.252 125.97ZM445.533 132.273L446.882 131.366C446.937 131.576 447.081 131.919 447.147 132.085C445.091 133.544 444.781 133.788 444.604 134.02C444.527 133.799 444.317 133.445 444.173 133.268C444.383 133.124 444.704 132.815 444.704 132.35V128.392H442.968V127.585H445.533V132.273ZM452.986 127.784V128.613H450.188V134.23H449.337V128.613H446.528V127.784H449.337V124.168H450.188V127.784H452.986ZM455.661 127.64H457.187C457.309 127.375 457.375 127.098 457.397 126.811H455.805C455.761 127.098 455.706 127.375 455.661 127.64ZM458.171 125.428V126.214H459.918V125.428H458.171ZM462.34 125.428H460.704V126.214H462.34V125.428ZM459.918 127.64V126.811H458.16C458.138 127.098 458.094 127.375 458.017 127.64H459.918ZM455.562 132.704V129.796C455.274 129.907 454.932 129.995 454.567 130.084C454.489 129.907 454.29 129.597 454.158 129.453C455.529 129.133 456.336 128.712 456.8 128.226H454.81C454.921 127.684 455.053 126.877 455.131 126.225H455.44V126.214H457.42V125.428H454.699V124.842H457.42V124.135H458.171V124.842H459.918V124.135H460.704V124.842H463.092V126.811H460.704V127.64H463.744C463.744 127.64 463.733 127.817 463.733 127.916C463.656 128.624 463.567 128.989 463.413 129.155C463.269 129.298 463.103 129.354 462.871 129.354C462.683 129.376 462.307 129.376 461.909 129.343C461.909 129.188 461.831 128.945 461.754 128.79C462.097 128.823 462.395 128.823 462.517 128.823C462.639 128.823 462.716 128.812 462.782 128.757C462.838 128.69 462.882 128.536 462.926 128.226H460.704V129.387H459.918V128.226H457.762C457.453 128.768 456.911 129.254 455.949 129.641H462.517V132.627H461.699V130.338H456.347V132.704H455.562ZM458.713 130.791H459.531C459.122 132.815 458.006 133.788 454.335 134.23C454.279 134.031 454.125 133.71 453.992 133.533C457.442 133.191 458.359 132.439 458.713 130.791ZM459.233 132.726L459.664 132.162C461.024 132.516 462.893 133.124 463.877 133.578L463.424 134.23C462.495 133.777 460.637 133.113 459.233 132.726ZM468.045 126.07L467.47 126.656C467.128 126.169 466.398 125.406 465.812 124.865L466.354 124.367C466.94 124.887 467.703 125.605 468.045 126.07ZM467.493 131.974L468.742 131.09C468.808 131.333 468.941 131.654 469.03 131.819C466.973 133.334 466.663 133.589 466.509 133.788C466.42 133.589 466.199 133.224 466.033 133.058C466.265 132.903 466.674 132.527 466.674 132.041V128.381H465.071V127.585H467.493V131.974ZM469.582 127.076V129.077H473.32V127.076H469.582ZM473.11 133.301H474.016C474.282 133.301 474.337 133.124 474.359 131.952C474.536 132.085 474.857 132.218 475.089 132.273C475.011 133.699 474.801 134.075 474.094 134.075H472.999C472.192 134.075 471.993 133.821 471.993 132.98V129.818H470.998C470.832 131.919 470.379 133.401 468.333 134.241C468.233 134.042 468.012 133.743 467.835 133.611C469.671 132.914 470.047 131.609 470.179 129.818H468.786V126.335H470.246C470.08 125.827 469.671 125.03 469.24 124.444L469.936 124.157C470.379 124.732 470.81 125.517 470.976 126.026L470.268 126.335H472.126C472.457 125.705 472.855 124.798 473.065 124.135L473.917 124.411C473.629 125.053 473.309 125.76 472.999 126.335H474.138V129.818H472.8V132.969C472.8 133.257 472.844 133.301 473.11 133.301ZM479.08 125.561H477.278V127.651H479.08V125.561ZM477.278 130.592H479.08V128.403H477.278V130.592ZM479.854 131.355H477.278V132.372H476.504V124.809H479.854V131.355ZM481.922 129.951H484.908V128.016H481.989V128.513C481.989 128.967 481.977 129.453 481.922 129.951ZM484.908 125.373H481.989V127.264H484.908V125.373ZM485.715 124.599V133.146C485.715 133.666 485.593 133.909 485.25 134.053C484.885 134.186 484.277 134.208 483.337 134.208C483.304 133.976 483.172 133.622 483.05 133.401C483.747 133.423 484.443 133.412 484.642 133.412C484.83 133.401 484.908 133.334 484.908 133.146V130.703H481.812C481.579 132.007 481.027 133.323 479.843 134.285C479.733 134.13 479.412 133.843 479.235 133.743C480.993 132.306 481.181 130.216 481.181 128.513V124.599H485.715Z" fill="#074FCB"/>
</g>
<g clip-path="url(#clip0_455_8551)">
<path d="M499.941 129.647L497.588 132L497 131.412L499.353 129.059L497.294 127H502V131.706L499.941 129.647Z" fill="#074FCB"/>
<path d="M497.898 125H494.461C494.206 125 494 125.206 494 125.461V134.539C494 134.794 494.206 135 494.461 135H503.539C503.794 135 504 134.794 504 134.539V131.325" stroke="#074FCB" stroke-width="1.38214" stroke-linecap="round"/>
</g>
<defs>
<linearGradient id="paint0_linear_455_8551" x1="313.077" y1="32.0244" x2="478.638" y2="281.232" gradientUnits="userSpaceOnUse">
<stop stop-color="white"/>
<stop offset="0.145" stop-color="white"/>
<stop offset="0.77" stop-color="white"/>
<stop offset="1" stop-color="white"/>
</linearGradient>
<linearGradient id="paint1_linear_455_8551" x1="350" y1="63.3785" x2="484.263" y2="130.063" gradientUnits="userSpaceOnUse">
<stop stop-color="#D1D1D1"/>
<stop offset="0.5" stop-color="#C8C7C7"/>
<stop offset="1" stop-color="#A19F9F"/>
</linearGradient>
<linearGradient id="paint2_linear_455_8551" x1="163.077" y1="32.0244" x2="328.638" y2="281.232" gradientUnits="userSpaceOnUse">
<stop stop-color="white"/>
<stop offset="0.145" stop-color="white"/>
<stop offset="0.77" stop-color="white"/>
<stop offset="1" stop-color="white"/>
</linearGradient>
<linearGradient id="paint3_linear_455_8551" x1="200" y1="63.3785" x2="334.263" y2="130.063" gradientUnits="userSpaceOnUse">
<stop stop-color="#D1D1D1"/>
<stop offset="0.5" stop-color="#C8C7C7"/>
<stop offset="1" stop-color="#A19F9F"/>
</linearGradient>
<linearGradient id="paint4_linear_455_8551" x1="163.077" y1="-22.3542" x2="328.638" y2="226.853" gradientUnits="userSpaceOnUse">
<stop stop-color="white"/>
<stop offset="0.145" stop-color="white"/>
<stop offset="0.77" stop-color="white"/>
<stop offset="1" stop-color="white"/>
</linearGradient>
<linearGradient id="paint5_linear_455_8551" x1="200" y1="9" x2="334.263" y2="75.6845" gradientUnits="userSpaceOnUse">
<stop stop-color="#D1D1D1"/>
<stop offset="0.5" stop-color="#C8C7C7"/>
<stop offset="1" stop-color="#A19F9F"/>
</linearGradient>
<clipPath id="clip0_455_8551">
<rect width="10" height="10" fill="white" transform="translate(494 125)"/>
</clipPath>
</defs>
</svg>
