<svg width="460" height="68" viewBox="0 0 460 68" fill="none" xmlns="http://www.w3.org/2000/svg">
<g clip-path="url(#clip0_495_3)">
<rect width="460" height="68" fill="#0F62F0"/>
<rect width="460" height="68" fill="url(#paint0_linear_495_3)" fill-opacity="0.23"/>
<g opacity="0.5">
<path d="M175.606 83.3334C166.585 93.2818 139.117 108.981 101.412 92.1901C46.248 40.5559 58.1668 52.4404 82.5617 29.5673C102.078 11.2689 136.864 3.12415 151.818 1.33907" stroke="url(#paint1_linear_495_3)" stroke-width="0.4"/>
<path d="M224.083 86.2795C225.466 83.2034 336.334 73.7114 187.452 65.2853C38.5691 56.8592 -31.421 78.9373 21.9453 42.2095C75.3115 5.48174 -45.9828 44.9122 32.2737 11.451C110.53 -22.0102 31.2641 10.324 53.4075 -31.4095C71.1222 -64.7963 60.4624 -48.0541 52.9181 -35.5096" stroke="url(#paint2_linear_495_3)" stroke-width="0.4"/>
<path d="M178.647 84.3788C174.327 89.0933 169.075 94.9921 151.975 97.6908C134.874 100.389 116.849 100.838 100.326 91.5282C75.3552 65.3591 60.9798 57.0142 62.6657 49.7971C64.3516 42.58 70.5802 40.9645 83.0984 28.5507C102.556 9.76555 135.877 2.42359 150.105 1.10075" stroke="url(#paint3_linear_495_3)" stroke-width="0.4"/>
<path d="M181.663 85.2188C177.533 89.6736 176.152 95.0594 154.659 97.3872C133.166 99.7151 113.408 100.884 99.2152 90.6609C76.8555 64.1399 58.9162 57.3875 63.1545 49.2956C67.3927 41.2037 70.7715 40.7199 83.6106 27.3287C103.01 8.05684 134.865 1.51769 148.367 0.657092" stroke="url(#paint4_linear_495_3)" stroke-width="0.4"/>
<path d="M184.649 85.7969C180.709 89.9921 183.198 94.8648 157.312 96.8218C131.427 98.7789 109.937 100.669 98.0735 89.5317C78.325 62.6588 56.8218 57.4989 63.6123 48.5322C70.4029 39.5655 70.9319 40.2133 84.0918 25.8448C103.433 6.08622 133.822 0.349869 146.598 -0.0484812" stroke="url(#paint5_linear_495_3)" stroke-width="0.4"/>
<path d="M187.616 86.2265C183.866 90.162 190.226 94.5217 159.948 96.1079C129.669 97.6941 106.447 100.305 96.9136 88.254C79.7764 61.0291 54.7092 57.4617 64.0521 47.6202C73.3951 37.7787 71.0742 39.5582 84.555 24.2124C103.838 3.96706 132.761 -0.966479 144.812 -0.902585" stroke="url(#paint6_linear_495_3)" stroke-width="0.4"/>
<path d="M190.57 86.5449C187.01 90.2206 197.242 94.0674 162.57 95.2827C127.899 96.4981 102.945 99.8302 95.7407 86.865C81.2147 59.2881 52.5835 57.3133 64.4788 46.597C76.3741 35.8807 71.2034 38.7918 85.005 22.4687C104.23 1.73665 131.687 -2.39409 143.012 -1.86795" stroke="url(#paint7_linear_495_3)" stroke-width="0.4"/>
<path d="M193.514 86.7771C190.144 90.1931 204.246 93.5268 165.182 94.3714C126.118 95.2159 99.4319 99.269 94.5573 85.3899C82.6426 57.4611 50.4474 57.0787 64.895 45.4876C79.3427 33.8965 71.3222 37.9393 85.4446 20.6388C104.612 -0.579913 130.602 -3.90784 141.202 -2.91946" stroke="url(#paint8_linear_495_3)" stroke-width="0.4"/>
<path d="M195.821 87.0153C192.641 90.1717 210.614 92.9923 167.157 93.466C123.7 93.9397 95.282 98.7138 92.737 83.9208C83.4336 55.64 47.6744 56.8502 64.6744 44.3843C81.6744 31.9183 70.8041 37.0928 85.2474 18.815C104.357 -2.89045 128.881 -5.41558 138.754 -3.96495" stroke="url(#paint9_linear_495_3)" stroke-width="0.4"/>
<path d="M197.378 87.2857C194.388 90.1824 216.231 92.4901 168.382 92.5929C120.532 92.6958 90.3816 98.1909 90.1663 82.484C83.474 53.8512 44.1509 56.6539 63.7033 43.3131C83.2556 29.9724 69.5355 36.2785 84.2996 17.0234C103.351 -5.16878 126.409 -6.89109 135.557 -4.97822" stroke="url(#paint10_linear_495_3)" stroke-width="0.4"/>
<path d="M198.817 87.5221C196.017 90.1591 221.731 91.9537 169.489 91.6858C117.246 91.4178 85.3636 97.6339 87.478 81.013C83.397 52.0283 40.5099 56.4235 62.6146 42.208C84.7193 27.9925 68.1493 35.4302 83.2343 15.1978C102.227 -7.48111 123.82 -8.40062 132.242 -6.02551" stroke="url(#paint11_linear_495_3)" stroke-width="0.4"/>
<path d="M200.178 87.7268C197.568 90.1042 227.153 91.3858 170.518 90.747C113.883 90.1082 80.2678 97.0453 84.7118 79.5105C83.2421 50.1738 36.791 56.1615 61.4481 41.0712C86.1051 25.9808 66.6853 34.5502 82.0911 13.3405C101.026 -9.82514 121.152 -9.94184 128.849 -7.10448" stroke="url(#paint12_linear_495_3)" stroke-width="0.4"/>
<path d="M201.484 87.9023C199.065 90.02 232.52 90.7885 171.492 89.7789C110.464 88.7693 75.1175 96.4274 81.8911 77.9786C83.0326 48.29 33.0175 55.8702 60.227 39.9051C87.4364 23.94 65.1667 33.641 80.8934 11.454C99.7702 -12.1984 118.43 -11.5123 125.401 -8.21269" stroke="url(#paint13_linear_495_3)" stroke-width="0.4"/>
<path d="M202.75 88.0515C200.521 89.9095 237.846 90.165 172.426 88.7846C107.005 87.4041 69.9262 95.7832 79.0294 76.4205C82.7822 46.3799 29.2032 55.5526 58.9649 38.7127C88.7267 21.8727 63.6073 32.7055 79.6547 9.54109C98.4734 -14.598 115.668 -13.1091 121.913 -9.34725" stroke="url(#paint14_linear_495_3)" stroke-width="0.4"/>
<path d="M203.984 88.1763C201.945 89.7746 243.142 89.517 173.329 87.7658C103.515 86.0145 64.704 95.1146 76.1369 74.838C82.5009 44.4454 25.3579 55.2106 57.672 37.4959C89.9862 19.7812 62.0169 31.7455 78.3852 7.60383C97.1458 -17.022 112.874 -14.7303 118.393 -10.5062" stroke="url(#paint15_linear_495_3)" stroke-width="0.4"/>
<path d="M205.195 88.2786C203.346 89.6172 248.413 88.8467 174.207 86.7246C100.001 84.6025 59.4575 94.4236 73.22 73.233C82.1952 42.4885 21.4883 54.8463 56.3548 36.2567C91.2212 17.6672 60.4022 30.7632 77.0913 5.64416C95.7938 -19.4684 110.056 -16.3738 114.849 -11.6875" stroke="url(#paint16_linear_495_3)" stroke-width="0.4"/>
<path d="M206.386 88.3599C204.727 89.4388 253.664 88.1552 175.066 85.6623C96.467 83.1694 54.1914 93.7116 70.2835 71.607C81.87 40.5105 17.5991 54.4608 55.0179 34.9964C92.4368 15.5321 58.7679 29.7598 75.7779 3.66341C94.4222 -21.9358 107.219 -18.0385 111.286 -12.8899" stroke="url(#paint17_linear_495_3)" stroke-width="0.4"/>
<path d="M207.56 88.4214C206.091 89.2407 258.9 87.4441 175.908 84.5803C92.9167 81.7166 48.9089 92.9797 67.3307 69.9612C81.5284 38.5127 13.6935 54.0555 53.6647 33.7164C93.6359 13.3772 57.1172 28.7366 74.448 1.66291C93.0342 -24.4231 104.365 -19.7229 107.706 -14.1121" stroke="url(#paint18_linear_495_3)" stroke-width="0.4"/>
<path d="M208.721 88.464C207.442 89.0236 264.121 86.7139 176.737 83.4794C89.353 80.2448 43.6131 92.2289 64.3645 68.2964C81.1734 36.4961 9.7746 53.6314 52.2981 32.4174C94.8217 11.2035 55.4531 27.6945 73.1048 -0.356533C91.633 -26.9292 101.497 -21.4263 104.113 -15.3532" stroke="url(#paint19_linear_495_3)" stroke-width="0.4"/>
<path d="M209.87 88.4882C208.782 88.7881 269.332 85.9654 177.555 82.36C85.7778 78.7546 38.3057 91.4598 61.3867 66.6133C80.8069 34.461 5.84411 53.1888 50.92 31.1C95.9959 9.01127 53.7775 26.6339 71.75 -2.39439C90.2201 -29.4538 98.6183 -23.1481 100.509 -16.6128" stroke="url(#paint20_linear_495_3)" stroke-width="0.4"/>
<path d="M211.01 88.4941C210.111 88.5343 274.532 85.1986 178.362 81.2224C82.1924 77.2462 32.9882 90.6723 58.3988 64.9119C80.4303 32.4076 1.90351 52.7279 49.5318 29.7644C97.16 6.8008 52.0918 25.5551 70.3852 -4.45052C88.7971 -31.9967 95.7293 -24.8881 96.894 -17.8906" stroke="url(#paint21_linear_495_3)" stroke-width="0.4"/>
<path d="M212.141 88.4814C211.432 88.2619 279.723 84.4131 179.161 80.0661C78.5986 75.7191 27.6622 89.8662 55.4025 63.1919C80.0451 30.3356 -2.04561 52.2485 48.135 28.4101C98.3156 4.57172 50.3976 24.4577 69.0118 -6.52527C87.3656 -34.5581 92.8318 -26.6468 93.2707 -19.187" stroke="url(#paint22_linear_495_3)" stroke-width="0.4"/>
<path d="M213.263 88.4486C212.745 87.9694 284.907 83.6077 179.952 78.8898C74.9966 74.172 22.328 89.0401 52.3979 61.4518C79.6518 28.2436 -6.00288 51.7489 46.7301 27.0358C99.463 2.32259 48.6952 23.3402 67.6302 -8.62007C85.926 -37.1397 89.9262 -28.4255 89.6393 -20.5035" stroke="url(#paint23_linear_495_3)" stroke-width="0.4"/>
<path d="M214.369 88.3167C214.041 87.5778 290.073 82.703 180.726 77.6144C71.3778 72.5257 16.9771 88.1148 49.3766 59.6125C79.2418 26.0524 -9.97691 51.1503 45.3084 25.5623C100.594 -0.0257026 46.9761 22.1236 66.2319 -10.814C84.4696 -39.8203 87.0038 -30.3034 85.9912 -21.9191" stroke="url(#paint24_linear_495_3)" stroke-width="0.4"/>
<path d="M215.46 88.0889C215.322 87.0904 295.225 81.7026 181.484 76.2431C67.7435 70.7836 11.6106 87.0937 46.3398 57.6775C78.8162 23.7654 -13.9664 50.4558 43.8712 23.993C101.709 -2.4698 45.2414 20.8111 64.8181 -13.1038C82.9977 -42.5968 84.0659 -32.277 82.3275 -23.4305" stroke="url(#paint25_linear_495_3)" stroke-width="0.4"/>
<path d="M216.546 87.8617C216.599 86.6035 300.372 80.7026 182.239 74.8723C64.1055 69.042 6.24043 86.0731 43.2993 55.743C78.3869 21.4789 -17.9597 49.7618 42.4303 22.4242C102.82 -4.91338 43.503 19.4992 63.4006 -15.393C81.522 -45.3728 81.1242 -34.2502 78.6601 -24.9414" stroke="url(#paint26_linear_495_3)" stroke-width="0.4"/>
<path d="M217.63 87.6348C217.872 86.1169 305.516 79.703 182.99 73.5019C60.4644 67.3007 0.867204 85.0528 40.2557 53.8088C77.9545 19.1927 -21.956 49.0681 40.9863 20.8558C103.929 -7.35664 41.7616 18.1876 61.98 -17.682C80.0433 -48.1484 78.1795 -36.223 74.9897 -26.452" stroke="url(#paint27_linear_495_3)" stroke-width="0.4"/>
<path d="M218.711 87.4083C219.143 85.6307 310.658 78.7038 183.739 72.1318C56.8205 65.5598 -4.5089 84.0329 37.2092 51.8749C77.5193 16.9069 -25.9552 48.3748 39.5395 19.2876C105.034 -9.79956 40.0173 16.8763 60.5565 -19.9706C78.5617 -50.9238 75.2319 -38.1956 71.3163 -27.9623" stroke="url(#paint28_linear_495_3)" stroke-width="0.4"/>
<path d="M219.789 87.182C220.412 85.1447 315.797 77.7048 184.486 70.762C53.1742 63.8192 -9.88729 83.0133 34.1605 49.9413C77.0818 14.6214 -29.9567 47.6818 38.0904 17.7198C106.137 -12.2422 38.2707 15.5654 59.1307 -22.2589C77.0779 -53.6988 72.282 -40.1678 67.6407 -29.4723" stroke="url(#paint29_linear_495_3)" stroke-width="0.4"/>
<path d="M220.866 86.9561C221.678 84.6591 320.934 76.7061 185.23 69.3925C49.5258 62.0789 -15.2679 81.994 31.1095 48.0081C76.642 12.3362 -33.9604 46.9891 36.639 16.1523C107.238 -14.6845 36.5219 14.2547 57.7027 -24.5468C75.5918 -56.4735 69.3299 -42.1396 63.9629 -30.9819" stroke="url(#paint30_linear_495_3)" stroke-width="0.4"/>
<path d="M221.94 86.7303C222.942 84.1736 326.069 75.7077 185.972 68.0232C45.8753 60.3388 -20.6506 80.9749 28.0564 46.075C76.2002 10.0511 -37.9662 46.2966 35.1856 14.585C108.337 -17.1266 34.771 12.9442 56.2727 -26.8346C74.1036 -59.248 66.3758 -44.1113 60.283 -32.4914" stroke="url(#paint31_linear_495_3)" stroke-width="0.4"/>
<path d="M223.012 86.5048C224.205 83.6884 331.202 74.7094 186.713 66.6541C42.223 58.5988 -26.035 79.956 25.0017 44.1421C75.7567 7.76631 -41.9737 45.6043 33.7304 13.0179C109.435 -19.5685 33.0184 11.634 54.8409 -29.1222C72.6138 -62.0223 63.4199 -46.0828 56.6013 -34.0006" stroke="url(#paint32_linear_495_3)" stroke-width="0.4"/>
</g>
<g opacity="0.5">
<path d="M319.181 -16.3266C328.236 -25.1356 354.26 -37.4682 385.924 -16.3266C429.383 41.4823 420.071 28.2688 396.012 48.0891C376.766 63.9452 345.05 67.9093 331.599 67.9093" stroke="url(#paint33_linear_495_3)" stroke-width="0.4"/>
<path d="M276.497 -24.998C274.945 -22.1076 175.608 -25.8239 306.764 0.190142C437.92 26.2042 502.334 12.5778 451.113 42.721C399.893 72.8643 511.647 48.089 438.696 72.0384C365.746 95.9878 439.472 73.2772 415.414 112.092C396.168 143.143 407.395 127.783 415.414 116.221" stroke="url(#paint34_linear_495_3)" stroke-width="0.4"/>
<path d="M316.595 -17.7252C320.926 -21.8943 326.208 -27.1291 341.661 -27.7818C357.113 -28.4345 373.148 -26.7428 386.817 -15.5407C406.193 13.4038 418.06 23.3938 415.8 30.3602C413.541 37.3266 407.846 38.1924 395.429 49.0349C376.182 65.3812 345.852 68.7219 333.093 68.3489" stroke="url(#paint35_linear_495_3)" stroke-width="0.4"/>
<path d="M314.008 -18.9167C318.143 -22.8506 319.938 -28.0348 339.248 -27.7985C358.557 -27.5623 376.204 -26.3813 387.71 -14.5478C404.734 14.4366 419.93 23.2678 415.314 30.8003C410.698 38.3328 407.65 38.4127 394.845 50.1876C375.598 67.0241 346.653 69.7414 334.587 68.9955" stroke="url(#paint36_linear_495_3)" stroke-width="0.4"/>
<path d="M311.422 -19.8447C315.361 -23.5432 313.668 -28.6768 336.834 -27.5517C360.001 -26.4266 379.26 -25.7561 388.603 -13.2912C403.274 15.7331 421.799 23.4055 414.827 31.504C407.855 39.6026 407.454 38.8967 394.261 51.604C375.015 68.9307 347.455 71.0246 336.081 69.9057" stroke="url(#paint37_linear_495_3)" stroke-width="0.4"/>
<path d="M308.835 -20.623C312.578 -24.0862 307.398 -29.1691 334.421 -27.1551C361.444 -25.1412 382.317 -24.9813 389.497 -11.8851C401.814 17.1793 423.669 23.6928 414.34 32.3575C405.012 41.0221 407.259 39.5303 393.677 53.17C374.431 70.9869 348.256 72.4574 337.575 70.9656" stroke="url(#paint38_linear_495_3)" stroke-width="0.4"/>
<path d="M306.249 -21.2892C309.795 -24.5171 301.128 -29.5494 332.008 -26.6466C362.888 -23.7437 385.373 -24.0944 390.39 -10.3668C400.354 18.7375 425.538 24.0921 413.854 33.3229C402.169 42.5537 407.063 40.276 393.094 54.8481C373.847 73.1551 349.058 74.0023 339.069 72.1375" stroke="url(#paint39_linear_495_3)" stroke-width="0.4"/>
<path d="M303.662 -21.8687C307.013 -24.8613 294.859 -29.843 329.595 -26.0512C364.332 -22.2595 388.429 -23.1208 391.283 -8.76182C398.894 20.3824 427.408 24.5782 413.367 34.3751C399.326 44.172 406.867 41.1084 392.51 56.6129C373.264 75.4102 349.86 75.6339 340.563 73.3962" stroke="url(#paint40_linear_495_3)" stroke-width="0.4"/>
<path d="M301.642 -22.3788C304.796 -25.136 289.154 -30.0671 327.748 -25.3864C366.341 -20.7058 392.051 -22.0777 392.742 -7.08736C397.999 22.0968 429.843 25.1338 413.446 35.4968C397.048 45.8598 407.237 42.0103 392.492 58.4472C373.245 77.7346 351.227 77.335 342.623 74.7243" stroke="url(#paint41_linear_495_3)" stroke-width="0.4"/>
<path d="M300.29 -22.8318C303.248 -25.3537 284.119 -30.2341 326.569 -24.6646C369.019 -19.095 396.342 -20.9776 394.87 -5.35587C397.774 23.8683 432.948 25.7464 414.194 36.6755C395.44 47.6046 408.276 42.9692 393.143 60.3386C373.896 80.1162 353.263 79.0932 345.352 76.1095" stroke="url(#paint42_linear_495_3)" stroke-width="0.4"/>
<path d="M299.038 -23.237C301.801 -25.5236 279.184 -30.3535 325.491 -23.895C371.798 -17.4366 400.734 -19.8298 397.099 -3.57665C397.65 25.6875 436.153 26.4067 415.042 37.9019C393.932 49.3971 409.416 43.9759 393.894 62.2776C374.648 82.5454 355.4 80.899 348.181 77.5424" stroke="url(#paint43_linear_495_3)" stroke-width="0.4"/>
<path d="M297.853 -23.6016C300.419 -25.6529 274.315 -30.4321 324.479 -23.0848C374.643 -15.7375 405.191 -18.6413 399.393 -1.75677C397.591 27.5473 439.423 27.1077 415.957 39.169C392.49 51.2303 410.621 45.0232 394.712 64.2573C375.465 85.0153 357.602 82.7455 351.076 79.0159" stroke="url(#paint44_linear_495_3)" stroke-width="0.4"/>
<path d="M296.713 -23.9308C299.083 -25.7468 269.492 -30.4754 323.512 -22.2392C377.533 -14.003 409.694 -17.4173 401.733 0.098512C397.577 29.4426 442.739 27.8441 416.916 40.4715C391.093 53.0989 411.872 46.1059 395.574 66.2725C376.328 87.5206 359.85 84.6275 354.017 80.5249" stroke="url(#paint45_linear_495_3)" stroke-width="0.4"/>
<path d="M295.606 -24.2289C297.78 -25.8095 264.702 -30.4875 322.579 -21.3624C380.456 -12.2373 414.23 -16.1623 404.106 1.98494C397.597 31.3689 446.089 28.6117 417.909 41.8052C389.73 54.9987 413.156 47.2198 396.47 68.3187C377.224 90.057 362.131 86.5405 356.991 82.065" stroke="url(#paint46_linear_495_3)" stroke-width="0.4"/>
<path d="M294.524 -24.4992C296.502 -25.8445 259.936 -30.4719 321.67 -20.4579C383.404 -10.4439 418.791 -14.8795 406.504 3.89913C397.641 33.3231 449.463 29.407 418.927 43.1666C388.391 56.9262 414.465 48.3614 397.391 70.3928C378.145 92.6212 364.437 88.4814 359.99 83.6329" stroke="url(#paint47_linear_495_3)" stroke-width="0.4"/>
<path d="M293.462 -24.7443C295.243 -25.8543 255.19 -30.431 320.781 -19.5282C386.372 -8.62526 423.371 -13.5714 408.921 5.83853C397.705 35.3025 452.856 30.2275 419.964 44.5532C387.072 58.8789 415.793 49.5283 398.331 72.492C379.085 95.2107 366.763 90.4474 363.007 85.226" stroke="url(#paint48_linear_495_3)" stroke-width="0.4"/>
<path d="M292.414 -24.9661C294 -25.8408 250.459 -30.3669 319.907 -18.5751C389.354 -6.78334 427.966 -12.2401 411.353 7.80121C397.784 37.3051 456.265 31.0713 421.016 45.9631C385.768 60.8549 417.136 50.7184 399.286 74.6145C380.04 97.8233 369.103 92.4367 366.041 86.8423" stroke="url(#paint49_linear_495_3)" stroke-width="0.4"/>
<path d="M291.379 -25.1664C292.768 -25.8058 245.741 -30.2813 319.045 -17.6007C392.35 -4.91998 432.574 -10.8874 413.798 9.78534C397.876 39.3292 459.686 31.9366 422.081 47.3945C384.476 62.8524 418.492 51.9299 400.254 76.7585C381.008 100.457 371.456 94.4475 369.086 88.4801" stroke="url(#paint50_linear_495_3)" stroke-width="0.4"/>
<path d="M290.354 -25.3464C291.547 -25.7504 241.032 -30.1753 318.193 -16.6058C395.354 -3.03621 437.191 -9.51419 416.252 11.7899C397.977 41.3737 463.117 32.8222 423.156 48.8462C383.194 64.8702 419.857 53.1619 401.232 78.9229C381.985 103.112 373.819 96.4787 372.142 90.1383" stroke="url(#paint51_linear_495_3)" stroke-width="0.4"/>
<path d="M289.337 -25.5066C290.334 -25.6753 236.332 -30.0496 317.35 -15.5911C398.368 -1.13267 441.817 -8.12125 418.715 13.8142C398.087 43.438 466.556 33.7276 424.239 50.3178C381.921 66.9079 421.231 54.4137 402.217 81.107C382.971 105.786 376.19 98.5296 375.205 91.8163" stroke="url(#paint52_linear_495_3)" stroke-width="0.4"/>
<path d="M288.327 -25.6475C289.128 -25.5809 231.639 -29.9046 316.513 -14.5573C401.388 0.790085 446.45 -6.70909 421.185 15.8577C398.204 45.5214 470.003 34.6523 425.328 51.8085C380.654 68.9647 422.612 55.6846 403.21 83.3104C383.964 108.48 378.568 100.6 378.276 93.5135" stroke="url(#paint53_linear_495_3)" stroke-width="0.4"/>
<path d="M287.323 -25.7689C287.928 -25.467 226.951 -29.74 315.682 -13.5038C404.414 2.73243 451.088 -5.27735 423.661 17.9208C398.326 47.6245 473.454 35.5965 426.424 53.3188C379.393 71.0411 423.999 56.9752 404.209 85.5333C384.962 111.193 380.952 102.69 381.352 95.2303" stroke="url(#paint54_linear_495_3)" stroke-width="0.4"/>
<path d="M286.323 -25.8695C286.732 -25.3322 222.268 -29.5547 314.856 -12.4296C407.445 4.69556 455.732 -3.82482 426.141 20.0047C398.453 49.7484 476.911 36.5615 427.524 54.8499C378.138 73.1384 425.39 58.2865 405.212 87.7771C385.966 113.927 383.341 104.8 384.434 96.9679" stroke="url(#paint55_linear_495_3)" stroke-width="0.4"/>
<path d="M285.328 -25.8695C285.541 -25.0969 217.59 -29.2688 314.035 -11.2548C410.48 6.75926 460.38 -2.27173 428.626 22.1892C398.585 51.9728 480.373 37.6271 428.629 56.4816C376.886 75.3361 426.786 59.6984 406.22 90.1214C386.974 116.761 385.734 107.011 387.519 98.806" stroke="url(#paint56_linear_495_3)" stroke-width="0.4"/>
<path d="M284.337 -25.7727C284.354 -24.7648 212.915 -28.886 313.217 -9.98314C413.519 8.91977 465.031 -0.621811 431.115 24.4705C398.72 54.294 483.837 38.7895 429.738 58.2101C375.638 77.6307 428.186 61.2071 407.232 92.5625C387.985 119.693 388.13 109.319 390.609 100.741" stroke="url(#paint57_linear_495_3)" stroke-width="0.4"/>
<path d="M283.349 -25.6759C283.17 -24.4327 208.244 -28.5033 312.403 -8.7115C416.561 11.0803 469.687 1.02811 433.607 26.7518C398.859 56.6153 487.306 39.9519 430.85 59.9386C374.394 79.9253 429.589 62.7159 408.247 95.0036C389 122.624 390.531 111.627 393.702 102.676" stroke="url(#paint58_linear_495_3)" stroke-width="0.4"/>
<path d="M282.364 -25.579C281.989 -24.1005 203.575 -28.1204 311.591 -7.43975C419.606 13.2409 474.344 2.67815 436.101 29.0332C399 58.9367 490.777 41.1144 431.964 61.6673C373.152 82.2201 430.994 64.2247 409.264 97.4449C390.018 125.555 392.933 113.935 396.797 104.611" stroke="url(#paint59_linear_495_3)" stroke-width="0.4"/>
<path d="M281.382 -25.4822C280.81 -23.7683 198.909 -27.7377 310.782 -6.16812C422.654 15.4015 479.004 4.32807 438.599 31.3145C399.144 61.2579 494.25 42.2769 433.082 63.3958C371.913 84.5147 432.402 65.7334 410.284 99.886C391.038 128.487 395.339 116.243 399.895 106.546" stroke="url(#paint60_linear_495_3)" stroke-width="0.4"/>
<path d="M280.401 -25.3854C279.633 -23.4362 194.246 -27.355 309.974 -4.89649C425.703 17.562 483.667 5.97799 441.098 33.5958C399.29 63.5792 497.726 43.4393 434.201 65.1243C370.676 86.8093 433.813 67.2422 411.307 102.327C392.06 131.418 397.746 118.551 402.995 108.481" stroke="url(#paint61_linear_495_3)" stroke-width="0.4"/>
<path d="M279.423 -25.2885C278.459 -23.104 189.584 -26.9722 309.169 -3.6248C428.755 19.7226 488.331 7.62796 443.599 35.8771C399.438 65.9005 501.204 44.6017 435.322 66.8528C369.441 89.104 435.225 68.751 412.331 104.768C393.084 134.349 400.156 120.859 406.097 110.416" stroke="url(#paint62_linear_495_3)" stroke-width="0.4"/>
<path d="M278.446 -25.1917C277.286 -22.7718 184.924 -26.5894 308.366 -2.35312C431.809 21.8831 492.997 9.27794 446.102 38.1584C399.588 68.2218 504.683 45.7642 436.445 68.5814C368.207 91.3986 436.639 70.2597 413.357 107.21C394.111 137.281 402.567 123.167 409.202 112.351" stroke="url(#paint63_linear_495_3)" stroke-width="0.4"/>
<path d="M277.471 -25.0948C276.115 -22.4397 180.265 -26.2066 307.564 -1.08149C434.864 24.0437 497.665 10.9279 448.607 40.4397C399.74 70.543 508.164 46.9266 437.57 70.3099C366.976 93.6932 438.055 71.7685 414.385 109.651C395.138 140.212 404.98 125.475 412.307 114.286" stroke="url(#paint64_linear_495_3)" stroke-width="0.4"/>
</g>
</g>
<defs>
<linearGradient id="paint0_linear_495_3" x1="0" y1="0" x2="365.808" y2="222.712" gradientUnits="userSpaceOnUse">
<stop stop-color="#337EFF"/>
<stop offset="0.29" stop-color="#CBDBF7"/>
<stop offset="0.549476" stop-color="#337EFF"/>
<stop offset="0.786697" stop-color="white"/>
<stop offset="0.905" stop-color="#2168E1"/>
</linearGradient>
<linearGradient id="paint1_linear_495_3" x1="123.015" y1="101.368" x2="111.647" y2="6.13438" gradientUnits="userSpaceOnUse">
<stop offset="0.14" stop-color="#F3F7FF"/>
<stop offset="0.3" stop-color="#2871EE"/>
<stop offset="0.41" stop-color="#699BF1"/>
<stop offset="0.705" stop-color="#1565EF"/>
<stop offset="1" stop-color="#FBFCFF"/>
</linearGradient>
<linearGradient id="paint2_linear_495_3" x1="138.093" y1="96.5444" x2="119.674" y2="-57.7592" gradientUnits="userSpaceOnUse">
<stop offset="0.14" stop-color="#F3F7FF"/>
<stop offset="0.3" stop-color="#2871EE"/>
<stop offset="0.41" stop-color="#699BF1"/>
<stop offset="0.705" stop-color="#1565EF"/>
<stop offset="1" stop-color="#FBFCFF"/>
</linearGradient>
<linearGradient id="paint3_linear_495_3" x1="124.56" y1="101.086" x2="113.148" y2="5.48523" gradientUnits="userSpaceOnUse">
<stop offset="0.14" stop-color="#F3F7FF"/>
<stop offset="0.3" stop-color="#2871EE"/>
<stop offset="0.41" stop-color="#699BF1"/>
<stop offset="0.705" stop-color="#1565EF"/>
<stop offset="1" stop-color="#FBFCFF"/>
</linearGradient>
<linearGradient id="paint4_linear_495_3" x1="125.944" y1="100.823" x2="114.456" y2="4.59463" gradientUnits="userSpaceOnUse">
<stop offset="0.14" stop-color="#F3F7FF"/>
<stop offset="0.3" stop-color="#2871EE"/>
<stop offset="0.41" stop-color="#699BF1"/>
<stop offset="0.705" stop-color="#1565EF"/>
<stop offset="1" stop-color="#FBFCFF"/>
</linearGradient>
<linearGradient id="paint5_linear_495_3" x1="127.264" y1="100.568" x2="115.664" y2="3.39445" gradientUnits="userSpaceOnUse">
<stop offset="0.14" stop-color="#F3F7FF"/>
<stop offset="0.3" stop-color="#2871EE"/>
<stop offset="0.41" stop-color="#699BF1"/>
<stop offset="0.705" stop-color="#1565EF"/>
<stop offset="1" stop-color="#FBFCFF"/>
</linearGradient>
<linearGradient id="paint6_linear_495_3" x1="128.55" y1="100.317" x2="116.813" y2="1.997" gradientUnits="userSpaceOnUse">
<stop offset="0.14" stop-color="#F3F7FF"/>
<stop offset="0.3" stop-color="#2871EE"/>
<stop offset="0.41" stop-color="#699BF1"/>
<stop offset="0.705" stop-color="#1565EF"/>
<stop offset="1" stop-color="#FBFCFF"/>
</linearGradient>
<linearGradient id="paint7_linear_495_3" x1="129.815" y1="100.068" x2="117.922" y2="0.44205" gradientUnits="userSpaceOnUse">
<stop offset="0.14" stop-color="#F3F7FF"/>
<stop offset="0.3" stop-color="#2871EE"/>
<stop offset="0.41" stop-color="#699BF1"/>
<stop offset="0.705" stop-color="#1565EF"/>
<stop offset="1" stop-color="#FBFCFF"/>
</linearGradient>
<linearGradient id="paint8_linear_495_3" x1="131.067" y1="99.8213" x2="119.003" y2="-1.24137" gradientUnits="userSpaceOnUse">
<stop offset="0.14" stop-color="#F3F7FF"/>
<stop offset="0.3" stop-color="#2871EE"/>
<stop offset="0.41" stop-color="#699BF1"/>
<stop offset="0.705" stop-color="#1565EF"/>
<stop offset="1" stop-color="#FBFCFF"/>
</linearGradient>
<linearGradient id="paint9_linear_495_3" x1="131.994" y1="99.613" x2="119.746" y2="-2.99432" gradientUnits="userSpaceOnUse">
<stop offset="0.14" stop-color="#F3F7FF"/>
<stop offset="0.3" stop-color="#2871EE"/>
<stop offset="0.41" stop-color="#699BF1"/>
<stop offset="0.705" stop-color="#1565EF"/>
<stop offset="1" stop-color="#FBFCFF"/>
</linearGradient>
<linearGradient id="paint10_linear_495_3" x1="132.543" y1="99.4499" x2="120.099" y2="-4.7932" gradientUnits="userSpaceOnUse">
<stop offset="0.14" stop-color="#F3F7FF"/>
<stop offset="0.3" stop-color="#2871EE"/>
<stop offset="0.41" stop-color="#699BF1"/>
<stop offset="0.705" stop-color="#1565EF"/>
<stop offset="1" stop-color="#FBFCFF"/>
</linearGradient>
<linearGradient id="paint11_linear_495_3" x1="133.031" y1="99.2942" x2="120.383" y2="-6.66264" gradientUnits="userSpaceOnUse">
<stop offset="0.14" stop-color="#F3F7FF"/>
<stop offset="0.3" stop-color="#2871EE"/>
<stop offset="0.41" stop-color="#699BF1"/>
<stop offset="0.705" stop-color="#1565EF"/>
<stop offset="1" stop-color="#FBFCFF"/>
</linearGradient>
<linearGradient id="paint12_linear_495_3" x1="133.478" y1="99.1434" x2="120.617" y2="-8.59448" gradientUnits="userSpaceOnUse">
<stop offset="0.14" stop-color="#F3F7FF"/>
<stop offset="0.3" stop-color="#2871EE"/>
<stop offset="0.41" stop-color="#699BF1"/>
<stop offset="0.705" stop-color="#1565EF"/>
<stop offset="1" stop-color="#FBFCFF"/>
</linearGradient>
<linearGradient id="paint13_linear_495_3" x1="133.896" y1="98.9958" x2="120.816" y2="-10.5818" gradientUnits="userSpaceOnUse">
<stop offset="0.14" stop-color="#F3F7FF"/>
<stop offset="0.3" stop-color="#2871EE"/>
<stop offset="0.41" stop-color="#699BF1"/>
<stop offset="0.705" stop-color="#1565EF"/>
<stop offset="1" stop-color="#FBFCFF"/>
</linearGradient>
<linearGradient id="paint14_linear_495_3" x1="134.293" y1="98.8509" x2="120.987" y2="-12.6182" gradientUnits="userSpaceOnUse">
<stop offset="0.14" stop-color="#F3F7FF"/>
<stop offset="0.3" stop-color="#2871EE"/>
<stop offset="0.41" stop-color="#699BF1"/>
<stop offset="0.705" stop-color="#1565EF"/>
<stop offset="1" stop-color="#FBFCFF"/>
</linearGradient>
<linearGradient id="paint15_linear_495_3" x1="134.674" y1="98.7079" x2="121.137" y2="-14.6988" gradientUnits="userSpaceOnUse">
<stop offset="0.14" stop-color="#F3F7FF"/>
<stop offset="0.3" stop-color="#2871EE"/>
<stop offset="0.41" stop-color="#699BF1"/>
<stop offset="0.705" stop-color="#1565EF"/>
<stop offset="1" stop-color="#FBFCFF"/>
</linearGradient>
<linearGradient id="paint16_linear_495_3" x1="135.043" y1="98.5664" x2="121.269" y2="-16.8193" gradientUnits="userSpaceOnUse">
<stop offset="0.14" stop-color="#F3F7FF"/>
<stop offset="0.3" stop-color="#2871EE"/>
<stop offset="0.41" stop-color="#699BF1"/>
<stop offset="0.705" stop-color="#1565EF"/>
<stop offset="1" stop-color="#FBFCFF"/>
</linearGradient>
<linearGradient id="paint17_linear_495_3" x1="135.402" y1="98.426" x2="121.387" y2="-18.9763" gradientUnits="userSpaceOnUse">
<stop offset="0.14" stop-color="#F3F7FF"/>
<stop offset="0.3" stop-color="#2871EE"/>
<stop offset="0.41" stop-color="#699BF1"/>
<stop offset="0.705" stop-color="#1565EF"/>
<stop offset="1" stop-color="#FBFCFF"/>
</linearGradient>
<linearGradient id="paint18_linear_495_3" x1="135.752" y1="98.2867" x2="121.492" y2="-21.1667" gradientUnits="userSpaceOnUse">
<stop offset="0.14" stop-color="#F3F7FF"/>
<stop offset="0.3" stop-color="#2871EE"/>
<stop offset="0.41" stop-color="#699BF1"/>
<stop offset="0.705" stop-color="#1565EF"/>
<stop offset="1" stop-color="#FBFCFF"/>
</linearGradient>
<linearGradient id="paint19_linear_495_3" x1="136.096" y1="98.1481" x2="121.587" y2="-23.3882" gradientUnits="userSpaceOnUse">
<stop offset="0.14" stop-color="#F3F7FF"/>
<stop offset="0.3" stop-color="#2871EE"/>
<stop offset="0.41" stop-color="#699BF1"/>
<stop offset="0.705" stop-color="#1565EF"/>
<stop offset="1" stop-color="#FBFCFF"/>
</linearGradient>
<linearGradient id="paint20_linear_495_3" x1="136.434" y1="98.0102" x2="121.673" y2="-25.639" gradientUnits="userSpaceOnUse">
<stop offset="0.14" stop-color="#F3F7FF"/>
<stop offset="0.3" stop-color="#2871EE"/>
<stop offset="0.41" stop-color="#699BF1"/>
<stop offset="0.705" stop-color="#1565EF"/>
<stop offset="1" stop-color="#FBFCFF"/>
</linearGradient>
<linearGradient id="paint21_linear_495_3" x1="136.767" y1="97.8729" x2="121.751" y2="-27.9179" gradientUnits="userSpaceOnUse">
<stop offset="0.14" stop-color="#F3F7FF"/>
<stop offset="0.3" stop-color="#2871EE"/>
<stop offset="0.41" stop-color="#699BF1"/>
<stop offset="0.705" stop-color="#1565EF"/>
<stop offset="1" stop-color="#FBFCFF"/>
</linearGradient>
<linearGradient id="paint22_linear_495_3" x1="137.097" y1="97.7361" x2="121.822" y2="-30.2242" gradientUnits="userSpaceOnUse">
<stop offset="0.14" stop-color="#F3F7FF"/>
<stop offset="0.3" stop-color="#2871EE"/>
<stop offset="0.41" stop-color="#699BF1"/>
<stop offset="0.705" stop-color="#1565EF"/>
<stop offset="1" stop-color="#FBFCFF"/>
</linearGradient>
<linearGradient id="paint23_linear_495_3" x1="137.423" y1="97.5996" x2="121.885" y2="-32.5585" gradientUnits="userSpaceOnUse">
<stop offset="0.14" stop-color="#F3F7FF"/>
<stop offset="0.3" stop-color="#2871EE"/>
<stop offset="0.41" stop-color="#699BF1"/>
<stop offset="0.705" stop-color="#1565EF"/>
<stop offset="1" stop-color="#FBFCFF"/>
</linearGradient>
<linearGradient id="paint24_linear_495_3" x1="137.746" y1="97.4635" x2="121.933" y2="-34.9992" gradientUnits="userSpaceOnUse">
<stop offset="0.14" stop-color="#F3F7FF"/>
<stop offset="0.3" stop-color="#2871EE"/>
<stop offset="0.41" stop-color="#699BF1"/>
<stop offset="0.705" stop-color="#1565EF"/>
<stop offset="1" stop-color="#FBFCFF"/>
</linearGradient>
<linearGradient id="paint25_linear_495_3" x1="138.066" y1="97.3277" x2="121.966" y2="-37.5424" gradientUnits="userSpaceOnUse">
<stop offset="0.14" stop-color="#F3F7FF"/>
<stop offset="0.3" stop-color="#2871EE"/>
<stop offset="0.41" stop-color="#699BF1"/>
<stop offset="0.705" stop-color="#1565EF"/>
<stop offset="1" stop-color="#FBFCFF"/>
</linearGradient>
<linearGradient id="paint26_linear_495_3" x1="138.384" y1="97.1922" x2="121.996" y2="-40.091" gradientUnits="userSpaceOnUse">
<stop offset="0.14" stop-color="#F3F7FF"/>
<stop offset="0.3" stop-color="#2871EE"/>
<stop offset="0.41" stop-color="#699BF1"/>
<stop offset="0.705" stop-color="#1565EF"/>
<stop offset="1" stop-color="#FBFCFF"/>
</linearGradient>
<linearGradient id="paint27_linear_495_3" x1="138.701" y1="97.0569" x2="122.024" y2="-42.6448" gradientUnits="userSpaceOnUse">
<stop offset="0.14" stop-color="#F3F7FF"/>
<stop offset="0.3" stop-color="#2871EE"/>
<stop offset="0.41" stop-color="#699BF1"/>
<stop offset="0.705" stop-color="#1565EF"/>
<stop offset="1" stop-color="#FBFCFF"/>
</linearGradient>
<linearGradient id="paint28_linear_495_3" x1="139.015" y1="96.9218" x2="122.049" y2="-45.2033" gradientUnits="userSpaceOnUse">
<stop offset="0.14" stop-color="#F3F7FF"/>
<stop offset="0.3" stop-color="#2871EE"/>
<stop offset="0.41" stop-color="#699BF1"/>
<stop offset="0.705" stop-color="#1565EF"/>
<stop offset="1" stop-color="#FBFCFF"/>
</linearGradient>
<linearGradient id="paint29_linear_495_3" x1="139.328" y1="96.787" x2="122.072" y2="-47.7661" gradientUnits="userSpaceOnUse">
<stop offset="0.14" stop-color="#F3F7FF"/>
<stop offset="0.3" stop-color="#2871EE"/>
<stop offset="0.41" stop-color="#699BF1"/>
<stop offset="0.705" stop-color="#1565EF"/>
<stop offset="1" stop-color="#FBFCFF"/>
</linearGradient>
<linearGradient id="paint30_linear_495_3" x1="139.51" y1="96.6678" x2="121.964" y2="-50.3174" gradientUnits="userSpaceOnUse">
<stop offset="0.14" stop-color="#F3F7FF"/>
<stop offset="0.3" stop-color="#2871EE"/>
<stop offset="0.41" stop-color="#699BF1"/>
<stop offset="0.705" stop-color="#1565EF"/>
<stop offset="1" stop-color="#FBFCFF"/>
</linearGradient>
<linearGradient id="paint31_linear_495_3" x1="139.041" y1="96.6263" x2="121.204" y2="-52.7949" gradientUnits="userSpaceOnUse">
<stop offset="0.14" stop-color="#F3F7FF"/>
<stop offset="0.3" stop-color="#2871EE"/>
<stop offset="0.41" stop-color="#699BF1"/>
<stop offset="0.705" stop-color="#1565EF"/>
<stop offset="1" stop-color="#FBFCFF"/>
</linearGradient>
<linearGradient id="paint32_linear_495_3" x1="138.568" y1="96.5851" x2="120.44" y2="-55.2756" gradientUnits="userSpaceOnUse">
<stop offset="0.14" stop-color="#F3F7FF"/>
<stop offset="0.3" stop-color="#2871EE"/>
<stop offset="0.41" stop-color="#699BF1"/>
<stop offset="0.705" stop-color="#1565EF"/>
<stop offset="1" stop-color="#FBFCFF"/>
</linearGradient>
<linearGradient id="paint33_linear_495_3" x1="367.735" y1="-28" x2="367.735" y2="67.9093" gradientUnits="userSpaceOnUse">
<stop offset="0.14" stop-color="#F3F7FF"/>
<stop offset="0.3" stop-color="#2871EE"/>
<stop offset="0.41" stop-color="#699BF1"/>
<stop offset="0.705" stop-color="#1565EF"/>
<stop offset="1" stop-color="#FBFCFF"/>
</linearGradient>
<linearGradient id="paint34_linear_495_3" x1="353.851" y1="-24.998" x2="353.851" y2="130.401" gradientUnits="userSpaceOnUse">
<stop offset="0.14" stop-color="#F3F7FF"/>
<stop offset="0.3" stop-color="#2871EE"/>
<stop offset="0.41" stop-color="#699BF1"/>
<stop offset="0.705" stop-color="#1565EF"/>
<stop offset="1" stop-color="#FBFCFF"/>
</linearGradient>
<linearGradient id="paint35_linear_495_3" x1="366.335" y1="-27.9031" x2="366.335" y2="68.3759" gradientUnits="userSpaceOnUse">
<stop offset="0.14" stop-color="#F3F7FF"/>
<stop offset="0.3" stop-color="#2871EE"/>
<stop offset="0.41" stop-color="#699BF1"/>
<stop offset="0.705" stop-color="#1565EF"/>
<stop offset="1" stop-color="#FBFCFF"/>
</linearGradient>
<linearGradient id="paint36_linear_495_3" x1="365.08" y1="-27.8063" x2="365.08" y2="69.1052" gradientUnits="userSpaceOnUse">
<stop offset="0.14" stop-color="#F3F7FF"/>
<stop offset="0.3" stop-color="#2871EE"/>
<stop offset="0.41" stop-color="#699BF1"/>
<stop offset="0.705" stop-color="#1565EF"/>
<stop offset="1" stop-color="#FBFCFF"/>
</linearGradient>
<linearGradient id="paint37_linear_495_3" x1="363.882" y1="-27.7095" x2="363.882" y2="70.1538" gradientUnits="userSpaceOnUse">
<stop offset="0.14" stop-color="#F3F7FF"/>
<stop offset="0.3" stop-color="#2871EE"/>
<stop offset="0.41" stop-color="#699BF1"/>
<stop offset="0.705" stop-color="#1565EF"/>
<stop offset="1" stop-color="#FBFCFF"/>
</linearGradient>
<linearGradient id="paint38_linear_495_3" x1="362.715" y1="-27.6127" x2="362.715" y2="71.4052" gradientUnits="userSpaceOnUse">
<stop offset="0.14" stop-color="#F3F7FF"/>
<stop offset="0.3" stop-color="#2871EE"/>
<stop offset="0.41" stop-color="#699BF1"/>
<stop offset="0.705" stop-color="#1565EF"/>
<stop offset="1" stop-color="#FBFCFF"/>
</linearGradient>
<linearGradient id="paint39_linear_495_3" x1="361.566" y1="-27.5157" x2="361.566" y2="72.8177" gradientUnits="userSpaceOnUse">
<stop offset="0.14" stop-color="#F3F7FF"/>
<stop offset="0.3" stop-color="#2871EE"/>
<stop offset="0.41" stop-color="#699BF1"/>
<stop offset="0.705" stop-color="#1565EF"/>
<stop offset="1" stop-color="#FBFCFF"/>
</linearGradient>
<linearGradient id="paint40_linear_495_3" x1="360.43" y1="-27.4189" x2="360.43" y2="74.3612" gradientUnits="userSpaceOnUse">
<stop offset="0.14" stop-color="#F3F7FF"/>
<stop offset="0.3" stop-color="#2871EE"/>
<stop offset="0.41" stop-color="#699BF1"/>
<stop offset="0.705" stop-color="#1565EF"/>
<stop offset="1" stop-color="#FBFCFF"/>
</linearGradient>
<linearGradient id="paint41_linear_495_3" x1="359.585" y1="-27.3221" x2="359.585" y2="76.0136" gradientUnits="userSpaceOnUse">
<stop offset="0.14" stop-color="#F3F7FF"/>
<stop offset="0.3" stop-color="#2871EE"/>
<stop offset="0.41" stop-color="#699BF1"/>
<stop offset="0.705" stop-color="#1565EF"/>
<stop offset="1" stop-color="#FBFCFF"/>
</linearGradient>
<linearGradient id="paint42_linear_495_3" x1="359.081" y1="-27.2253" x2="359.081" y2="77.758" gradientUnits="userSpaceOnUse">
<stop offset="0.14" stop-color="#F3F7FF"/>
<stop offset="0.3" stop-color="#2871EE"/>
<stop offset="0.41" stop-color="#699BF1"/>
<stop offset="0.705" stop-color="#1565EF"/>
<stop offset="1" stop-color="#FBFCFF"/>
</linearGradient>
<linearGradient id="paint43_linear_495_3" x1="358.632" y1="-27.1284" x2="358.632" y2="79.5807" gradientUnits="userSpaceOnUse">
<stop offset="0.14" stop-color="#F3F7FF"/>
<stop offset="0.3" stop-color="#2871EE"/>
<stop offset="0.41" stop-color="#699BF1"/>
<stop offset="0.705" stop-color="#1565EF"/>
<stop offset="1" stop-color="#FBFCFF"/>
</linearGradient>
<linearGradient id="paint44_linear_495_3" x1="358.22" y1="-27.0316" x2="358.22" y2="81.4712" gradientUnits="userSpaceOnUse">
<stop offset="0.14" stop-color="#F3F7FF"/>
<stop offset="0.3" stop-color="#2871EE"/>
<stop offset="0.41" stop-color="#699BF1"/>
<stop offset="0.705" stop-color="#1565EF"/>
<stop offset="1" stop-color="#FBFCFF"/>
</linearGradient>
<linearGradient id="paint45_linear_495_3" x1="357.833" y1="-26.9348" x2="357.833" y2="83.4208" gradientUnits="userSpaceOnUse">
<stop offset="0.14" stop-color="#F3F7FF"/>
<stop offset="0.3" stop-color="#2871EE"/>
<stop offset="0.41" stop-color="#699BF1"/>
<stop offset="0.705" stop-color="#1565EF"/>
<stop offset="1" stop-color="#FBFCFF"/>
</linearGradient>
<linearGradient id="paint46_linear_495_3" x1="357.466" y1="-26.8379" x2="357.466" y2="85.4226" gradientUnits="userSpaceOnUse">
<stop offset="0.14" stop-color="#F3F7FF"/>
<stop offset="0.3" stop-color="#2871EE"/>
<stop offset="0.41" stop-color="#699BF1"/>
<stop offset="0.705" stop-color="#1565EF"/>
<stop offset="1" stop-color="#FBFCFF"/>
</linearGradient>
<linearGradient id="paint47_linear_495_3" x1="357.112" y1="-26.7411" x2="357.112" y2="87.4708" gradientUnits="userSpaceOnUse">
<stop offset="0.14" stop-color="#F3F7FF"/>
<stop offset="0.3" stop-color="#2871EE"/>
<stop offset="0.41" stop-color="#699BF1"/>
<stop offset="0.705" stop-color="#1565EF"/>
<stop offset="1" stop-color="#FBFCFF"/>
</linearGradient>
<linearGradient id="paint48_linear_495_3" x1="356.771" y1="-26.6443" x2="356.771" y2="89.5607" gradientUnits="userSpaceOnUse">
<stop offset="0.14" stop-color="#F3F7FF"/>
<stop offset="0.3" stop-color="#2871EE"/>
<stop offset="0.41" stop-color="#699BF1"/>
<stop offset="0.705" stop-color="#1565EF"/>
<stop offset="1" stop-color="#FBFCFF"/>
</linearGradient>
<linearGradient id="paint49_linear_495_3" x1="356.438" y1="-26.5474" x2="356.438" y2="91.6885" gradientUnits="userSpaceOnUse">
<stop offset="0.14" stop-color="#F3F7FF"/>
<stop offset="0.3" stop-color="#2871EE"/>
<stop offset="0.41" stop-color="#699BF1"/>
<stop offset="0.705" stop-color="#1565EF"/>
<stop offset="1" stop-color="#FBFCFF"/>
</linearGradient>
<linearGradient id="paint50_linear_495_3" x1="356.112" y1="-26.4506" x2="356.112" y2="93.8509" gradientUnits="userSpaceOnUse">
<stop offset="0.14" stop-color="#F3F7FF"/>
<stop offset="0.3" stop-color="#2871EE"/>
<stop offset="0.41" stop-color="#699BF1"/>
<stop offset="0.705" stop-color="#1565EF"/>
<stop offset="1" stop-color="#FBFCFF"/>
</linearGradient>
<linearGradient id="paint51_linear_495_3" x1="355.793" y1="-26.3538" x2="355.793" y2="96.0454" gradientUnits="userSpaceOnUse">
<stop offset="0.14" stop-color="#F3F7FF"/>
<stop offset="0.3" stop-color="#2871EE"/>
<stop offset="0.41" stop-color="#699BF1"/>
<stop offset="0.705" stop-color="#1565EF"/>
<stop offset="1" stop-color="#FBFCFF"/>
</linearGradient>
<linearGradient id="paint52_linear_495_3" x1="355.478" y1="-26.2568" x2="355.478" y2="98.2702" gradientUnits="userSpaceOnUse">
<stop offset="0.14" stop-color="#F3F7FF"/>
<stop offset="0.3" stop-color="#2871EE"/>
<stop offset="0.41" stop-color="#699BF1"/>
<stop offset="0.705" stop-color="#1565EF"/>
<stop offset="1" stop-color="#FBFCFF"/>
</linearGradient>
<linearGradient id="paint53_linear_495_3" x1="355.168" y1="-26.16" x2="355.168" y2="100.524" gradientUnits="userSpaceOnUse">
<stop offset="0.14" stop-color="#F3F7FF"/>
<stop offset="0.3" stop-color="#2871EE"/>
<stop offset="0.41" stop-color="#699BF1"/>
<stop offset="0.705" stop-color="#1565EF"/>
<stop offset="1" stop-color="#FBFCFF"/>
</linearGradient>
<linearGradient id="paint54_linear_495_3" x1="354.861" y1="-26.0632" x2="354.861" y2="102.805" gradientUnits="userSpaceOnUse">
<stop offset="0.14" stop-color="#F3F7FF"/>
<stop offset="0.3" stop-color="#2871EE"/>
<stop offset="0.41" stop-color="#699BF1"/>
<stop offset="0.705" stop-color="#1565EF"/>
<stop offset="1" stop-color="#FBFCFF"/>
</linearGradient>
<linearGradient id="paint55_linear_495_3" x1="354.557" y1="-25.9664" x2="354.557" y2="105.116" gradientUnits="userSpaceOnUse">
<stop offset="0.14" stop-color="#F3F7FF"/>
<stop offset="0.3" stop-color="#2871EE"/>
<stop offset="0.41" stop-color="#699BF1"/>
<stop offset="0.705" stop-color="#1565EF"/>
<stop offset="1" stop-color="#FBFCFF"/>
</linearGradient>
<linearGradient id="paint56_linear_495_3" x1="354.256" y1="-25.8695" x2="354.256" y2="107.534" gradientUnits="userSpaceOnUse">
<stop offset="0.14" stop-color="#F3F7FF"/>
<stop offset="0.3" stop-color="#2871EE"/>
<stop offset="0.41" stop-color="#699BF1"/>
<stop offset="0.705" stop-color="#1565EF"/>
<stop offset="1" stop-color="#FBFCFF"/>
</linearGradient>
<linearGradient id="paint57_linear_495_3" x1="353.958" y1="-25.7727" x2="353.958" y2="110.055" gradientUnits="userSpaceOnUse">
<stop offset="0.14" stop-color="#F3F7FF"/>
<stop offset="0.3" stop-color="#2871EE"/>
<stop offset="0.41" stop-color="#699BF1"/>
<stop offset="0.705" stop-color="#1565EF"/>
<stop offset="1" stop-color="#FBFCFF"/>
</linearGradient>
<linearGradient id="paint58_linear_495_3" x1="353.661" y1="-25.6759" x2="353.661" y2="112.582" gradientUnits="userSpaceOnUse">
<stop offset="0.14" stop-color="#F3F7FF"/>
<stop offset="0.3" stop-color="#2871EE"/>
<stop offset="0.41" stop-color="#699BF1"/>
<stop offset="0.705" stop-color="#1565EF"/>
<stop offset="1" stop-color="#FBFCFF"/>
</linearGradient>
<linearGradient id="paint59_linear_495_3" x1="353.366" y1="-25.579" x2="353.366" y2="115.115" gradientUnits="userSpaceOnUse">
<stop offset="0.14" stop-color="#F3F7FF"/>
<stop offset="0.3" stop-color="#2871EE"/>
<stop offset="0.41" stop-color="#699BF1"/>
<stop offset="0.705" stop-color="#1565EF"/>
<stop offset="1" stop-color="#FBFCFF"/>
</linearGradient>
<linearGradient id="paint60_linear_495_3" x1="353.073" y1="-25.4822" x2="353.073" y2="117.652" gradientUnits="userSpaceOnUse">
<stop offset="0.14" stop-color="#F3F7FF"/>
<stop offset="0.3" stop-color="#2871EE"/>
<stop offset="0.41" stop-color="#699BF1"/>
<stop offset="0.705" stop-color="#1565EF"/>
<stop offset="1" stop-color="#FBFCFF"/>
</linearGradient>
<linearGradient id="paint61_linear_495_3" x1="352.782" y1="-25.3854" x2="352.782" y2="120.194" gradientUnits="userSpaceOnUse">
<stop offset="0.14" stop-color="#F3F7FF"/>
<stop offset="0.3" stop-color="#2871EE"/>
<stop offset="0.41" stop-color="#699BF1"/>
<stop offset="0.705" stop-color="#1565EF"/>
<stop offset="1" stop-color="#FBFCFF"/>
</linearGradient>
<linearGradient id="paint62_linear_495_3" x1="352.608" y1="-25.2885" x2="352.608" y2="122.74" gradientUnits="userSpaceOnUse">
<stop offset="0.14" stop-color="#F3F7FF"/>
<stop offset="0.3" stop-color="#2871EE"/>
<stop offset="0.41" stop-color="#699BF1"/>
<stop offset="0.705" stop-color="#1565EF"/>
<stop offset="1" stop-color="#FBFCFF"/>
</linearGradient>
<linearGradient id="paint63_linear_495_3" x1="353.019" y1="-25.1917" x2="353.019" y2="125.29" gradientUnits="userSpaceOnUse">
<stop offset="0.14" stop-color="#F3F7FF"/>
<stop offset="0.3" stop-color="#2871EE"/>
<stop offset="0.41" stop-color="#699BF1"/>
<stop offset="0.705" stop-color="#1565EF"/>
<stop offset="1" stop-color="#FBFCFF"/>
</linearGradient>
<linearGradient id="paint64_linear_495_3" x1="353.434" y1="-25.0948" x2="353.434" y2="127.844" gradientUnits="userSpaceOnUse">
<stop offset="0.14" stop-color="#F3F7FF"/>
<stop offset="0.3" stop-color="#2871EE"/>
<stop offset="0.41" stop-color="#699BF1"/>
<stop offset="0.705" stop-color="#1565EF"/>
<stop offset="1" stop-color="#FBFCFF"/>
</linearGradient>
<clipPath id="clip0_495_3">
<rect width="460" height="68" fill="white"/>
</clipPath>
</defs>
</svg>
