<svg width="97" height="18" viewBox="0 0 97 18" fill="none" xmlns="http://www.w3.org/2000/svg">
<path fill-rule="evenodd" clip-rule="evenodd" d="M23.1147 6.89272L23.4769 4.30687L24.6821 4.2915L26.7872 5.54492L24.2606 6.87516L23.1147 6.89272Z" fill="#003DA6"/>
<path fill-rule="evenodd" clip-rule="evenodd" d="M0 17.8749L2.33341 0.636597L8.68829 10.6903L9.94829 0.763914L12.5627 0.726597L10.26 18L3.79317 7.82343L2.52659 17.8398L0 17.8749Z" fill="#003DA6"/>
<path fill-rule="evenodd" clip-rule="evenodd" d="M17.2362 17.5939C14.4506 17.6334 12.4508 15.2956 12.7801 12.3848C13.1094 9.47411 15.6469 7.06387 18.4303 7.02655C21.2182 6.98484 23.2179 9.32265 22.8886 12.2334C22.8579 12.5034 22.8052 12.7383 22.7394 13.0017L14.9686 13.1158C15.1179 14.6239 16.1496 15.7368 17.4996 15.717C18.1977 15.7061 18.8694 15.3944 19.4182 14.8917L21.9294 14.8522C20.8801 16.459 19.1152 17.5653 17.2384 17.5917M15.1925 11.3663L20.6738 11.2851C20.4521 9.8846 19.4577 8.87704 18.1691 8.89899C16.8784 8.91655 15.6821 9.95923 15.1925 11.3685" fill="#003DA6"/>
<path fill-rule="evenodd" clip-rule="evenodd" d="M27.9308 17.3744C27.033 16.5951 24.1969 16.0068 24.7676 12.1676L25.5491 6.82684L28.0142 5.56245L26.0144 4.28489L26.4578 0.175621L28.9383 0.136108L28.4949 4.25196L30.5034 4.21684L30.1127 6.79611L28.0647 6.82465L27.2744 11.711C27.1866 13.2827 27.0922 14.0532 29.373 15.1288L27.9308 17.3744Z" fill="#003DA6"/>
<path fill-rule="evenodd" clip-rule="evenodd" d="M45.7024 17.37C42.9541 17.403 41.0246 15.0103 41.4 12.0359C41.7863 9.05052 44.3436 6.59199 47.0919 6.55028C49.2826 6.51516 50.9597 8.03638 51.3504 10.1656L48.9007 10.2008C48.5209 9.2393 47.689 8.59174 46.6639 8.6115C45.1053 8.63125 43.6565 10.1591 43.4458 12.0052C43.2307 13.8491 44.3261 15.333 45.8846 15.311C46.8987 15.2956 47.8624 14.6503 48.477 13.6888L50.8917 13.6559C49.939 15.7808 47.8843 17.3371 45.7024 17.3722" fill="#003DA6"/>
<path fill-rule="evenodd" clip-rule="evenodd" d="M38.6781 7.45028L38.5727 8.17907C37.8835 7.22858 36.8276 6.65126 35.5654 6.67321C33.0103 6.71053 30.5649 9.16248 30.1061 12.1325C29.6452 15.0981 31.3464 17.4886 33.8971 17.4535C35.2054 17.4315 36.4896 16.7752 37.4883 15.7413L37.2622 17.3569L39.2708 17.3261L40.6427 7.41955L38.6803 7.44809L38.6781 7.45028ZM38.1074 11.441L37.9581 12.4486C37.5059 14.073 36.0637 15.3417 34.5666 15.3637C32.9466 15.3878 31.86 13.9237 32.1542 12.1017C32.4527 10.282 34.0113 8.77394 35.6422 8.7498C37.091 8.73004 38.1118 9.90004 38.1074 11.4432" fill="#003DA6"/>
<path d="M62.1857 15.0871L62.2581 15.2078L63.5686 14.0861L63.5028 13.9961C62.5808 12.7515 61.9113 11.8647 61.053 10.9164L60.9784 10.8351L59.7403 11.7966L59.8369 11.8932C60.1047 12.1566 60.3988 12.51 60.7127 12.9447L58.0259 14.3364V10.5278H63.3293L63.3206 10.4005C63.2701 9.63002 63.2459 8.86393 63.2459 8.12636V5.40222C63.2459 4.421 63.2701 3.55612 63.3206 2.83393L63.3293 2.70661H59.4967C60.0169 2.49588 60.4384 2.32905 60.783 2.20173L60.9015 2.15783L60.851 2.04149C60.6996 1.69246 60.3967 1.0471 59.9532 0.12295L59.9071 0.0241699L59.8062 0.061487C59.4089 0.20856 58.9435 0.401731 58.3815 0.65417L58.2608 0.709048L58.3267 0.823194C58.7174 1.49929 58.9896 2.13149 59.1345 2.70661H56.2896L56.2962 2.83393C56.3467 3.68124 56.3708 4.59441 56.3708 5.55149V13.8732C56.3708 14.0598 56.3467 14.3056 56.2984 14.6283C56.2523 14.9269 56.1074 15.2451 55.8725 15.57L55.8198 15.6447L56.8449 16.909L56.9371 16.8388C57.7691 16.211 58.5923 15.6798 59.3825 15.2671C60.1464 14.8676 60.8862 14.479 61.604 14.0993C61.7445 14.2925 61.8235 14.4417 61.9223 14.6217C61.9925 14.7512 62.0715 14.8983 62.1879 15.0893L62.1857 15.0871ZM58.0259 5.87197V4.12246H61.6654V5.87197H58.0259ZM58.0259 9.11197V7.36246H61.6654V9.11197H58.0259Z" fill="#003DA6"/>
<path d="M64.5762 1.72315C64.6267 3.58461 64.6509 5.00485 64.6509 6.0651V8.86388C64.6509 9.67827 64.6267 10.5058 64.5762 11.3224C64.5279 12.117 64.3413 12.9731 64.023 13.8666C63.707 14.7556 63.0243 15.7434 61.9991 16.8058L61.8718 16.9375L62.0431 17.0012C62.4294 17.1439 62.8684 17.4117 63.3535 17.7936L63.4457 17.8661L63.5204 17.7761C63.9704 17.2317 64.4138 16.5819 64.8374 15.8444C65.2633 15.1002 65.5816 14.3605 65.7813 13.6449C65.9723 12.9578 66.0974 12.1829 66.1523 11.34H69.873V14.9027C69.873 15.2956 69.8006 15.5546 69.6623 15.6512C69.5745 15.7127 69.1706 15.8246 67.4518 15.8883L67.2126 15.897L67.364 16.0836C67.7438 16.5534 67.9611 17.0758 68.0094 17.6378L68.0204 17.7563L68.1389 17.7475C69.3594 17.6466 70.2023 17.4731 70.7182 17.2207C71.2604 16.9529 71.5084 16.3449 71.4557 15.4207V5.47461C71.4557 4.05217 71.4799 2.79217 71.5304 1.72534L71.537 1.60022H64.5762V1.72315ZM66.2313 5.87193V3.01827H69.8709V5.87193H66.2313ZM69.8709 7.28778V9.92193H66.2313V7.28778H69.8709Z" fill="#003DA6"/>
<path d="M83.3422 4.1554C83.7308 4.58784 84.2554 5.27711 84.8986 6.20565L84.9732 6.31321L85.0742 6.2276C85.4144 5.94004 85.8359 5.64589 86.3254 5.35613L86.4439 5.28589L86.3583 5.17833C85.6142 4.2476 85.0105 3.5276 84.5627 3.03808C84.1171 2.55077 83.79 2.20174 83.5881 2.00199L83.4981 1.91199L83.4147 2.00857C83.1271 2.34223 82.7847 2.62979 82.3983 2.86906L82.2798 2.9415L82.3698 3.04687C82.6222 3.3454 82.9493 3.71857 83.3422 4.15321V4.1554Z" fill="#003DA6"/>
<path d="M84.6065 10.5564L84.6899 10.6596L84.7843 10.5652C85.1246 10.2293 85.5219 9.88472 85.9675 9.54447L86.0729 9.46325L85.9829 9.36667C85.287 8.6313 84.7075 8.06057 84.2597 7.66545C83.8119 7.27252 83.3399 6.85545 82.8438 6.41423L82.7538 6.33301L82.6748 6.4252C82.3829 6.76106 82.0843 7.08154 81.7858 7.37569L81.6958 7.46569L81.7902 7.5513C82.7736 8.42715 83.7241 9.43691 84.6109 10.5542L84.6065 10.5564Z" fill="#003DA6"/>
<path d="M78.7237 9.09437C79.5578 9.91973 80.2295 10.7297 80.7212 11.5024L80.8003 11.6275L80.9056 11.5244C81.3447 11.0919 81.742 10.7473 82.0844 10.5058L82.1942 10.4268L82.102 10.328C81.6564 9.84071 81.2283 9.3929 80.8288 8.99778C80.4403 8.61364 80.1154 8.269 79.8673 7.97485L79.7664 7.85412L79.6786 7.98583C79.391 8.40949 79.0793 8.7212 78.75 8.90559L78.6293 8.97364V7.36242H79.2549C80.2339 7.36242 80.9078 7.38656 81.2525 7.43485L81.3886 7.45461V5.77973L81.2525 5.79949C80.9144 5.84778 80.2691 5.87193 79.3295 5.87193H78.6293V2.78339C78.9981 2.7329 79.4086 2.64949 79.8454 2.53754C80.3108 2.41681 80.7695 2.3312 81.2086 2.2829L81.4237 2.25876L81.2898 2.08973C80.9473 1.65729 80.651 1.19193 80.4073 0.711197L80.3525 0.60144L80.2449 0.660709C79.8125 0.899977 79.2944 1.09315 78.7083 1.23803C78.12 1.3829 77.2683 1.56729 76.1773 1.789C75.0666 2.0129 74.3137 2.14461 73.8747 2.1929L73.6639 2.21486L73.7912 2.38388C74.0832 2.76803 74.329 3.1829 74.5244 3.61315L74.5639 3.70315L74.6605 3.6812C75.6132 3.45729 76.3903 3.29266 76.9742 3.19168V5.87632H76.4232C75.5254 5.87632 74.6495 5.85217 73.8198 5.80388L73.6925 5.79729V7.45022L73.8176 7.44364C74.6671 7.39534 75.543 7.3712 76.421 7.3712H76.7788C76.3947 8.53022 75.9512 9.58388 75.4573 10.5102C74.9415 11.4783 74.2325 12.4858 73.3456 13.5066L73.2732 13.59L73.3522 13.669C73.7495 14.0641 74.1249 14.4571 74.4651 14.8412L74.5661 14.9553L74.6517 14.8302C75.2971 13.8995 75.802 13.1027 76.151 12.4639C76.4232 11.9634 76.6976 11.4146 76.9698 10.8241V15.131C76.9698 15.761 76.9456 16.5775 76.8951 17.629L76.8886 17.7541H78.7061L78.6995 17.629C78.649 16.6127 78.6249 15.7719 78.6249 15.131V9.01095L78.7193 9.10534L78.7237 9.09437Z" fill="#003DA6"/>
<path d="M90.9813 11.5573L91.1043 11.5419L90.8387 9.96365L90.7113 10.001C90.3799 10.0954 89.6248 10.2534 88.4021 10.4861V2.3817C88.4021 1.55414 88.4262 0.96585 88.4745 0.632191L88.4943 0.496094H86.5801L86.5977 0.629996C86.646 1.02292 86.6723 1.71219 86.6723 2.67585V10.8241C84.0426 11.3049 81.9704 11.6693 80.5062 11.9107L80.3657 11.9327L80.9738 13.6471L81.0835 13.6119C82.0121 13.3222 82.9252 13.0873 83.7945 12.9161C84.6177 12.7537 85.5835 12.5758 86.6723 12.3893V14.7512C86.6723 15.7105 86.6482 16.6763 86.5977 17.6158L86.5911 17.741H88.4833L88.4767 17.6158C88.4284 16.6961 88.4021 15.7302 88.4021 14.7512V12.0468C89.3943 11.8163 90.2635 11.6517 90.9835 11.5551L90.9813 11.5573Z" fill="#003DA6"/>
</svg>
