<svg width="616" height="378" viewBox="0 0 308 189" fill="none" xmlns="http://www.w3.org/2000/svg">
<rect width="308" height="189" fill="white"/>
<rect x="0.5" y="0.5" width="307" height="188" stroke="black" stroke-opacity="0.1"/>
<g clip-path="url(#clip0_937_281)">
<path fill-rule="evenodd" clip-rule="evenodd" d="M244.1 115.367L244.217 115.249C244.476 114.929 244.593 114.718 244.965 114.539L245.092 114.421L245.21 114.304C245.515 113.739 246.216 113.349 246.696 112.893L246.95 112.775C246.95 112.507 247.528 112.338 247.815 112.065L247.942 111.947L248.06 111.83L248.314 111.712C249.415 110.663 252.745 108.57 254.01 108.17L254.259 108.053L254.504 107.935L254.758 107.817C255.327 107.545 255.713 107.262 256.371 107.107L256.738 106.99L257.11 106.872L258.723 106.637H259.217L259.711 106.519L259.838 106.402L259.956 106.284C260.083 106.166 260.21 106.049 260.327 105.927L260.454 105.691V105.339L260.581 105.103C260.774 104.026 260.84 104.497 261.202 103.8V103.565L261.075 103.448L260.948 103.33L260.821 103.217L260.449 103.1H259.711L258.963 103.217H258.469L257.975 103.33C257.674 103.434 257.35 103.579 257.11 103.805L256.865 103.923L256.611 104.04C256.306 104.337 256.014 104.497 255.619 104.868L255.374 104.986C254.989 105.357 254.396 105.564 254.005 105.931L253.888 106.049C253.356 106.303 252.909 106.632 252.401 106.877L252.147 106.994L251.903 107.112L251.649 107.229L251.277 107.347L251.15 107.465L250.906 107.582L250.529 107.7L250.285 107.817L250.031 107.935L249.786 108.053L249.532 108.17L249.288 108.288L249.034 108.405L248.789 108.523L248.54 108.641L248.041 108.758L247.797 108.871L247.67 108.989L247.298 109.106L246.926 109.224L246.56 109.341L246.061 109.459L245.685 109.577L245.068 109.694H243.455L243.201 109.577L242.957 109.459L242.585 109.341H242.209C241.498 109.417 241.005 109.487 240.351 109.699L240.106 109.816L239.852 109.934C238.987 110.216 238.86 111.058 238.86 111.825L238.987 112.06C239.749 112.784 240.435 113.673 241.211 114.421L241.465 114.539L241.592 114.657L241.837 114.774V115.009L241.71 115.244C241.456 115.489 241.094 115.597 240.845 115.837H240.6L240.473 115.72L240.351 115.602C239.941 115.216 239.876 114.981 239.73 114.417L239.612 114.069L239.485 113.951L239.231 113.833L238.86 113.716H238.121L237.867 113.598C237.496 113.419 236.766 113.25 236.508 113.006L236.254 112.888L235.882 112.77L235.638 112.653L235.144 112.535H234.523L234.151 112.653L233.657 112.77C232.905 113.006 232.651 113.429 232.044 113.716L231.917 114.073C231.917 114.657 231.922 114.784 232.166 115.249L232.411 115.842L232.538 116.077L232.665 116.312L232.792 116.43L232.909 116.547L233.036 116.783C233.615 117.883 234.777 119.266 235.765 120.207L235.882 120.324L236.009 120.682V121.275L235.882 121.51L235.765 121.863L235.638 121.98C235.511 122.211 235.332 122.507 235.144 122.69L235.017 122.926L234.89 123.043C234.579 123.641 234.358 123.819 234.024 124.464C233.77 124.699 233.653 125.047 233.403 125.282C232.797 125.865 232.754 126.74 232.166 127.295L232.039 127.413L231.912 127.53C231.578 128.165 231.113 128.339 230.92 129.069L230.802 129.421C230.802 130.259 230.882 130.767 231.047 131.543L231.174 131.66C232.105 131.66 231.687 130.95 232.411 130.95L232.538 130.832L233.403 130.72L233.53 130.602V129.417C234.048 128.843 234.137 129.196 234.645 128.706C234.81 128.081 235.313 127.733 235.511 127.168C235.647 126.792 235.868 126.505 236.009 126.105C236.089 125.705 236.089 125.55 236.376 125.277L236.503 124.929L236.63 124.812L236.748 124.694L236.875 124.577L237.002 124.459L237.129 124.341L237.246 124.224L237.373 123.989L237.5 123.871L237.627 123.753L237.745 123.636L237.872 123.518L237.999 123.401L238.126 123.283L238.243 123.165L238.37 122.93L238.497 122.695L238.624 122.46L238.742 122.342L238.869 122.225C239.217 121.576 239.358 121.764 239.862 121.279C240.313 121.063 240.572 120.644 240.976 120.451L241.103 120.334L241.221 120.216C241.607 119.854 241.752 119.553 242.34 119.276L242.467 119.158L242.712 119.04L242.966 118.923C243.7 118.688 243.911 118.405 244.579 118.095L244.824 117.977L244.951 117.86L245.195 117.742C245.675 117.512 246.089 117.253 246.564 117.032L246.809 116.914L247.058 116.797C247.496 116.59 247.933 116.552 248.295 116.204L248.54 116.086C248.968 115.889 249.316 115.724 249.782 115.611L250.026 115.494C250.567 115.235 251.193 114.967 251.766 114.784L252.011 114.666C252.919 114.294 253.417 114.412 254.612 113.843C255.205 113.65 255.722 113.485 256.353 113.368L256.597 113.25C257.942 113.067 259.231 112.634 260.562 112.422H260.934L261.682 112.305H262.674L263.046 112.422L263.667 112.54L263.911 112.657L264.038 112.775L264.165 112.893L264.283 113.128L264.41 113.72V113.956L264.283 114.539L264.165 114.774L264.038 115.009L263.911 115.244L263.784 115.48L263.667 115.597L263.54 115.715L263.413 115.95L263.286 116.068L263.168 116.185L263.041 116.42L262.914 116.538L262.787 116.656L262.67 116.773L262.543 116.891L262.416 117.008L262.289 117.126L262.171 117.244L262.044 117.361L261.917 117.479L261.79 117.596L261.545 117.714L261.418 117.831L261.174 117.949L261.047 118.067L260.798 118.184C260.228 118.457 259.763 118.857 259.194 119.13L258.94 119.247L258.822 119.365C258.333 119.595 257.543 119.986 257.209 120.306L256.955 120.423L256.837 120.541L256.461 120.658L256.216 120.776L255.962 120.894L255.718 121.011L255.591 121.129L255.346 121.246C254.819 121.5 254.391 121.933 253.86 122.192L253.606 122.309H252.74L252.486 122.192L252.115 122.074L251.743 121.957L251.489 121.839L249.758 121.721H249.504L248.639 121.839L248.267 121.957L248.013 122.074L247.641 122.192L247.025 122.309L246.404 122.427L245.783 122.545H245.045L244.669 122.427H243.559L243.432 122.545L243.305 122.662C242.571 123.368 242.684 124.468 242.684 125.376L242.938 126.086L243.065 126.322L243.182 126.439C243.465 126.971 244.128 127.483 244.669 127.742H244.796L245.544 127.625C246.005 127.403 246.541 127.149 247.03 127.032C247.613 126.467 247.298 126.914 248.14 126.914H248.634V127.272L248.507 127.625L248.389 127.742L248.262 127.977L248.135 128.212L248.008 128.448L247.891 128.565L247.764 128.683L247.637 128.8L247.519 128.918L247.392 129.036L247.265 129.153L247.138 129.271C246.945 129.638 246.588 129.84 246.4 130.216L246.273 130.334L246.146 130.451L246.028 130.687L245.779 130.8L245.534 130.917L245.158 131.035H244.542L243.794 130.917L243.422 130.8L242.801 130.687H242.557L242.303 130.8L242.176 130.917L241.931 131.035L241.804 131.27L241.677 131.505L241.433 131.623L241.179 131.74L241.061 131.858L240.934 131.975L240.807 132.093C240.703 132.582 240.539 133.024 240.435 133.514L240.186 135.052L240.068 135.409L239.941 137.178V138.123C240.083 138.664 240.252 139.144 240.435 139.661C241.955 140.141 243.639 139.595 245.139 139.304L246.381 139.069L248.822 139.106L249.095 138.89L249.598 138.833L249.471 140.136L249.354 140.494L249.227 140.729L249.1 140.964L248.973 141.199L248.855 141.435L248.728 141.552L248.601 141.783C248.385 141.886 248.276 141.985 248.107 142.14L247.862 142.258L247.369 142.375H246.621L245.882 142.14L245.017 142.022C244.471 142.022 244.269 142.465 244.269 142.968C244.814 143.236 244.847 143.537 245.388 143.796L245.76 143.913L246.381 144.031H247.74L248.733 143.913L249.104 143.796L249.476 143.678L249.852 143.561L250.097 143.443C250.097 143.147 250.341 143.212 250.591 142.968C250.953 142.629 251.804 141.75 251.95 141.317L252.077 141.082C252.077 140.165 252.331 139.313 252.331 138.358V138.006H252.576L253.196 137.888L253.323 137.832L254.433 137.77L254.56 137.888H255.054L255.675 137.77L255.802 137.653V137.418L255.181 137.182L255.553 137.065L255.68 136.947V136.712H255.059L254.565 136.83L253.751 136.91L252.34 136.83L252.213 136.712L251.842 136.594L252.086 136.477V136.242H252.458V136.477H255.059V136.242L254.932 136.011L254.814 135.658H255.431L255.558 135.541L255.685 135.423L255.812 134.831L255.929 134.003L256.183 133.885L256.428 133.768L256.677 133.65V133.415C256.677 132.874 256.687 132.841 256.31 132.469L256.183 132.352C255.769 131.961 255.355 131.566 254.941 131.166C254.697 131.049 254.448 130.931 254.203 130.809L253.954 130.696L253.709 130.578L253.215 130.461C252.58 130.306 252.011 130.343 251.357 130.343L251.23 130.226H250.863L251.357 130.108L251.602 129.99C251.861 129.746 252.284 129.398 252.467 129.045L252.594 128.81L252.721 128.335C252.721 128.076 253.239 128.053 253.46 127.625L253.587 127.272L253.714 127.037L253.841 126.679L253.958 126.086V124.2L253.841 123.847L253.714 123.612V123.26L253.841 123.024L254.085 122.907L254.335 122.789L254.579 122.672L254.951 122.554L255.205 122.436L255.449 122.319C255.774 122.008 256.273 121.806 256.691 121.609L256.936 121.491L257.312 121.373L257.43 121.256L257.679 121.138L259.165 120.428C259.678 120.263 260.144 120.089 260.525 119.722C260.925 119.628 261.621 119.266 262.011 118.895C262.279 118.763 262.67 118.504 262.877 118.302L263.004 118.184C263.493 117.719 264.001 117.168 264.617 116.881L264.735 116.764L264.857 116.646C264.97 116.43 265.05 116.223 265.228 116.054L265.355 115.936L265.482 115.818L265.609 115.583C266.395 114.087 266.846 114.986 266.846 112.752L266.719 112.159L266.602 111.924L266.475 111.566L266.348 111.449L266.221 111.331L266.103 111.213L265.849 111.096L265.605 110.978L265.351 110.861L265.224 110.743L264.979 110.625L264.73 110.508L264.358 110.39C261.997 109.539 262.242 110.456 260.092 110.583C258.512 110.837 257.096 110.87 255.567 111.101C255.036 111.101 254.608 111.242 254.081 111.336C253.634 111.477 253.135 111.609 252.721 111.811L252.1 111.928L251.729 112.046C250.412 112.676 251.263 112.149 249.989 112.756C249.419 112.935 248.798 113.09 248.258 113.349L248.004 113.466C247.703 113.608 247.444 113.791 247.138 113.942C246.748 114.059 245.939 114.379 245.652 114.647L245.407 114.765C244.504 115.052 244.824 115.362 243.897 115.616L244.043 115.357L244.1 115.367ZM248.93 138.33L248.968 138.085L247.726 138.034H246.437L247.072 137.592L247.566 137.474L247.684 137.413L248.624 137.441L249.17 137.469L249.297 137.944L249.142 138.579L249.015 138.603L246.691 138.655C245.802 138.749 247.129 138.537 247.27 138.499C247.646 138.419 248.483 138.368 248.925 138.33" fill="#595857"/>
<path fill-rule="evenodd" clip-rule="evenodd" d="M215.214 141C215.797 141.339 216.093 142.153 216.569 142.656L216.733 142.745L217.467 142.858H218.643C219.649 142.934 220.468 142.459 221.432 142.755C222.081 142.868 222.429 142.835 223.074 143.009C224.377 143.009 223.695 142.402 224.795 141.819C225.985 141.184 226.78 140.347 228.154 140.154C228.441 140.008 228.709 140.013 228.996 140.022V139.895L228.93 139.82L228.817 139.585C227.321 138.023 225.407 137.863 223.69 136.946C223.403 136.842 223.125 136.711 222.853 136.551C221.253 135.676 219.508 134.702 218.088 133.489C217.777 133.221 217.472 132.957 217.189 132.651C216.649 132.082 216.061 131.706 215.52 131.113C215.04 130.586 214.574 130.097 214.085 129.585L213.417 128.874C212.434 127.83 211.507 126.729 210.534 125.685L210.379 125.521L210.181 124.683H210.454C211.258 124.683 212.744 123.945 213.45 123.47C213.836 123.216 214.17 122.872 214.471 122.501C214.584 122.369 214.687 122.233 214.795 122.092C214.838 122.035 214.899 121.965 214.96 121.913L215.129 121.555C215.12 121.189 215.092 120.808 215.063 120.445C215.012 119.862 214.946 119.274 214.866 118.691C214.776 118.075 214.88 118.352 214.701 117.75C214.621 117.477 213.822 115.403 213.803 115.389C212.933 114.458 211.903 114.655 211.903 113.286C211.042 113.522 210.303 114.613 209.72 115.248L209.475 115.638L208.906 115.935L208.695 112.473C208.695 111.461 208.356 110.624 207.937 109.749C207.806 109.462 207.406 108.809 207.147 108.667L206.893 108.536L206.761 108.395C206.324 107.929 205.459 107.797 204.913 108.07L204.856 108.126L204.659 108.55L204.565 108.87C204.475 109.735 204.424 110.497 204.565 111.372V111.381C204.659 112.299 204.772 112.44 204.861 113.348C204.955 114.293 205.233 116.151 205.233 117.096V117.12L205.106 117.929L204.913 118.126L204.696 118.244C203.831 119.161 201.931 119.636 200.835 119.11C199.946 119.157 198.681 119.951 198.238 120.817V121.918C198.285 122.186 198.342 122.289 198.455 122.524C198.535 122.708 198.568 122.872 198.572 123.075C198.676 123.413 198.808 123.738 198.892 124.095C199.334 125.05 200.03 126.706 200.614 127.336L200.642 127.36L200.736 127.567C201.061 127.76 201.319 128.042 201.639 128.216L203.135 128.362L202.89 128.893L202.777 129.345L202.665 129.702C202.547 130.21 202.293 130.685 202.058 131.127C201.813 131.579 201.564 132.031 201.442 132.548C201.22 133.023 200.952 133.305 200.642 133.71C200.101 134.411 199.659 135.173 199.062 135.817L198.84 136.052C198.173 136.762 196.554 137.628 195.661 137.882C195.12 138.164 194.682 138.428 194.094 138.592C193.615 138.761 193.149 138.983 192.697 139.222V139.302C193.102 139.312 193.488 139.345 193.892 139.368C194.316 139.396 194.701 139.368 195.12 139.312L195.129 139.302H196.239C197.829 138.968 199.443 138.776 201.037 138.489L201.235 138.282L201.263 138.268C201.625 138.075 201.87 137.825 202.053 137.426L202.067 137.388L202.208 137.247L202.321 137.129C202.919 136.494 205.035 133.573 205.256 132.633C205.501 131.866 205.745 131.146 206.277 130.563C206.484 129.914 206.757 129.307 207.044 128.7L207.213 128.338H207.754L208.121 128.729C208.445 128.921 208.911 129.514 209.137 129.81C210.289 131.363 209.537 130.972 210.844 132.012C211.305 132.379 211.606 132.967 211.879 133.512C212.1 133.973 212.354 134.528 212.693 134.89L212.721 134.914L212.735 134.951C212.975 135.469 213.238 135.963 213.408 136.518C213.643 137.256 213.845 138.028 214.174 138.719C214.537 139.495 214.847 140.22 215.195 140.991" fill="#595857"/>
<path fill-rule="evenodd" clip-rule="evenodd" d="M157.053 132.088C157.058 132.643 157.218 133.183 157.317 133.724L157.448 134.082L157.702 134.886C158.229 135.38 158.478 136.072 158.996 136.551L159.358 136.768C159.748 136.866 160.059 137.026 160.402 137.243C160.722 137.45 160.995 137.628 161.362 137.737L161.404 137.751L161.522 137.864L162.933 137.977C167.227 135.818 167.698 134.552 171.87 134.176C173.69 134.011 176.381 133.739 178.883 134.101C180.082 134.256 181.244 134.557 182.237 134.994C182.754 135.23 183.229 135.587 183.634 135.785H183.648C184.424 136.02 185.096 136.067 185.844 136.406L186.075 136.509H186.658L187.058 136.326C187.086 136.109 187.147 135.888 187.204 135.681C187.302 135.319 187.448 134.882 187.448 134.515V133.776L187.759 133.635L188.121 132.652L187.989 130.954L187.914 130.879L187.448 130.455V130.366C187.448 130.084 187.477 129.886 187.354 129.632L187.133 129.435L186.912 129.341C185.929 129.12 184.612 129.002 183.855 128.32L183.765 128.245C182.1 128 180.407 128.287 178.742 128.376L177.279 128.494L176.874 128.612L175.017 128.757L175.299 128.099C175.793 126.744 176.536 124.341 177.039 122.986L177.166 122.285L177.284 121.467V121.029H177.862L178.159 120.935L178.271 120.738L178.366 120.658C178.535 119.148 178.624 119.43 178.455 118.179C178.558 117.304 177.966 117.045 177.966 116.523C177.966 114.557 176.277 114.867 175.111 113.823L174.88 113.72C174.052 113.475 173.224 113.343 172.373 113.245H171.752L171.517 113.358L171.094 113.485C170.684 113.612 170.308 113.795 169.941 114.002C169.245 114.388 168.624 114.769 167.843 114.947L167.82 114.957H167.796C166.851 114.957 166.141 114.684 165.303 115.07H165.289C164.593 115.286 163.765 115.611 163.431 116.297C163.159 116.852 163.215 117.628 163.267 118.235C163.808 119.214 164.287 118.818 164.466 119.957L164.584 120.38L164.701 120.484L164.847 120.756C165.158 121.311 165.355 121.909 165.661 122.464L165.793 122.708C166.065 123.202 167.081 122.657 167.514 123.056L167.726 123.151L168.779 123.268L169.631 123.423V123.988L169.32 126.801L169.033 127.327L168.892 127.454L168.624 127.944L168.493 128.061L168.351 128.306L168.22 128.433C167.961 128.889 167.636 129.199 167.251 129.548L167.081 129.703L167.034 129.717C166.437 129.896 165.896 130.192 165.266 130.333C164.273 130.554 163.262 130.582 162.246 130.582C161.489 130.582 160.891 130.545 160.158 130.324L160.111 130.314L159.969 130.183L159.725 130.07C159.466 129.952 159.217 129.839 158.958 129.722H158.624C157.213 130.159 157.279 130.832 157.044 132.102" fill="#595857"/>
<path fill-rule="evenodd" clip-rule="evenodd" d="M108.154 142.789L108.361 143.612C108.436 143.88 108.488 144.12 108.436 144.397C108.398 144.618 108.309 144.835 108.257 145.056L108.234 145.159L107.857 145.587H107.726C107.312 145.587 107.044 145.649 106.653 145.757C106.174 145.898 105.797 145.898 105.299 145.832L105.186 145.818L105.106 145.719C104.988 145.587 104.697 145.489 104.537 145.446C104.16 145.319 103.525 145.211 103.398 144.698L103.286 144.313L103.191 143.786L103.06 143.631V142.182C103.135 141.636 103.267 141.114 103.384 140.583V140.385C103.384 139.943 103.398 139.496 103.413 139.059C103.45 137.963 103.492 136.89 103.492 135.804V135.766L103.587 135.188L103.492 134.745L103.38 133.094V132.459C103.38 131.688 103.521 130.808 103.389 130.061L103.38 130.023V129.341L103.492 128.348C103.492 127.892 103.521 127.182 103.398 126.759V126.73C103.22 125.945 103.492 125.192 103.492 124.416C103.492 123.95 103.544 123.537 103.605 123.085C103.671 122.568 103.681 122.154 103.605 121.627V121.566C103.605 119.717 103.93 117.869 103.817 116.025V115.964L103.93 115.432L104.033 114.473L104.146 113.353L104.259 112.356L104.372 111.608L104.476 110.649L104.588 107.793L104.73 107.638C104.899 106.9 104.937 106.034 105.44 105.465L105.586 105.296L105.92 105.112H105.995C106.508 105.112 106.898 105.23 107.378 105.371H107.392L107.401 105.38C108.187 105.677 108.502 106.359 108.695 107.215L108.822 107.502V108.913L108.568 109.491C108.441 109.774 108.333 109.966 108.262 110.277V110.319L108.144 110.564L108.05 111.039L107.933 111.425C107.763 112.003 107.698 112.61 107.622 113.217C107.481 114.369 107.439 115.54 107.194 116.669V117.497C107.128 120.3 107.081 123.104 107.081 125.907C107.081 127.008 107.237 128.113 107.302 129.214C107.401 130.38 107.42 131.721 107.716 132.845L107.73 132.902V132.953C107.73 133.574 107.768 134.172 107.806 134.788C107.829 135.164 107.843 135.54 107.843 135.921C107.843 136.255 107.999 136.636 108.05 136.966L108.06 137.003V138.156C108.06 138.927 108.06 139.694 108.074 140.465C108.083 141.241 108.111 142.017 108.163 142.789M88.7653 129.966C88.2244 131.204 87.4247 133.405 86.1689 133.8L86.0889 133.889L85.6515 134.143L85.5245 134.284L85.1247 134.44C84.3721 134.727 83.7277 135.206 82.9375 135.437H82.8998L81.7474 135.442L81.5405 135.211L81.437 135.084L81.2912 134.915L80.929 134.096V134.073C80.8725 133.894 80.8114 133.725 80.7314 133.565C80.6656 133.438 80.5903 133.311 80.5245 133.179C80.3128 132.751 80.2611 132.342 80.2611 131.848V131.693L80.6138 131.293L80.8302 131.166L80.9431 131.048L80.9901 131.02C81.2347 130.879 81.5828 130.569 81.7756 130.347L81.992 130.103C82.0861 129.999 82.166 129.868 82.2648 129.769C82.3918 129.642 82.5376 129.585 82.7023 129.534L82.7822 129.233L82.8857 129.012L83.0033 128.33L83.1162 128.198L83.2197 127.751L83.6477 126.9C83.6195 126.904 83.596 126.914 83.5819 126.923C83.4172 126.989 83.262 127.064 83.1021 127.13L82.9045 127.22L82.4671 126.716L82.246 126.589L82.0296 126.345L81.7615 126.189L81.3852 125.338C81.0842 124.637 80.7502 124.073 80.6091 123.287L80.5292 123.019L80.3128 122.77L80.1623 122.257V121.363L80.3269 120.987L80.5104 120.771L81.4511 120.239L81.8415 120.089H83.2855C83.4313 119.943 83.5536 119.858 83.7371 119.778V117.539L83.6336 117.064L83.5207 115.691L83.4172 115.122L83.2996 114.717V114.223L83.4172 113.814L83.5348 113.17L83.7935 112.572L83.977 112.365L84.3109 112.173H84.6308L84.6543 112.182C85.2469 112.276 85.6327 112.403 86.1642 112.709L86.2159 112.737L86.3946 112.944L86.5075 113.198L86.7427 113.466L86.8838 113.955L87.0014 115.004V115.028C87.0014 115.418 87.0955 115.888 87.166 116.269C87.2319 116.617 87.2978 116.966 87.3213 117.318L87.42 117.77L87.4953 118.014L87.5235 117.977L87.6364 117.859L87.8152 117.652L88.0315 117.158L88.215 116.951L88.3326 116.265L88.77 116.02H89.5696L90.2517 117.224L90.4821 117.742C90.548 117.887 90.8678 118.25 90.9854 118.386C91.183 118.621 91.3899 118.847 91.5922 119.073L91.6157 119.101L92.2366 120.216L92.9422 119.792L93.5866 119.393L93.6242 118.828L93.7371 116.712L93.9581 115.192L94.0757 114.637L94.5508 113.555L95.1717 112.855L95.5057 112.662H96.3711L96.7803 113.127V113.965L96.6486 114.421L96.3946 114.99L96.2912 115.117L96.2159 115.286C95.9478 116.204 95.8678 117.041 95.802 118V118.969L95.9149 122.784L96.0089 124.143C96.3711 123.551 96.7051 122.93 97.0061 122.3L97.6223 121.02V122.483C97.6223 123.461 96.7145 125.277 96.3147 126.189L96.1171 126.646L95.8067 128.052L95.7032 131.335L95.8161 133.4L95.7785 133.49C95.0917 135.065 92.9469 133.814 92.3965 132.681L92.2836 132.549L92.1143 132.173V129.948L92.3213 129.717L92.5 129.51L92.674 129.12L92.7775 128.499L92.8904 128.24L93.0033 127.746L93.0174 127.709C93.0974 127.539 93.1585 127.295 93.2103 127.111C93.2902 126.787 93.3655 126.467 93.4313 126.142C93.4831 125.86 93.5348 125.578 93.5771 125.291C93.6007 125.093 93.6289 124.868 93.6289 124.67L93.5866 122.431C93.4972 122.549 93.4078 122.652 93.3184 122.746C92.8904 123.226 92.4153 123.673 91.9591 124.115C91.3805 124.665 90.2799 125.691 90.0353 126.514L89.9318 126.876L89.8283 127.37L89.8189 127.384C89.5978 128.151 89.3015 129.346 88.8076 129.957M100.543 132.347C99.9883 132.375 99.325 132.375 98.8923 131.923C98.6289 131.65 98.4878 131.241 98.3373 130.879L98.3137 130.832L98.2479 130.258V128.852L98.3749 127.713L98.6618 127.389H98.7512L98.8029 127.285L98.897 126.227L99.0099 125.489L99.1228 124.129L99.2263 123.273L99.3391 120.808L99.4426 119.449L99.5555 117.347L99.6684 115.456L99.786 114.915L99.8895 114.553L100.007 113.908L100.153 113.56L100.51 113.16H101.747L101.945 113.847V123.922C102.048 123.781 102.152 123.626 102.265 123.447L103.224 121.886L102.669 124.665L102.481 126.321L102.378 127.318L102.265 128.17C102.222 128.866 102.053 129.684 102.251 130.357L102.274 130.437L102.133 131.716L101.978 131.806C101.522 132.064 101.07 132.337 100.543 132.337M89.7107 123.871C89.2215 124.092 88.7418 124.36 88.4454 124.689L88.4078 124.731L88.3655 124.76C88.0927 124.915 87.707 125.15 87.6082 125.512C87.5517 125.71 87.5517 125.987 87.5329 126.199C87.5047 126.533 87.4436 126.843 87.3542 127.154L87.5659 126.919C87.7869 126.425 88.0927 126.001 88.4031 125.578C88.6759 125.202 88.9723 124.807 89.1651 124.374L89.2027 124.294L89.706 123.866L89.7107 123.871ZM87.1802 127.568L87.1378 127.61L87.0955 127.713L87.1378 127.662L87.1802 127.568Z" fill="#595857"/>
<path fill-rule="evenodd" clip-rule="evenodd" d="M65.3975 130.667L66.0278 130.784L67.0767 131.02L67.7211 131.137L68.0315 131.255L68.977 131.372L69.3156 131.499L69.7296 131.73L70.2564 131.847L70.501 131.979L70.5151 131.993C70.6844 132.191 70.7597 132.228 70.9949 132.318L71.3335 132.445L71.357 132.468C71.5499 132.689 71.691 132.962 71.8838 133.179L71.898 133.193L72.119 133.696L72.2366 134.082V134.105C72.2366 134.514 72.1896 134.863 72.0908 135.244C71.992 135.582 71.8933 135.907 71.8086 136.255V136.264L71.691 136.655L71.5499 136.81L71.0983 137.059L70.6515 137.186H69.6778L68.9205 137.069L68.5678 136.937L68.3514 136.692L68.1538 136.579C67.8152 136.387 67.1425 135.869 66.9591 135.479L66.8791 135.399L66.6722 135.281L66.0372 134.571L65.4304 134.232L65.0965 134.105L64.993 133.988L64.6966 133.875L64.2733 133.64L63.9535 133.522L63.7183 133.395L63.6148 133.277L63.4266 133.174L62.9845 133.047L62.66 132.685L62.453 132.567L61.7945 131.829L61.6628 131.542V131.255L61.7898 130.85L61.9309 130.695L62.1378 130.577L62.2554 130.45L62.7211 130.319H63.7982L65.087 130.554L65.3975 130.672V130.667ZM61.39 124.039L61.9826 123.945L62.6176 123.828L63.3514 123.71L64.3956 123.48L64.7108 123.353L65.3457 123.235L65.8773 123.117L66.5076 123.005L67.5424 122.769L67.9798 122.525H68.4361L68.9911 122.652L69.2122 122.779L69.5085 122.892L70.0494 123.009L70.294 123.141L70.5386 123.428V123.466C70.6327 123.945 70.7362 124.463 70.7832 124.952C70.8067 125.262 70.8067 125.62 70.6374 125.879C70.3175 126.358 69.4332 126.344 68.9582 126.344H68.9488L67.9892 126.227L67.5659 126.109H64.6449L64.024 126.227L63.2902 126.344L62.9845 126.457L62.5565 126.584L62.0626 126.697L61.9591 126.81L61.6722 126.923L61.5969 127.078V128.164L61.6957 128.268L61.8133 128.795V129.881L61.7004 130.615L61.5828 131.01L61.4793 131.128L61.3806 131.448L61.2771 131.904L61.1736 132.722L61.0701 133.428V136.476L61.1736 139.444V141.927L61.0607 143.4L60.8302 143.658L60.7267 143.889L60.5057 144.143L60.3646 144.307H59.866L59.5038 144.176L59.4803 144.148C59.2216 143.861 58.6901 143.541 58.3561 143.348L57.8998 143.094L57.7822 142.835L57.6788 142.718L57.5753 142.482L57.3918 142.275L56.9685 142.045L56.8744 141.932L56.5922 141.819L56.1407 141.692L55.8679 141.387V140.921L56.0466 140.723H56.4323L56.8603 140.841L57.3777 140.958H57.7728L58.1444 140.855L58.1868 140.803V133.08H58.0174L57.4107 133.31L57.2272 133.414L57.1237 133.531L57.1096 133.541C56.7192 133.757 56.183 133.997 55.8726 134.34L55.755 134.472L55.5339 134.599L55.2376 134.82C54.913 135.168 54.4991 135.295 54.1886 135.634L54.0616 135.78L54.024 135.789C53.6336 135.902 53.2855 136.142 52.8763 136.264C52.5894 136.429 52.0014 136.758 51.898 137.116L51.8744 137.181L51.5123 137.323L51.2818 137.45H50.8161L50.802 137.44C50.6468 137.402 50.5057 137.384 50.3552 137.45C50.2658 137.492 50.1764 137.553 50.0965 137.605C49.9695 137.68 49.8425 137.746 49.7108 137.798H49.6966L49.0475 137.925H48.4925V137.398L48.6336 137.087L48.8641 136.96L49.0711 136.725L49.3015 136.598L49.9177 136.25C50.214 135.926 50.5527 135.657 50.849 135.323L50.9666 135.192L51.1877 135.065L51.4934 134.844C51.7898 134.51 52.1378 134.237 52.4342 133.912L52.5518 133.771L52.7681 133.658C53.0409 133.348 53.3138 133.037 53.596 132.727L53.6854 132.624L53.7982 132.37L54.0287 132.238L54.2263 132.017C54.612 131.593 54.9883 131.165 55.374 130.737C55.4633 130.545 55.6703 130.286 55.8114 130.131L55.9008 130.037L56.0043 129.801L56.2206 129.566L56.4276 129.091L56.5311 128.978L56.6251 128.644L56.7427 128.376L56.8744 128.23L57.0579 128.127L57.0861 128.009H56.3288L55.4916 128.244L54.9647 128.362L54.5508 128.475L54.2404 128.593C53.7841 128.762 53.3514 128.955 52.8716 129.068L52.6552 129.185L52.6411 129.195C52.2554 129.26 51.9685 129.402 51.6157 129.533L51.4088 129.651L51.0842 129.778C50.802 129.881 50.6186 130.093 50.3599 130.234L50.3363 130.248H50.1153V130.38L49.9836 130.667L49.8895 130.78L49.786 131.128L49.7625 131.151C49.5932 131.344 49.5555 131.434 49.4803 131.678L49.3768 132.492C49.3486 132.727 49.3109 132.972 49.2639 133.202C49.2498 133.315 49.2216 133.423 49.2075 133.527C49.1839 133.654 49.1792 133.771 49.1792 133.898C49.1651 134.209 49.1745 134.529 49.1745 134.83V134.867L49.0616 135.112L48.9582 135.817H48.9488C48.5207 137.276 47.0108 138.042 46.4135 139.383L46.4041 139.397L46.31 139.51L46.2065 139.867L45.9572 140.14L45.5057 140.399L45.0588 140.526H44.8001L44.5696 140.394L44.2686 140.281L43.8406 140.164L43.6289 140.037L43.2949 139.919L43.1774 139.792C42.7634 139.547 42.6364 139.298 42.326 138.95L42.3119 138.936L42.2978 138.912C42.1049 138.475 41.7051 138.339 41.5593 137.835L41.4464 137.459V136.118L41.5593 135.733L41.6628 135.498L41.7804 135.121L42.0485 134.825H42.8857L42.9986 134.942H43.4408L43.6336 134.83L43.9299 134.717L44.1369 134.486L44.3439 134.369L44.9789 133.663L45.1858 133.545L45.7267 132.939L46.7192 132.718V131.97L46.9497 131.452L47.5659 130.77V128.922L47.6788 128.418L47.7964 128.146L48.0268 127.892C48.2808 127.609 48.7089 127.101 49.0993 127.13C49.2028 127.144 49.3062 127.181 49.4097 127.21C49.5132 127.238 49.6167 127.257 49.7296 127.261C49.9365 126.937 50.6327 126.923 50.9196 126.899C51.1877 126.876 51.5123 126.871 51.7616 126.796L52.0861 126.678L52.7117 126.561L53.6571 126.208L54.2921 126.09L55.1294 125.86L55.4539 125.733L56.0842 125.615L57.3354 125.159L57.5188 125.055L57.6223 124.938L57.7964 124.834L57.8951 124.529L57.9986 124.166L58.1021 123.945L58.2056 123.117L58.4172 122.638L58.5301 122.261L58.5536 122.238C58.8406 121.918 59.278 121.697 59.6731 121.608H59.9224L60.374 121.735L60.3834 121.744C60.5527 121.838 60.6515 121.951 60.7738 122.106C60.849 122.2 60.9149 122.276 61.0184 122.327L61.0325 122.341L61.2677 122.609L61.3994 122.896V124.063L61.39 124.039ZM57.2601 120.85C57.2225 120.954 57.1802 121.057 57.1049 121.133C57.0673 121.175 57.025 121.208 56.9873 121.245C56.9638 121.274 56.9591 121.335 56.9591 121.372V121.424L56.7286 121.692L56.6251 121.927L55.8679 122.765C55.5292 123.15 55.1153 123.489 54.6778 123.734L54.6543 123.748H53.7606L53.4219 123.621L53.4078 123.611C52.787 123.263 52.7258 123.094 52.5141 122.384L52.3965 122.252V121.231L52.5094 120.742L52.627 120.352L52.754 120.211L52.8575 120.093L53.6148 119.251L53.6289 119.242C53.7747 119.152 53.8641 119.086 53.9817 118.955C54.0993 118.828 54.2028 118.748 54.3439 118.668L54.5508 118.437L54.9742 118.085L55.0682 117.972C55.2658 117.751 55.4916 117.685 55.7503 117.586L55.7738 117.577H56.6816L56.7192 117.614C57.3354 118.31 57.4953 118.865 57.4953 119.834V119.848L57.3824 120.728L57.2648 120.855L57.2601 120.85ZM48.4172 120.088L48.0457 120.498L47.8105 120.629L47.152 120.874H46.9074L46.263 120.756L45.802 120.629L45.5809 120.375L44.739 119.905L44.6449 119.801L44.1416 119.688L43.9252 119.561L43.6054 119.449L43.3702 119.317L43.135 119.044L42.9187 118.578L42.5941 118.216L42.5847 118.188C42.5471 118.061 42.4953 117.943 42.4295 117.835C42.2131 117.473 41.9403 117.205 41.7568 116.815L41.6534 116.697L41.644 116.673C41.4981 116.349 41.3994 116.053 41.3194 115.704L41.2159 115.352V115.342C41.0983 114.693 41.1124 114.293 41.2112 113.64V113.597L41.4934 113.287H42.5282C42.9892 113.418 43.4925 113.531 43.9205 113.776L44.3345 114.006L44.6308 114.119L45.2752 114.237L45.4916 114.364L45.9149 114.482H45.929C46.3194 114.712 46.6863 114.961 47.0626 115.22C47.3448 115.418 47.6317 115.61 47.9281 115.784H47.9516L48.215 116.33C48.3326 116.862 48.1585 116.758 48.1915 117.29C48.2197 117.652 48.4925 118.273 48.5019 118.644C48.516 119.119 48.3984 119.599 48.4219 120.093M48.4455 114.75L48.9723 113.945L49.2075 113.814L49.6308 113.696L49.833 113.583C50.3505 113.296 51.0842 112.765 51.4887 112.313L51.6816 112.092C51.8086 111.824 51.9497 111.589 52.1237 111.368C52.2507 111.203 52.3965 111.057 52.533 110.888C52.7634 110.592 52.8716 110.305 52.9328 109.91L53.0457 109.275L53.3843 108.889C53.7559 108.475 54.2357 108.381 54.739 108.381H54.7766C55.3599 108.602 55.5386 108.72 55.6938 109.392L55.8114 109.519V110.902L55.6985 111.264L55.595 112.092L55.5574 112.186L55.6515 112.158L56.183 112.04L57.025 111.805L57.5518 111.688L57.9751 111.57L58.8171 111.452L59.1228 111.335L59.5602 111.217L60.1811 111.1L60.501 110.982L61.0278 110.864L61.3382 110.752L61.7757 110.625L62.5 110.512L62.6976 110.394L63.0315 110.276L63.5631 110.159L63.9864 110.041L65.2564 109.806L66.0983 109.688L66.7286 109.571L67.4624 109.453L67.8857 109.336L68.3937 109.218L69.0381 108.865H70.1388L70.1623 108.875C71.183 109.251 71.738 110.244 71.517 111.434C71.4511 111.786 71.2159 112.05 71.0748 112.365L71.0654 112.388L70.7173 112.774L70.2752 113.028L69.9553 113.146L69.7484 113.263L69.1369 113.494L68.8265 113.842L68.5913 113.974L67.961 114.209L67.7493 114.322L67.1331 114.552L67.0297 114.67L66.7145 114.787L64.96 116.753L64.8566 116.989L64.4332 117.464L64.3298 117.699L64.1651 117.868H64.0334V118.052L63.7653 118.202L63.6383 118.343H63.5066V118.541L63.1303 118.672L63.0268 118.79L62.7305 118.903L62.6505 119.082L63.1585 119.006H63.4314L63.5207 118.903L64.1604 118.799L64.2733 118.672L64.9553 118.541H65.5245L65.755 118.672L66.0889 118.799L66.517 119.148L66.7239 119.265L66.8556 119.42C67.0532 119.863 67.0767 119.877 67.1708 120.587L67.0438 120.733L66.9262 120.987L66.4605 121.255L66.1642 121.368L66.0466 121.499H63.9958L62.9469 121.617H61.0325L60.5574 121.485L60.4163 121.321L60.2235 120.996L60.1341 120.893L60.0071 120.752L59.8801 120.347V118.771L60.1106 118.009L60.214 117.892L60.3175 117.539L60.4304 117.421L60.5245 117.097L60.6421 116.829L60.7738 116.673L61.2394 116.415H61.9497L62.1143 116.598L62.2272 116.974L62.3448 117.228V117.859L62.5377 117.412L62.754 117.181L62.8575 116.946L63.1774 116.589L63.3843 116.114L63.4972 115.996L63.6007 115.761L63.7042 115.643L63.8076 115.408L63.9111 115.291L64.024 115.06L64.1275 114.942L64.231 114.707L64.3345 114.59L64.4473 114.355L64.6449 114.124L64.7578 113.748L65.0024 113.616L65.2893 113.291L65.3928 113.056L65.5997 112.826L65.8161 112.351L65.9196 112.233L65.9431 112.181L65.5903 112.101H64.6731C64.405 112.196 64.1698 112.294 63.9252 112.44C63.7418 112.558 63.5631 112.633 63.3608 112.704L62.9187 113.028L62.6129 113.141C62.1755 113.593 60.9478 113.762 60.374 113.978H60.3646L59.7202 114.105L59.2028 114.218L58.5772 114.453L58.1538 114.571L57.8434 114.688L57.0014 114.924L56.6769 115.041L56.0795 115.154L55.9807 115.267L55.9525 115.276C55.6374 115.394 55.0729 115.573 54.8425 115.841L54.8189 115.864L54.4991 115.982L54.3956 116.1H54.3674C53.8923 116.283 53.8029 116.504 53.6007 116.979L53.5913 117.003L53.3608 117.257C53.2385 117.403 53.1538 117.511 53.0739 117.694V117.718L52.8528 117.953C52.6976 118.291 52.4624 118.738 52.2225 119.011L52.1049 119.27L51.8509 119.411L51.5311 119.529L51.3241 119.641C50.9243 119.872 50.0212 120.427 49.5885 120.173C49.3815 120.055 49.3533 119.698 49.2639 119.458C49.1981 119.303 49.2639 118.776 49.2357 118.541C49.2921 118.037 49.2357 118.141 49.2357 117.624V117.614L49.3015 117.097L49.2216 116.843C49.0758 116.443 48.7935 116.194 48.6618 115.949C48.4925 115.629 48.4831 115.333 48.469 114.787M42.9939 122.699L43.6054 122.812C43.9817 122.887 44.5461 122.887 44.833 123.202L44.913 123.296L45.1952 123.4L45.6092 123.517L46.1501 123.635L46.3806 123.762C46.6393 123.908 46.8321 124.03 47.0485 124.265L47.1896 124.42V124.74C47.0203 125.756 47.406 126.753 46.9685 127.727L46.945 127.765L46.9074 127.788C46.7521 127.882 46.5734 127.995 46.4041 128.061C46.2253 128.141 46.0278 128.202 45.8396 128.268L45.8161 128.277H44.5508L44.2968 128.371C44.1792 128.63 44.0805 128.814 44.0146 129.11L44.0052 129.133L43.4878 130.102L43.3467 128.517L43.2479 128.183L42.9469 127.511C42.453 126.965 41.5499 126.26 41.2536 125.601H41.2489L41.1548 125.262C40.8679 124.924 40.6044 124.369 40.5104 123.922V123.625L40.6233 123.24L40.7503 122.958L40.9666 122.84L41.0607 122.624L41.2159 122.445H42.3307L42.7822 122.572L42.9892 122.689L42.9939 122.699Z" fill="#595857"/>
<path fill-rule="evenodd" clip-rule="evenodd" d="M135.745 133.641H135.322C135.322 132.799 135.491 132.996 136.319 133.006L136.155 133.26L136.023 133.645L135.971 134.087L135.322 134.534L135.19 134.666L135.049 134.915L134.908 135.042L134.767 135.169L134.212 135.301C133.84 135.635 133.539 135.997 133.375 136.449V138.866L133.506 139.125L133.648 139.76C134.033 140.818 135.077 141.035 136.296 141.035C136.841 141.035 137.288 141.011 137.834 140.908H138.107C139.377 140.908 140.576 140.4 141.87 140.4V140.785L141.728 141.039V141.425L142.152 141.933H142.707L142.989 141.806C142.989 142.248 143.403 142.168 143.403 141.679H143.967L144.381 141.547C145.219 141.171 145.077 140.917 145.637 140.4L145.778 140.273L145.91 140.146L146.051 140.019L146.333 139.76L146.747 139.633L146.888 139.506L147.03 138.998L147.312 138.354V138.227C147.053 136.124 146.47 135.423 144.381 135.423L144.24 135.55L143.826 135.677L142.293 135.809H141.728L142.011 135.677C142.269 135.197 142.721 134.953 143.262 134.788L143.685 134.661L143.967 134.53L144.099 134.403L144.24 133.509L144.381 133.26L144.522 133.133L144.664 133.001C144.814 132.187 145.068 131.402 145.219 130.583L145.36 130.197C145.36 129.548 145.233 129.567 144.805 129.177L144.664 129.05C143.953 128.956 143.408 128.777 142.712 128.664L141.597 128.537H139.645V128.151L139.513 127.897L139.372 126.75H139.786L140.068 126.623C140.35 126.359 140.689 126.143 141.046 125.978L141.188 125.602L141.329 125.47H141.46L141.601 125.729L141.884 125.856C142.726 126.242 143.666 125.55 144.391 125.221L144.532 125.094C145.294 124.741 145.407 124.511 145.788 123.815L145.919 123.565L146.061 123.438L146.202 123.307C146.728 122.832 147.081 122.121 147.599 121.651L147.73 121.402L148.013 121.143C148.013 120.884 148.996 119.699 149.132 118.852L149.273 118.217L149.414 117.832L149.551 117.578C150.03 116.698 150.468 115.691 150.807 114.765C151.079 114.012 151.141 113.264 151.22 112.469V111.707L151.089 111.199L150.948 110.814C150.783 110.517 150.642 110.155 150.383 109.92L150.11 109.666L149.969 109.539L149.687 109.407C149.278 109.28 149.005 109.125 148.572 109.031L148.158 108.895H143.699C141.479 109.125 139.551 109.525 137.429 110.174L137.006 110.301C136.578 110.498 136.192 110.738 135.755 110.936L135.614 111.063L135.2 111.199C134.814 111.547 134.311 111.754 133.939 112.088L133.657 112.22L133.384 112.347L133.102 112.474L132.82 112.601L132.679 112.733L132.406 112.86L132.124 112.987H131.841L131.427 112.86L131.145 112.733L131.004 112.225L130.59 112.093H129.889L129.753 112.225L129.33 112.352L128.775 112.479L127.66 112.606V112.864H127.236L126.964 112.991L126.681 113.118L126.399 113.25L126.268 113.377L126.126 113.504L125.985 113.631L125.844 113.758L125.703 113.89L125.562 114.017L125.289 114.144L125.148 114.271C124.711 115.07 123.436 115.456 122.773 116.058C122.175 116.43 121.47 116.867 120.966 117.333L120.825 117.46L120.543 117.592L120.261 117.719C119.381 118.118 119.123 118.25 118.45 118.866L118.309 118.993C118.116 119.177 118.022 119.398 117.895 119.628L117.754 120.014V120.522C119.179 123.133 119.071 123.325 121.954 123.335L121.799 123.589L121.658 123.838C121.244 124.214 121.093 124.482 120.821 124.986L120.538 125.117C120.063 125.555 119.593 125.574 119.283 126.138L119.146 126.265L119.005 126.392L118.864 126.519L118.723 126.778V127.667L118.864 128.053L119.005 128.311L119.146 128.688L119.283 128.946L119.424 129.2L119.565 129.332L119.706 129.459L119.847 129.713L119.988 129.84L120.12 130.099L120.261 130.226L120.402 130.353L120.543 130.484L120.684 130.611L120.825 130.738L120.966 130.865L121.239 130.997L121.522 131.124H121.804V131.632L121.663 132.521L121.522 132.78L121.38 133.288L121.239 133.796C121.122 134.431 120.924 134.925 120.825 135.578V135.837L120.966 136.472L121.098 136.599C121.597 137.502 122.867 137.375 123.746 137.107L124.029 136.98L124.311 136.853L124.452 136.721C124.932 136.5 125.186 136.308 125.562 135.959L125.703 135.832L126.268 135.447C126.785 134.501 127.674 133.871 128.078 132.77L128.215 132.512L128.356 132.385L128.497 132.131C129.08 131.058 129.311 129.873 129.889 128.815C130.082 128.297 130.458 127.78 130.731 127.286C130.948 126.689 131.569 125.607 131.569 124.986H131.841L131.982 124.478V124.101L131.841 121.933H131.427L131.286 122.182L131.145 122.055L131.004 121.928L130.863 121.157L130.731 120.781V118.866L130.863 118.104L131.004 117.846L131.286 117.719C131.413 117.244 131.479 117.032 131.841 116.698L131.982 115.804H132.265L132.406 115.677C132.933 115.188 133.398 114.459 134.076 114.144C134.551 113.716 134.706 113.664 135.327 113.382L135.468 113.255C136.037 112.996 136.578 112.747 137.138 112.483C137.603 112.342 138.097 112.3 138.535 112.098L138.807 111.971L139.367 111.844L140.063 111.717L140.901 111.585L141.597 111.458L142.161 111.331L142.998 111.204L143.977 111.068L145.51 110.941H146.347L146.761 111.068L147.044 111.204L147.185 111.331L147.326 111.458L147.467 111.717L147.608 112.093V113.749C147.608 115.042 147.42 114.849 146.903 115.79L146.761 116.049C146.531 116.472 146.333 116.994 146.206 117.446L146.065 117.832C145.266 119.294 144.518 120.522 143.276 121.656L143.144 121.783L143.003 121.914L142.862 122.041L142.58 122.168L142.307 122.295C142.161 121.458 141.959 120.785 141.743 120.005H141.329L141.046 120.513L140.905 120.64L140.764 121.025C140.43 121.336 140.129 121.609 139.791 121.919L139.377 122.046L139.236 122.173H139.094L139.236 121.924L139.377 121.665L139.649 121.416C139.649 121.171 140.214 120.781 140.491 120.781L140.623 120.649L140.764 120.522L140.905 120.395L141.046 120.268L141.329 119.882C141.395 119.445 141.395 118.542 141.743 118.227L141.884 117.968V117.714L141.743 117.587L141.188 117.455C141.004 117.286 140.816 117.117 140.623 116.947L140.491 116.82H140.209V116.693L140.35 116.308C140.604 115.842 140.929 115.503 141.188 115.038L141.329 114.911L141.46 114.652V114.017C141.282 113.683 140.863 113.335 140.491 112.996L140.209 112.869L139.927 112.742L139.372 112.61H139.09C138.728 112.78 138.572 112.921 138.394 113.255L138.252 113.382L138.111 114.779L137.97 115.673L137.839 116.308L137.697 116.693V116.947H137.274L136.86 117.079L135.6 117.333H133.506L133.375 117.46L133.234 117.592L133.093 117.846L132.528 117.973L132.396 118.104V118.612C132.613 119.012 132.716 119.308 132.81 119.76C133.238 120.146 133.337 120.743 133.789 121.157L133.93 121.289L134.212 121.416C134.612 121.416 134.405 121.646 134.908 121.792L135.19 121.924H136.738L136.583 122.686L136.442 123.194L136.3 123.321L136.028 123.452L135.604 123.579L135.049 123.706L132.26 123.833L132.119 124.468V124.727C132.349 125.776 132.947 125.931 133.93 126.383L134.626 126.51L135.463 126.641L135.745 126.768L136.028 126.895L136.159 127.022L136.3 127.281L136.442 127.916V129.064L136.3 129.191L135.887 129.323H132.26L132.119 129.577L131.978 129.831L131.837 130.339L131.696 130.597L131.564 131.105L131.423 131.999V132.375L131.564 132.761L131.696 133.269C131.823 133.72 132.124 134.036 132.533 134.417L132.674 134.544L132.815 134.675L133.511 134.802L133.793 134.929H134.217L134.348 134.802L134.49 134.675L134.631 134.544L135.054 134.417L135.75 134.167V133.655L135.745 133.641ZM128.356 129.172L128.215 129.431L127.942 129.807L127.801 130.066L127.66 130.32L127.519 130.451L127.378 130.578C127.109 130.823 126.823 131.223 126.681 131.472C126.31 132.145 125.43 132.61 124.871 133.128L124.588 133.255L124.457 133.382L124.315 133.509L124.019 133.636L124.174 132.874C124.419 131.994 124.856 131.514 125.153 130.705L125.426 130.578L125.708 130.451L125.849 130.32L126.131 130.193C127.246 129.685 127.848 128.927 128.803 128.542L128.638 128.791L128.356 129.167V129.172ZM127.726 121.063L127.284 121.279L126.804 121.482L127.053 120.24L127.279 119.835L127.49 119.633L127.716 119.417L128.191 119.214L127.942 120.24L127.716 121.063H127.726Z" fill="#595857"/>
<path d="M80.2143 159.891C79.9039 160.295 79.5041 160.592 79.0149 160.785C78.521 160.977 77.9942 161.072 77.4345 161.072C76.616 161.072 75.8822 160.883 75.2237 160.502C74.5652 160.121 74.1325 159.585 73.9161 158.889L75.3319 158.085C75.5248 158.532 75.8023 158.88 76.1739 159.129C76.5408 159.378 76.9829 159.5 77.4956 159.5C77.9142 159.5 78.2435 159.416 78.4881 159.246C78.7327 159.077 78.855 158.833 78.855 158.513C78.855 158.259 78.775 158.042 78.6104 157.878C78.4457 157.708 78.2435 157.577 77.9989 157.483C77.7543 157.389 77.4203 157.276 76.997 157.144C76.4279 156.975 75.9622 156.81 75.6047 156.645C75.2425 156.481 74.9368 156.236 74.6781 155.907C74.4241 155.578 74.2924 155.145 74.2924 154.609C74.2924 154.04 74.4429 153.56 74.744 153.16C75.045 152.765 75.4401 152.468 75.934 152.271C76.4279 152.073 76.9547 151.975 77.5238 151.975C78.2999 151.975 78.9631 152.153 79.5182 152.501C80.0685 152.854 80.426 153.329 80.5859 153.931L79.1701 154.736C79.0243 154.359 78.8079 154.063 78.521 153.851C78.2341 153.64 77.8719 153.532 77.4392 153.532C77.0488 153.532 76.7289 153.621 76.4843 153.804C76.2397 153.983 76.1174 154.223 76.1174 154.519C76.1174 154.745 76.1927 154.929 76.3479 155.079C76.4984 155.23 76.696 155.347 76.9312 155.441C77.1663 155.535 77.4862 155.639 77.886 155.761C78.4646 155.93 78.9396 156.1 79.3159 156.274C79.6922 156.448 80.0121 156.702 80.2849 157.04C80.553 157.379 80.6894 157.826 80.6894 158.381C80.6894 158.983 80.5342 159.486 80.2284 159.891H80.2143Z" fill="#595857"/>
<path d="M83.8312 155.596H87.7964V152.139H89.5508V160.93H87.7964V157.148H83.8312V160.93H82.0908V152.139H83.8312V155.596Z" fill="#595857"/>
<path d="M96.9497 157.219H93.3843V159.406H97.5048V160.93H91.644V152.139H97.3731V153.653H93.3843V155.718H96.9497V157.219Z" fill="#595857"/>
<path d="M100.59 152.139L104.857 157.952V152.139H106.479V160.93H105.064L100.788 155.107V160.93H99.1887V152.139H100.595H100.59Z" fill="#595857"/>
<path d="M114.344 152.139V153.098L110.261 159.368H114.513V160.93H107.834V159.956L111.931 153.686H108.206V152.139H114.344Z" fill="#595857"/>
<path d="M117.632 155.596H121.597V152.139H123.352V160.93H121.597V157.148H117.632V160.93H115.892V152.139H117.632V155.596Z" fill="#595857"/>
<path d="M130.75 157.219H127.185V159.406H131.305V160.93H125.445V152.139H131.174V153.653H127.185V155.718H130.75V157.219Z" fill="#595857"/>
<path d="M134.391 152.139L138.657 157.952V152.139H140.28V160.93H138.864L134.588 155.107V160.93H132.989V152.139H134.395H134.391Z" fill="#595857"/>
<path d="M151.456 152.139H153.196V157.374C153.196 158.126 153.05 158.78 152.754 159.34C152.457 159.895 152.029 160.323 151.47 160.624C150.91 160.925 150.247 161.076 149.475 161.076C148.704 161.076 148.031 160.925 147.472 160.624C146.912 160.323 146.484 159.895 146.187 159.34C145.891 158.785 145.745 158.131 145.745 157.374V152.139H147.486V156.955C147.486 157.802 147.66 158.437 148.008 158.851C148.356 159.269 148.845 159.476 149.48 159.476C150.115 159.476 150.59 159.269 150.938 158.851C151.286 158.437 151.46 157.802 151.46 156.955V152.139H151.456Z" fill="#595857"/>
<path d="M156.597 152.139L160.863 157.952V152.139H162.486V160.93H161.07L156.795 155.107V160.93H155.195V152.139H156.602H156.597Z" fill="#595857"/>
<path d="M166.301 160.93H164.56V152.139H166.301V160.93Z" fill="#595857"/>
<path d="M169.508 152.139L171.86 158.493L174.118 152.139H175.981L172.556 160.93H171.079L167.523 152.139H169.504H169.508Z" fill="#595857"/>
<path d="M182.543 157.219H178.977V159.406H183.098V160.93H177.237V152.139H182.966V153.653H178.977V155.718H182.543V157.219Z" fill="#595857"/>
<path d="M192.077 160.929L189.998 160.915L187.862 157.754H186.517V160.924H184.777V152.133H187.815C188.502 152.133 189.109 152.251 189.631 152.481C190.153 152.712 190.553 153.046 190.83 153.474C191.113 153.902 191.249 154.391 191.249 154.946C191.249 155.501 191.103 156 190.816 156.423C190.529 156.846 190.125 157.171 189.603 157.397L192.077 160.929ZM186.517 153.615V156.282H187.608C188.121 156.282 188.549 156.174 188.888 155.953C189.226 155.732 189.4 155.398 189.4 154.951C189.4 154.504 189.231 154.156 188.897 153.944C188.559 153.728 188.131 153.62 187.613 153.62H186.522L186.517 153.615Z" fill="#595857"/>
<path d="M198.812 159.891C198.502 160.295 198.102 160.592 197.613 160.785C197.119 160.977 196.592 161.072 196.033 161.072C195.214 161.072 194.48 160.883 193.822 160.502C193.163 160.121 192.731 159.585 192.514 158.889L193.93 158.085C194.123 158.532 194.4 158.88 194.772 159.129C195.139 159.378 195.581 159.5 196.094 159.5C196.512 159.5 196.842 159.416 197.086 159.246C197.331 159.077 197.453 158.833 197.453 158.513C197.453 158.259 197.373 158.042 197.208 157.878C197.044 157.708 196.842 157.577 196.597 157.483C196.352 157.389 196.018 157.276 195.595 157.144C195.026 156.975 194.56 156.81 194.203 156.645C193.841 156.481 193.535 156.236 193.276 155.907C193.022 155.578 192.891 155.145 192.891 154.609C192.891 154.04 193.041 153.56 193.342 153.16C193.643 152.765 194.038 152.468 194.532 152.271C195.026 152.073 195.553 151.975 196.122 151.975C196.898 151.975 197.561 152.153 198.116 152.501C198.667 152.854 199.024 153.329 199.184 153.931L197.768 154.736C197.622 154.359 197.406 154.063 197.119 153.851C196.832 153.64 196.47 153.532 196.037 153.532C195.647 153.532 195.327 153.621 195.082 153.804C194.838 153.983 194.716 154.223 194.716 154.519C194.716 154.745 194.791 154.929 194.946 155.079C195.097 155.23 195.294 155.347 195.529 155.441C195.764 155.535 196.084 155.639 196.484 155.761C197.063 155.93 197.538 156.1 197.914 156.274C198.29 156.448 198.61 156.702 198.883 157.04C199.151 157.379 199.287 157.826 199.287 158.381C199.287 158.983 199.132 159.486 198.827 159.891H198.812Z" fill="#595857"/>
<path d="M202.434 160.93H200.694V152.139H202.434V160.93Z" fill="#595857"/>
<path d="M203.681 152.139H210.769V153.686H208.102V160.93H206.348V153.686H203.681V152.139Z" fill="#595857"/>
<path d="M215.308 155.742L217.302 152.139H219.188L216.126 157.473V160.93H214.386V157.459L211.192 152.139H213.248L215.313 155.742H215.308Z" fill="#595857"/>
<path d="M223.681 154.11C224.048 153.423 224.551 152.896 225.186 152.53C225.821 152.167 226.531 151.984 227.317 151.984C228.102 151.984 228.812 152.167 229.447 152.53C230.082 152.892 230.59 153.419 230.962 154.11C231.334 154.797 231.522 155.606 231.522 156.523C231.522 157.44 231.334 158.259 230.962 158.95C230.59 159.637 230.087 160.164 229.447 160.53C228.812 160.893 228.102 161.076 227.317 161.076C226.531 161.076 225.821 160.893 225.186 160.53C224.551 160.168 224.048 159.641 223.681 158.95C223.314 158.263 223.13 157.454 223.13 156.523C223.13 155.592 223.314 154.797 223.681 154.11ZM225.261 158.075C225.459 158.522 225.731 158.87 226.089 159.115C226.446 159.359 226.856 159.482 227.321 159.482C227.787 159.482 228.196 159.359 228.554 159.115C228.911 158.87 229.184 158.522 229.381 158.075C229.579 157.628 229.678 157.111 229.678 156.528C229.678 155.944 229.579 155.427 229.381 154.985C229.184 154.543 228.911 154.195 228.554 153.95C228.196 153.705 227.787 153.583 227.321 153.583C226.856 153.583 226.446 153.705 226.089 153.95C225.731 154.195 225.454 154.538 225.261 154.985C225.064 155.427 224.965 155.944 224.965 156.528C224.965 157.111 225.064 157.628 225.261 158.075Z" fill="#595857"/>
<path d="M233.191 152.139H238.921V153.663H234.932V155.906H238.497V157.421H234.932V160.93H233.191V152.139Z" fill="#595857"/>
<path d="M78.8593 165.563L82.4153 174.354H80.5668L79.8 172.35H76.3758L75.6326 174.354H73.8922L77.34 165.563H78.864H78.8593ZM79.2309 170.859L78.055 167.774L76.912 170.859H79.2309Z" fill="#595857"/>
<path d="M87.0768 165.563C87.9329 165.563 88.709 165.737 89.4004 166.08C90.0919 166.424 90.6375 166.927 91.042 167.59C91.4418 168.249 91.6441 169.039 91.6441 169.952C91.6441 170.864 91.4418 171.654 91.042 172.317C90.6422 172.981 90.0966 173.489 89.4098 173.837C88.7231 174.185 87.9423 174.359 87.0815 174.359H84.1511V165.568H87.0815L87.0768 165.563ZM86.8746 172.863C87.82 172.863 88.5444 172.609 89.0477 172.106C89.551 171.603 89.805 170.883 89.805 169.942C89.805 169.001 89.551 168.305 89.043 167.797C88.535 167.289 87.8106 167.035 86.8746 167.035H85.8915V172.858H86.8746V172.863Z" fill="#595857"/>
<path d="M94.3676 165.563L96.7195 171.918L98.9772 165.563H100.84L97.4156 174.354H95.9387L92.3827 165.563H94.3629H94.3676Z" fill="#595857"/>
<path d="M105.393 165.563L108.949 174.354H107.1L106.334 172.35H102.909L102.166 174.354H100.426L103.874 165.563H105.398H105.393ZM105.765 170.859L104.589 167.774L103.446 170.859H105.765Z" fill="#595857"/>
<path d="M112.086 165.563L116.352 171.377V165.563H117.975V174.354H116.559L112.284 168.531V174.354H110.685V165.563H112.091H112.086Z" fill="#595857"/>
<path d="M125.388 172.567C125.698 172.341 125.943 172.031 126.126 171.631L127.58 172.473C127.363 173.066 126.968 173.55 126.39 173.931C125.811 174.312 125.124 174.5 124.325 174.5C123.525 174.5 122.838 174.312 122.199 173.936C121.559 173.559 121.051 173.023 120.675 172.332C120.298 171.64 120.11 170.845 120.11 169.947C120.11 169.049 120.298 168.258 120.67 167.567C121.042 166.88 121.55 166.344 122.194 165.968C122.838 165.591 123.549 165.403 124.325 165.403C125.101 165.403 125.816 165.591 126.39 165.972C126.968 166.353 127.363 166.838 127.58 167.431L126.126 168.273C125.943 167.873 125.694 167.562 125.388 167.337C125.077 167.111 124.715 167.003 124.287 167.003C123.84 167.003 123.436 167.125 123.088 167.365C122.735 167.605 122.457 167.948 122.251 168.39C122.048 168.832 121.945 169.354 121.945 169.947C121.945 170.54 122.048 171.062 122.251 171.509C122.453 171.956 122.735 172.304 123.088 172.543C123.441 172.783 123.84 172.906 124.287 172.906C124.711 172.906 125.077 172.793 125.388 172.567Z" fill="#595857"/>
<path d="M134.739 170.643H131.174V172.83H135.294V174.354H129.433V165.563H135.162V167.078H131.174V169.142H134.739V170.643Z" fill="#595857"/>
<path d="M140.384 165.563C141.24 165.563 142.016 165.737 142.707 166.08C143.399 166.424 143.944 166.927 144.349 167.59C144.749 168.249 144.951 169.039 144.951 169.952C144.951 170.864 144.749 171.654 144.349 172.317C143.949 172.981 143.403 173.489 142.717 173.837C142.03 174.185 141.249 174.359 140.388 174.359H137.458V165.568H140.388L140.384 165.563ZM140.177 172.863C141.122 172.863 141.847 172.609 142.35 172.106C142.853 171.603 143.107 170.883 143.107 169.942C143.107 169.001 142.853 168.305 142.345 167.797C141.837 167.289 141.113 167.035 140.177 167.035H139.194V172.858H140.177V172.863Z" fill="#595857"/>
<path d="M149.871 165.563H156.959V167.11H154.292V174.354H152.538V167.11H149.871V165.563Z" fill="#595857"/>
<path d="M164.019 170.643H160.454V172.83H164.574V174.354H158.714V165.563H164.443V167.078H160.454V169.142H164.019V170.643Z" fill="#595857"/>
<path d="M171.475 172.567C171.785 172.341 172.03 172.031 172.213 171.631L173.667 172.473C173.45 173.066 173.055 173.55 172.477 173.931C171.898 174.312 171.211 174.5 170.412 174.5C169.612 174.5 168.925 174.312 168.286 173.936C167.646 173.559 167.138 173.023 166.762 172.332C166.385 171.64 166.197 170.845 166.197 169.947C166.197 169.049 166.386 168.258 166.757 167.567C167.129 166.88 167.637 166.344 168.281 165.968C168.925 165.591 169.636 165.403 170.412 165.403C171.188 165.403 171.903 165.591 172.477 165.972C173.055 166.353 173.45 166.838 173.667 167.431L172.213 168.273C172.03 167.873 171.781 167.562 171.475 167.337C171.164 167.111 170.802 167.003 170.374 167.003C169.927 167.003 169.523 167.125 169.175 167.365C168.822 167.605 168.544 167.948 168.338 168.39C168.135 168.832 168.032 169.354 168.032 169.947C168.032 170.54 168.135 171.062 168.338 171.509C168.54 171.956 168.822 172.304 169.175 172.543C169.528 172.783 169.927 172.906 170.374 172.906C170.798 172.906 171.164 172.793 171.475 172.567Z" fill="#595857"/>
<path d="M177.255 169.02H181.22V165.563H182.975V174.354H181.22V170.572H177.255V174.354H175.515V165.563H177.255V169.02Z" fill="#595857"/>
<path d="M186.95 165.563L191.216 171.377V165.563H192.839V174.354H191.423L187.147 168.531V174.354H185.548V165.563H186.954H186.95Z" fill="#595857"/>
<path d="M195.525 167.535C195.891 166.848 196.395 166.321 197.03 165.954C197.665 165.592 198.375 165.409 199.161 165.409C199.946 165.409 200.656 165.592 201.291 165.954C201.926 166.317 202.434 166.843 202.806 167.535C203.177 168.221 203.366 169.031 203.366 169.948C203.366 170.865 203.177 171.683 202.806 172.375C202.434 173.062 201.931 173.588 201.291 173.955C200.656 174.317 199.946 174.501 199.161 174.501C198.375 174.501 197.665 174.317 197.03 173.955C196.395 173.593 195.891 173.066 195.525 172.375C195.158 171.688 194.974 170.879 194.974 169.948C194.974 169.016 195.158 168.221 195.525 167.535ZM197.105 171.495C197.303 171.942 197.575 172.29 197.933 172.535C198.29 172.779 198.7 172.902 199.165 172.902C199.631 172.902 200.04 172.779 200.398 172.535C200.755 172.29 201.028 171.942 201.225 171.495C201.423 171.048 201.522 170.531 201.522 169.948C201.522 169.364 201.423 168.847 201.225 168.405C201.028 167.963 200.755 167.615 200.398 167.37C200.04 167.126 199.631 167.003 199.165 167.003C198.7 167.003 198.29 167.126 197.933 167.37C197.575 167.615 197.298 167.958 197.105 168.405C196.907 168.847 196.809 169.364 196.809 169.948C196.809 170.531 196.907 171.048 197.105 171.495Z" fill="#595857"/>
<path d="M205.52 165.563H207.26V172.793H211.258V174.354H205.515V165.563H205.52Z" fill="#595857"/>
<path d="M212.857 167.535C213.224 166.848 213.728 166.321 214.363 165.954C214.998 165.592 215.708 165.409 216.493 165.409C217.279 165.409 217.989 165.592 218.624 165.954C219.259 166.317 219.767 166.843 220.139 167.535C220.51 168.221 220.699 169.031 220.699 169.948C220.699 170.865 220.51 171.683 220.139 172.375C219.767 173.062 219.264 173.588 218.624 173.955C217.989 174.317 217.279 174.501 216.493 174.501C215.708 174.501 214.998 174.317 214.363 173.955C213.728 173.593 213.224 173.066 212.857 172.375C212.491 171.688 212.307 170.879 212.307 169.948C212.307 169.016 212.491 168.221 212.857 167.535ZM214.438 171.495C214.635 171.942 214.908 172.29 215.266 172.535C215.623 172.779 216.032 172.902 216.498 172.902C216.964 172.902 217.373 172.779 217.731 172.535C218.088 172.29 218.361 171.942 218.558 171.495C218.756 171.048 218.855 170.531 218.855 169.948C218.855 169.364 218.756 168.847 218.558 168.405C218.361 167.963 218.088 167.615 217.731 167.37C217.373 167.126 216.964 167.003 216.498 167.003C216.032 167.003 215.623 167.126 215.266 167.37C214.908 167.615 214.631 167.958 214.438 168.405C214.24 168.847 214.142 169.364 214.142 169.948C214.142 170.531 214.24 171.048 214.438 171.495Z" fill="#595857"/>
<path d="M226.734 170.982V169.481H230.097V173.061C229.824 173.503 229.391 173.851 228.794 174.11C228.196 174.369 227.538 174.5 226.818 174.5C225.962 174.5 225.2 174.307 224.537 173.922C223.874 173.536 223.356 173 222.989 172.313C222.623 171.626 222.439 170.836 222.439 169.947C222.439 169.058 222.627 168.258 223.008 167.567C223.389 166.88 223.911 166.344 224.575 165.968C225.238 165.591 225.976 165.403 226.785 165.403C227.594 165.403 228.295 165.587 228.893 165.949C229.49 166.311 229.89 166.781 230.101 167.351L228.662 168.178C228.488 167.812 228.234 167.52 227.905 167.308C227.576 167.097 227.19 166.988 226.738 166.988C226.268 166.988 225.84 167.111 225.464 167.351C225.087 167.591 224.791 167.934 224.575 168.385C224.358 168.832 224.25 169.354 224.25 169.947C224.25 170.54 224.358 171.085 224.579 171.532C224.8 171.979 225.111 172.327 225.515 172.567C225.92 172.807 226.39 172.929 226.926 172.929C227.552 172.929 228.041 172.755 228.394 172.412V170.982H226.738H226.734Z" fill="#595857"/>
<path d="M235.511 169.166L237.505 165.563H239.391L236.329 170.897V174.354H234.589V170.883L231.395 165.563H233.45L235.515 169.166H235.511Z" fill="#595857"/>
<path fill-rule="evenodd" clip-rule="evenodd" d="M163.088 89.0294C161.235 89.5845 159.56 90.3888 158.45 91.5036H155.792C154.678 90.3888 152.947 89.5845 151.155 89.0294C148.309 88.164 145.28 87.9147 143.549 87.9147H122.086C121.282 87.9147 120.6 87.6654 120.106 87.1104C119.612 86.6165 119.363 85.9956 119.363 85.1913V17.1574C119.363 16.4142 119.612 15.7369 120.106 15.2383C120.6 14.7444 121.282 14.4951 122.086 14.4951H143.549C145.529 14.4951 148.991 14.8056 152.208 15.7933C154 16.3484 155.67 17.0915 157.095 18.084C158.516 17.0962 160.252 16.3531 161.982 15.7933C165.261 14.8056 168.723 14.4951 170.703 14.4951H192.166C192.909 14.4951 193.586 14.7444 194.085 15.2383C194.579 15.7322 194.828 16.4142 194.828 17.1574V85.1913C194.828 85.9956 194.579 86.6118 194.085 87.1104C193.591 87.6654 192.97 87.9147 192.166 87.9147H170.703C168.972 87.9147 165.877 88.164 163.097 89.0294H163.088Z" fill="#76207D"/>
<path fill-rule="evenodd" clip-rule="evenodd" d="M178.365 43.1353L168.158 38.4363L157.951 43.1353C157.89 43.1353 157.579 43.3187 157.457 43.4457C157.274 43.6291 157.208 43.8173 157.147 44.0619V49.6263H152.942V25.3836H182.523C182.993 25.3836 183.374 25.7646 183.374 26.235V49.631H179.169V44.1889C179.169 44.0054 179.108 43.7561 178.986 43.568C178.925 43.4457 178.802 43.3187 178.553 43.2576C178.553 43.1964 178.431 43.1353 178.37 43.1353H178.365ZM170.322 58.9678V78.5727H166.055V59.0901C165.994 58.5962 165.561 58.1635 165.068 58.1635H152.946V54.0195H183.501V58.1635H171.253C170.82 58.1635 170.387 58.4739 170.326 58.9678H170.322ZM131.526 25.3836H148.736V29.5887H135.872C135.317 29.5887 134.884 30.0214 134.884 30.5153V34.41C134.884 34.9556 135.326 35.3977 135.872 35.3977H148.736V49.6216H130.674V45.4165H143.539C144.085 45.4165 144.527 44.9744 144.527 44.4288V40.5341C144.527 40.0402 144.094 39.6075 143.539 39.6075H130.674V26.2303C130.674 25.7599 131.055 25.3789 131.526 25.3789V25.3836ZM183.497 62.806V77.7307C183.497 78.2011 183.116 78.5821 182.645 78.5821H179.226V62.8107H183.492L183.497 62.806ZM157.274 62.806V78.5774H152.946V62.806H157.274ZM165.994 50.9292V45.5482H170.26V50.9292H165.994ZM157.147 38.0036C157.208 38.4363 157.579 38.6856 158.134 38.4974L167.227 34.2924H169.019L178.111 38.4974C178.793 38.6809 179.164 38.4363 179.164 37.9424V30.52C179.164 30.0261 178.732 29.5934 178.177 29.5934H158.139C157.584 29.5934 157.151 30.0261 157.151 30.52V38.0036H157.147Z" fill="white"/>
<path fill-rule="evenodd" clip-rule="evenodd" d="M148.737 78.5781V54.0249H144.593V73.5969C144.532 74.0296 144.16 74.34 143.728 74.4012H135.689C135.195 74.34 134.823 73.9685 134.823 73.4746V54.0249H130.68V77.6985C130.68 78.1688 131.061 78.5451 131.526 78.5498L148.737 78.5828V78.5781Z" fill="white"/>
</g>
<defs>
<clipPath id="clip0_937_281">
<rect width="226.373" height="160" fill="white" transform="translate(40.515 14.5)"/>
</clipPath>
</defs>
</svg>
