<svg width="140" height="42" viewBox="0 0 140 42" fill="none" xmlns="http://www.w3.org/2000/svg">
<g clip-path="url(#clip0_455_7240)">
<rect width="140" height="42" fill="#0F62F0"/>
<rect width="140" height="42" fill="url(#paint0_linear_455_7240)" fill-opacity="0.23"/>
<g opacity="0.5">
<path d="M74.459 -13.2863C79.4793 -19.1072 93.9093 -27.2566 111.466 -13.2863C135.564 24.9138 130.4 16.1824 117.06 29.2796C106.388 39.7573 88.8029 42.3768 81.344 42.3768" stroke="url(#paint1_linear_455_7240)" stroke-width="0.4"/>
<path d="M50.7916 -19.0163C49.9309 -17.1063 -5.14953 -19.562 67.5739 -2.37195C140.297 14.8181 176.013 5.81379 147.613 25.7324C119.212 45.651 181.177 29.2796 140.728 45.1053C100.278 60.9311 141.158 45.9239 127.818 71.5725C117.146 92.0915 123.372 81.9411 127.818 74.3011" stroke="url(#paint2_linear_455_7240)" stroke-width="0.4"/>
<path d="M73.0248 -14.2104C75.4262 -16.9654 78.3551 -20.4245 86.9233 -20.8558C95.4914 -21.2871 104.382 -20.1693 111.961 -12.7669C122.705 6.35956 129.285 12.961 128.032 17.5643C126.78 22.1677 123.622 22.7398 116.737 29.9046C106.065 40.7062 89.2472 42.9137 82.1725 42.6673" stroke="url(#paint3_linear_455_7240)" stroke-width="0.4"/>
<path d="M71.5907 -14.9978C73.8834 -17.5973 74.8787 -21.0229 85.5853 -20.8669C96.292 -20.7108 106.077 -19.9303 112.457 -12.1108C121.896 7.0421 130.322 12.8777 127.763 17.8552C125.203 22.8326 123.513 22.8855 116.413 30.6663C105.741 41.7919 89.6917 43.5875 83.001 43.0945" stroke="url(#paint4_linear_455_7240)" stroke-width="0.4"/>
<path d="M70.1564 -15.611C72.3404 -18.055 71.402 -21.4472 84.2472 -20.7038C97.0924 -19.9603 107.772 -19.5173 112.952 -11.2805C121.086 7.89879 131.358 12.9687 127.493 18.3202C123.627 23.6717 123.405 23.2052 116.089 31.6022C105.417 43.0517 90.1361 44.4353 83.8294 43.696" stroke="url(#paint5_linear_455_7240)" stroke-width="0.4"/>
<path d="M68.7223 -16.1253C70.7975 -18.4138 67.9255 -21.7725 82.9092 -20.4417C97.8929 -19.1109 109.466 -19.0052 113.447 -10.3512C120.277 8.85444 132.395 13.1586 127.223 18.8842C122.05 24.6098 123.296 23.624 115.766 32.6371C105.094 44.4105 90.5805 45.3822 84.6579 44.3964" stroke="url(#paint6_linear_455_7240)" stroke-width="0.4"/>
<path d="M67.2881 -16.5656C69.2546 -18.6986 64.449 -22.0239 81.5712 -20.1057C98.6934 -18.1875 111.161 -18.4192 113.943 -9.34804C119.467 9.88405 133.432 13.4224 126.953 19.5221C120.474 25.6218 123.188 24.1167 115.442 33.7459C104.77 45.8432 91.0249 46.403 85.4863 45.1707" stroke="url(#paint7_linear_455_7240)" stroke-width="0.4"/>
<path d="M65.8541 -16.9485C67.7118 -18.926 60.9725 -22.2179 80.2332 -19.7123C99.4939 -17.2067 112.856 -17.7759 114.438 -8.28746C118.658 10.971 134.469 13.7436 126.683 20.2174C118.897 26.6912 123.079 24.6667 115.118 34.9121C104.446 47.3333 91.4694 47.4812 86.3149 46.0025" stroke="url(#paint8_linear_455_7240)" stroke-width="0.4"/>
<path d="M64.7335 -17.2855C66.4825 -19.1075 57.8096 -22.3659 79.2088 -19.2729C100.608 -16.18 114.864 -17.0866 115.247 -7.18094C118.162 12.104 135.819 14.1108 126.727 20.9586C117.635 27.8065 123.284 25.2627 115.108 36.1243C104.436 48.8694 92.2274 48.6053 87.4569 46.8801" stroke="url(#paint9_linear_455_7240)" stroke-width="0.4"/>
<path d="M63.9839 -17.5848C65.6242 -19.2513 55.0176 -22.4763 78.5553 -18.796C102.093 -15.1156 117.243 -16.3596 116.427 -6.03678C118.037 13.2745 137.54 14.5156 127.141 21.7375C116.743 28.9595 123.86 25.8964 115.469 37.374C104.797 50.4431 93.3565 49.7671 88.97 47.7954" stroke="url(#paint10_linear_455_7240)" stroke-width="0.4"/>
<path d="M63.2902 -17.8526C64.8217 -19.3636 52.2815 -22.5552 77.9577 -18.2875C103.634 -14.0197 119.678 -15.6011 117.663 -4.86109C117.968 14.4766 139.317 14.9519 127.612 22.5479C115.907 30.1439 124.492 26.5616 115.886 38.6553C105.214 52.0483 94.5413 50.9603 90.5389 48.7423" stroke="url(#paint11_linear_455_7240)" stroke-width="0.4"/>
<path d="M62.6328 -18.0936C64.0556 -19.4491 49.5817 -22.6072 77.3965 -17.7521C105.211 -12.897 122.15 -14.8158 118.935 -3.65851C117.935 15.7056 141.131 15.4151 128.119 23.3852C115.107 31.3553 125.16 27.2536 116.339 39.9635C105.667 53.6804 95.7625 52.1805 92.1442 49.716" stroke="url(#paint12_linear_455_7240)" stroke-width="0.4"/>
<path d="M62.0006 -18.3111C63.3147 -19.5111 46.9071 -22.6357 76.8604 -17.1932C106.814 -11.7508 124.646 -14.007 120.232 -2.43251C117.928 16.958 142.969 15.9018 128.651 24.246C114.333 32.5901 125.854 27.9691 116.817 41.2952C106.145 55.3359 97.0089 53.4241 93.7746 50.7132" stroke="url(#paint13_linear_455_7240)" stroke-width="0.4"/>
<path d="M61.387 -18.5081C62.5923 -19.5526 44.2512 -22.6438 76.3429 -16.6139C108.435 -10.5841 127.161 -13.1777 121.548 -1.186C117.939 18.2309 144.827 16.4089 129.202 25.1272C113.577 33.8454 126.566 28.7051 117.314 42.6473C106.642 57.012 98.2739 54.6883 95.4236 51.7308" stroke="url(#paint14_linear_455_7240)" stroke-width="0.4"/>
<path d="M60.787 -18.6867C61.8837 -19.5757 41.6088 -22.6335 75.8391 -16.0162C110.069 -9.39896 129.69 -12.33 122.877 0.0788915C117.964 19.5222 146.698 16.9345 129.766 26.0268C112.834 35.1191 127.292 29.4595 117.825 44.0178C107.153 58.7064 99.5525 55.9708 97.0863 52.7669" stroke="url(#paint15_linear_455_7240)" stroke-width="0.4"/>
<path d="M60.1979 -18.8486C61.1857 -19.5821 38.9773 -22.6064 75.346 -15.4018C111.715 -8.19715 132.23 -11.4656 124.218 1.3605C117.999 20.8302 148.579 17.4767 130.341 26.9431C112.103 36.4095 128.028 30.2306 118.346 45.4051C107.674 60.4175 100.842 57.27 98.7597 53.8196" stroke="url(#paint16_linear_455_7240)" stroke-width="0.4"/>
<path d="M59.617 -18.9952C60.4962 -19.5732 36.3541 -22.5641 74.8613 -14.7721C113.369 -6.98009 134.778 -10.5859 125.566 2.65737C118.043 22.1535 150.469 18.0342 130.925 27.8747C111.38 37.7152 128.773 31.017 118.876 46.8075C108.204 62.1439 102.14 58.5844 100.442 54.8877" stroke="url(#paint17_linear_455_7240)" stroke-width="0.4"/>
<path d="M59.0431 -19.1276C59.8135 -19.5501 33.7377 -22.5075 74.3835 -14.1281C115.029 -5.74876 137.333 -9.692 126.922 3.9685C118.094 23.491 152.366 18.606 131.515 28.8206C110.664 39.0351 129.525 31.8176 119.412 48.2243C108.74 63.8846 103.444 59.9132 102.13 55.9699" stroke="url(#paint18_linear_455_7240)" stroke-width="0.4"/>
<path d="M58.4746 -19.2465C59.1363 -19.5135 31.1269 -22.4374 73.9112 -13.4707C116.695 -4.50392 139.893 -8.78456 128.283 5.29314C118.15 24.8421 154.268 19.1913 132.111 29.7799C109.953 40.3686 130.282 32.6317 119.954 49.6546C109.282 65.6388 104.754 61.2554 103.824 57.0657" stroke="url(#paint19_linear_455_7240)" stroke-width="0.4"/>
<path d="M57.9107 -19.3524C58.4636 -19.4639 28.5206 -22.3544 73.4434 -12.8003C118.366 -3.24612 142.458 -7.86416 129.649 6.63075C118.21 26.2061 156.175 19.7895 132.711 30.7523C109.247 41.715 131.044 33.4588 120.501 51.0978C109.829 67.4059 106.069 62.6106 105.523 58.1745" stroke="url(#paint20_linear_455_7240)" stroke-width="0.4"/>
<path d="M57.3508 -19.4455C57.795 -19.4015 25.9183 -22.2586 72.9796 -12.117C120.041 -1.97554 145.027 -6.93099 131.018 7.98114C118.275 27.5829 158.086 20.4006 133.315 31.7374C108.545 43.0742 131.809 34.2987 121.051 52.5538C110.38 69.1858 107.388 63.9786 107.226 59.296" stroke="url(#paint21_linear_455_7240)" stroke-width="0.4"/>
<path d="M56.7939 -19.5257C57.1294 -19.3262 23.319 -22.1498 72.5188 -11.4209C121.719 -0.692024 147.599 -5.98488 132.391 9.34445C118.343 28.9726 160 21.0245 133.923 32.7354C107.845 44.4463 132.578 35.1515 121.605 54.0227C110.933 70.9786 108.709 65.3595 108.932 60.4305" stroke="url(#paint22_linear_455_7240)" stroke-width="0.4"/>
<path d="M56.2399 -19.5921C56.4666 -19.2371 20.7226 -22.0273 72.0609 -10.711C123.399 0.605241 150.174 -5.02502 133.766 10.7215C118.414 30.3761 161.917 21.6622 134.533 33.7472C107.149 45.8322 133.35 36.0181 122.161 55.5054C111.49 72.7853 110.034 66.7542 110.64 61.5787" stroke="url(#paint23_linear_455_7240)" stroke-width="0.4"/>
<path d="M55.6882 -19.5922C55.8061 -19.0817 18.1285 -21.8384 71.6053 -9.93477C125.082 1.96888 152.751 -3.99879 135.144 12.165C118.487 31.8459 163.836 22.3663 135.146 34.8254C106.455 47.2844 134.124 36.951 122.72 57.0545C112.048 74.6582 111.361 68.2153 112.351 62.7933" stroke="url(#paint24_linear_455_7240)" stroke-width="0.4"/>
<path d="M55.1385 -19.5282C55.1478 -18.8622 15.5365 -21.5855 71.1518 -9.09448C126.767 3.39654 155.33 -2.90853 136.524 13.6724C118.562 33.3798 165.757 23.1344 135.76 35.9676C105.763 48.8007 134.9 37.948 123.281 58.6676C112.609 76.5952 112.69 69.7403 114.064 64.0719" stroke="url(#paint25_linear_455_7240)" stroke-width="0.4"/>
<path d="M54.5908 -19.4642C54.4914 -18.6427 12.9464 -21.3325 70.7003 -8.25414C128.454 4.82426 157.911 -1.81822 137.906 15.1799C118.639 34.9137 167.681 23.9026 136.377 37.1098C105.073 50.317 135.678 38.945 123.844 60.2807C113.172 78.5323 114.021 71.2654 115.779 65.3506" stroke="url(#paint26_linear_455_7240)" stroke-width="0.4"/>
<path d="M54.0446 -19.4002C53.8363 -18.4232 10.3578 -21.0796 70.2501 -7.41382C130.142 6.25196 160.494 -0.727923 139.289 16.6875C118.717 36.4476 169.605 24.6707 136.995 38.252C104.385 51.8333 136.457 39.942 124.408 61.8939C113.736 80.4693 115.353 72.7906 117.495 66.6293" stroke="url(#paint27_linear_455_7240)" stroke-width="0.4"/>
<path d="M53.4997 -19.3362C53.1828 -18.2037 7.77057 -20.8267 69.8014 -6.5735C131.832 7.67966 163.078 0.36237 140.673 18.195C118.797 37.9816 171.531 25.4389 137.614 39.3943C103.697 53.3496 137.238 40.939 124.974 63.507C114.302 82.4064 116.687 74.3157 119.213 67.9079" stroke="url(#paint28_linear_455_7240)" stroke-width="0.4"/>
<path d="M52.9561 -19.2722C52.5305 -17.9842 5.18459 -20.5737 69.354 -5.73321C133.523 9.10732 165.663 1.45263 142.059 19.7024C118.878 39.5154 173.459 26.207 138.235 40.5364C103.012 54.8659 138.02 41.9359 125.541 65.1201C114.869 84.3433 118.022 75.8407 120.932 69.1865" stroke="url(#paint29_linear_455_7240)" stroke-width="0.4"/>
<path d="M52.4136 -19.2082C51.8792 -17.7647 2.59965 -20.3208 68.9075 -4.89288C135.215 10.535 168.249 2.54294 143.446 21.2099C118.96 41.0493 175.387 26.9752 138.857 41.6787C102.327 56.3822 138.803 42.933 126.109 66.7332C115.437 86.2804 119.358 77.3659 122.652 70.4652" stroke="url(#paint30_linear_455_7240)" stroke-width="0.4"/>
<path d="M51.8721 -19.1443C51.229 -17.5453 0.015814 -20.0679 68.4622 -4.05257C136.909 11.9627 170.836 3.63322 144.834 22.7174C119.043 42.5833 177.316 27.7433 139.48 42.8209C101.643 57.8985 139.587 43.9299 126.678 68.3463C116.006 88.2174 120.695 78.891 124.373 71.7438" stroke="url(#paint31_linear_455_7240)" stroke-width="0.4"/>
<path d="M51.3315 -19.0803C50.5796 -17.3258 -2.56724 -19.8149 68.0176 -3.21227C138.603 13.3904 173.425 4.72349 146.223 24.2249C119.127 44.1171 179.246 28.5114 140.103 43.9631C100.96 59.4148 140.372 44.9269 127.247 69.9594C116.576 90.1544 122.033 80.416 126.095 73.0225" stroke="url(#paint32_linear_455_7240)" stroke-width="0.4"/>
</g>
</g>
<defs>
<linearGradient id="paint0_linear_455_7240" x1="0" y1="0" x2="140" y2="42" gradientUnits="userSpaceOnUse">
<stop stop-color="#337EFF"/>
<stop offset="0.29" stop-color="#CBDBF7"/>
<stop offset="0.549476" stop-color="#337EFF"/>
<stop offset="0.786697" stop-color="white"/>
<stop offset="0.905" stop-color="#2168E1"/>
</linearGradient>
<linearGradient id="paint1_linear_455_7240" x1="101.381" y1="-21" x2="101.381" y2="42.3768" gradientUnits="userSpaceOnUse">
<stop offset="0.14" stop-color="#F3F7FF"/>
<stop offset="0.3" stop-color="#2871EE"/>
<stop offset="0.41" stop-color="#699BF1"/>
<stop offset="0.705" stop-color="#1565EF"/>
<stop offset="1" stop-color="#FBFCFF"/>
</linearGradient>
<linearGradient id="paint2_linear_455_7240" x1="93.6826" y1="-19.0163" x2="93.6826" y2="83.6713" gradientUnits="userSpaceOnUse">
<stop offset="0.14" stop-color="#F3F7FF"/>
<stop offset="0.3" stop-color="#2871EE"/>
<stop offset="0.41" stop-color="#699BF1"/>
<stop offset="0.705" stop-color="#1565EF"/>
<stop offset="1" stop-color="#FBFCFF"/>
</linearGradient>
<linearGradient id="paint3_linear_455_7240" x1="100.605" y1="-20.936" x2="100.605" y2="42.6851" gradientUnits="userSpaceOnUse">
<stop offset="0.14" stop-color="#F3F7FF"/>
<stop offset="0.3" stop-color="#2871EE"/>
<stop offset="0.41" stop-color="#699BF1"/>
<stop offset="0.705" stop-color="#1565EF"/>
<stop offset="1" stop-color="#FBFCFF"/>
</linearGradient>
<linearGradient id="paint4_linear_455_7240" x1="99.9088" y1="-20.872" x2="99.9088" y2="43.167" gradientUnits="userSpaceOnUse">
<stop offset="0.14" stop-color="#F3F7FF"/>
<stop offset="0.3" stop-color="#2871EE"/>
<stop offset="0.41" stop-color="#699BF1"/>
<stop offset="0.705" stop-color="#1565EF"/>
<stop offset="1" stop-color="#FBFCFF"/>
</linearGradient>
<linearGradient id="paint5_linear_455_7240" x1="99.2446" y1="-20.808" x2="99.2446" y2="43.8599" gradientUnits="userSpaceOnUse">
<stop offset="0.14" stop-color="#F3F7FF"/>
<stop offset="0.3" stop-color="#2871EE"/>
<stop offset="0.41" stop-color="#699BF1"/>
<stop offset="0.705" stop-color="#1565EF"/>
<stop offset="1" stop-color="#FBFCFF"/>
</linearGradient>
<linearGradient id="paint6_linear_455_7240" x1="98.5975" y1="-20.744" x2="98.5975" y2="44.6869" gradientUnits="userSpaceOnUse">
<stop offset="0.14" stop-color="#F3F7FF"/>
<stop offset="0.3" stop-color="#2871EE"/>
<stop offset="0.41" stop-color="#699BF1"/>
<stop offset="0.705" stop-color="#1565EF"/>
<stop offset="1" stop-color="#FBFCFF"/>
</linearGradient>
<linearGradient id="paint7_linear_455_7240" x1="97.9606" y1="-20.68" x2="97.9606" y2="45.6202" gradientUnits="userSpaceOnUse">
<stop offset="0.14" stop-color="#F3F7FF"/>
<stop offset="0.3" stop-color="#2871EE"/>
<stop offset="0.41" stop-color="#699BF1"/>
<stop offset="0.705" stop-color="#1565EF"/>
<stop offset="1" stop-color="#FBFCFF"/>
</linearGradient>
<linearGradient id="paint8_linear_455_7240" x1="97.3306" y1="-20.6161" x2="97.3306" y2="46.6402" gradientUnits="userSpaceOnUse">
<stop offset="0.14" stop-color="#F3F7FF"/>
<stop offset="0.3" stop-color="#2871EE"/>
<stop offset="0.41" stop-color="#699BF1"/>
<stop offset="0.705" stop-color="#1565EF"/>
<stop offset="1" stop-color="#FBFCFF"/>
</linearGradient>
<linearGradient id="paint9_linear_455_7240" x1="96.862" y1="-20.5521" x2="96.862" y2="47.7321" gradientUnits="userSpaceOnUse">
<stop offset="0.14" stop-color="#F3F7FF"/>
<stop offset="0.3" stop-color="#2871EE"/>
<stop offset="0.41" stop-color="#699BF1"/>
<stop offset="0.705" stop-color="#1565EF"/>
<stop offset="1" stop-color="#FBFCFF"/>
</linearGradient>
<linearGradient id="paint10_linear_455_7240" x1="96.5826" y1="-20.4881" x2="96.5826" y2="48.8848" gradientUnits="userSpaceOnUse">
<stop offset="0.14" stop-color="#F3F7FF"/>
<stop offset="0.3" stop-color="#2871EE"/>
<stop offset="0.41" stop-color="#699BF1"/>
<stop offset="0.705" stop-color="#1565EF"/>
<stop offset="1" stop-color="#FBFCFF"/>
</linearGradient>
<linearGradient id="paint11_linear_455_7240" x1="96.3336" y1="-20.4241" x2="96.3336" y2="50.0892" gradientUnits="userSpaceOnUse">
<stop offset="0.14" stop-color="#F3F7FF"/>
<stop offset="0.3" stop-color="#2871EE"/>
<stop offset="0.41" stop-color="#699BF1"/>
<stop offset="0.705" stop-color="#1565EF"/>
<stop offset="1" stop-color="#FBFCFF"/>
</linearGradient>
<linearGradient id="paint12_linear_455_7240" x1="96.105" y1="-20.3601" x2="96.105" y2="51.3384" gradientUnits="userSpaceOnUse">
<stop offset="0.14" stop-color="#F3F7FF"/>
<stop offset="0.3" stop-color="#2871EE"/>
<stop offset="0.41" stop-color="#699BF1"/>
<stop offset="0.705" stop-color="#1565EF"/>
<stop offset="1" stop-color="#FBFCFF"/>
</linearGradient>
<linearGradient id="paint13_linear_455_7240" x1="95.8905" y1="-20.2961" x2="95.8905" y2="52.6268" gradientUnits="userSpaceOnUse">
<stop offset="0.14" stop-color="#F3F7FF"/>
<stop offset="0.3" stop-color="#2871EE"/>
<stop offset="0.41" stop-color="#699BF1"/>
<stop offset="0.705" stop-color="#1565EF"/>
<stop offset="1" stop-color="#FBFCFF"/>
</linearGradient>
<linearGradient id="paint14_linear_455_7240" x1="95.6868" y1="-20.2321" x2="95.6868" y2="53.9496" gradientUnits="userSpaceOnUse">
<stop offset="0.14" stop-color="#F3F7FF"/>
<stop offset="0.3" stop-color="#2871EE"/>
<stop offset="0.41" stop-color="#699BF1"/>
<stop offset="0.705" stop-color="#1565EF"/>
<stop offset="1" stop-color="#FBFCFF"/>
</linearGradient>
<linearGradient id="paint15_linear_455_7240" x1="95.491" y1="-20.1681" x2="95.491" y2="55.303" gradientUnits="userSpaceOnUse">
<stop offset="0.14" stop-color="#F3F7FF"/>
<stop offset="0.3" stop-color="#2871EE"/>
<stop offset="0.41" stop-color="#699BF1"/>
<stop offset="0.705" stop-color="#1565EF"/>
<stop offset="1" stop-color="#FBFCFF"/>
</linearGradient>
<linearGradient id="paint16_linear_455_7240" x1="95.3014" y1="-20.1041" x2="95.3014" y2="56.684" gradientUnits="userSpaceOnUse">
<stop offset="0.14" stop-color="#F3F7FF"/>
<stop offset="0.3" stop-color="#2871EE"/>
<stop offset="0.41" stop-color="#699BF1"/>
<stop offset="0.705" stop-color="#1565EF"/>
<stop offset="1" stop-color="#FBFCFF"/>
</linearGradient>
<linearGradient id="paint17_linear_455_7240" x1="95.1168" y1="-20.0401" x2="95.1168" y2="58.09" gradientUnits="userSpaceOnUse">
<stop offset="0.14" stop-color="#F3F7FF"/>
<stop offset="0.3" stop-color="#2871EE"/>
<stop offset="0.41" stop-color="#699BF1"/>
<stop offset="0.705" stop-color="#1565EF"/>
<stop offset="1" stop-color="#FBFCFF"/>
</linearGradient>
<linearGradient id="paint18_linear_455_7240" x1="94.9363" y1="-19.9762" x2="94.9363" y2="59.5189" gradientUnits="userSpaceOnUse">
<stop offset="0.14" stop-color="#F3F7FF"/>
<stop offset="0.3" stop-color="#2871EE"/>
<stop offset="0.41" stop-color="#699BF1"/>
<stop offset="0.705" stop-color="#1565EF"/>
<stop offset="1" stop-color="#FBFCFF"/>
</linearGradient>
<linearGradient id="paint19_linear_455_7240" x1="94.7592" y1="-19.9121" x2="94.7592" y2="60.9691" gradientUnits="userSpaceOnUse">
<stop offset="0.14" stop-color="#F3F7FF"/>
<stop offset="0.3" stop-color="#2871EE"/>
<stop offset="0.41" stop-color="#699BF1"/>
<stop offset="0.705" stop-color="#1565EF"/>
<stop offset="1" stop-color="#FBFCFF"/>
</linearGradient>
<linearGradient id="paint20_linear_455_7240" x1="94.5847" y1="-19.8481" x2="94.5847" y2="62.4392" gradientUnits="userSpaceOnUse">
<stop offset="0.14" stop-color="#F3F7FF"/>
<stop offset="0.3" stop-color="#2871EE"/>
<stop offset="0.41" stop-color="#699BF1"/>
<stop offset="0.705" stop-color="#1565EF"/>
<stop offset="1" stop-color="#FBFCFF"/>
</linearGradient>
<linearGradient id="paint21_linear_455_7240" x1="94.4128" y1="-19.7841" x2="94.4128" y2="63.9284" gradientUnits="userSpaceOnUse">
<stop offset="0.14" stop-color="#F3F7FF"/>
<stop offset="0.3" stop-color="#2871EE"/>
<stop offset="0.41" stop-color="#699BF1"/>
<stop offset="0.705" stop-color="#1565EF"/>
<stop offset="1" stop-color="#FBFCFF"/>
</linearGradient>
<linearGradient id="paint22_linear_455_7240" x1="94.2426" y1="-19.7202" x2="94.2426" y2="65.4362" gradientUnits="userSpaceOnUse">
<stop offset="0.14" stop-color="#F3F7FF"/>
<stop offset="0.3" stop-color="#2871EE"/>
<stop offset="0.41" stop-color="#699BF1"/>
<stop offset="0.705" stop-color="#1565EF"/>
<stop offset="1" stop-color="#FBFCFF"/>
</linearGradient>
<linearGradient id="paint23_linear_455_7240" x1="94.0743" y1="-19.6562" x2="94.0743" y2="66.9628" gradientUnits="userSpaceOnUse">
<stop offset="0.14" stop-color="#F3F7FF"/>
<stop offset="0.3" stop-color="#2871EE"/>
<stop offset="0.41" stop-color="#699BF1"/>
<stop offset="0.705" stop-color="#1565EF"/>
<stop offset="1" stop-color="#FBFCFF"/>
</linearGradient>
<linearGradient id="paint24_linear_455_7240" x1="93.9074" y1="-19.5922" x2="93.9074" y2="68.5605" gradientUnits="userSpaceOnUse">
<stop offset="0.14" stop-color="#F3F7FF"/>
<stop offset="0.3" stop-color="#2871EE"/>
<stop offset="0.41" stop-color="#699BF1"/>
<stop offset="0.705" stop-color="#1565EF"/>
<stop offset="1" stop-color="#FBFCFF"/>
</linearGradient>
<linearGradient id="paint25_linear_455_7240" x1="93.7418" y1="-19.5282" x2="93.7418" y2="70.2265" gradientUnits="userSpaceOnUse">
<stop offset="0.14" stop-color="#F3F7FF"/>
<stop offset="0.3" stop-color="#2871EE"/>
<stop offset="0.41" stop-color="#699BF1"/>
<stop offset="0.705" stop-color="#1565EF"/>
<stop offset="1" stop-color="#FBFCFF"/>
</linearGradient>
<linearGradient id="paint26_linear_455_7240" x1="93.5774" y1="-19.4642" x2="93.5774" y2="71.8965" gradientUnits="userSpaceOnUse">
<stop offset="0.14" stop-color="#F3F7FF"/>
<stop offset="0.3" stop-color="#2871EE"/>
<stop offset="0.41" stop-color="#699BF1"/>
<stop offset="0.705" stop-color="#1565EF"/>
<stop offset="1" stop-color="#FBFCFF"/>
</linearGradient>
<linearGradient id="paint27_linear_455_7240" x1="93.4139" y1="-19.4002" x2="93.4139" y2="73.57" gradientUnits="userSpaceOnUse">
<stop offset="0.14" stop-color="#F3F7FF"/>
<stop offset="0.3" stop-color="#2871EE"/>
<stop offset="0.41" stop-color="#699BF1"/>
<stop offset="0.705" stop-color="#1565EF"/>
<stop offset="1" stop-color="#FBFCFF"/>
</linearGradient>
<linearGradient id="paint28_linear_455_7240" x1="93.2514" y1="-19.3362" x2="93.2514" y2="75.2467" gradientUnits="userSpaceOnUse">
<stop offset="0.14" stop-color="#F3F7FF"/>
<stop offset="0.3" stop-color="#2871EE"/>
<stop offset="0.41" stop-color="#699BF1"/>
<stop offset="0.705" stop-color="#1565EF"/>
<stop offset="1" stop-color="#FBFCFF"/>
</linearGradient>
<linearGradient id="paint29_linear_455_7240" x1="93.0896" y1="-19.2722" x2="93.0896" y2="76.9265" gradientUnits="userSpaceOnUse">
<stop offset="0.14" stop-color="#F3F7FF"/>
<stop offset="0.3" stop-color="#2871EE"/>
<stop offset="0.41" stop-color="#699BF1"/>
<stop offset="0.705" stop-color="#1565EF"/>
<stop offset="1" stop-color="#FBFCFF"/>
</linearGradient>
<linearGradient id="paint30_linear_455_7240" x1="92.9933" y1="-19.2082" x2="92.9933" y2="78.609" gradientUnits="userSpaceOnUse">
<stop offset="0.14" stop-color="#F3F7FF"/>
<stop offset="0.3" stop-color="#2871EE"/>
<stop offset="0.41" stop-color="#699BF1"/>
<stop offset="0.705" stop-color="#1565EF"/>
<stop offset="1" stop-color="#FBFCFF"/>
</linearGradient>
<linearGradient id="paint31_linear_455_7240" x1="93.2216" y1="-19.1443" x2="93.2216" y2="80.2941" gradientUnits="userSpaceOnUse">
<stop offset="0.14" stop-color="#F3F7FF"/>
<stop offset="0.3" stop-color="#2871EE"/>
<stop offset="0.41" stop-color="#699BF1"/>
<stop offset="0.705" stop-color="#1565EF"/>
<stop offset="1" stop-color="#FBFCFF"/>
</linearGradient>
<linearGradient id="paint32_linear_455_7240" x1="93.4514" y1="-19.0803" x2="93.4514" y2="81.9816" gradientUnits="userSpaceOnUse">
<stop offset="0.14" stop-color="#F3F7FF"/>
<stop offset="0.3" stop-color="#2871EE"/>
<stop offset="0.41" stop-color="#699BF1"/>
<stop offset="0.705" stop-color="#1565EF"/>
<stop offset="1" stop-color="#FBFCFF"/>
</linearGradient>
<clipPath id="clip0_455_7240">
<rect width="140" height="42" fill="white"/>
</clipPath>
</defs>
</svg>
