<svg width="1080" height="260" viewBox="0 0 1080 260" fill="none" xmlns="http://www.w3.org/2000/svg">
<g clip-path="url(#clip0_73_2131)">
<rect width="1080" height="260" fill="url(#paint0_linear_73_2131)"/>
<rect width="1080" height="260" fill="#0F62F0"/>
<rect width="1080" height="260" fill="url(#paint1_linear_73_2131)"/>
<rect width="1080" height="260" fill="url(#paint2_linear_73_2131)" fill-opacity="0.45"/>
<rect width="1080" height="260" fill="url(#paint3_linear_73_2131)" fill-opacity="0.2"/>
<rect width="1080" height="260" fill="url(#paint4_linear_73_2131)" fill-opacity="0.6"/>
<rect width="1080" height="260" fill="url(#paint5_linear_73_2131)"/>
<path opacity="0.0833333" d="M1293.66 28.1992L1018.97 289.434L573.303 178.976" stroke="url(#paint6_linear_73_2131)" stroke-width="2"/>
<path opacity="0.166667" d="M1295.53 50.6729L988.302 296.239L572.205 165.201" stroke="url(#paint7_linear_73_2131)" stroke-width="2"/>
<path opacity="0.25" d="M1294.51 73.0557L958.118 301.457L573.99 151.518" stroke="url(#paint8_linear_73_2131)" stroke-width="2"/>
<path opacity="0.333333" d="M1290.7 95.2009L928.659 305.126L578.565 138.072" stroke="url(#paint9_linear_73_2131)" stroke-width="2"/>
<path opacity="0.416667" d="M1284.22 116.968L900.158 307.296L585.812 125.004" stroke="url(#paint10_linear_73_2131)" stroke-width="2"/>
<path opacity="0.5" d="M1275.21 138.223L872.832 308.027L595.598 112.449" stroke="url(#paint11_linear_73_2131)" stroke-width="2"/>
<path opacity="0.583333" d="M1263.81 158.839L846.884 307.392L607.765 100.531" stroke="url(#paint12_linear_73_2131)" stroke-width="2"/>
<path opacity="0.666667" d="M1250.2 178.702L822.498 305.473L622.145 89.3683" stroke="url(#paint13_linear_73_2131)" stroke-width="2"/>
<path opacity="0.75" d="M1234.56 197.702L799.84 302.363L638.551 79.0672" stroke="url(#paint14_linear_73_2131)" stroke-width="2"/>
<path opacity="0.833333" d="M1217.09 215.744L779.056 298.161L656.785 69.7241" stroke="url(#paint15_linear_73_2131)" stroke-width="2"/>
<path opacity="0.916667" d="M1198.01 232.743L760.273 292.975L676.638 61.4243" stroke="url(#paint16_linear_73_2131)" stroke-width="2"/>
<path d="M1177.52 248.625L743.594 286.917L697.893 54.2422" stroke="url(#paint17_linear_73_2131)" stroke-width="2"/>
<path opacity="0.0833333" d="M620.841 68.9082L909.092 -12.0445L1168.45 235.374" stroke="url(#paint18_linear_73_2131)" stroke-width="2"/>
<path opacity="0.166667" d="M628.337 52.2688L932.553 -5.23161L1163.83 245.556" stroke="url(#paint19_linear_73_2131)" stroke-width="2"/>
<path opacity="0.25" d="M637.753 36.7876L955.07 2.52265L1157.28 254.578" stroke="url(#paint20_linear_73_2131)" stroke-width="2"/>
<path opacity="0.333333" d="M648.97 22.5334L976.491 11.1002L1148.93 262.374" stroke="url(#paint21_linear_73_2131)" stroke-width="2"/>
<path opacity="0.416667" d="M661.854 9.56177L996.677 20.3774L1138.92 268.888" stroke="url(#paint22_linear_73_2131)" stroke-width="2"/>
<path opacity="0.5" d="M676.259 -2.08398L1015.51 30.2285L1127.39 274.076" stroke="url(#paint23_linear_73_2131)" stroke-width="2"/>
<path opacity="0.583333" d="M692.033 -12.3735L1032.87 40.5251L1114.48 277.907" stroke="url(#paint24_linear_73_2131)" stroke-width="2"/>
<path opacity="0.666667" d="M709.013 -21.2886L1048.67 51.1389L1100.37 280.364" stroke="url(#paint25_linear_73_2131)" stroke-width="2"/>
<path opacity="0.75" d="M727.032 -28.824L1062.83 61.9416L1085.22 281.441" stroke="url(#paint26_linear_73_2131)" stroke-width="2"/>
<path opacity="0.833333" d="M745.918 -34.9863L1075.29 72.807L1069.21 281.145" stroke="url(#paint27_linear_73_2131)" stroke-width="2"/>
<path opacity="0.916667" d="M765.497 -39.7944L1086.02 83.6113L1052.5 279.495" stroke="url(#paint28_linear_73_2131)" stroke-width="2"/>
<path d="M785.591 -43.2788L1094.98 94.2344L1035.28 276.521" stroke="url(#paint29_linear_73_2131)" stroke-width="2"/>
<g opacity="0.0833333">
<path d="M491.739 294.377C453.391 261.998 524.862 229.974 580.073 254.796L640.104 281.786C640.685 282.047 641.182 282.356 641.574 282.7L678.865 315.407C715.556 347.589 645.4 378.824 590.537 354.732L534.495 330.123C533.918 329.87 533.421 329.569 533.024 329.235L491.739 294.377Z" fill="white"/>
<path d="M491.739 294.377C453.391 261.998 524.862 229.974 580.073 254.796L640.104 281.786C640.685 282.047 641.182 282.356 641.574 282.7L678.865 315.407C715.556 347.589 645.4 378.824 590.537 354.732L534.495 330.123C533.918 329.87 533.421 329.569 533.024 329.235L491.739 294.377Z" fill="url(#paint30_linear_73_2131)" fill-opacity="0.2"/>
<path d="M494.339 293.59C457.938 262.856 525.78 232.458 578.188 256.02L638.219 283.01C638.504 283.138 638.749 283.29 638.942 283.459L676.233 316.167C711.061 346.714 644.467 376.363 592.39 353.495L536.348 328.886C536.065 328.761 535.82 328.613 535.625 328.448L494.339 293.59Z" stroke="url(#paint31_linear_73_2131)" stroke-opacity="0.2" stroke-width="5"/>
<path d="M494.339 293.59C457.938 262.856 525.78 232.458 578.188 256.02L638.219 283.01C638.504 283.138 638.749 283.29 638.942 283.459L676.233 316.167C711.061 346.714 644.467 376.363 592.39 353.495L536.348 328.886C536.065 328.761 535.82 328.613 535.625 328.448L494.339 293.59Z" stroke="url(#paint32_linear_73_2131)" stroke-opacity="0.2" stroke-width="5"/>
</g>
<g opacity="0.166667">
<path d="M489.291 266.181C458.972 233.236 526.415 209.421 579.253 234.415L690.453 287.016C691.279 287.407 691.948 287.883 692.399 288.402L748.291 352.647C776.534 385.111 710.815 408.079 658.495 384.029L554.461 336.209C553.638 335.831 552.965 335.369 552.499 334.862L489.291 266.181Z" fill="white"/>
<path d="M489.291 266.181C458.972 233.236 526.415 209.421 579.253 234.415L690.453 287.016C691.279 287.407 691.948 287.883 692.399 288.402L748.291 352.647C776.534 385.111 710.815 408.079 658.495 384.029L554.461 336.209C553.638 335.831 552.965 335.369 552.499 334.862L489.291 266.181Z" fill="url(#paint33_linear_73_2131)" fill-opacity="0.2"/>
<path d="M492.051 265.706C463.272 234.434 527.29 211.828 577.444 235.553L688.645 288.155C689.052 288.347 689.381 288.581 689.603 288.836L745.495 353.081C772.304 383.897 709.922 405.699 660.258 382.871L556.224 335.05C555.82 334.864 555.488 334.637 555.259 334.387L492.051 265.706Z" stroke="url(#paint34_linear_73_2131)" stroke-opacity="0.2" stroke-width="5"/>
<path d="M492.051 265.706C463.272 234.434 527.29 211.828 577.444 235.553L688.645 288.155C689.052 288.347 689.381 288.581 689.603 288.836L745.495 353.081C772.304 383.897 709.922 405.699 660.258 382.871L556.224 335.05C555.82 334.864 555.488 334.637 555.259 334.387L492.051 265.706Z" stroke="url(#paint35_linear_73_2131)" stroke-opacity="0.2" stroke-width="5"/>
</g>
<g opacity="0.25">
<path d="M511.271 248.631C489.965 216.384 551.319 199.614 601.04 224.094L741.944 293.468C743.097 294.036 743.97 294.752 744.422 295.502L795.326 379.955C814.239 411.332 754.996 427.255 706.032 403.955L573.418 340.849C572.267 340.301 571.38 339.605 570.893 338.869L511.271 248.631Z" fill="white"/>
<path d="M511.271 248.631C489.965 216.384 551.319 199.614 601.04 224.094L741.944 293.468C743.097 294.036 743.97 294.752 744.422 295.502L795.326 379.955C814.239 411.332 754.996 427.255 706.032 403.955L573.418 340.849C572.267 340.301 571.38 339.605 570.893 338.869L511.271 248.631Z" fill="url(#paint36_linear_73_2131)" fill-opacity="0.2"/>
<path d="M514.162 248.496C493.938 217.887 552.176 201.969 599.372 225.206L740.276 294.579C740.844 294.859 741.273 295.211 741.495 295.58L792.4 380.033C810.352 409.817 754.118 424.932 707.64 402.814L575.027 339.708C574.46 339.439 574.023 339.096 573.784 338.734L514.162 248.496Z" stroke="url(#paint37_linear_73_2131)" stroke-opacity="0.2" stroke-width="5"/>
<path d="M514.162 248.496C493.938 217.887 552.176 201.969 599.372 225.206L740.276 294.579C740.844 294.859 741.273 295.211 741.495 295.58L792.4 380.033C810.352 409.817 754.118 424.932 707.64 402.814L575.027 339.708C574.46 339.439 574.023 339.096 573.784 338.734L514.162 248.496Z" stroke="url(#paint38_linear_73_2131)" stroke-opacity="0.2" stroke-width="5"/>
</g>
<g opacity="0.333333">
<path d="M548.281 238.778C536.463 208.763 590.136 197.789 635.754 220.892L794.262 301.17C795.839 301.969 796.947 303.029 797.283 304.06L828.523 400.007C837.865 428.7 786.589 438.894 742.032 417.202L591.732 344.031C590.156 343.264 589.015 342.232 588.613 341.211L548.281 238.778Z" fill="white"/>
<path d="M548.281 238.778C536.463 208.763 590.136 197.789 635.754 220.892L794.262 301.17C795.839 301.969 796.947 303.029 797.283 304.06L828.523 400.007C837.865 428.7 786.589 438.894 742.032 417.202L591.732 344.031C590.156 343.264 589.015 342.232 588.613 341.211L548.281 238.778Z" fill="url(#paint39_linear_73_2131)" fill-opacity="0.2"/>
<path d="M551.256 239.021C540.038 210.531 590.986 200.113 634.287 222.044L792.795 302.322C793.571 302.715 794.116 303.237 794.282 303.744L825.521 399.691C834.389 426.926 785.717 436.603 743.423 416.013L593.123 342.842C592.347 342.464 591.786 341.957 591.588 341.454L588.617 341.211L591.588 341.454L551.256 239.021Z" stroke="url(#paint40_linear_73_2131)" stroke-opacity="0.2" stroke-width="5"/>
<path d="M551.256 239.021C540.038 210.531 590.986 200.113 634.287 222.044L792.795 302.322C793.571 302.715 794.116 303.237 794.282 303.744L825.521 399.691C834.389 426.926 785.717 436.603 743.423 416.013L593.123 342.842C592.347 342.464 591.786 341.957 591.588 341.454L588.617 341.211L591.588 341.454L551.256 239.021Z" stroke="url(#paint41_linear_73_2131)" stroke-opacity="0.2" stroke-width="5"/>
</g>
<g opacity="0.416667">
<path d="M594.893 234.83C592.147 208.659 637.218 202.195 677.603 222.968L847.069 310.136C849.166 311.215 850.528 312.759 850.558 314.092L852.815 414.373C853.365 438.815 810.799 444.63 771.786 425.442L609.783 345.764C607.687 344.733 606.266 343.227 606.125 341.888L594.893 234.83Z" fill="white"/>
<path d="M594.893 234.83C592.147 208.659 637.218 202.195 677.603 222.968L847.069 310.136C849.166 311.215 850.528 312.759 850.558 314.092L852.815 414.373C853.365 438.815 810.799 444.63 771.786 425.442L609.783 345.764C607.687 344.733 606.266 343.227 606.125 341.888L594.893 234.83Z" fill="url(#paint42_linear_73_2131)" fill-opacity="0.2"/>
<path d="M597.876 235.49C595.27 210.648 638.052 204.512 676.386 224.23L845.852 311.399C846.884 311.93 847.554 312.69 847.569 313.345L849.826 413.627C850.348 436.828 809.944 442.348 772.912 424.134L610.909 344.456C609.877 343.948 609.178 343.207 609.108 342.548L597.876 235.49Z" stroke="url(#paint43_linear_73_2131)" stroke-opacity="0.2" stroke-width="5"/>
<path d="M597.876 235.49C595.27 210.648 638.052 204.512 676.386 224.23L845.852 311.399C846.884 311.93 847.554 312.69 847.569 313.345L849.826 413.627C850.348 436.828 809.944 442.348 772.912 424.134L610.909 344.456C609.877 343.948 609.178 343.207 609.108 342.548L597.876 235.49Z" stroke="url(#paint44_linear_73_2131)" stroke-opacity="0.2" stroke-width="5"/>
</g>
<g opacity="0.5">
<path d="M647.776 235.788C652.537 214.767 688.911 211.577 723.074 229.183L900.014 320.372C902.697 321.754 904.297 323.958 903.772 325.549L871.317 423.87C865.016 442.958 831.038 445.675 798.46 429.695L627.957 346.064C625.28 344.751 623.586 342.593 623.955 340.965L647.776 235.788Z" fill="white"/>
<path d="M647.776 235.788C652.537 214.767 688.911 211.577 723.074 229.183L900.014 320.372C902.697 321.754 904.297 323.958 903.772 325.549L871.317 423.87C865.016 442.958 831.038 445.675 798.46 429.695L627.957 346.064C625.28 344.751 623.586 342.593 623.955 340.965L647.776 235.788Z" fill="url(#paint45_linear_73_2131)" fill-opacity="0.2"/>
<path d="M650.655 236.89C655.174 216.937 689.7 213.908 722.129 230.621L899.068 321.809C900.389 322.49 901.176 323.574 900.918 324.357L868.463 422.679C862.483 440.798 830.23 443.376 799.306 428.208L628.803 344.577C627.485 343.93 626.652 342.868 626.833 342.067L650.655 236.89Z" stroke="url(#paint46_linear_73_2131)" stroke-opacity="0.2" stroke-width="5"/>
<path d="M650.655 236.89C655.174 216.937 689.7 213.908 722.129 230.621L899.068 321.809C900.389 322.49 901.176 323.574 900.918 324.357L868.463 422.679C862.483 440.798 830.23 443.376 799.306 428.208L628.803 344.577C627.485 343.93 626.652 342.868 626.833 342.067L650.655 236.89Z" stroke="url(#paint47_linear_73_2131)" stroke-opacity="0.2" stroke-width="5"/>
</g>
<g opacity="0.583333">
<path d="M704.522 241.193C714.252 225.878 742.624 224.874 770.111 238.872L952.737 331.873C956.011 333.54 957.765 336.596 956.435 338.316L886.452 428.869C876.03 442.354 849.765 443.068 823.886 430.568L646.649 344.963C643.387 343.387 641.504 340.384 642.649 338.582L704.522 241.193Z" fill="white"/>
<path d="M704.522 241.193C714.252 225.878 742.624 224.874 770.111 238.872L952.737 331.873C956.011 333.54 957.765 336.596 956.435 338.316L886.452 428.869C876.03 442.354 849.765 443.068 823.886 430.568L646.649 344.963C643.387 343.387 641.504 340.384 642.649 338.582L704.522 241.193Z" fill="url(#paint48_linear_73_2131)" fill-opacity="0.2"/>
<path d="M707.155 242.731C716.391 228.193 743.321 227.24 769.413 240.527L952.039 333.528C953.65 334.349 954.513 335.852 953.859 336.699L883.876 427.252C873.983 440.052 849.052 440.73 824.487 428.865L647.25 343.26C645.645 342.484 644.718 341.006 645.282 340.119L707.155 242.731Z" stroke="url(#paint49_linear_73_2131)" stroke-opacity="0.2" stroke-width="5"/>
<path d="M707.155 242.731C716.391 228.193 743.321 227.24 769.413 240.527L952.039 333.528C953.65 334.349 954.513 335.852 953.859 336.699L883.876 427.252C873.983 440.052 849.052 440.73 824.487 428.865L647.25 343.26C645.645 342.484 644.718 341.006 645.282 340.119L707.155 242.731Z" stroke="url(#paint50_linear_73_2131)" stroke-opacity="0.2" stroke-width="5"/>
</g>
<g opacity="0.666667">
<path d="M762.898 250.766C774.789 240.772 796.366 241.094 817.483 251.58L1004.85 344.616C1008.65 346.504 1010.37 350.572 1008.07 352.23L900.558 429.701C888.724 438.229 868.875 437.773 849.199 428.522L666.287 342.52C662.501 340.74 660.621 336.723 662.74 334.942L762.898 250.766Z" fill="white"/>
<path d="M762.898 250.766C774.789 240.772 796.366 241.094 817.483 251.58L1004.85 344.616C1008.65 346.504 1010.37 350.572 1008.07 352.23L900.558 429.701C888.724 438.229 868.875 437.773 849.199 428.522L666.287 342.52C662.501 340.74 660.621 336.723 662.74 334.942L762.898 250.766Z" fill="url(#paint51_linear_73_2131)" fill-opacity="0.2"/>
<path d="M765.141 252.69C776.428 243.204 796.91 243.509 816.955 253.462L1004.32 346.498C1006.19 347.428 1007.04 349.43 1005.91 350.246L898.392 427.717C887.159 435.811 868.318 435.379 849.641 426.597L666.729 340.596C664.866 339.72 663.94 337.743 664.983 336.866L765.141 252.69Z" stroke="url(#paint52_linear_73_2131)" stroke-opacity="0.2" stroke-width="5"/>
<path d="M765.141 252.69C776.428 243.204 796.91 243.509 816.955 253.462L1004.32 346.498C1006.19 347.428 1007.04 349.43 1005.91 350.246L898.392 427.717C887.159 435.811 868.318 435.379 849.641 426.597L666.729 340.596C664.866 339.72 663.94 337.743 664.983 336.866L765.141 252.69Z" stroke="url(#paint53_linear_73_2131)" stroke-opacity="0.2" stroke-width="5"/>
</g>
<g opacity="0.75">
<path d="M820.67 264.024C832.45 258.281 848.583 259.313 864.253 266.813L1055.88 358.527C1060.11 360.551 1061.51 365.707 1058.21 367.096L915.869 426.977C904.605 431.716 889.824 430.662 875.325 424.087L687.369 338.849C683.155 336.938 681.583 331.828 684.736 330.291L820.67 264.024Z" fill="white"/>
<path d="M820.67 264.024C832.45 258.281 848.583 259.313 864.253 266.813L1055.88 358.527C1060.11 360.551 1061.51 365.707 1058.21 367.096L915.869 426.977C904.605 431.716 889.824 430.662 875.325 424.087L687.369 338.849C683.155 336.938 681.583 331.828 684.736 330.291L820.67 264.024Z" fill="url(#paint54_linear_73_2131)" fill-opacity="0.2"/>
<path d="M822.41 266.251C833.592 260.8 848.906 261.78 863.78 268.899L1055.41 360.613C1057.49 361.609 1058.18 364.146 1056.56 364.83L914.213 424.712C903.521 429.21 889.49 428.21 875.727 421.968L687.772 336.731C685.698 335.79 684.924 333.275 686.476 332.518L822.41 266.251Z" stroke="url(#paint55_linear_73_2131)" stroke-opacity="0.2" stroke-width="5"/>
<path d="M822.41 266.251C833.592 260.8 848.906 261.78 863.78 268.899L1055.41 360.613C1057.49 361.609 1058.18 364.146 1056.56 364.83L914.213 424.712C903.521 429.21 889.49 428.21 875.727 421.968L687.772 336.731C685.698 335.79 684.924 333.275 686.476 332.518L822.41 266.251Z" stroke="url(#paint56_linear_73_2131)" stroke-opacity="0.2" stroke-width="5"/>
</g>
<g opacity="0.833333">
<path d="M875.906 280.159C886.222 277.39 898.129 278.727 909.509 283.932L1105.24 373.454C1109.8 375.539 1110.52 381.726 1106.31 382.677L934.179 421.591C924.547 423.769 913.664 422.48 903.176 417.918L710.52 334.138C705.969 332.159 705.082 326.007 709.188 324.905L875.906 280.159Z" fill="white"/>
<path d="M875.906 280.159C886.222 277.39 898.129 278.727 909.509 283.932L1105.24 373.454C1109.8 375.539 1110.52 381.726 1106.31 382.677L934.179 421.591C924.547 423.769 913.664 422.48 903.176 417.918L710.52 334.138C705.969 332.159 705.082 326.007 709.188 324.905L875.906 280.159Z" fill="url(#paint57_linear_73_2131)" fill-opacity="0.2"/>
<path d="M877.07 282.587C886.863 279.959 898.165 281.228 908.967 286.168L1104.69 375.69C1106.94 376.717 1107.29 379.762 1105.22 380.23L933.092 419.144C923.95 421.211 913.619 419.987 903.663 415.658L711.008 331.877C708.768 330.903 708.331 327.875 710.352 327.333L877.07 282.587Z" stroke="url(#paint58_linear_73_2131)" stroke-opacity="0.2" stroke-width="5"/>
<path d="M877.07 282.587C886.863 279.959 898.165 281.228 908.967 286.168L1104.69 375.69C1106.94 376.717 1107.29 379.762 1105.22 380.23L933.092 419.144C923.95 421.211 913.619 419.987 903.663 415.658L711.008 331.877C708.768 330.903 708.331 327.875 710.352 327.333L877.07 282.587Z" stroke="url(#paint59_linear_73_2131)" stroke-opacity="0.2" stroke-width="5"/>
</g>
<path opacity="0.64" d="M0 0H1080V260H0V0Z" fill="url(#paint60_linear_73_2131)"/>
<path d="M153.57 98.49H146.55V102.39H153.57V98.49ZM146.55 108.54H153.57V104.4H146.55V108.54ZM150.51 112.98L152.4 112.08C153.93 114.51 155.73 117.75 156.57 119.73L154.56 120.84C154.23 120.03 153.75 118.95 153.18 117.84C145.62 120.51 144.63 120.93 144 121.41C143.85 120.78 143.43 119.7 143.07 119.13C143.58 118.89 144.33 118.38 144.33 117.24V96.48H155.76V110.55H146.55V117.93L152.28 116.07C151.68 114.99 151.05 113.91 150.51 112.98ZM168.33 96.66V113.82C168.33 115.08 168.06 115.71 167.25 116.07C166.44 116.46 165.09 116.49 162.9 116.46C162.81 115.86 162.57 114.96 162.24 114.33C163.8 114.39 165.18 114.39 165.57 114.36C165.99 114.36 166.14 114.24 166.14 113.82V98.76H160.71V122.31H158.52V96.66H168.33ZM184.8 102.72L186.81 103.38C184.08 108.66 179.46 112.89 174.45 115.56C174.21 115.14 173.49 114.21 173.04 113.79C176.19 112.29 179.13 110.16 181.47 107.55C175.68 107.91 174.81 108 174.24 108.24C174.15 107.79 173.79 106.71 173.55 106.14C174.09 106.05 174.63 105.6 175.29 104.91C175.77 104.4 177.3 102.63 178.59 100.68H172.71V98.64H180.42C180.09 97.62 179.46 96.36 178.77 95.31L180.81 94.77C181.65 95.97 182.49 97.56 182.79 98.61L182.7 98.64H188.94V100.68H181.17C179.88 102.57 178.41 104.4 176.91 105.9L183.03 105.63C183.69 104.7 184.32 103.74 184.8 102.72ZM186.75 108.39L188.79 109.17C187.56 111.24 186.12 113.16 184.47 114.9C186.15 116.37 188.25 118.23 189.27 119.46L187.65 120.96C186.66 119.7 184.74 117.84 183.03 116.31C180.39 118.71 177.39 120.72 174.27 122.25C174 121.77 173.31 120.81 172.86 120.36C178.62 117.9 183.81 113.67 186.75 108.39ZM193.23 98.37V114.96H191.1V98.37H193.23ZM196.47 95.31H198.66V119.4C198.66 120.84 198.3 121.44 197.4 121.83C196.47 122.16 194.97 122.22 192.42 122.22C192.33 121.62 192.03 120.69 191.7 120.09C193.53 120.15 195.24 120.15 195.72 120.12C196.26 120.09 196.47 119.94 196.47 119.4V95.31ZM209.37 94.83L211.47 95.49C210.63 97.59 209.55 99.72 208.38 101.73V122.43H206.25V104.94C205.2 106.41 204.06 107.73 202.95 108.84C202.74 108.33 202.11 107.19 201.69 106.68C204.72 103.83 207.63 99.36 209.37 94.83ZM213.6 109.53H218.91C218.94 109.08 218.94 108.63 218.94 108.18V105.09H213.6V109.53ZM226.65 105.09H221.13V108.18C221.13 108.63 221.13 109.08 221.1 109.53H226.65V105.09ZM228.78 111.42H220.98C220.74 113.49 220.2 115.44 219 117.18C222 118.83 225.78 119.85 230.04 120.36C229.56 120.84 229.02 121.71 228.72 122.37C224.49 121.74 220.74 120.57 217.68 118.74C216.18 120.21 214.02 121.47 210.9 122.4C210.66 121.92 210.03 120.99 209.55 120.57C212.49 119.82 214.5 118.77 215.88 117.54C214.11 116.19 212.64 114.57 211.53 112.65L213.39 112.05C214.29 113.61 215.58 114.93 217.17 116.04C218.13 114.63 218.58 113.07 218.79 111.42H211.53V103.2H218.94V100.26H210.66V98.22H218.94V95.01H221.13V98.22H229.77V100.26H221.13V103.2H228.78V111.42ZM247.26 111.03H255.33V106.05H247.26V111.03ZM237.75 111.03H245.04V106.05H237.87V107.82C237.87 108.81 237.84 109.92 237.75 111.03ZM245.04 99.15H237.87V103.95H245.04V99.15ZM255.33 103.95V99.15H247.26V103.95H255.33ZM257.52 97.02V119.28C257.52 120.72 257.13 121.38 256.17 121.77C255.15 122.13 253.41 122.16 250.59 122.13C250.5 121.53 250.14 120.57 249.84 119.97C251.94 120.06 253.98 120.03 254.52 120.03C255.12 120 255.33 119.82 255.33 119.25V113.16H247.26V122.01H245.04V113.16H237.54C237.09 116.49 236.07 119.91 233.79 122.46C233.46 122.01 232.56 121.26 232.08 120.99C235.38 117.27 235.68 111.99 235.68 107.82V97.02H257.52ZM272.58 115.38H280.23V112.8H272.61V114.75C272.61 114.96 272.61 115.17 272.58 115.38ZM268.59 109.5V111.3H283.89V109.5H268.59ZM268.59 106.35V108.06H283.89V106.35H268.59ZM268.59 103.17V104.91H283.89V103.17H268.59ZM280.86 98.97H278.46C277.74 99.99 276.93 100.95 276.15 101.67H282.87C282.45 100.92 281.67 99.84 280.86 98.97ZM289.35 115.38V117.24H282.48V122.25H280.23V117.24H272.16C271.41 119.1 269.46 120.93 264.66 122.34C264.36 121.83 263.76 121.08 263.28 120.66C267 119.73 268.83 118.47 269.67 117.24H262.8V115.38H270.39C270.42 115.14 270.42 114.93 270.42 114.75V112.8H266.4V101.67H269.64C269.34 100.95 268.77 99.84 268.17 98.97H266.64C265.8 100.2 264.9 101.31 264 102.18C263.58 101.85 262.71 101.22 262.17 100.98C264 99.45 265.65 97.11 266.58 94.8L268.62 95.34C268.35 95.94 268.05 96.54 267.75 97.14H275.61V98.97H270.48C270.96 99.69 271.41 100.47 271.62 101.04L270 101.67H275.88C275.37 101.31 274.59 100.89 274.08 100.68C275.91 99.24 277.44 97.05 278.25 94.8L280.38 95.28C280.14 95.91 279.87 96.54 279.54 97.14H289.08V98.97H283.38C283.98 99.63 284.49 100.38 284.79 100.95L283.2 101.67H286.17V112.8H282.48V115.38H289.35ZM305.64 101.43H318.12C318.12 101.43 318.09 102.27 318.06 102.6C317.4 114.9 316.77 119.37 315.45 120.87C314.76 121.71 314.04 121.95 312.9 122.07C311.85 122.16 309.93 122.1 308.1 121.98C308.07 121.32 307.8 120.36 307.35 119.7C309.39 119.88 311.31 119.91 312.06 119.91C312.69 119.91 313.08 119.82 313.44 119.46C314.52 118.44 315.18 114.21 315.75 103.65H305.52C305.1 109.86 303.12 117.12 294.42 122.43C294.06 121.89 293.25 121.02 292.71 120.66C300.84 115.83 302.76 109.26 303.21 103.65H293.61V101.43H303.33C303.33 100.98 303.33 100.56 303.33 100.14V94.95H305.64V100.14C305.64 100.56 305.64 100.98 305.64 101.43ZM330.3 100.05L328.74 101.61C327.81 100.32 325.86 98.31 324.24 96.93L325.71 95.58C327.33 96.9 329.37 98.82 330.3 100.05ZM335.7 106.41H339.54V103.35H336.36V101.67H339.54V99.15H341.37V101.67H344.7V103.35H341.37V106.41H345.51V108.09H335.7V106.41ZM342.63 112.23H338.1V115.83H342.63V112.23ZM344.37 117.51H338.1V118.86H336.36V110.55H344.37V117.51ZM348.63 96.24V119.61C348.63 120.84 348.36 121.44 347.58 121.83C346.77 122.19 345.48 122.22 343.35 122.22C343.26 121.65 342.93 120.72 342.63 120.15C344.19 120.24 345.6 120.21 346.02 120.21C346.44 120.18 346.62 120.03 346.62 119.58V98.25H334.5V107.37C334.5 111.96 334.08 118.2 331.17 122.28C330.81 121.92 330 121.32 329.55 121.11C330.39 119.91 330.96 118.59 331.41 117.21C327.45 120.33 326.73 120.96 326.31 121.44C326.04 121.05 325.32 120.27 324.93 119.94C325.53 119.46 326.61 118.29 326.61 116.73V106.41H322.41V104.28H328.77V116.73L330.93 115.08C331.08 115.5 331.35 116.13 331.59 116.58C332.4 113.52 332.52 110.19 332.52 107.34V96.24H348.63ZM357.06 99.96V105.96C357.06 110.73 356.7 117.6 354.18 122.31C353.76 121.95 352.74 121.47 352.2 121.29C354.63 116.79 354.87 110.43 354.87 105.96V97.89H366.42C366.06 97.05 365.64 96.06 365.22 95.28L367.41 94.74C367.98 95.7 368.58 96.93 368.94 97.89H379.35V99.96H357.06ZM372 105.18H364.74V108.33H372V105.18ZM374.19 110.13H362.61V105.18H357.81V103.32H362.61V100.74H364.74V103.32H372V100.74H374.19V103.32H379.02V105.18H374.19V110.13ZM373.62 113.88H363.27C364.47 115.38 366.21 116.61 368.34 117.6C370.47 116.67 372.33 115.44 373.62 113.88ZM375.57 111.93L376.95 112.71C375.57 115.26 373.38 117.15 370.74 118.59C373.38 119.49 376.44 120.09 379.74 120.39C379.29 120.84 378.75 121.74 378.48 122.31C374.73 121.89 371.22 121.02 368.25 119.73C365.07 120.96 361.44 121.71 357.75 122.13C357.57 121.62 357.15 120.75 356.79 120.27C359.97 119.97 363.12 119.43 365.91 118.53C363.93 117.39 362.31 116.01 361.08 114.3L362.13 113.88H358.2V112.05H375.15L375.57 111.93ZM409.38 109.59V111.78H397.08V122.28H394.8V111.78H382.68V109.59H394.8V99.12H384.24V96.93H407.7V99.12H397.08V109.59H409.38ZM386.34 101.19L388.29 100.59C389.52 102.75 390.75 105.57 391.14 107.34L389.04 108.06C388.62 106.29 387.48 103.38 386.34 101.19ZM402.24 108.15L400.35 107.52C401.46 105.66 402.84 102.6 403.59 100.44L405.93 101.1C404.85 103.5 403.41 106.35 402.24 108.15ZM433.2 111.87H418.71V118.5H433.2V111.87ZM416.46 122.28V109.74H435.54V122.22H433.2V120.66H418.71V122.28H416.46ZM428.94 99.45L430.71 98.31C433.62 100.86 437.07 104.52 438.63 107.01L436.74 108.36C436.29 107.58 435.66 106.71 434.91 105.78C417.78 106.74 416.04 106.8 414.87 107.22C414.78 106.74 414.39 105.63 414.15 105.03C414.81 104.91 415.59 104.25 416.58 103.26C417.66 102.3 421.14 98.52 423.48 94.8L425.67 95.79C423.3 99.03 420.63 102.12 417.99 104.61L433.29 103.86C431.91 102.3 430.38 100.74 428.94 99.45Z" fill="white"/>
<path d="M143.624 143.136L142.744 143.36C142.664 142.416 142.296 140.96 141.88 139.856L142.696 139.664C143.144 140.768 143.512 142.192 143.624 143.136ZM145.048 145.072L145.048 145.424C145.48 145.968 146.808 147.904 147.112 148.4L146.312 149.312C146.104 148.784 145.528 147.728 145.048 146.896L145.048 153.2L143.96 153.2L143.96 147.232C143.464 148.784 142.792 150.288 142.168 151.248C142.04 150.896 141.736 150.352 141.544 150.048C142.36 148.912 143.272 146.832 143.768 145.072L141.704 145.072L141.704 143.952L143.96 143.952L143.96 138.672L145.048 138.672L145.048 143.968L146.824 143.968L146.824 145.072L145.048 145.072ZM145.992 143.376L145.256 143.136C145.608 142.208 146.056 140.64 146.28 139.584L147.256 139.824C146.888 141.008 146.392 142.496 145.992 143.376ZM149.496 149.776L154.12 149.776L154.12 148.592L149.496 148.592L149.496 149.776ZM154.12 146.544L149.496 146.544L149.496 147.728L154.12 147.728L154.12 146.544ZM155.24 145.632L155.24 152C155.24 152.576 155.112 152.864 154.696 153.04C154.296 153.2 153.624 153.216 152.632 153.216C152.584 152.912 152.44 152.512 152.296 152.224C153.016 152.24 153.672 152.24 153.864 152.24C154.072 152.24 154.12 152.176 154.12 152L154.12 150.624L149.496 150.624L149.496 153.216L148.376 153.216L148.376 145.632L155.24 145.632ZM152.296 143.76L156.296 143.76L156.296 144.672L147.368 144.672L147.368 143.76L151.16 143.76L151.16 142.672L148.216 142.672L148.216 141.808L151.16 141.808L151.16 140.832L147.816 140.832L147.816 139.92L151.16 139.92L151.16 138.64L152.296 138.64L152.296 139.92L155.88 139.92L155.88 140.832L152.296 140.832L152.296 141.808L155.544 141.808L155.544 142.672L152.296 142.672L152.296 143.76ZM157.848 152.304L157.656 151.136C159.112 150.912 161.336 150.48 163.496 150.096L163.56 151.168C161.528 151.568 159.416 151.984 157.848 152.304ZM159.288 143.904L161.736 143.68C162.072 143.2 162.424 142.672 162.744 142.176L163.752 142.816C162.584 144.512 161.208 146.144 159.864 147.488L163.48 146.976C163.464 147.296 163.496 147.76 163.528 148C158.984 148.72 158.424 148.864 158.056 149.024C158.024 148.8 157.832 148.224 157.688 147.92C158.056 147.856 158.456 147.472 159 146.928C159.336 146.624 160.088 145.792 160.92 144.768C158.632 145.008 158.232 145.088 157.976 145.216C157.912 144.96 157.72 144.384 157.576 144.08C157.88 144 158.184 143.616 158.568 143.072C158.968 142.544 160.264 140.496 161.048 138.56L162.2 139.056C161.368 140.784 160.328 142.544 159.288 143.904ZM168.44 150.848L170.696 150.848L170.696 146.352L168.44 146.352L168.44 150.848ZM165.032 146.352L165.032 150.848L167.336 150.848L167.336 146.352L165.032 146.352ZM167.336 140.64L165.032 140.64L165.032 145.232L167.336 145.232L167.336 140.64ZM170.696 145.232L170.696 140.64L168.44 140.64L168.44 145.232L170.696 145.232ZM163.928 139.456L171.832 139.456L171.832 152.864L170.696 152.864L170.696 151.968L165.032 151.968L165.032 153.008L163.928 153.008L163.928 139.456ZM177.96 141.36L177.128 142.192C176.632 141.504 175.592 140.432 174.728 139.696L175.512 138.976C176.376 139.68 177.464 140.704 177.96 141.36ZM180.84 144.752L182.888 144.752L182.888 143.12L181.192 143.12L181.192 142.224L182.888 142.224L182.888 140.88L183.864 140.88L183.864 142.224L185.64 142.224L185.64 143.12L183.864 143.12L183.864 144.752L186.072 144.752L186.072 145.648L180.84 145.648L180.84 144.752ZM184.536 147.856L182.12 147.856L182.12 149.776L184.536 149.776L184.536 147.856ZM185.464 150.672L182.12 150.672L182.12 151.392L181.192 151.392L181.192 146.96L185.464 146.96L185.464 150.672ZM187.736 139.328L187.736 151.792C187.736 152.448 187.592 152.768 187.176 152.976C186.744 153.168 186.056 153.184 184.92 153.184C184.872 152.88 184.696 152.384 184.536 152.08C185.368 152.128 186.12 152.112 186.344 152.112C186.568 152.096 186.664 152.016 186.664 151.776L186.664 140.4L180.2 140.4L180.2 145.264C180.2 147.712 179.976 151.04 178.424 153.216C178.232 153.024 177.8 152.704 177.56 152.592C178.008 151.952 178.312 151.248 178.552 150.512C176.44 152.176 176.056 152.512 175.832 152.768C175.688 152.56 175.304 152.144 175.096 151.968C175.416 151.712 175.992 151.088 175.992 150.256L175.992 144.752L173.752 144.752L173.752 143.616L177.144 143.616L177.144 150.256L178.296 149.376C178.376 149.6 178.52 149.936 178.648 150.176C179.08 148.544 179.144 146.768 179.144 145.248L179.144 139.328L187.736 139.328ZM192.232 141.312L192.232 144.512C192.232 147.056 192.04 150.72 190.696 153.232C190.472 153.04 189.928 152.784 189.64 152.688C190.936 150.288 191.064 146.896 191.064 144.512L191.064 140.208L197.224 140.208C197.032 139.76 196.808 139.232 196.584 138.816L197.752 138.528C198.056 139.04 198.376 139.696 198.568 140.208L204.12 140.208L204.12 141.312L192.232 141.312ZM200.2 144.096L196.328 144.096L196.328 145.776L200.2 145.776L200.2 144.096ZM201.368 146.736L195.192 146.736L195.192 144.096L192.632 144.096L192.632 143.104L195.192 143.104L195.192 141.728L196.328 141.728L196.328 143.104L200.2 143.104L200.2 141.728L201.368 141.728L201.368 143.104L203.944 143.104L203.944 144.096L201.368 144.096L201.368 146.736ZM201.064 148.736L195.544 148.736C196.184 149.536 197.112 150.192 198.248 150.72C199.384 150.224 200.376 149.568 201.064 148.736ZM202.104 147.696L202.84 148.112C202.104 149.472 200.936 150.48 199.528 151.248C200.936 151.728 202.568 152.048 204.328 152.208C204.088 152.448 203.8 152.928 203.656 153.232C201.656 153.008 199.784 152.544 198.2 151.856C196.504 152.512 194.568 152.912 192.6 153.136C192.504 152.864 192.28 152.4 192.088 152.144C193.784 151.984 195.464 151.696 196.952 151.216C195.896 150.608 195.032 149.872 194.376 148.96L194.936 148.736L192.84 148.736L192.84 147.76L201.88 147.76L202.104 147.696ZM219.736 141.296L209.272 141.296C208.488 142.56 207.608 143.712 206.744 144.576C206.488 144.384 205.992 144.048 205.688 143.872C207.16 142.592 208.536 140.544 209.368 138.528L210.536 138.864C210.328 139.312 210.12 139.776 209.88 140.224L219.736 140.224L219.736 141.296ZM214.024 150.096L216.648 150.096C216.712 149.44 216.776 148.592 216.84 147.504L209.176 147.504C209.048 148.432 208.904 149.328 208.776 150.096L213.72 150.096C213.048 149.472 211.88 148.688 210.856 148.16L211.528 147.504C212.616 148.016 213.928 148.848 214.568 149.504L214.024 150.096ZM216.984 143.968L209.656 143.968C209.544 144.784 209.432 145.632 209.304 146.48L214.104 146.48C213.48 145.904 212.296 145.136 211.256 144.688L211.928 144.016C212.968 144.464 214.2 145.2 214.84 145.776L214.152 146.48L216.888 146.48C216.92 145.728 216.952 144.912 216.984 143.968ZM220.28 147.536L218.008 147.536C217.944 148.576 217.896 149.424 217.816 150.096L219.736 150.096L219.736 151.152L217.688 151.152C217.56 151.952 217.4 152.384 217.224 152.64C216.92 153.024 216.584 153.168 216.104 153.216C215.64 153.248 214.84 153.232 214.056 153.184C214.04 152.912 213.912 152.512 213.752 152.24C214.568 152.304 215.304 152.32 215.608 152.304C215.896 152.304 216.04 152.272 216.2 152.08C216.312 151.952 216.424 151.648 216.52 151.152L207.384 151.152C207.56 150.176 207.784 148.896 207.992 147.536L205.736 147.536L205.736 146.448L208.152 146.448C208.312 145.216 208.488 143.984 208.6 142.912L218.168 142.912C218.168 142.912 218.152 143.344 218.152 143.488C218.12 144.608 218.072 145.584 218.04 146.448L220.28 146.448L220.28 147.536ZM221.752 145.12L236.232 145.12L236.232 146.416L221.752 146.416L221.752 145.12ZM240.088 144.624L249.944 144.624C249.944 144.624 249.928 145.04 249.912 145.2C249.688 150.048 249.48 151.872 248.936 152.48C248.584 152.88 248.248 153.008 247.688 153.04C247.16 153.088 246.168 153.072 245.176 153.008C245.16 152.656 245.016 152.16 244.792 151.824C245.832 151.92 246.792 151.936 247.176 151.936C247.512 151.936 247.688 151.888 247.864 151.728C248.264 151.328 248.488 149.76 248.68 145.792L244.344 145.792C243.912 148.944 242.856 151.808 238.84 153.28C238.68 152.976 238.344 152.496 238.088 152.272C241.848 151.008 242.728 148.48 243.096 145.792L240.024 145.792L240.024 144.688C239.624 145.12 239.192 145.504 238.776 145.856C238.552 145.616 238.056 145.168 237.752 144.944C239.656 143.568 241.272 141.36 242.2 138.928L243.464 139.28C242.648 141.312 241.432 143.184 240.088 144.624ZM246.664 139.344L247.736 138.896C248.728 141.056 250.648 143.456 252.312 144.704C251.992 144.944 251.576 145.392 251.352 145.712C249.688 144.256 247.784 141.696 246.664 139.344ZM259.176 149.536L263.256 149.536L263.256 148.16L259.192 148.16L259.192 149.2C259.192 149.312 259.192 149.424 259.176 149.536ZM257.048 146.4L257.048 147.36L265.208 147.36L265.208 146.4L257.048 146.4ZM257.048 144.72L257.048 145.632L265.208 145.632L265.208 144.72L257.048 144.72ZM257.048 143.024L257.048 143.952L265.208 143.952L265.208 143.024L257.048 143.024ZM263.592 140.784L262.312 140.784C261.928 141.328 261.496 141.84 261.08 142.224L264.664 142.224C264.44 141.824 264.024 141.248 263.592 140.784ZM268.12 149.536L268.12 150.528L264.456 150.528L264.456 153.2L263.256 153.2L263.256 150.528L258.952 150.528C258.552 151.52 257.512 152.496 254.952 153.248C254.792 152.976 254.472 152.576 254.216 152.352C256.2 151.856 257.176 151.184 257.624 150.528L253.96 150.528L253.96 149.536L258.008 149.536C258.024 149.408 258.024 149.296 258.024 149.2L258.024 148.16L255.88 148.16L255.88 142.224L257.608 142.224C257.448 141.84 257.144 141.248 256.824 140.784L256.008 140.784C255.56 141.44 255.08 142.032 254.6 142.496C254.376 142.32 253.912 141.984 253.624 141.856C254.6 141.04 255.48 139.792 255.976 138.56L257.064 138.848C256.92 139.168 256.76 139.488 256.6 139.808L260.792 139.808L260.792 140.784L258.056 140.784C258.312 141.168 258.552 141.584 258.664 141.888L257.8 142.224L260.936 142.224C260.664 142.032 260.248 141.808 259.976 141.696C260.952 140.928 261.768 139.76 262.2 138.56L263.336 138.816C263.208 139.152 263.064 139.488 262.888 139.808L267.976 139.808L267.976 140.784L264.936 140.784C265.256 141.136 265.528 141.536 265.688 141.84L264.84 142.224L266.424 142.224L266.424 148.16L264.456 148.16L264.456 149.536L268.12 149.536ZM276.808 142.096L283.464 142.096C283.464 142.096 283.448 142.544 283.432 142.72C283.08 149.28 282.744 151.664 282.04 152.464C281.672 152.912 281.288 153.04 280.68 153.104C280.12 153.152 279.096 153.12 278.12 153.056C278.104 152.704 277.96 152.192 277.72 151.84C278.808 151.936 279.832 151.952 280.232 151.952C280.568 151.952 280.776 151.904 280.968 151.712C281.544 151.168 281.896 148.912 282.2 143.28L276.744 143.28C276.52 146.592 275.464 150.464 270.824 153.296C270.632 153.008 270.2 152.544 269.912 152.352C274.248 149.776 275.272 146.272 275.512 143.28L270.392 143.28L270.392 142.096L275.576 142.096C275.576 141.856 275.576 141.632 275.576 141.408L275.576 138.64L276.808 138.64L276.808 141.408C276.808 141.632 276.808 141.856 276.808 142.096ZM287.512 153.712L287.16 152.864C288.392 152.352 289.096 151.6 289.176 150.512C289.08 150.528 289 150.528 288.904 150.528C288.248 150.528 287.704 150.144 287.704 149.392C287.704 148.64 288.264 148.24 288.92 148.24C289.8 148.24 290.28 148.96 290.28 150.08C290.28 151.808 289.192 153.12 287.512 153.712ZM303.832 147.264L303.832 150.016C304.76 149.824 305.768 149.6 306.824 149.376L306.824 147.264L303.832 147.264ZM306.824 140.48L303.832 140.48L303.832 142.816L306.824 142.816L306.824 140.48ZM306.824 146.192L306.824 143.888L303.832 143.888L303.832 146.192L306.824 146.192ZM308.824 148.944L308.904 150.016C306.408 150.608 303.72 151.232 301.816 151.664L301.608 150.464L302.744 150.24L302.744 139.392L307.944 139.392L307.944 149.136L308.824 148.944ZM312.216 142.224L315.832 142.224C315.832 142.224 315.816 142.672 315.816 142.816C315.656 149.52 315.496 151.792 314.968 152.496C314.664 152.912 314.328 153.04 313.816 153.104C313.336 153.152 312.472 153.12 311.624 153.088C311.592 152.736 311.48 152.256 311.272 151.952C312.184 152.016 313.016 152.016 313.352 152.016C313.624 152.032 313.8 151.984 313.944 151.776C314.344 151.296 314.52 149.184 314.664 143.36L312.168 143.36C311.928 147.52 311.048 151.12 307.816 153.264C307.64 152.976 307.256 152.56 306.952 152.384C309.992 150.48 310.792 147.184 311.016 143.36L308.472 143.36L308.472 142.224L311.064 142.224C311.112 141.056 311.112 139.856 311.112 138.624L312.264 138.624C312.264 139.856 312.264 141.056 312.216 142.224ZM324.808 142.096L331.464 142.096C331.464 142.096 331.448 142.544 331.432 142.72C331.08 149.28 330.744 151.664 330.04 152.464C329.672 152.912 329.288 153.04 328.68 153.104C328.12 153.152 327.096 153.12 326.12 153.056C326.104 152.704 325.96 152.192 325.72 151.84C326.808 151.936 327.832 151.952 328.232 151.952C328.568 151.952 328.776 151.904 328.968 151.712C329.544 151.168 329.896 148.912 330.2 143.28L324.744 143.28C324.52 146.592 323.464 150.464 318.824 153.296C318.632 153.008 318.2 152.544 317.912 152.352C322.248 149.776 323.272 146.272 323.512 143.28L318.392 143.28L318.392 142.096L323.576 142.096C323.576 141.856 323.576 141.632 323.576 141.408L323.576 138.64L324.808 138.64L324.808 141.408C324.808 141.632 324.808 141.856 324.808 142.096ZM342.936 142.688L342.824 142.96C343.192 144.848 343.704 146.592 344.44 148.064C345.208 146.592 345.704 144.8 346.024 142.688L342.936 142.688ZM348.296 142.688L347.224 142.688C346.792 145.344 346.152 147.488 345.112 149.232C345.976 150.56 347.064 151.584 348.44 152.224C348.184 152.464 347.816 152.928 347.624 153.232C346.312 152.544 345.256 151.536 344.408 150.288C343.496 151.488 342.312 152.48 340.808 153.264C340.68 152.992 340.344 152.48 340.12 152.224C341.688 151.472 342.856 150.48 343.752 149.2C343.048 147.888 342.52 146.352 342.104 144.656C341.784 145.296 341.432 145.888 341.064 146.4C340.872 146.192 340.376 145.792 340.12 145.616L340.2 145.504L338.408 145.504L338.408 149.568L341.144 148.944L341.256 150.016C338.632 150.656 335.8 151.328 333.816 151.776L333.592 150.592L334.536 150.4L334.536 143.296L335.624 143.296L335.624 150.16L337.256 149.808L337.256 140.896L333.864 140.896L333.864 139.744L341.176 139.744L341.176 140.896L338.408 140.896L338.408 144.384L340.584 144.384L340.584 144.944C341.656 143.28 342.376 141.008 342.808 138.608L343.992 138.816C343.8 139.76 343.56 140.704 343.304 141.568L348.296 141.568L348.296 142.688ZM357.752 147.696L357.752 151.664L363.864 151.664L363.864 152.752L350.328 152.752L350.328 151.664L352.344 151.664L352.344 145.76L353.512 145.76L353.512 151.664L356.52 151.664L356.52 142.96L357.752 142.96L357.752 146.624L362.376 146.624L362.376 147.696L357.752 147.696ZM356.968 138.464L358.04 138.976C357.928 139.152 357.8 139.312 357.672 139.488C359.672 141.824 362.008 143.184 364.488 144.272C364.216 144.528 363.88 144.928 363.72 145.28C361.288 144.096 359.08 142.72 357.032 140.32C355.304 142.384 352.92 144.144 350.408 145.264C350.232 144.96 349.896 144.56 349.592 144.272C352.536 143.088 355.416 140.896 356.968 138.464ZM379.736 141.296L369.272 141.296C368.488 142.56 367.608 143.712 366.744 144.576C366.488 144.384 365.992 144.048 365.688 143.872C367.16 142.592 368.536 140.544 369.368 138.528L370.536 138.864C370.328 139.312 370.12 139.776 369.88 140.224L379.736 140.224L379.736 141.296ZM374.024 150.096L376.648 150.096C376.712 149.44 376.776 148.592 376.84 147.504L369.176 147.504C369.048 148.432 368.904 149.328 368.776 150.096L373.72 150.096C373.048 149.472 371.88 148.688 370.856 148.16L371.528 147.504C372.616 148.016 373.928 148.848 374.568 149.504L374.024 150.096ZM376.984 143.968L369.656 143.968C369.544 144.784 369.432 145.632 369.304 146.48L374.104 146.48C373.48 145.904 372.296 145.136 371.256 144.688L371.928 144.016C372.968 144.464 374.2 145.2 374.84 145.776L374.152 146.48L376.888 146.48C376.92 145.728 376.952 144.912 376.984 143.968ZM380.28 147.536L378.008 147.536C377.944 148.576 377.896 149.424 377.816 150.096L379.736 150.096L379.736 151.152L377.688 151.152C377.56 151.952 377.4 152.384 377.224 152.64C376.92 153.024 376.584 153.168 376.104 153.216C375.64 153.248 374.84 153.232 374.056 153.184C374.04 152.912 373.912 152.512 373.752 152.24C374.568 152.304 375.304 152.32 375.608 152.304C375.896 152.304 376.04 152.272 376.2 152.08C376.312 151.952 376.424 151.648 376.52 151.152L367.384 151.152C367.56 150.176 367.784 148.896 367.992 147.536L365.736 147.536L365.736 146.448L368.152 146.448C368.312 145.216 368.488 143.984 368.6 142.912L378.168 142.912C378.168 142.912 378.152 143.344 378.152 143.488C378.12 144.608 378.072 145.584 378.04 146.448L380.28 146.448L380.28 147.536ZM381.752 145.12L396.232 145.12L396.232 146.416L381.752 146.416L381.752 145.12ZM411.928 144.608L405.688 144.608L405.688 149.6C407.416 148.56 408.696 147.2 409.576 145.44L410.696 145.968C408.6 150.08 404.584 152.208 398.488 153.136C398.376 152.8 398.136 152.32 397.88 152.032C401.032 151.6 403.608 150.832 405.608 149.648L404.456 149.648L404.456 144.608L398.008 144.608L398.008 143.472L400.408 143.472L400.408 139.872L401.592 139.872L401.592 143.472L404.568 143.472L404.568 138.624L405.8 138.624L405.8 140.32L410.472 140.32L410.472 141.44L405.8 141.44L405.8 143.472L411.928 143.472L411.928 144.608ZM401.688 145.296L402.824 145.68C401.96 147.152 400.6 148.656 399.368 149.632C399.176 149.392 398.744 148.928 398.472 148.736C399.688 147.888 400.936 146.592 401.688 145.296ZM416.04 148.768L419.576 148.768L419.576 147.168L416.04 147.168L416.04 148.768ZM419.576 144.672L416.04 144.672L416.04 146.24L419.576 146.24L419.576 144.672ZM420.728 143.648L420.728 151.856C420.728 152.464 420.584 152.768 420.152 152.96C419.704 153.152 419.016 153.152 417.928 153.152C417.864 152.848 417.704 152.416 417.544 152.112C418.344 152.144 419.064 152.144 419.272 152.128C419.512 152.112 419.576 152.048 419.576 151.84L419.576 149.712L416.04 149.712L416.04 153.152L414.904 153.152L414.904 143.648L420.728 143.648ZM425.88 151.728L425.88 143.328L427.048 143.328L427.048 151.728C427.048 152.448 426.888 152.768 426.408 152.96C425.896 153.152 425.096 153.184 423.88 153.168C423.816 152.848 423.624 152.352 423.448 152.032C424.424 152.064 425.288 152.064 425.528 152.048C425.8 152.032 425.88 151.968 425.88 151.728ZM423.768 143.808L423.768 150.304L422.664 150.304L422.664 143.808L423.768 143.808ZM424.376 141.136L428.12 141.136L428.12 142.224L413.912 142.224L413.912 141.136L417.832 141.136C417.544 140.512 416.92 139.648 416.376 139.008L417.464 138.592C418.088 139.264 418.76 140.208 419.064 140.832L418.28 141.136L423.048 141.136C423.592 140.368 424.2 139.312 424.552 138.544L425.8 138.96C425.368 139.696 424.84 140.48 424.376 141.136ZM443.8 139.584L443.8 140.704L435.96 140.704L435.96 139.584L443.8 139.584ZM433.288 138.608L434.44 139.056C433.384 140.48 431.752 142.048 430.296 143.056C430.136 142.8 429.784 142.336 429.56 142.112C430.92 141.232 432.488 139.776 433.288 138.608ZM433.928 142.016L435.048 142.432C434.552 143.232 433.96 144.048 433.304 144.832L433.304 153.28L432.104 153.28L432.104 146.16C431.496 146.784 430.872 147.344 430.28 147.824C430.104 147.568 429.672 147.072 429.416 146.848C431.08 145.68 432.824 143.824 433.928 142.016ZM444.184 143.952L444.184 145.088L441.816 145.088L441.816 151.68C441.816 152.416 441.624 152.736 441.08 152.928C440.52 153.088 439.624 153.104 438.152 153.088C438.088 152.784 437.896 152.304 437.72 152C438.84 152.032 439.912 152.032 440.216 152.016C440.52 152 440.6 151.936 440.6 151.664L440.6 145.088L435.272 145.088L435.272 143.952L444.184 143.952ZM448.472 148.128L448.088 141.92L448.04 140.032L449.96 140.032L449.928 141.92L449.528 148.128L448.472 148.128ZM449 152.08C448.296 152.08 447.72 151.6 447.72 150.816C447.72 150.064 448.296 149.568 449 149.568C449.704 149.568 450.28 150.064 450.28 150.816C450.28 151.6 449.704 152.08 449 152.08Z" fill="white"/>
</g>
<defs>
<linearGradient id="paint0_linear_73_2131" x1="0" y1="130" x2="1080" y2="130" gradientUnits="userSpaceOnUse">
<stop stop-color="#EEF4FF"/>
<stop offset="0.755875" stop-color="#DFEAFF"/>
<stop offset="1" stop-color="#EEF4FF"/>
</linearGradient>
<linearGradient id="paint1_linear_73_2131" x1="0" y1="130" x2="1080" y2="130" gradientUnits="userSpaceOnUse">
<stop stop-color="#0F62F0"/>
<stop offset="1" stop-color="#0F62F0" stop-opacity="0"/>
</linearGradient>
<linearGradient id="paint2_linear_73_2131" x1="0" y1="0" x2="1110" y2="260" gradientUnits="userSpaceOnUse">
<stop stop-color="white"/>
<stop offset="0.335" stop-color="#5261EA"/>
<stop offset="0.56" stop-color="#BF50E1"/>
<stop offset="0.765" stop-color="#337EFF"/>
<stop offset="1" stop-color="#337EFF"/>
</linearGradient>
<linearGradient id="paint3_linear_73_2131" x1="0" y1="260" x2="1080" y2="4.03478e-06" gradientUnits="userSpaceOnUse">
<stop stop-color="white" stop-opacity="0"/>
<stop offset="0.125" stop-color="white" stop-opacity="0.125"/>
<stop offset="0.29" stop-color="white" stop-opacity="0.29"/>
<stop offset="0.7" stop-color="white" stop-opacity="0.7"/>
<stop offset="1" stop-color="white"/>
</linearGradient>
<linearGradient id="paint4_linear_73_2131" x1="1080" y1="260" x2="-9.71335e-07" y2="4.03477e-06" gradientUnits="userSpaceOnUse">
<stop stop-color="white" stop-opacity="0"/>
<stop offset="0.215" stop-color="#3861A7" stop-opacity="0.215"/>
<stop offset="0.35" stop-color="#3F7BE1" stop-opacity="0.35"/>
<stop offset="0.73" stop-color="#226AE5" stop-opacity="0.73"/>
<stop offset="1" stop-color="#003DA6"/>
</linearGradient>
<linearGradient id="paint5_linear_73_2131" x1="1080" y1="260" x2="-9.71335e-07" y2="4.03477e-06" gradientUnits="userSpaceOnUse">
<stop stop-color="white" stop-opacity="0"/>
<stop offset="0.19" stop-color="#3167C3" stop-opacity="0.19"/>
<stop offset="0.33" stop-color="#91B5F4" stop-opacity="0.33"/>
<stop offset="0.6" stop-color="#6C7F9F" stop-opacity="0.6"/>
<stop offset="0.73" stop-color="#487BD3" stop-opacity="0.73"/>
<stop offset="0.845" stop-color="#266BE3" stop-opacity="0.845"/>
<stop offset="1" stop-color="#044AC2"/>
</linearGradient>
<linearGradient id="paint6_linear_73_2131" x1="1041.92" y1="646.777" x2="589.855" y2="-170.297" gradientUnits="userSpaceOnUse">
<stop stop-color="white" stop-opacity="0.5"/>
<stop offset="0.26" stop-color="white" stop-opacity="0.63"/>
<stop offset="0.42" stop-color="white" stop-opacity="0.71"/>
<stop offset="1" stop-color="white" stop-opacity="0.5"/>
</linearGradient>
<linearGradient id="paint7_linear_73_2131" x1="955.532" y1="651.454" x2="576.928" y2="-149.28" gradientUnits="userSpaceOnUse">
<stop stop-color="white" stop-opacity="0.5"/>
<stop offset="0.26" stop-color="white" stop-opacity="0.63"/>
<stop offset="0.42" stop-color="white" stop-opacity="0.71"/>
<stop offset="1" stop-color="white" stop-opacity="0.5"/>
</linearGradient>
<linearGradient id="paint8_linear_73_2131" x1="871.516" y1="651.758" x2="556.602" y2="-131.458" gradientUnits="userSpaceOnUse">
<stop stop-color="white" stop-opacity="0.5"/>
<stop offset="0.26" stop-color="white" stop-opacity="0.63"/>
<stop offset="0.42" stop-color="white" stop-opacity="0.71"/>
<stop offset="1" stop-color="white" stop-opacity="0.5"/>
</linearGradient>
<linearGradient id="paint9_linear_73_2131" x1="790.513" y1="647.844" x2="531.307" y2="-117.957" gradientUnits="userSpaceOnUse">
<stop stop-color="white" stop-opacity="0.5"/>
<stop offset="0.26" stop-color="white" stop-opacity="0.63"/>
<stop offset="0.42" stop-color="white" stop-opacity="0.71"/>
<stop offset="1" stop-color="white" stop-opacity="0.5"/>
</linearGradient>
<linearGradient id="paint10_linear_73_2131" x1="713.126" y1="639.901" x2="503.208" y2="-109.401" gradientUnits="userSpaceOnUse">
<stop stop-color="white" stop-opacity="0.5"/>
<stop offset="0.26" stop-color="white" stop-opacity="0.63"/>
<stop offset="0.42" stop-color="white" stop-opacity="0.71"/>
<stop offset="1" stop-color="white" stop-opacity="0.5"/>
</linearGradient>
<linearGradient id="paint11_linear_73_2131" x1="639.914" y1="628.145" x2="474.213" y2="-106.072" gradientUnits="userSpaceOnUse">
<stop stop-color="white" stop-opacity="0.5"/>
<stop offset="0.26" stop-color="white" stop-opacity="0.63"/>
<stop offset="0.42" stop-color="white" stop-opacity="0.71"/>
<stop offset="1" stop-color="white" stop-opacity="0.5"/>
</linearGradient>
<linearGradient id="paint12_linear_73_2131" x1="571.38" y1="612.824" x2="445.992" y2="-108.013" gradientUnits="userSpaceOnUse">
<stop stop-color="white" stop-opacity="0.5"/>
<stop offset="0.26" stop-color="white" stop-opacity="0.63"/>
<stop offset="0.42" stop-color="white" stop-opacity="0.71"/>
<stop offset="1" stop-color="white" stop-opacity="0.5"/>
</linearGradient>
<linearGradient id="paint13_linear_73_2131" x1="507.978" y1="594.208" x2="420.017" y2="-115.101" gradientUnits="userSpaceOnUse">
<stop stop-color="white" stop-opacity="0.5"/>
<stop offset="0.26" stop-color="white" stop-opacity="0.63"/>
<stop offset="0.42" stop-color="white" stop-opacity="0.71"/>
<stop offset="1" stop-color="white" stop-opacity="0.5"/>
</linearGradient>
<linearGradient id="paint14_linear_73_2131" x1="450.101" y1="572.591" x2="397.589" y2="-127.096" gradientUnits="userSpaceOnUse">
<stop stop-color="white" stop-opacity="0.5"/>
<stop offset="0.26" stop-color="white" stop-opacity="0.63"/>
<stop offset="0.42" stop-color="white" stop-opacity="0.71"/>
<stop offset="1" stop-color="white" stop-opacity="0.5"/>
</linearGradient>
<linearGradient id="paint15_linear_73_2131" x1="398.086" y1="548.284" x2="379.875" y2="-143.668" gradientUnits="userSpaceOnUse">
<stop stop-color="white" stop-opacity="0.5"/>
<stop offset="0.26" stop-color="white" stop-opacity="0.63"/>
<stop offset="0.42" stop-color="white" stop-opacity="0.71"/>
<stop offset="1" stop-color="white" stop-opacity="0.5"/>
</linearGradient>
<linearGradient id="paint16_linear_73_2131" x1="352.206" y1="521.618" x2="367.937" y2="-164.408" gradientUnits="userSpaceOnUse">
<stop stop-color="white" stop-opacity="0.5"/>
<stop offset="0.26" stop-color="white" stop-opacity="0.63"/>
<stop offset="0.42" stop-color="white" stop-opacity="0.71"/>
<stop offset="1" stop-color="white" stop-opacity="0.5"/>
</linearGradient>
<linearGradient id="paint17_linear_73_2131" x1="312.674" y1="492.932" x2="362.763" y2="-188.833" gradientUnits="userSpaceOnUse">
<stop stop-color="white" stop-opacity="0.5"/>
<stop offset="0.26" stop-color="white" stop-opacity="0.63"/>
<stop offset="0.42" stop-color="white" stop-opacity="0.71"/>
<stop offset="1" stop-color="white" stop-opacity="0.5"/>
</linearGradient>
<linearGradient id="paint18_linear_73_2131" x1="1032.83" y1="-274.075" x2="1043.53" y2="476.374" gradientUnits="userSpaceOnUse">
<stop stop-color="white" stop-opacity="0.5"/>
<stop offset="0.26" stop-color="white" stop-opacity="0.63"/>
<stop offset="0.42" stop-color="white" stop-opacity="0.71"/>
<stop offset="1" stop-color="white" stop-opacity="0.5"/>
</linearGradient>
<linearGradient id="paint19_linear_73_2131" x1="1093.27" y1="-244.61" x2="1056.72" y2="467.66" gradientUnits="userSpaceOnUse">
<stop stop-color="white" stop-opacity="0.5"/>
<stop offset="0.26" stop-color="white" stop-opacity="0.63"/>
<stop offset="0.42" stop-color="white" stop-opacity="0.71"/>
<stop offset="1" stop-color="white" stop-opacity="0.5"/>
</linearGradient>
<linearGradient id="paint20_linear_73_2131" x1="1150.4" y1="-212.944" x2="1073.94" y2="463.495" gradientUnits="userSpaceOnUse">
<stop stop-color="white" stop-opacity="0.5"/>
<stop offset="0.26" stop-color="white" stop-opacity="0.63"/>
<stop offset="0.42" stop-color="white" stop-opacity="0.71"/>
<stop offset="1" stop-color="white" stop-opacity="0.5"/>
</linearGradient>
<linearGradient id="paint21_linear_73_2131" x1="1203.85" y1="-179.432" x2="1093.12" y2="463.861" gradientUnits="userSpaceOnUse">
<stop stop-color="white" stop-opacity="0.5"/>
<stop offset="0.26" stop-color="white" stop-opacity="0.63"/>
<stop offset="0.42" stop-color="white" stop-opacity="0.71"/>
<stop offset="1" stop-color="white" stop-opacity="0.5"/>
</linearGradient>
<linearGradient id="paint22_linear_73_2131" x1="1253.26" y1="-144.436" x2="1112.55" y2="468.462" gradientUnits="userSpaceOnUse">
<stop stop-color="white" stop-opacity="0.5"/>
<stop offset="0.26" stop-color="white" stop-opacity="0.63"/>
<stop offset="0.42" stop-color="white" stop-opacity="0.71"/>
<stop offset="1" stop-color="white" stop-opacity="0.5"/>
</linearGradient>
<linearGradient id="paint23_linear_73_2131" x1="1298.36" y1="-108.32" x2="1130.82" y2="476.839" gradientUnits="userSpaceOnUse">
<stop stop-color="white" stop-opacity="0.5"/>
<stop offset="0.26" stop-color="white" stop-opacity="0.63"/>
<stop offset="0.42" stop-color="white" stop-opacity="0.71"/>
<stop offset="1" stop-color="white" stop-opacity="0.5"/>
</linearGradient>
<linearGradient id="paint24_linear_73_2131" x1="1338.89" y1="-71.4528" x2="1146.75" y2="488.433" gradientUnits="userSpaceOnUse">
<stop stop-color="white" stop-opacity="0.5"/>
<stop offset="0.26" stop-color="white" stop-opacity="0.63"/>
<stop offset="0.42" stop-color="white" stop-opacity="0.71"/>
<stop offset="1" stop-color="white" stop-opacity="0.5"/>
</linearGradient>
<linearGradient id="paint25_linear_73_2131" x1="1374.66" y1="-34.1967" x2="1159.35" y2="502.628" gradientUnits="userSpaceOnUse">
<stop stop-color="white" stop-opacity="0.5"/>
<stop offset="0.26" stop-color="white" stop-opacity="0.63"/>
<stop offset="0.42" stop-color="white" stop-opacity="0.71"/>
<stop offset="1" stop-color="white" stop-opacity="0.5"/>
</linearGradient>
<linearGradient id="paint26_linear_73_2131" x1="1405.51" y1="3.08997" x2="1167.82" y2="518.776" gradientUnits="userSpaceOnUse">
<stop stop-color="white" stop-opacity="0.5"/>
<stop offset="0.26" stop-color="white" stop-opacity="0.63"/>
<stop offset="0.42" stop-color="white" stop-opacity="0.71"/>
<stop offset="1" stop-color="white" stop-opacity="0.5"/>
</linearGradient>
<linearGradient id="paint27_linear_73_2131" x1="1431.33" y1="40.0587" x2="1171.46" y2="536.204" gradientUnits="userSpaceOnUse">
<stop stop-color="white" stop-opacity="0.5"/>
<stop offset="0.26" stop-color="white" stop-opacity="0.63"/>
<stop offset="0.42" stop-color="white" stop-opacity="0.71"/>
<stop offset="1" stop-color="white" stop-opacity="0.5"/>
</linearGradient>
<linearGradient id="paint28_linear_73_2131" x1="1452.07" y1="76.3727" x2="1169.69" y2="554.218" gradientUnits="userSpaceOnUse">
<stop stop-color="white" stop-opacity="0.5"/>
<stop offset="0.26" stop-color="white" stop-opacity="0.63"/>
<stop offset="0.42" stop-color="white" stop-opacity="0.71"/>
<stop offset="1" stop-color="white" stop-opacity="0.5"/>
</linearGradient>
<linearGradient id="paint29_linear_73_2131" x1="1467.71" y1="111.71" x2="1162.03" y2="572.09" gradientUnits="userSpaceOnUse">
<stop stop-color="white" stop-opacity="0.5"/>
<stop offset="0.26" stop-color="white" stop-opacity="0.63"/>
<stop offset="0.42" stop-color="white" stop-opacity="0.71"/>
<stop offset="1" stop-color="white" stop-opacity="0.5"/>
</linearGradient>
<linearGradient id="paint30_linear_73_2131" x1="524.441" y1="320.27" x2="569.605" y2="247.093" gradientUnits="userSpaceOnUse">
<stop stop-color="white" stop-opacity="0"/>
<stop offset="1" stop-color="#89B5FF"/>
</linearGradient>
<linearGradient id="paint31_linear_73_2131" x1="493.774" y1="250.102" x2="1034.98" y2="386.827" gradientUnits="userSpaceOnUse">
<stop stop-color="white" stop-opacity="0"/>
<stop offset="0.645212" stop-color="#4388FF" stop-opacity="0.919943"/>
<stop offset="0.683098" stop-color="#4287FF" stop-opacity="0.928516"/>
<stop offset="1" stop-color="#337EFF"/>
</linearGradient>
<linearGradient id="paint32_linear_73_2131" x1="564.302" y1="253.203" x2="754.543" y2="161.063" gradientUnits="userSpaceOnUse">
<stop stop-color="white"/>
<stop offset="0.659841" stop-color="#7BACFF"/>
<stop offset="1" stop-color="#337EFF"/>
</linearGradient>
<linearGradient id="paint33_linear_73_2131" x1="546.913" y1="326.326" x2="607.832" y2="239.937" gradientUnits="userSpaceOnUse">
<stop stop-color="white" stop-opacity="0"/>
<stop offset="1" stop-color="#89B5FF"/>
</linearGradient>
<linearGradient id="paint34_linear_73_2131" x1="541.693" y1="257.057" x2="969.777" y2="554.564" gradientUnits="userSpaceOnUse">
<stop stop-color="white" stop-opacity="0"/>
<stop offset="0.645212" stop-color="#4388FF" stop-opacity="0.919943"/>
<stop offset="0.683098" stop-color="#4287FF" stop-opacity="0.928516"/>
<stop offset="1" stop-color="#337EFF"/>
</linearGradient>
<linearGradient id="paint35_linear_73_2131" x1="618.598" y1="259.54" x2="874.956" y2="226.596" gradientUnits="userSpaceOnUse">
<stop stop-color="white"/>
<stop offset="0.659841" stop-color="#7BACFF"/>
<stop offset="1" stop-color="#337EFF"/>
</linearGradient>
<linearGradient id="paint36_linear_73_2131" x1="568.25" y1="331.065" x2="648.682" y2="231.867" gradientUnits="userSpaceOnUse">
<stop stop-color="white" stop-opacity="0"/>
<stop offset="1" stop-color="#89B5FF"/>
</linearGradient>
<linearGradient id="paint37_linear_73_2131" x1="589.16" y1="264.65" x2="876.147" y2="611.417" gradientUnits="userSpaceOnUse">
<stop stop-color="white" stop-opacity="0"/>
<stop offset="0.645212" stop-color="#4388FF" stop-opacity="0.919943"/>
<stop offset="0.683098" stop-color="#4287FF" stop-opacity="0.928516"/>
<stop offset="1" stop-color="#337EFF"/>
</linearGradient>
<linearGradient id="paint38_linear_73_2131" x1="673.475" y1="267.238" x2="945.161" y2="336.064" gradientUnits="userSpaceOnUse">
<stop stop-color="white"/>
<stop offset="0.659841" stop-color="#7BACFF"/>
<stop offset="1" stop-color="#337EFF"/>
</linearGradient>
<linearGradient id="paint39_linear_73_2131" x1="588.726" y1="334.448" x2="693.269" y2="223.501" gradientUnits="userSpaceOnUse">
<stop stop-color="white" stop-opacity="0"/>
<stop offset="1" stop-color="#89B5FF"/>
</linearGradient>
<linearGradient id="paint40_linear_73_2131" x1="636.027" y1="272.809" x2="815.665" y2="606.6" gradientUnits="userSpaceOnUse">
<stop stop-color="white" stop-opacity="0"/>
<stop offset="0.645212" stop-color="#4388FF" stop-opacity="0.919943"/>
<stop offset="0.683098" stop-color="#4287FF" stop-opacity="0.928516"/>
<stop offset="1" stop-color="#337EFF"/>
</linearGradient>
<linearGradient id="paint41_linear_73_2131" x1="728.642" y1="276.283" x2="947.011" y2="427.675" gradientUnits="userSpaceOnUse">
<stop stop-color="white"/>
<stop offset="0.659841" stop-color="#7BACFF"/>
<stop offset="1" stop-color="#337EFF"/>
</linearGradient>
<linearGradient id="paint42_linear_73_2131" x1="608.631" y1="336.454" x2="742.803" y2="215.938" gradientUnits="userSpaceOnUse">
<stop stop-color="white" stop-opacity="0"/>
<stop offset="1" stop-color="#89B5FF"/>
</linearGradient>
<linearGradient id="paint43_linear_73_2131" x1="682.158" y1="281.458" x2="790.259" y2="580.717" gradientUnits="userSpaceOnUse">
<stop stop-color="white" stop-opacity="0"/>
<stop offset="0.645212" stop-color="#4388FF" stop-opacity="0.919943"/>
<stop offset="0.683098" stop-color="#4287FF" stop-opacity="0.928516"/>
<stop offset="1" stop-color="#337EFF"/>
</linearGradient>
<linearGradient id="paint44_linear_73_2131" x1="783.802" y1="286.644" x2="928.38" y2="466.281" gradientUnits="userSpaceOnUse">
<stop stop-color="white"/>
<stop offset="0.659841" stop-color="#7BACFF"/>
<stop offset="1" stop-color="#337EFF"/>
</linearGradient>
<linearGradient id="paint45_linear_73_2131" x1="628.27" y1="337.087" x2="798.42" y2="210.967" gradientUnits="userSpaceOnUse">
<stop stop-color="white" stop-opacity="0"/>
<stop offset="1" stop-color="#89B5FF"/>
</linearGradient>
<linearGradient id="paint46_linear_73_2131" x1="727.432" y1="290.516" x2="789.035" y2="550.965" gradientUnits="userSpaceOnUse">
<stop stop-color="white" stop-opacity="0"/>
<stop offset="0.645212" stop-color="#4388FF" stop-opacity="0.919943"/>
<stop offset="0.683098" stop-color="#4287FF" stop-opacity="0.928516"/>
<stop offset="1" stop-color="#337EFF"/>
</linearGradient>
<linearGradient id="paint47_linear_73_2131" x1="838.653" y1="298.273" x2="924.995" y2="470.827" gradientUnits="userSpaceOnUse">
<stop stop-color="white"/>
<stop offset="0.659841" stop-color="#7BACFF"/>
<stop offset="1" stop-color="#337EFF"/>
</linearGradient>
<linearGradient id="paint48_linear_73_2131" x1="647.96" y1="336.365" x2="860.827" y2="211.274" gradientUnits="userSpaceOnUse">
<stop stop-color="white" stop-opacity="0"/>
<stop offset="1" stop-color="#89B5FF"/>
</linearGradient>
<linearGradient id="paint49_linear_73_2131" x1="771.743" y1="299.896" x2="803.01" y2="523.053" gradientUnits="userSpaceOnUse">
<stop stop-color="white" stop-opacity="0"/>
<stop offset="0.645212" stop-color="#4388FF" stop-opacity="0.919943"/>
<stop offset="0.683098" stop-color="#4287FF" stop-opacity="0.928516"/>
<stop offset="1" stop-color="#337EFF"/>
</linearGradient>
<linearGradient id="paint50_linear_73_2131" x1="892.898" y1="311.103" x2="940.73" y2="463.564" gradientUnits="userSpaceOnUse">
<stop stop-color="white"/>
<stop offset="0.659841" stop-color="#7BACFF"/>
<stop offset="1" stop-color="#337EFF"/>
</linearGradient>
<linearGradient id="paint51_linear_73_2131" x1="668.024" y1="334.329" x2="929.65" y2="220.503" gradientUnits="userSpaceOnUse">
<stop stop-color="white" stop-opacity="0"/>
<stop offset="1" stop-color="#89B5FF"/>
</linearGradient>
<linearGradient id="paint52_linear_73_2131" x1="815.001" y1="309.51" x2="826.42" y2="498.372" gradientUnits="userSpaceOnUse">
<stop stop-color="white" stop-opacity="0"/>
<stop offset="0.645212" stop-color="#4388FF" stop-opacity="0.919943"/>
<stop offset="0.683098" stop-color="#4287FF" stop-opacity="0.928516"/>
<stop offset="1" stop-color="#337EFF"/>
</linearGradient>
<linearGradient id="paint53_linear_73_2131" x1="946.244" y1="325.052" x2="969.828" y2="454.813" gradientUnits="userSpaceOnUse">
<stop stop-color="white"/>
<stop offset="0.659841" stop-color="#7BACFF"/>
<stop offset="1" stop-color="#337EFF"/>
</linearGradient>
<linearGradient id="paint54_linear_73_2131" x1="688.788" y1="331.042" x2="1002.51" y2="242.832" gradientUnits="userSpaceOnUse">
<stop stop-color="white" stop-opacity="0"/>
<stop offset="1" stop-color="#89B5FF"/>
</linearGradient>
<linearGradient id="paint55_linear_73_2131" x1="857.135" y1="319.268" x2="855.757" y2="476.842" gradientUnits="userSpaceOnUse">
<stop stop-color="white" stop-opacity="0"/>
<stop offset="0.645212" stop-color="#4388FF" stop-opacity="0.919943"/>
<stop offset="0.683098" stop-color="#4287FF" stop-opacity="0.928516"/>
<stop offset="1" stop-color="#337EFF"/>
</linearGradient>
<linearGradient id="paint56_linear_73_2131" x1="998.403" y1="340.022" x2="1006.94" y2="447.962" gradientUnits="userSpaceOnUse">
<stop stop-color="white"/>
<stop offset="0.659841" stop-color="#7BACFF"/>
<stop offset="1" stop-color="#337EFF"/>
</linearGradient>
<linearGradient id="paint57_linear_73_2131" x1="710.576" y1="326.581" x2="1074.22" y2="281.669" gradientUnits="userSpaceOnUse">
<stop stop-color="white" stop-opacity="0"/>
<stop offset="1" stop-color="#89B5FF"/>
</linearGradient>
<linearGradient id="paint58_linear_73_2131" x1="898.09" y1="329.079" x2="888.893" y2="457.929" gradientUnits="userSpaceOnUse">
<stop stop-color="white" stop-opacity="0"/>
<stop offset="0.645212" stop-color="#4388FF" stop-opacity="0.919943"/>
<stop offset="0.683098" stop-color="#4287FF" stop-opacity="0.928516"/>
<stop offset="1" stop-color="#337EFF"/>
</linearGradient>
<linearGradient id="paint59_linear_73_2131" x1="1049.1" y1="355.899" x2="1048.51" y2="443.701" gradientUnits="userSpaceOnUse">
<stop stop-color="white"/>
<stop offset="0.659841" stop-color="#7BACFF"/>
<stop offset="1" stop-color="#337EFF"/>
</linearGradient>
<linearGradient id="paint60_linear_73_2131" x1="565" y1="282" x2="569" y2="-7.47229e-06" gradientUnits="userSpaceOnUse">
<stop stop-color="white"/>
<stop offset="1" stop-color="#166CFF"/>
</linearGradient>
<clipPath id="clip0_73_2131">
<rect width="1080" height="260" fill="white"/>
</clipPath>
</defs>
</svg>
