<svg width="13" height="12" viewBox="0 0 13 12" fill="none" xmlns="http://www.w3.org/2000/svg">
<path d="M3.33217 10.6819H12.1126C12.1655 10.6819 12.2085 10.6389 12.2085 10.586V4.76432M3.33217 10.6819H0.798034C0.745078 10.6819 0.702148 10.6389 0.702148 10.586V0.586426C0.702148 0.533469 0.745078 0.49054 0.798035 0.49054H5.26496C5.29039 0.49054 5.31478 0.500642 5.33276 0.518624L6.59161 1.77746C6.60959 1.79545 6.63398 1.80555 6.65941 1.80555H12.1126C12.1655 1.80555 12.2085 1.84848 12.2085 1.90143V4.76432M3.33217 10.6819V4.8602C3.33217 4.80725 3.3751 4.76432 3.42805 4.76432H12.2085" stroke="#666666" stroke-width="0.657504"/>
<path d="M5.49707 9.1203H8.37365" stroke="#0F62F0" stroke-width="0.657504"/>
</svg>
