<svg width="1080" height="82" viewBox="0 0 1080 82" fill="none" xmlns="http://www.w3.org/2000/svg">
<g clip-path="url(#clip0_63_669)">
<g filter="url(#filter0_ii_63_669)">
<rect x="26" width="502" height="82" rx="5" fill="url(#paint0_linear_63_669)"/>
<rect x="26" width="502" height="82" rx="5" fill="url(#paint1_linear_63_669)" fill-opacity="0.2"/>
<rect x="26" width="502" height="82" rx="5" fill="url(#paint2_linear_63_669)" fill-opacity="0.2"/>
</g>
<rect opacity="0.45" x="26" width="502" height="82" rx="5" fill="url(#paint3_linear_63_669)"/>
<g filter="url(#filter1_ii_63_669)">
<rect x="540" width="502" height="82" rx="5" fill="url(#paint4_linear_63_669)"/>
<rect x="540" width="502" height="82" rx="5" fill="url(#paint5_linear_63_669)" fill-opacity="0.2"/>
<rect x="540" width="502" height="82" rx="5" fill="url(#paint6_linear_63_669)" fill-opacity="0.2"/>
</g>
<rect opacity="0.45" x="540" width="502" height="82" rx="5" fill="url(#paint7_linear_63_669)"/>
<path d="M214.84 33.008L214.84 35.624L212.872 35.624L212.872 31.112L227.08 31.112L227.08 35.528L225.04 35.528L225.04 33.008L214.84 33.008ZM220.72 35.216L222.328 34.16C223.96 35.6 225.952 37.664 226.864 39.056L225.16 40.256C224.32 38.888 222.376 36.752 220.72 35.216ZM216.976 34.352L219.016 35C217.84 37.04 215.896 39.056 214.144 40.328C213.808 39.92 213.04 39.152 212.56 38.792C214.288 37.736 215.992 36.056 216.976 34.352ZM212.08 32.408L210.904 34.28C210.04 33.584 208.288 32.528 206.968 31.832L208.12 30.152C209.392 30.728 211.168 31.712 212.08 32.408ZM211.264 39.008L210.136 40.856C209.224 40.088 207.352 38.96 205.936 38.264L207.016 36.584C208.408 37.208 210.304 38.264 211.264 39.008ZM210.28 42.464L211.744 43.976C210.664 46.448 209.296 49.28 208.072 51.536L206.416 49.952C207.496 48.176 209.056 45.152 210.28 42.464ZM227.128 43.376L222.328 43.376C223.648 45.608 225.76 47.72 227.872 48.848C227.392 49.28 226.672 50.048 226.312 50.624C224.368 49.352 222.448 47.216 221.056 44.888L221.056 51.728L218.8 51.728L218.8 44.864C217.312 47.36 215.2 49.472 212.896 50.696C212.56 50.168 211.912 49.4 211.408 48.992C213.856 47.888 216.088 45.776 217.504 43.376L212.776 43.376L212.776 41.36L218.8 41.36L218.8 38.864L221.056 38.864L221.056 41.36L227.128 41.36L227.128 43.376ZM234.184 34.184L234.184 38.504C234.184 42.392 233.896 48.08 231.904 51.872C231.448 51.536 230.44 51.056 229.888 50.864C231.808 47.264 232 42.104 232 38.504L232 32.12L241.048 32.12C240.808 31.496 240.544 30.8 240.256 30.272L242.488 29.744C242.896 30.464 243.304 31.376 243.592 32.12L251.704 32.12L251.704 34.184L234.184 34.184ZM245.584 38.432L240.4 38.432L240.4 40.544L245.584 40.544L245.584 38.432ZM247.768 42.272L238.288 42.272L238.288 38.432L234.736 38.432L234.736 36.632L238.288 36.632L238.288 34.784L240.4 34.784L240.4 36.632L245.584 36.632L245.584 34.784L247.768 34.784L247.768 36.632L251.44 36.632L251.44 38.432L247.768 38.432L247.768 42.272ZM246.688 45.32L239.224 45.32C240.136 46.328 241.384 47.168 242.896 47.864C244.408 47.192 245.728 46.352 246.688 45.32ZM248.608 43.472L250 44.192C248.944 46.16 247.336 47.648 245.368 48.752C247.336 49.376 249.616 49.736 252.04 49.952C251.584 50.432 251.032 51.32 250.744 51.872C247.792 51.56 245.104 50.912 242.8 49.952C240.376 50.864 237.64 51.416 234.76 51.752C234.616 51.2 234.208 50.36 233.848 49.856C236.152 49.664 238.408 49.328 240.424 48.728C239.056 47.888 237.904 46.88 236.968 45.68L237.904 45.32L235 45.32L235 43.544L248.224 43.544L248.608 43.472ZM257.008 35.72L257.008 38.672L254.92 38.672L254.92 33.752L258.712 33.752C258.28 32.888 257.536 31.808 256.816 30.944L258.712 30.08C259.576 31.064 260.536 32.384 260.944 33.272L259.984 33.752L264.736 33.752C264.4 32.768 263.704 31.4 263.056 30.392L265.024 29.648C265.792 30.752 266.632 32.24 266.92 33.224L265.6 33.752L269.152 33.752C269.992 32.648 270.904 31.136 271.408 30.008L273.688 30.776C273.016 31.784 272.248 32.864 271.528 33.752L275.248 33.752L275.248 38.672L273.04 38.672L273.04 35.72L257.008 35.72ZM275.608 43.304L275.608 45.368L266.08 45.368L266.08 49.304C266.08 50.528 265.768 51.152 264.784 51.464C263.8 51.8 262.384 51.824 260.296 51.824C260.128 51.224 259.72 50.264 259.36 49.688C261.04 49.736 262.72 49.736 263.224 49.712C263.68 49.688 263.8 49.592 263.8 49.256L263.8 45.368L254.512 45.368L254.512 43.304L263.8 43.304L263.8 41.672C265 41.216 266.272 40.544 267.352 39.872L258.616 39.872L258.616 37.928L269.872 37.928L270.328 37.808L271.768 38.936C270.256 40.304 268.168 41.6 266.08 42.56L266.08 43.304L275.608 43.304ZM293.608 41.792L294.016 43.856C289.216 45.608 283.912 47.456 280.24 48.752L279.448 46.496C282.856 45.44 288.496 43.568 293.608 41.792ZM282.496 36.68L283.984 35.24C286 36.632 288.784 38.624 290.176 39.896L288.592 41.6C287.296 40.304 284.536 38.168 282.496 36.68ZM298.408 31.448L298.408 32.672C298.24 44.984 298.048 48.992 297.112 50.288C296.512 51.176 295.864 51.488 294.928 51.608C293.944 51.704 292.288 51.656 290.848 51.608C290.848 51.008 290.536 50.072 290.128 49.472C291.88 49.592 293.344 49.592 294.04 49.592C294.496 49.616 294.76 49.496 295.024 49.184C295.792 48.368 295.984 44 296.128 33.584L279.832 33.584L279.832 31.448L298.408 31.448ZM307.432 36.728L307.432 37.376C308.176 38.144 309.976 40.256 310.384 40.784L309.232 42.704C308.872 42.032 308.104 40.88 307.432 39.872L307.432 51.824L305.368 51.824L305.368 41.288C304.624 43.472 303.688 45.488 302.728 46.808C302.512 46.208 302.032 45.224 301.672 44.648C303.136 42.92 304.552 39.632 305.248 36.728L302.104 36.728L302.104 34.664L305.368 34.664L305.368 29.816L307.432 29.816L307.432 34.664L309.856 34.664L309.856 36.728L307.432 36.728ZM312.544 48.728L324.064 48.728L324.064 50.768L310.432 50.768L310.432 31.256L323.68 31.256L323.68 33.272L312.544 33.272L312.544 48.728ZM313.288 44.912L317.104 44.912L317.104 41.672L313.864 41.672L313.864 39.824L317.104 39.824L317.104 36.92L313.48 36.92L313.48 35.024L323.104 35.024L323.104 36.92L319.192 36.92L319.192 39.824L322.648 39.824L322.648 41.672L319.192 41.672L319.192 44.912L323.296 44.912L323.296 46.808L313.288 46.808L313.288 44.912ZM344.68 38.168L344.68 33.68L340.408 33.68L340.408 38.168L344.68 38.168ZM346.912 31.736L346.912 40.088L338.32 40.088L338.32 31.736L346.912 31.736ZM334.648 34.256L331.72 34.256C331.216 37.448 330.064 39.872 327.232 41.432C326.992 40.88 326.368 40.112 325.888 39.728C328.192 38.504 329.152 36.68 329.584 34.256L326.392 34.256L326.392 32.312L329.824 32.312C329.896 31.568 329.944 30.728 329.968 29.888L332.104 29.888C332.056 30.728 332.008 31.544 331.96 32.312L336.88 32.312C336.88 32.312 336.856 32.864 336.832 33.152C336.592 37.424 336.376 39.176 335.8 39.848C335.368 40.304 334.96 40.472 334.312 40.544C333.808 40.64 332.848 40.64 331.864 40.592C331.816 39.992 331.6 39.152 331.312 38.624C332.152 38.696 332.92 38.72 333.28 38.72C333.616 38.72 333.808 38.672 333.976 38.48C334.288 38.144 334.48 37.016 334.648 34.256ZM347.344 44.696L339.52 44.696C341.536 46.784 344.824 48.584 347.992 49.448C347.512 49.904 346.84 50.744 346.504 51.32C343.432 50.264 340.288 48.32 338.104 45.968L338.104 51.944L335.8 51.944L335.8 45.92C333.616 48.344 330.448 50.408 327.424 51.512C327.088 50.984 326.44 50.144 325.96 49.712C329.056 48.776 332.344 46.832 334.384 44.696L326.464 44.696L326.464 42.728L335.8 42.728L335.8 40.664L338.104 40.664L338.104 42.728L347.344 42.728L347.344 44.696Z" fill="white"/>
<path d="M743.992 44.776L748.816 44.776L748.12 42.4C747.52 40.48 746.992 38.512 746.44 36.52L746.344 36.52C745.84 38.536 745.288 40.48 744.712 42.4L743.992 44.776ZM750.976 52L749.488 46.96L743.344 46.96L741.832 52L739 52L744.856 34.336L748.072 34.336L753.928 52L750.976 52ZM756.258 52L756.258 34.336L759.042 34.336L759.042 52L756.258 52ZM770.864 52.312C766.136 52.312 762.704 49 762.704 43.216C762.704 37.456 766.256 34 770.936 34C773.432 34 775.112 35.104 776.192 36.232L774.68 38.008C773.816 37.12 772.736 36.424 771.032 36.424C767.744 36.424 765.56 38.968 765.56 43.12C765.56 47.32 767.504 49.888 771.152 49.888C772.232 49.888 773.312 49.576 773.936 49.024L773.936 44.872L770.432 44.872L770.432 42.592L776.456 42.592L776.456 50.248C775.28 51.424 773.288 52.312 770.864 52.312ZM787.38 52.312C782.94 52.312 779.532 49 779.532 43.216C779.532 37.456 783.036 34 787.5 34C789.708 34 791.436 35.056 792.516 36.232L791.004 38.008C790.092 37.072 788.988 36.424 787.548 36.424C784.5 36.424 782.388 38.968 782.388 43.12C782.388 47.32 784.356 49.888 787.476 49.888C789.084 49.888 790.332 49.168 791.388 48.016L792.876 49.768C791.46 51.4 789.66 52.312 787.38 52.312ZM816.288 36.904L798.816 36.904L798.816 41.248C798.816 44.944 798.504 50.464 796.536 54.088C796.128 53.68 795.12 53.032 794.592 52.816C796.392 49.456 796.56 44.632 796.56 41.248L796.56 34.792L805.872 34.792C805.56 33.952 805.176 32.992 804.792 32.2L807 31.648C807.528 32.656 808.08 33.88 808.392 34.792L816.288 34.792L816.288 36.904ZM809.088 46.432L806.928 47.056C806.616 44.848 805.752 41.464 804.984 38.872L807.024 38.344C807.84 40.936 808.728 44.224 809.088 46.432ZM804.672 47.584L802.584 48.472C802.128 46.24 800.976 42.856 800.016 40.264L801.96 39.52C803.016 42.088 804.144 45.376 804.672 47.584ZM810.36 50.728L816.576 50.728L816.576 52.84L798.84 52.84L798.84 50.728L808.032 50.728C810.336 47.104 812.112 42.28 813.024 38.224L815.376 39.04C814.248 42.928 812.496 47.128 810.36 50.728ZM830.976 44.656L836.784 44.656L836.784 41.104L830.976 41.104L830.976 44.656ZM823.44 44.656L828.744 44.656L828.744 41.104L823.536 41.104L823.536 42.064C823.536 42.88 823.512 43.768 823.44 44.656ZM828.744 35.632L823.536 35.632L823.536 39.016L828.744 39.016L828.744 35.632ZM836.784 39.016L836.784 35.632L830.976 35.632L830.976 39.016L836.784 39.016ZM839.016 33.496L839.016 51.088C839.016 52.384 838.704 53.056 837.84 53.392C836.952 53.752 835.56 53.8 833.352 53.776C833.256 53.176 832.896 52.192 832.608 51.616C834.144 51.688 835.728 51.664 836.184 51.664C836.616 51.664 836.784 51.52 836.784 51.064L836.784 46.768L830.976 46.768L830.976 53.632L828.744 53.632L828.744 46.768L823.224 46.768C822.84 49.408 821.976 52.096 820.224 54.04C819.888 53.608 818.976 52.84 818.472 52.576C821.088 49.672 821.328 45.424 821.328 42.04L821.328 33.496L839.016 33.496Z" fill="white"/>
</g>
<defs>
<filter id="filter0_ii_63_669" x="26" y="-10.0185" width="502" height="102.037" filterUnits="userSpaceOnUse" color-interpolation-filters="sRGB">
<feFlood flood-opacity="0" result="BackgroundImageFix"/>
<feBlend mode="normal" in="SourceGraphic" in2="BackgroundImageFix" result="shape"/>
<feColorMatrix in="SourceAlpha" type="matrix" values="0 0 0 0 0 0 0 0 0 0 0 0 0 0 0 0 0 0 127 0" result="hardAlpha"/>
<feOffset dy="-10.0185"/>
<feGaussianBlur stdDeviation="5.00926"/>
<feComposite in2="hardAlpha" operator="arithmetic" k2="-1" k3="1"/>
<feColorMatrix type="matrix" values="0 0 0 0 0.226 0 0 0 0 0.558353 0 0 0 0 1 0 0 0 0.5 0"/>
<feBlend mode="normal" in2="shape" result="effect1_innerShadow_63_669"/>
<feColorMatrix in="SourceAlpha" type="matrix" values="0 0 0 0 0 0 0 0 0 0 0 0 0 0 0 0 0 0 127 0" result="hardAlpha"/>
<feOffset dy="10.0185"/>
<feGaussianBlur stdDeviation="5.00926"/>
<feComposite in2="hardAlpha" operator="arithmetic" k2="-1" k3="1"/>
<feColorMatrix type="matrix" values="0 0 0 0 0.1675 0 0 0 0 0.413824 0 0 0 0 0.8375 0 0 0 0.5 0"/>
<feBlend mode="normal" in2="effect1_innerShadow_63_669" result="effect2_innerShadow_63_669"/>
</filter>
<filter id="filter1_ii_63_669" x="540" y="-10.0185" width="502" height="102.037" filterUnits="userSpaceOnUse" color-interpolation-filters="sRGB">
<feFlood flood-opacity="0" result="BackgroundImageFix"/>
<feBlend mode="normal" in="SourceGraphic" in2="BackgroundImageFix" result="shape"/>
<feColorMatrix in="SourceAlpha" type="matrix" values="0 0 0 0 0 0 0 0 0 0 0 0 0 0 0 0 0 0 127 0" result="hardAlpha"/>
<feOffset dy="-10.0185"/>
<feGaussianBlur stdDeviation="5.00926"/>
<feComposite in2="hardAlpha" operator="arithmetic" k2="-1" k3="1"/>
<feColorMatrix type="matrix" values="0 0 0 0 0.226 0 0 0 0 0.558353 0 0 0 0 1 0 0 0 0.5 0"/>
<feBlend mode="normal" in2="shape" result="effect1_innerShadow_63_669"/>
<feColorMatrix in="SourceAlpha" type="matrix" values="0 0 0 0 0 0 0 0 0 0 0 0 0 0 0 0 0 0 127 0" result="hardAlpha"/>
<feOffset dy="10.0185"/>
<feGaussianBlur stdDeviation="5.00926"/>
<feComposite in2="hardAlpha" operator="arithmetic" k2="-1" k3="1"/>
<feColorMatrix type="matrix" values="0 0 0 0 0.1675 0 0 0 0 0.413824 0 0 0 0 0.8375 0 0 0 0.5 0"/>
<feBlend mode="normal" in2="effect1_innerShadow_63_669" result="effect2_innerShadow_63_669"/>
</filter>
<linearGradient id="paint0_linear_63_669" x1="276.453" y1="-143" x2="305.724" y2="487.266" gradientUnits="userSpaceOnUse">
<stop stop-color="#2C6EDE"/>
<stop offset="0.265" stop-color="#528EED"/>
<stop offset="0.52" stop-color="#77AEFB"/>
<stop offset="1" stop-color="#77AEFB"/>
</linearGradient>
<linearGradient id="paint1_linear_63_669" x1="13.9695" y1="-1.22263e-06" x2="525.039" y2="97.5185" gradientUnits="userSpaceOnUse">
<stop stop-color="white" stop-opacity="0"/>
<stop offset="0.285" stop-color="#9ABFFF"/>
<stop offset="0.69" stop-color="#72A6FF"/>
<stop offset="1" stop-color="#337EFF"/>
</linearGradient>
<linearGradient id="paint2_linear_63_669" x1="26" y1="0" x2="529.027" y2="75.1259" gradientUnits="userSpaceOnUse">
<stop stop-color="white" stop-opacity="0"/>
<stop offset="0.45" stop-color="#92B5F0" stop-opacity="0.45"/>
<stop offset="0.76" stop-color="#4782E6" stop-opacity="0.9"/>
<stop offset="1" stop-color="#0E5ADE"/>
</linearGradient>
<linearGradient id="paint3_linear_63_669" x1="297.233" y1="82" x2="297.233" y2="1.58706e-06" gradientUnits="userSpaceOnUse">
<stop stop-color="white"/>
<stop offset="0.1299" stop-color="#E9F1FD"/>
<stop offset="0.13" stop-color="#E5EEFD"/>
<stop offset="0.24" stop-color="#CFDFFB"/>
<stop offset="0.35" stop-color="#BAD1F9"/>
<stop offset="0.46" stop-color="#A4C3F7"/>
<stop offset="0.645" stop-color="#86AFF5"/>
<stop offset="1" stop-color="#4382EF"/>
</linearGradient>
<linearGradient id="paint4_linear_63_669" x1="790.453" y1="-143" x2="819.724" y2="487.266" gradientUnits="userSpaceOnUse">
<stop stop-color="#2C6EDE"/>
<stop offset="0.265" stop-color="#528EED"/>
<stop offset="0.52" stop-color="#77AEFB"/>
<stop offset="1" stop-color="#77AEFB"/>
</linearGradient>
<linearGradient id="paint5_linear_63_669" x1="527.969" y1="-1.22263e-06" x2="1039.04" y2="97.5185" gradientUnits="userSpaceOnUse">
<stop stop-color="white" stop-opacity="0"/>
<stop offset="0.285" stop-color="#9ABFFF"/>
<stop offset="0.69" stop-color="#72A6FF"/>
<stop offset="1" stop-color="#337EFF"/>
</linearGradient>
<linearGradient id="paint6_linear_63_669" x1="540" y1="0" x2="1043.03" y2="75.1259" gradientUnits="userSpaceOnUse">
<stop stop-color="white" stop-opacity="0"/>
<stop offset="0.45" stop-color="#92B5F0" stop-opacity="0.45"/>
<stop offset="0.76" stop-color="#4782E6" stop-opacity="0.9"/>
<stop offset="1" stop-color="#0E5ADE"/>
</linearGradient>
<linearGradient id="paint7_linear_63_669" x1="811.233" y1="82" x2="811.233" y2="1.58706e-06" gradientUnits="userSpaceOnUse">
<stop stop-color="white"/>
<stop offset="0.1299" stop-color="#E9F1FD"/>
<stop offset="0.13" stop-color="#E5EEFD"/>
<stop offset="0.24" stop-color="#CFDFFB"/>
<stop offset="0.35" stop-color="#BAD1F9"/>
<stop offset="0.46" stop-color="#A4C3F7"/>
<stop offset="0.645" stop-color="#86AFF5"/>
<stop offset="1" stop-color="#4382EF"/>
</linearGradient>
<clipPath id="clip0_63_669">
<rect width="1080" height="82" fill="white"/>
</clipPath>
</defs>
</svg>
